%TF.GenerationSoftware,KiCad,Pcbnew,8.0.0*%
%TF.CreationDate,2024-03-25T13:22:01-05:00*%
%TF.ProjectId,MiniMastermindPanel,4d696e69-4d61-4737-9465-726d696e6450,rev?*%
%TF.SameCoordinates,Original*%
%TF.FileFunction,Soldermask,Top*%
%TF.FilePolarity,Negative*%
%FSLAX46Y46*%
G04 Gerber Fmt 4.6, Leading zero omitted, Abs format (unit mm)*
G04 Created by KiCad (PCBNEW 8.0.0) date 2024-03-25 13:22:01*
%MOMM*%
%LPD*%
G01*
G04 APERTURE LIST*
G04 Aperture macros list*
%AMRoundRect*
0 Rectangle with rounded corners*
0 $1 Rounding radius*
0 $2 $3 $4 $5 $6 $7 $8 $9 X,Y pos of 4 corners*
0 Add a 4 corners polygon primitive as box body*
4,1,4,$2,$3,$4,$5,$6,$7,$8,$9,$2,$3,0*
0 Add four circle primitives for the rounded corners*
1,1,$1+$1,$2,$3*
1,1,$1+$1,$4,$5*
1,1,$1+$1,$6,$7*
1,1,$1+$1,$8,$9*
0 Add four rect primitives between the rounded corners*
20,1,$1+$1,$2,$3,$4,$5,0*
20,1,$1+$1,$4,$5,$6,$7,0*
20,1,$1+$1,$6,$7,$8,$9,0*
20,1,$1+$1,$8,$9,$2,$3,0*%
%AMFreePoly0*
4,1,6,1.000000,0.000000,0.500000,-0.750000,-0.500000,-0.750000,-0.500000,0.750000,0.500000,0.750000,1.000000,0.000000,1.000000,0.000000,$1*%
%AMFreePoly1*
4,1,6,0.500000,-0.750000,-0.650000,-0.750000,-0.150000,0.000000,-0.650000,0.750000,0.500000,0.750000,0.500000,-0.750000,0.500000,-0.750000,$1*%
G04 Aperture macros list end*
%ADD10RoundRect,0.250000X0.475000X-0.250000X0.475000X0.250000X-0.475000X0.250000X-0.475000X-0.250000X0*%
%ADD11C,2.000000*%
%ADD12R,1.800000X0.820000*%
%ADD13R,0.800000X0.500000*%
%ADD14R,0.800000X0.400000*%
%ADD15R,1.700000X1.700000*%
%ADD16O,1.700000X1.700000*%
%ADD17C,0.650000*%
%ADD18R,0.250000X1.400000*%
%ADD19O,1.000000X2.100000*%
%ADD20O,1.000000X1.800000*%
%ADD21RoundRect,0.250000X0.450000X-0.262500X0.450000X0.262500X-0.450000X0.262500X-0.450000X-0.262500X0*%
%ADD22C,1.700000*%
%ADD23C,4.000000*%
%ADD24C,2.200000*%
%ADD25RoundRect,0.100000X0.100000X-0.637500X0.100000X0.637500X-0.100000X0.637500X-0.100000X-0.637500X0*%
%ADD26C,1.000000*%
%ADD27FreePoly0,180.000000*%
%ADD28FreePoly1,180.000000*%
%ADD29R,1.000000X1.500000*%
%ADD30R,3.000000X1.900000*%
%ADD31O,2.200000X1.550000*%
%ADD32C,2.050000*%
%ADD33C,1.300000*%
%ADD34RoundRect,0.250000X-0.475000X0.250000X-0.475000X-0.250000X0.475000X-0.250000X0.475000X0.250000X0*%
%ADD35RoundRect,0.375000X0.375000X-0.625000X0.375000X0.625000X-0.375000X0.625000X-0.375000X-0.625000X0*%
%ADD36RoundRect,0.500000X1.400000X-0.500000X1.400000X0.500000X-1.400000X0.500000X-1.400000X-0.500000X0*%
G04 APERTURE END LIST*
D10*
%TO.C,C8*%
X165610650Y-79478680D03*
X165610650Y-77578680D03*
%TD*%
D11*
%TO.C,KiKit_TO_3*%
X104510650Y-212414720D03*
%TD*%
D12*
%TO.C,D4*%
X116760650Y-150782360D03*
X116760650Y-152317360D03*
X121860650Y-152317360D03*
X121860650Y-150782360D03*
%TD*%
D13*
%TO.C,RN2*%
X161210650Y-177336040D03*
D14*
X161210650Y-176536040D03*
X161210650Y-175736040D03*
D13*
X161210650Y-174936040D03*
X159410650Y-174936040D03*
D14*
X159410650Y-175736040D03*
X159410650Y-176536040D03*
D13*
X159410650Y-177336040D03*
%TD*%
D15*
%TO.C,J3*%
X166010650Y-180736040D03*
D16*
X168550650Y-180736040D03*
X171090650Y-180736040D03*
X173630650Y-180736040D03*
%TD*%
D13*
%TO.C,RN2*%
X161210650Y-85378680D03*
D14*
X161210650Y-84578680D03*
X161210650Y-83778680D03*
D13*
X161210650Y-82978680D03*
X159410650Y-82978680D03*
D14*
X159410650Y-83778680D03*
X159410650Y-84578680D03*
D13*
X159410650Y-85378680D03*
%TD*%
D12*
%TO.C,D3*%
X136260650Y-196761040D03*
X136260650Y-198296040D03*
X141360650Y-198296040D03*
X141360650Y-196761040D03*
%TD*%
D17*
%TO.C,J4*%
X152500650Y-79366180D03*
X146720650Y-79366180D03*
D18*
X152935650Y-80566180D03*
X152135650Y-80566180D03*
X150860650Y-80566180D03*
X149860650Y-80566180D03*
X149360650Y-80566180D03*
X151360650Y-80566180D03*
X147085650Y-80566180D03*
X146285650Y-80566180D03*
X146535650Y-80566180D03*
X147335650Y-80566180D03*
X147860650Y-80566180D03*
X148860650Y-80566180D03*
X150360650Y-80566180D03*
X148360650Y-80566180D03*
X151885650Y-80566180D03*
X152685650Y-80566180D03*
D19*
X153930650Y-79866180D03*
D20*
X153930650Y-75716180D03*
D19*
X145290650Y-79866180D03*
D20*
X145290650Y-75716180D03*
%TD*%
D21*
%TO.C,R1*%
X144498150Y-85491180D03*
X144498150Y-83666180D03*
%TD*%
D22*
%TO.C,SW1*%
X114250650Y-101178680D03*
D23*
X119330650Y-101178680D03*
D22*
X124410650Y-101178680D03*
D24*
X121870650Y-96098680D03*
X115520650Y-98638680D03*
%TD*%
%TO.C,H2*%
X185010650Y-121957360D03*
%TD*%
D25*
%TO.C,U2*%
X149235650Y-89378680D03*
X149885650Y-89378680D03*
X150535650Y-89378680D03*
X151185650Y-89378680D03*
X151835650Y-89378680D03*
X152485650Y-89378680D03*
X153135650Y-89378680D03*
X153785650Y-89378680D03*
X154435650Y-89378680D03*
X155085650Y-89378680D03*
X155085650Y-83653680D03*
X154435650Y-83653680D03*
X153785650Y-83653680D03*
X153135650Y-83653680D03*
X152485650Y-83653680D03*
X151835650Y-83653680D03*
X151185650Y-83653680D03*
X150535650Y-83653680D03*
X149885650Y-83653680D03*
X149235650Y-83653680D03*
%TD*%
D10*
%TO.C,C3*%
X137710650Y-180336040D03*
X137710650Y-178436040D03*
%TD*%
D26*
%TO.C,KiKit_FID_T_2*%
X192489350Y-22500000D03*
%TD*%
D27*
%TO.C,JP1*%
X181985650Y-80128680D03*
D28*
X180535650Y-80128680D03*
%TD*%
D10*
%TO.C,C3*%
X137710650Y-134357360D03*
X137710650Y-132457360D03*
%TD*%
%TO.C,C6*%
X177960650Y-33500000D03*
X177960650Y-31600000D03*
%TD*%
D29*
%TO.C,JP4*%
X180610650Y-136757360D03*
X181910650Y-136757360D03*
%TD*%
D11*
%TO.C,KiKit_TO_4*%
X192489350Y-212414720D03*
%TD*%
D22*
%TO.C,SW5*%
X172650650Y-147157360D03*
D23*
X177730650Y-147157360D03*
D22*
X182810650Y-147157360D03*
D24*
X180270650Y-142077360D03*
X173920650Y-144617360D03*
%TD*%
D30*
%TO.C,SW2*%
X129960650Y-178686040D03*
D31*
X125460650Y-173186040D03*
D32*
X129960650Y-173186040D03*
D30*
X129960650Y-167686040D03*
D33*
X137460650Y-175686040D03*
X137460650Y-170686040D03*
X137460650Y-173186040D03*
X122960650Y-175686040D03*
X122960650Y-170686040D03*
%TD*%
D27*
%TO.C,JP3*%
X181985650Y-41250000D03*
D28*
X180535650Y-41250000D03*
%TD*%
D27*
%TO.C,JP3*%
X181985650Y-87228680D03*
D28*
X180535650Y-87228680D03*
%TD*%
D13*
%TO.C,RN1*%
X161210650Y-171136040D03*
D14*
X161210650Y-170336040D03*
X161210650Y-169536040D03*
D13*
X161210650Y-168736040D03*
X159410650Y-168736040D03*
D14*
X159410650Y-169536040D03*
X159410650Y-170336040D03*
D13*
X159410650Y-171136040D03*
%TD*%
D27*
%TO.C,JP1*%
X181985650Y-34150000D03*
D28*
X180535650Y-34150000D03*
%TD*%
D29*
%TO.C,JP4*%
X180610650Y-90778680D03*
X181910650Y-90778680D03*
%TD*%
D15*
%TO.C,J5*%
X117135650Y-75278680D03*
D16*
X119675650Y-75278680D03*
%TD*%
D26*
%TO.C,KiKit_FID_T_1*%
X104510650Y-22500000D03*
%TD*%
D24*
%TO.C,H3*%
X112010650Y-67200000D03*
%TD*%
%TO.C,H1*%
X112010650Y-75978680D03*
%TD*%
%TO.C,H4*%
X185010650Y-205136040D03*
%TD*%
D12*
%TO.C,D1*%
X175160650Y-104803680D03*
X175160650Y-106338680D03*
X180260650Y-106338680D03*
X180260650Y-104803680D03*
%TD*%
D21*
%TO.C,R1*%
X144498150Y-39512500D03*
X144498150Y-37687500D03*
%TD*%
D13*
%TO.C,RN1*%
X161210650Y-33200000D03*
D14*
X161210650Y-32400000D03*
X161210650Y-31600000D03*
D13*
X161210650Y-30800000D03*
X159410650Y-30800000D03*
D14*
X159410650Y-31600000D03*
X159410650Y-32400000D03*
D13*
X159410650Y-33200000D03*
%TD*%
D12*
%TO.C,D2*%
X155760650Y-150782360D03*
X155760650Y-152317360D03*
X160860650Y-152317360D03*
X160860650Y-150782360D03*
%TD*%
%TO.C,D2*%
X155760650Y-104803680D03*
X155760650Y-106338680D03*
X160860650Y-106338680D03*
X160860650Y-104803680D03*
%TD*%
D29*
%TO.C,JP2*%
X181910650Y-83678680D03*
X180610650Y-83678680D03*
%TD*%
D12*
%TO.C,D1*%
X175160650Y-196761040D03*
X175160650Y-198296040D03*
X180260650Y-198296040D03*
X180260650Y-196761040D03*
%TD*%
D10*
%TO.C,C8*%
X165610650Y-125457360D03*
X165610650Y-123557360D03*
%TD*%
D22*
%TO.C,SW1*%
X114250650Y-193136040D03*
D23*
X119330650Y-193136040D03*
D22*
X124410650Y-193136040D03*
D24*
X121870650Y-188056040D03*
X115520650Y-190596040D03*
%TD*%
D13*
%TO.C,RN1*%
X161210650Y-79178680D03*
D14*
X161210650Y-78378680D03*
X161210650Y-77578680D03*
D13*
X161210650Y-76778680D03*
X159410650Y-76778680D03*
D14*
X159410650Y-77578680D03*
X159410650Y-78378680D03*
D13*
X159410650Y-79178680D03*
%TD*%
D25*
%TO.C,U2*%
X149235650Y-43400000D03*
X149885650Y-43400000D03*
X150535650Y-43400000D03*
X151185650Y-43400000D03*
X151835650Y-43400000D03*
X152485650Y-43400000D03*
X153135650Y-43400000D03*
X153785650Y-43400000D03*
X154435650Y-43400000D03*
X155085650Y-43400000D03*
X155085650Y-37675000D03*
X154435650Y-37675000D03*
X153785650Y-37675000D03*
X153135650Y-37675000D03*
X152485650Y-37675000D03*
X151835650Y-37675000D03*
X151185650Y-37675000D03*
X150535650Y-37675000D03*
X149885650Y-37675000D03*
X149235650Y-37675000D03*
%TD*%
D22*
%TO.C,SW3*%
X133717316Y-193136040D03*
D23*
X138797316Y-193136040D03*
D22*
X143877316Y-193136040D03*
D24*
X141337316Y-188056040D03*
X134987316Y-190596040D03*
%TD*%
D10*
%TO.C,C3*%
X137710650Y-88378680D03*
X137710650Y-86478680D03*
%TD*%
D24*
%TO.C,H2*%
X185010650Y-30000000D03*
%TD*%
D26*
%TO.C,KiKit_FID_T_4*%
X192489350Y-212414720D03*
%TD*%
D34*
%TO.C,C4*%
X134310650Y-40500000D03*
X134310650Y-42400000D03*
%TD*%
D15*
%TO.C,J5*%
X117135650Y-167236040D03*
D16*
X119675650Y-167236040D03*
%TD*%
D17*
%TO.C,J4*%
X152500650Y-33387500D03*
X146720650Y-33387500D03*
D18*
X152935650Y-34587500D03*
X152135650Y-34587500D03*
X150860650Y-34587500D03*
X149860650Y-34587500D03*
X149360650Y-34587500D03*
X151360650Y-34587500D03*
X147085650Y-34587500D03*
X146285650Y-34587500D03*
X146535650Y-34587500D03*
X147335650Y-34587500D03*
X147860650Y-34587500D03*
X148860650Y-34587500D03*
X150360650Y-34587500D03*
X148360650Y-34587500D03*
X151885650Y-34587500D03*
X152685650Y-34587500D03*
D19*
X153930650Y-33887500D03*
D20*
X153930650Y-29737500D03*
D19*
X145290650Y-33887500D03*
D20*
X145290650Y-29737500D03*
%TD*%
D24*
%TO.C,H2*%
X185010650Y-167936040D03*
%TD*%
D15*
%TO.C,J3*%
X166010650Y-88778680D03*
D16*
X168550650Y-88778680D03*
X171090650Y-88778680D03*
X173630650Y-88778680D03*
%TD*%
D27*
%TO.C,JP3*%
X181985650Y-179186040D03*
D28*
X180535650Y-179186040D03*
%TD*%
D12*
%TO.C,D2*%
X155760650Y-196761040D03*
X155760650Y-198296040D03*
X160860650Y-198296040D03*
X160860650Y-196761040D03*
%TD*%
D10*
%TO.C,C6*%
X177960650Y-125457360D03*
X177960650Y-123557360D03*
%TD*%
D24*
%TO.C,H1*%
X112010650Y-121957360D03*
%TD*%
D12*
%TO.C,D3*%
X136260650Y-58825000D03*
X136260650Y-60360000D03*
X141360650Y-60360000D03*
X141360650Y-58825000D03*
%TD*%
D24*
%TO.C,H1*%
X112010650Y-30000000D03*
%TD*%
D35*
%TO.C,U1*%
X169498150Y-173598540D03*
X171798150Y-173598540D03*
D36*
X171798150Y-167298540D03*
D35*
X174098150Y-173598540D03*
%TD*%
D13*
%TO.C,RN2*%
X161210650Y-39400000D03*
D14*
X161210650Y-38600000D03*
X161210650Y-37800000D03*
D13*
X161210650Y-37000000D03*
X159410650Y-37000000D03*
D14*
X159410650Y-37800000D03*
X159410650Y-38600000D03*
D13*
X159410650Y-39400000D03*
%TD*%
D22*
%TO.C,SW4*%
X153183982Y-147157360D03*
D23*
X158263982Y-147157360D03*
D22*
X163343982Y-147157360D03*
D24*
X160803982Y-142077360D03*
X154453982Y-144617360D03*
%TD*%
D22*
%TO.C,SW5*%
X172650650Y-101178680D03*
D23*
X177730650Y-101178680D03*
D22*
X182810650Y-101178680D03*
D24*
X180270650Y-96098680D03*
X173920650Y-98638680D03*
%TD*%
D21*
%TO.C,R1*%
X144498150Y-131469860D03*
X144498150Y-129644860D03*
%TD*%
D24*
%TO.C,H4*%
X185010650Y-67200000D03*
%TD*%
D21*
%TO.C,R1*%
X144498150Y-177448540D03*
X144498150Y-175623540D03*
%TD*%
D35*
%TO.C,U1*%
X169498150Y-127619860D03*
X171798150Y-127619860D03*
D36*
X171798150Y-121319860D03*
D35*
X174098150Y-127619860D03*
%TD*%
D22*
%TO.C,SW4*%
X153183982Y-101178680D03*
D23*
X158263982Y-101178680D03*
D22*
X163343982Y-101178680D03*
D24*
X160803982Y-96098680D03*
X154453982Y-98638680D03*
%TD*%
D27*
%TO.C,JP1*%
X181985650Y-126107360D03*
D28*
X180535650Y-126107360D03*
%TD*%
D10*
%TO.C,C6*%
X177960650Y-79478680D03*
X177960650Y-77578680D03*
%TD*%
D30*
%TO.C,SW2*%
X129960650Y-40750000D03*
D31*
X125460650Y-35250000D03*
D32*
X129960650Y-35250000D03*
D30*
X129960650Y-29750000D03*
D33*
X137460650Y-37750000D03*
X137460650Y-32750000D03*
X137460650Y-35250000D03*
X122960650Y-37750000D03*
X122960650Y-32750000D03*
%TD*%
D29*
%TO.C,JP2*%
X181910650Y-175636040D03*
X180610650Y-175636040D03*
%TD*%
D24*
%TO.C,H4*%
X185010650Y-113178680D03*
%TD*%
D30*
%TO.C,SW2*%
X129960650Y-86728680D03*
D31*
X125460650Y-81228680D03*
D32*
X129960650Y-81228680D03*
D30*
X129960650Y-75728680D03*
D33*
X137460650Y-83728680D03*
X137460650Y-78728680D03*
X137460650Y-81228680D03*
X122960650Y-83728680D03*
X122960650Y-78728680D03*
%TD*%
D24*
%TO.C,H3*%
X112010650Y-205136040D03*
%TD*%
D10*
%TO.C,C3*%
X137710650Y-42400000D03*
X137710650Y-40500000D03*
%TD*%
D29*
%TO.C,JP4*%
X180610650Y-182736040D03*
X181910650Y-182736040D03*
%TD*%
D13*
%TO.C,RN1*%
X161210650Y-125157360D03*
D14*
X161210650Y-124357360D03*
X161210650Y-123557360D03*
D13*
X161210650Y-122757360D03*
X159410650Y-122757360D03*
D14*
X159410650Y-123557360D03*
X159410650Y-124357360D03*
D13*
X159410650Y-125157360D03*
%TD*%
D15*
%TO.C,J3*%
X166010650Y-134757360D03*
D16*
X168550650Y-134757360D03*
X171090650Y-134757360D03*
X173630650Y-134757360D03*
%TD*%
D29*
%TO.C,JP2*%
X181910650Y-129657360D03*
X180610650Y-129657360D03*
%TD*%
D12*
%TO.C,D3*%
X136260650Y-104803680D03*
X136260650Y-106338680D03*
X141360650Y-106338680D03*
X141360650Y-104803680D03*
%TD*%
D11*
%TO.C,KiKit_TO_2*%
X192489350Y-22500000D03*
%TD*%
D12*
%TO.C,D1*%
X175160650Y-58825000D03*
X175160650Y-60360000D03*
X180260650Y-60360000D03*
X180260650Y-58825000D03*
%TD*%
D11*
%TO.C,KiKit_TO_1*%
X104510650Y-22500000D03*
%TD*%
D15*
%TO.C,J1*%
X111010650Y-134282360D03*
D16*
X111010650Y-131742360D03*
X111010650Y-129202360D03*
%TD*%
D35*
%TO.C,U1*%
X169498150Y-81641180D03*
X171798150Y-81641180D03*
D36*
X171798150Y-75341180D03*
D35*
X174098150Y-81641180D03*
%TD*%
D12*
%TO.C,D1*%
X175160650Y-150782360D03*
X175160650Y-152317360D03*
X180260650Y-152317360D03*
X180260650Y-150782360D03*
%TD*%
D25*
%TO.C,U2*%
X149235650Y-181336040D03*
X149885650Y-181336040D03*
X150535650Y-181336040D03*
X151185650Y-181336040D03*
X151835650Y-181336040D03*
X152485650Y-181336040D03*
X153135650Y-181336040D03*
X153785650Y-181336040D03*
X154435650Y-181336040D03*
X155085650Y-181336040D03*
X155085650Y-175611040D03*
X154435650Y-175611040D03*
X153785650Y-175611040D03*
X153135650Y-175611040D03*
X152485650Y-175611040D03*
X151835650Y-175611040D03*
X151185650Y-175611040D03*
X150535650Y-175611040D03*
X149885650Y-175611040D03*
X149235650Y-175611040D03*
%TD*%
D12*
%TO.C,D4*%
X116760650Y-58825000D03*
X116760650Y-60360000D03*
X121860650Y-60360000D03*
X121860650Y-58825000D03*
%TD*%
D10*
%TO.C,C6*%
X177960650Y-171436040D03*
X177960650Y-169536040D03*
%TD*%
D12*
%TO.C,D4*%
X116760650Y-104803680D03*
X116760650Y-106338680D03*
X121860650Y-106338680D03*
X121860650Y-104803680D03*
%TD*%
D24*
%TO.C,H4*%
X185010650Y-159157360D03*
%TD*%
D22*
%TO.C,SW5*%
X172650650Y-55200000D03*
D23*
X177730650Y-55200000D03*
D22*
X182810650Y-55200000D03*
D24*
X180270650Y-50120000D03*
X173920650Y-52660000D03*
%TD*%
D12*
%TO.C,D2*%
X155760650Y-58825000D03*
X155760650Y-60360000D03*
X160860650Y-60360000D03*
X160860650Y-58825000D03*
%TD*%
D26*
%TO.C,KiKit_FID_T_3*%
X104510650Y-212414720D03*
%TD*%
D17*
%TO.C,J4*%
X152500650Y-171323540D03*
X146720650Y-171323540D03*
D18*
X152935650Y-172523540D03*
X152135650Y-172523540D03*
X150860650Y-172523540D03*
X149860650Y-172523540D03*
X149360650Y-172523540D03*
X151360650Y-172523540D03*
X147085650Y-172523540D03*
X146285650Y-172523540D03*
X146535650Y-172523540D03*
X147335650Y-172523540D03*
X147860650Y-172523540D03*
X148860650Y-172523540D03*
X150360650Y-172523540D03*
X148360650Y-172523540D03*
X151885650Y-172523540D03*
X152685650Y-172523540D03*
D19*
X153930650Y-171823540D03*
D20*
X153930650Y-167673540D03*
D19*
X145290650Y-171823540D03*
D20*
X145290650Y-167673540D03*
%TD*%
D34*
%TO.C,C4*%
X134310650Y-86478680D03*
X134310650Y-88378680D03*
%TD*%
D22*
%TO.C,SW3*%
X133717316Y-55200000D03*
D23*
X138797316Y-55200000D03*
D22*
X143877316Y-55200000D03*
D24*
X141337316Y-50120000D03*
X134987316Y-52660000D03*
%TD*%
D10*
%TO.C,C8*%
X165610650Y-33500000D03*
X165610650Y-31600000D03*
%TD*%
D15*
%TO.C,J1*%
X111010650Y-42325000D03*
D16*
X111010650Y-39785000D03*
X111010650Y-37245000D03*
%TD*%
D24*
%TO.C,H3*%
X112010650Y-113178680D03*
%TD*%
D30*
%TO.C,SW2*%
X129960650Y-132707360D03*
D31*
X125460650Y-127207360D03*
D32*
X129960650Y-127207360D03*
D30*
X129960650Y-121707360D03*
D33*
X137460650Y-129707360D03*
X137460650Y-124707360D03*
X137460650Y-127207360D03*
X122960650Y-129707360D03*
X122960650Y-124707360D03*
%TD*%
D17*
%TO.C,J4*%
X152500650Y-125344860D03*
X146720650Y-125344860D03*
D18*
X152935650Y-126544860D03*
X152135650Y-126544860D03*
X150860650Y-126544860D03*
X149860650Y-126544860D03*
X149360650Y-126544860D03*
X151360650Y-126544860D03*
X147085650Y-126544860D03*
X146285650Y-126544860D03*
X146535650Y-126544860D03*
X147335650Y-126544860D03*
X147860650Y-126544860D03*
X148860650Y-126544860D03*
X150360650Y-126544860D03*
X148360650Y-126544860D03*
X151885650Y-126544860D03*
X152685650Y-126544860D03*
D19*
X153930650Y-125844860D03*
D20*
X153930650Y-121694860D03*
D19*
X145290650Y-125844860D03*
D20*
X145290650Y-121694860D03*
%TD*%
D22*
%TO.C,SW4*%
X153183982Y-55200000D03*
D23*
X158263982Y-55200000D03*
D22*
X163343982Y-55200000D03*
D24*
X160803982Y-50120000D03*
X154453982Y-52660000D03*
%TD*%
D13*
%TO.C,RN2*%
X161210650Y-131357360D03*
D14*
X161210650Y-130557360D03*
X161210650Y-129757360D03*
D13*
X161210650Y-128957360D03*
X159410650Y-128957360D03*
D14*
X159410650Y-129757360D03*
X159410650Y-130557360D03*
D13*
X159410650Y-131357360D03*
%TD*%
D15*
%TO.C,J5*%
X117135650Y-29300000D03*
D16*
X119675650Y-29300000D03*
%TD*%
D29*
%TO.C,JP4*%
X180610650Y-44800000D03*
X181910650Y-44800000D03*
%TD*%
D22*
%TO.C,SW1*%
X114250650Y-55200000D03*
D23*
X119330650Y-55200000D03*
D22*
X124410650Y-55200000D03*
D24*
X121870650Y-50120000D03*
X115520650Y-52660000D03*
%TD*%
%TO.C,H2*%
X185010650Y-75978680D03*
%TD*%
D10*
%TO.C,C8*%
X165610650Y-171436040D03*
X165610650Y-169536040D03*
%TD*%
D25*
%TO.C,U2*%
X149235650Y-135357360D03*
X149885650Y-135357360D03*
X150535650Y-135357360D03*
X151185650Y-135357360D03*
X151835650Y-135357360D03*
X152485650Y-135357360D03*
X153135650Y-135357360D03*
X153785650Y-135357360D03*
X154435650Y-135357360D03*
X155085650Y-135357360D03*
X155085650Y-129632360D03*
X154435650Y-129632360D03*
X153785650Y-129632360D03*
X153135650Y-129632360D03*
X152485650Y-129632360D03*
X151835650Y-129632360D03*
X151185650Y-129632360D03*
X150535650Y-129632360D03*
X149885650Y-129632360D03*
X149235650Y-129632360D03*
%TD*%
D22*
%TO.C,SW3*%
X133717316Y-101178680D03*
D23*
X138797316Y-101178680D03*
D22*
X143877316Y-101178680D03*
D24*
X141337316Y-96098680D03*
X134987316Y-98638680D03*
%TD*%
D12*
%TO.C,D4*%
X116760650Y-196761040D03*
X116760650Y-198296040D03*
X121860650Y-198296040D03*
X121860650Y-196761040D03*
%TD*%
D15*
%TO.C,J1*%
X111010650Y-180261040D03*
D16*
X111010650Y-177721040D03*
X111010650Y-175181040D03*
%TD*%
D22*
%TO.C,SW4*%
X153183982Y-193136040D03*
D23*
X158263982Y-193136040D03*
D22*
X163343982Y-193136040D03*
D24*
X160803982Y-188056040D03*
X154453982Y-190596040D03*
%TD*%
D27*
%TO.C,JP3*%
X181985650Y-133207360D03*
D28*
X180535650Y-133207360D03*
%TD*%
D24*
%TO.C,H1*%
X112010650Y-167936040D03*
%TD*%
D22*
%TO.C,SW3*%
X133717316Y-147157360D03*
D23*
X138797316Y-147157360D03*
D22*
X143877316Y-147157360D03*
D24*
X141337316Y-142077360D03*
X134987316Y-144617360D03*
%TD*%
%TO.C,H3*%
X112010650Y-159157360D03*
%TD*%
D27*
%TO.C,JP1*%
X181985650Y-172086040D03*
D28*
X180535650Y-172086040D03*
%TD*%
D34*
%TO.C,C4*%
X134310650Y-178436040D03*
X134310650Y-180336040D03*
%TD*%
D22*
%TO.C,SW1*%
X114250650Y-147157360D03*
D23*
X119330650Y-147157360D03*
D22*
X124410650Y-147157360D03*
D24*
X121870650Y-142077360D03*
X115520650Y-144617360D03*
%TD*%
D12*
%TO.C,D3*%
X136260650Y-150782360D03*
X136260650Y-152317360D03*
X141360650Y-152317360D03*
X141360650Y-150782360D03*
%TD*%
D15*
%TO.C,J3*%
X166010650Y-42800000D03*
D16*
X168550650Y-42800000D03*
X171090650Y-42800000D03*
X173630650Y-42800000D03*
%TD*%
D22*
%TO.C,SW5*%
X172650650Y-193136040D03*
D23*
X177730650Y-193136040D03*
D22*
X182810650Y-193136040D03*
D24*
X180270650Y-188056040D03*
X173920650Y-190596040D03*
%TD*%
D29*
%TO.C,JP2*%
X181910650Y-37700000D03*
X180610650Y-37700000D03*
%TD*%
D15*
%TO.C,J5*%
X117135650Y-121257360D03*
D16*
X119675650Y-121257360D03*
%TD*%
D15*
%TO.C,J1*%
X111010650Y-88303680D03*
D16*
X111010650Y-85763680D03*
X111010650Y-83223680D03*
%TD*%
D35*
%TO.C,U1*%
X169498150Y-35662500D03*
X171798150Y-35662500D03*
D36*
X171798150Y-29362500D03*
D35*
X174098150Y-35662500D03*
%TD*%
D34*
%TO.C,C4*%
X134310650Y-132457360D03*
X134310650Y-134357360D03*
%TD*%
M02*
