%TF.GenerationSoftware,KiCad,Pcbnew,8.0.0*%
%TF.CreationDate,2024-03-25T13:22:01-05:00*%
%TF.ProjectId,MiniMastermindPanel,4d696e69-4d61-4737-9465-726d696e6450,rev?*%
%TF.SameCoordinates,Original*%
%TF.FileFunction,Paste,Top*%
%TF.FilePolarity,Positive*%
%FSLAX46Y46*%
G04 Gerber Fmt 4.6, Leading zero omitted, Abs format (unit mm)*
G04 Created by KiCad (PCBNEW 8.0.0) date 2024-03-25 13:22:01*
%MOMM*%
%LPD*%
G01*
G04 APERTURE LIST*
G04 Aperture macros list*
%AMRoundRect*
0 Rectangle with rounded corners*
0 $1 Rounding radius*
0 $2 $3 $4 $5 $6 $7 $8 $9 X,Y pos of 4 corners*
0 Add a 4 corners polygon primitive as box body*
4,1,4,$2,$3,$4,$5,$6,$7,$8,$9,$2,$3,0*
0 Add four circle primitives for the rounded corners*
1,1,$1+$1,$2,$3*
1,1,$1+$1,$4,$5*
1,1,$1+$1,$6,$7*
1,1,$1+$1,$8,$9*
0 Add four rect primitives between the rounded corners*
20,1,$1+$1,$2,$3,$4,$5,0*
20,1,$1+$1,$4,$5,$6,$7,0*
20,1,$1+$1,$6,$7,$8,$9,0*
20,1,$1+$1,$8,$9,$2,$3,0*%
G04 Aperture macros list end*
%ADD10RoundRect,0.250000X0.475000X-0.250000X0.475000X0.250000X-0.475000X0.250000X-0.475000X-0.250000X0*%
%ADD11R,1.800000X0.820000*%
%ADD12R,0.800000X0.500000*%
%ADD13R,0.800000X0.400000*%
%ADD14R,0.250000X1.400000*%
%ADD15RoundRect,0.250000X0.450000X-0.262500X0.450000X0.262500X-0.450000X0.262500X-0.450000X-0.262500X0*%
%ADD16RoundRect,0.100000X0.100000X-0.637500X0.100000X0.637500X-0.100000X0.637500X-0.100000X-0.637500X0*%
%ADD17RoundRect,0.250000X-0.475000X0.250000X-0.475000X-0.250000X0.475000X-0.250000X0.475000X0.250000X0*%
%ADD18RoundRect,0.375000X0.375000X-0.625000X0.375000X0.625000X-0.375000X0.625000X-0.375000X-0.625000X0*%
%ADD19RoundRect,0.500000X1.400000X-0.500000X1.400000X0.500000X-1.400000X0.500000X-1.400000X-0.500000X0*%
G04 APERTURE END LIST*
D10*
%TO.C,C8*%
X165610650Y-79478680D03*
X165610650Y-77578680D03*
%TD*%
D11*
%TO.C,D4*%
X116760650Y-150782360D03*
X116760650Y-152317360D03*
X121860650Y-152317360D03*
X121860650Y-150782360D03*
%TD*%
D12*
%TO.C,RN2*%
X161210650Y-177336040D03*
D13*
X161210650Y-176536040D03*
X161210650Y-175736040D03*
D12*
X161210650Y-174936040D03*
X159410650Y-174936040D03*
D13*
X159410650Y-175736040D03*
X159410650Y-176536040D03*
D12*
X159410650Y-177336040D03*
%TD*%
%TO.C,RN2*%
X161210650Y-85378680D03*
D13*
X161210650Y-84578680D03*
X161210650Y-83778680D03*
D12*
X161210650Y-82978680D03*
X159410650Y-82978680D03*
D13*
X159410650Y-83778680D03*
X159410650Y-84578680D03*
D12*
X159410650Y-85378680D03*
%TD*%
D11*
%TO.C,D3*%
X136260650Y-196761040D03*
X136260650Y-198296040D03*
X141360650Y-198296040D03*
X141360650Y-196761040D03*
%TD*%
D14*
%TO.C,J4*%
X152935650Y-80566180D03*
X152135650Y-80566180D03*
X150860650Y-80566180D03*
X149860650Y-80566180D03*
X149360650Y-80566180D03*
X151360650Y-80566180D03*
X147085650Y-80566180D03*
X146285650Y-80566180D03*
X146535650Y-80566180D03*
X147335650Y-80566180D03*
X147860650Y-80566180D03*
X148860650Y-80566180D03*
X150360650Y-80566180D03*
X148360650Y-80566180D03*
X151885650Y-80566180D03*
X152685650Y-80566180D03*
%TD*%
D15*
%TO.C,R1*%
X144498150Y-85491180D03*
X144498150Y-83666180D03*
%TD*%
D16*
%TO.C,U2*%
X149235650Y-89378680D03*
X149885650Y-89378680D03*
X150535650Y-89378680D03*
X151185650Y-89378680D03*
X151835650Y-89378680D03*
X152485650Y-89378680D03*
X153135650Y-89378680D03*
X153785650Y-89378680D03*
X154435650Y-89378680D03*
X155085650Y-89378680D03*
X155085650Y-83653680D03*
X154435650Y-83653680D03*
X153785650Y-83653680D03*
X153135650Y-83653680D03*
X152485650Y-83653680D03*
X151835650Y-83653680D03*
X151185650Y-83653680D03*
X150535650Y-83653680D03*
X149885650Y-83653680D03*
X149235650Y-83653680D03*
%TD*%
D10*
%TO.C,C3*%
X137710650Y-180336040D03*
X137710650Y-178436040D03*
%TD*%
%TO.C,C3*%
X137710650Y-134357360D03*
X137710650Y-132457360D03*
%TD*%
%TO.C,C6*%
X177960650Y-33500000D03*
X177960650Y-31600000D03*
%TD*%
D12*
%TO.C,RN1*%
X161210650Y-171136040D03*
D13*
X161210650Y-170336040D03*
X161210650Y-169536040D03*
D12*
X161210650Y-168736040D03*
X159410650Y-168736040D03*
D13*
X159410650Y-169536040D03*
X159410650Y-170336040D03*
D12*
X159410650Y-171136040D03*
%TD*%
D11*
%TO.C,D1*%
X175160650Y-104803680D03*
X175160650Y-106338680D03*
X180260650Y-106338680D03*
X180260650Y-104803680D03*
%TD*%
D15*
%TO.C,R1*%
X144498150Y-39512500D03*
X144498150Y-37687500D03*
%TD*%
D12*
%TO.C,RN1*%
X161210650Y-33200000D03*
D13*
X161210650Y-32400000D03*
X161210650Y-31600000D03*
D12*
X161210650Y-30800000D03*
X159410650Y-30800000D03*
D13*
X159410650Y-31600000D03*
X159410650Y-32400000D03*
D12*
X159410650Y-33200000D03*
%TD*%
D11*
%TO.C,D2*%
X155760650Y-150782360D03*
X155760650Y-152317360D03*
X160860650Y-152317360D03*
X160860650Y-150782360D03*
%TD*%
%TO.C,D2*%
X155760650Y-104803680D03*
X155760650Y-106338680D03*
X160860650Y-106338680D03*
X160860650Y-104803680D03*
%TD*%
%TO.C,D1*%
X175160650Y-196761040D03*
X175160650Y-198296040D03*
X180260650Y-198296040D03*
X180260650Y-196761040D03*
%TD*%
D10*
%TO.C,C8*%
X165610650Y-125457360D03*
X165610650Y-123557360D03*
%TD*%
D12*
%TO.C,RN1*%
X161210650Y-79178680D03*
D13*
X161210650Y-78378680D03*
X161210650Y-77578680D03*
D12*
X161210650Y-76778680D03*
X159410650Y-76778680D03*
D13*
X159410650Y-77578680D03*
X159410650Y-78378680D03*
D12*
X159410650Y-79178680D03*
%TD*%
D16*
%TO.C,U2*%
X149235650Y-43400000D03*
X149885650Y-43400000D03*
X150535650Y-43400000D03*
X151185650Y-43400000D03*
X151835650Y-43400000D03*
X152485650Y-43400000D03*
X153135650Y-43400000D03*
X153785650Y-43400000D03*
X154435650Y-43400000D03*
X155085650Y-43400000D03*
X155085650Y-37675000D03*
X154435650Y-37675000D03*
X153785650Y-37675000D03*
X153135650Y-37675000D03*
X152485650Y-37675000D03*
X151835650Y-37675000D03*
X151185650Y-37675000D03*
X150535650Y-37675000D03*
X149885650Y-37675000D03*
X149235650Y-37675000D03*
%TD*%
D10*
%TO.C,C3*%
X137710650Y-88378680D03*
X137710650Y-86478680D03*
%TD*%
D17*
%TO.C,C4*%
X134310650Y-40500000D03*
X134310650Y-42400000D03*
%TD*%
D14*
%TO.C,J4*%
X152935650Y-34587500D03*
X152135650Y-34587500D03*
X150860650Y-34587500D03*
X149860650Y-34587500D03*
X149360650Y-34587500D03*
X151360650Y-34587500D03*
X147085650Y-34587500D03*
X146285650Y-34587500D03*
X146535650Y-34587500D03*
X147335650Y-34587500D03*
X147860650Y-34587500D03*
X148860650Y-34587500D03*
X150360650Y-34587500D03*
X148360650Y-34587500D03*
X151885650Y-34587500D03*
X152685650Y-34587500D03*
%TD*%
D11*
%TO.C,D2*%
X155760650Y-196761040D03*
X155760650Y-198296040D03*
X160860650Y-198296040D03*
X160860650Y-196761040D03*
%TD*%
D10*
%TO.C,C6*%
X177960650Y-125457360D03*
X177960650Y-123557360D03*
%TD*%
D11*
%TO.C,D3*%
X136260650Y-58825000D03*
X136260650Y-60360000D03*
X141360650Y-60360000D03*
X141360650Y-58825000D03*
%TD*%
D18*
%TO.C,U1*%
X169498150Y-173598540D03*
X171798150Y-173598540D03*
D19*
X171798150Y-167298540D03*
D18*
X174098150Y-173598540D03*
%TD*%
D12*
%TO.C,RN2*%
X161210650Y-39400000D03*
D13*
X161210650Y-38600000D03*
X161210650Y-37800000D03*
D12*
X161210650Y-37000000D03*
X159410650Y-37000000D03*
D13*
X159410650Y-37800000D03*
X159410650Y-38600000D03*
D12*
X159410650Y-39400000D03*
%TD*%
D15*
%TO.C,R1*%
X144498150Y-131469860D03*
X144498150Y-129644860D03*
%TD*%
%TO.C,R1*%
X144498150Y-177448540D03*
X144498150Y-175623540D03*
%TD*%
D18*
%TO.C,U1*%
X169498150Y-127619860D03*
X171798150Y-127619860D03*
D19*
X171798150Y-121319860D03*
D18*
X174098150Y-127619860D03*
%TD*%
D10*
%TO.C,C6*%
X177960650Y-79478680D03*
X177960650Y-77578680D03*
%TD*%
%TO.C,C3*%
X137710650Y-42400000D03*
X137710650Y-40500000D03*
%TD*%
D12*
%TO.C,RN1*%
X161210650Y-125157360D03*
D13*
X161210650Y-124357360D03*
X161210650Y-123557360D03*
D12*
X161210650Y-122757360D03*
X159410650Y-122757360D03*
D13*
X159410650Y-123557360D03*
X159410650Y-124357360D03*
D12*
X159410650Y-125157360D03*
%TD*%
D11*
%TO.C,D3*%
X136260650Y-104803680D03*
X136260650Y-106338680D03*
X141360650Y-106338680D03*
X141360650Y-104803680D03*
%TD*%
%TO.C,D1*%
X175160650Y-58825000D03*
X175160650Y-60360000D03*
X180260650Y-60360000D03*
X180260650Y-58825000D03*
%TD*%
D18*
%TO.C,U1*%
X169498150Y-81641180D03*
X171798150Y-81641180D03*
D19*
X171798150Y-75341180D03*
D18*
X174098150Y-81641180D03*
%TD*%
D11*
%TO.C,D1*%
X175160650Y-150782360D03*
X175160650Y-152317360D03*
X180260650Y-152317360D03*
X180260650Y-150782360D03*
%TD*%
D16*
%TO.C,U2*%
X149235650Y-181336040D03*
X149885650Y-181336040D03*
X150535650Y-181336040D03*
X151185650Y-181336040D03*
X151835650Y-181336040D03*
X152485650Y-181336040D03*
X153135650Y-181336040D03*
X153785650Y-181336040D03*
X154435650Y-181336040D03*
X155085650Y-181336040D03*
X155085650Y-175611040D03*
X154435650Y-175611040D03*
X153785650Y-175611040D03*
X153135650Y-175611040D03*
X152485650Y-175611040D03*
X151835650Y-175611040D03*
X151185650Y-175611040D03*
X150535650Y-175611040D03*
X149885650Y-175611040D03*
X149235650Y-175611040D03*
%TD*%
D11*
%TO.C,D4*%
X116760650Y-58825000D03*
X116760650Y-60360000D03*
X121860650Y-60360000D03*
X121860650Y-58825000D03*
%TD*%
D10*
%TO.C,C6*%
X177960650Y-171436040D03*
X177960650Y-169536040D03*
%TD*%
D11*
%TO.C,D4*%
X116760650Y-104803680D03*
X116760650Y-106338680D03*
X121860650Y-106338680D03*
X121860650Y-104803680D03*
%TD*%
%TO.C,D2*%
X155760650Y-58825000D03*
X155760650Y-60360000D03*
X160860650Y-60360000D03*
X160860650Y-58825000D03*
%TD*%
D14*
%TO.C,J4*%
X152935650Y-172523540D03*
X152135650Y-172523540D03*
X150860650Y-172523540D03*
X149860650Y-172523540D03*
X149360650Y-172523540D03*
X151360650Y-172523540D03*
X147085650Y-172523540D03*
X146285650Y-172523540D03*
X146535650Y-172523540D03*
X147335650Y-172523540D03*
X147860650Y-172523540D03*
X148860650Y-172523540D03*
X150360650Y-172523540D03*
X148360650Y-172523540D03*
X151885650Y-172523540D03*
X152685650Y-172523540D03*
%TD*%
D17*
%TO.C,C4*%
X134310650Y-86478680D03*
X134310650Y-88378680D03*
%TD*%
D10*
%TO.C,C8*%
X165610650Y-33500000D03*
X165610650Y-31600000D03*
%TD*%
D14*
%TO.C,J4*%
X152935650Y-126544860D03*
X152135650Y-126544860D03*
X150860650Y-126544860D03*
X149860650Y-126544860D03*
X149360650Y-126544860D03*
X151360650Y-126544860D03*
X147085650Y-126544860D03*
X146285650Y-126544860D03*
X146535650Y-126544860D03*
X147335650Y-126544860D03*
X147860650Y-126544860D03*
X148860650Y-126544860D03*
X150360650Y-126544860D03*
X148360650Y-126544860D03*
X151885650Y-126544860D03*
X152685650Y-126544860D03*
%TD*%
D12*
%TO.C,RN2*%
X161210650Y-131357360D03*
D13*
X161210650Y-130557360D03*
X161210650Y-129757360D03*
D12*
X161210650Y-128957360D03*
X159410650Y-128957360D03*
D13*
X159410650Y-129757360D03*
X159410650Y-130557360D03*
D12*
X159410650Y-131357360D03*
%TD*%
D10*
%TO.C,C8*%
X165610650Y-171436040D03*
X165610650Y-169536040D03*
%TD*%
D16*
%TO.C,U2*%
X149235650Y-135357360D03*
X149885650Y-135357360D03*
X150535650Y-135357360D03*
X151185650Y-135357360D03*
X151835650Y-135357360D03*
X152485650Y-135357360D03*
X153135650Y-135357360D03*
X153785650Y-135357360D03*
X154435650Y-135357360D03*
X155085650Y-135357360D03*
X155085650Y-129632360D03*
X154435650Y-129632360D03*
X153785650Y-129632360D03*
X153135650Y-129632360D03*
X152485650Y-129632360D03*
X151835650Y-129632360D03*
X151185650Y-129632360D03*
X150535650Y-129632360D03*
X149885650Y-129632360D03*
X149235650Y-129632360D03*
%TD*%
D11*
%TO.C,D4*%
X116760650Y-196761040D03*
X116760650Y-198296040D03*
X121860650Y-198296040D03*
X121860650Y-196761040D03*
%TD*%
D17*
%TO.C,C4*%
X134310650Y-178436040D03*
X134310650Y-180336040D03*
%TD*%
D11*
%TO.C,D3*%
X136260650Y-150782360D03*
X136260650Y-152317360D03*
X141360650Y-152317360D03*
X141360650Y-150782360D03*
%TD*%
D18*
%TO.C,U1*%
X169498150Y-35662500D03*
X171798150Y-35662500D03*
D19*
X171798150Y-29362500D03*
D18*
X174098150Y-35662500D03*
%TD*%
D17*
%TO.C,C4*%
X134310650Y-132457360D03*
X134310650Y-134357360D03*
%TD*%
M02*
