%TF.GenerationSoftware,KiCad,Pcbnew,8.0.0*%
%TF.CreationDate,2024-03-25T13:22:01-05:00*%
%TF.ProjectId,MiniMastermindPanel,4d696e69-4d61-4737-9465-726d696e6450,rev?*%
%TF.SameCoordinates,Original*%
%TF.FileFunction,Soldermask,Bot*%
%TF.FilePolarity,Negative*%
%FSLAX46Y46*%
G04 Gerber Fmt 4.6, Leading zero omitted, Abs format (unit mm)*
G04 Created by KiCad (PCBNEW 8.0.0) date 2024-03-25 13:22:01*
%MOMM*%
%LPD*%
G01*
G04 APERTURE LIST*
%ADD10C,1.000000*%
%ADD11C,2.000000*%
%ADD12R,1.700000X1.700000*%
%ADD13O,1.700000X1.700000*%
%ADD14C,0.650000*%
%ADD15O,1.000000X2.100000*%
%ADD16O,1.000000X1.800000*%
%ADD17C,1.700000*%
%ADD18C,4.000000*%
%ADD19C,2.200000*%
%ADD20R,3.000000X1.900000*%
%ADD21O,2.200000X1.550000*%
%ADD22C,2.050000*%
%ADD23C,1.300000*%
G04 APERTURE END LIST*
D10*
%TO.C,KiKit_FID_B_1*%
X104510650Y-22500000D03*
%TD*%
%TO.C,KiKit_FID_B_3*%
X104510650Y-212414720D03*
%TD*%
%TO.C,KiKit_FID_B_4*%
X192489350Y-212414720D03*
%TD*%
%TO.C,KiKit_FID_B_2*%
X192489350Y-22500000D03*
%TD*%
D11*
%TO.C,KiKit_TO_3*%
X104510650Y-212414720D03*
%TD*%
D12*
%TO.C,J3*%
X166010650Y-180736040D03*
D13*
X168550650Y-180736040D03*
X171090650Y-180736040D03*
X173630650Y-180736040D03*
%TD*%
D14*
%TO.C,J4*%
X152500650Y-79366180D03*
X146720650Y-79366180D03*
D15*
X153930650Y-79866180D03*
D16*
X153930650Y-75716180D03*
D15*
X145290650Y-79866180D03*
D16*
X145290650Y-75716180D03*
%TD*%
D17*
%TO.C,SW1*%
X114250650Y-101178680D03*
D18*
X119330650Y-101178680D03*
D17*
X124410650Y-101178680D03*
D19*
X121870650Y-96098680D03*
X115520650Y-98638680D03*
%TD*%
%TO.C,H2*%
X185010650Y-121957360D03*
%TD*%
D11*
%TO.C,KiKit_TO_4*%
X192489350Y-212414720D03*
%TD*%
D17*
%TO.C,SW5*%
X172650650Y-147157360D03*
D18*
X177730650Y-147157360D03*
D17*
X182810650Y-147157360D03*
D19*
X180270650Y-142077360D03*
X173920650Y-144617360D03*
%TD*%
D20*
%TO.C,SW2*%
X129960650Y-178686040D03*
D21*
X125460650Y-173186040D03*
D22*
X129960650Y-173186040D03*
D20*
X129960650Y-167686040D03*
D23*
X137460650Y-175686040D03*
X137460650Y-170686040D03*
X137460650Y-173186040D03*
X122960650Y-175686040D03*
X122960650Y-170686040D03*
%TD*%
D12*
%TO.C,J5*%
X117135650Y-75278680D03*
D13*
X119675650Y-75278680D03*
%TD*%
D19*
%TO.C,H3*%
X112010650Y-67200000D03*
%TD*%
%TO.C,H1*%
X112010650Y-75978680D03*
%TD*%
%TO.C,H4*%
X185010650Y-205136040D03*
%TD*%
D17*
%TO.C,SW1*%
X114250650Y-193136040D03*
D18*
X119330650Y-193136040D03*
D17*
X124410650Y-193136040D03*
D19*
X121870650Y-188056040D03*
X115520650Y-190596040D03*
%TD*%
D17*
%TO.C,SW3*%
X133717316Y-193136040D03*
D18*
X138797316Y-193136040D03*
D17*
X143877316Y-193136040D03*
D19*
X141337316Y-188056040D03*
X134987316Y-190596040D03*
%TD*%
%TO.C,H2*%
X185010650Y-30000000D03*
%TD*%
D12*
%TO.C,J5*%
X117135650Y-167236040D03*
D13*
X119675650Y-167236040D03*
%TD*%
D14*
%TO.C,J4*%
X152500650Y-33387500D03*
X146720650Y-33387500D03*
D15*
X153930650Y-33887500D03*
D16*
X153930650Y-29737500D03*
D15*
X145290650Y-33887500D03*
D16*
X145290650Y-29737500D03*
%TD*%
D19*
%TO.C,H2*%
X185010650Y-167936040D03*
%TD*%
D12*
%TO.C,J3*%
X166010650Y-88778680D03*
D13*
X168550650Y-88778680D03*
X171090650Y-88778680D03*
X173630650Y-88778680D03*
%TD*%
D19*
%TO.C,H1*%
X112010650Y-121957360D03*
%TD*%
%TO.C,H1*%
X112010650Y-30000000D03*
%TD*%
D17*
%TO.C,SW4*%
X153183982Y-147157360D03*
D18*
X158263982Y-147157360D03*
D17*
X163343982Y-147157360D03*
D19*
X160803982Y-142077360D03*
X154453982Y-144617360D03*
%TD*%
D17*
%TO.C,SW5*%
X172650650Y-101178680D03*
D18*
X177730650Y-101178680D03*
D17*
X182810650Y-101178680D03*
D19*
X180270650Y-96098680D03*
X173920650Y-98638680D03*
%TD*%
%TO.C,H4*%
X185010650Y-67200000D03*
%TD*%
D17*
%TO.C,SW4*%
X153183982Y-101178680D03*
D18*
X158263982Y-101178680D03*
D17*
X163343982Y-101178680D03*
D19*
X160803982Y-96098680D03*
X154453982Y-98638680D03*
%TD*%
D20*
%TO.C,SW2*%
X129960650Y-40750000D03*
D21*
X125460650Y-35250000D03*
D22*
X129960650Y-35250000D03*
D20*
X129960650Y-29750000D03*
D23*
X137460650Y-37750000D03*
X137460650Y-32750000D03*
X137460650Y-35250000D03*
X122960650Y-37750000D03*
X122960650Y-32750000D03*
%TD*%
D19*
%TO.C,H4*%
X185010650Y-113178680D03*
%TD*%
D20*
%TO.C,SW2*%
X129960650Y-86728680D03*
D21*
X125460650Y-81228680D03*
D22*
X129960650Y-81228680D03*
D20*
X129960650Y-75728680D03*
D23*
X137460650Y-83728680D03*
X137460650Y-78728680D03*
X137460650Y-81228680D03*
X122960650Y-83728680D03*
X122960650Y-78728680D03*
%TD*%
D19*
%TO.C,H3*%
X112010650Y-205136040D03*
%TD*%
D12*
%TO.C,J3*%
X166010650Y-134757360D03*
D13*
X168550650Y-134757360D03*
X171090650Y-134757360D03*
X173630650Y-134757360D03*
%TD*%
D11*
%TO.C,KiKit_TO_2*%
X192489350Y-22500000D03*
%TD*%
%TO.C,KiKit_TO_1*%
X104510650Y-22500000D03*
%TD*%
D12*
%TO.C,J1*%
X111010650Y-134282360D03*
D13*
X111010650Y-131742360D03*
X111010650Y-129202360D03*
%TD*%
D19*
%TO.C,H4*%
X185010650Y-159157360D03*
%TD*%
D17*
%TO.C,SW5*%
X172650650Y-55200000D03*
D18*
X177730650Y-55200000D03*
D17*
X182810650Y-55200000D03*
D19*
X180270650Y-50120000D03*
X173920650Y-52660000D03*
%TD*%
D14*
%TO.C,J4*%
X152500650Y-171323540D03*
X146720650Y-171323540D03*
D15*
X153930650Y-171823540D03*
D16*
X153930650Y-167673540D03*
D15*
X145290650Y-171823540D03*
D16*
X145290650Y-167673540D03*
%TD*%
D17*
%TO.C,SW3*%
X133717316Y-55200000D03*
D18*
X138797316Y-55200000D03*
D17*
X143877316Y-55200000D03*
D19*
X141337316Y-50120000D03*
X134987316Y-52660000D03*
%TD*%
D12*
%TO.C,J1*%
X111010650Y-42325000D03*
D13*
X111010650Y-39785000D03*
X111010650Y-37245000D03*
%TD*%
D19*
%TO.C,H3*%
X112010650Y-113178680D03*
%TD*%
D20*
%TO.C,SW2*%
X129960650Y-132707360D03*
D21*
X125460650Y-127207360D03*
D22*
X129960650Y-127207360D03*
D20*
X129960650Y-121707360D03*
D23*
X137460650Y-129707360D03*
X137460650Y-124707360D03*
X137460650Y-127207360D03*
X122960650Y-129707360D03*
X122960650Y-124707360D03*
%TD*%
D14*
%TO.C,J4*%
X152500650Y-125344860D03*
X146720650Y-125344860D03*
D15*
X153930650Y-125844860D03*
D16*
X153930650Y-121694860D03*
D15*
X145290650Y-125844860D03*
D16*
X145290650Y-121694860D03*
%TD*%
D17*
%TO.C,SW4*%
X153183982Y-55200000D03*
D18*
X158263982Y-55200000D03*
D17*
X163343982Y-55200000D03*
D19*
X160803982Y-50120000D03*
X154453982Y-52660000D03*
%TD*%
D12*
%TO.C,J5*%
X117135650Y-29300000D03*
D13*
X119675650Y-29300000D03*
%TD*%
D17*
%TO.C,SW1*%
X114250650Y-55200000D03*
D18*
X119330650Y-55200000D03*
D17*
X124410650Y-55200000D03*
D19*
X121870650Y-50120000D03*
X115520650Y-52660000D03*
%TD*%
%TO.C,H2*%
X185010650Y-75978680D03*
%TD*%
D17*
%TO.C,SW3*%
X133717316Y-101178680D03*
D18*
X138797316Y-101178680D03*
D17*
X143877316Y-101178680D03*
D19*
X141337316Y-96098680D03*
X134987316Y-98638680D03*
%TD*%
D12*
%TO.C,J1*%
X111010650Y-180261040D03*
D13*
X111010650Y-177721040D03*
X111010650Y-175181040D03*
%TD*%
D17*
%TO.C,SW4*%
X153183982Y-193136040D03*
D18*
X158263982Y-193136040D03*
D17*
X163343982Y-193136040D03*
D19*
X160803982Y-188056040D03*
X154453982Y-190596040D03*
%TD*%
%TO.C,H1*%
X112010650Y-167936040D03*
%TD*%
D17*
%TO.C,SW3*%
X133717316Y-147157360D03*
D18*
X138797316Y-147157360D03*
D17*
X143877316Y-147157360D03*
D19*
X141337316Y-142077360D03*
X134987316Y-144617360D03*
%TD*%
%TO.C,H3*%
X112010650Y-159157360D03*
%TD*%
D17*
%TO.C,SW1*%
X114250650Y-147157360D03*
D18*
X119330650Y-147157360D03*
D17*
X124410650Y-147157360D03*
D19*
X121870650Y-142077360D03*
X115520650Y-144617360D03*
%TD*%
D12*
%TO.C,J3*%
X166010650Y-42800000D03*
D13*
X168550650Y-42800000D03*
X171090650Y-42800000D03*
X173630650Y-42800000D03*
%TD*%
D17*
%TO.C,SW5*%
X172650650Y-193136040D03*
D18*
X177730650Y-193136040D03*
D17*
X182810650Y-193136040D03*
D19*
X180270650Y-188056040D03*
X173920650Y-190596040D03*
%TD*%
D12*
%TO.C,J5*%
X117135650Y-121257360D03*
D13*
X119675650Y-121257360D03*
%TD*%
D12*
%TO.C,J1*%
X111010650Y-88303680D03*
D13*
X111010650Y-85763680D03*
X111010650Y-83223680D03*
%TD*%
M02*
