%TF.GenerationSoftware,KiCad,Pcbnew,8.0.0*%
%TF.CreationDate,2024-03-25T13:22:01-05:00*%
%TF.ProjectId,MiniMastermindPanel,4d696e69-4d61-4737-9465-726d696e6450,rev?*%
%TF.SameCoordinates,Original*%
%TF.FileFunction,Profile,NP*%
%FSLAX46Y46*%
G04 Gerber Fmt 4.6, Leading zero omitted, Abs format (unit mm)*
G04 Created by KiCad (PCBNEW 8.0.0) date 2024-03-25 13:22:01*
%MOMM*%
%LPD*%
G01*
G04 APERTURE LIST*
%TA.AperFunction,Profile*%
%ADD10C,0.100000*%
%TD*%
G04 APERTURE END LIST*
D10*
X110710783Y-207608139D02*
X110848899Y-207671598D01*
X108753369Y-26205722D02*
X108949727Y-26045613D01*
X187802591Y-159977958D02*
X187851752Y-159834131D01*
X189964335Y-75472771D02*
X189983573Y-75725400D01*
X186943459Y-73702398D02*
X186825658Y-73606345D01*
X109093376Y-159539936D02*
X109127734Y-159687999D01*
X189989340Y-46989340D02*
X187989340Y-46989340D01*
X188246615Y-162730324D02*
X188050256Y-162890433D01*
X187989330Y-66978680D02*
X187989339Y-49989340D01*
X166744675Y-71479680D02*
X166744675Y-72978680D01*
X110077847Y-207191000D02*
X110195646Y-207287053D01*
X110296845Y-27537709D02*
X110174332Y-27627672D01*
X108077576Y-207975646D02*
X107927617Y-207771430D01*
X189830343Y-68232096D02*
X189760645Y-68475682D01*
X109169547Y-67876771D02*
X109218708Y-68020598D01*
X140710650Y-153357360D02*
X136910650Y-153357360D01*
X187851752Y-113855451D02*
X187893565Y-113709319D01*
X186825653Y-115329693D02*
X186943452Y-115233640D01*
X109175259Y-163040392D02*
X108971043Y-162890433D01*
X189678710Y-74241923D02*
X189760656Y-74481666D01*
X109020445Y-92968020D02*
X107020444Y-92968020D01*
X189584725Y-119985319D02*
X189678710Y-120220603D01*
X111258692Y-73074448D02*
X111112560Y-73116262D01*
X185593226Y-207853313D02*
X185741289Y-207818955D01*
X186576231Y-27454060D02*
X186445244Y-27376953D01*
X109153942Y-25895655D02*
X109365490Y-25756233D01*
X189983555Y-113210626D02*
X189964318Y-113463255D01*
X110576060Y-207537765D02*
X110710783Y-207608139D01*
X107010650Y-30000576D02*
X107010650Y-29974663D01*
X187535268Y-160522936D02*
X187612375Y-160391949D01*
X111428073Y-115895953D02*
X111577685Y-115922767D01*
X187416151Y-117585054D02*
X187634491Y-117713582D01*
X160210650Y-153357360D02*
X156410650Y-153357360D01*
X189830343Y-114210776D02*
X189760645Y-114454362D01*
X189478937Y-207116972D02*
X189361632Y-207341541D01*
X187746221Y-166752967D02*
X187682761Y-166614852D01*
X185141278Y-164939889D02*
X184989330Y-164936040D01*
X111133878Y-161798462D02*
X111280010Y-161840275D01*
X111428073Y-69917273D02*
X111577685Y-69944087D01*
X188783617Y-164678747D02*
X188943727Y-164875106D01*
X107022174Y-49989340D02*
X109022174Y-49989340D01*
X111133878Y-69841102D02*
X111280010Y-69882915D01*
X107239341Y-74481672D02*
X107321287Y-74241930D01*
X109548359Y-120243555D02*
X109464717Y-120370467D01*
X136910650Y-107378680D02*
X136910650Y-103778680D01*
X107133685Y-159942653D02*
X107088989Y-159693266D01*
X107112371Y-28993378D02*
X107169642Y-28746576D01*
X130255325Y-117456360D02*
X130255325Y-115957359D01*
X187634490Y-117201134D02*
X187416151Y-117329662D01*
X187682749Y-114278546D02*
X187746208Y-114140430D01*
X187893565Y-159687999D02*
X187927923Y-159539936D01*
X111280010Y-207818955D02*
X111428073Y-207853313D01*
X109486031Y-114544256D02*
X109569673Y-114671169D01*
X185443615Y-27034592D02*
X185292836Y-27015390D01*
X130255325Y-163437040D02*
X130255325Y-163435040D01*
X107020444Y-138946700D02*
X107010650Y-121957936D01*
X179610650Y-103778680D02*
X179610650Y-107378680D01*
X188050256Y-70933073D02*
X187846040Y-71083032D01*
X188434612Y-116581795D02*
X188246615Y-116751644D01*
X109387610Y-166480134D02*
X109317236Y-166614857D01*
X185141278Y-118961209D02*
X184989330Y-118957360D01*
X187163721Y-27933092D02*
X187056243Y-27825614D01*
X111757371Y-25005776D02*
X111985313Y-25000000D01*
X109106418Y-167184082D02*
X109072060Y-167332144D01*
X109548359Y-74264875D02*
X109464717Y-74391787D01*
X187927923Y-205518616D02*
X187954737Y-205369004D01*
X169744675Y-164936040D02*
X169744675Y-163437040D01*
X189233109Y-119312190D02*
X189361639Y-119530529D01*
X109659636Y-68815003D02*
X109755689Y-68932802D01*
X110827582Y-27243126D02*
X110689467Y-27306586D01*
X107020444Y-46989340D02*
X107010650Y-30000576D01*
X185443614Y-69944087D02*
X185593226Y-69917273D01*
X189932325Y-121200120D02*
X189964335Y-121451451D01*
X186703144Y-73516382D02*
X186576231Y-73432740D01*
X108565373Y-26375570D02*
X108753369Y-26205722D01*
X107342599Y-206651465D02*
X107260654Y-206411722D01*
X109175259Y-117061712D02*
X108971043Y-116911753D01*
X109047360Y-205218225D02*
X109066562Y-205369004D01*
X108216372Y-118700079D02*
X108386220Y-118512083D01*
X110423757Y-73432747D02*
X110296845Y-73516389D01*
X107031984Y-67004586D02*
X107022174Y-49989340D01*
X189361632Y-69405501D02*
X189233104Y-69623840D01*
X186703139Y-161398336D02*
X186825653Y-161308373D01*
X187265618Y-28045875D02*
X187163721Y-27933092D01*
X187989339Y-187925380D02*
X189989339Y-187925380D01*
X189887627Y-28993373D02*
X189932325Y-29242760D01*
X185141277Y-161932190D02*
X185292835Y-161920649D01*
X110318160Y-115419656D02*
X110445073Y-115503298D01*
X147000000Y-71477680D02*
X147000000Y-71479680D01*
X186172403Y-165179160D02*
X186031251Y-165122778D01*
X111025356Y-209813004D02*
X110778553Y-209755733D01*
X160210650Y-57800000D02*
X160210650Y-61400000D01*
X187989339Y-49989340D02*
X189989339Y-49989340D01*
X107035664Y-121451453D02*
X107067673Y-121200123D01*
X187746208Y-114140430D02*
X187802591Y-113999278D01*
X186576226Y-69524618D02*
X186703139Y-69440976D01*
X109106418Y-121205402D02*
X109072060Y-121353464D01*
X111556366Y-27034595D02*
X111406754Y-27061410D01*
X189830343Y-206168136D02*
X189760645Y-206411722D01*
X186445244Y-119334313D02*
X186310519Y-119263940D01*
X185443614Y-115922767D02*
X185593226Y-115895953D01*
X110318160Y-161398336D02*
X110445073Y-161481978D01*
X109638322Y-28163682D02*
X109548359Y-28286195D01*
X109836271Y-165869139D02*
X109734375Y-165981922D01*
X166744675Y-27000000D02*
X150000000Y-27000000D01*
X187846040Y-71083032D02*
X187634490Y-71222454D01*
X189932310Y-159693266D02*
X189887614Y-159942653D01*
X150000000Y-117456360D02*
X150000000Y-115957359D01*
X109605148Y-71350982D02*
X109386809Y-71222454D01*
X107037744Y-159189306D02*
X107031984Y-158961946D01*
X179610650Y-153357360D02*
X175810650Y-153357360D01*
X189678710Y-166199283D02*
X189760656Y-166439026D01*
X187985480Y-67130627D02*
X187989330Y-66978680D01*
X110848899Y-161692918D02*
X110990051Y-161749301D01*
X108077576Y-161996966D02*
X107927617Y-161792750D01*
X187893580Y-167184079D02*
X187851766Y-167037946D01*
X109066562Y-67432964D02*
X109093376Y-67582576D01*
X169744675Y-209914719D02*
X169744675Y-207914719D01*
X187985499Y-167784091D02*
X187973957Y-167632533D01*
X185141277Y-207910870D02*
X185292835Y-207899329D01*
X189233104Y-115602520D02*
X189093682Y-115814070D01*
X189989329Y-204940050D02*
X189983555Y-205167986D01*
X189989339Y-141946700D02*
X189989329Y-158961370D01*
X186445244Y-27376953D02*
X186310519Y-27306580D01*
X109808396Y-117467760D02*
X109841684Y-117452465D01*
X179610650Y-61400000D02*
X175810650Y-61400000D01*
X185014660Y-25000000D02*
X185242596Y-25005774D01*
X109106418Y-29248042D02*
X109072060Y-29396104D01*
X187989330Y-158936040D02*
X187989339Y-141946700D01*
X187535268Y-206501616D02*
X187612375Y-206370629D01*
X188943723Y-70039606D02*
X188783614Y-70235965D01*
X186943452Y-115233640D02*
X187056236Y-115131744D01*
X166744675Y-161936039D02*
X166744675Y-163435040D01*
X188783614Y-162193325D02*
X188613765Y-162381322D01*
X189478937Y-161138292D02*
X189361632Y-161362861D01*
X130255325Y-161936039D02*
X147000000Y-161936039D01*
X187612375Y-206370629D02*
X187682749Y-206235906D01*
X186445239Y-161559085D02*
X186576226Y-161481978D01*
X147000000Y-27000000D02*
X130255325Y-27000000D01*
X186943452Y-207191000D02*
X187056236Y-207089104D01*
X140710650Y-149757360D02*
X140710650Y-153357360D01*
X109148232Y-29101910D02*
X109106418Y-29248042D01*
X187191582Y-163425647D02*
X187168965Y-163436038D01*
X111428073Y-207853313D02*
X111577685Y-207880127D01*
X189233109Y-27354830D02*
X189361639Y-27573169D01*
X109338550Y-68299866D02*
X109408924Y-68434589D01*
X187989340Y-138946700D02*
X187989350Y-121957360D01*
X107067673Y-75221443D02*
X107112371Y-74972058D01*
X187846040Y-163040392D02*
X187634490Y-163179814D01*
X109829717Y-163425647D02*
X109605148Y-163308342D01*
X185443614Y-161901447D02*
X185593226Y-161874633D01*
X189887614Y-159942653D02*
X189830343Y-160189456D01*
X109365490Y-163692273D02*
X109583828Y-163563745D01*
X187168965Y-163436038D02*
X187191582Y-163446430D01*
X107112371Y-166929418D02*
X107169642Y-166682616D01*
X188246616Y-72184390D02*
X188434614Y-72354238D01*
X111577685Y-207880127D02*
X111728464Y-207899329D01*
X107010650Y-121957936D02*
X107010650Y-121932023D01*
X109386809Y-163179814D02*
X109175259Y-163040392D01*
X189584725Y-74006639D02*
X189678710Y-74241923D01*
X185593226Y-161874633D02*
X185741289Y-161840275D01*
X108753369Y-72184402D02*
X108949727Y-72024293D01*
X109066562Y-113411644D02*
X109093376Y-113561256D01*
X150000000Y-161936039D02*
X166744675Y-161936039D01*
X187989340Y-184925380D02*
X187989350Y-167936040D01*
X109010650Y-30000000D02*
X109020445Y-46989340D01*
X186031251Y-165122778D02*
X185887423Y-165073617D01*
X187535279Y-120370461D02*
X187451635Y-120243549D01*
X189989340Y-138946700D02*
X187989340Y-138946700D01*
X189989339Y-95968020D02*
X189989329Y-112982690D01*
X109093376Y-113561256D02*
X109127734Y-113709319D01*
X187451635Y-74264869D02*
X187361672Y-74142355D01*
X110513642Y-25228691D02*
X110757226Y-25158992D01*
X107342599Y-114694105D02*
X107260654Y-114454362D01*
X189678700Y-160672785D02*
X189584717Y-160908069D01*
X186172403Y-73221800D02*
X186031251Y-73165418D01*
X189233104Y-207559880D02*
X189093682Y-207771430D01*
X184989330Y-72978680D02*
X169744675Y-72978680D01*
X111707145Y-118972752D02*
X111556366Y-118991955D01*
X109583828Y-71606385D02*
X109808396Y-71489080D01*
X187973939Y-159239545D02*
X187985480Y-159087987D01*
X109317236Y-120636177D02*
X109253776Y-120774292D01*
X107788195Y-207559880D02*
X107659667Y-207341541D01*
X186445244Y-165312993D02*
X186310519Y-165242620D01*
X187927923Y-67582576D02*
X187954737Y-67432964D01*
X189989350Y-75953343D02*
X189989350Y-75978680D01*
X109808396Y-25510400D02*
X110038617Y-25404620D01*
X188434614Y-26375558D02*
X188613768Y-26554711D01*
X185443615Y-73013272D02*
X185292836Y-72994070D01*
X109148232Y-121059270D02*
X109106418Y-121205402D01*
X187746221Y-74795607D02*
X187682761Y-74657492D01*
X150000000Y-115957359D02*
X166744675Y-115957359D01*
X109153942Y-71874335D02*
X109365490Y-71734913D01*
X110848899Y-115714238D02*
X110990051Y-115770621D01*
X109010650Y-75978680D02*
X109020445Y-92968020D01*
X189932325Y-167178800D02*
X189964335Y-167430131D01*
X187361672Y-120121035D02*
X187265618Y-120003235D01*
X110445073Y-69524618D02*
X110576060Y-69601725D01*
X169744675Y-25000000D02*
X185014660Y-25000000D01*
X184989330Y-69978679D02*
X185141277Y-69974830D01*
X107542362Y-69180932D02*
X107436582Y-68950709D01*
X187612386Y-166480128D02*
X187535279Y-166349141D01*
X189887627Y-120950733D02*
X189932325Y-121200120D01*
X156410650Y-149757360D02*
X160210650Y-149757360D01*
X109659636Y-206751043D02*
X109755689Y-206868842D01*
X109755689Y-114911482D02*
X109857585Y-115024266D01*
X185242596Y-209908945D02*
X185014660Y-209914719D01*
X189983573Y-167682760D02*
X189989350Y-167910703D01*
X150000000Y-69978679D02*
X166744675Y-69978679D01*
X187416151Y-71606374D02*
X187634491Y-71734902D01*
X107638355Y-73551858D02*
X107766883Y-73333520D01*
X187634490Y-71222454D02*
X187416151Y-71350982D01*
X166744675Y-25000000D02*
X166744675Y-27000000D01*
X187851766Y-75080586D02*
X187802604Y-74936760D01*
X185887421Y-207777142D02*
X186031248Y-207727981D01*
X107927617Y-69835390D02*
X107788195Y-69623840D01*
X189678700Y-206651465D02*
X189584717Y-206886749D01*
X127255325Y-164936040D02*
X112010650Y-164936040D01*
X107766883Y-73333520D02*
X107906305Y-73121972D01*
X187056243Y-73804294D02*
X186943459Y-73702398D01*
X111880022Y-161932190D02*
X112031970Y-161936040D01*
X109253776Y-166752972D02*
X109197393Y-166894124D01*
X109153942Y-117853015D02*
X109365490Y-117713593D01*
X107788195Y-115602520D02*
X107659667Y-115384181D01*
X108586687Y-162560475D02*
X108407534Y-162381322D01*
X187535279Y-166349141D02*
X187451635Y-166222229D01*
X150000000Y-209914719D02*
X150000000Y-207914719D01*
X187954737Y-67432964D02*
X187973939Y-67282185D01*
X109127734Y-159687999D02*
X109169547Y-159834131D01*
X110554744Y-73355640D02*
X110423757Y-73432747D01*
X111728464Y-69963289D02*
X111880022Y-69974830D01*
X186726075Y-209604090D02*
X186486332Y-209686035D01*
X107031984Y-158961946D02*
X107022174Y-141946700D01*
X111406754Y-119018770D02*
X111258692Y-119053128D01*
X111406754Y-27061410D02*
X111258692Y-27095768D01*
X185443615Y-118991952D02*
X185292836Y-118972750D01*
X110689467Y-27306586D02*
X110554744Y-27376960D01*
X130255325Y-72978680D02*
X130255325Y-71479680D01*
X185887423Y-73116257D02*
X185741291Y-73074444D01*
X110710783Y-161629459D02*
X110848899Y-161692918D01*
X187056236Y-161110424D02*
X187163714Y-161002946D01*
X107056981Y-205420615D02*
X107037744Y-205167986D01*
X187746208Y-68161750D02*
X187802591Y-68020598D01*
X188613768Y-164490751D02*
X188783617Y-164678747D01*
X109047360Y-159239545D02*
X109066562Y-159390324D01*
X107436582Y-160908069D02*
X107342599Y-160672785D01*
X108407534Y-116402642D02*
X108237685Y-116214645D01*
X169744675Y-163435040D02*
X169744675Y-161936039D01*
X121210650Y-107378680D02*
X117410650Y-107378680D01*
X109014500Y-167784092D02*
X109010650Y-167936040D01*
X169744675Y-27000000D02*
X169744675Y-25000000D01*
X109659636Y-160772363D02*
X109755689Y-160890162D01*
X175810650Y-195736040D02*
X179610650Y-195736040D01*
X108949727Y-163981653D02*
X109153942Y-163831695D01*
X117410650Y-57800000D02*
X121210650Y-57800000D01*
X109734375Y-28045882D02*
X109638322Y-28163682D01*
X184989330Y-161936039D02*
X185141277Y-161932190D01*
X189964318Y-67484575D02*
X189932310Y-67735906D01*
X189887614Y-67985293D02*
X189830343Y-68232096D01*
X189760645Y-206411722D02*
X189678700Y-206651465D01*
X107088989Y-113714586D02*
X107056981Y-113463255D01*
X127255325Y-207914719D02*
X127255325Y-209914719D01*
X186703144Y-165473742D02*
X186576231Y-165390100D01*
X111556366Y-118991955D02*
X111406754Y-119018770D01*
X109659636Y-114793683D02*
X109755689Y-114911482D01*
X111406754Y-164997450D02*
X111258692Y-165031808D01*
X185443614Y-207880127D02*
X185593226Y-207853313D01*
X150000000Y-71477680D02*
X150000000Y-69978679D01*
X185292836Y-164951430D02*
X185141278Y-164939889D01*
X189760645Y-114454362D02*
X189678700Y-114694105D01*
X111880022Y-115953510D02*
X112031970Y-115957360D01*
X108971043Y-208869113D02*
X108774684Y-208709004D01*
X108237685Y-70235965D02*
X108077576Y-70039606D01*
X189887614Y-113963973D02*
X189830343Y-114210776D01*
X187361672Y-166099715D02*
X187265618Y-165981915D01*
X109755689Y-206868842D02*
X109857585Y-206981626D01*
X188783614Y-116214645D02*
X188613765Y-116402642D01*
X110554744Y-165313000D02*
X110423757Y-165390107D01*
X109638322Y-120121042D02*
X109548359Y-120243555D01*
X127255325Y-115957359D02*
X127255325Y-117456360D01*
X160210650Y-195736040D02*
X160210650Y-199336040D01*
X121210650Y-103778680D02*
X121210650Y-107378680D01*
X169744675Y-161936039D02*
X184989330Y-161936039D01*
X111428073Y-161874633D02*
X111577685Y-161901447D01*
X147000000Y-25000000D02*
X147000000Y-27000000D01*
X189478944Y-73776417D02*
X189584725Y-74006639D01*
X109486031Y-68565576D02*
X109569673Y-68692489D01*
X187954754Y-167481754D02*
X187927939Y-167332141D01*
X187802591Y-113999278D02*
X187851752Y-113855451D01*
X107112371Y-74972058D02*
X107169642Y-74725256D01*
X186310519Y-27306580D02*
X186172403Y-27243120D01*
X109197393Y-28958084D02*
X109148232Y-29101910D01*
X187451635Y-120243549D02*
X187361672Y-120121035D01*
X187163721Y-165869132D02*
X187056243Y-165761654D01*
X121210650Y-61400000D02*
X117410650Y-61400000D01*
X189093686Y-119100641D02*
X189233109Y-119312190D01*
X108216372Y-26742719D02*
X108386220Y-26554723D01*
X189964335Y-29494091D02*
X189983573Y-29746720D01*
X186310516Y-115650779D02*
X186445239Y-115580405D01*
X186943459Y-27723718D02*
X186825658Y-27627665D01*
X107133685Y-113963973D02*
X107088989Y-113714586D01*
X169744675Y-117456360D02*
X169744675Y-115957359D01*
X189760645Y-68475682D02*
X189678700Y-68715425D01*
X109072060Y-75374784D02*
X109045245Y-75524396D01*
X108056263Y-72917757D02*
X108216372Y-72721399D01*
X187989330Y-112957360D02*
X187989339Y-95968020D01*
X107260654Y-160433042D02*
X107190956Y-160189456D01*
X109408924Y-160391949D02*
X109486031Y-160522936D01*
X108774684Y-70772964D02*
X108586687Y-70603115D01*
X108949727Y-26045613D02*
X109153942Y-25895655D01*
X110576060Y-115580405D02*
X110710783Y-115650779D01*
X109022174Y-187925380D02*
X109031970Y-204914720D01*
X187802604Y-74936760D02*
X187746221Y-74795607D01*
X110757226Y-25158992D02*
X111004028Y-25101721D01*
X150000000Y-25000000D02*
X166744675Y-25000000D01*
X188434612Y-70603115D02*
X188246615Y-70772964D01*
X187451635Y-28286189D02*
X187361672Y-28163675D01*
X169744675Y-207914719D02*
X184989330Y-207914719D01*
X111280010Y-161840275D02*
X111428073Y-161874633D01*
X179610650Y-195736040D02*
X179610650Y-199336040D01*
X186943452Y-161212320D02*
X187056236Y-161110424D01*
X110059940Y-209510107D02*
X109829717Y-209404327D01*
X109317236Y-166614857D02*
X109253776Y-166752972D01*
X187163714Y-206981626D02*
X187265610Y-206868842D01*
X111880022Y-207910870D02*
X112031970Y-207914720D01*
X109127734Y-113709319D02*
X109169547Y-113855451D01*
X108774684Y-116751644D02*
X108586687Y-116581795D01*
X187416151Y-163563734D02*
X187634491Y-163692262D01*
X185141277Y-115953510D02*
X185292835Y-115941969D01*
X186576226Y-207460658D02*
X186703139Y-207377016D01*
X108565373Y-72354250D02*
X108753369Y-72184402D01*
X187191582Y-163446430D02*
X187416151Y-163563734D01*
X110990051Y-69791941D02*
X111133878Y-69841102D01*
X166744675Y-71477680D02*
X166744675Y-71479680D01*
X185741289Y-207818955D02*
X185887421Y-207777142D01*
X109857585Y-206981626D02*
X109965063Y-207089104D01*
X185292835Y-207899329D02*
X185443614Y-207880127D01*
X109022174Y-95968020D02*
X109031970Y-112957360D01*
X107088989Y-159693266D02*
X107056981Y-159441935D01*
X109072060Y-167332144D02*
X109045245Y-167481756D01*
X189989350Y-75978680D02*
X189989340Y-92968020D01*
X108386220Y-118512083D02*
X108565373Y-118332930D01*
X117410650Y-199336040D02*
X117410650Y-195736040D01*
X185495225Y-209889708D02*
X185242596Y-209908945D01*
X189964318Y-205420615D02*
X189932310Y-205671946D01*
X188783614Y-208172005D02*
X188613765Y-208360002D01*
X110296845Y-73516389D02*
X110174332Y-73606352D01*
X187927939Y-121353461D02*
X187893580Y-121205399D01*
X107037744Y-67231946D02*
X107031984Y-67004586D01*
X111858702Y-118961210D02*
X111707145Y-118972752D01*
X189830355Y-166682611D02*
X189887627Y-166929413D01*
X110423757Y-27454067D02*
X110296845Y-27537709D01*
X186310519Y-165242620D02*
X186172403Y-165179160D01*
X186310516Y-69672099D02*
X186445239Y-69601725D01*
X189093686Y-165079321D02*
X189233109Y-165290870D01*
X189983573Y-75725400D02*
X189989350Y-75953343D01*
X187989330Y-204914720D02*
X187989339Y-187925380D01*
X109031970Y-158936040D02*
X109035819Y-159087987D01*
X187451626Y-206628529D02*
X187535268Y-206501616D01*
X187985480Y-159087987D02*
X187989330Y-158936040D01*
X147000000Y-117458360D02*
X147000000Y-118957360D01*
X109148232Y-75080590D02*
X109106418Y-75226722D01*
X184989330Y-27000000D02*
X169744675Y-27000000D01*
X109253776Y-28816932D02*
X109197393Y-28958084D01*
X187746208Y-160119110D02*
X187802591Y-159977958D01*
X188050257Y-163981641D02*
X188246616Y-164141750D01*
X187989350Y-167936040D02*
X187985499Y-167784091D01*
X136910650Y-149757360D02*
X140710650Y-149757360D01*
X187746208Y-206097790D02*
X187802591Y-205956638D01*
X107415270Y-165964007D02*
X107521050Y-165733786D01*
X108565373Y-118332930D02*
X108753369Y-118163082D01*
X109569673Y-114671169D02*
X109659636Y-114793683D01*
X109387610Y-28544094D02*
X109317236Y-28678817D01*
X127255325Y-163435040D02*
X127255325Y-163437040D01*
X107037744Y-205167986D02*
X107031984Y-204940626D01*
X109014500Y-121805412D02*
X109010650Y-121957360D01*
X187954737Y-205369004D02*
X187973939Y-205218225D01*
X136910650Y-57800000D02*
X140710650Y-57800000D01*
X117410650Y-103778680D02*
X121210650Y-103778680D01*
X156410650Y-199336040D02*
X156410650Y-195736040D01*
X130255325Y-115957359D02*
X147000000Y-115957359D01*
X186310519Y-73285260D02*
X186172403Y-73221800D01*
X111133878Y-115819782D02*
X111280010Y-115861595D01*
X189093682Y-69835390D02*
X188943723Y-70039606D01*
X187416151Y-71350982D02*
X187191582Y-71468287D01*
X111556366Y-164970635D02*
X111406754Y-164997450D01*
X107169642Y-28746576D02*
X107239341Y-28502992D01*
X110318160Y-207377016D02*
X110445073Y-207460658D01*
X189964318Y-113463255D02*
X189932310Y-113714586D01*
X107169642Y-120703936D02*
X107239341Y-120460352D01*
X150000000Y-118957360D02*
X150000000Y-117458360D01*
X107321287Y-74241930D02*
X107415270Y-74006647D01*
X186172400Y-69735558D02*
X186310516Y-69672099D01*
X187163714Y-115024266D02*
X187265610Y-114911482D01*
X109755689Y-68932802D02*
X109857585Y-69045586D01*
X187746221Y-120774287D02*
X187682761Y-120636172D01*
X189932310Y-205671946D02*
X189887614Y-205921333D01*
X110445073Y-207460658D02*
X110576060Y-207537765D01*
X187265618Y-120003235D02*
X187163721Y-119890452D01*
X110827582Y-119200486D02*
X110689467Y-119263946D01*
X107190956Y-68232096D02*
X107133685Y-67985293D01*
X187851766Y-167037946D02*
X187802604Y-166894120D01*
X185593228Y-119018766D02*
X185443615Y-118991952D01*
X187989350Y-121957360D02*
X187985499Y-121805411D01*
X109253776Y-74795612D02*
X109197393Y-74936764D01*
X187985480Y-113109307D02*
X187989330Y-112957360D01*
X175810650Y-103778680D02*
X179610650Y-103778680D01*
X109605148Y-117329662D02*
X109386809Y-117201134D01*
X184989330Y-207914719D02*
X185141277Y-207910870D01*
X130255325Y-117458360D02*
X130255325Y-117456360D01*
X188613768Y-26554711D02*
X188783617Y-26742707D01*
X188943723Y-161996966D02*
X188783614Y-162193325D01*
X189678710Y-28263243D02*
X189760656Y-28502986D01*
X109943749Y-27825621D02*
X109836271Y-27933099D01*
X179610650Y-107378680D02*
X175810650Y-107378680D01*
X110174332Y-27627672D02*
X110056532Y-27723725D01*
X160210650Y-103778680D02*
X160210650Y-107378680D01*
X110077847Y-161212320D02*
X110195646Y-161308373D01*
X186486332Y-209686035D02*
X186242746Y-209755733D01*
X110174332Y-165563712D02*
X110056532Y-165659765D01*
X187535279Y-74391781D02*
X187451635Y-74264869D01*
X188050256Y-116911753D02*
X187846040Y-117061712D01*
X188050256Y-162890433D02*
X187846040Y-163040392D01*
X107133685Y-205921333D02*
X107088989Y-205671946D01*
X107016426Y-121704081D02*
X107035664Y-121451453D01*
X186961359Y-209510107D02*
X186726075Y-209604090D01*
X186961359Y-25404611D02*
X187191582Y-25510390D01*
X187973939Y-67282185D02*
X187985480Y-67130627D01*
X188613768Y-72533391D02*
X188783617Y-72721387D01*
X109014500Y-29848052D02*
X109010650Y-30000000D01*
X187927923Y-159539936D02*
X187954737Y-159390324D01*
X107415270Y-119985327D02*
X107521050Y-119755106D01*
X186943452Y-69254960D02*
X187056236Y-69153064D01*
X111112560Y-27137582D02*
X110968734Y-27186743D01*
X107766883Y-27354840D02*
X107906305Y-27143292D01*
X189584725Y-165963999D02*
X189678710Y-166199283D01*
X140710650Y-61400000D02*
X136910650Y-61400000D01*
X109464717Y-28413107D02*
X109387610Y-28544094D01*
X169744675Y-117458360D02*
X169744675Y-117456360D01*
X110077847Y-69254960D02*
X110195646Y-69351013D01*
X166744675Y-164936040D02*
X150000000Y-164936040D01*
X136910650Y-103778680D02*
X140710650Y-103778680D01*
X186031248Y-115770621D02*
X186172400Y-115714238D01*
X185443615Y-164970632D02*
X185292836Y-164951430D01*
X186825658Y-165563705D02*
X186703144Y-165473742D01*
X110968734Y-27186743D02*
X110827582Y-27243126D01*
X109583828Y-25627705D02*
X109808396Y-25510400D01*
X111406754Y-73040090D02*
X111258692Y-73074448D01*
X127255325Y-69978679D02*
X127255325Y-71477680D01*
X189983573Y-29746720D02*
X189989350Y-29974663D01*
X175810650Y-199336040D02*
X175810650Y-195736040D01*
X109965063Y-69153064D02*
X110077847Y-69254960D01*
X108407534Y-162381322D02*
X108237685Y-162193325D01*
X109386809Y-209158494D02*
X109175259Y-209019072D01*
X109031970Y-66978680D02*
X109035819Y-67130627D01*
X185887423Y-27137577D02*
X185741291Y-27095764D01*
X187954754Y-121503074D02*
X187927939Y-121353461D01*
X109066562Y-159390324D02*
X109093376Y-159539936D01*
X187893565Y-67730639D02*
X187927923Y-67582576D01*
X107766883Y-165290880D02*
X107906305Y-165079332D01*
X185741289Y-69882915D02*
X185887421Y-69841102D01*
X189989350Y-121932023D02*
X189989350Y-121957360D01*
X187893580Y-121205399D02*
X187851766Y-121059266D01*
X108407534Y-208360002D02*
X108237685Y-208172005D01*
X127255325Y-117456360D02*
X127255325Y-117458360D01*
X109197393Y-166894124D02*
X109148232Y-167037950D01*
X107112371Y-120950738D02*
X107169642Y-120703936D01*
X187634490Y-163179814D02*
X187416151Y-163308342D01*
X117410650Y-149757360D02*
X121210650Y-149757360D01*
X187634491Y-163692262D02*
X187846041Y-163831684D01*
X110827582Y-165179166D02*
X110689467Y-165242626D01*
X109734375Y-165981922D02*
X109638322Y-166099722D01*
X166744675Y-69978679D02*
X166744675Y-71477680D01*
X187451626Y-114671169D02*
X187535268Y-114544256D01*
X109022174Y-49989340D02*
X109031970Y-66978680D01*
X140710650Y-195736040D02*
X140710650Y-199336040D01*
X108237685Y-116214645D02*
X108077576Y-116018286D01*
X186825653Y-161308373D02*
X186943452Y-161212320D01*
X189760656Y-74481666D02*
X189830355Y-74725251D01*
X185741289Y-115861595D02*
X185887421Y-115819782D01*
X107659667Y-161362861D02*
X107542362Y-161138292D01*
X187682749Y-160257226D02*
X187746208Y-160119110D01*
X188943727Y-72917746D02*
X189093686Y-73121961D01*
X187416151Y-117329662D02*
X187191582Y-117446967D01*
X107010650Y-167936616D02*
X107010650Y-167910703D01*
X187989340Y-92968020D02*
X187989350Y-75978680D01*
X187746221Y-28816927D02*
X187682761Y-28678812D01*
X185741289Y-161840275D02*
X185887421Y-161798462D01*
X189478937Y-69180932D02*
X189361632Y-69405501D01*
X136910650Y-199336040D02*
X136910650Y-195736040D01*
X107906305Y-27143292D02*
X108056263Y-26939077D01*
X187191582Y-117446967D02*
X187168965Y-117457358D01*
X109464717Y-120370467D02*
X109387610Y-120501454D01*
X110848899Y-207671598D02*
X110990051Y-207727981D01*
X109943749Y-119782981D02*
X109836271Y-119890459D01*
X108056263Y-118896437D02*
X108216372Y-118700079D01*
X136910650Y-153357360D02*
X136910650Y-149757360D01*
X107239341Y-120460352D02*
X107321287Y-120220610D01*
X107906305Y-73121972D02*
X108056263Y-72917757D01*
X107638355Y-119530538D02*
X107766883Y-119312200D01*
X187612375Y-160391949D02*
X187682749Y-160257226D01*
X109841684Y-117452465D02*
X109829717Y-117446967D01*
X111707145Y-164951432D02*
X111556366Y-164970635D01*
X107436582Y-68950709D02*
X107342599Y-68715425D01*
X107239341Y-166439032D02*
X107321287Y-166199290D01*
X108386220Y-72533403D02*
X108565373Y-72354250D01*
X187973957Y-29696493D02*
X187954754Y-29545714D01*
X187191582Y-117467750D02*
X187416151Y-117585054D01*
X110056532Y-27723725D02*
X109943749Y-27825621D01*
X109548359Y-166222235D02*
X109464717Y-166349147D01*
X187265618Y-74024555D02*
X187163721Y-73911772D01*
X111778703Y-209908945D02*
X111526074Y-209889708D01*
X150000000Y-163435040D02*
X150000000Y-161936039D01*
X189989340Y-92968020D02*
X187989340Y-92968020D01*
X189478937Y-115159612D02*
X189361632Y-115384181D01*
X185887421Y-161798462D02*
X186031248Y-161749301D01*
X188434614Y-72354238D02*
X188613768Y-72533391D01*
X111280010Y-115861595D02*
X111428073Y-115895953D01*
X187973939Y-113260865D02*
X187985480Y-113109307D01*
X107788195Y-161581200D02*
X107659667Y-161362861D01*
X166744675Y-118957360D02*
X150000000Y-118957360D01*
X187634491Y-71734902D02*
X187846041Y-71874324D01*
X185495225Y-25025011D02*
X185746556Y-25057019D01*
X107321287Y-166199290D02*
X107415270Y-165964007D01*
X179610650Y-57800000D02*
X179610650Y-61400000D01*
X186943459Y-165659758D02*
X186825658Y-165563705D01*
X186703144Y-119495062D02*
X186576231Y-119411420D01*
X166744675Y-163437040D02*
X166744675Y-164936040D01*
X107022174Y-95968020D02*
X109022174Y-95968020D01*
X108971043Y-162890433D02*
X108774684Y-162730324D01*
X109175259Y-209019072D02*
X108971043Y-208869113D01*
X187954737Y-159390324D02*
X187973939Y-159239545D01*
X187361672Y-28163675D02*
X187265618Y-28045875D01*
X150000000Y-71479680D02*
X150000000Y-71477680D01*
X156410650Y-107378680D02*
X156410650Y-103778680D01*
X189584717Y-114929389D02*
X189478937Y-115159612D01*
X175810650Y-153357360D02*
X175810650Y-149757360D01*
X166744675Y-72978680D02*
X150000000Y-72978680D01*
X109275091Y-114140430D02*
X109338550Y-114278546D01*
X109020445Y-138946700D02*
X107020444Y-138946700D01*
X109035819Y-113109307D02*
X109047360Y-113260865D01*
X187973957Y-121653853D02*
X187954754Y-121503074D01*
X150000000Y-117458360D02*
X150000000Y-117456360D01*
X107239341Y-28502992D02*
X107321287Y-28263250D01*
X109365490Y-71734913D02*
X109583828Y-71606385D01*
X109148232Y-167037950D02*
X109106418Y-167184082D01*
X185887423Y-119094937D02*
X185741291Y-119053124D01*
X108077576Y-116018286D02*
X107927617Y-115814070D01*
X107659667Y-207341541D02*
X107542362Y-207116972D01*
X102010650Y-20000000D02*
X102010650Y-214914720D01*
X127255325Y-72978680D02*
X112010650Y-72978680D01*
X109605148Y-209287022D02*
X109386809Y-209158494D01*
X127255325Y-27000000D02*
X112010650Y-27000000D01*
X109836271Y-119890459D02*
X109734375Y-120003242D01*
X110195646Y-115329693D02*
X110318160Y-115419656D01*
X187634491Y-117713582D02*
X187846041Y-117853004D01*
X166744675Y-163435040D02*
X166744675Y-163437040D01*
X188783617Y-118700067D02*
X188943727Y-118896426D01*
X108216372Y-164678759D02*
X108386220Y-164490763D01*
X189989350Y-167910703D02*
X189989350Y-167936040D01*
X109218708Y-205956638D02*
X109275091Y-206097790D01*
X186576226Y-161481978D02*
X186703139Y-161398336D01*
X110968734Y-73165423D02*
X110827582Y-73221806D01*
X110689467Y-165242626D02*
X110554744Y-165313000D01*
X107010650Y-75953343D02*
X107016426Y-75725401D01*
X140710650Y-103778680D02*
X140710650Y-107378680D01*
X189830355Y-120703931D02*
X189887627Y-120950733D01*
X110174332Y-73606352D02*
X110056532Y-73702405D01*
X187893565Y-205666679D02*
X187927923Y-205518616D01*
X150000000Y-27000000D02*
X150000000Y-25000000D01*
X111880022Y-69974830D02*
X112031970Y-69978680D01*
X187056243Y-119782974D02*
X186943459Y-119681078D01*
X107020444Y-92968020D02*
X107010650Y-75979256D01*
X186576231Y-165390100D02*
X186445244Y-165312993D01*
X179610650Y-149757360D02*
X179610650Y-153357360D01*
X189983555Y-159189306D02*
X189964318Y-159441935D01*
X109317236Y-28678817D02*
X109253776Y-28816932D01*
X109605148Y-163308342D02*
X109386809Y-163179814D01*
X111985313Y-25000000D02*
X127255325Y-25000000D01*
X186703139Y-207377016D02*
X186825653Y-207287053D01*
X110445073Y-161481978D02*
X110576060Y-161559085D01*
X109965063Y-161110424D02*
X110077847Y-161212320D01*
X186703144Y-27537702D02*
X186576231Y-27454060D01*
X109387610Y-120501454D02*
X109317236Y-120636177D01*
X109857585Y-115024266D02*
X109965063Y-115131744D01*
X186310516Y-161629459D02*
X186445239Y-161559085D01*
X109127734Y-205666679D02*
X109169547Y-205812811D01*
X110554744Y-27376960D02*
X110423757Y-27454067D01*
X189233104Y-69623840D02*
X189093682Y-69835390D01*
X188246615Y-116751644D02*
X188050256Y-116911753D01*
X108753369Y-164141762D02*
X108949727Y-163981653D01*
X189989350Y-29974663D02*
X189989350Y-30000000D01*
X109408924Y-68434589D02*
X109486031Y-68565576D01*
X175810650Y-107378680D02*
X175810650Y-103778680D01*
X185746556Y-209857700D02*
X185495225Y-209889708D01*
X130255325Y-69978679D02*
X147000000Y-69978679D01*
X107342599Y-160672785D02*
X107260654Y-160433042D01*
X187846040Y-117061712D02*
X187634490Y-117201134D01*
X187927923Y-113561256D02*
X187954737Y-113411644D01*
X107035664Y-29494093D02*
X107067673Y-29242763D01*
X187416151Y-163308342D02*
X187191582Y-163425647D01*
X110195646Y-69351013D02*
X110318160Y-69440976D01*
X169744675Y-72978680D02*
X169744675Y-71479680D01*
X109808396Y-71489080D02*
X109841684Y-71473785D01*
X121210650Y-153357360D02*
X117410650Y-153357360D01*
X107056981Y-113463255D02*
X107037744Y-113210626D01*
X109829717Y-209404327D02*
X109605148Y-209287022D01*
X166744675Y-117456360D02*
X166744675Y-117458360D01*
X110056532Y-119681085D02*
X109943749Y-119782981D01*
X107521050Y-165733786D02*
X107638355Y-165509218D01*
X130255325Y-71477680D02*
X130255325Y-69978679D01*
X187989350Y-30000000D02*
X187985499Y-29848051D01*
X187893580Y-29248039D02*
X187851766Y-29101906D01*
X189989350Y-121957360D02*
X189989340Y-138946700D01*
X187612375Y-68434589D02*
X187682749Y-68299866D01*
X108949727Y-72024293D02*
X109153942Y-71874335D01*
X188434612Y-208539155D02*
X188246615Y-208709004D01*
X186242746Y-209755733D02*
X185995943Y-209813004D01*
X189678700Y-68715425D02*
X189584717Y-68950709D01*
X189093686Y-73121961D02*
X189233109Y-73333510D01*
X111707145Y-72994072D02*
X111556366Y-73013275D01*
X112031970Y-69978680D02*
X127255325Y-69978679D01*
X109026042Y-167632535D02*
X109014500Y-167784092D01*
X175810650Y-61400000D02*
X175810650Y-57800000D01*
X187973957Y-75675173D02*
X187954754Y-75524394D01*
X187265610Y-160890162D02*
X187361663Y-160772363D01*
X189093686Y-27143281D02*
X189233109Y-27354830D01*
X102010650Y-214914720D02*
X194989350Y-214914720D01*
X107010650Y-29974663D02*
X107016426Y-29746721D01*
X107638355Y-27573178D02*
X107766883Y-27354840D01*
X110576060Y-161559085D02*
X110710783Y-161629459D01*
X188050257Y-72024281D02*
X188246616Y-72184390D01*
X185741291Y-165031804D02*
X185593228Y-164997446D01*
X187985499Y-29848051D02*
X187973957Y-29696493D01*
X108056263Y-26939077D02*
X108216372Y-26742719D01*
X130255325Y-71479680D02*
X130255325Y-71477680D01*
X107521050Y-119755106D02*
X107638355Y-119530538D01*
X110195646Y-207287053D02*
X110318160Y-207377016D01*
X127255325Y-25000000D02*
X127255325Y-27000000D01*
X184989330Y-118957360D02*
X169744675Y-118957360D01*
X109569673Y-160649849D02*
X109659636Y-160772363D01*
X187846041Y-163831684D02*
X188050257Y-163981641D01*
X109387610Y-74522774D02*
X109317236Y-74657497D01*
X109169547Y-205812811D02*
X109218708Y-205956638D01*
X188783614Y-70235965D02*
X188613765Y-70423962D01*
X188943723Y-116018286D02*
X188783614Y-116214645D01*
X189361632Y-161362861D02*
X189233104Y-161581200D01*
X188613765Y-208360002D02*
X188434612Y-208539155D01*
X109548359Y-28286195D02*
X109464717Y-28413107D01*
X188246616Y-118163070D02*
X188434614Y-118332918D01*
X107088989Y-67735906D02*
X107056981Y-67484575D01*
X187056236Y-115131744D02*
X187163714Y-115024266D01*
X187954737Y-113411644D02*
X187973939Y-113260865D01*
X189584717Y-206886749D02*
X189478937Y-207116972D01*
X187851752Y-205812811D02*
X187893565Y-205666679D01*
X117410650Y-61400000D02*
X117410650Y-57800000D01*
X187361672Y-74142355D02*
X187265618Y-74024555D01*
X187927939Y-75374781D02*
X187893580Y-75226719D01*
X109569673Y-206628529D02*
X109659636Y-206751043D01*
X109045245Y-75524396D02*
X109026042Y-75675175D01*
X187168965Y-117457358D02*
X187191582Y-117467750D01*
X194989350Y-214914720D02*
X194989350Y-20000000D01*
X189989350Y-30000000D02*
X189989340Y-46989340D01*
X187634491Y-25756222D02*
X187846041Y-25895644D01*
X109486031Y-160522936D02*
X109569673Y-160649849D01*
X121210650Y-149757360D02*
X121210650Y-153357360D01*
X112010650Y-118957360D02*
X111858702Y-118961210D01*
X189989339Y-49989340D02*
X189989329Y-67004010D01*
X187056236Y-69153064D02*
X187163714Y-69045586D01*
X110554744Y-119334320D02*
X110423757Y-119411427D01*
X110195646Y-161308373D02*
X110318160Y-161398336D01*
X107542362Y-161138292D02*
X107436582Y-160908069D01*
X107659667Y-115384181D02*
X107542362Y-115159612D01*
X185292836Y-118972750D02*
X185141278Y-118961209D01*
X166744675Y-115957359D02*
X166744675Y-117456360D01*
X169744675Y-69978679D02*
X184989330Y-69978679D01*
X107010650Y-167910703D02*
X107016426Y-167682761D01*
X112031970Y-207914720D02*
X127255325Y-207914719D01*
X112039247Y-209914720D02*
X112006639Y-209914720D01*
X150000000Y-163437040D02*
X150000000Y-163435040D01*
X189093682Y-115814070D02*
X188943723Y-116018286D01*
X185593228Y-73040086D02*
X185443615Y-73013272D01*
X111004028Y-25101721D02*
X111253413Y-25057023D01*
X109857585Y-161002946D02*
X109965063Y-161110424D01*
X185593228Y-27061406D02*
X185443615Y-27034592D01*
X187612386Y-120501448D02*
X187535279Y-120370461D01*
X109035819Y-67130627D02*
X109047360Y-67282185D01*
X107031984Y-204940626D02*
X107022174Y-187925380D01*
X187612375Y-114413269D02*
X187682749Y-114278546D01*
X187265610Y-114911482D02*
X187361663Y-114793683D01*
X109965063Y-207089104D02*
X110077847Y-207191000D01*
X186310516Y-207608139D02*
X186445239Y-207537765D01*
X189983573Y-121704080D02*
X189989350Y-121932023D01*
X188943727Y-26939066D02*
X189093686Y-27143281D01*
X189760656Y-28502986D02*
X189830355Y-28746571D01*
X188246616Y-26205710D02*
X188434614Y-26375558D01*
X130255325Y-118957360D02*
X130255325Y-117458360D01*
X189989350Y-167936040D02*
X189989340Y-184925380D01*
X110423757Y-119411427D02*
X110296845Y-119495069D01*
X189093682Y-161792750D02*
X188943723Y-161996966D01*
X108237685Y-208172005D02*
X108077576Y-207975646D01*
X179610650Y-199336040D02*
X175810650Y-199336040D01*
X110174332Y-119585032D02*
X110056532Y-119681085D01*
X188434614Y-118332918D02*
X188613768Y-118512071D01*
X160210650Y-149757360D02*
X160210650Y-153357360D01*
X110318160Y-69440976D02*
X110445073Y-69524618D01*
X110848899Y-69735558D02*
X110990051Y-69791941D01*
X189678700Y-114694105D02*
X189584717Y-114929389D01*
X186031248Y-69791941D02*
X186172400Y-69735558D01*
X186172400Y-161692918D02*
X186310516Y-161629459D01*
X108774684Y-162730324D02*
X108586687Y-162560475D01*
X156410650Y-57800000D02*
X160210650Y-57800000D01*
X187893565Y-113709319D02*
X187927923Y-113561256D01*
X110576060Y-69601725D02*
X110710783Y-69672099D01*
X189932325Y-75221440D02*
X189964335Y-75472771D01*
X156410650Y-61400000D02*
X156410650Y-57800000D01*
X187973939Y-205218225D02*
X187985480Y-205066667D01*
X189361639Y-119530529D02*
X189478944Y-119755097D01*
X186445239Y-207537765D02*
X186576226Y-207460658D01*
X108237685Y-162193325D02*
X108077576Y-161996966D01*
X187954754Y-29545714D02*
X187927939Y-29396101D01*
X187682761Y-74657492D02*
X187612386Y-74522768D01*
X108586687Y-70603115D02*
X108407534Y-70423962D01*
X111133878Y-207777142D02*
X111280010Y-207818955D01*
X108586687Y-116581795D02*
X108407534Y-116402642D01*
X187851752Y-67876771D02*
X187893565Y-67730639D01*
X187802604Y-120915440D02*
X187746221Y-120774287D01*
X127255325Y-209914719D02*
X112039247Y-209914720D01*
X107260654Y-206411722D02*
X107190956Y-206168136D01*
X127255325Y-71479680D02*
X127255325Y-72978680D01*
X110710783Y-69672099D02*
X110848899Y-69735558D01*
X110423757Y-165390107D02*
X110296845Y-165473749D01*
X186703139Y-69440976D02*
X186825653Y-69351013D01*
X109047360Y-67282185D02*
X109066562Y-67432964D01*
X147000000Y-209914719D02*
X130255325Y-209914719D01*
X112031970Y-115957360D02*
X127255325Y-115957359D01*
X166744675Y-209914719D02*
X150000000Y-209914719D01*
X110056532Y-73702405D02*
X109943749Y-73804301D01*
X189932325Y-29242760D02*
X189964335Y-29494091D01*
X185995943Y-209813004D02*
X185746556Y-209857700D01*
X109010650Y-167936040D02*
X109020445Y-184925380D01*
X186031248Y-161749301D02*
X186172400Y-161692918D01*
X147000000Y-115957359D02*
X147000000Y-117456360D01*
X186172403Y-119200480D02*
X186031251Y-119144098D01*
X186943459Y-119681078D02*
X186825658Y-119585025D01*
X110077847Y-115233640D02*
X110195646Y-115329693D01*
X185292835Y-161920649D02*
X185443614Y-161901447D01*
X107788195Y-69623840D02*
X107659667Y-69405501D01*
X121210650Y-57800000D02*
X121210650Y-61400000D01*
X187682749Y-206235906D02*
X187746208Y-206097790D01*
X111556366Y-73013275D02*
X111406754Y-73040090D01*
X111728464Y-161920649D02*
X111880022Y-161932190D01*
X187056236Y-207089104D02*
X187163714Y-206981626D01*
X108565373Y-164311610D02*
X108753369Y-164141762D01*
X109035819Y-159087987D02*
X109047360Y-159239545D01*
X107010650Y-75979256D02*
X107010650Y-75953343D01*
X187802591Y-68020598D02*
X187851752Y-67876771D01*
X107022174Y-141946700D02*
X109022174Y-141946700D01*
X186310519Y-119263940D02*
X186172403Y-119200480D01*
X109317236Y-74657497D02*
X109253776Y-74795612D01*
X187191582Y-71489070D02*
X187416151Y-71606374D01*
X110968734Y-165122783D02*
X110827582Y-165179166D01*
X109093376Y-67582576D02*
X109127734Y-67730639D01*
X186031251Y-73165418D02*
X185887423Y-73116257D01*
X107260654Y-114454362D02*
X107190956Y-114210776D01*
X110445073Y-115503298D02*
X110576060Y-115580405D01*
X109275091Y-206097790D02*
X109338550Y-206235906D01*
X169744675Y-163437040D02*
X169744675Y-163435040D01*
X109464717Y-74391787D02*
X109387610Y-74522774D01*
X109020445Y-184925380D02*
X107020444Y-184925380D01*
X111258692Y-27095768D02*
X111112560Y-27137582D01*
X109275091Y-68161750D02*
X109338550Y-68299866D01*
X107906305Y-165079332D02*
X108056263Y-164875117D01*
X109408924Y-114413269D02*
X109486031Y-114544256D01*
X186031251Y-27186738D02*
X185887423Y-27137577D01*
X107521050Y-73776426D02*
X107638355Y-73551858D01*
X187361663Y-114793683D02*
X187451626Y-114671169D01*
X160210650Y-107378680D02*
X156410650Y-107378680D01*
X187265618Y-165981915D02*
X187163721Y-165869132D01*
X175810650Y-57800000D02*
X179610650Y-57800000D01*
X188783617Y-26742707D02*
X188943727Y-26939066D01*
X109638322Y-166099722D02*
X109548359Y-166222235D01*
X108971043Y-116911753D02*
X108774684Y-116751644D01*
X107927617Y-207771430D02*
X107788195Y-207559880D01*
X109808396Y-163446440D02*
X109841684Y-163431145D01*
X109045245Y-29545716D02*
X109026042Y-29696495D01*
X189478944Y-119755097D02*
X189584725Y-119985319D01*
X112031970Y-161936040D02*
X127255325Y-161936039D01*
X147000000Y-69978679D02*
X147000000Y-71477680D01*
X107321287Y-28263250D02*
X107415270Y-28027967D01*
X110296845Y-119495069D02*
X110174332Y-119585032D01*
X187361663Y-206751043D02*
X187451626Y-206628529D01*
X189964335Y-121451451D02*
X189983573Y-121704080D01*
X188434614Y-164311598D02*
X188613768Y-164490751D01*
X187851766Y-29101906D02*
X187802604Y-28958080D01*
X187535279Y-28413101D02*
X187451635Y-28286189D01*
X187535268Y-114544256D02*
X187612375Y-114413269D01*
X188943723Y-207975646D02*
X188783614Y-208172005D01*
X110295224Y-209604090D02*
X110059940Y-209510107D01*
X109026042Y-29696495D02*
X109014500Y-29848052D01*
X109965063Y-115131744D02*
X110077847Y-115233640D01*
X112010650Y-72978680D02*
X111858702Y-72982530D01*
X189964335Y-167430131D02*
X189983573Y-167682760D01*
X185887421Y-115819782D02*
X186031248Y-115770621D01*
X109734375Y-74024562D02*
X109638322Y-74142362D01*
X186031251Y-119144098D02*
X185887423Y-119094937D01*
X107010650Y-121932023D02*
X107016426Y-121704081D01*
X147000000Y-161936039D02*
X147000000Y-163435040D01*
X186172400Y-207671598D02*
X186310516Y-207608139D01*
X187416151Y-209287022D02*
X187191582Y-209404327D01*
X187612386Y-74522768D02*
X187535279Y-74391781D01*
X189989329Y-67004010D02*
X189983555Y-67231946D01*
X189964318Y-159441935D02*
X189932310Y-159693266D01*
X187163721Y-119890452D02*
X187056243Y-119782974D01*
X111258692Y-119053128D02*
X111112560Y-119094942D01*
X187989350Y-75978680D02*
X187985499Y-75826731D01*
X187265610Y-206868842D02*
X187361663Y-206751043D01*
X109583828Y-117585065D02*
X109808396Y-117467760D01*
X107542362Y-115159612D02*
X107436582Y-114929389D01*
X107190956Y-160189456D02*
X107133685Y-159942653D01*
X185741291Y-119053124D02*
X185593228Y-119018766D01*
X184989330Y-164936040D02*
X169744675Y-164936040D01*
X110990051Y-115770621D02*
X111133878Y-115819782D01*
X107133685Y-67985293D02*
X107088989Y-67735906D01*
X117410650Y-153357360D02*
X117410650Y-149757360D01*
X187846041Y-117853004D02*
X188050257Y-118002961D01*
X189361639Y-165509209D02*
X189478944Y-165733777D01*
X109836271Y-73911779D02*
X109734375Y-74024562D01*
X189678710Y-120220603D02*
X189760656Y-120460346D01*
X109020445Y-46989340D02*
X107020444Y-46989340D01*
X109047360Y-113260865D02*
X109066562Y-113411644D01*
X110990051Y-207727981D02*
X111133878Y-207777142D01*
X187682761Y-28678812D02*
X187612386Y-28544088D01*
X109338550Y-206235906D02*
X109408924Y-206370629D01*
X187451626Y-160649849D02*
X187535268Y-160522936D01*
X187191582Y-71468287D02*
X187168965Y-71478678D01*
X188050257Y-26045601D02*
X188246616Y-26205710D01*
X150000000Y-164936040D02*
X150000000Y-163437040D01*
X111577685Y-69944087D02*
X111728464Y-69963289D01*
X109022174Y-141946700D02*
X109031970Y-158936040D01*
X186445239Y-69601725D02*
X186576226Y-69524618D01*
X186825653Y-69351013D02*
X186943452Y-69254960D01*
X109755689Y-160890162D02*
X109857585Y-161002946D01*
X185141278Y-72982529D02*
X184989330Y-72978680D01*
X185995943Y-25101715D02*
X186242746Y-25158985D01*
X189760656Y-120460346D02*
X189830355Y-120703931D01*
X107342599Y-68715425D02*
X107260654Y-68475682D01*
X147000000Y-117456360D02*
X147000000Y-117458360D01*
X107067673Y-167178803D02*
X107112371Y-166929418D01*
X109253776Y-120774292D02*
X109197393Y-120915444D01*
X187682749Y-68299866D02*
X187746208Y-68161750D01*
X109035819Y-205066667D02*
X109047360Y-205218225D01*
X187634490Y-209158494D02*
X187416151Y-209287022D01*
X110968734Y-119144103D02*
X110827582Y-119200486D01*
X189983555Y-67231946D02*
X189964318Y-67484575D01*
X109218708Y-68020598D02*
X109275091Y-68161750D01*
X185887423Y-165073617D02*
X185741291Y-165031804D01*
X188246616Y-164141750D02*
X188434614Y-164311598D01*
X188050256Y-208869113D02*
X187846040Y-209019072D01*
X187973957Y-167632533D02*
X187954754Y-167481754D01*
X108586687Y-208539155D02*
X108407534Y-208360002D01*
X147000000Y-163435040D02*
X147000000Y-163437040D01*
X156410650Y-153357360D02*
X156410650Y-149757360D01*
X107016426Y-75725401D02*
X107035664Y-75472773D01*
X185593226Y-115895953D02*
X185741289Y-115861595D01*
X160210650Y-199336040D02*
X156410650Y-199336040D01*
X187927939Y-29396101D02*
X187893580Y-29248039D01*
X186445244Y-73355633D02*
X186310519Y-73285260D01*
X107638355Y-165509218D02*
X107766883Y-165290880D01*
X189830355Y-74725251D02*
X189887627Y-74972053D01*
X111728464Y-115941969D02*
X111880022Y-115953510D01*
X187893580Y-75226719D02*
X187851766Y-75080586D01*
X107016426Y-167682761D02*
X107035664Y-167430133D01*
X109338550Y-160257226D02*
X109408924Y-160391949D01*
X111280010Y-69882915D02*
X111428073Y-69917273D01*
X109836271Y-27933099D02*
X109734375Y-28045882D01*
X130255325Y-25000000D02*
X147000000Y-25000000D01*
X188943727Y-118896426D02*
X189093686Y-119100641D01*
X140710650Y-57800000D02*
X140710650Y-61400000D01*
X187361663Y-160772363D02*
X187451626Y-160649849D01*
X109010650Y-121957360D02*
X109020445Y-138946700D01*
X169744675Y-118957360D02*
X169744675Y-117458360D01*
X140710650Y-199336040D02*
X136910650Y-199336040D01*
X189584717Y-160908069D02*
X189478937Y-161138292D01*
X185141277Y-69974830D02*
X185292835Y-69963289D01*
X109031970Y-112957360D02*
X109035819Y-113109307D01*
X189830355Y-28746571D02*
X189887627Y-28993373D01*
X187163714Y-69045586D02*
X187265610Y-68932802D01*
X109218708Y-113999278D02*
X109275091Y-114140430D01*
X107436582Y-206886749D02*
X107342599Y-206651465D01*
X127255325Y-161936039D02*
X127255325Y-163435040D01*
X187191582Y-209404327D02*
X186961359Y-209510107D01*
X187802604Y-166894120D02*
X187746221Y-166752967D01*
X189584725Y-28027959D02*
X189678710Y-28263243D01*
X188050257Y-118002961D02*
X188246616Y-118163070D01*
X147000000Y-72978680D02*
X130255325Y-72978680D01*
X111504743Y-25025014D02*
X111757371Y-25005776D01*
X169744675Y-115957359D02*
X184989330Y-115957359D01*
X147000000Y-207914719D02*
X147000000Y-209914719D01*
X189989329Y-112982690D02*
X189983555Y-113210626D01*
X110710783Y-115650779D02*
X110848899Y-115714238D01*
X109365490Y-25756233D02*
X109583828Y-25627705D01*
X109569673Y-68692489D02*
X109659636Y-68815003D01*
X185292836Y-72994070D02*
X185141278Y-72982529D01*
X107035664Y-75472773D02*
X107067673Y-75221443D01*
X109734375Y-120003242D02*
X109638322Y-120121042D01*
X189233109Y-165290870D02*
X189361639Y-165509209D01*
X109583828Y-163563745D02*
X109808396Y-163446440D01*
X107088989Y-205671946D02*
X107056981Y-205420615D01*
X107067673Y-121200123D02*
X107112371Y-120950738D01*
X109072060Y-29396104D02*
X109045245Y-29545716D01*
X189361632Y-207341541D02*
X189233104Y-207559880D01*
X127255325Y-117458360D02*
X127255325Y-118957360D01*
X107415270Y-74006647D02*
X107521050Y-73776426D01*
X140710650Y-107378680D02*
X136910650Y-107378680D01*
X187163721Y-73911772D02*
X187056243Y-73804294D01*
X109338550Y-114278546D02*
X109408924Y-114413269D01*
X187989340Y-46989340D02*
X187989350Y-30000000D01*
X127255325Y-71477680D02*
X127255325Y-71479680D01*
X110990051Y-161749301D02*
X111133878Y-161798462D01*
X127255325Y-163437040D02*
X127255325Y-164936040D01*
X186825653Y-207287053D02*
X186943452Y-207191000D01*
X111858702Y-164939890D02*
X111707145Y-164951432D01*
X187989339Y-141946700D02*
X189989339Y-141946700D01*
X188613765Y-70423962D02*
X188434612Y-70603115D01*
X109175259Y-71083032D02*
X108971043Y-70933073D01*
X109072060Y-121353464D02*
X109045245Y-121503076D01*
X109026042Y-75675175D02*
X109014500Y-75826732D01*
X107260654Y-68475682D02*
X107190956Y-68232096D01*
X187056243Y-27825614D02*
X186943459Y-27723718D01*
X150000000Y-72978680D02*
X150000000Y-71479680D01*
X187954754Y-75524394D02*
X187927939Y-75374781D01*
X109169547Y-159834131D02*
X109218708Y-159977958D01*
X109464717Y-166349147D02*
X109387610Y-166480134D01*
X109386809Y-117201134D02*
X109175259Y-117061712D01*
X111258692Y-165031808D02*
X111112560Y-165073622D01*
X111728464Y-207899329D02*
X111880022Y-207910870D01*
X189478944Y-165733777D02*
X189584725Y-165963999D01*
X186825658Y-27627665D02*
X186703144Y-27537702D01*
X188613765Y-116402642D02*
X188434612Y-116581795D01*
X185292835Y-69963289D02*
X185443614Y-69944087D01*
X187846040Y-209019072D02*
X187634490Y-209158494D01*
X107321287Y-120220610D02*
X107415270Y-119985327D01*
X189361632Y-115384181D02*
X189233104Y-115602520D01*
X147000000Y-164936040D02*
X130255325Y-164936040D01*
X110827582Y-73221806D02*
X110689467Y-73285266D01*
X187163714Y-161002946D02*
X187265610Y-160890162D01*
X111253413Y-25057023D02*
X111504743Y-25025014D01*
X109031970Y-204914720D02*
X109035819Y-205066667D01*
X187846041Y-71874324D02*
X188050257Y-72024281D01*
X108753369Y-118163082D02*
X108949727Y-118002973D01*
X189989339Y-187925380D02*
X189989329Y-204940050D01*
X166744675Y-207914719D02*
X166744675Y-209914719D01*
X150000000Y-207914719D02*
X166744675Y-207914719D01*
X121210650Y-199336040D02*
X117410650Y-199336040D01*
X187682761Y-166614852D02*
X187612386Y-166480128D01*
X186703139Y-115419656D02*
X186825653Y-115329693D01*
X108077576Y-70039606D02*
X107927617Y-69835390D01*
X110778553Y-209755733D02*
X110534967Y-209686035D01*
X136910650Y-195736040D02*
X140710650Y-195736040D01*
X109829717Y-117446967D02*
X109605148Y-117329662D01*
X110038617Y-25404620D02*
X110273900Y-25310637D01*
X109127734Y-67730639D02*
X109169547Y-67876771D01*
X187361663Y-68815003D02*
X187451626Y-68692489D01*
X175810650Y-149757360D02*
X179610650Y-149757360D01*
X110273900Y-25310637D02*
X110513642Y-25228691D01*
X188613768Y-118512071D02*
X188783617Y-118700067D01*
X194989350Y-20000000D02*
X102010650Y-20000000D01*
X107906305Y-119100652D02*
X108056263Y-118896437D01*
X107190956Y-206168136D02*
X107133685Y-205921333D01*
X108774684Y-208709004D02*
X108586687Y-208539155D01*
X109093376Y-205518616D02*
X109127734Y-205666679D01*
X185292836Y-27015390D02*
X185141278Y-27003849D01*
X107056981Y-159441935D02*
X107037744Y-159189306D01*
X189760645Y-160433042D02*
X189678700Y-160672785D01*
X189932310Y-67735906D02*
X189887614Y-67985293D01*
X186825658Y-119585025D02*
X186703144Y-119495062D01*
X185741291Y-27095764D02*
X185593228Y-27061406D01*
X189887614Y-205921333D02*
X189830343Y-206168136D01*
X189093682Y-207771430D02*
X188943723Y-207975646D01*
X130255325Y-209914719D02*
X130255325Y-207914719D01*
X187851766Y-121059266D02*
X187802604Y-120915440D01*
X107190956Y-114210776D02*
X107133685Y-113963973D01*
X147000000Y-163437040D02*
X147000000Y-164936040D01*
X107415270Y-28027967D02*
X107521050Y-27797746D01*
X107022174Y-187925380D02*
X109022174Y-187925380D01*
X109169547Y-113855451D02*
X109218708Y-113999278D01*
X188783617Y-72721387D02*
X188943727Y-72917746D01*
X187846041Y-25895644D02*
X188050257Y-26045601D01*
X186486332Y-25228683D02*
X186726075Y-25310628D01*
X109638322Y-74142362D02*
X109548359Y-74264875D01*
X108056263Y-164875117D02*
X108216372Y-164678759D01*
X107031984Y-112983266D02*
X107022174Y-95968020D01*
X160210650Y-61400000D02*
X156410650Y-61400000D01*
X189760656Y-166439026D02*
X189830355Y-166682611D01*
X187802604Y-28958080D02*
X187746221Y-28816927D01*
X108949727Y-118002973D02*
X109153942Y-117853015D01*
X189989329Y-158961370D02*
X189983555Y-159189306D01*
X109408924Y-206370629D02*
X109486031Y-206501616D01*
X111707145Y-27015392D02*
X111556366Y-27034595D01*
X107542362Y-207116972D02*
X107436582Y-206886749D01*
X189983555Y-205167986D02*
X189964318Y-205420615D01*
X110689467Y-73285266D02*
X110554744Y-73355640D01*
X187416151Y-25627694D02*
X187634491Y-25756222D01*
X109275091Y-160119110D02*
X109338550Y-160257226D01*
X136910650Y-61400000D02*
X136910650Y-57800000D01*
X189478944Y-27797737D02*
X189584725Y-28027959D01*
X108407534Y-70423962D02*
X108237685Y-70235965D01*
X186576231Y-119411420D02*
X186445244Y-119334313D01*
X110056532Y-165659765D02*
X109943749Y-165761661D01*
X186825658Y-73606345D02*
X186703144Y-73516382D01*
X108971043Y-70933073D02*
X108774684Y-70772964D01*
X107169642Y-74725256D02*
X107239341Y-74481672D01*
X186172400Y-115714238D02*
X186310516Y-115650779D01*
X187985499Y-75826731D02*
X187973957Y-75675173D01*
X109014500Y-75826732D02*
X109010650Y-75978680D01*
X109841684Y-163431145D02*
X109829717Y-163425647D01*
X188246615Y-208709004D02*
X188050256Y-208869113D01*
X186242746Y-25158985D02*
X186486332Y-25228683D01*
X109153942Y-163831695D02*
X109365490Y-163692273D01*
X189361639Y-73551849D02*
X189478944Y-73776417D01*
X185593228Y-164997446D02*
X185443615Y-164970632D01*
X109486031Y-206501616D02*
X109569673Y-206628529D01*
X109218708Y-159977958D02*
X109275091Y-160119110D01*
X130255325Y-27000000D02*
X130255325Y-25000000D01*
X111526074Y-209889708D02*
X111274743Y-209857700D01*
X112010650Y-27000000D02*
X111858702Y-27003850D01*
X111112560Y-119094942D02*
X110968734Y-119144103D01*
X186726075Y-25310628D02*
X186961359Y-25404611D01*
X185887421Y-69841102D02*
X186031248Y-69791941D01*
X185242596Y-25005774D02*
X185495225Y-25025011D01*
X111858702Y-72982530D02*
X111707145Y-72994072D01*
X109365490Y-117713593D02*
X109583828Y-117585065D01*
X189887627Y-166929413D02*
X189932325Y-167178800D01*
X111577685Y-161901447D02*
X111728464Y-161920649D01*
X117410650Y-195736040D02*
X121210650Y-195736040D01*
X107037744Y-113210626D02*
X107031984Y-112983266D01*
X107020444Y-184925380D02*
X107010650Y-167936616D01*
X186576231Y-73432740D02*
X186445244Y-73355633D01*
X187985499Y-121805411D02*
X187973957Y-121653853D01*
X147000000Y-118957360D02*
X130255325Y-118957360D01*
X187451635Y-166222229D02*
X187361672Y-166099715D01*
X107927617Y-161792750D02*
X107788195Y-161581200D01*
X130255325Y-207914719D02*
X147000000Y-207914719D01*
X110296845Y-165473749D02*
X110174332Y-165563712D01*
X185014660Y-209914719D02*
X169744675Y-209914719D01*
X169744675Y-71479680D02*
X169744675Y-71477680D01*
X187985480Y-205066667D02*
X187989330Y-204914720D01*
X184989330Y-115957359D02*
X185141277Y-115953510D01*
X156410650Y-195736040D02*
X160210650Y-195736040D01*
X107521050Y-27797746D02*
X107638355Y-27573178D01*
X187802591Y-205956638D02*
X187851752Y-205812811D01*
X108386220Y-164490763D02*
X108565373Y-164311610D01*
X109857585Y-69045586D02*
X109965063Y-69153064D01*
X111274743Y-209857700D02*
X111025356Y-209813004D01*
X156410650Y-103778680D02*
X160210650Y-103778680D01*
X188943727Y-164875106D02*
X189093686Y-165079321D01*
X109197393Y-74936764D02*
X109148232Y-75080590D01*
X187851752Y-159834131D02*
X187893565Y-159687999D01*
X189989340Y-184925380D02*
X187989340Y-184925380D01*
X107035664Y-167430133D02*
X107067673Y-167178803D01*
X109943749Y-165761661D02*
X109836271Y-165869139D01*
X186445239Y-115580405D02*
X186576226Y-115503298D01*
X187056243Y-165761654D02*
X186943459Y-165659758D01*
X187612386Y-28544088D02*
X187535279Y-28413101D01*
X166744675Y-117458360D02*
X166744675Y-118957360D01*
X127255325Y-118957360D02*
X112010650Y-118957360D01*
X186031248Y-207727981D02*
X186172400Y-207671598D01*
X111858702Y-27003850D02*
X111707145Y-27015392D01*
X188613765Y-162381322D02*
X188434612Y-162560475D01*
X109045245Y-121503076D02*
X109026042Y-121653855D01*
X107067673Y-29242763D02*
X107112371Y-28993378D01*
X107169642Y-166682616D02*
X107239341Y-166439032D01*
X130255325Y-164936040D02*
X130255325Y-163437040D01*
X189932310Y-113714586D02*
X189887614Y-113963973D01*
X111112560Y-73116262D02*
X110968734Y-73165423D01*
X169744675Y-71477680D02*
X169744675Y-69978679D01*
X107016426Y-29746721D02*
X107035664Y-29494093D01*
X121210650Y-195736040D02*
X121210650Y-199336040D01*
X186576226Y-115503298D02*
X186703139Y-115419656D01*
X186172403Y-27243120D02*
X186031251Y-27186738D01*
X187535268Y-68565576D02*
X187612375Y-68434589D01*
X107056981Y-67484575D02*
X107037744Y-67231946D01*
X187451626Y-68692489D02*
X187535268Y-68565576D01*
X189830343Y-160189456D02*
X189760645Y-160433042D01*
X110689467Y-119263946D02*
X110554744Y-119334320D01*
X109386809Y-71222454D02*
X109175259Y-71083032D01*
X187168965Y-71478678D02*
X187191582Y-71489070D01*
X189887627Y-74972053D02*
X189932325Y-75221440D01*
X187927939Y-167332141D02*
X187893580Y-167184079D01*
X109943749Y-73804301D02*
X109836271Y-73911779D01*
X189233109Y-73333510D02*
X189361639Y-73551849D01*
X111577685Y-115922767D02*
X111728464Y-115941969D01*
X108216372Y-72721399D02*
X108386220Y-72533403D01*
X185593226Y-69917273D02*
X185741289Y-69882915D01*
X109045245Y-167481756D02*
X109026042Y-167632535D01*
X117410650Y-107378680D02*
X117410650Y-103778680D01*
X187191582Y-25510390D02*
X187416151Y-25627694D01*
X107659667Y-69405501D02*
X107542362Y-69180932D01*
X185292835Y-115941969D02*
X185443614Y-115922767D01*
X187682761Y-120636172D02*
X187612386Y-120501448D01*
X189584717Y-68950709D02*
X189478937Y-69180932D01*
X109197393Y-120915444D02*
X109148232Y-121059270D01*
X188246615Y-70772964D02*
X188050256Y-70933073D01*
X109066562Y-205369004D02*
X109093376Y-205518616D01*
X107436582Y-114929389D02*
X107342599Y-114694105D01*
X187265610Y-68932802D02*
X187361663Y-68815003D01*
X147000000Y-71479680D02*
X147000000Y-72978680D01*
X107766883Y-119312200D02*
X107906305Y-119100652D01*
X185741291Y-73074444D02*
X185593228Y-73040086D01*
X188434612Y-162560475D02*
X188246615Y-162730324D01*
X109026042Y-121653855D02*
X109014500Y-121805412D01*
X107927617Y-115814070D02*
X107788195Y-115602520D01*
X189233104Y-161581200D02*
X189093682Y-161792750D01*
X111112560Y-165073622D02*
X110968734Y-165122783D01*
X108386220Y-26554723D02*
X108565373Y-26375570D01*
X185746556Y-25057019D02*
X185995943Y-25101715D01*
X187989339Y-95968020D02*
X189989339Y-95968020D01*
X109841684Y-71473785D02*
X109829717Y-71468287D01*
X112006639Y-209914720D02*
X111778703Y-209908945D01*
X189361639Y-27573169D02*
X189478944Y-27797737D01*
X109829717Y-71468287D02*
X109605148Y-71350982D01*
X130255325Y-163435040D02*
X130255325Y-161936039D01*
X110534967Y-209686035D02*
X110295224Y-209604090D01*
X109106418Y-75226722D02*
X109072060Y-75374784D01*
X112010650Y-164936040D02*
X111858702Y-164939890D01*
X185141278Y-27003849D02*
X184989330Y-27000000D01*
M02*
