M48
; DRILL file {KiCad 8.0.0} date 2024-03-25T13:21:56-0500
; FORMAT={-:-/ absolute / inch / decimal}
; #@! TF.CreationDate,2024-03-25T13:21:56-05:00
; #@! TF.GenerationSoftware,Kicad,Pcbnew,8.0.0
; #@! TF.FileFunction,MixedPlating,1,2
FMAT,2
INCH
; #@! TA.AperFunction,Plated,PTH,ViaDrill
T1C0.0157
; #@! TA.AperFunction,Plated,PTH,ComponentDrill
T2C0.0236
; #@! TA.AperFunction,Plated,PTH,ComponentDrill
T3C0.0394
; #@! TA.AperFunction,Plated,PTH,ComponentDrill
T4C0.0591
; #@! TA.AperFunction,NonPlated,NPTH,ComponentDrill
T5C0.0256
; #@! TA.AperFunction,NonPlated,NPTH,ComponentDrill
T6C0.0610
; #@! TA.AperFunction,NonPlated,NPTH,ComponentDrill
T7C0.0669
; #@! TA.AperFunction,NonPlated,NPTH,ComponentDrill
T8C0.0787
; #@! TA.AperFunction,NonPlated,NPTH,ComponentDrill
T9C0.0807
; #@! TA.AperFunction,NonPlated,NPTH,ComponentDrill
T10C0.0866
; #@! TA.AperFunction,NonPlated,NPTH,ComponentDrill
T11C0.1575
%
G90
G05
T1
X4.5752Y-2.4567
X4.5752Y-4.2669
X4.5752Y-6.0771
X4.5752Y-7.8872
X4.7721Y-1.378
X4.7721Y-1.5512
X4.7721Y-3.1881
X4.7721Y-3.3614
X4.7721Y-4.9983
X4.7721Y-5.1715
X4.7721Y-6.8085
X4.7721Y-6.9817
X5.276Y-2.3465
X5.276Y-4.1566
X5.276Y-5.9668
X5.276Y-7.777
X5.3705Y-1.7165
X5.3705Y-3.5267
X5.3705Y-5.3369
X5.3705Y-7.1471
X5.3784Y-1.6614
X5.3784Y-3.4716
X5.3784Y-5.2818
X5.3784Y-7.092
X5.654Y-1.6378
X5.654Y-3.448
X5.654Y-5.2582
X5.654Y-7.0683
X5.6618Y-1.2441
X5.6618Y-3.0543
X5.6618Y-4.8645
X5.6618Y-6.6746
X5.7406Y-1.7087
X5.7406Y-3.5188
X5.7406Y-5.329
X5.7406Y-7.1392
X5.8193Y-1.4252
X5.8193Y-3.2354
X5.8193Y-5.0456
X5.8193Y-6.8557
X5.8233Y-1.2441
X5.8233Y-3.0543
X5.8233Y-4.8645
X5.8233Y-6.6746
X5.8666Y-1.6014
X5.8666Y-3.4116
X5.8666Y-5.2217
X5.8666Y-7.0319
X5.8784Y-1.315
X5.8784Y-3.1251
X5.8784Y-4.9353
X5.8784Y-6.7455
X5.9216Y-1.3147
X5.9216Y-3.1249
X5.9216Y-4.9351
X5.9216Y-6.7452
X5.9296Y-1.6378
X5.9296Y-3.448
X5.9296Y-5.2582
X5.9296Y-7.0683
X6.0083Y-1.6378
X6.0083Y-3.448
X6.0083Y-5.2582
X6.0083Y-7.0683
X6.0172Y-1.5394
X6.0172Y-3.3496
X6.0172Y-5.1597
X6.0172Y-6.9699
X6.0201Y-1.2795
X6.0201Y-3.0897
X6.0201Y-4.8999
X6.0201Y-6.7101
X6.0461Y-1.761
X6.0461Y-3.5712
X6.0461Y-5.3814
X6.0461Y-7.1916
X6.0477Y-1.5709
X6.0477Y-3.3811
X6.0477Y-5.1912
X6.0477Y-7.0014
X6.0516Y-2.3307
X6.0516Y-4.1409
X6.0516Y-5.9511
X6.0516Y-7.7613
X6.0801Y-1.6535
X6.0801Y-3.4637
X6.0801Y-5.2739
X6.0801Y-7.0841
X6.0949Y-1.4094
X6.0949Y-3.2196
X6.0949Y-5.0298
X6.0949Y-6.84
X6.1028Y-1.7717
X6.1028Y-3.5818
X6.1028Y-5.392
X6.1028Y-7.2022
X6.1579Y-1.378
X6.1579Y-3.1881
X6.1579Y-4.9983
X6.1579Y-6.8085
X6.2366Y-1.748
X6.2366Y-3.5582
X6.2366Y-5.3684
X6.2366Y-7.1786
X6.2445Y-1.4803
X6.2445Y-3.2905
X6.2445Y-5.1007
X6.2445Y-6.9109
X6.4492Y-1.5827
X6.4492Y-3.3929
X6.4492Y-5.203
X6.4492Y-7.0132
X6.5595Y-1.4331
X6.5595Y-3.2433
X6.5595Y-5.0534
X6.5595Y-6.8636
X6.5752Y-1.189
X6.5752Y-2.9992
X6.5752Y-4.8093
X6.5752Y-6.6195
X6.6933Y-1.2756
X6.6933Y-3.0858
X6.6933Y-4.896
X6.6933Y-6.7061
X6.7563Y-1.5433
X6.7563Y-3.3535
X6.7563Y-5.1637
X6.7563Y-6.9739
X6.8193Y-2.3268
X6.8193Y-4.137
X6.8193Y-5.9471
X6.8193Y-7.7573
X6.8626Y-1.3031
X6.8626Y-3.1133
X6.8626Y-4.9235
X6.8626Y-6.7337
X6.9217Y-1.2441
X6.9217Y-3.0543
X6.9217Y-4.8645
X6.9217Y-6.6746
X6.9453Y-1.3858
X6.9453Y-3.196
X6.9453Y-5.0062
X6.9453Y-6.8164
X7.0083Y-1.5591
X7.0083Y-3.3692
X7.0083Y-5.1794
X7.0083Y-6.9896
X7.1579Y-1.2205
X7.1579Y-1.6929
X7.1579Y-3.0307
X7.1579Y-3.5031
X7.1579Y-4.8408
X7.1579Y-5.3133
X7.1579Y-6.651
X7.1579Y-7.1235
X7.3154Y-1.4724
X7.3154Y-3.2826
X7.3154Y-5.0928
X7.3154Y-6.903
T3
X4.3705Y-1.4663
X4.3705Y-1.5663
X4.3705Y-1.6663
X4.3705Y-3.2765
X4.3705Y-3.3765
X4.3705Y-3.4765
X4.3705Y-5.0867
X4.3705Y-5.1867
X4.3705Y-5.2867
X4.3705Y-6.8969
X4.3705Y-6.9969
X4.3705Y-7.0969
X4.6116Y-1.1535
X4.6116Y-2.9637
X4.6116Y-4.7739
X4.6116Y-6.5841
X4.7116Y-1.1535
X4.7116Y-2.9637
X4.7116Y-4.7739
X4.7116Y-6.5841
X4.841Y-1.2894
X4.841Y-1.4862
X4.841Y-3.0996
X4.841Y-3.2964
X4.841Y-4.9097
X4.841Y-5.1066
X4.841Y-6.7199
X4.841Y-6.9168
X5.4118Y-1.2894
X5.4118Y-1.3878
X5.4118Y-1.4862
X5.4118Y-3.0996
X5.4118Y-3.198
X5.4118Y-3.2964
X5.4118Y-4.9097
X5.4118Y-5.0082
X5.4118Y-5.1066
X5.4118Y-6.7199
X5.4118Y-6.8183
X5.4118Y-6.9168
X6.5359Y-1.685
X6.5359Y-3.4952
X6.5359Y-5.3054
X6.5359Y-7.1156
X6.6359Y-1.685
X6.6359Y-3.4952
X6.6359Y-5.3054
X6.6359Y-7.1156
X6.7359Y-1.685
X6.7359Y-3.4952
X6.7359Y-5.3054
X6.7359Y-7.1156
X6.8359Y-1.685
X6.8359Y-3.4952
X6.8359Y-5.3054
X6.8359Y-7.1156
T4
X4.5481Y-2.0732
X4.5481Y-3.8834
X4.5481Y-5.6936
X4.5481Y-7.5038
X4.7981Y-1.9732
X4.7981Y-3.7834
X4.7981Y-5.5936
X4.7981Y-7.4038
X5.3145Y-2.0732
X5.3145Y-3.8834
X5.3145Y-5.6936
X5.3145Y-7.5038
X5.5645Y-1.9732
X5.5645Y-3.7834
X5.5645Y-5.5936
X5.5645Y-7.4038
X6.0809Y-2.0732
X6.0809Y-3.8834
X6.0809Y-5.6936
X6.0809Y-7.5038
X6.3309Y-1.9732
X6.3309Y-3.7834
X6.3309Y-5.5936
X6.3309Y-7.4038
X6.8473Y-2.0732
X6.8473Y-3.8834
X6.8473Y-5.6936
X6.8473Y-7.5038
X7.0973Y-1.9732
X7.0973Y-3.7834
X7.0973Y-5.5936
X7.0973Y-7.4038
T5
X5.7764Y-1.3145
X5.7764Y-3.1247
X5.7764Y-4.9348
X5.7764Y-6.745
X6.004Y-1.3145
X6.004Y-3.1247
X6.004Y-4.9348
X6.004Y-6.745
T7
X4.4981Y-2.1732
X4.4981Y-3.9834
X4.4981Y-5.7936
X4.4981Y-7.6038
X4.8981Y-2.1732
X4.8981Y-3.9834
X4.8981Y-5.7936
X4.8981Y-7.6038
X5.2645Y-2.1732
X5.2645Y-3.9834
X5.2645Y-5.7936
X5.2645Y-7.6038
X5.6645Y-2.1732
X5.6645Y-3.9834
X5.6645Y-5.7936
X5.6645Y-7.6038
X6.0309Y-2.1732
X6.0309Y-3.9834
X6.0309Y-5.7936
X6.0309Y-7.6038
X6.4309Y-2.1732
X6.4309Y-3.9834
X6.4309Y-5.7936
X6.4309Y-7.6038
X6.7973Y-2.1732
X6.7973Y-3.9834
X6.7973Y-5.7936
X6.7973Y-7.6038
X7.1973Y-2.1732
X7.1973Y-3.9834
X7.1973Y-5.7936
X7.1973Y-7.6038
T8
X4.1146Y-0.8858
X4.1146Y-8.3628
X7.5783Y-0.8858
X7.5783Y-8.3628
T9
X5.1166Y-1.3878
X5.1166Y-3.198
X5.1166Y-5.0082
X5.1166Y-6.8183
T10
X4.4099Y-1.1811
X4.4099Y-2.6457
X4.4099Y-2.9913
X4.4099Y-4.4559
X4.4099Y-4.8015
X4.4099Y-6.266
X4.4099Y-6.6117
X4.4099Y-8.0762
X7.2839Y-1.1811
X7.2839Y-2.6457
X7.2839Y-2.9913
X7.2839Y-4.4559
X7.2839Y-4.8015
X7.2839Y-6.266
X7.2839Y-6.6117
X7.2839Y-8.0762
T11
X4.6981Y-2.1732
X4.6981Y-3.9834
X4.6981Y-5.7936
X4.6981Y-7.6038
X5.4645Y-2.1732
X5.4645Y-3.9834
X5.4645Y-5.7936
X5.4645Y-7.6038
X6.2309Y-2.1732
X6.2309Y-3.9834
X6.2309Y-5.7936
X6.2309Y-7.6038
X6.9973Y-2.1732
X6.9973Y-3.9834
X6.9973Y-5.7936
X6.9973Y-7.6038
T2
G00X5.7201Y-1.1865
M15
G01X5.7201Y-1.155
M16
G05
G00X5.7201Y-1.3558
M15
G01X5.7201Y-1.3125
M16
G05
G00X5.7201Y-2.9967
M15
G01X5.7201Y-2.9652
M16
G05
G00X5.7201Y-3.166
M15
G01X5.7201Y-3.1227
M16
G05
G00X5.7201Y-4.8069
M15
G01X5.7201Y-4.7754
M16
G05
G00X5.7201Y-4.9762
M15
G01X5.7201Y-4.9329
M16
G05
G00X5.7201Y-6.6171
M15
G01X5.7201Y-6.5856
M16
G05
G00X5.7201Y-6.7864
M15
G01X5.7201Y-6.7431
M16
G05
G00X6.0603Y-1.1865
M15
G01X6.0603Y-1.155
M16
G05
G00X6.0603Y-1.3558
M15
G01X6.0603Y-1.3125
M16
G05
G00X6.0603Y-2.9967
M15
G01X6.0603Y-2.9652
M16
G05
G00X6.0603Y-3.166
M15
G01X6.0603Y-3.1227
M16
G05
G00X6.0603Y-4.8069
M15
G01X6.0603Y-4.7754
M16
G05
G00X6.0603Y-4.9762
M15
G01X6.0603Y-4.9329
M16
G05
G00X6.0603Y-6.6171
M15
G01X6.0603Y-6.5856
M16
G05
G00X6.0603Y-6.7864
M15
G01X6.0603Y-6.7431
M16
G05
T4
G00X5.0949Y-1.1713
M15
G01X5.1382Y-1.1713
M16
G05
G00X5.0949Y-1.6043
M15
G01X5.1382Y-1.6043
M16
G05
G00X5.0949Y-2.9814
M15
G01X5.1382Y-2.9814
M16
G05
G00X5.0949Y-3.4145
M15
G01X5.1382Y-3.4145
M16
G05
G00X5.0949Y-4.7916
M15
G01X5.1382Y-4.7916
M16
G05
G00X5.0949Y-5.2247
M15
G01X5.1382Y-5.2247
M16
G05
G00X5.0949Y-6.6018
M15
G01X5.1382Y-6.6018
M16
G05
G00X5.0949Y-7.0349
M15
G01X5.1382Y-7.0349
M16
G05
T6
G00X4.9266Y-1.3878
M15
G01X4.9522Y-1.3878
M16
G05
G00X4.9266Y-3.198
M15
G01X4.9522Y-3.198
M16
G05
G00X4.9266Y-5.0082
M15
G01X4.9522Y-5.0082
M16
G05
G00X4.9266Y-6.8183
M15
G01X4.9522Y-6.8183
M16
G05
M30
