M48
; DRILL file {KiCad 7.0.8} date Tue Feb  6 14:03:33 2024
; FORMAT={-:-/ absolute / inch / decimal}
; #@! TF.CreationDate,2024-02-06T14:03:33-06:00
; #@! TF.GenerationSoftware,Kicad,Pcbnew,7.0.8
; #@! TF.FileFunction,MixedPlating,1,2
FMAT,2
INCH
; #@! TA.AperFunction,Plated,PTH,ViaDrill
T1C0.0157
; #@! TA.AperFunction,Plated,PTH,ComponentDrill
T2C0.0394
; #@! TA.AperFunction,Plated,PTH,ComponentDrill
T3C0.0591
; #@! TA.AperFunction,NonPlated,NPTH,ComponentDrill
T4C0.0669
; #@! TA.AperFunction,NonPlated,NPTH,ComponentDrill
T5C0.1575
%
G90
G05
T1
X5.6142Y-3.0315
X5.7165Y-2.7874
X5.7559Y-2.5906
X5.811Y-3.2756
X5.8504Y-3.0709
X5.8583Y-2.6693
X5.8898Y-2.9213
X5.9291Y-3.2677
X5.9685Y-2.5669
X6.0079Y-2.685
X6.0743Y-3.1604
X6.126Y-2.5827
X6.1339Y-2.9606
X6.1666Y-3.1004
X6.1811Y-2.8031
X6.4252Y-2.6535
X6.4567Y-3.2441
X6.7638Y-2.6535
X6.7638Y-3.0709
X6.7874Y-2.5669
X6.9528Y-3.0866
T2
X6.1701Y-3.2362
X6.2701Y-3.2362
X6.3701Y-3.2362
X6.8898Y-2.6031
X6.8898Y-2.7031
X6.8898Y-2.8031
X6.8898Y-2.9031
X6.8898Y-3.0031
T3
X6.2969Y-2.7134
X6.5469Y-2.8134
T4
X6.1969Y-2.9134
X6.5969Y-2.9134
T5
X6.3969Y-2.9134
T0
M30
