%TF.GenerationSoftware,KiCad,Pcbnew,7.0.8*%
%TF.CreationDate,2024-02-06T14:03:30-06:00*%
%TF.ProjectId,Keeb,4b656562-2e6b-4696-9361-645f70636258,rev?*%
%TF.SameCoordinates,Original*%
%TF.FileFunction,Legend,Bot*%
%TF.FilePolarity,Positive*%
%FSLAX46Y46*%
G04 Gerber Fmt 4.6, Leading zero omitted, Abs format (unit mm)*
G04 Created by KiCad (PCBNEW 7.0.8) date 2024-02-06 14:03:30*
%MOMM*%
%LPD*%
G01*
G04 APERTURE LIST*
%ADD10C,0.150000*%
%ADD11C,0.120000*%
G04 APERTURE END LIST*
D10*
X163813332Y-66533200D02*
X163670475Y-66580819D01*
X163670475Y-66580819D02*
X163432380Y-66580819D01*
X163432380Y-66580819D02*
X163337142Y-66533200D01*
X163337142Y-66533200D02*
X163289523Y-66485580D01*
X163289523Y-66485580D02*
X163241904Y-66390342D01*
X163241904Y-66390342D02*
X163241904Y-66295104D01*
X163241904Y-66295104D02*
X163289523Y-66199866D01*
X163289523Y-66199866D02*
X163337142Y-66152247D01*
X163337142Y-66152247D02*
X163432380Y-66104628D01*
X163432380Y-66104628D02*
X163622856Y-66057009D01*
X163622856Y-66057009D02*
X163718094Y-66009390D01*
X163718094Y-66009390D02*
X163765713Y-65961771D01*
X163765713Y-65961771D02*
X163813332Y-65866533D01*
X163813332Y-65866533D02*
X163813332Y-65771295D01*
X163813332Y-65771295D02*
X163765713Y-65676057D01*
X163765713Y-65676057D02*
X163718094Y-65628438D01*
X163718094Y-65628438D02*
X163622856Y-65580819D01*
X163622856Y-65580819D02*
X163384761Y-65580819D01*
X163384761Y-65580819D02*
X163241904Y-65628438D01*
X162908570Y-65580819D02*
X162670475Y-66580819D01*
X162670475Y-66580819D02*
X162479999Y-65866533D01*
X162479999Y-65866533D02*
X162289523Y-66580819D01*
X162289523Y-66580819D02*
X162051428Y-65580819D01*
X161146666Y-66580819D02*
X161718094Y-66580819D01*
X161432380Y-66580819D02*
X161432380Y-65580819D01*
X161432380Y-65580819D02*
X161527618Y-65723676D01*
X161527618Y-65723676D02*
X161622856Y-65818914D01*
X161622856Y-65818914D02*
X161718094Y-65866533D01*
D11*
%TO.C,SW1*%
X169465000Y-67015000D02*
X155495000Y-67015000D01*
X155495000Y-80985000D02*
X169465000Y-80985000D01*
X169465000Y-80985000D02*
X169465000Y-67015000D01*
X155495000Y-67015000D02*
X155495000Y-80985000D01*
%TD*%
M02*
