%TF.GenerationSoftware,KiCad,Pcbnew,7.0.8*%
%TF.CreationDate,2024-02-06T14:03:30-06:00*%
%TF.ProjectId,Keeb,4b656562-2e6b-4696-9361-645f70636258,rev?*%
%TF.SameCoordinates,Original*%
%TF.FileFunction,Soldermask,Top*%
%TF.FilePolarity,Negative*%
%FSLAX46Y46*%
G04 Gerber Fmt 4.6, Leading zero omitted, Abs format (unit mm)*
G04 Created by KiCad (PCBNEW 7.0.8) date 2024-02-06 14:03:30*
%MOMM*%
%LPD*%
G01*
G04 APERTURE LIST*
G04 Aperture macros list*
%AMRoundRect*
0 Rectangle with rounded corners*
0 $1 Rounding radius*
0 $2 $3 $4 $5 $6 $7 $8 $9 X,Y pos of 4 corners*
0 Add a 4 corners polygon primitive as box body*
4,1,4,$2,$3,$4,$5,$6,$7,$8,$9,$2,$3,0*
0 Add four circle primitives for the rounded corners*
1,1,$1+$1,$2,$3*
1,1,$1+$1,$4,$5*
1,1,$1+$1,$6,$7*
1,1,$1+$1,$8,$9*
0 Add four rect primitives between the rounded corners*
20,1,$1+$1,$2,$3,$4,$5,0*
20,1,$1+$1,$4,$5,$6,$7,0*
20,1,$1+$1,$6,$7,$8,$9,0*
20,1,$1+$1,$8,$9,$2,$3,0*%
G04 Aperture macros list end*
%ADD10R,1.700000X1.700000*%
%ADD11O,1.700000X1.700000*%
%ADD12R,1.800000X0.820000*%
%ADD13RoundRect,0.150000X0.512500X0.150000X-0.512500X0.150000X-0.512500X-0.150000X0.512500X-0.150000X0*%
%ADD14RoundRect,0.100000X0.637500X0.100000X-0.637500X0.100000X-0.637500X-0.100000X0.637500X-0.100000X0*%
%ADD15C,2.200000*%
%ADD16C,1.700000*%
%ADD17C,4.000000*%
%ADD18R,0.800000X0.500000*%
%ADD19R,0.800000X0.400000*%
%ADD20RoundRect,0.250000X0.262500X0.450000X-0.262500X0.450000X-0.262500X-0.450000X0.262500X-0.450000X0*%
%ADD21R,8.000000X1.900000*%
%ADD22R,7.500000X2.000000*%
%ADD23RoundRect,0.243750X0.243750X0.456250X-0.243750X0.456250X-0.243750X-0.456250X0.243750X-0.456250X0*%
%ADD24RoundRect,0.250000X-0.250000X-0.475000X0.250000X-0.475000X0.250000X0.475000X-0.250000X0.475000X0*%
%ADD25RoundRect,0.250000X0.475000X-0.250000X0.475000X0.250000X-0.475000X0.250000X-0.475000X-0.250000X0*%
%ADD26RoundRect,0.250000X0.250000X0.475000X-0.250000X0.475000X-0.250000X-0.475000X0.250000X-0.475000X0*%
G04 APERTURE END LIST*
D10*
%TO.C,J3*%
X156720000Y-82200000D03*
D11*
X159260000Y-82200000D03*
X161800000Y-82200000D03*
%TD*%
D12*
%TO.C,D5*%
X165000000Y-78065000D03*
X165000000Y-79600000D03*
X159900000Y-79600000D03*
X159900000Y-78065000D03*
%TD*%
D13*
%TO.C,U2*%
X151000000Y-70500000D03*
X151000000Y-68600000D03*
X148725000Y-69550000D03*
%TD*%
D14*
%TO.C,U1*%
X152612500Y-79325000D03*
X152612500Y-78675000D03*
X152612500Y-78025000D03*
X152612500Y-77375000D03*
X152612500Y-76725000D03*
X152612500Y-76075000D03*
X152612500Y-75425000D03*
X152612500Y-74775000D03*
X152612500Y-74125000D03*
X152612500Y-73475000D03*
X146887500Y-73475000D03*
X146887500Y-74125000D03*
X146887500Y-74775000D03*
X146887500Y-75425000D03*
X146887500Y-76075000D03*
X146887500Y-76725000D03*
X146887500Y-77375000D03*
X146887500Y-78025000D03*
X146887500Y-78675000D03*
X146887500Y-79325000D03*
%TD*%
D15*
%TO.C,SW1*%
X166290000Y-71460000D03*
X159940000Y-68920000D03*
D16*
X157400000Y-74000000D03*
X167560000Y-74000000D03*
D17*
X162480000Y-74000000D03*
%TD*%
D18*
%TO.C,RN2*%
X172062500Y-80000000D03*
D19*
X172062500Y-80800000D03*
X172062500Y-81600000D03*
D18*
X172062500Y-82400000D03*
X170262500Y-82400000D03*
D19*
X170262500Y-81600000D03*
X170262500Y-80800000D03*
D18*
X170262500Y-80000000D03*
%TD*%
D20*
%TO.C,R1*%
X147912500Y-81400000D03*
X146087500Y-81400000D03*
%TD*%
D11*
%TO.C,J2*%
X175000000Y-66120000D03*
X175000000Y-68660000D03*
X175000000Y-71200000D03*
X175000000Y-73740000D03*
D10*
X175000000Y-76280000D03*
%TD*%
D21*
%TO.C,J1*%
X137814840Y-77610000D03*
X137814840Y-69990000D03*
D22*
X138064840Y-72500000D03*
X138064840Y-75100000D03*
%TD*%
D23*
%TO.C,D3*%
X174062500Y-80000000D03*
X175937500Y-80000000D03*
%TD*%
%TO.C,D2*%
X174062500Y-82400000D03*
X175937500Y-82400000D03*
%TD*%
D24*
%TO.C,C3*%
X150050000Y-81400000D03*
X151950000Y-81400000D03*
%TD*%
D25*
%TO.C,C2*%
X146600000Y-70550000D03*
X146600000Y-68650000D03*
%TD*%
D26*
%TO.C,C1*%
X150200000Y-66000000D03*
X148300000Y-66000000D03*
%TD*%
M02*
