%TF.GenerationSoftware,KiCad,Pcbnew,7.0.8*%
%TF.CreationDate,2024-02-06T14:03:30-06:00*%
%TF.ProjectId,Keeb,4b656562-2e6b-4696-9361-645f70636258,rev?*%
%TF.SameCoordinates,Original*%
%TF.FileFunction,Legend,Top*%
%TF.FilePolarity,Positive*%
%FSLAX46Y46*%
G04 Gerber Fmt 4.6, Leading zero omitted, Abs format (unit mm)*
G04 Created by KiCad (PCBNEW 7.0.8) date 2024-02-06 14:03:30*
%MOMM*%
%LPD*%
G01*
G04 APERTURE LIST*
%ADD10C,0.150000*%
%ADD11C,0.300000*%
%ADD12C,0.120000*%
G04 APERTURE END LIST*
D10*
X158000000Y-80000000D02*
X159000000Y-81000000D01*
X158800000Y-80600000D02*
X158000000Y-80000000D01*
X158000000Y-80200000D02*
X158400000Y-80400000D01*
X158200000Y-80000000D02*
X158700000Y-80400000D01*
X158400000Y-80400000D02*
X158700000Y-80400000D01*
X158400000Y-79800000D02*
X158400000Y-80400000D01*
X159000000Y-81000000D02*
X158400000Y-79800000D01*
X158000000Y-80200000D02*
X159000000Y-81000000D01*
D11*
X163554510Y-82229400D02*
X164697368Y-82229400D01*
X153954510Y-82229400D02*
X155097368Y-82229400D01*
X154525939Y-82800828D02*
X154525939Y-81657971D01*
D10*
X159661905Y-77054819D02*
X159661905Y-76054819D01*
X159661905Y-76054819D02*
X159900000Y-76054819D01*
X159900000Y-76054819D02*
X160042857Y-76102438D01*
X160042857Y-76102438D02*
X160138095Y-76197676D01*
X160138095Y-76197676D02*
X160185714Y-76292914D01*
X160185714Y-76292914D02*
X160233333Y-76483390D01*
X160233333Y-76483390D02*
X160233333Y-76626247D01*
X160233333Y-76626247D02*
X160185714Y-76816723D01*
X160185714Y-76816723D02*
X160138095Y-76911961D01*
X160138095Y-76911961D02*
X160042857Y-77007200D01*
X160042857Y-77007200D02*
X159900000Y-77054819D01*
X159900000Y-77054819D02*
X159661905Y-77054819D01*
X161138095Y-76054819D02*
X160661905Y-76054819D01*
X160661905Y-76054819D02*
X160614286Y-76531009D01*
X160614286Y-76531009D02*
X160661905Y-76483390D01*
X160661905Y-76483390D02*
X160757143Y-76435771D01*
X160757143Y-76435771D02*
X160995238Y-76435771D01*
X160995238Y-76435771D02*
X161090476Y-76483390D01*
X161090476Y-76483390D02*
X161138095Y-76531009D01*
X161138095Y-76531009D02*
X161185714Y-76626247D01*
X161185714Y-76626247D02*
X161185714Y-76864342D01*
X161185714Y-76864342D02*
X161138095Y-76959580D01*
X161138095Y-76959580D02*
X161090476Y-77007200D01*
X161090476Y-77007200D02*
X160995238Y-77054819D01*
X160995238Y-77054819D02*
X160757143Y-77054819D01*
X160757143Y-77054819D02*
X160661905Y-77007200D01*
X160661905Y-77007200D02*
X160614286Y-76959580D01*
X149100595Y-71404819D02*
X149100595Y-72214342D01*
X149100595Y-72214342D02*
X149148214Y-72309580D01*
X149148214Y-72309580D02*
X149195833Y-72357200D01*
X149195833Y-72357200D02*
X149291071Y-72404819D01*
X149291071Y-72404819D02*
X149481547Y-72404819D01*
X149481547Y-72404819D02*
X149576785Y-72357200D01*
X149576785Y-72357200D02*
X149624404Y-72309580D01*
X149624404Y-72309580D02*
X149672023Y-72214342D01*
X149672023Y-72214342D02*
X149672023Y-71404819D01*
X150100595Y-71500057D02*
X150148214Y-71452438D01*
X150148214Y-71452438D02*
X150243452Y-71404819D01*
X150243452Y-71404819D02*
X150481547Y-71404819D01*
X150481547Y-71404819D02*
X150576785Y-71452438D01*
X150576785Y-71452438D02*
X150624404Y-71500057D01*
X150624404Y-71500057D02*
X150672023Y-71595295D01*
X150672023Y-71595295D02*
X150672023Y-71690533D01*
X150672023Y-71690533D02*
X150624404Y-71833390D01*
X150624404Y-71833390D02*
X150052976Y-72404819D01*
X150052976Y-72404819D02*
X150672023Y-72404819D01*
X151838095Y-71654819D02*
X151838095Y-72464342D01*
X151838095Y-72464342D02*
X151885714Y-72559580D01*
X151885714Y-72559580D02*
X151933333Y-72607200D01*
X151933333Y-72607200D02*
X152028571Y-72654819D01*
X152028571Y-72654819D02*
X152219047Y-72654819D01*
X152219047Y-72654819D02*
X152314285Y-72607200D01*
X152314285Y-72607200D02*
X152361904Y-72559580D01*
X152361904Y-72559580D02*
X152409523Y-72464342D01*
X152409523Y-72464342D02*
X152409523Y-71654819D01*
X153409523Y-72654819D02*
X152838095Y-72654819D01*
X153123809Y-72654819D02*
X153123809Y-71654819D01*
X153123809Y-71654819D02*
X153028571Y-71797676D01*
X153028571Y-71797676D02*
X152933333Y-71892914D01*
X152933333Y-71892914D02*
X152838095Y-71940533D01*
X170472023Y-78854819D02*
X170138690Y-78378628D01*
X169900595Y-78854819D02*
X169900595Y-77854819D01*
X169900595Y-77854819D02*
X170281547Y-77854819D01*
X170281547Y-77854819D02*
X170376785Y-77902438D01*
X170376785Y-77902438D02*
X170424404Y-77950057D01*
X170424404Y-77950057D02*
X170472023Y-78045295D01*
X170472023Y-78045295D02*
X170472023Y-78188152D01*
X170472023Y-78188152D02*
X170424404Y-78283390D01*
X170424404Y-78283390D02*
X170376785Y-78331009D01*
X170376785Y-78331009D02*
X170281547Y-78378628D01*
X170281547Y-78378628D02*
X169900595Y-78378628D01*
X170900595Y-78854819D02*
X170900595Y-77854819D01*
X170900595Y-77854819D02*
X171472023Y-78854819D01*
X171472023Y-78854819D02*
X171472023Y-77854819D01*
X171900595Y-77950057D02*
X171948214Y-77902438D01*
X171948214Y-77902438D02*
X172043452Y-77854819D01*
X172043452Y-77854819D02*
X172281547Y-77854819D01*
X172281547Y-77854819D02*
X172376785Y-77902438D01*
X172376785Y-77902438D02*
X172424404Y-77950057D01*
X172424404Y-77950057D02*
X172472023Y-78045295D01*
X172472023Y-78045295D02*
X172472023Y-78140533D01*
X172472023Y-78140533D02*
X172424404Y-78283390D01*
X172424404Y-78283390D02*
X171852976Y-78854819D01*
X171852976Y-78854819D02*
X172472023Y-78854819D01*
X146833333Y-83504819D02*
X146500000Y-83028628D01*
X146261905Y-83504819D02*
X146261905Y-82504819D01*
X146261905Y-82504819D02*
X146642857Y-82504819D01*
X146642857Y-82504819D02*
X146738095Y-82552438D01*
X146738095Y-82552438D02*
X146785714Y-82600057D01*
X146785714Y-82600057D02*
X146833333Y-82695295D01*
X146833333Y-82695295D02*
X146833333Y-82838152D01*
X146833333Y-82838152D02*
X146785714Y-82933390D01*
X146785714Y-82933390D02*
X146738095Y-82981009D01*
X146738095Y-82981009D02*
X146642857Y-83028628D01*
X146642857Y-83028628D02*
X146261905Y-83028628D01*
X147785714Y-83504819D02*
X147214286Y-83504819D01*
X147500000Y-83504819D02*
X147500000Y-82504819D01*
X147500000Y-82504819D02*
X147404762Y-82647676D01*
X147404762Y-82647676D02*
X147309524Y-82742914D01*
X147309524Y-82742914D02*
X147214286Y-82790533D01*
X174461905Y-78854819D02*
X174461905Y-77854819D01*
X174461905Y-77854819D02*
X174700000Y-77854819D01*
X174700000Y-77854819D02*
X174842857Y-77902438D01*
X174842857Y-77902438D02*
X174938095Y-77997676D01*
X174938095Y-77997676D02*
X174985714Y-78092914D01*
X174985714Y-78092914D02*
X175033333Y-78283390D01*
X175033333Y-78283390D02*
X175033333Y-78426247D01*
X175033333Y-78426247D02*
X174985714Y-78616723D01*
X174985714Y-78616723D02*
X174938095Y-78711961D01*
X174938095Y-78711961D02*
X174842857Y-78807200D01*
X174842857Y-78807200D02*
X174700000Y-78854819D01*
X174700000Y-78854819D02*
X174461905Y-78854819D01*
X175366667Y-77854819D02*
X175985714Y-77854819D01*
X175985714Y-77854819D02*
X175652381Y-78235771D01*
X175652381Y-78235771D02*
X175795238Y-78235771D01*
X175795238Y-78235771D02*
X175890476Y-78283390D01*
X175890476Y-78283390D02*
X175938095Y-78331009D01*
X175938095Y-78331009D02*
X175985714Y-78426247D01*
X175985714Y-78426247D02*
X175985714Y-78664342D01*
X175985714Y-78664342D02*
X175938095Y-78759580D01*
X175938095Y-78759580D02*
X175890476Y-78807200D01*
X175890476Y-78807200D02*
X175795238Y-78854819D01*
X175795238Y-78854819D02*
X175509524Y-78854819D01*
X175509524Y-78854819D02*
X175414286Y-78807200D01*
X175414286Y-78807200D02*
X175366667Y-78759580D01*
X171661905Y-83654819D02*
X171661905Y-82654819D01*
X171661905Y-82654819D02*
X171900000Y-82654819D01*
X171900000Y-82654819D02*
X172042857Y-82702438D01*
X172042857Y-82702438D02*
X172138095Y-82797676D01*
X172138095Y-82797676D02*
X172185714Y-82892914D01*
X172185714Y-82892914D02*
X172233333Y-83083390D01*
X172233333Y-83083390D02*
X172233333Y-83226247D01*
X172233333Y-83226247D02*
X172185714Y-83416723D01*
X172185714Y-83416723D02*
X172138095Y-83511961D01*
X172138095Y-83511961D02*
X172042857Y-83607200D01*
X172042857Y-83607200D02*
X171900000Y-83654819D01*
X171900000Y-83654819D02*
X171661905Y-83654819D01*
X172614286Y-82750057D02*
X172661905Y-82702438D01*
X172661905Y-82702438D02*
X172757143Y-82654819D01*
X172757143Y-82654819D02*
X172995238Y-82654819D01*
X172995238Y-82654819D02*
X173090476Y-82702438D01*
X173090476Y-82702438D02*
X173138095Y-82750057D01*
X173138095Y-82750057D02*
X173185714Y-82845295D01*
X173185714Y-82845295D02*
X173185714Y-82940533D01*
X173185714Y-82940533D02*
X173138095Y-83083390D01*
X173138095Y-83083390D02*
X172566667Y-83654819D01*
X172566667Y-83654819D02*
X173185714Y-83654819D01*
X150833333Y-83359580D02*
X150785714Y-83407200D01*
X150785714Y-83407200D02*
X150642857Y-83454819D01*
X150642857Y-83454819D02*
X150547619Y-83454819D01*
X150547619Y-83454819D02*
X150404762Y-83407200D01*
X150404762Y-83407200D02*
X150309524Y-83311961D01*
X150309524Y-83311961D02*
X150261905Y-83216723D01*
X150261905Y-83216723D02*
X150214286Y-83026247D01*
X150214286Y-83026247D02*
X150214286Y-82883390D01*
X150214286Y-82883390D02*
X150261905Y-82692914D01*
X150261905Y-82692914D02*
X150309524Y-82597676D01*
X150309524Y-82597676D02*
X150404762Y-82502438D01*
X150404762Y-82502438D02*
X150547619Y-82454819D01*
X150547619Y-82454819D02*
X150642857Y-82454819D01*
X150642857Y-82454819D02*
X150785714Y-82502438D01*
X150785714Y-82502438D02*
X150833333Y-82550057D01*
X151166667Y-82454819D02*
X151785714Y-82454819D01*
X151785714Y-82454819D02*
X151452381Y-82835771D01*
X151452381Y-82835771D02*
X151595238Y-82835771D01*
X151595238Y-82835771D02*
X151690476Y-82883390D01*
X151690476Y-82883390D02*
X151738095Y-82931009D01*
X151738095Y-82931009D02*
X151785714Y-83026247D01*
X151785714Y-83026247D02*
X151785714Y-83264342D01*
X151785714Y-83264342D02*
X151738095Y-83359580D01*
X151738095Y-83359580D02*
X151690476Y-83407200D01*
X151690476Y-83407200D02*
X151595238Y-83454819D01*
X151595238Y-83454819D02*
X151309524Y-83454819D01*
X151309524Y-83454819D02*
X151214286Y-83407200D01*
X151214286Y-83407200D02*
X151166667Y-83359580D01*
X145279580Y-69766666D02*
X145327200Y-69814285D01*
X145327200Y-69814285D02*
X145374819Y-69957142D01*
X145374819Y-69957142D02*
X145374819Y-70052380D01*
X145374819Y-70052380D02*
X145327200Y-70195237D01*
X145327200Y-70195237D02*
X145231961Y-70290475D01*
X145231961Y-70290475D02*
X145136723Y-70338094D01*
X145136723Y-70338094D02*
X144946247Y-70385713D01*
X144946247Y-70385713D02*
X144803390Y-70385713D01*
X144803390Y-70385713D02*
X144612914Y-70338094D01*
X144612914Y-70338094D02*
X144517676Y-70290475D01*
X144517676Y-70290475D02*
X144422438Y-70195237D01*
X144422438Y-70195237D02*
X144374819Y-70052380D01*
X144374819Y-70052380D02*
X144374819Y-69957142D01*
X144374819Y-69957142D02*
X144422438Y-69814285D01*
X144422438Y-69814285D02*
X144470057Y-69766666D01*
X144470057Y-69385713D02*
X144422438Y-69338094D01*
X144422438Y-69338094D02*
X144374819Y-69242856D01*
X144374819Y-69242856D02*
X144374819Y-69004761D01*
X144374819Y-69004761D02*
X144422438Y-68909523D01*
X144422438Y-68909523D02*
X144470057Y-68861904D01*
X144470057Y-68861904D02*
X144565295Y-68814285D01*
X144565295Y-68814285D02*
X144660533Y-68814285D01*
X144660533Y-68814285D02*
X144803390Y-68861904D01*
X144803390Y-68861904D02*
X145374819Y-69433332D01*
X145374819Y-69433332D02*
X145374819Y-68814285D01*
X146433333Y-66359580D02*
X146385714Y-66407200D01*
X146385714Y-66407200D02*
X146242857Y-66454819D01*
X146242857Y-66454819D02*
X146147619Y-66454819D01*
X146147619Y-66454819D02*
X146004762Y-66407200D01*
X146004762Y-66407200D02*
X145909524Y-66311961D01*
X145909524Y-66311961D02*
X145861905Y-66216723D01*
X145861905Y-66216723D02*
X145814286Y-66026247D01*
X145814286Y-66026247D02*
X145814286Y-65883390D01*
X145814286Y-65883390D02*
X145861905Y-65692914D01*
X145861905Y-65692914D02*
X145909524Y-65597676D01*
X145909524Y-65597676D02*
X146004762Y-65502438D01*
X146004762Y-65502438D02*
X146147619Y-65454819D01*
X146147619Y-65454819D02*
X146242857Y-65454819D01*
X146242857Y-65454819D02*
X146385714Y-65502438D01*
X146385714Y-65502438D02*
X146433333Y-65550057D01*
X147385714Y-66454819D02*
X146814286Y-66454819D01*
X147100000Y-66454819D02*
X147100000Y-65454819D01*
X147100000Y-65454819D02*
X147004762Y-65597676D01*
X147004762Y-65597676D02*
X146909524Y-65692914D01*
X146909524Y-65692914D02*
X146814286Y-65740533D01*
%TO.C,kibuzzard-65C28AFE*%
G36*
X157446775Y-78873730D02*
G01*
X157528986Y-78927906D01*
X157583415Y-79010117D01*
X157603243Y-79113292D01*
X157594430Y-79186649D01*
X157564627Y-79255180D01*
X157513832Y-79318884D01*
X157450297Y-79369622D01*
X157382272Y-79399257D01*
X157309756Y-79407789D01*
X157207718Y-79387583D01*
X157125885Y-79333028D01*
X157071583Y-79250690D01*
X157052136Y-79147136D01*
X157061003Y-79073723D01*
X157090302Y-79005697D01*
X157140029Y-78943060D01*
X157202610Y-78893276D01*
X157270467Y-78863809D01*
X157343600Y-78854661D01*
X157446775Y-78873730D01*
G37*
G36*
X155144909Y-76028327D02*
G01*
X155226299Y-76040400D01*
X155306113Y-76060392D01*
X155383584Y-76088112D01*
X155457965Y-76123292D01*
X155528539Y-76165592D01*
X155594627Y-76214606D01*
X155655593Y-76269862D01*
X155697687Y-76311957D01*
X158288042Y-78902312D01*
X158330138Y-78944407D01*
X158385394Y-79005373D01*
X158434408Y-79071461D01*
X158476708Y-79142035D01*
X158511888Y-79216416D01*
X158539608Y-79293887D01*
X158559600Y-79373701D01*
X158571673Y-79455091D01*
X158575710Y-79537273D01*
X158571673Y-79619453D01*
X158559600Y-79700844D01*
X158539608Y-79780658D01*
X158511888Y-79858129D01*
X158476709Y-79932509D01*
X158434408Y-80003084D01*
X158385394Y-80069172D01*
X158330138Y-80130138D01*
X158269172Y-80185394D01*
X158203084Y-80234408D01*
X158132509Y-80276709D01*
X158058129Y-80311888D01*
X157980658Y-80339608D01*
X157900844Y-80359600D01*
X157819453Y-80371673D01*
X157737273Y-80375710D01*
X157655091Y-80371673D01*
X157573701Y-80359600D01*
X157493887Y-80339608D01*
X157416416Y-80311888D01*
X157342035Y-80276708D01*
X157271461Y-80234408D01*
X157205373Y-80185394D01*
X157144407Y-80130138D01*
X157102312Y-80088042D01*
X156738612Y-79724342D01*
X156214277Y-79200007D01*
X156155850Y-79141580D01*
X156799061Y-79141580D01*
X156807111Y-79246870D01*
X156834799Y-79344015D01*
X156882124Y-79433014D01*
X156949086Y-79513867D01*
X157029877Y-79580577D01*
X157118687Y-79627144D01*
X157215516Y-79653570D01*
X157320364Y-79659852D01*
X157425623Y-79646530D01*
X157523682Y-79614138D01*
X157614545Y-79562677D01*
X157698208Y-79492146D01*
X157768138Y-79408451D01*
X157817800Y-79317495D01*
X157847192Y-79219277D01*
X157856317Y-79113798D01*
X157846088Y-79008980D01*
X157817422Y-78912752D01*
X157770317Y-78825110D01*
X157704775Y-78746055D01*
X157629004Y-78684429D01*
X157541110Y-78638966D01*
X157445639Y-78610678D01*
X157347136Y-78600575D01*
X157246234Y-78610552D01*
X157143565Y-78642502D01*
X157044937Y-78695668D01*
X156956159Y-78769292D01*
X156888754Y-78850146D01*
X156840103Y-78939145D01*
X156810205Y-79036290D01*
X156799061Y-79141580D01*
X156155850Y-79141580D01*
X155926011Y-78911742D01*
X156390402Y-78911742D01*
X156436875Y-78977409D01*
X156495724Y-79022620D01*
X156542954Y-79028934D01*
X156578820Y-79012264D01*
X156615694Y-78978420D01*
X157177409Y-78416705D01*
X157224892Y-78359119D01*
X157225398Y-78303554D01*
X157178420Y-78237885D01*
X157119571Y-78192675D01*
X157072340Y-78186361D01*
X157035970Y-78203536D01*
X156999600Y-78236875D01*
X156437885Y-78798590D01*
X156392423Y-78856176D01*
X156390402Y-78911742D01*
X155926011Y-78911742D01*
X155778342Y-78764073D01*
X155093037Y-78078767D01*
X155570561Y-78078767D01*
X155608446Y-78146960D01*
X155687248Y-78179290D01*
X155723618Y-78175248D01*
X155749885Y-78167165D01*
X155770536Y-78156942D01*
X155826020Y-78129503D01*
X155916340Y-78084848D01*
X156041493Y-78022979D01*
X156201480Y-77943894D01*
X155971137Y-78410643D01*
X155967095Y-78472270D01*
X156001951Y-78540464D01*
X156070144Y-78575319D01*
X156123689Y-78575319D01*
X156147936Y-78565216D01*
X156902614Y-78198485D01*
X156964241Y-78161104D01*
X156983688Y-78107812D01*
X156961210Y-78028758D01*
X156923829Y-77971172D01*
X156879377Y-77947935D01*
X156838966Y-77950966D01*
X156791483Y-77972182D01*
X156340899Y-78200505D01*
X156575283Y-77733756D01*
X156579830Y-77672634D01*
X156548511Y-77607976D01*
X156499513Y-77573122D01*
X156445210Y-77564282D01*
X156389392Y-77580194D01*
X155946890Y-77802455D01*
X156173193Y-77353892D01*
X156199965Y-77281656D01*
X156179760Y-77229122D01*
X156116616Y-77186185D01*
X156038321Y-77162949D01*
X155985280Y-77182144D01*
X155946890Y-77242761D01*
X155581169Y-77998449D01*
X155573087Y-78020675D01*
X155570561Y-78078767D01*
X155093037Y-78078767D01*
X154780692Y-77766422D01*
X154511957Y-77497687D01*
X154469862Y-77455593D01*
X154414606Y-77394627D01*
X154365592Y-77328539D01*
X154335070Y-77277615D01*
X154861345Y-77277615D01*
X154874984Y-77354901D01*
X154914890Y-77452394D01*
X154949871Y-77504802D01*
X154993187Y-77553926D01*
X155059865Y-77608707D01*
X155135973Y-77649117D01*
X155221510Y-77675161D01*
X155292860Y-77680590D01*
X155367495Y-77666573D01*
X155441119Y-77632350D01*
X155509439Y-77577163D01*
X155563489Y-77510232D01*
X155594303Y-77440775D01*
X155603648Y-77373592D01*
X155593292Y-77313480D01*
X155569930Y-77256526D01*
X155540253Y-77198813D01*
X155507545Y-77144133D01*
X155475089Y-77096271D01*
X155434173Y-77008881D01*
X155453369Y-76938162D01*
X155518531Y-76916441D01*
X155588746Y-76955337D01*
X155629662Y-77022520D01*
X155632188Y-77051314D01*
X155633703Y-77073034D01*
X155666032Y-77145774D01*
X155714526Y-77169011D01*
X155787266Y-77165980D01*
X155867078Y-77134661D01*
X155885262Y-77053839D01*
X155879202Y-77009386D01*
X155841821Y-76908358D01*
X155800904Y-76843954D01*
X155746855Y-76782073D01*
X155668726Y-76718650D01*
X155586557Y-76680597D01*
X155500347Y-76667912D01*
X155416943Y-76677791D01*
X155343192Y-76707425D01*
X155279096Y-76756816D01*
X155225551Y-76823243D01*
X155194232Y-76893204D01*
X155183371Y-76961903D01*
X155191202Y-77024540D01*
X155211281Y-77084274D01*
X155237169Y-77144258D01*
X155266593Y-77200708D01*
X155297280Y-77249833D01*
X155338702Y-77336717D01*
X155325569Y-77401375D01*
X155272473Y-77433591D01*
X155215561Y-77427866D01*
X155154832Y-77384200D01*
X155121997Y-77320047D01*
X155114420Y-77246802D01*
X155107349Y-77163959D01*
X155086132Y-77117486D01*
X155008341Y-77088188D01*
X154937495Y-77093871D01*
X154896705Y-77112939D01*
X154864881Y-77197299D01*
X154862861Y-77217504D01*
X154861345Y-77277615D01*
X154335070Y-77277615D01*
X154323292Y-77257965D01*
X154288112Y-77183584D01*
X154260392Y-77106113D01*
X154240400Y-77026299D01*
X154228327Y-76944909D01*
X154224290Y-76862727D01*
X154228327Y-76780547D01*
X154240400Y-76699156D01*
X154260392Y-76619342D01*
X154288112Y-76541871D01*
X154323291Y-76467491D01*
X154365592Y-76396916D01*
X154414606Y-76330828D01*
X154469862Y-76269862D01*
X154530828Y-76214606D01*
X154596916Y-76165592D01*
X154667491Y-76123291D01*
X154741871Y-76088112D01*
X154819342Y-76060392D01*
X154899156Y-76040400D01*
X154980547Y-76028327D01*
X155062727Y-76024290D01*
X155144909Y-76028327D01*
G37*
D12*
%TO.C,J3*%
X163130000Y-83530000D02*
X163130000Y-80870000D01*
X157990000Y-83530000D02*
X163130000Y-83530000D01*
X156720000Y-83530000D02*
X155390000Y-83530000D01*
X157990000Y-80870000D02*
X163130000Y-80870000D01*
X155390000Y-83530000D02*
X155390000Y-82200000D01*
X157990000Y-83530000D02*
X157990000Y-80870000D01*
%TO.C,kibuzzard-65C27CFD*%
G36*
X167289775Y-64680178D02*
G01*
X167399537Y-64685570D01*
X167508242Y-64701695D01*
X167614842Y-64728397D01*
X167718313Y-64765419D01*
X167817656Y-64812405D01*
X167911915Y-64868902D01*
X168000183Y-64934366D01*
X168081609Y-65008166D01*
X168155409Y-65089592D01*
X168220873Y-65177860D01*
X168277370Y-65272119D01*
X168324356Y-65371463D01*
X168361378Y-65474933D01*
X168388080Y-65581533D01*
X168404205Y-65690238D01*
X168409597Y-65800000D01*
X168404205Y-65909762D01*
X168388080Y-66018467D01*
X168361378Y-66125067D01*
X168324356Y-66228537D01*
X168277370Y-66327881D01*
X168220873Y-66422140D01*
X168155409Y-66510408D01*
X168081609Y-66591834D01*
X168000183Y-66665634D01*
X167911915Y-66731098D01*
X167817656Y-66787595D01*
X167718313Y-66834581D01*
X167614842Y-66871603D01*
X167508242Y-66898305D01*
X167399537Y-66914430D01*
X167289775Y-66919822D01*
X167289775Y-66919823D01*
X167210400Y-66919823D01*
X166772250Y-66919823D01*
X165471135Y-66919823D01*
X164222408Y-66919823D01*
X162468855Y-66919823D01*
X161316330Y-66919823D01*
X160158090Y-66919823D01*
X158841735Y-66919823D01*
X157885425Y-66919823D01*
X156342375Y-66919823D01*
X155521320Y-66919823D01*
X153918263Y-66919823D01*
X153189600Y-66919823D01*
X153110225Y-66919823D01*
X153110225Y-66919822D01*
X153000463Y-66914430D01*
X152891759Y-66898305D01*
X152785158Y-66871603D01*
X152681688Y-66834581D01*
X152582344Y-66787595D01*
X152488085Y-66731098D01*
X152399817Y-66665634D01*
X152318391Y-66591834D01*
X152244591Y-66510408D01*
X152179127Y-66422140D01*
X152122630Y-66327881D01*
X152075644Y-66228538D01*
X152038622Y-66125067D01*
X152011920Y-66018467D01*
X151995795Y-65909762D01*
X151990403Y-65800000D01*
X151990824Y-65791427D01*
X153189600Y-65791427D01*
X153202221Y-65934541D01*
X153240083Y-66066700D01*
X153297471Y-66181953D01*
X153368670Y-66274345D01*
X153451776Y-66349116D01*
X153544883Y-66411505D01*
X153641561Y-66459606D01*
X153735383Y-66491515D01*
X153827299Y-66509374D01*
X153918263Y-66515327D01*
X154010417Y-66507707D01*
X154105905Y-66484848D01*
X154234493Y-66435318D01*
X154300215Y-66395313D01*
X154360223Y-66347688D01*
X154369040Y-66324828D01*
X154511670Y-66324828D01*
X154523100Y-66423888D01*
X154573583Y-66476751D01*
X154679310Y-66494373D01*
X154777418Y-66481514D01*
X154827900Y-66442937D01*
X154845998Y-66392455D01*
X154848855Y-66326733D01*
X154848855Y-65938113D01*
X155353680Y-65938113D01*
X155353680Y-66324828D01*
X155365110Y-66423888D01*
X155415593Y-66476751D01*
X155521320Y-66494373D01*
X155619428Y-66481514D01*
X155669910Y-66442937D01*
X155688008Y-66392455D01*
X155690865Y-66326733D01*
X155690865Y-66080988D01*
X155814690Y-66080988D01*
X155835645Y-66183858D01*
X155839455Y-66202907D01*
X155860410Y-66252438D01*
X155907559Y-66328161D01*
X155961375Y-66387693D01*
X156071442Y-66461776D01*
X156198442Y-66506226D01*
X156342375Y-66521043D01*
X156487367Y-66506332D01*
X156615002Y-66462199D01*
X156725280Y-66388645D01*
X156778092Y-66328637D01*
X156972930Y-66328637D01*
X157022460Y-66448653D01*
X157140570Y-66500087D01*
X157885425Y-66500087D01*
X158003535Y-66477228D01*
X158044493Y-66427698D01*
X158056875Y-66331495D01*
X158045445Y-66234340D01*
X158000678Y-66179095D01*
X157889235Y-66160998D01*
X157540620Y-66160998D01*
X157540620Y-66151472D01*
X157588245Y-66132423D01*
X157706355Y-66068129D01*
X157839705Y-65962878D01*
X157901618Y-65894298D01*
X157954005Y-65806667D01*
X157989724Y-65706655D01*
X158001630Y-65600928D01*
X157985755Y-65470012D01*
X157938130Y-65349044D01*
X157862160Y-65242787D01*
X158114025Y-65242787D01*
X158142600Y-65334227D01*
X158668380Y-66401028D01*
X158732198Y-66468655D01*
X158822685Y-66494373D01*
X158841735Y-66494373D01*
X158930318Y-66468655D01*
X158994135Y-66401028D01*
X159290825Y-65799047D01*
X159624690Y-65799047D01*
X159630828Y-65932609D01*
X159649243Y-66056434D01*
X159679935Y-66170523D01*
X159721131Y-66266249D01*
X159772328Y-66347688D01*
X159839479Y-66416029D01*
X159928538Y-66472465D01*
X160035932Y-66510327D01*
X160158090Y-66522948D01*
X160279772Y-66510565D01*
X160385738Y-66473418D01*
X160473129Y-66417220D01*
X160539090Y-66347688D01*
X160604098Y-66237793D01*
X160650533Y-66110039D01*
X160678393Y-65964425D01*
X160687680Y-65800953D01*
X160687584Y-65799047D01*
X160782930Y-65799047D01*
X160789068Y-65932609D01*
X160807483Y-66056434D01*
X160838175Y-66170523D01*
X160879371Y-66266249D01*
X160930568Y-66347688D01*
X160997719Y-66416029D01*
X161086778Y-66472465D01*
X161194172Y-66510327D01*
X161316330Y-66522948D01*
X161438012Y-66510565D01*
X161543978Y-66473418D01*
X161631369Y-66417220D01*
X161697330Y-66347688D01*
X161762338Y-66237793D01*
X161808773Y-66110039D01*
X161814331Y-66080988D01*
X161941170Y-66080988D01*
X161962125Y-66183858D01*
X161965935Y-66202907D01*
X161986890Y-66252438D01*
X162034039Y-66328161D01*
X162087855Y-66387693D01*
X162197922Y-66461776D01*
X162324922Y-66506226D01*
X162468855Y-66521043D01*
X162613847Y-66506332D01*
X162741482Y-66462199D01*
X162851760Y-66388645D01*
X162936427Y-66292442D01*
X162987227Y-66180365D01*
X163004160Y-66052413D01*
X162988444Y-65955258D01*
X162941295Y-65869532D01*
X162913600Y-65840958D01*
X163609950Y-65840958D01*
X163619594Y-65965259D01*
X163648526Y-66082893D01*
X163696747Y-66193859D01*
X163764255Y-66298158D01*
X163849742Y-66387692D01*
X163957613Y-66458178D01*
X164083343Y-66503898D01*
X164222408Y-66519138D01*
X164361711Y-66504136D01*
X164488155Y-66459130D01*
X164597216Y-66389836D01*
X164684370Y-66301968D01*
X164752712Y-66196240D01*
X164755215Y-66190525D01*
X164964405Y-66190525D01*
X165013935Y-66300062D01*
X165031080Y-66321018D01*
X165086325Y-66379120D01*
X165172050Y-66439128D01*
X165301590Y-66493420D01*
X165383981Y-66509851D01*
X165471135Y-66515327D01*
X165585647Y-66504109D01*
X165695502Y-66470454D01*
X165800700Y-66414363D01*
X165873090Y-66352212D01*
X165893117Y-66322922D01*
X166103595Y-66322922D01*
X166115025Y-66421983D01*
X166165508Y-66476275D01*
X166271235Y-66494373D01*
X166772250Y-66494373D01*
X166886868Y-66480085D01*
X166989420Y-66437223D01*
X167079908Y-66365785D01*
X167150710Y-66273181D01*
X167194208Y-66166818D01*
X167210400Y-66046697D01*
X167197912Y-65939806D01*
X167160447Y-65840111D01*
X167098005Y-65747612D01*
X167152298Y-65637599D01*
X167170395Y-65517107D01*
X167156637Y-65407041D01*
X167115362Y-65307981D01*
X167046570Y-65219927D01*
X166961480Y-65152194D01*
X166863690Y-65111554D01*
X166753200Y-65098008D01*
X166273140Y-65098008D01*
X166175033Y-65110866D01*
X166124550Y-65149442D01*
X166106453Y-65198972D01*
X166103595Y-65265647D01*
X166103595Y-66322922D01*
X165893117Y-66322922D01*
X165930240Y-66268630D01*
X165967388Y-66166951D01*
X165979770Y-66050508D01*
X165967626Y-65936446D01*
X165931193Y-65841910D01*
X165876662Y-65769758D01*
X165810225Y-65722848D01*
X165734501Y-65691177D01*
X165652110Y-65664745D01*
X165569719Y-65644028D01*
X165493995Y-65629503D01*
X165373028Y-65585688D01*
X165324450Y-65500915D01*
X165365408Y-65419000D01*
X165468278Y-65389472D01*
X165570195Y-65414238D01*
X165599723Y-65439002D01*
X165621630Y-65458052D01*
X165720690Y-65496153D01*
X165788318Y-65472340D01*
X165854040Y-65400902D01*
X165899760Y-65296127D01*
X165840705Y-65202782D01*
X165793080Y-65166588D01*
X165662588Y-65106580D01*
X165563289Y-65084434D01*
X165453990Y-65077052D01*
X165320534Y-65090917D01*
X165207187Y-65132509D01*
X165113948Y-65201830D01*
X165044627Y-65289777D01*
X165003034Y-65387250D01*
X164989170Y-65494247D01*
X165001314Y-65607357D01*
X165037748Y-65702845D01*
X165092278Y-65777854D01*
X165158715Y-65829527D01*
X165233963Y-65866913D01*
X165314925Y-65899060D01*
X165395888Y-65924539D01*
X165471135Y-65941922D01*
X165592103Y-65984785D01*
X165640680Y-66058128D01*
X165620995Y-66138561D01*
X165561940Y-66186821D01*
X165463515Y-66202907D01*
X165372075Y-66173380D01*
X165295875Y-66111468D01*
X165211103Y-66040030D01*
X165147285Y-66016217D01*
X165046320Y-66061937D01*
X164984884Y-66134089D01*
X164964405Y-66190525D01*
X164755215Y-66190525D01*
X164801528Y-66084798D01*
X164830817Y-65967640D01*
X164840580Y-65844768D01*
X164840580Y-65269458D01*
X164829150Y-65170397D01*
X164804385Y-65130392D01*
X164754855Y-65107533D01*
X164668178Y-65098008D01*
X164577690Y-65109437D01*
X164522445Y-65151347D01*
X164503395Y-65256122D01*
X164503395Y-65839053D01*
X164486250Y-65966211D01*
X164434815Y-66077177D01*
X164348614Y-66154330D01*
X164227170Y-66180047D01*
X164091915Y-66147663D01*
X164006190Y-66061937D01*
X163963328Y-65954305D01*
X163949040Y-65840958D01*
X163949040Y-65269458D01*
X163926180Y-65149442D01*
X163876650Y-65109437D01*
X163779495Y-65098008D01*
X163682340Y-65109437D01*
X163630905Y-65149442D01*
X163612808Y-65199925D01*
X163609950Y-65267552D01*
X163609950Y-65840958D01*
X162913600Y-65840958D01*
X162881288Y-65807620D01*
X162825090Y-65766663D01*
X162825090Y-65753328D01*
X162907640Y-65693532D01*
X162957170Y-65613204D01*
X162973680Y-65512345D01*
X162958652Y-65404924D01*
X162913567Y-65304912D01*
X162838425Y-65212307D01*
X162737248Y-65138224D01*
X162614058Y-65093774D01*
X162468855Y-65078957D01*
X162374319Y-65085625D01*
X162288833Y-65105627D01*
X162163103Y-65164682D01*
X162084045Y-65239930D01*
X162042135Y-65299937D01*
X161998320Y-65429478D01*
X162022133Y-65497581D01*
X162093570Y-65557112D01*
X162198345Y-65591402D01*
X162270735Y-65567590D01*
X162324075Y-65496153D01*
X162335505Y-65473292D01*
X162385035Y-65427572D01*
X162492668Y-65404712D01*
X162598395Y-65440907D01*
X162636495Y-65517107D01*
X162600300Y-65572829D01*
X162491715Y-65591402D01*
X162392655Y-65600928D01*
X162339791Y-65652839D01*
X162322170Y-65759042D01*
X162335029Y-65856674D01*
X162373605Y-65905727D01*
X162423135Y-65924778D01*
X162509813Y-65928587D01*
X162620303Y-65967640D01*
X162666975Y-66058128D01*
X162619350Y-66150520D01*
X162558390Y-66181238D01*
X162470760Y-66191478D01*
X162390750Y-66180047D01*
X162285975Y-66088608D01*
X162228825Y-65989548D01*
X162127860Y-65970497D01*
X161987843Y-65998120D01*
X161941170Y-66080988D01*
X161814331Y-66080988D01*
X161836633Y-65964425D01*
X161845920Y-65800953D01*
X161839570Y-65675011D01*
X161820520Y-65553726D01*
X161788770Y-65437098D01*
X161749003Y-65340895D01*
X161698283Y-65258027D01*
X161631608Y-65188019D01*
X161543978Y-65130392D01*
X161437536Y-65091816D01*
X161314425Y-65078957D01*
X161190838Y-65092054D01*
X161082968Y-65131345D01*
X160994147Y-65189924D01*
X160927710Y-65260885D01*
X160875084Y-65352563D01*
X160827698Y-65473292D01*
X160802827Y-65569601D01*
X160787904Y-65678186D01*
X160782930Y-65799047D01*
X160687584Y-65799047D01*
X160681330Y-65675011D01*
X160662280Y-65553726D01*
X160630530Y-65437098D01*
X160590763Y-65340895D01*
X160540043Y-65258027D01*
X160473368Y-65188019D01*
X160385738Y-65130392D01*
X160279296Y-65091816D01*
X160156185Y-65078957D01*
X160032598Y-65092054D01*
X159924728Y-65131345D01*
X159835907Y-65189924D01*
X159769470Y-65260885D01*
X159716844Y-65352563D01*
X159669458Y-65473292D01*
X159644587Y-65569601D01*
X159629664Y-65678186D01*
X159624690Y-65799047D01*
X159290825Y-65799047D01*
X159519915Y-65334227D01*
X159548490Y-65242787D01*
X159520391Y-65178970D01*
X159436095Y-65120868D01*
X159323700Y-65088482D01*
X159239880Y-65139917D01*
X159213210Y-65197067D01*
X158832210Y-66031457D01*
X158811493Y-65987404D01*
X158764583Y-65885725D01*
X158702670Y-65751184D01*
X158636948Y-65608547D01*
X158571463Y-65465911D01*
X158510265Y-65331370D01*
X158462402Y-65226595D01*
X158436923Y-65173255D01*
X158405490Y-65122772D01*
X158373105Y-65096102D01*
X158322623Y-65088482D01*
X158226420Y-65120868D01*
X158142124Y-65178970D01*
X158114025Y-65242787D01*
X157862160Y-65242787D01*
X157858755Y-65238025D01*
X157753874Y-65149654D01*
X157629732Y-65096632D01*
X157486328Y-65078957D01*
X157343029Y-65096420D01*
X157219204Y-65148807D01*
X157114853Y-65236120D01*
X157036007Y-65345446D01*
X156988699Y-65463873D01*
X156972930Y-65591402D01*
X156982455Y-65688557D01*
X157034366Y-65742850D01*
X157140570Y-65760948D01*
X157237725Y-65749518D01*
X157289160Y-65715228D01*
X157307258Y-65667603D01*
X157310115Y-65604737D01*
X157310115Y-65593308D01*
X157317735Y-65549492D01*
X157368218Y-65460910D01*
X157473945Y-65416142D01*
X157569195Y-65433288D01*
X157619678Y-65470435D01*
X157649205Y-65521870D01*
X157662540Y-65570448D01*
X157644681Y-65653791D01*
X157591103Y-65732372D01*
X157512283Y-65804524D01*
X157418700Y-65868580D01*
X157317735Y-65929064D01*
X157216770Y-65990500D01*
X157123187Y-66058604D01*
X157044368Y-66139090D01*
X156990789Y-66229816D01*
X156972930Y-66328637D01*
X156778092Y-66328637D01*
X156809947Y-66292442D01*
X156860747Y-66180365D01*
X156877680Y-66052413D01*
X156861964Y-65955258D01*
X156814815Y-65869532D01*
X156754808Y-65807620D01*
X156698610Y-65766663D01*
X156698610Y-65753328D01*
X156781160Y-65693532D01*
X156830690Y-65613204D01*
X156847200Y-65512345D01*
X156832172Y-65404924D01*
X156787087Y-65304912D01*
X156711945Y-65212307D01*
X156610768Y-65138224D01*
X156487578Y-65093774D01*
X156342375Y-65078957D01*
X156247839Y-65085625D01*
X156162353Y-65105627D01*
X156036623Y-65164682D01*
X155957565Y-65239930D01*
X155915655Y-65299937D01*
X155871840Y-65429478D01*
X155895653Y-65497581D01*
X155967090Y-65557112D01*
X156071865Y-65591402D01*
X156144255Y-65567590D01*
X156197595Y-65496153D01*
X156209025Y-65473292D01*
X156258555Y-65427572D01*
X156366188Y-65404712D01*
X156471915Y-65440907D01*
X156510015Y-65517107D01*
X156473820Y-65572829D01*
X156365235Y-65591402D01*
X156266175Y-65600928D01*
X156213311Y-65652839D01*
X156195690Y-65759042D01*
X156208549Y-65856674D01*
X156247125Y-65905727D01*
X156296655Y-65924778D01*
X156383333Y-65928587D01*
X156493823Y-65967640D01*
X156540495Y-66058128D01*
X156492870Y-66150520D01*
X156431910Y-66181238D01*
X156344280Y-66191478D01*
X156264270Y-66180047D01*
X156159495Y-66088608D01*
X156102345Y-65989548D01*
X156001380Y-65970497D01*
X155861363Y-65998120D01*
X155814690Y-66080988D01*
X155690865Y-66080988D01*
X155690865Y-65269458D01*
X155681340Y-65170397D01*
X155654670Y-65132297D01*
X155605140Y-65109437D01*
X155517510Y-65099913D01*
X155426070Y-65111342D01*
X155374635Y-65151347D01*
X155356538Y-65201830D01*
X155353680Y-65267552D01*
X155353680Y-65658077D01*
X154848855Y-65658077D01*
X154848855Y-65269458D01*
X154839330Y-65170397D01*
X154787419Y-65117534D01*
X154681215Y-65099913D01*
X154583108Y-65112771D01*
X154532625Y-65151347D01*
X154514528Y-65201830D01*
X154511670Y-65267552D01*
X154511670Y-66324828D01*
X154369040Y-66324828D01*
X154385940Y-66281013D01*
X154344030Y-66174332D01*
X154277831Y-66094323D01*
X154216395Y-66067653D01*
X154124955Y-66105752D01*
X154090665Y-66130517D01*
X154015418Y-66160998D01*
X153903975Y-66176238D01*
X153780626Y-66155283D01*
X153662040Y-66092417D01*
X153564885Y-65972402D01*
X153536310Y-65891202D01*
X153526785Y-65800000D01*
X153536310Y-65708798D01*
X153564885Y-65627597D01*
X153660135Y-65509487D01*
X153781103Y-65445194D01*
X153903975Y-65423762D01*
X154023990Y-65439955D01*
X154117335Y-65488533D01*
X154214490Y-65530442D01*
X154277355Y-65504725D01*
X154347840Y-65427572D01*
X154387845Y-65321845D01*
X154338315Y-65231358D01*
X154284975Y-65197067D01*
X154239255Y-65170397D01*
X154099238Y-65114200D01*
X154007559Y-65093483D01*
X153917310Y-65086577D01*
X153791792Y-65098007D01*
X153666697Y-65132297D01*
X153542025Y-65189448D01*
X153448442Y-65249217D01*
X153365813Y-65321845D01*
X153295566Y-65411380D01*
X153239130Y-65521870D01*
X153201983Y-65649743D01*
X153189600Y-65791427D01*
X151990824Y-65791427D01*
X151995795Y-65690238D01*
X152011920Y-65581533D01*
X152038622Y-65474933D01*
X152075644Y-65371462D01*
X152122630Y-65272119D01*
X152179127Y-65177860D01*
X152244591Y-65089592D01*
X152318391Y-65008166D01*
X152399817Y-64934366D01*
X152488085Y-64868902D01*
X152582344Y-64812405D01*
X152681688Y-64765419D01*
X152785158Y-64728397D01*
X152891759Y-64701695D01*
X153000463Y-64685570D01*
X153110225Y-64680178D01*
X153110225Y-64680177D01*
X153189600Y-64680177D01*
X167210400Y-64680177D01*
X167289775Y-64680177D01*
X167289775Y-64680178D01*
G37*
G36*
X160241196Y-65440074D02*
G01*
X160301918Y-65511869D01*
X160338351Y-65631527D01*
X160350495Y-65799047D01*
X160350495Y-65810477D01*
X160338232Y-65973831D01*
X160301441Y-66090512D01*
X160240124Y-66160521D01*
X160154280Y-66183858D01*
X160070103Y-66159866D01*
X160009976Y-66087893D01*
X159973900Y-65967938D01*
X159961875Y-65800000D01*
X159974019Y-65632062D01*
X160010453Y-65512107D01*
X160071174Y-65440134D01*
X160156185Y-65416142D01*
X160241196Y-65440074D01*
G37*
G36*
X161399436Y-65440074D02*
G01*
X161460158Y-65511869D01*
X161496591Y-65631527D01*
X161508735Y-65799047D01*
X161508735Y-65810477D01*
X161496472Y-65973831D01*
X161459681Y-66090512D01*
X161398364Y-66160521D01*
X161312520Y-66183858D01*
X161228343Y-66159866D01*
X161168216Y-66087893D01*
X161132140Y-65967938D01*
X161120115Y-65800000D01*
X161132259Y-65632062D01*
X161168693Y-65512107D01*
X161229414Y-65440134D01*
X161314425Y-65416142D01*
X161399436Y-65440074D01*
G37*
G36*
X166801778Y-65454242D02*
G01*
X166833210Y-65520917D01*
X166827495Y-65589498D01*
X166736055Y-65629503D01*
X166618898Y-65656173D01*
X166583655Y-65765710D01*
X166617945Y-65875248D01*
X166720815Y-65901918D01*
X166827495Y-65917158D01*
X166862738Y-65955258D01*
X166873215Y-66027648D01*
X166843211Y-66124803D01*
X166753200Y-66157188D01*
X166440780Y-66157188D01*
X166440780Y-65435192D01*
X166707480Y-65435192D01*
X166801778Y-65454242D01*
G37*
%TO.C,kibuzzard-65C27CA6*%
G36*
X168849033Y-79972709D02*
G01*
X168929729Y-79984679D01*
X169008864Y-80004501D01*
X169085674Y-80031984D01*
X169159421Y-80066864D01*
X169229394Y-80108804D01*
X169294919Y-80157401D01*
X169355366Y-80212186D01*
X169410151Y-80272632D01*
X169458748Y-80338158D01*
X169500688Y-80408131D01*
X169535568Y-80481877D01*
X169563051Y-80558688D01*
X169582873Y-80637823D01*
X169594843Y-80718519D01*
X169598846Y-80800000D01*
X169594843Y-80881481D01*
X169582873Y-80962177D01*
X169563051Y-81041312D01*
X169535568Y-81118123D01*
X169500688Y-81191869D01*
X169458748Y-81261842D01*
X169410151Y-81327368D01*
X169355366Y-81387814D01*
X169294919Y-81442599D01*
X169229394Y-81491196D01*
X169159421Y-81533136D01*
X169085674Y-81568016D01*
X169008864Y-81595499D01*
X168929729Y-81615321D01*
X168849033Y-81627291D01*
X168767552Y-81631294D01*
X168708021Y-81631294D01*
X168353691Y-81631294D01*
X167382141Y-81631294D01*
X166217709Y-81631294D01*
X166091979Y-81631294D01*
X166032448Y-81631294D01*
X165950967Y-81627291D01*
X165870271Y-81615321D01*
X165791136Y-81595499D01*
X165714326Y-81568016D01*
X165640579Y-81533136D01*
X165570606Y-81491196D01*
X165505081Y-81442599D01*
X165444634Y-81387814D01*
X165389849Y-81327368D01*
X165341252Y-81261842D01*
X165299312Y-81191869D01*
X165296762Y-81186477D01*
X166091979Y-81186477D01*
X166100552Y-81260772D01*
X166138414Y-81300420D01*
X166217709Y-81313636D01*
X166291290Y-81303992D01*
X166329152Y-81275059D01*
X166342725Y-81237197D01*
X166344868Y-81187906D01*
X166344868Y-81186477D01*
X166994949Y-81186477D01*
X167012094Y-81277917D01*
X167049956Y-81304706D01*
X167120679Y-81313636D01*
X167382141Y-81313636D01*
X167487377Y-81303902D01*
X167584487Y-81274702D01*
X167673472Y-81226035D01*
X167754330Y-81157902D01*
X167821526Y-81076151D01*
X167869523Y-80986630D01*
X167893259Y-80906442D01*
X167979358Y-80906442D01*
X167989836Y-81024472D01*
X168021268Y-81127104D01*
X168073656Y-81214337D01*
X168146681Y-81280616D01*
X168240026Y-81320383D01*
X168353691Y-81333638D01*
X168446956Y-81322843D01*
X168530538Y-81290458D01*
X168604436Y-81236483D01*
X168661983Y-81166474D01*
X168696511Y-81085988D01*
X168708021Y-80995024D01*
X168696829Y-80919539D01*
X168663253Y-80849292D01*
X168607294Y-80784284D01*
X168535618Y-80732293D01*
X168454894Y-80701099D01*
X168365121Y-80690701D01*
X168259393Y-80714989D01*
X168266537Y-80694987D01*
X168292969Y-80644981D01*
X168343689Y-80589259D01*
X168430129Y-80540682D01*
X168543714Y-80520679D01*
X168626582Y-80512107D01*
X168655157Y-80493533D01*
X168672302Y-80456386D01*
X168679446Y-80390663D01*
X168670873Y-80322083D01*
X168637298Y-80281364D01*
X168558002Y-80267791D01*
X168455103Y-80275106D01*
X168361292Y-80297051D01*
X168276567Y-80333627D01*
X168200929Y-80384834D01*
X168134377Y-80450671D01*
X168078571Y-80527423D01*
X168035165Y-80611376D01*
X168004161Y-80702531D01*
X167985559Y-80800886D01*
X167979358Y-80906442D01*
X167893259Y-80906442D01*
X167898321Y-80889342D01*
X167907921Y-80784284D01*
X167898098Y-80679628D01*
X167868630Y-80583544D01*
X167819517Y-80496033D01*
X167750758Y-80417095D01*
X167669051Y-80351774D01*
X167581094Y-80305117D01*
X167486886Y-80277122D01*
X167386427Y-80267791D01*
X167122108Y-80266362D01*
X167048527Y-80276006D01*
X167010666Y-80304938D01*
X166997092Y-80342086D01*
X166994949Y-80392092D01*
X166994949Y-81186477D01*
X166344868Y-81186477D01*
X166344868Y-81026457D01*
X166523462Y-81026457D01*
X166607282Y-81016297D01*
X166689197Y-80985817D01*
X166769207Y-80935017D01*
X166822428Y-80883046D01*
X166864933Y-80815716D01*
X166892794Y-80736242D01*
X166902081Y-80647838D01*
X166892794Y-80559256D01*
X166864933Y-80479246D01*
X166822428Y-80411380D01*
X166769207Y-80359231D01*
X166689356Y-80308431D01*
X166607917Y-80277951D01*
X166524891Y-80267791D01*
X166219138Y-80267791D01*
X166145557Y-80277435D01*
X166107696Y-80306367D01*
X166094122Y-80344229D01*
X166091979Y-80393521D01*
X166091979Y-81186477D01*
X165296762Y-81186477D01*
X165264432Y-81118123D01*
X165236949Y-81041312D01*
X165217127Y-80962177D01*
X165205157Y-80881481D01*
X165201154Y-80800000D01*
X165205157Y-80718519D01*
X165217127Y-80637823D01*
X165236949Y-80558688D01*
X165264432Y-80481877D01*
X165299312Y-80408131D01*
X165341252Y-80338158D01*
X165389849Y-80272632D01*
X165444634Y-80212186D01*
X165505081Y-80157401D01*
X165570606Y-80108804D01*
X165640579Y-80066864D01*
X165714326Y-80031984D01*
X165791136Y-80004501D01*
X165870271Y-79984679D01*
X165950967Y-79972709D01*
X166032448Y-79968706D01*
X166091979Y-79968706D01*
X168708021Y-79968706D01*
X168767552Y-79968706D01*
X168849033Y-79972709D01*
G37*
G36*
X167486618Y-80540146D02*
G01*
X167574307Y-80598546D01*
X167634851Y-80685879D01*
X167655032Y-80792142D01*
X167634315Y-80898048D01*
X167572164Y-80984309D01*
X167484296Y-81041637D01*
X167386427Y-81060747D01*
X167247838Y-81060747D01*
X167247838Y-80520679D01*
X167384998Y-80520679D01*
X167486618Y-80540146D01*
G37*
G36*
X166609187Y-80552826D02*
G01*
X166650621Y-80647838D01*
X166609187Y-80742136D01*
X166524891Y-80773568D01*
X166344868Y-80773568D01*
X166344868Y-80520679D01*
X166523462Y-80520679D01*
X166609187Y-80552826D01*
G37*
G36*
X168432986Y-80942161D02*
G01*
X168457989Y-81003597D01*
X168430486Y-81075392D01*
X168347976Y-81099323D01*
X168256536Y-81066462D01*
X168242962Y-81035029D01*
X168239391Y-80993596D01*
X168268680Y-80940017D01*
X168352976Y-80913586D01*
X168432986Y-80942161D01*
G37*
%TO.C,kibuzzard-65C27C9E*%
G36*
X168845405Y-81980529D02*
G01*
X168925339Y-81992386D01*
X169003725Y-82012021D01*
X169079810Y-82039244D01*
X169152860Y-82073794D01*
X169222171Y-82115338D01*
X169287077Y-82163475D01*
X169346952Y-82217743D01*
X169401219Y-82277618D01*
X169449357Y-82342523D01*
X169490900Y-82411835D01*
X169525450Y-82484885D01*
X169552674Y-82560969D01*
X169572309Y-82639356D01*
X169584166Y-82719289D01*
X169588131Y-82800000D01*
X169584166Y-82880711D01*
X169572309Y-82960644D01*
X169552674Y-83039031D01*
X169525450Y-83115115D01*
X169490900Y-83188165D01*
X169449357Y-83257477D01*
X169401219Y-83322382D01*
X169346952Y-83382257D01*
X169287077Y-83436525D01*
X169222171Y-83484662D01*
X169152860Y-83526206D01*
X169079810Y-83560756D01*
X169003725Y-83587979D01*
X168925339Y-83607614D01*
X168845405Y-83619471D01*
X168764694Y-83623436D01*
X168705163Y-83623436D01*
X168255107Y-83623436D01*
X167707896Y-83623436D01*
X166220567Y-83623436D01*
X166094837Y-83623436D01*
X166035306Y-83623436D01*
X165954595Y-83619471D01*
X165874661Y-83607614D01*
X165796275Y-83587979D01*
X165720190Y-83560756D01*
X165647140Y-83526206D01*
X165577829Y-83484662D01*
X165512923Y-83436525D01*
X165453048Y-83382257D01*
X165398781Y-83322382D01*
X165350643Y-83257477D01*
X165311942Y-83192906D01*
X166094837Y-83192906D01*
X166103409Y-83267201D01*
X166141271Y-83306849D01*
X166220567Y-83320065D01*
X166294147Y-83310421D01*
X166332009Y-83281489D01*
X166345582Y-83243627D01*
X166347726Y-83194335D01*
X166347726Y-83032886D01*
X166526319Y-83032886D01*
X166610139Y-83022726D01*
X166692054Y-82992246D01*
X166772064Y-82941446D01*
X166825285Y-82889475D01*
X166867791Y-82822146D01*
X166895651Y-82742671D01*
X166903437Y-82668555D01*
X166962088Y-82668555D01*
X166976376Y-82724276D01*
X167192117Y-83250056D01*
X167232122Y-83300777D01*
X167306417Y-83325780D01*
X167384998Y-83291490D01*
X167407858Y-83261486D01*
X167420002Y-83237912D01*
X167430004Y-83212194D01*
X167465722Y-83115039D01*
X167490190Y-83048067D01*
X167507871Y-83002882D01*
X167549622Y-83114008D01*
X167577721Y-83188302D01*
X167592167Y-83225767D01*
X167603597Y-83250056D01*
X167644316Y-83300777D01*
X167707896Y-83325780D01*
X167762188Y-83315779D01*
X167805051Y-83280774D01*
X167829054Y-83235769D01*
X168130806Y-83235769D01*
X168156523Y-83297205D01*
X168255107Y-83321494D01*
X168327973Y-83312207D01*
X168366549Y-83284346D01*
X168380122Y-83246484D01*
X168382266Y-83197192D01*
X168382266Y-82897155D01*
X168415841Y-82831433D01*
X168487993Y-82804286D01*
X168550144Y-82815716D01*
X168599436Y-82827146D01*
X168678017Y-82772854D01*
X168705163Y-82672841D01*
X168687304Y-82606404D01*
X168642298Y-82577115D01*
X168592292Y-82564971D01*
X168535856Y-82561399D01*
X168457989Y-82585687D01*
X168400125Y-82624264D01*
X168379408Y-82648552D01*
X168363692Y-82601404D01*
X168326187Y-82576758D01*
X168256536Y-82568542D01*
X168182955Y-82578187D01*
X168145093Y-82607119D01*
X168132949Y-82643552D01*
X168130806Y-82692844D01*
X168130806Y-83194335D01*
X168130806Y-83235769D01*
X167829054Y-83235769D01*
X167833626Y-83227196D01*
X167990788Y-82844291D01*
X168029364Y-82750708D01*
X168052224Y-82672841D01*
X168029364Y-82618906D01*
X167960784Y-82574258D01*
X167903634Y-82559970D01*
X167843627Y-82582830D01*
X167800764Y-82651410D01*
X167713611Y-82888583D01*
X167698529Y-82850483D01*
X167670431Y-82774283D01*
X167629314Y-82659982D01*
X167617884Y-82635694D01*
X167575736Y-82589974D01*
X167502156Y-82567114D01*
X167417859Y-82608547D01*
X167386427Y-82658554D01*
X167302131Y-82890011D01*
X167256569Y-82766186D01*
X167222756Y-82676651D01*
X167200689Y-82621406D01*
X167189259Y-82596403D01*
X167164256Y-82572114D01*
X167117822Y-82559970D01*
X167043527Y-82578544D01*
X166982448Y-82617477D01*
X166962088Y-82668555D01*
X166903437Y-82668555D01*
X166904938Y-82654267D01*
X166895651Y-82565685D01*
X166867791Y-82485675D01*
X166825285Y-82417809D01*
X166772064Y-82365660D01*
X166692213Y-82314860D01*
X166610774Y-82284380D01*
X166527748Y-82274220D01*
X166221996Y-82274220D01*
X166148415Y-82283864D01*
X166110553Y-82312796D01*
X166096980Y-82350658D01*
X166094837Y-82399950D01*
X166094837Y-83192906D01*
X165311942Y-83192906D01*
X165309100Y-83188165D01*
X165274550Y-83115115D01*
X165247326Y-83039031D01*
X165227691Y-82960644D01*
X165215834Y-82880711D01*
X165211869Y-82800000D01*
X165215834Y-82719289D01*
X165227691Y-82639356D01*
X165247326Y-82560969D01*
X165274550Y-82484885D01*
X165309100Y-82411835D01*
X165350643Y-82342523D01*
X165398781Y-82277618D01*
X165453048Y-82217743D01*
X165512923Y-82163475D01*
X165577829Y-82115338D01*
X165647140Y-82073794D01*
X165720190Y-82039244D01*
X165796275Y-82012021D01*
X165874661Y-81992386D01*
X165954595Y-81980529D01*
X166035306Y-81976564D01*
X166094837Y-81976564D01*
X168705163Y-81976564D01*
X168764694Y-81976564D01*
X168845405Y-81980529D01*
G37*
G36*
X166612044Y-82559256D02*
G01*
X166653478Y-82654267D01*
X166612044Y-82748565D01*
X166527748Y-82779997D01*
X166347726Y-82779997D01*
X166347726Y-82527109D01*
X166526319Y-82527109D01*
X166612044Y-82559256D01*
G37*
%TO.C,kibuzzard-65C27C56*%
G36*
X173394560Y-77410337D02*
G01*
X173310555Y-77410337D01*
X173134388Y-77410337D01*
X172348159Y-77410337D01*
X171206956Y-77410337D01*
X169656822Y-77410337D01*
X169489445Y-77410337D01*
X169405440Y-77410337D01*
X169405440Y-76819131D01*
X169489445Y-76819131D01*
X169500858Y-76918035D01*
X169551261Y-76970815D01*
X169656822Y-76988409D01*
X169754775Y-76975570D01*
X169805178Y-76937055D01*
X169823247Y-76886652D01*
X169826100Y-76821033D01*
X169826100Y-76819131D01*
X170691512Y-76819131D01*
X170714337Y-76940859D01*
X170764740Y-76976521D01*
X170858889Y-76988409D01*
X171206956Y-76988409D01*
X171347050Y-76975452D01*
X171476327Y-76936579D01*
X171594786Y-76871792D01*
X171702428Y-76781090D01*
X171791882Y-76672260D01*
X171855777Y-76553088D01*
X171894114Y-76423573D01*
X171906893Y-76283716D01*
X171893817Y-76144394D01*
X171864549Y-76048962D01*
X171854588Y-76016485D01*
X171789207Y-75899987D01*
X171697673Y-75794901D01*
X171660796Y-75765420D01*
X171982974Y-75765420D01*
X171994386Y-75860520D01*
X172040034Y-75915678D01*
X172150350Y-75934698D01*
X172584007Y-75934698D01*
X172542163Y-76021240D01*
X172496039Y-76089236D01*
X172441357Y-76169596D01*
X172382395Y-76260179D01*
X172323433Y-76358845D01*
X172268750Y-76468448D01*
X172222626Y-76591841D01*
X172191243Y-76720464D01*
X172180782Y-76845759D01*
X172183635Y-76909476D01*
X172201704Y-76952271D01*
X172252107Y-76982703D01*
X172348159Y-76990311D01*
X172444210Y-76982703D01*
X172494613Y-76953222D01*
X172513633Y-76911378D01*
X172517437Y-76849563D01*
X172536034Y-76727412D01*
X172591827Y-76581591D01*
X172684813Y-76412102D01*
X172754950Y-76300359D01*
X172824611Y-76189567D01*
X172889041Y-76078537D01*
X172943486Y-75966081D01*
X172980575Y-75862184D01*
X172992938Y-75776832D01*
X172981526Y-75670320D01*
X172931123Y-75616113D01*
X172825562Y-75598044D01*
X172644953Y-75598044D01*
X172140840Y-75598044D01*
X172030524Y-75620868D01*
X171994386Y-75670320D01*
X171982974Y-75765420D01*
X171660796Y-75765420D01*
X171588902Y-75707944D01*
X171471810Y-75645831D01*
X171346396Y-75608564D01*
X171212662Y-75596142D01*
X170860791Y-75594240D01*
X170762838Y-75607078D01*
X170712435Y-75645594D01*
X170694365Y-75695046D01*
X170691512Y-75761616D01*
X170691512Y-76819131D01*
X169826100Y-76819131D01*
X169826100Y-76606106D01*
X170063851Y-76606106D01*
X170175435Y-76592581D01*
X170284483Y-76552005D01*
X170390996Y-76484378D01*
X170461845Y-76415192D01*
X170518430Y-76325560D01*
X170555519Y-76219761D01*
X170567882Y-76102075D01*
X170555519Y-75984151D01*
X170518430Y-75877638D01*
X170461845Y-75787293D01*
X170390996Y-75717870D01*
X170284695Y-75650243D01*
X170176281Y-75609667D01*
X170065753Y-75596142D01*
X169660317Y-75596142D01*
X169658724Y-75596142D01*
X169560771Y-75608980D01*
X169510368Y-75647496D01*
X169492299Y-75697899D01*
X169489445Y-75763518D01*
X169489445Y-76819131D01*
X169405440Y-76819131D01*
X169405440Y-74296517D01*
X169490538Y-74296517D01*
X169502113Y-74396841D01*
X169553240Y-74450379D01*
X169660317Y-74468225D01*
X169759676Y-74455203D01*
X169810802Y-74416134D01*
X169829131Y-74365008D01*
X169830599Y-74331245D01*
X170661626Y-74331245D01*
X170689601Y-74396841D01*
X170773526Y-74454720D01*
X170876744Y-74487519D01*
X170938482Y-74469190D01*
X170973209Y-74433498D01*
X171003114Y-74377548D01*
X171103438Y-74169183D01*
X171637855Y-74169183D01*
X171738179Y-74377548D01*
X171768084Y-74435427D01*
X171802811Y-74472084D01*
X171864549Y-74489448D01*
X171967767Y-74456650D01*
X172051692Y-74397323D01*
X172079667Y-74331245D01*
X172046868Y-74232850D01*
X171900246Y-73929830D01*
X171695859Y-73507431D01*
X172137546Y-73507431D01*
X172198319Y-73627048D01*
X172315042Y-73694574D01*
X172450093Y-73634765D01*
X172475174Y-73611613D01*
X172475174Y-74300376D01*
X172478068Y-74370795D01*
X172496397Y-74423851D01*
X172548006Y-74461473D01*
X172644953Y-74474013D01*
X172744312Y-74460991D01*
X172795439Y-74421922D01*
X172813768Y-74370795D01*
X172816661Y-74304234D01*
X172816661Y-73229611D01*
X172807015Y-73127358D01*
X172780005Y-73085878D01*
X172729843Y-73063691D01*
X172638201Y-73054044D01*
X172529195Y-73104206D01*
X172523407Y-73108065D01*
X172207001Y-73393602D01*
X172137546Y-73507431D01*
X171695859Y-73507431D01*
X171525956Y-73156297D01*
X171462289Y-73081054D01*
X171371611Y-73055973D01*
X171279969Y-73082984D01*
X171215337Y-73154368D01*
X170694425Y-74232850D01*
X170661626Y-74331245D01*
X169830599Y-74331245D01*
X169832025Y-74298446D01*
X169832025Y-74080435D01*
X170073188Y-74080435D01*
X170186374Y-74066715D01*
X170296988Y-74025557D01*
X170405029Y-73956959D01*
X170476895Y-73886781D01*
X170534292Y-73795862D01*
X170571914Y-73688545D01*
X170584454Y-73569169D01*
X170571914Y-73449552D01*
X170534292Y-73341511D01*
X170476895Y-73249869D01*
X170405029Y-73179449D01*
X170297202Y-73110851D01*
X170187231Y-73069693D01*
X170075117Y-73055973D01*
X169663913Y-73055973D01*
X169662246Y-73055973D01*
X169562887Y-73068996D01*
X169511760Y-73108065D01*
X169493432Y-73159191D01*
X169490538Y-73225752D01*
X169490538Y-74296517D01*
X169405440Y-74296517D01*
X169405440Y-71773832D01*
X169491661Y-71773832D01*
X169503406Y-71875617D01*
X169555277Y-71929935D01*
X169663913Y-71948041D01*
X169764719Y-71934829D01*
X169816590Y-71895191D01*
X169835186Y-71843320D01*
X169836675Y-71809065D01*
X170679805Y-71809065D01*
X170708187Y-71875617D01*
X170793334Y-71934339D01*
X170898055Y-71967615D01*
X170960692Y-71949020D01*
X170995926Y-71912808D01*
X171026265Y-71856043D01*
X171128050Y-71644644D01*
X171670251Y-71644644D01*
X171772036Y-71856043D01*
X171802376Y-71914765D01*
X171837609Y-71951956D01*
X171900246Y-71969573D01*
X172004967Y-71936297D01*
X172090114Y-71876107D01*
X172118496Y-71809065D01*
X172108057Y-71777747D01*
X172196792Y-71777747D01*
X172247685Y-71901063D01*
X172369044Y-71953913D01*
X173134388Y-71953913D01*
X173255747Y-71930424D01*
X173297831Y-71879532D01*
X173310555Y-71780683D01*
X173298810Y-71680856D01*
X173252811Y-71624091D01*
X173138303Y-71605496D01*
X172780098Y-71605496D01*
X172780098Y-71595709D01*
X172829033Y-71576135D01*
X172950392Y-71510072D01*
X173087411Y-71401926D01*
X173151026Y-71331459D01*
X173204855Y-71241419D01*
X173241556Y-71138655D01*
X173253790Y-71030019D01*
X173237478Y-70895502D01*
X173188543Y-70771207D01*
X173106985Y-70657134D01*
X172999219Y-70566332D01*
X172871661Y-70511851D01*
X172724312Y-70493691D01*
X172672933Y-70499952D01*
X172577072Y-70511634D01*
X172449841Y-70565462D01*
X172342619Y-70655176D01*
X172261604Y-70767510D01*
X172212995Y-70889195D01*
X172196792Y-71020232D01*
X172206579Y-71120060D01*
X172259918Y-71175846D01*
X172369044Y-71194441D01*
X172468871Y-71182697D01*
X172521721Y-71147463D01*
X172540316Y-71098528D01*
X172543253Y-71033934D01*
X172543253Y-71022190D01*
X172551082Y-70977169D01*
X172602953Y-70886150D01*
X172711589Y-70840151D01*
X172809459Y-70857768D01*
X172861331Y-70895937D01*
X172891670Y-70948787D01*
X172905372Y-70998701D01*
X172887021Y-71084337D01*
X172831969Y-71165080D01*
X172750982Y-71239217D01*
X172654825Y-71305034D01*
X172551082Y-71367182D01*
X172447340Y-71430308D01*
X172351182Y-71500285D01*
X172270195Y-71582985D01*
X172215143Y-71676207D01*
X172196792Y-71777747D01*
X172108057Y-71777747D01*
X172085220Y-71709238D01*
X171556721Y-70617007D01*
X171492127Y-70540668D01*
X171400129Y-70515222D01*
X171307153Y-70542626D01*
X171286475Y-70565464D01*
X171241580Y-70615050D01*
X170713081Y-71709238D01*
X170679805Y-71809065D01*
X169836675Y-71809065D01*
X169838122Y-71775790D01*
X169838122Y-71554603D01*
X170082797Y-71554603D01*
X170197631Y-71540684D01*
X170309856Y-71498926D01*
X170419470Y-71429329D01*
X170492384Y-71358129D01*
X170550616Y-71265886D01*
X170588786Y-71157006D01*
X170601509Y-71035891D01*
X170588786Y-70914532D01*
X170550616Y-70804918D01*
X170492384Y-70711941D01*
X170419470Y-70640496D01*
X170310073Y-70570899D01*
X170198501Y-70529141D01*
X170084755Y-70515222D01*
X169667616Y-70515222D01*
X169665870Y-70515222D01*
X169565064Y-70528435D01*
X169513193Y-70568072D01*
X169494598Y-70619943D01*
X169491661Y-70687474D01*
X169491661Y-71773832D01*
X169405440Y-71773832D01*
X169405440Y-69251073D01*
X169492819Y-69251073D01*
X169504736Y-69354362D01*
X169557374Y-69409482D01*
X169667616Y-69427856D01*
X169769912Y-69414448D01*
X169822549Y-69374225D01*
X169841419Y-69321587D01*
X169844399Y-69253059D01*
X169844399Y-69251073D01*
X170748179Y-69251073D01*
X170772015Y-69378198D01*
X170824653Y-69415441D01*
X170922976Y-69427856D01*
X171286475Y-69427856D01*
X171432780Y-69414324D01*
X171567789Y-69373728D01*
X171691500Y-69306069D01*
X171803914Y-69211346D01*
X171897333Y-69097691D01*
X171964061Y-68973235D01*
X172004098Y-68837978D01*
X172016446Y-68702845D01*
X172116761Y-68702845D01*
X172123161Y-68842109D01*
X172142362Y-68971221D01*
X172174364Y-69090180D01*
X172217318Y-69189993D01*
X172270701Y-69274909D01*
X172340719Y-69346168D01*
X172433580Y-69405013D01*
X172545560Y-69444491D01*
X172672933Y-69457651D01*
X172799810Y-69444740D01*
X172910299Y-69406006D01*
X173001422Y-69347410D01*
X173070199Y-69274909D01*
X173137982Y-69160322D01*
X173186399Y-69027114D01*
X173215449Y-68875284D01*
X173225133Y-68704832D01*
X173218512Y-68573513D01*
X173198648Y-68447050D01*
X173165543Y-68325443D01*
X173124078Y-68225133D01*
X173071192Y-68138728D01*
X173001671Y-68065730D01*
X172910299Y-68005644D01*
X172799313Y-67965420D01*
X172671423Y-67952062D01*
X172670947Y-67952013D01*
X172542083Y-67965669D01*
X172429607Y-68006637D01*
X172336995Y-68067716D01*
X172267722Y-68141707D01*
X172212849Y-68237299D01*
X172163439Y-68363183D01*
X172137507Y-68463603D01*
X172121947Y-68576824D01*
X172116761Y-68702845D01*
X172016446Y-68702845D01*
X172017444Y-68691921D01*
X172003788Y-68546422D01*
X171962820Y-68412841D01*
X171894540Y-68291179D01*
X171798948Y-68181434D01*
X171685354Y-68090621D01*
X171563071Y-68025755D01*
X171509127Y-68009725D01*
X171432097Y-67986836D01*
X171292434Y-67973862D01*
X170924962Y-67971876D01*
X170822666Y-67985284D01*
X170770029Y-68025507D01*
X170751159Y-68077151D01*
X170748179Y-68146673D01*
X170748179Y-69251073D01*
X169844399Y-69251073D01*
X169844399Y-69028604D01*
X170092690Y-69028604D01*
X170209222Y-69014479D01*
X170323104Y-68972104D01*
X170434339Y-68901478D01*
X170508330Y-68829226D01*
X170567423Y-68735620D01*
X170606157Y-68625130D01*
X170619068Y-68502226D01*
X170606157Y-68379074D01*
X170567423Y-68267839D01*
X170508330Y-68173488D01*
X170434339Y-68100987D01*
X170323325Y-68030362D01*
X170210104Y-67987987D01*
X170094677Y-67973862D01*
X169671429Y-67973862D01*
X169669602Y-67973862D01*
X169567306Y-67987270D01*
X169514668Y-68027493D01*
X169495798Y-68080131D01*
X169492819Y-68148659D01*
X169492819Y-69251073D01*
X169405440Y-69251073D01*
X169405440Y-66728235D01*
X169494010Y-66728235D01*
X169506107Y-66833073D01*
X169559534Y-66889021D01*
X169671429Y-66907670D01*
X169775260Y-66894061D01*
X169828687Y-66853234D01*
X169847840Y-66799807D01*
X169850864Y-66730251D01*
X169850864Y-66502429D01*
X170102880Y-66502429D01*
X170221159Y-66488092D01*
X170336751Y-66445081D01*
X170449654Y-66373397D01*
X170524754Y-66300060D01*
X170584734Y-66205050D01*
X170599223Y-66163720D01*
X170737959Y-66163720D01*
X170751316Y-66315181D01*
X170791387Y-66455050D01*
X170852123Y-66577025D01*
X170927475Y-66674807D01*
X171015429Y-66753940D01*
X171113967Y-66819968D01*
X171216285Y-66870876D01*
X171315579Y-66904646D01*
X171412857Y-66923547D01*
X171509127Y-66929847D01*
X171606657Y-66921783D01*
X171707716Y-66897589D01*
X171843804Y-66845170D01*
X171913360Y-66802831D01*
X171976868Y-66752428D01*
X172004086Y-66681864D01*
X171959731Y-66568961D01*
X171889671Y-66484284D01*
X171824651Y-66456058D01*
X171727877Y-66496380D01*
X171691587Y-66522590D01*
X171611950Y-66554848D01*
X171494006Y-66570977D01*
X171363462Y-66548800D01*
X171237958Y-66482267D01*
X171135136Y-66355252D01*
X171104894Y-66269314D01*
X171094814Y-66172792D01*
X171094919Y-66171784D01*
X172106908Y-66171784D01*
X172113405Y-66313137D01*
X172132894Y-66444185D01*
X172165376Y-66564929D01*
X172208975Y-66666239D01*
X172263158Y-66752428D01*
X172334226Y-66824757D01*
X172428480Y-66884484D01*
X172542139Y-66924555D01*
X172671423Y-66937912D01*
X172800203Y-66924807D01*
X172912350Y-66885493D01*
X173004840Y-66826017D01*
X173074648Y-66752428D01*
X173143449Y-66636123D01*
X173192592Y-66500917D01*
X173222077Y-66346809D01*
X173231906Y-66173800D01*
X173225186Y-66040512D01*
X173205024Y-65912152D01*
X173171422Y-65788720D01*
X173129336Y-65686906D01*
X173075656Y-65599205D01*
X173005092Y-65525112D01*
X172912350Y-65464124D01*
X172799699Y-65423298D01*
X172669407Y-65409689D01*
X172538611Y-65423550D01*
X172424448Y-65465132D01*
X172330446Y-65527128D01*
X172260134Y-65602229D01*
X172204438Y-65699255D01*
X172154287Y-65827027D01*
X172127966Y-65928953D01*
X172112173Y-66043872D01*
X172106908Y-66171784D01*
X171094919Y-66171784D01*
X171104894Y-66076270D01*
X171135136Y-65990333D01*
X171235942Y-65865333D01*
X171363966Y-65797289D01*
X171494006Y-65774608D01*
X171621022Y-65791745D01*
X171719812Y-65843156D01*
X171822635Y-65887511D01*
X171889167Y-65860293D01*
X171963763Y-65778640D01*
X172006102Y-65666745D01*
X171953683Y-65570979D01*
X171897231Y-65534689D01*
X171848844Y-65506463D01*
X171700659Y-65446987D01*
X171603633Y-65425062D01*
X171508119Y-65417753D01*
X171375279Y-65429850D01*
X171242887Y-65466141D01*
X171110943Y-65526624D01*
X171011900Y-65589880D01*
X170924451Y-65666745D01*
X170850106Y-65761503D01*
X170790379Y-65878438D01*
X170751064Y-66013770D01*
X170737959Y-66163720D01*
X170599223Y-66163720D01*
X170624048Y-66092903D01*
X170637153Y-65968156D01*
X170624048Y-65843156D01*
X170584734Y-65730253D01*
X170524754Y-65634487D01*
X170449654Y-65560898D01*
X170336975Y-65489214D01*
X170222055Y-65446203D01*
X170104896Y-65431866D01*
X169673445Y-65431866D01*
X169569615Y-65445475D01*
X169516188Y-65486302D01*
X169497034Y-65539729D01*
X169494010Y-65609285D01*
X169494010Y-66728235D01*
X169405440Y-66728235D01*
X169405440Y-64989663D01*
X169489445Y-64989663D01*
X173310555Y-64989663D01*
X173394560Y-64989663D01*
X173394560Y-77410337D01*
G37*
G36*
X171431725Y-68352506D02*
G01*
X171553636Y-68433698D01*
X171637807Y-68555112D01*
X171665864Y-68702845D01*
X171637062Y-68850082D01*
X171550656Y-68970007D01*
X171428497Y-69049708D01*
X171292434Y-69076276D01*
X171099760Y-69076276D01*
X171099760Y-68325443D01*
X171290447Y-68325443D01*
X171431725Y-68352506D01*
G37*
G36*
X172759377Y-65791871D02*
G01*
X172823641Y-65867853D01*
X172862199Y-65994491D01*
X172875052Y-66171784D01*
X172875052Y-66183881D01*
X172862073Y-66356764D01*
X172823137Y-66480251D01*
X172758243Y-66554344D01*
X172667391Y-66579041D01*
X172578304Y-66553651D01*
X172514670Y-66477479D01*
X172476489Y-66350526D01*
X172463762Y-66172792D01*
X172476615Y-65995058D01*
X172515174Y-65868105D01*
X172579438Y-65791934D01*
X172669407Y-65766543D01*
X172759377Y-65791871D01*
G37*
G36*
X171346040Y-75958711D02*
G01*
X171462775Y-76036456D01*
X171543373Y-76152716D01*
X171570239Y-76294177D01*
X171542660Y-76435163D01*
X171459922Y-76549997D01*
X171342949Y-76626315D01*
X171212662Y-76651754D01*
X171028167Y-76651754D01*
X171028167Y-75932796D01*
X171210760Y-75932796D01*
X171346040Y-75958711D01*
G37*
G36*
X172759587Y-68328546D02*
G01*
X172822901Y-68403406D01*
X172860889Y-68528173D01*
X172873552Y-68702845D01*
X172873552Y-68714763D01*
X172860765Y-68885091D01*
X172822404Y-69006754D01*
X172758469Y-69079752D01*
X172668960Y-69104084D01*
X172581189Y-69079069D01*
X172518496Y-69004023D01*
X172480880Y-68878946D01*
X172468341Y-68703839D01*
X172481004Y-68528731D01*
X172518992Y-68403654D01*
X172582307Y-68328608D01*
X172670947Y-68303593D01*
X172759587Y-68328546D01*
G37*
G36*
X170223848Y-65834083D02*
G01*
X170282315Y-65968156D01*
X170223848Y-66101220D01*
X170104896Y-66145575D01*
X169850864Y-66145575D01*
X169850864Y-65788720D01*
X170102880Y-65788720D01*
X170223848Y-65834083D01*
G37*
G36*
X170211870Y-68370135D02*
G01*
X170269474Y-68502226D01*
X170211870Y-68633324D01*
X170094677Y-68677023D01*
X169844399Y-68677023D01*
X169844399Y-68325443D01*
X170092690Y-68325443D01*
X170211870Y-68370135D01*
G37*
G36*
X170200241Y-70905724D02*
G01*
X170257006Y-71035891D01*
X170200241Y-71165080D01*
X170084755Y-71208143D01*
X169838122Y-71208143D01*
X169838122Y-70861682D01*
X170082797Y-70861682D01*
X170200241Y-70905724D01*
G37*
G36*
X170188946Y-73440870D02*
G01*
X170244896Y-73569169D01*
X170188946Y-73696503D01*
X170075117Y-73738948D01*
X169832025Y-73738948D01*
X169832025Y-73397460D01*
X170073188Y-73397460D01*
X170188946Y-73440870D01*
G37*
G36*
X170177971Y-75975591D02*
G01*
X170233129Y-76102075D01*
X170177971Y-76227607D01*
X170065753Y-76269451D01*
X169826100Y-76269451D01*
X169826100Y-75932796D01*
X170063851Y-75932796D01*
X170177971Y-75975591D01*
G37*
G36*
X171529318Y-71354948D02*
G01*
X171268983Y-71354948D01*
X171398172Y-71086784D01*
X171529318Y-71354948D01*
G37*
G36*
X171498945Y-73883646D02*
G01*
X171242348Y-73883646D01*
X171369682Y-73619331D01*
X171498945Y-73883646D01*
G37*
%TO.C,D5*%
X160850000Y-79040000D02*
X158950000Y-79040000D01*
X158850000Y-78940000D02*
X160750000Y-78940000D01*
X158825000Y-80240000D02*
X158825000Y-78940000D01*
X158950000Y-80140000D02*
X160850000Y-80140000D01*
X160850000Y-80140000D02*
X160850000Y-80240000D01*
X158925000Y-79040000D02*
X158925000Y-80140000D01*
X160850000Y-80240000D02*
X158850000Y-80240000D01*
X160850000Y-80240000D02*
X164050000Y-80240000D01*
X164050000Y-80240000D02*
X164050000Y-77440000D01*
X164050000Y-77440000D02*
X160850000Y-77440000D01*
X160850000Y-77440000D02*
X160850000Y-80240000D01*
%TO.C,U2*%
X149862500Y-67990000D02*
X149062500Y-67990000D01*
X149862500Y-67990000D02*
X150662500Y-67990000D01*
X149862500Y-71110000D02*
X149062500Y-71110000D01*
X149862500Y-71110000D02*
X151662500Y-71110000D01*
%TO.C,U1*%
X149750000Y-79785000D02*
X147550000Y-79785000D01*
X149750000Y-79785000D02*
X153350000Y-79785000D01*
X149750000Y-73015000D02*
X147550000Y-73015000D01*
X149750000Y-73015000D02*
X151950000Y-73015000D01*
%TO.C,RN2*%
X171662500Y-82880000D02*
X170662500Y-82880000D01*
X171662500Y-79520000D02*
X170662500Y-79520000D01*
%TO.C,R1*%
X147227064Y-82135000D02*
X146772936Y-82135000D01*
X147227064Y-80665000D02*
X146772936Y-80665000D01*
%TO.C,J2*%
X176330000Y-76280000D02*
X176330000Y-77610000D01*
X176330000Y-75010000D02*
X173670000Y-75010000D01*
X176330000Y-64790000D02*
X173670000Y-64790000D01*
X176330000Y-75010000D02*
X176330000Y-64790000D01*
X176330000Y-77610000D02*
X175000000Y-77610000D01*
X173670000Y-75010000D02*
X173670000Y-64790000D01*
%TO.C,D3*%
X174000000Y-80960000D02*
X176685000Y-80960000D01*
X176685000Y-80960000D02*
X176685000Y-79040000D01*
X176685000Y-79040000D02*
X174000000Y-79040000D01*
%TO.C,D2*%
X174000000Y-83360000D02*
X176685000Y-83360000D01*
X176685000Y-83360000D02*
X176685000Y-81440000D01*
X176685000Y-81440000D02*
X174000000Y-81440000D01*
%TO.C,C3*%
X150738748Y-82135000D02*
X151261252Y-82135000D01*
X150738748Y-80665000D02*
X151261252Y-80665000D01*
%TO.C,C2*%
X147335000Y-69861252D02*
X147335000Y-69338748D01*
X145865000Y-69861252D02*
X145865000Y-69338748D01*
%TO.C,C1*%
X149511252Y-65265000D02*
X148988748Y-65265000D01*
X149511252Y-66735000D02*
X148988748Y-66735000D01*
%TD*%
M02*
