%TF.GenerationSoftware,KiCad,Pcbnew,7.0.8*%
%TF.CreationDate,2024-02-06T14:03:30-06:00*%
%TF.ProjectId,Keeb,4b656562-2e6b-4696-9361-645f70636258,rev?*%
%TF.SameCoordinates,Original*%
%TF.FileFunction,Copper,L2,Bot*%
%TF.FilePolarity,Positive*%
%FSLAX46Y46*%
G04 Gerber Fmt 4.6, Leading zero omitted, Abs format (unit mm)*
G04 Created by KiCad (PCBNEW 7.0.8) date 2024-02-06 14:03:30*
%MOMM*%
%LPD*%
G01*
G04 APERTURE LIST*
%TA.AperFunction,ComponentPad*%
%ADD10R,1.700000X1.700000*%
%TD*%
%TA.AperFunction,ComponentPad*%
%ADD11O,1.700000X1.700000*%
%TD*%
%TA.AperFunction,ComponentPad*%
%ADD12C,2.200000*%
%TD*%
%TA.AperFunction,ViaPad*%
%ADD13C,0.800000*%
%TD*%
%TA.AperFunction,Conductor*%
%ADD14C,0.250000*%
%TD*%
G04 APERTURE END LIST*
D10*
%TO.P,J3,1,Pin_1*%
%TO.N,VCC*%
X156720000Y-82200000D03*
D11*
%TO.P,J3,2,Pin_2*%
%TO.N,SWIO*%
X159260000Y-82200000D03*
%TO.P,J3,3,Pin_3*%
%TO.N,VSS*%
X161800000Y-82200000D03*
%TD*%
D12*
%TO.P,SW1,2,2*%
%TO.N,VSS*%
X166290000Y-71460000D03*
%TO.P,SW1,1,1*%
%TO.N,PD5*%
X159940000Y-68920000D03*
%TD*%
D11*
%TO.P,J2,5,Pin_5*%
%TO.N,PC0*%
X175000000Y-66120000D03*
%TO.P,J2,4,Pin_4*%
%TO.N,PD0*%
X175000000Y-68660000D03*
%TO.P,J2,3,Pin_3*%
%TO.N,PA2*%
X175000000Y-71200000D03*
%TO.P,J2,2,Pin_2*%
%TO.N,PA1*%
X175000000Y-73740000D03*
D10*
%TO.P,J2,1,Pin_1*%
%TO.N,PD7*%
X175000000Y-76280000D03*
%TD*%
D13*
%TO.N,SWIO*%
X148600000Y-78000000D03*
%TO.N,VSS*%
X164000000Y-82400000D03*
X157000000Y-71200000D03*
X163200000Y-67400000D03*
X155600000Y-65600000D03*
X172400000Y-65200000D03*
X171800000Y-67400000D03*
X176600000Y-78400000D03*
X171800000Y-78000000D03*
X150600000Y-83000000D03*
X147600000Y-83200000D03*
X152600000Y-68200000D03*
X148800000Y-67800000D03*
X151600000Y-65200000D03*
X146200000Y-65800000D03*
X154286746Y-80275000D03*
X149600000Y-74200000D03*
X155800000Y-75200000D03*
%TO.N,+5V*%
X142600000Y-77000000D03*
X145200000Y-70800000D03*
%TO.N,PD5*%
X156632836Y-78750000D03*
%TD*%
D14*
%TO.N,SWIO*%
X153400000Y-78000000D02*
X148600000Y-78000000D01*
X156026290Y-80626290D02*
X153400000Y-78000000D01*
X157686290Y-80626290D02*
X156026290Y-80626290D01*
X159260000Y-82200000D02*
X157686290Y-80626290D01*
%TO.N,+5V*%
X142600000Y-73400000D02*
X145200000Y-70800000D01*
X142600000Y-77000000D02*
X142600000Y-73400000D01*
%TO.N,PD5*%
X156632836Y-78392469D02*
X156632836Y-78750000D01*
X159940000Y-75085305D02*
X156632836Y-78392469D01*
X159940000Y-68920000D02*
X159940000Y-75085305D01*
%TD*%
%TA.AperFunction,Conductor*%
%TO.N,VSS*%
G36*
X175452676Y-64247288D02*
G01*
X175494630Y-64246699D01*
X175499079Y-64246796D01*
X175566025Y-64250692D01*
X175753510Y-64262961D01*
X175761890Y-64264089D01*
X175869417Y-64286132D01*
X176012614Y-64318728D01*
X176019881Y-64320858D01*
X176131011Y-64360953D01*
X176260335Y-64412949D01*
X176266376Y-64415765D01*
X176372331Y-64472325D01*
X176375012Y-64473844D01*
X176420188Y-64500970D01*
X176491035Y-64543511D01*
X176495860Y-64546723D01*
X176593630Y-64618668D01*
X176596781Y-64621149D01*
X176699500Y-64707531D01*
X176703131Y-64710839D01*
X176757383Y-64764341D01*
X176778268Y-64784938D01*
X176789804Y-64796314D01*
X176793163Y-64799901D01*
X176880994Y-64901446D01*
X176883519Y-64904563D01*
X176914880Y-64945964D01*
X176956753Y-65001243D01*
X176960039Y-65006031D01*
X177031390Y-65121205D01*
X177032969Y-65123903D01*
X177090881Y-65228855D01*
X177093797Y-65234888D01*
X177147696Y-65363744D01*
X177189219Y-65474006D01*
X177191455Y-65481263D01*
X177226172Y-65624551D01*
X177249574Y-65731158D01*
X177250823Y-65739554D01*
X177265852Y-65928832D01*
X177270523Y-65993550D01*
X177270683Y-65998081D01*
X177253381Y-81950669D01*
X177252716Y-81952923D01*
X177253300Y-81994634D01*
X177253201Y-81999107D01*
X177249307Y-82066020D01*
X177237039Y-82253491D01*
X177235907Y-82261903D01*
X177213866Y-82369423D01*
X177181275Y-82512594D01*
X177179141Y-82519880D01*
X177139058Y-82630980D01*
X177114067Y-82693139D01*
X177087053Y-82760326D01*
X177084222Y-82766398D01*
X177027691Y-82872299D01*
X177026149Y-82875020D01*
X176956487Y-82991035D01*
X176953269Y-82995868D01*
X176881336Y-83093622D01*
X176878849Y-83096781D01*
X176792467Y-83199500D01*
X176789159Y-83203131D01*
X176703684Y-83289804D01*
X176700097Y-83293163D01*
X176598552Y-83380994D01*
X176595428Y-83383524D01*
X176498755Y-83456753D01*
X176493967Y-83460039D01*
X176378793Y-83531390D01*
X176376095Y-83532969D01*
X176271143Y-83590881D01*
X176265111Y-83593796D01*
X176136255Y-83647696D01*
X176025992Y-83689219D01*
X176018735Y-83691455D01*
X175875448Y-83726172D01*
X175768840Y-83749574D01*
X175760444Y-83750823D01*
X175571174Y-83765852D01*
X175506441Y-83770523D01*
X175501941Y-83770683D01*
X162126056Y-83762610D01*
X162059029Y-83742885D01*
X162013306Y-83690053D01*
X162003404Y-83620889D01*
X162032467Y-83557351D01*
X162091268Y-83519612D01*
X162094038Y-83518835D01*
X162263483Y-83473433D01*
X162263492Y-83473429D01*
X162477578Y-83373600D01*
X162671082Y-83238105D01*
X162838105Y-83071082D01*
X162973600Y-82877578D01*
X163073429Y-82663492D01*
X163073432Y-82663486D01*
X163130636Y-82450000D01*
X162233686Y-82450000D01*
X162259493Y-82409844D01*
X162300000Y-82271889D01*
X162300000Y-82128111D01*
X162259493Y-81990156D01*
X162233686Y-81950000D01*
X163130636Y-81950000D01*
X163130635Y-81949999D01*
X163073432Y-81736513D01*
X163073429Y-81736507D01*
X162973600Y-81522422D01*
X162973599Y-81522420D01*
X162838113Y-81328926D01*
X162838108Y-81328920D01*
X162671082Y-81161894D01*
X162477578Y-81026399D01*
X162263492Y-80926570D01*
X162263483Y-80926566D01*
X162105648Y-80884275D01*
X162045987Y-80847910D01*
X162015458Y-80785063D01*
X162023753Y-80715688D01*
X162068238Y-80661810D01*
X162134790Y-80640535D01*
X162137741Y-80640500D01*
X164325240Y-80640500D01*
X164325383Y-80640528D01*
X164325384Y-80640524D01*
X164349997Y-80640539D01*
X164350000Y-80640541D01*
X164350383Y-80640383D01*
X164350500Y-80640099D01*
X164350541Y-80640000D01*
X164350540Y-80639997D01*
X164350583Y-80615889D01*
X164350500Y-80615467D01*
X164350500Y-77064759D01*
X164350528Y-77064616D01*
X164350524Y-77064616D01*
X164350539Y-77040002D01*
X164350541Y-77040000D01*
X164350462Y-77039808D01*
X164350384Y-77039618D01*
X164350382Y-77039616D01*
X164350099Y-77039500D01*
X164350000Y-77039459D01*
X164325446Y-77039459D01*
X164325240Y-77039500D01*
X160574760Y-77039500D01*
X160574554Y-77039459D01*
X160550000Y-77039459D01*
X160549901Y-77039500D01*
X160549617Y-77039616D01*
X160549615Y-77039618D01*
X160549459Y-77039999D01*
X160549476Y-77064616D01*
X160549471Y-77064616D01*
X160549500Y-77064759D01*
X160549500Y-80615467D01*
X160549416Y-80615889D01*
X160549459Y-80640001D01*
X160549500Y-80640099D01*
X160549616Y-80640382D01*
X160549618Y-80640384D01*
X160549808Y-80640462D01*
X160550000Y-80640541D01*
X160550002Y-80640539D01*
X160574616Y-80640524D01*
X160574616Y-80640528D01*
X160574760Y-80640500D01*
X161462259Y-80640500D01*
X161529298Y-80660185D01*
X161575053Y-80712989D01*
X161584997Y-80782147D01*
X161555972Y-80845703D01*
X161497194Y-80883477D01*
X161494352Y-80884275D01*
X161336516Y-80926566D01*
X161336507Y-80926570D01*
X161122422Y-81026399D01*
X161122420Y-81026400D01*
X160928926Y-81161886D01*
X160928920Y-81161891D01*
X160761891Y-81328920D01*
X160761890Y-81328922D01*
X160631880Y-81514595D01*
X160577303Y-81558219D01*
X160507804Y-81565412D01*
X160445450Y-81533890D01*
X160428730Y-81514594D01*
X160298494Y-81328597D01*
X160131402Y-81161506D01*
X160131395Y-81161501D01*
X159937834Y-81025967D01*
X159937830Y-81025965D01*
X159840169Y-80980425D01*
X159723663Y-80926097D01*
X159723659Y-80926096D01*
X159723655Y-80926094D01*
X159495413Y-80864938D01*
X159495403Y-80864936D01*
X159260001Y-80844341D01*
X159259999Y-80844341D01*
X159024596Y-80864936D01*
X159024586Y-80864938D01*
X158924126Y-80891856D01*
X158854276Y-80890193D01*
X158804352Y-80859762D01*
X158187093Y-80242502D01*
X158177270Y-80230240D01*
X158177049Y-80230424D01*
X158172076Y-80224413D01*
X158121654Y-80177063D01*
X158111209Y-80166618D01*
X158100765Y-80156173D01*
X158095276Y-80151915D01*
X158090851Y-80148137D01*
X158056872Y-80116228D01*
X158056870Y-80116226D01*
X158056867Y-80116225D01*
X158039319Y-80106578D01*
X158023053Y-80095894D01*
X158007223Y-80083615D01*
X157964458Y-80065108D01*
X157959212Y-80062538D01*
X157918383Y-80040093D01*
X157918382Y-80040092D01*
X157898983Y-80035112D01*
X157880571Y-80028808D01*
X157862188Y-80020852D01*
X157862182Y-80020850D01*
X157816164Y-80013562D01*
X157810442Y-80012377D01*
X157765311Y-80000790D01*
X157765309Y-80000790D01*
X157745274Y-80000790D01*
X157725876Y-79999263D01*
X157718452Y-79998087D01*
X157706095Y-79996130D01*
X157706094Y-79996130D01*
X157659706Y-80000515D01*
X157653868Y-80000790D01*
X156336742Y-80000790D01*
X156269703Y-79981105D01*
X156249061Y-79964471D01*
X155972734Y-79688144D01*
X155939249Y-79626821D01*
X155944233Y-79557129D01*
X155986105Y-79501196D01*
X156051569Y-79476779D01*
X156119842Y-79491631D01*
X156133300Y-79500145D01*
X156180101Y-79534148D01*
X156180106Y-79534151D01*
X156353028Y-79611142D01*
X156353033Y-79611144D01*
X156538190Y-79650500D01*
X156538191Y-79650500D01*
X156727480Y-79650500D01*
X156727482Y-79650500D01*
X156912639Y-79611144D01*
X157085566Y-79534151D01*
X157238707Y-79422888D01*
X157365369Y-79282216D01*
X157460015Y-79118284D01*
X157518510Y-78938256D01*
X157538296Y-78750000D01*
X157518510Y-78561744D01*
X157500211Y-78505429D01*
X157498217Y-78435590D01*
X157530460Y-78379433D01*
X160323788Y-75586106D01*
X160336042Y-75576291D01*
X160335859Y-75576069D01*
X160341866Y-75571097D01*
X160341877Y-75571091D01*
X160372775Y-75538187D01*
X160389227Y-75520669D01*
X160399671Y-75510223D01*
X160410120Y-75499776D01*
X160414379Y-75494283D01*
X160418152Y-75489866D01*
X160450062Y-75455887D01*
X160459713Y-75438329D01*
X160470396Y-75422066D01*
X160482673Y-75406241D01*
X160485076Y-75400685D01*
X160529762Y-75346977D01*
X160596393Y-75325952D01*
X160663814Y-75344288D01*
X160698708Y-75376372D01*
X160716624Y-75400688D01*
X160757554Y-75456238D01*
X160868631Y-75571091D01*
X160967019Y-75672823D01*
X161203478Y-75859553D01*
X161203480Y-75859554D01*
X161203485Y-75859558D01*
X161462730Y-76013109D01*
X161740128Y-76130736D01*
X162030729Y-76210340D01*
X162329347Y-76250500D01*
X162329351Y-76250500D01*
X162555252Y-76250500D01*
X162719164Y-76239526D01*
X162780634Y-76235412D01*
X163075903Y-76175396D01*
X163360537Y-76076560D01*
X163629459Y-75940668D01*
X163877869Y-75770144D01*
X164101333Y-75568032D01*
X164295865Y-75337939D01*
X164457993Y-75083970D01*
X164584823Y-74810658D01*
X164674093Y-74522879D01*
X164724209Y-74225770D01*
X164734277Y-73924631D01*
X164704118Y-73624838D01*
X164634269Y-73331739D01*
X164525977Y-73050566D01*
X164381175Y-72786335D01*
X164379835Y-72784517D01*
X164218805Y-72565965D01*
X164202446Y-72543762D01*
X163992980Y-72327176D01*
X163756521Y-72140446D01*
X163756517Y-72140443D01*
X163756515Y-72140442D01*
X163497270Y-71986891D01*
X163219872Y-71869264D01*
X163219863Y-71869261D01*
X162929272Y-71789660D01*
X162854616Y-71779620D01*
X162630653Y-71749500D01*
X162404756Y-71749500D01*
X162404748Y-71749500D01*
X162179368Y-71764587D01*
X162179359Y-71764589D01*
X161884094Y-71824604D01*
X161599464Y-71923439D01*
X161599459Y-71923441D01*
X161330546Y-72059328D01*
X161082125Y-72229860D01*
X160858665Y-72431969D01*
X160784193Y-72520056D01*
X160725878Y-72558542D01*
X160656013Y-72559391D01*
X160596781Y-72522333D01*
X160566986Y-72459135D01*
X160565500Y-72439998D01*
X160565500Y-71460000D01*
X164685052Y-71460000D01*
X164704812Y-71711072D01*
X164763603Y-71955956D01*
X164859980Y-72188631D01*
X164991566Y-72403358D01*
X164991577Y-72403374D01*
X164992264Y-72404178D01*
X164992266Y-72404178D01*
X165612803Y-71783641D01*
X165636059Y-71837553D01*
X165740756Y-71978185D01*
X165875062Y-72090882D01*
X165966665Y-72136886D01*
X165345819Y-72757732D01*
X165346636Y-72758430D01*
X165346638Y-72758432D01*
X165561368Y-72890019D01*
X165794043Y-72986396D01*
X166038927Y-73045187D01*
X166290000Y-73064947D01*
X166541071Y-73045187D01*
X166658004Y-73017114D01*
X166727786Y-73020605D01*
X166784604Y-73061268D01*
X166810417Y-73126195D01*
X166797031Y-73194770D01*
X166780664Y-73218891D01*
X166659478Y-73358746D01*
X166554398Y-73540750D01*
X166485656Y-73739365D01*
X166485656Y-73739367D01*
X166459020Y-73924631D01*
X166455746Y-73947401D01*
X166465745Y-74157327D01*
X166515296Y-74361578D01*
X166515298Y-74361582D01*
X166602598Y-74552743D01*
X166602601Y-74552748D01*
X166602602Y-74552750D01*
X166602604Y-74552753D01*
X166665627Y-74641256D01*
X166724515Y-74723953D01*
X166724520Y-74723959D01*
X166876620Y-74868985D01*
X166982747Y-74937189D01*
X167053428Y-74982613D01*
X167248543Y-75060725D01*
X167309399Y-75072454D01*
X167454914Y-75100500D01*
X167454915Y-75100500D01*
X167612419Y-75100500D01*
X167612425Y-75100500D01*
X167769218Y-75085528D01*
X167970875Y-75026316D01*
X168157682Y-74930011D01*
X168170064Y-74920274D01*
X168309450Y-74810658D01*
X168322886Y-74800092D01*
X168460519Y-74641256D01*
X168477760Y-74611395D01*
X168565601Y-74459249D01*
X168565600Y-74459249D01*
X168565604Y-74459244D01*
X168634344Y-74260633D01*
X168664254Y-74052602D01*
X168654254Y-73842670D01*
X168629346Y-73740000D01*
X173644341Y-73740000D01*
X173664936Y-73975403D01*
X173664938Y-73975413D01*
X173726094Y-74203655D01*
X173726096Y-74203659D01*
X173726097Y-74203663D01*
X173736406Y-74225770D01*
X173825965Y-74417830D01*
X173825967Y-74417834D01*
X173920432Y-74552743D01*
X173961501Y-74611396D01*
X173961506Y-74611402D01*
X174083430Y-74733326D01*
X174116915Y-74794649D01*
X174111931Y-74864341D01*
X174070059Y-74920274D01*
X174039083Y-74937189D01*
X173907669Y-74986203D01*
X173907664Y-74986206D01*
X173792455Y-75072452D01*
X173792452Y-75072455D01*
X173706206Y-75187664D01*
X173706202Y-75187671D01*
X173655908Y-75322517D01*
X173649501Y-75382116D01*
X173649501Y-75382123D01*
X173649500Y-75382135D01*
X173649500Y-77177870D01*
X173649501Y-77177876D01*
X173655908Y-77237483D01*
X173706202Y-77372328D01*
X173706206Y-77372335D01*
X173792452Y-77487544D01*
X173792455Y-77487547D01*
X173907664Y-77573793D01*
X173907671Y-77573797D01*
X174042517Y-77624091D01*
X174042516Y-77624091D01*
X174049444Y-77624835D01*
X174102127Y-77630500D01*
X175897872Y-77630499D01*
X175957483Y-77624091D01*
X176092331Y-77573796D01*
X176207546Y-77487546D01*
X176293796Y-77372331D01*
X176344091Y-77237483D01*
X176350500Y-77177873D01*
X176350499Y-75382128D01*
X176344091Y-75322517D01*
X176342181Y-75317397D01*
X176293797Y-75187671D01*
X176293793Y-75187664D01*
X176207547Y-75072455D01*
X176207544Y-75072452D01*
X176092335Y-74986206D01*
X176092328Y-74986202D01*
X175960917Y-74937189D01*
X175904983Y-74895318D01*
X175880566Y-74829853D01*
X175895418Y-74761580D01*
X175916563Y-74733332D01*
X176038495Y-74611401D01*
X176174035Y-74417830D01*
X176273903Y-74203663D01*
X176335063Y-73975408D01*
X176355659Y-73740000D01*
X176355603Y-73739365D01*
X176348580Y-73659090D01*
X176335063Y-73504592D01*
X176273903Y-73276337D01*
X176174035Y-73062171D01*
X176169382Y-73055525D01*
X176038494Y-72868597D01*
X175871402Y-72701506D01*
X175871396Y-72701501D01*
X175685842Y-72571575D01*
X175642217Y-72516998D01*
X175635023Y-72447500D01*
X175666546Y-72385145D01*
X175685842Y-72368425D01*
X175708026Y-72352891D01*
X175871401Y-72238495D01*
X176038495Y-72071401D01*
X176174035Y-71877830D01*
X176273903Y-71663663D01*
X176335063Y-71435408D01*
X176355659Y-71200000D01*
X176335063Y-70964592D01*
X176273903Y-70736337D01*
X176174035Y-70522171D01*
X176170160Y-70516636D01*
X176038494Y-70328597D01*
X175871402Y-70161506D01*
X175871396Y-70161501D01*
X175685842Y-70031575D01*
X175642217Y-69976998D01*
X175635023Y-69907500D01*
X175666546Y-69845145D01*
X175685842Y-69828425D01*
X175708026Y-69812891D01*
X175871401Y-69698495D01*
X176038495Y-69531401D01*
X176174035Y-69337830D01*
X176273903Y-69123663D01*
X176335063Y-68895408D01*
X176355659Y-68660000D01*
X176335063Y-68424592D01*
X176273903Y-68196337D01*
X176174035Y-67982171D01*
X176169957Y-67976346D01*
X176038494Y-67788597D01*
X175871402Y-67621506D01*
X175871396Y-67621501D01*
X175685842Y-67491575D01*
X175642217Y-67436998D01*
X175635023Y-67367500D01*
X175666546Y-67305145D01*
X175685842Y-67288425D01*
X175708026Y-67272891D01*
X175871401Y-67158495D01*
X176038495Y-66991401D01*
X176174035Y-66797830D01*
X176273903Y-66583663D01*
X176335063Y-66355408D01*
X176355659Y-66120000D01*
X176335063Y-65884592D01*
X176273903Y-65656337D01*
X176174035Y-65442171D01*
X176137555Y-65390071D01*
X176038494Y-65248597D01*
X175871402Y-65081506D01*
X175871395Y-65081501D01*
X175677834Y-64945967D01*
X175677830Y-64945965D01*
X175677828Y-64945964D01*
X175463663Y-64846097D01*
X175463659Y-64846096D01*
X175463655Y-64846094D01*
X175235413Y-64784938D01*
X175235403Y-64784936D01*
X175000001Y-64764341D01*
X174999999Y-64764341D01*
X174764596Y-64784936D01*
X174764586Y-64784938D01*
X174536344Y-64846094D01*
X174536335Y-64846098D01*
X174322171Y-64945964D01*
X174322169Y-64945965D01*
X174128597Y-65081505D01*
X173961505Y-65248597D01*
X173825965Y-65442169D01*
X173825964Y-65442171D01*
X173794984Y-65508609D01*
X173728271Y-65651676D01*
X173726098Y-65656335D01*
X173726094Y-65656344D01*
X173664938Y-65884586D01*
X173664936Y-65884596D01*
X173644341Y-66119999D01*
X173644341Y-66120000D01*
X173664936Y-66355403D01*
X173664938Y-66355413D01*
X173726094Y-66583655D01*
X173726096Y-66583659D01*
X173726097Y-66583663D01*
X173825965Y-66797830D01*
X173825967Y-66797834D01*
X173961501Y-66991395D01*
X173961506Y-66991402D01*
X174128597Y-67158493D01*
X174128603Y-67158498D01*
X174314158Y-67288425D01*
X174357783Y-67343002D01*
X174364977Y-67412500D01*
X174333454Y-67474855D01*
X174314158Y-67491575D01*
X174128597Y-67621505D01*
X173961505Y-67788597D01*
X173825965Y-67982169D01*
X173825964Y-67982171D01*
X173726098Y-68196335D01*
X173726094Y-68196344D01*
X173664938Y-68424586D01*
X173664936Y-68424596D01*
X173644341Y-68659999D01*
X173644341Y-68660000D01*
X173664936Y-68895403D01*
X173664938Y-68895413D01*
X173726094Y-69123655D01*
X173726096Y-69123659D01*
X173726097Y-69123663D01*
X173748240Y-69171148D01*
X173825965Y-69337830D01*
X173825967Y-69337834D01*
X173961501Y-69531395D01*
X173961506Y-69531402D01*
X174128597Y-69698493D01*
X174128603Y-69698498D01*
X174314158Y-69828425D01*
X174357783Y-69883002D01*
X174364977Y-69952500D01*
X174333454Y-70014855D01*
X174314158Y-70031575D01*
X174128597Y-70161505D01*
X173961505Y-70328597D01*
X173825965Y-70522169D01*
X173825964Y-70522171D01*
X173726098Y-70736335D01*
X173726094Y-70736344D01*
X173664938Y-70964586D01*
X173664936Y-70964596D01*
X173644341Y-71199999D01*
X173644341Y-71200000D01*
X173664936Y-71435403D01*
X173664938Y-71435413D01*
X173726094Y-71663655D01*
X173726096Y-71663659D01*
X173726097Y-71663663D01*
X173821969Y-71869261D01*
X173825965Y-71877830D01*
X173825967Y-71877834D01*
X173857901Y-71923440D01*
X173953051Y-72059328D01*
X173961501Y-72071395D01*
X173961506Y-72071402D01*
X174128597Y-72238493D01*
X174128603Y-72238498D01*
X174314158Y-72368425D01*
X174357783Y-72423002D01*
X174364977Y-72492500D01*
X174333454Y-72554855D01*
X174314158Y-72571575D01*
X174128597Y-72701505D01*
X173961505Y-72868597D01*
X173825965Y-73062169D01*
X173825964Y-73062171D01*
X173750455Y-73224102D01*
X173726236Y-73276040D01*
X173726098Y-73276335D01*
X173726094Y-73276344D01*
X173664938Y-73504586D01*
X173664936Y-73504596D01*
X173644341Y-73739999D01*
X173644341Y-73740000D01*
X168629346Y-73740000D01*
X168604704Y-73638424D01*
X168598500Y-73624839D01*
X168517401Y-73447256D01*
X168517398Y-73447251D01*
X168517397Y-73447250D01*
X168517396Y-73447247D01*
X168395486Y-73276048D01*
X168395484Y-73276046D01*
X168395479Y-73276040D01*
X168243379Y-73131014D01*
X168066574Y-73017388D01*
X167871455Y-72939274D01*
X167665086Y-72899500D01*
X167665085Y-72899500D01*
X167507575Y-72899500D01*
X167368836Y-72912747D01*
X167300230Y-72899524D01*
X167249663Y-72851309D01*
X167233143Y-72784517D01*
X167234178Y-72757731D01*
X166615946Y-72139498D01*
X166628891Y-72134787D01*
X166775373Y-72038445D01*
X166895688Y-71910918D01*
X166968447Y-71784894D01*
X167587732Y-72404179D01*
X167588424Y-72403371D01*
X167588432Y-72403360D01*
X167720019Y-72188631D01*
X167816396Y-71955956D01*
X167875187Y-71711072D01*
X167894947Y-71460000D01*
X167875187Y-71208927D01*
X167816396Y-70964043D01*
X167720019Y-70731368D01*
X167588432Y-70516638D01*
X167588430Y-70516636D01*
X167587732Y-70515819D01*
X166967195Y-71136356D01*
X166943941Y-71082447D01*
X166839244Y-70941815D01*
X166704938Y-70829118D01*
X166613333Y-70783112D01*
X167234178Y-70162266D01*
X167234178Y-70162264D01*
X167233374Y-70161577D01*
X167233358Y-70161566D01*
X167018631Y-70029980D01*
X166785956Y-69933603D01*
X166541072Y-69874812D01*
X166290000Y-69855052D01*
X166038927Y-69874812D01*
X165794043Y-69933603D01*
X165561368Y-70029980D01*
X165346637Y-70161568D01*
X165345820Y-70162266D01*
X165964055Y-70780501D01*
X165951109Y-70785213D01*
X165804627Y-70881555D01*
X165684312Y-71009082D01*
X165611552Y-71135106D01*
X164992266Y-70515820D01*
X164991568Y-70516637D01*
X164859980Y-70731368D01*
X164763603Y-70964043D01*
X164704812Y-71208927D01*
X164685052Y-71460000D01*
X160565500Y-71460000D01*
X160565500Y-70476132D01*
X160585185Y-70409093D01*
X160637989Y-70363338D01*
X160642027Y-70361579D01*
X160668859Y-70350466D01*
X160883659Y-70218836D01*
X161075224Y-70055224D01*
X161238836Y-69863659D01*
X161370466Y-69648859D01*
X161466873Y-69416111D01*
X161525683Y-69171148D01*
X161545449Y-68920000D01*
X161525683Y-68668852D01*
X161466873Y-68423889D01*
X161370466Y-68191140D01*
X161238839Y-67976346D01*
X161238838Y-67976343D01*
X161194560Y-67924500D01*
X161075224Y-67784776D01*
X160948571Y-67676604D01*
X160883656Y-67621161D01*
X160883653Y-67621160D01*
X160668859Y-67489533D01*
X160436110Y-67393126D01*
X160191151Y-67334317D01*
X159940000Y-67314551D01*
X159688848Y-67334317D01*
X159443889Y-67393126D01*
X159211140Y-67489533D01*
X158996346Y-67621160D01*
X158996343Y-67621161D01*
X158804776Y-67784776D01*
X158641161Y-67976343D01*
X158641160Y-67976346D01*
X158509533Y-68191140D01*
X158413126Y-68423889D01*
X158354317Y-68668848D01*
X158334551Y-68920000D01*
X158354317Y-69171151D01*
X158413126Y-69416110D01*
X158509533Y-69648859D01*
X158641160Y-69863653D01*
X158641161Y-69863656D01*
X158657684Y-69883002D01*
X158804776Y-70055224D01*
X158930104Y-70162264D01*
X158996343Y-70218838D01*
X158996345Y-70218838D01*
X159211141Y-70350466D01*
X159237951Y-70361570D01*
X159292355Y-70405410D01*
X159314421Y-70471703D01*
X159314500Y-70476132D01*
X159314500Y-74774851D01*
X159294815Y-74841890D01*
X159278181Y-74862532D01*
X156249044Y-77891668D01*
X156236787Y-77901489D01*
X156236970Y-77901710D01*
X156230959Y-77906682D01*
X156205640Y-77933643D01*
X156183609Y-77957104D01*
X156177882Y-77962830D01*
X156167836Y-77972876D01*
X156153044Y-77985510D01*
X156026963Y-78077113D01*
X155900302Y-78217785D01*
X155805657Y-78381715D01*
X155805654Y-78381722D01*
X155765459Y-78505431D01*
X155747162Y-78561744D01*
X155727376Y-78750000D01*
X155747162Y-78938256D01*
X155747163Y-78938259D01*
X155805654Y-79118277D01*
X155805656Y-79118281D01*
X155805657Y-79118284D01*
X155865746Y-79222363D01*
X155884932Y-79255593D01*
X155901404Y-79323493D01*
X155878551Y-79389520D01*
X155823629Y-79432710D01*
X155754076Y-79439351D01*
X155691974Y-79407335D01*
X155689863Y-79405273D01*
X155068741Y-78784151D01*
X153900803Y-77616212D01*
X153890980Y-77603950D01*
X153890759Y-77604134D01*
X153885786Y-77598123D01*
X153835364Y-77550773D01*
X153824919Y-77540328D01*
X153814475Y-77529883D01*
X153808986Y-77525625D01*
X153804561Y-77521847D01*
X153770582Y-77489938D01*
X153770580Y-77489936D01*
X153770577Y-77489935D01*
X153753029Y-77480288D01*
X153736763Y-77469604D01*
X153720933Y-77457325D01*
X153678168Y-77438818D01*
X153672922Y-77436248D01*
X153632093Y-77413803D01*
X153632092Y-77413802D01*
X153612693Y-77408822D01*
X153594281Y-77402518D01*
X153575898Y-77394562D01*
X153575892Y-77394560D01*
X153529874Y-77387272D01*
X153524152Y-77386087D01*
X153479021Y-77374500D01*
X153479019Y-77374500D01*
X153458984Y-77374500D01*
X153439586Y-77372973D01*
X153432162Y-77371797D01*
X153419805Y-77369840D01*
X153419804Y-77369840D01*
X153373416Y-77374225D01*
X153367578Y-77374500D01*
X149303748Y-77374500D01*
X149236709Y-77354815D01*
X149211600Y-77333474D01*
X149205873Y-77327114D01*
X149205869Y-77327110D01*
X149052734Y-77215851D01*
X149052729Y-77215848D01*
X148879807Y-77138857D01*
X148879802Y-77138855D01*
X148734001Y-77107865D01*
X148694646Y-77099500D01*
X148505354Y-77099500D01*
X148472897Y-77106398D01*
X148320197Y-77138855D01*
X148320192Y-77138857D01*
X148147270Y-77215848D01*
X148147265Y-77215851D01*
X147994129Y-77327111D01*
X147867466Y-77467785D01*
X147772821Y-77631715D01*
X147772818Y-77631722D01*
X147714327Y-77811740D01*
X147714326Y-77811744D01*
X147694540Y-78000000D01*
X147714326Y-78188256D01*
X147714327Y-78188259D01*
X147772818Y-78368277D01*
X147772821Y-78368284D01*
X147867467Y-78532216D01*
X147969185Y-78645185D01*
X147994129Y-78672888D01*
X148147265Y-78784148D01*
X148147270Y-78784151D01*
X148320192Y-78861142D01*
X148320197Y-78861144D01*
X148505354Y-78900500D01*
X148505355Y-78900500D01*
X148694644Y-78900500D01*
X148694646Y-78900500D01*
X148879803Y-78861144D01*
X149052730Y-78784151D01*
X149205871Y-78672888D01*
X149208788Y-78669647D01*
X149211600Y-78666526D01*
X149271087Y-78629879D01*
X149303748Y-78625500D01*
X153089548Y-78625500D01*
X153156587Y-78645185D01*
X153177229Y-78661819D01*
X155434511Y-80919102D01*
X155467996Y-80980425D01*
X155463012Y-81050117D01*
X155446098Y-81081092D01*
X155426205Y-81107665D01*
X155426202Y-81107671D01*
X155375908Y-81242517D01*
X155369501Y-81302116D01*
X155369500Y-81302135D01*
X155369500Y-83097870D01*
X155369501Y-83097876D01*
X155375908Y-83157483D01*
X155426202Y-83292328D01*
X155426206Y-83292335D01*
X155512452Y-83407544D01*
X155512455Y-83407547D01*
X155627664Y-83493793D01*
X155627671Y-83493797D01*
X155693957Y-83518520D01*
X155749891Y-83560391D01*
X155774308Y-83625855D01*
X155759457Y-83694128D01*
X155710052Y-83743534D01*
X155650549Y-83758702D01*
X146804428Y-83753362D01*
X146802000Y-83752647D01*
X146755363Y-83753300D01*
X146750891Y-83753201D01*
X146683978Y-83749307D01*
X146496507Y-83737039D01*
X146488094Y-83735907D01*
X146380576Y-83713866D01*
X146237404Y-83681276D01*
X146230118Y-83679140D01*
X146162183Y-83654631D01*
X146119002Y-83639051D01*
X145989672Y-83587053D01*
X145983607Y-83584225D01*
X145877695Y-83527688D01*
X145874978Y-83526149D01*
X145758963Y-83456487D01*
X145754130Y-83453269D01*
X145656376Y-83381336D01*
X145653217Y-83378849D01*
X145550498Y-83292467D01*
X145546867Y-83289159D01*
X145460194Y-83203684D01*
X145456843Y-83200105D01*
X145368997Y-83098543D01*
X145366486Y-83095443D01*
X145293242Y-82998751D01*
X145289959Y-82993967D01*
X145218608Y-82878793D01*
X145217043Y-82876120D01*
X145159109Y-82771128D01*
X145156201Y-82765110D01*
X145113693Y-82663486D01*
X145102300Y-82636247D01*
X145060771Y-82525969D01*
X145058546Y-82518747D01*
X145023833Y-82375474D01*
X145000423Y-82268835D01*
X144999175Y-82260444D01*
X144984140Y-82071081D01*
X144979475Y-82006431D01*
X144979314Y-82001967D01*
X144979314Y-81953094D01*
X144979224Y-81952264D01*
X144979221Y-81950669D01*
X144977307Y-80844341D01*
X144975517Y-79809690D01*
X144975539Y-79800002D01*
X144975541Y-79800000D01*
X144975383Y-79799617D01*
X144975382Y-79799616D01*
X144975381Y-79799615D01*
X144975379Y-79799614D01*
X144975380Y-79799614D01*
X144975000Y-79799458D01*
X144952015Y-79799500D01*
X133024500Y-79799500D01*
X132957461Y-79779815D01*
X132911706Y-79727011D01*
X132900500Y-79675500D01*
X132900500Y-77000000D01*
X141694540Y-77000000D01*
X141714326Y-77188256D01*
X141714327Y-77188259D01*
X141772818Y-77368277D01*
X141772821Y-77368284D01*
X141867467Y-77532216D01*
X141957063Y-77631722D01*
X141994129Y-77672888D01*
X142147265Y-77784148D01*
X142147270Y-77784151D01*
X142320192Y-77861142D01*
X142320197Y-77861144D01*
X142505354Y-77900500D01*
X142505355Y-77900500D01*
X142694644Y-77900500D01*
X142694646Y-77900500D01*
X142879803Y-77861144D01*
X143052730Y-77784151D01*
X143205871Y-77672888D01*
X143332533Y-77532216D01*
X143427179Y-77368284D01*
X143485674Y-77188256D01*
X143505460Y-77000000D01*
X143485674Y-76811744D01*
X143427179Y-76631716D01*
X143332533Y-76467784D01*
X143257350Y-76384284D01*
X143227120Y-76321292D01*
X143225500Y-76301312D01*
X143225500Y-73947401D01*
X156295746Y-73947401D01*
X156305745Y-74157327D01*
X156355296Y-74361578D01*
X156355298Y-74361582D01*
X156442598Y-74552743D01*
X156442601Y-74552748D01*
X156442602Y-74552750D01*
X156442604Y-74552753D01*
X156505627Y-74641256D01*
X156564515Y-74723953D01*
X156564520Y-74723959D01*
X156716620Y-74868985D01*
X156822747Y-74937189D01*
X156893428Y-74982613D01*
X157088543Y-75060725D01*
X157149399Y-75072454D01*
X157294914Y-75100500D01*
X157294915Y-75100500D01*
X157452419Y-75100500D01*
X157452425Y-75100500D01*
X157609218Y-75085528D01*
X157810875Y-75026316D01*
X157997682Y-74930011D01*
X158010064Y-74920274D01*
X158149450Y-74810658D01*
X158162886Y-74800092D01*
X158300519Y-74641256D01*
X158317760Y-74611395D01*
X158405601Y-74459249D01*
X158405600Y-74459249D01*
X158405604Y-74459244D01*
X158474344Y-74260633D01*
X158504254Y-74052602D01*
X158494254Y-73842670D01*
X158444704Y-73638424D01*
X158438500Y-73624839D01*
X158357401Y-73447256D01*
X158357398Y-73447251D01*
X158357397Y-73447250D01*
X158357396Y-73447247D01*
X158235486Y-73276048D01*
X158235484Y-73276046D01*
X158235479Y-73276040D01*
X158083379Y-73131014D01*
X157906574Y-73017388D01*
X157711455Y-72939274D01*
X157505086Y-72899500D01*
X157505085Y-72899500D01*
X157347575Y-72899500D01*
X157193494Y-72914213D01*
X157190782Y-72914472D01*
X157190778Y-72914473D01*
X156989127Y-72973683D01*
X156802313Y-73069991D01*
X156637116Y-73199905D01*
X156637112Y-73199909D01*
X156499478Y-73358746D01*
X156394398Y-73540750D01*
X156325656Y-73739365D01*
X156325656Y-73739367D01*
X156299020Y-73924631D01*
X156295746Y-73947401D01*
X143225500Y-73947401D01*
X143225500Y-73710452D01*
X143245185Y-73643413D01*
X143261819Y-73622771D01*
X145147772Y-71736819D01*
X145209095Y-71703334D01*
X145235453Y-71700500D01*
X145294644Y-71700500D01*
X145294646Y-71700500D01*
X145479803Y-71661144D01*
X145652730Y-71584151D01*
X145805871Y-71472888D01*
X145932533Y-71332216D01*
X146027179Y-71168284D01*
X146085674Y-70988256D01*
X146105460Y-70800000D01*
X146085674Y-70611744D01*
X146027179Y-70431716D01*
X145932533Y-70267784D01*
X145805871Y-70127112D01*
X145805870Y-70127111D01*
X145652734Y-70015851D01*
X145652729Y-70015848D01*
X145479807Y-69938857D01*
X145479802Y-69938855D01*
X145332283Y-69907500D01*
X145294646Y-69899500D01*
X145105354Y-69899500D01*
X145072897Y-69906398D01*
X144920197Y-69938855D01*
X144920192Y-69938857D01*
X144747270Y-70015848D01*
X144747265Y-70015851D01*
X144594129Y-70127111D01*
X144467466Y-70267785D01*
X144372821Y-70431715D01*
X144372818Y-70431722D01*
X144343430Y-70522171D01*
X144314326Y-70611744D01*
X144299750Y-70750432D01*
X144296679Y-70779649D01*
X144270094Y-70844263D01*
X144261039Y-70854368D01*
X142216208Y-72899199D01*
X142203951Y-72909020D01*
X142204134Y-72909241D01*
X142198123Y-72914213D01*
X142150772Y-72964636D01*
X142129889Y-72985519D01*
X142129877Y-72985532D01*
X142125621Y-72991017D01*
X142121837Y-72995447D01*
X142089937Y-73029418D01*
X142089936Y-73029420D01*
X142080284Y-73046976D01*
X142069610Y-73063226D01*
X142057329Y-73079061D01*
X142057324Y-73079068D01*
X142038815Y-73121838D01*
X142036245Y-73127084D01*
X142013803Y-73167906D01*
X142008822Y-73187307D01*
X142002521Y-73205710D01*
X141994562Y-73224102D01*
X141994561Y-73224105D01*
X141987271Y-73270127D01*
X141986087Y-73275846D01*
X141974501Y-73320972D01*
X141974500Y-73320982D01*
X141974500Y-73341016D01*
X141972973Y-73360415D01*
X141969840Y-73380194D01*
X141969840Y-73380195D01*
X141974225Y-73426583D01*
X141974500Y-73432421D01*
X141974500Y-76301312D01*
X141954815Y-76368351D01*
X141942650Y-76384284D01*
X141867466Y-76467784D01*
X141772821Y-76631715D01*
X141772818Y-76631722D01*
X141714327Y-76811740D01*
X141714326Y-76811744D01*
X141694540Y-77000000D01*
X132900500Y-77000000D01*
X132900500Y-67924500D01*
X132920185Y-67857461D01*
X132972989Y-67811706D01*
X133024500Y-67800500D01*
X144975240Y-67800500D01*
X144975383Y-67800528D01*
X144975384Y-67800524D01*
X144999997Y-67800539D01*
X145000000Y-67800541D01*
X145000383Y-67800383D01*
X145000500Y-67800099D01*
X145000499Y-67800099D01*
X145000541Y-67800000D01*
X145000540Y-67799999D01*
X145006893Y-67785025D01*
X145000525Y-67764756D01*
X145000503Y-67762469D01*
X145000663Y-66075651D01*
X145001354Y-66073296D01*
X145000700Y-66026545D01*
X145000799Y-66022072D01*
X145002460Y-65993550D01*
X145004699Y-65955082D01*
X145009312Y-65884586D01*
X145016961Y-65767694D01*
X145018089Y-65759312D01*
X145040169Y-65651609D01*
X145072720Y-65508609D01*
X145074845Y-65501354D01*
X145115004Y-65390049D01*
X145166943Y-65260869D01*
X145169740Y-65254871D01*
X145226399Y-65148731D01*
X145227912Y-65146062D01*
X145297474Y-65030212D01*
X145300680Y-65025398D01*
X145372755Y-64927453D01*
X145375218Y-64924322D01*
X145461491Y-64821733D01*
X145464733Y-64818175D01*
X145550428Y-64731282D01*
X145553970Y-64727964D01*
X145655357Y-64640269D01*
X145658391Y-64637812D01*
X145755389Y-64564337D01*
X145760112Y-64561095D01*
X145875037Y-64489898D01*
X145877636Y-64488379D01*
X145982996Y-64430242D01*
X145988977Y-64427351D01*
X146117378Y-64373641D01*
X146228140Y-64331931D01*
X146235352Y-64329708D01*
X146377862Y-64295179D01*
X146485284Y-64271598D01*
X146493650Y-64270353D01*
X146680715Y-64255500D01*
X146747783Y-64250660D01*
X146752245Y-64250500D01*
X146801795Y-64250500D01*
X146801850Y-64250492D01*
X175450584Y-64246674D01*
X175452676Y-64247288D01*
G37*
%TD.AperFunction*%
%TD*%
M02*
