%TF.GenerationSoftware,KiCad,Pcbnew,7.0.8*%
%TF.CreationDate,2024-01-31T16:08:22-06:00*%
%TF.ProjectId,K33b,4b333362-2e6b-4696-9361-645f70636258,rev?*%
%TF.SameCoordinates,Original*%
%TF.FileFunction,Soldermask,Top*%
%TF.FilePolarity,Negative*%
%FSLAX46Y46*%
G04 Gerber Fmt 4.6, Leading zero omitted, Abs format (unit mm)*
G04 Created by KiCad (PCBNEW 7.0.8) date 2024-01-31 16:08:22*
%MOMM*%
%LPD*%
G01*
G04 APERTURE LIST*
G04 Aperture macros list*
%AMRoundRect*
0 Rectangle with rounded corners*
0 $1 Rounding radius*
0 $2 $3 $4 $5 $6 $7 $8 $9 X,Y pos of 4 corners*
0 Add a 4 corners polygon primitive as box body*
4,1,4,$2,$3,$4,$5,$6,$7,$8,$9,$2,$3,0*
0 Add four circle primitives for the rounded corners*
1,1,$1+$1,$2,$3*
1,1,$1+$1,$4,$5*
1,1,$1+$1,$6,$7*
1,1,$1+$1,$8,$9*
0 Add four rect primitives between the rounded corners*
20,1,$1+$1,$2,$3,$4,$5,0*
20,1,$1+$1,$4,$5,$6,$7,0*
20,1,$1+$1,$6,$7,$8,$9,0*
20,1,$1+$1,$8,$9,$2,$3,0*%
G04 Aperture macros list end*
%ADD10R,0.800000X0.500000*%
%ADD11R,0.800000X0.400000*%
%ADD12RoundRect,0.243750X0.243750X0.456250X-0.243750X0.456250X-0.243750X-0.456250X0.243750X-0.456250X0*%
%ADD13O,1.000000X1.800000*%
%ADD14O,1.000000X2.100000*%
%ADD15R,0.250000X1.400000*%
%ADD16C,0.650000*%
%ADD17RoundRect,0.100000X-0.100000X0.637500X-0.100000X-0.637500X0.100000X-0.637500X0.100000X0.637500X0*%
%ADD18R,1.250000X1.700000*%
%ADD19C,0.700000*%
%ADD20C,2.200000*%
%ADD21C,1.700000*%
%ADD22C,4.000000*%
%ADD23RoundRect,0.250000X-0.262500X-0.450000X0.262500X-0.450000X0.262500X0.450000X-0.262500X0.450000X0*%
%ADD24O,1.700000X1.700000*%
%ADD25R,1.700000X1.700000*%
%ADD26R,1.000000X0.550000*%
%ADD27R,0.550000X1.200000*%
%ADD28R,0.450000X1.200000*%
%ADD29R,0.700000X1.200000*%
%ADD30RoundRect,0.250000X0.250000X0.475000X-0.250000X0.475000X-0.250000X-0.475000X0.250000X-0.475000X0*%
%ADD31RoundRect,0.250000X-0.250000X-0.475000X0.250000X-0.475000X0.250000X0.475000X-0.250000X0.475000X0*%
%ADD32RoundRect,0.250000X0.475000X-0.250000X0.475000X0.250000X-0.475000X0.250000X-0.475000X-0.250000X0*%
G04 APERTURE END LIST*
D10*
%TO.C,RN2*%
X146700000Y-90600000D03*
D11*
X146700000Y-91400000D03*
X146700000Y-92200000D03*
D10*
X146700000Y-93000000D03*
X148500000Y-93000000D03*
D11*
X148500000Y-92200000D03*
X148500000Y-91400000D03*
D10*
X148500000Y-90600000D03*
%TD*%
D12*
%TO.C,D7*%
X155875000Y-93000000D03*
X154000000Y-93000000D03*
%TD*%
%TO.C,D6*%
X155875000Y-89500000D03*
X154000000Y-89500000D03*
%TD*%
D13*
%TO.C,J2*%
X75500000Y-89500000D03*
D14*
X75500000Y-93650000D03*
D13*
X84140000Y-89500000D03*
D14*
X84140000Y-93650000D03*
D15*
X82895000Y-94350000D03*
X82095000Y-94350000D03*
X78570000Y-94350000D03*
X80570000Y-94350000D03*
X79070000Y-94350000D03*
X78070000Y-94350000D03*
X77545000Y-94350000D03*
X76745000Y-94350000D03*
X76495000Y-94350000D03*
X77295000Y-94350000D03*
X81570000Y-94350000D03*
X79570000Y-94350000D03*
X80070000Y-94350000D03*
X81070000Y-94350000D03*
X82345000Y-94350000D03*
X83145000Y-94350000D03*
D16*
X76930000Y-93150000D03*
X82710000Y-93150000D03*
%TD*%
D17*
%TO.C,U1*%
X82575000Y-106275000D03*
X81925000Y-106275000D03*
X81275000Y-106275000D03*
X80625000Y-106275000D03*
X79975000Y-106275000D03*
X79325000Y-106275000D03*
X78675000Y-106275000D03*
X78025000Y-106275000D03*
X77375000Y-106275000D03*
X76725000Y-106275000D03*
X76725000Y-100550000D03*
X77375000Y-100550000D03*
X78025000Y-100550000D03*
X78675000Y-100550000D03*
X79325000Y-100550000D03*
X79975000Y-100550000D03*
X80625000Y-100550000D03*
X81275000Y-100550000D03*
X81925000Y-100550000D03*
X82575000Y-100550000D03*
%TD*%
D18*
%TO.C,SW7*%
X140500000Y-90250000D03*
X136350000Y-90250000D03*
D19*
X138425000Y-91100000D03*
X138425000Y-89400000D03*
%TD*%
D18*
%TO.C,SW6*%
X132750000Y-90250000D03*
X128600000Y-90250000D03*
D19*
X130675000Y-91100000D03*
X130675000Y-89400000D03*
%TD*%
D18*
%TO.C,SW5*%
X120250000Y-90250000D03*
X116100000Y-90250000D03*
D19*
X118175000Y-91100000D03*
X118175000Y-89400000D03*
%TD*%
D20*
%TO.C,SW4*%
X149290000Y-101460000D03*
X155640000Y-98920000D03*
D21*
X158180000Y-104000000D03*
X148020000Y-104000000D03*
D22*
X153100000Y-104000000D03*
%TD*%
D20*
%TO.C,SW3*%
X129970000Y-101460000D03*
X136320000Y-98920000D03*
D21*
X138860000Y-104000000D03*
X128700000Y-104000000D03*
D22*
X133780000Y-104000000D03*
%TD*%
D20*
%TO.C,SW2*%
X110610000Y-101460000D03*
X116960000Y-98920000D03*
D21*
X119500000Y-104000000D03*
X109340000Y-104000000D03*
D22*
X114420000Y-104000000D03*
%TD*%
D20*
%TO.C,SW1*%
X91270000Y-101460000D03*
X97620000Y-98920000D03*
D21*
X100160000Y-104000000D03*
X90000000Y-104000000D03*
D22*
X95080000Y-104000000D03*
%TD*%
D10*
%TO.C,RN1*%
X87750000Y-91350000D03*
D11*
X87750000Y-90550000D03*
X87750000Y-89750000D03*
D10*
X87750000Y-88950000D03*
X89550000Y-88950000D03*
D11*
X89550000Y-89750000D03*
X89550000Y-90550000D03*
D10*
X89550000Y-91350000D03*
%TD*%
D23*
%TO.C,R1*%
X125500000Y-92500000D03*
X123675000Y-92500000D03*
%TD*%
D24*
%TO.C,J1*%
X107850000Y-90200000D03*
X105310000Y-90200000D03*
X102770000Y-90200000D03*
X100230000Y-90200000D03*
X97690000Y-90200000D03*
D25*
X95150000Y-90200000D03*
%TD*%
D26*
%TO.C,D5*%
X168100000Y-115735000D03*
D27*
X167875000Y-115800000D03*
D28*
X166875000Y-115800000D03*
D29*
X165850000Y-115800000D03*
D27*
X164725000Y-115800000D03*
D26*
X164500000Y-115725000D03*
%TD*%
%TO.C,D4*%
X145725000Y-115735000D03*
D27*
X145500000Y-115800000D03*
D28*
X144500000Y-115800000D03*
D29*
X143475000Y-115800000D03*
D27*
X142350000Y-115800000D03*
D26*
X142125000Y-115725000D03*
%TD*%
%TO.C,D3*%
X126000000Y-115735000D03*
D27*
X125775000Y-115800000D03*
D28*
X124775000Y-115800000D03*
D29*
X123750000Y-115800000D03*
D27*
X122625000Y-115800000D03*
D26*
X122400000Y-115725000D03*
%TD*%
%TO.C,D2*%
X102825000Y-115725000D03*
D27*
X103050000Y-115800000D03*
D29*
X104175000Y-115800000D03*
D28*
X105200000Y-115800000D03*
D27*
X106200000Y-115800000D03*
D26*
X106425000Y-115735000D03*
%TD*%
%TO.C,D1*%
X83550000Y-115735000D03*
D27*
X83325000Y-115800000D03*
D28*
X82325000Y-115800000D03*
D29*
X81300000Y-115800000D03*
D27*
X80175000Y-115800000D03*
D26*
X79950000Y-115725000D03*
%TD*%
D30*
%TO.C,C9*%
X165100000Y-111100000D03*
X167000000Y-111100000D03*
%TD*%
D31*
%TO.C,C8*%
X139100000Y-115000000D03*
X137200000Y-115000000D03*
%TD*%
%TO.C,C6*%
X119400000Y-115000000D03*
X117500000Y-115000000D03*
%TD*%
%TO.C,C5*%
X125450000Y-89500000D03*
X123550000Y-89500000D03*
%TD*%
%TO.C,C4*%
X99800000Y-115100000D03*
X97900000Y-115100000D03*
%TD*%
D30*
%TO.C,C3*%
X80900000Y-111300000D03*
X82800000Y-111300000D03*
%TD*%
D32*
%TO.C,C2*%
X74250000Y-103250000D03*
X74250000Y-105150000D03*
%TD*%
%TO.C,C1*%
X74250000Y-99250000D03*
X74250000Y-101150000D03*
%TD*%
M02*
