%TF.GenerationSoftware,KiCad,Pcbnew,7.0.8*%
%TF.CreationDate,2024-01-31T16:08:22-06:00*%
%TF.ProjectId,K33b,4b333362-2e6b-4696-9361-645f70636258,rev?*%
%TF.SameCoordinates,Original*%
%TF.FileFunction,Paste,Top*%
%TF.FilePolarity,Positive*%
%FSLAX46Y46*%
G04 Gerber Fmt 4.6, Leading zero omitted, Abs format (unit mm)*
G04 Created by KiCad (PCBNEW 7.0.8) date 2024-01-31 16:08:22*
%MOMM*%
%LPD*%
G01*
G04 APERTURE LIST*
G04 Aperture macros list*
%AMRoundRect*
0 Rectangle with rounded corners*
0 $1 Rounding radius*
0 $2 $3 $4 $5 $6 $7 $8 $9 X,Y pos of 4 corners*
0 Add a 4 corners polygon primitive as box body*
4,1,4,$2,$3,$4,$5,$6,$7,$8,$9,$2,$3,0*
0 Add four circle primitives for the rounded corners*
1,1,$1+$1,$2,$3*
1,1,$1+$1,$4,$5*
1,1,$1+$1,$6,$7*
1,1,$1+$1,$8,$9*
0 Add four rect primitives between the rounded corners*
20,1,$1+$1,$2,$3,$4,$5,0*
20,1,$1+$1,$4,$5,$6,$7,0*
20,1,$1+$1,$6,$7,$8,$9,0*
20,1,$1+$1,$8,$9,$2,$3,0*%
G04 Aperture macros list end*
%ADD10R,0.800000X0.500000*%
%ADD11R,0.800000X0.400000*%
%ADD12RoundRect,0.243750X0.243750X0.456250X-0.243750X0.456250X-0.243750X-0.456250X0.243750X-0.456250X0*%
%ADD13R,0.250000X1.400000*%
%ADD14RoundRect,0.100000X-0.100000X0.637500X-0.100000X-0.637500X0.100000X-0.637500X0.100000X0.637500X0*%
%ADD15R,1.250000X1.700000*%
%ADD16RoundRect,0.250000X-0.262500X-0.450000X0.262500X-0.450000X0.262500X0.450000X-0.262500X0.450000X0*%
%ADD17R,1.000000X0.550000*%
%ADD18R,0.550000X1.200000*%
%ADD19R,0.450000X1.200000*%
%ADD20R,0.700000X1.200000*%
%ADD21RoundRect,0.250000X0.250000X0.475000X-0.250000X0.475000X-0.250000X-0.475000X0.250000X-0.475000X0*%
%ADD22RoundRect,0.250000X-0.250000X-0.475000X0.250000X-0.475000X0.250000X0.475000X-0.250000X0.475000X0*%
%ADD23RoundRect,0.250000X0.475000X-0.250000X0.475000X0.250000X-0.475000X0.250000X-0.475000X-0.250000X0*%
G04 APERTURE END LIST*
D10*
%TO.C,RN2*%
X146700000Y-90600000D03*
D11*
X146700000Y-91400000D03*
X146700000Y-92200000D03*
D10*
X146700000Y-93000000D03*
X148500000Y-93000000D03*
D11*
X148500000Y-92200000D03*
X148500000Y-91400000D03*
D10*
X148500000Y-90600000D03*
%TD*%
D12*
%TO.C,D7*%
X155875000Y-93000000D03*
X154000000Y-93000000D03*
%TD*%
%TO.C,D6*%
X155875000Y-89500000D03*
X154000000Y-89500000D03*
%TD*%
D13*
%TO.C,J2*%
X82895000Y-94350000D03*
X82095000Y-94350000D03*
X78570000Y-94350000D03*
X80570000Y-94350000D03*
X79070000Y-94350000D03*
X78070000Y-94350000D03*
X77545000Y-94350000D03*
X76745000Y-94350000D03*
X76495000Y-94350000D03*
X77295000Y-94350000D03*
X81570000Y-94350000D03*
X79570000Y-94350000D03*
X80070000Y-94350000D03*
X81070000Y-94350000D03*
X82345000Y-94350000D03*
X83145000Y-94350000D03*
%TD*%
D14*
%TO.C,U1*%
X82575000Y-106275000D03*
X81925000Y-106275000D03*
X81275000Y-106275000D03*
X80625000Y-106275000D03*
X79975000Y-106275000D03*
X79325000Y-106275000D03*
X78675000Y-106275000D03*
X78025000Y-106275000D03*
X77375000Y-106275000D03*
X76725000Y-106275000D03*
X76725000Y-100550000D03*
X77375000Y-100550000D03*
X78025000Y-100550000D03*
X78675000Y-100550000D03*
X79325000Y-100550000D03*
X79975000Y-100550000D03*
X80625000Y-100550000D03*
X81275000Y-100550000D03*
X81925000Y-100550000D03*
X82575000Y-100550000D03*
%TD*%
D15*
%TO.C,SW7*%
X140500000Y-90250000D03*
X136350000Y-90250000D03*
%TD*%
%TO.C,SW6*%
X132750000Y-90250000D03*
X128600000Y-90250000D03*
%TD*%
%TO.C,SW5*%
X120250000Y-90250000D03*
X116100000Y-90250000D03*
%TD*%
D10*
%TO.C,RN1*%
X87750000Y-91350000D03*
D11*
X87750000Y-90550000D03*
X87750000Y-89750000D03*
D10*
X87750000Y-88950000D03*
X89550000Y-88950000D03*
D11*
X89550000Y-89750000D03*
X89550000Y-90550000D03*
D10*
X89550000Y-91350000D03*
%TD*%
D16*
%TO.C,R1*%
X125500000Y-92500000D03*
X123675000Y-92500000D03*
%TD*%
D17*
%TO.C,D5*%
X168100000Y-115735000D03*
D18*
X167875000Y-115800000D03*
D19*
X166875000Y-115800000D03*
D20*
X165850000Y-115800000D03*
D18*
X164725000Y-115800000D03*
D17*
X164500000Y-115725000D03*
%TD*%
%TO.C,D4*%
X145725000Y-115735000D03*
D18*
X145500000Y-115800000D03*
D19*
X144500000Y-115800000D03*
D20*
X143475000Y-115800000D03*
D18*
X142350000Y-115800000D03*
D17*
X142125000Y-115725000D03*
%TD*%
%TO.C,D3*%
X126000000Y-115735000D03*
D18*
X125775000Y-115800000D03*
D19*
X124775000Y-115800000D03*
D20*
X123750000Y-115800000D03*
D18*
X122625000Y-115800000D03*
D17*
X122400000Y-115725000D03*
%TD*%
%TO.C,D2*%
X102825000Y-115725000D03*
D18*
X103050000Y-115800000D03*
D20*
X104175000Y-115800000D03*
D19*
X105200000Y-115800000D03*
D18*
X106200000Y-115800000D03*
D17*
X106425000Y-115735000D03*
%TD*%
%TO.C,D1*%
X83550000Y-115735000D03*
D18*
X83325000Y-115800000D03*
D19*
X82325000Y-115800000D03*
D20*
X81300000Y-115800000D03*
D18*
X80175000Y-115800000D03*
D17*
X79950000Y-115725000D03*
%TD*%
D21*
%TO.C,C9*%
X165100000Y-111100000D03*
X167000000Y-111100000D03*
%TD*%
D22*
%TO.C,C8*%
X139100000Y-115000000D03*
X137200000Y-115000000D03*
%TD*%
%TO.C,C6*%
X119400000Y-115000000D03*
X117500000Y-115000000D03*
%TD*%
%TO.C,C5*%
X125450000Y-89500000D03*
X123550000Y-89500000D03*
%TD*%
%TO.C,C4*%
X99800000Y-115100000D03*
X97900000Y-115100000D03*
%TD*%
D21*
%TO.C,C3*%
X80900000Y-111300000D03*
X82800000Y-111300000D03*
%TD*%
D23*
%TO.C,C2*%
X74250000Y-103250000D03*
X74250000Y-105150000D03*
%TD*%
%TO.C,C1*%
X74250000Y-99250000D03*
X74250000Y-101150000D03*
%TD*%
M02*
