%TF.GenerationSoftware,KiCad,Pcbnew,7.0.8*%
%TF.CreationDate,2024-01-31T16:08:22-06:00*%
%TF.ProjectId,K33b,4b333362-2e6b-4696-9361-645f70636258,rev?*%
%TF.SameCoordinates,Original*%
%TF.FileFunction,Legend,Top*%
%TF.FilePolarity,Positive*%
%FSLAX46Y46*%
G04 Gerber Fmt 4.6, Leading zero omitted, Abs format (unit mm)*
G04 Created by KiCad (PCBNEW 7.0.8) date 2024-01-31 16:08:22*
%MOMM*%
%LPD*%
G01*
G04 APERTURE LIST*
%ADD10C,0.150000*%
%ADD11C,0.120000*%
G04 APERTURE END LIST*
D10*
X146909523Y-89454819D02*
X146576190Y-88978628D01*
X146338095Y-89454819D02*
X146338095Y-88454819D01*
X146338095Y-88454819D02*
X146719047Y-88454819D01*
X146719047Y-88454819D02*
X146814285Y-88502438D01*
X146814285Y-88502438D02*
X146861904Y-88550057D01*
X146861904Y-88550057D02*
X146909523Y-88645295D01*
X146909523Y-88645295D02*
X146909523Y-88788152D01*
X146909523Y-88788152D02*
X146861904Y-88883390D01*
X146861904Y-88883390D02*
X146814285Y-88931009D01*
X146814285Y-88931009D02*
X146719047Y-88978628D01*
X146719047Y-88978628D02*
X146338095Y-88978628D01*
X147338095Y-89454819D02*
X147338095Y-88454819D01*
X147338095Y-88454819D02*
X147909523Y-89454819D01*
X147909523Y-89454819D02*
X147909523Y-88454819D01*
X148338095Y-88550057D02*
X148385714Y-88502438D01*
X148385714Y-88502438D02*
X148480952Y-88454819D01*
X148480952Y-88454819D02*
X148719047Y-88454819D01*
X148719047Y-88454819D02*
X148814285Y-88502438D01*
X148814285Y-88502438D02*
X148861904Y-88550057D01*
X148861904Y-88550057D02*
X148909523Y-88645295D01*
X148909523Y-88645295D02*
X148909523Y-88740533D01*
X148909523Y-88740533D02*
X148861904Y-88883390D01*
X148861904Y-88883390D02*
X148290476Y-89454819D01*
X148290476Y-89454819D02*
X148909523Y-89454819D01*
X154199405Y-95104819D02*
X154199405Y-94104819D01*
X154199405Y-94104819D02*
X154437500Y-94104819D01*
X154437500Y-94104819D02*
X154580357Y-94152438D01*
X154580357Y-94152438D02*
X154675595Y-94247676D01*
X154675595Y-94247676D02*
X154723214Y-94342914D01*
X154723214Y-94342914D02*
X154770833Y-94533390D01*
X154770833Y-94533390D02*
X154770833Y-94676247D01*
X154770833Y-94676247D02*
X154723214Y-94866723D01*
X154723214Y-94866723D02*
X154675595Y-94961961D01*
X154675595Y-94961961D02*
X154580357Y-95057200D01*
X154580357Y-95057200D02*
X154437500Y-95104819D01*
X154437500Y-95104819D02*
X154199405Y-95104819D01*
X155104167Y-94104819D02*
X155770833Y-94104819D01*
X155770833Y-94104819D02*
X155342262Y-95104819D01*
X154199405Y-91604819D02*
X154199405Y-90604819D01*
X154199405Y-90604819D02*
X154437500Y-90604819D01*
X154437500Y-90604819D02*
X154580357Y-90652438D01*
X154580357Y-90652438D02*
X154675595Y-90747676D01*
X154675595Y-90747676D02*
X154723214Y-90842914D01*
X154723214Y-90842914D02*
X154770833Y-91033390D01*
X154770833Y-91033390D02*
X154770833Y-91176247D01*
X154770833Y-91176247D02*
X154723214Y-91366723D01*
X154723214Y-91366723D02*
X154675595Y-91461961D01*
X154675595Y-91461961D02*
X154580357Y-91557200D01*
X154580357Y-91557200D02*
X154437500Y-91604819D01*
X154437500Y-91604819D02*
X154199405Y-91604819D01*
X155627976Y-90604819D02*
X155437500Y-90604819D01*
X155437500Y-90604819D02*
X155342262Y-90652438D01*
X155342262Y-90652438D02*
X155294643Y-90700057D01*
X155294643Y-90700057D02*
X155199405Y-90842914D01*
X155199405Y-90842914D02*
X155151786Y-91033390D01*
X155151786Y-91033390D02*
X155151786Y-91414342D01*
X155151786Y-91414342D02*
X155199405Y-91509580D01*
X155199405Y-91509580D02*
X155247024Y-91557200D01*
X155247024Y-91557200D02*
X155342262Y-91604819D01*
X155342262Y-91604819D02*
X155532738Y-91604819D01*
X155532738Y-91604819D02*
X155627976Y-91557200D01*
X155627976Y-91557200D02*
X155675595Y-91509580D01*
X155675595Y-91509580D02*
X155723214Y-91414342D01*
X155723214Y-91414342D02*
X155723214Y-91176247D01*
X155723214Y-91176247D02*
X155675595Y-91081009D01*
X155675595Y-91081009D02*
X155627976Y-91033390D01*
X155627976Y-91033390D02*
X155532738Y-90985771D01*
X155532738Y-90985771D02*
X155342262Y-90985771D01*
X155342262Y-90985771D02*
X155247024Y-91033390D01*
X155247024Y-91033390D02*
X155199405Y-91081009D01*
X155199405Y-91081009D02*
X155151786Y-91176247D01*
X73699819Y-89283333D02*
X74414104Y-89283333D01*
X74414104Y-89283333D02*
X74556961Y-89330952D01*
X74556961Y-89330952D02*
X74652200Y-89426190D01*
X74652200Y-89426190D02*
X74699819Y-89569047D01*
X74699819Y-89569047D02*
X74699819Y-89664285D01*
X73795057Y-88854761D02*
X73747438Y-88807142D01*
X73747438Y-88807142D02*
X73699819Y-88711904D01*
X73699819Y-88711904D02*
X73699819Y-88473809D01*
X73699819Y-88473809D02*
X73747438Y-88378571D01*
X73747438Y-88378571D02*
X73795057Y-88330952D01*
X73795057Y-88330952D02*
X73890295Y-88283333D01*
X73890295Y-88283333D02*
X73985533Y-88283333D01*
X73985533Y-88283333D02*
X74128390Y-88330952D01*
X74128390Y-88330952D02*
X74699819Y-88902380D01*
X74699819Y-88902380D02*
X74699819Y-88283333D01*
X83304819Y-104174404D02*
X84114342Y-104174404D01*
X84114342Y-104174404D02*
X84209580Y-104126785D01*
X84209580Y-104126785D02*
X84257200Y-104079166D01*
X84257200Y-104079166D02*
X84304819Y-103983928D01*
X84304819Y-103983928D02*
X84304819Y-103793452D01*
X84304819Y-103793452D02*
X84257200Y-103698214D01*
X84257200Y-103698214D02*
X84209580Y-103650595D01*
X84209580Y-103650595D02*
X84114342Y-103602976D01*
X84114342Y-103602976D02*
X83304819Y-103602976D01*
X84304819Y-102602976D02*
X84304819Y-103174404D01*
X84304819Y-102888690D02*
X83304819Y-102888690D01*
X83304819Y-102888690D02*
X83447676Y-102983928D01*
X83447676Y-102983928D02*
X83542914Y-103079166D01*
X83542914Y-103079166D02*
X83590533Y-103174404D01*
X137101667Y-88737200D02*
X137244524Y-88784819D01*
X137244524Y-88784819D02*
X137482619Y-88784819D01*
X137482619Y-88784819D02*
X137577857Y-88737200D01*
X137577857Y-88737200D02*
X137625476Y-88689580D01*
X137625476Y-88689580D02*
X137673095Y-88594342D01*
X137673095Y-88594342D02*
X137673095Y-88499104D01*
X137673095Y-88499104D02*
X137625476Y-88403866D01*
X137625476Y-88403866D02*
X137577857Y-88356247D01*
X137577857Y-88356247D02*
X137482619Y-88308628D01*
X137482619Y-88308628D02*
X137292143Y-88261009D01*
X137292143Y-88261009D02*
X137196905Y-88213390D01*
X137196905Y-88213390D02*
X137149286Y-88165771D01*
X137149286Y-88165771D02*
X137101667Y-88070533D01*
X137101667Y-88070533D02*
X137101667Y-87975295D01*
X137101667Y-87975295D02*
X137149286Y-87880057D01*
X137149286Y-87880057D02*
X137196905Y-87832438D01*
X137196905Y-87832438D02*
X137292143Y-87784819D01*
X137292143Y-87784819D02*
X137530238Y-87784819D01*
X137530238Y-87784819D02*
X137673095Y-87832438D01*
X138006429Y-87784819D02*
X138244524Y-88784819D01*
X138244524Y-88784819D02*
X138435000Y-88070533D01*
X138435000Y-88070533D02*
X138625476Y-88784819D01*
X138625476Y-88784819D02*
X138863572Y-87784819D01*
X139149286Y-87784819D02*
X139815952Y-87784819D01*
X139815952Y-87784819D02*
X139387381Y-88784819D01*
X129351667Y-88737200D02*
X129494524Y-88784819D01*
X129494524Y-88784819D02*
X129732619Y-88784819D01*
X129732619Y-88784819D02*
X129827857Y-88737200D01*
X129827857Y-88737200D02*
X129875476Y-88689580D01*
X129875476Y-88689580D02*
X129923095Y-88594342D01*
X129923095Y-88594342D02*
X129923095Y-88499104D01*
X129923095Y-88499104D02*
X129875476Y-88403866D01*
X129875476Y-88403866D02*
X129827857Y-88356247D01*
X129827857Y-88356247D02*
X129732619Y-88308628D01*
X129732619Y-88308628D02*
X129542143Y-88261009D01*
X129542143Y-88261009D02*
X129446905Y-88213390D01*
X129446905Y-88213390D02*
X129399286Y-88165771D01*
X129399286Y-88165771D02*
X129351667Y-88070533D01*
X129351667Y-88070533D02*
X129351667Y-87975295D01*
X129351667Y-87975295D02*
X129399286Y-87880057D01*
X129399286Y-87880057D02*
X129446905Y-87832438D01*
X129446905Y-87832438D02*
X129542143Y-87784819D01*
X129542143Y-87784819D02*
X129780238Y-87784819D01*
X129780238Y-87784819D02*
X129923095Y-87832438D01*
X130256429Y-87784819D02*
X130494524Y-88784819D01*
X130494524Y-88784819D02*
X130685000Y-88070533D01*
X130685000Y-88070533D02*
X130875476Y-88784819D01*
X130875476Y-88784819D02*
X131113572Y-87784819D01*
X131923095Y-87784819D02*
X131732619Y-87784819D01*
X131732619Y-87784819D02*
X131637381Y-87832438D01*
X131637381Y-87832438D02*
X131589762Y-87880057D01*
X131589762Y-87880057D02*
X131494524Y-88022914D01*
X131494524Y-88022914D02*
X131446905Y-88213390D01*
X131446905Y-88213390D02*
X131446905Y-88594342D01*
X131446905Y-88594342D02*
X131494524Y-88689580D01*
X131494524Y-88689580D02*
X131542143Y-88737200D01*
X131542143Y-88737200D02*
X131637381Y-88784819D01*
X131637381Y-88784819D02*
X131827857Y-88784819D01*
X131827857Y-88784819D02*
X131923095Y-88737200D01*
X131923095Y-88737200D02*
X131970714Y-88689580D01*
X131970714Y-88689580D02*
X132018333Y-88594342D01*
X132018333Y-88594342D02*
X132018333Y-88356247D01*
X132018333Y-88356247D02*
X131970714Y-88261009D01*
X131970714Y-88261009D02*
X131923095Y-88213390D01*
X131923095Y-88213390D02*
X131827857Y-88165771D01*
X131827857Y-88165771D02*
X131637381Y-88165771D01*
X131637381Y-88165771D02*
X131542143Y-88213390D01*
X131542143Y-88213390D02*
X131494524Y-88261009D01*
X131494524Y-88261009D02*
X131446905Y-88356247D01*
X116851667Y-88737200D02*
X116994524Y-88784819D01*
X116994524Y-88784819D02*
X117232619Y-88784819D01*
X117232619Y-88784819D02*
X117327857Y-88737200D01*
X117327857Y-88737200D02*
X117375476Y-88689580D01*
X117375476Y-88689580D02*
X117423095Y-88594342D01*
X117423095Y-88594342D02*
X117423095Y-88499104D01*
X117423095Y-88499104D02*
X117375476Y-88403866D01*
X117375476Y-88403866D02*
X117327857Y-88356247D01*
X117327857Y-88356247D02*
X117232619Y-88308628D01*
X117232619Y-88308628D02*
X117042143Y-88261009D01*
X117042143Y-88261009D02*
X116946905Y-88213390D01*
X116946905Y-88213390D02*
X116899286Y-88165771D01*
X116899286Y-88165771D02*
X116851667Y-88070533D01*
X116851667Y-88070533D02*
X116851667Y-87975295D01*
X116851667Y-87975295D02*
X116899286Y-87880057D01*
X116899286Y-87880057D02*
X116946905Y-87832438D01*
X116946905Y-87832438D02*
X117042143Y-87784819D01*
X117042143Y-87784819D02*
X117280238Y-87784819D01*
X117280238Y-87784819D02*
X117423095Y-87832438D01*
X117756429Y-87784819D02*
X117994524Y-88784819D01*
X117994524Y-88784819D02*
X118185000Y-88070533D01*
X118185000Y-88070533D02*
X118375476Y-88784819D01*
X118375476Y-88784819D02*
X118613572Y-87784819D01*
X119470714Y-87784819D02*
X118994524Y-87784819D01*
X118994524Y-87784819D02*
X118946905Y-88261009D01*
X118946905Y-88261009D02*
X118994524Y-88213390D01*
X118994524Y-88213390D02*
X119089762Y-88165771D01*
X119089762Y-88165771D02*
X119327857Y-88165771D01*
X119327857Y-88165771D02*
X119423095Y-88213390D01*
X119423095Y-88213390D02*
X119470714Y-88261009D01*
X119470714Y-88261009D02*
X119518333Y-88356247D01*
X119518333Y-88356247D02*
X119518333Y-88594342D01*
X119518333Y-88594342D02*
X119470714Y-88689580D01*
X119470714Y-88689580D02*
X119423095Y-88737200D01*
X119423095Y-88737200D02*
X119327857Y-88784819D01*
X119327857Y-88784819D02*
X119089762Y-88784819D01*
X119089762Y-88784819D02*
X118994524Y-88737200D01*
X118994524Y-88737200D02*
X118946905Y-88689580D01*
X151766667Y-96533200D02*
X151909524Y-96580819D01*
X151909524Y-96580819D02*
X152147619Y-96580819D01*
X152147619Y-96580819D02*
X152242857Y-96533200D01*
X152242857Y-96533200D02*
X152290476Y-96485580D01*
X152290476Y-96485580D02*
X152338095Y-96390342D01*
X152338095Y-96390342D02*
X152338095Y-96295104D01*
X152338095Y-96295104D02*
X152290476Y-96199866D01*
X152290476Y-96199866D02*
X152242857Y-96152247D01*
X152242857Y-96152247D02*
X152147619Y-96104628D01*
X152147619Y-96104628D02*
X151957143Y-96057009D01*
X151957143Y-96057009D02*
X151861905Y-96009390D01*
X151861905Y-96009390D02*
X151814286Y-95961771D01*
X151814286Y-95961771D02*
X151766667Y-95866533D01*
X151766667Y-95866533D02*
X151766667Y-95771295D01*
X151766667Y-95771295D02*
X151814286Y-95676057D01*
X151814286Y-95676057D02*
X151861905Y-95628438D01*
X151861905Y-95628438D02*
X151957143Y-95580819D01*
X151957143Y-95580819D02*
X152195238Y-95580819D01*
X152195238Y-95580819D02*
X152338095Y-95628438D01*
X152671429Y-95580819D02*
X152909524Y-96580819D01*
X152909524Y-96580819D02*
X153100000Y-95866533D01*
X153100000Y-95866533D02*
X153290476Y-96580819D01*
X153290476Y-96580819D02*
X153528572Y-95580819D01*
X154338095Y-95914152D02*
X154338095Y-96580819D01*
X154100000Y-95533200D02*
X153861905Y-96247485D01*
X153861905Y-96247485D02*
X154480952Y-96247485D01*
X132446667Y-96533200D02*
X132589524Y-96580819D01*
X132589524Y-96580819D02*
X132827619Y-96580819D01*
X132827619Y-96580819D02*
X132922857Y-96533200D01*
X132922857Y-96533200D02*
X132970476Y-96485580D01*
X132970476Y-96485580D02*
X133018095Y-96390342D01*
X133018095Y-96390342D02*
X133018095Y-96295104D01*
X133018095Y-96295104D02*
X132970476Y-96199866D01*
X132970476Y-96199866D02*
X132922857Y-96152247D01*
X132922857Y-96152247D02*
X132827619Y-96104628D01*
X132827619Y-96104628D02*
X132637143Y-96057009D01*
X132637143Y-96057009D02*
X132541905Y-96009390D01*
X132541905Y-96009390D02*
X132494286Y-95961771D01*
X132494286Y-95961771D02*
X132446667Y-95866533D01*
X132446667Y-95866533D02*
X132446667Y-95771295D01*
X132446667Y-95771295D02*
X132494286Y-95676057D01*
X132494286Y-95676057D02*
X132541905Y-95628438D01*
X132541905Y-95628438D02*
X132637143Y-95580819D01*
X132637143Y-95580819D02*
X132875238Y-95580819D01*
X132875238Y-95580819D02*
X133018095Y-95628438D01*
X133351429Y-95580819D02*
X133589524Y-96580819D01*
X133589524Y-96580819D02*
X133780000Y-95866533D01*
X133780000Y-95866533D02*
X133970476Y-96580819D01*
X133970476Y-96580819D02*
X134208572Y-95580819D01*
X134494286Y-95580819D02*
X135113333Y-95580819D01*
X135113333Y-95580819D02*
X134780000Y-95961771D01*
X134780000Y-95961771D02*
X134922857Y-95961771D01*
X134922857Y-95961771D02*
X135018095Y-96009390D01*
X135018095Y-96009390D02*
X135065714Y-96057009D01*
X135065714Y-96057009D02*
X135113333Y-96152247D01*
X135113333Y-96152247D02*
X135113333Y-96390342D01*
X135113333Y-96390342D02*
X135065714Y-96485580D01*
X135065714Y-96485580D02*
X135018095Y-96533200D01*
X135018095Y-96533200D02*
X134922857Y-96580819D01*
X134922857Y-96580819D02*
X134637143Y-96580819D01*
X134637143Y-96580819D02*
X134541905Y-96533200D01*
X134541905Y-96533200D02*
X134494286Y-96485580D01*
X113086667Y-96533200D02*
X113229524Y-96580819D01*
X113229524Y-96580819D02*
X113467619Y-96580819D01*
X113467619Y-96580819D02*
X113562857Y-96533200D01*
X113562857Y-96533200D02*
X113610476Y-96485580D01*
X113610476Y-96485580D02*
X113658095Y-96390342D01*
X113658095Y-96390342D02*
X113658095Y-96295104D01*
X113658095Y-96295104D02*
X113610476Y-96199866D01*
X113610476Y-96199866D02*
X113562857Y-96152247D01*
X113562857Y-96152247D02*
X113467619Y-96104628D01*
X113467619Y-96104628D02*
X113277143Y-96057009D01*
X113277143Y-96057009D02*
X113181905Y-96009390D01*
X113181905Y-96009390D02*
X113134286Y-95961771D01*
X113134286Y-95961771D02*
X113086667Y-95866533D01*
X113086667Y-95866533D02*
X113086667Y-95771295D01*
X113086667Y-95771295D02*
X113134286Y-95676057D01*
X113134286Y-95676057D02*
X113181905Y-95628438D01*
X113181905Y-95628438D02*
X113277143Y-95580819D01*
X113277143Y-95580819D02*
X113515238Y-95580819D01*
X113515238Y-95580819D02*
X113658095Y-95628438D01*
X113991429Y-95580819D02*
X114229524Y-96580819D01*
X114229524Y-96580819D02*
X114420000Y-95866533D01*
X114420000Y-95866533D02*
X114610476Y-96580819D01*
X114610476Y-96580819D02*
X114848572Y-95580819D01*
X115181905Y-95676057D02*
X115229524Y-95628438D01*
X115229524Y-95628438D02*
X115324762Y-95580819D01*
X115324762Y-95580819D02*
X115562857Y-95580819D01*
X115562857Y-95580819D02*
X115658095Y-95628438D01*
X115658095Y-95628438D02*
X115705714Y-95676057D01*
X115705714Y-95676057D02*
X115753333Y-95771295D01*
X115753333Y-95771295D02*
X115753333Y-95866533D01*
X115753333Y-95866533D02*
X115705714Y-96009390D01*
X115705714Y-96009390D02*
X115134286Y-96580819D01*
X115134286Y-96580819D02*
X115753333Y-96580819D01*
X93746667Y-96533200D02*
X93889524Y-96580819D01*
X93889524Y-96580819D02*
X94127619Y-96580819D01*
X94127619Y-96580819D02*
X94222857Y-96533200D01*
X94222857Y-96533200D02*
X94270476Y-96485580D01*
X94270476Y-96485580D02*
X94318095Y-96390342D01*
X94318095Y-96390342D02*
X94318095Y-96295104D01*
X94318095Y-96295104D02*
X94270476Y-96199866D01*
X94270476Y-96199866D02*
X94222857Y-96152247D01*
X94222857Y-96152247D02*
X94127619Y-96104628D01*
X94127619Y-96104628D02*
X93937143Y-96057009D01*
X93937143Y-96057009D02*
X93841905Y-96009390D01*
X93841905Y-96009390D02*
X93794286Y-95961771D01*
X93794286Y-95961771D02*
X93746667Y-95866533D01*
X93746667Y-95866533D02*
X93746667Y-95771295D01*
X93746667Y-95771295D02*
X93794286Y-95676057D01*
X93794286Y-95676057D02*
X93841905Y-95628438D01*
X93841905Y-95628438D02*
X93937143Y-95580819D01*
X93937143Y-95580819D02*
X94175238Y-95580819D01*
X94175238Y-95580819D02*
X94318095Y-95628438D01*
X94651429Y-95580819D02*
X94889524Y-96580819D01*
X94889524Y-96580819D02*
X95080000Y-95866533D01*
X95080000Y-95866533D02*
X95270476Y-96580819D01*
X95270476Y-96580819D02*
X95508572Y-95580819D01*
X96413333Y-96580819D02*
X95841905Y-96580819D01*
X96127619Y-96580819D02*
X96127619Y-95580819D01*
X96127619Y-95580819D02*
X96032381Y-95723676D01*
X96032381Y-95723676D02*
X95937143Y-95818914D01*
X95937143Y-95818914D02*
X95841905Y-95866533D01*
X87959523Y-93404819D02*
X87626190Y-92928628D01*
X87388095Y-93404819D02*
X87388095Y-92404819D01*
X87388095Y-92404819D02*
X87769047Y-92404819D01*
X87769047Y-92404819D02*
X87864285Y-92452438D01*
X87864285Y-92452438D02*
X87911904Y-92500057D01*
X87911904Y-92500057D02*
X87959523Y-92595295D01*
X87959523Y-92595295D02*
X87959523Y-92738152D01*
X87959523Y-92738152D02*
X87911904Y-92833390D01*
X87911904Y-92833390D02*
X87864285Y-92881009D01*
X87864285Y-92881009D02*
X87769047Y-92928628D01*
X87769047Y-92928628D02*
X87388095Y-92928628D01*
X88388095Y-93404819D02*
X88388095Y-92404819D01*
X88388095Y-92404819D02*
X88959523Y-93404819D01*
X88959523Y-93404819D02*
X88959523Y-92404819D01*
X89959523Y-93404819D02*
X89388095Y-93404819D01*
X89673809Y-93404819D02*
X89673809Y-92404819D01*
X89673809Y-92404819D02*
X89578571Y-92547676D01*
X89578571Y-92547676D02*
X89483333Y-92642914D01*
X89483333Y-92642914D02*
X89388095Y-92690533D01*
X124420833Y-91304819D02*
X124087500Y-90828628D01*
X123849405Y-91304819D02*
X123849405Y-90304819D01*
X123849405Y-90304819D02*
X124230357Y-90304819D01*
X124230357Y-90304819D02*
X124325595Y-90352438D01*
X124325595Y-90352438D02*
X124373214Y-90400057D01*
X124373214Y-90400057D02*
X124420833Y-90495295D01*
X124420833Y-90495295D02*
X124420833Y-90638152D01*
X124420833Y-90638152D02*
X124373214Y-90733390D01*
X124373214Y-90733390D02*
X124325595Y-90781009D01*
X124325595Y-90781009D02*
X124230357Y-90828628D01*
X124230357Y-90828628D02*
X123849405Y-90828628D01*
X125373214Y-91304819D02*
X124801786Y-91304819D01*
X125087500Y-91304819D02*
X125087500Y-90304819D01*
X125087500Y-90304819D02*
X124992262Y-90447676D01*
X124992262Y-90447676D02*
X124897024Y-90542914D01*
X124897024Y-90542914D02*
X124801786Y-90590533D01*
X92274819Y-90533333D02*
X92989104Y-90533333D01*
X92989104Y-90533333D02*
X93131961Y-90580952D01*
X93131961Y-90580952D02*
X93227200Y-90676190D01*
X93227200Y-90676190D02*
X93274819Y-90819047D01*
X93274819Y-90819047D02*
X93274819Y-90914285D01*
X93274819Y-89533333D02*
X93274819Y-90104761D01*
X93274819Y-89819047D02*
X92274819Y-89819047D01*
X92274819Y-89819047D02*
X92417676Y-89914285D01*
X92417676Y-89914285D02*
X92512914Y-90009523D01*
X92512914Y-90009523D02*
X92560533Y-90104761D01*
X165461905Y-114964819D02*
X165461905Y-113964819D01*
X165461905Y-113964819D02*
X165700000Y-113964819D01*
X165700000Y-113964819D02*
X165842857Y-114012438D01*
X165842857Y-114012438D02*
X165938095Y-114107676D01*
X165938095Y-114107676D02*
X165985714Y-114202914D01*
X165985714Y-114202914D02*
X166033333Y-114393390D01*
X166033333Y-114393390D02*
X166033333Y-114536247D01*
X166033333Y-114536247D02*
X165985714Y-114726723D01*
X165985714Y-114726723D02*
X165938095Y-114821961D01*
X165938095Y-114821961D02*
X165842857Y-114917200D01*
X165842857Y-114917200D02*
X165700000Y-114964819D01*
X165700000Y-114964819D02*
X165461905Y-114964819D01*
X166938095Y-113964819D02*
X166461905Y-113964819D01*
X166461905Y-113964819D02*
X166414286Y-114441009D01*
X166414286Y-114441009D02*
X166461905Y-114393390D01*
X166461905Y-114393390D02*
X166557143Y-114345771D01*
X166557143Y-114345771D02*
X166795238Y-114345771D01*
X166795238Y-114345771D02*
X166890476Y-114393390D01*
X166890476Y-114393390D02*
X166938095Y-114441009D01*
X166938095Y-114441009D02*
X166985714Y-114536247D01*
X166985714Y-114536247D02*
X166985714Y-114774342D01*
X166985714Y-114774342D02*
X166938095Y-114869580D01*
X166938095Y-114869580D02*
X166890476Y-114917200D01*
X166890476Y-114917200D02*
X166795238Y-114964819D01*
X166795238Y-114964819D02*
X166557143Y-114964819D01*
X166557143Y-114964819D02*
X166461905Y-114917200D01*
X166461905Y-114917200D02*
X166414286Y-114869580D01*
X143086905Y-114964819D02*
X143086905Y-113964819D01*
X143086905Y-113964819D02*
X143325000Y-113964819D01*
X143325000Y-113964819D02*
X143467857Y-114012438D01*
X143467857Y-114012438D02*
X143563095Y-114107676D01*
X143563095Y-114107676D02*
X143610714Y-114202914D01*
X143610714Y-114202914D02*
X143658333Y-114393390D01*
X143658333Y-114393390D02*
X143658333Y-114536247D01*
X143658333Y-114536247D02*
X143610714Y-114726723D01*
X143610714Y-114726723D02*
X143563095Y-114821961D01*
X143563095Y-114821961D02*
X143467857Y-114917200D01*
X143467857Y-114917200D02*
X143325000Y-114964819D01*
X143325000Y-114964819D02*
X143086905Y-114964819D01*
X144515476Y-114298152D02*
X144515476Y-114964819D01*
X144277381Y-113917200D02*
X144039286Y-114631485D01*
X144039286Y-114631485D02*
X144658333Y-114631485D01*
X123361905Y-114964819D02*
X123361905Y-113964819D01*
X123361905Y-113964819D02*
X123600000Y-113964819D01*
X123600000Y-113964819D02*
X123742857Y-114012438D01*
X123742857Y-114012438D02*
X123838095Y-114107676D01*
X123838095Y-114107676D02*
X123885714Y-114202914D01*
X123885714Y-114202914D02*
X123933333Y-114393390D01*
X123933333Y-114393390D02*
X123933333Y-114536247D01*
X123933333Y-114536247D02*
X123885714Y-114726723D01*
X123885714Y-114726723D02*
X123838095Y-114821961D01*
X123838095Y-114821961D02*
X123742857Y-114917200D01*
X123742857Y-114917200D02*
X123600000Y-114964819D01*
X123600000Y-114964819D02*
X123361905Y-114964819D01*
X124266667Y-113964819D02*
X124885714Y-113964819D01*
X124885714Y-113964819D02*
X124552381Y-114345771D01*
X124552381Y-114345771D02*
X124695238Y-114345771D01*
X124695238Y-114345771D02*
X124790476Y-114393390D01*
X124790476Y-114393390D02*
X124838095Y-114441009D01*
X124838095Y-114441009D02*
X124885714Y-114536247D01*
X124885714Y-114536247D02*
X124885714Y-114774342D01*
X124885714Y-114774342D02*
X124838095Y-114869580D01*
X124838095Y-114869580D02*
X124790476Y-114917200D01*
X124790476Y-114917200D02*
X124695238Y-114964819D01*
X124695238Y-114964819D02*
X124409524Y-114964819D01*
X124409524Y-114964819D02*
X124314286Y-114917200D01*
X124314286Y-114917200D02*
X124266667Y-114869580D01*
X103786905Y-114964819D02*
X103786905Y-113964819D01*
X103786905Y-113964819D02*
X104025000Y-113964819D01*
X104025000Y-113964819D02*
X104167857Y-114012438D01*
X104167857Y-114012438D02*
X104263095Y-114107676D01*
X104263095Y-114107676D02*
X104310714Y-114202914D01*
X104310714Y-114202914D02*
X104358333Y-114393390D01*
X104358333Y-114393390D02*
X104358333Y-114536247D01*
X104358333Y-114536247D02*
X104310714Y-114726723D01*
X104310714Y-114726723D02*
X104263095Y-114821961D01*
X104263095Y-114821961D02*
X104167857Y-114917200D01*
X104167857Y-114917200D02*
X104025000Y-114964819D01*
X104025000Y-114964819D02*
X103786905Y-114964819D01*
X104739286Y-114060057D02*
X104786905Y-114012438D01*
X104786905Y-114012438D02*
X104882143Y-113964819D01*
X104882143Y-113964819D02*
X105120238Y-113964819D01*
X105120238Y-113964819D02*
X105215476Y-114012438D01*
X105215476Y-114012438D02*
X105263095Y-114060057D01*
X105263095Y-114060057D02*
X105310714Y-114155295D01*
X105310714Y-114155295D02*
X105310714Y-114250533D01*
X105310714Y-114250533D02*
X105263095Y-114393390D01*
X105263095Y-114393390D02*
X104691667Y-114964819D01*
X104691667Y-114964819D02*
X105310714Y-114964819D01*
X80911905Y-114964819D02*
X80911905Y-113964819D01*
X80911905Y-113964819D02*
X81150000Y-113964819D01*
X81150000Y-113964819D02*
X81292857Y-114012438D01*
X81292857Y-114012438D02*
X81388095Y-114107676D01*
X81388095Y-114107676D02*
X81435714Y-114202914D01*
X81435714Y-114202914D02*
X81483333Y-114393390D01*
X81483333Y-114393390D02*
X81483333Y-114536247D01*
X81483333Y-114536247D02*
X81435714Y-114726723D01*
X81435714Y-114726723D02*
X81388095Y-114821961D01*
X81388095Y-114821961D02*
X81292857Y-114917200D01*
X81292857Y-114917200D02*
X81150000Y-114964819D01*
X81150000Y-114964819D02*
X80911905Y-114964819D01*
X82435714Y-114964819D02*
X81864286Y-114964819D01*
X82150000Y-114964819D02*
X82150000Y-113964819D01*
X82150000Y-113964819D02*
X82054762Y-114107676D01*
X82054762Y-114107676D02*
X81959524Y-114202914D01*
X81959524Y-114202914D02*
X81864286Y-114250533D01*
X165883333Y-113139580D02*
X165835714Y-113187200D01*
X165835714Y-113187200D02*
X165692857Y-113234819D01*
X165692857Y-113234819D02*
X165597619Y-113234819D01*
X165597619Y-113234819D02*
X165454762Y-113187200D01*
X165454762Y-113187200D02*
X165359524Y-113091961D01*
X165359524Y-113091961D02*
X165311905Y-112996723D01*
X165311905Y-112996723D02*
X165264286Y-112806247D01*
X165264286Y-112806247D02*
X165264286Y-112663390D01*
X165264286Y-112663390D02*
X165311905Y-112472914D01*
X165311905Y-112472914D02*
X165359524Y-112377676D01*
X165359524Y-112377676D02*
X165454762Y-112282438D01*
X165454762Y-112282438D02*
X165597619Y-112234819D01*
X165597619Y-112234819D02*
X165692857Y-112234819D01*
X165692857Y-112234819D02*
X165835714Y-112282438D01*
X165835714Y-112282438D02*
X165883333Y-112330057D01*
X166359524Y-113234819D02*
X166550000Y-113234819D01*
X166550000Y-113234819D02*
X166645238Y-113187200D01*
X166645238Y-113187200D02*
X166692857Y-113139580D01*
X166692857Y-113139580D02*
X166788095Y-112996723D01*
X166788095Y-112996723D02*
X166835714Y-112806247D01*
X166835714Y-112806247D02*
X166835714Y-112425295D01*
X166835714Y-112425295D02*
X166788095Y-112330057D01*
X166788095Y-112330057D02*
X166740476Y-112282438D01*
X166740476Y-112282438D02*
X166645238Y-112234819D01*
X166645238Y-112234819D02*
X166454762Y-112234819D01*
X166454762Y-112234819D02*
X166359524Y-112282438D01*
X166359524Y-112282438D02*
X166311905Y-112330057D01*
X166311905Y-112330057D02*
X166264286Y-112425295D01*
X166264286Y-112425295D02*
X166264286Y-112663390D01*
X166264286Y-112663390D02*
X166311905Y-112758628D01*
X166311905Y-112758628D02*
X166359524Y-112806247D01*
X166359524Y-112806247D02*
X166454762Y-112853866D01*
X166454762Y-112853866D02*
X166645238Y-112853866D01*
X166645238Y-112853866D02*
X166740476Y-112806247D01*
X166740476Y-112806247D02*
X166788095Y-112758628D01*
X166788095Y-112758628D02*
X166835714Y-112663390D01*
X137983333Y-113679580D02*
X137935714Y-113727200D01*
X137935714Y-113727200D02*
X137792857Y-113774819D01*
X137792857Y-113774819D02*
X137697619Y-113774819D01*
X137697619Y-113774819D02*
X137554762Y-113727200D01*
X137554762Y-113727200D02*
X137459524Y-113631961D01*
X137459524Y-113631961D02*
X137411905Y-113536723D01*
X137411905Y-113536723D02*
X137364286Y-113346247D01*
X137364286Y-113346247D02*
X137364286Y-113203390D01*
X137364286Y-113203390D02*
X137411905Y-113012914D01*
X137411905Y-113012914D02*
X137459524Y-112917676D01*
X137459524Y-112917676D02*
X137554762Y-112822438D01*
X137554762Y-112822438D02*
X137697619Y-112774819D01*
X137697619Y-112774819D02*
X137792857Y-112774819D01*
X137792857Y-112774819D02*
X137935714Y-112822438D01*
X137935714Y-112822438D02*
X137983333Y-112870057D01*
X138554762Y-113203390D02*
X138459524Y-113155771D01*
X138459524Y-113155771D02*
X138411905Y-113108152D01*
X138411905Y-113108152D02*
X138364286Y-113012914D01*
X138364286Y-113012914D02*
X138364286Y-112965295D01*
X138364286Y-112965295D02*
X138411905Y-112870057D01*
X138411905Y-112870057D02*
X138459524Y-112822438D01*
X138459524Y-112822438D02*
X138554762Y-112774819D01*
X138554762Y-112774819D02*
X138745238Y-112774819D01*
X138745238Y-112774819D02*
X138840476Y-112822438D01*
X138840476Y-112822438D02*
X138888095Y-112870057D01*
X138888095Y-112870057D02*
X138935714Y-112965295D01*
X138935714Y-112965295D02*
X138935714Y-113012914D01*
X138935714Y-113012914D02*
X138888095Y-113108152D01*
X138888095Y-113108152D02*
X138840476Y-113155771D01*
X138840476Y-113155771D02*
X138745238Y-113203390D01*
X138745238Y-113203390D02*
X138554762Y-113203390D01*
X138554762Y-113203390D02*
X138459524Y-113251009D01*
X138459524Y-113251009D02*
X138411905Y-113298628D01*
X138411905Y-113298628D02*
X138364286Y-113393866D01*
X138364286Y-113393866D02*
X138364286Y-113584342D01*
X138364286Y-113584342D02*
X138411905Y-113679580D01*
X138411905Y-113679580D02*
X138459524Y-113727200D01*
X138459524Y-113727200D02*
X138554762Y-113774819D01*
X138554762Y-113774819D02*
X138745238Y-113774819D01*
X138745238Y-113774819D02*
X138840476Y-113727200D01*
X138840476Y-113727200D02*
X138888095Y-113679580D01*
X138888095Y-113679580D02*
X138935714Y-113584342D01*
X138935714Y-113584342D02*
X138935714Y-113393866D01*
X138935714Y-113393866D02*
X138888095Y-113298628D01*
X138888095Y-113298628D02*
X138840476Y-113251009D01*
X138840476Y-113251009D02*
X138745238Y-113203390D01*
X118283333Y-113679580D02*
X118235714Y-113727200D01*
X118235714Y-113727200D02*
X118092857Y-113774819D01*
X118092857Y-113774819D02*
X117997619Y-113774819D01*
X117997619Y-113774819D02*
X117854762Y-113727200D01*
X117854762Y-113727200D02*
X117759524Y-113631961D01*
X117759524Y-113631961D02*
X117711905Y-113536723D01*
X117711905Y-113536723D02*
X117664286Y-113346247D01*
X117664286Y-113346247D02*
X117664286Y-113203390D01*
X117664286Y-113203390D02*
X117711905Y-113012914D01*
X117711905Y-113012914D02*
X117759524Y-112917676D01*
X117759524Y-112917676D02*
X117854762Y-112822438D01*
X117854762Y-112822438D02*
X117997619Y-112774819D01*
X117997619Y-112774819D02*
X118092857Y-112774819D01*
X118092857Y-112774819D02*
X118235714Y-112822438D01*
X118235714Y-112822438D02*
X118283333Y-112870057D01*
X119140476Y-112774819D02*
X118950000Y-112774819D01*
X118950000Y-112774819D02*
X118854762Y-112822438D01*
X118854762Y-112822438D02*
X118807143Y-112870057D01*
X118807143Y-112870057D02*
X118711905Y-113012914D01*
X118711905Y-113012914D02*
X118664286Y-113203390D01*
X118664286Y-113203390D02*
X118664286Y-113584342D01*
X118664286Y-113584342D02*
X118711905Y-113679580D01*
X118711905Y-113679580D02*
X118759524Y-113727200D01*
X118759524Y-113727200D02*
X118854762Y-113774819D01*
X118854762Y-113774819D02*
X119045238Y-113774819D01*
X119045238Y-113774819D02*
X119140476Y-113727200D01*
X119140476Y-113727200D02*
X119188095Y-113679580D01*
X119188095Y-113679580D02*
X119235714Y-113584342D01*
X119235714Y-113584342D02*
X119235714Y-113346247D01*
X119235714Y-113346247D02*
X119188095Y-113251009D01*
X119188095Y-113251009D02*
X119140476Y-113203390D01*
X119140476Y-113203390D02*
X119045238Y-113155771D01*
X119045238Y-113155771D02*
X118854762Y-113155771D01*
X118854762Y-113155771D02*
X118759524Y-113203390D01*
X118759524Y-113203390D02*
X118711905Y-113251009D01*
X118711905Y-113251009D02*
X118664286Y-113346247D01*
X124333333Y-88179580D02*
X124285714Y-88227200D01*
X124285714Y-88227200D02*
X124142857Y-88274819D01*
X124142857Y-88274819D02*
X124047619Y-88274819D01*
X124047619Y-88274819D02*
X123904762Y-88227200D01*
X123904762Y-88227200D02*
X123809524Y-88131961D01*
X123809524Y-88131961D02*
X123761905Y-88036723D01*
X123761905Y-88036723D02*
X123714286Y-87846247D01*
X123714286Y-87846247D02*
X123714286Y-87703390D01*
X123714286Y-87703390D02*
X123761905Y-87512914D01*
X123761905Y-87512914D02*
X123809524Y-87417676D01*
X123809524Y-87417676D02*
X123904762Y-87322438D01*
X123904762Y-87322438D02*
X124047619Y-87274819D01*
X124047619Y-87274819D02*
X124142857Y-87274819D01*
X124142857Y-87274819D02*
X124285714Y-87322438D01*
X124285714Y-87322438D02*
X124333333Y-87370057D01*
X125238095Y-87274819D02*
X124761905Y-87274819D01*
X124761905Y-87274819D02*
X124714286Y-87751009D01*
X124714286Y-87751009D02*
X124761905Y-87703390D01*
X124761905Y-87703390D02*
X124857143Y-87655771D01*
X124857143Y-87655771D02*
X125095238Y-87655771D01*
X125095238Y-87655771D02*
X125190476Y-87703390D01*
X125190476Y-87703390D02*
X125238095Y-87751009D01*
X125238095Y-87751009D02*
X125285714Y-87846247D01*
X125285714Y-87846247D02*
X125285714Y-88084342D01*
X125285714Y-88084342D02*
X125238095Y-88179580D01*
X125238095Y-88179580D02*
X125190476Y-88227200D01*
X125190476Y-88227200D02*
X125095238Y-88274819D01*
X125095238Y-88274819D02*
X124857143Y-88274819D01*
X124857143Y-88274819D02*
X124761905Y-88227200D01*
X124761905Y-88227200D02*
X124714286Y-88179580D01*
X98683333Y-113779580D02*
X98635714Y-113827200D01*
X98635714Y-113827200D02*
X98492857Y-113874819D01*
X98492857Y-113874819D02*
X98397619Y-113874819D01*
X98397619Y-113874819D02*
X98254762Y-113827200D01*
X98254762Y-113827200D02*
X98159524Y-113731961D01*
X98159524Y-113731961D02*
X98111905Y-113636723D01*
X98111905Y-113636723D02*
X98064286Y-113446247D01*
X98064286Y-113446247D02*
X98064286Y-113303390D01*
X98064286Y-113303390D02*
X98111905Y-113112914D01*
X98111905Y-113112914D02*
X98159524Y-113017676D01*
X98159524Y-113017676D02*
X98254762Y-112922438D01*
X98254762Y-112922438D02*
X98397619Y-112874819D01*
X98397619Y-112874819D02*
X98492857Y-112874819D01*
X98492857Y-112874819D02*
X98635714Y-112922438D01*
X98635714Y-112922438D02*
X98683333Y-112970057D01*
X99540476Y-113208152D02*
X99540476Y-113874819D01*
X99302381Y-112827200D02*
X99064286Y-113541485D01*
X99064286Y-113541485D02*
X99683333Y-113541485D01*
X81683333Y-113339580D02*
X81635714Y-113387200D01*
X81635714Y-113387200D02*
X81492857Y-113434819D01*
X81492857Y-113434819D02*
X81397619Y-113434819D01*
X81397619Y-113434819D02*
X81254762Y-113387200D01*
X81254762Y-113387200D02*
X81159524Y-113291961D01*
X81159524Y-113291961D02*
X81111905Y-113196723D01*
X81111905Y-113196723D02*
X81064286Y-113006247D01*
X81064286Y-113006247D02*
X81064286Y-112863390D01*
X81064286Y-112863390D02*
X81111905Y-112672914D01*
X81111905Y-112672914D02*
X81159524Y-112577676D01*
X81159524Y-112577676D02*
X81254762Y-112482438D01*
X81254762Y-112482438D02*
X81397619Y-112434819D01*
X81397619Y-112434819D02*
X81492857Y-112434819D01*
X81492857Y-112434819D02*
X81635714Y-112482438D01*
X81635714Y-112482438D02*
X81683333Y-112530057D01*
X82016667Y-112434819D02*
X82635714Y-112434819D01*
X82635714Y-112434819D02*
X82302381Y-112815771D01*
X82302381Y-112815771D02*
X82445238Y-112815771D01*
X82445238Y-112815771D02*
X82540476Y-112863390D01*
X82540476Y-112863390D02*
X82588095Y-112911009D01*
X82588095Y-112911009D02*
X82635714Y-113006247D01*
X82635714Y-113006247D02*
X82635714Y-113244342D01*
X82635714Y-113244342D02*
X82588095Y-113339580D01*
X82588095Y-113339580D02*
X82540476Y-113387200D01*
X82540476Y-113387200D02*
X82445238Y-113434819D01*
X82445238Y-113434819D02*
X82159524Y-113434819D01*
X82159524Y-113434819D02*
X82064286Y-113387200D01*
X82064286Y-113387200D02*
X82016667Y-113339580D01*
X72929580Y-104366666D02*
X72977200Y-104414285D01*
X72977200Y-104414285D02*
X73024819Y-104557142D01*
X73024819Y-104557142D02*
X73024819Y-104652380D01*
X73024819Y-104652380D02*
X72977200Y-104795237D01*
X72977200Y-104795237D02*
X72881961Y-104890475D01*
X72881961Y-104890475D02*
X72786723Y-104938094D01*
X72786723Y-104938094D02*
X72596247Y-104985713D01*
X72596247Y-104985713D02*
X72453390Y-104985713D01*
X72453390Y-104985713D02*
X72262914Y-104938094D01*
X72262914Y-104938094D02*
X72167676Y-104890475D01*
X72167676Y-104890475D02*
X72072438Y-104795237D01*
X72072438Y-104795237D02*
X72024819Y-104652380D01*
X72024819Y-104652380D02*
X72024819Y-104557142D01*
X72024819Y-104557142D02*
X72072438Y-104414285D01*
X72072438Y-104414285D02*
X72120057Y-104366666D01*
X72120057Y-103985713D02*
X72072438Y-103938094D01*
X72072438Y-103938094D02*
X72024819Y-103842856D01*
X72024819Y-103842856D02*
X72024819Y-103604761D01*
X72024819Y-103604761D02*
X72072438Y-103509523D01*
X72072438Y-103509523D02*
X72120057Y-103461904D01*
X72120057Y-103461904D02*
X72215295Y-103414285D01*
X72215295Y-103414285D02*
X72310533Y-103414285D01*
X72310533Y-103414285D02*
X72453390Y-103461904D01*
X72453390Y-103461904D02*
X73024819Y-104033332D01*
X73024819Y-104033332D02*
X73024819Y-103414285D01*
X72929580Y-100366666D02*
X72977200Y-100414285D01*
X72977200Y-100414285D02*
X73024819Y-100557142D01*
X73024819Y-100557142D02*
X73024819Y-100652380D01*
X73024819Y-100652380D02*
X72977200Y-100795237D01*
X72977200Y-100795237D02*
X72881961Y-100890475D01*
X72881961Y-100890475D02*
X72786723Y-100938094D01*
X72786723Y-100938094D02*
X72596247Y-100985713D01*
X72596247Y-100985713D02*
X72453390Y-100985713D01*
X72453390Y-100985713D02*
X72262914Y-100938094D01*
X72262914Y-100938094D02*
X72167676Y-100890475D01*
X72167676Y-100890475D02*
X72072438Y-100795237D01*
X72072438Y-100795237D02*
X72024819Y-100652380D01*
X72024819Y-100652380D02*
X72024819Y-100557142D01*
X72024819Y-100557142D02*
X72072438Y-100414285D01*
X72072438Y-100414285D02*
X72120057Y-100366666D01*
X73024819Y-99414285D02*
X73024819Y-99985713D01*
X73024819Y-99699999D02*
X72024819Y-99699999D01*
X72024819Y-99699999D02*
X72167676Y-99795237D01*
X72167676Y-99795237D02*
X72262914Y-99890475D01*
X72262914Y-99890475D02*
X72310533Y-99985713D01*
%TO.C,kibuzzard-65BAB04D*%
G36*
X104280683Y-117979968D02*
G01*
X104428952Y-118001962D01*
X104574350Y-118038382D01*
X104715479Y-118088879D01*
X104850978Y-118152965D01*
X104979544Y-118230024D01*
X105099937Y-118319314D01*
X105210999Y-118419975D01*
X105311659Y-118531036D01*
X105400949Y-118651429D01*
X105478008Y-118779995D01*
X105542095Y-118915494D01*
X105592591Y-119056623D01*
X105629012Y-119202022D01*
X105651005Y-119350290D01*
X105658360Y-119500000D01*
X105651005Y-119649710D01*
X105629012Y-119797978D01*
X105592591Y-119943377D01*
X105542095Y-120084506D01*
X105478008Y-120220005D01*
X105400949Y-120348571D01*
X105311659Y-120468964D01*
X105210999Y-120580025D01*
X105099937Y-120680686D01*
X104979544Y-120769976D01*
X104850978Y-120847035D01*
X104715479Y-120911121D01*
X104574350Y-120961618D01*
X104428952Y-120998038D01*
X104280683Y-121020032D01*
X104130973Y-121027387D01*
X104025140Y-121027387D01*
X102907540Y-121027387D01*
X101807720Y-121027387D01*
X100263400Y-121027387D01*
X99139450Y-121027387D01*
X97974860Y-121027387D01*
X97869027Y-121027387D01*
X97719317Y-121020032D01*
X97571048Y-120998038D01*
X97425650Y-120961618D01*
X97284521Y-120911121D01*
X97149022Y-120847035D01*
X97020456Y-120769976D01*
X96900063Y-120680686D01*
X96789001Y-120580025D01*
X96688341Y-120468964D01*
X96599051Y-120348571D01*
X96533461Y-120239140D01*
X97974860Y-120239140D01*
X97990100Y-120368680D01*
X98057410Y-120441070D01*
X98198380Y-120465200D01*
X98329190Y-120448055D01*
X98396500Y-120396620D01*
X98420630Y-120330580D01*
X98424440Y-120241680D01*
X98424440Y-119746380D01*
X98983240Y-120383920D01*
X99139450Y-120490600D01*
X99305820Y-120402970D01*
X99407420Y-120250570D01*
X99323600Y-120091820D01*
X99228191Y-119986251D01*
X99156370Y-119911480D01*
X99559820Y-119911480D01*
X99587760Y-120048640D01*
X99592840Y-120074040D01*
X99620780Y-120140080D01*
X99683645Y-120241045D01*
X99755400Y-120320420D01*
X99902156Y-120419198D01*
X100071489Y-120478464D01*
X100263400Y-120498220D01*
X100456722Y-120478606D01*
X100626902Y-120419762D01*
X100773940Y-120321690D01*
X100886829Y-120193420D01*
X100954562Y-120043983D01*
X100972098Y-119911480D01*
X101104140Y-119911480D01*
X101132080Y-120048640D01*
X101137160Y-120074040D01*
X101165100Y-120140080D01*
X101227965Y-120241045D01*
X101299720Y-120320420D01*
X101446476Y-120419198D01*
X101615809Y-120478464D01*
X101807720Y-120498220D01*
X102001042Y-120478606D01*
X102171222Y-120419762D01*
X102318260Y-120321690D01*
X102390911Y-120239140D01*
X102686560Y-120239140D01*
X102690370Y-120326770D01*
X102711960Y-120394080D01*
X102778635Y-120445515D01*
X102907540Y-120462660D01*
X103061210Y-120431545D01*
X103125980Y-120338200D01*
X103248535Y-120429640D01*
X103433320Y-120460120D01*
X103574149Y-120437966D01*
X103708769Y-120371502D01*
X103837180Y-120260730D01*
X103941602Y-120120466D01*
X104004256Y-119965526D01*
X104025140Y-119795910D01*
X104004114Y-119626153D01*
X103941038Y-119470790D01*
X103835910Y-119329820D01*
X103705664Y-119218342D01*
X103567234Y-119151456D01*
X103420620Y-119129160D01*
X103254250Y-119160275D01*
X103131060Y-119253620D01*
X103131060Y-118725300D01*
X103127250Y-118637670D01*
X103103120Y-118570360D01*
X103038350Y-118518925D01*
X102910080Y-118501780D01*
X102779270Y-118518925D01*
X102711960Y-118570360D01*
X102690370Y-118635130D01*
X102686560Y-118722760D01*
X102686560Y-120239140D01*
X102390911Y-120239140D01*
X102431149Y-120193420D01*
X102498882Y-120043983D01*
X102521460Y-119873380D01*
X102500505Y-119743840D01*
X102437640Y-119629540D01*
X102357630Y-119546990D01*
X102282700Y-119492380D01*
X102282700Y-119474600D01*
X102392767Y-119394872D01*
X102458807Y-119287769D01*
X102480820Y-119153290D01*
X102460782Y-119010062D01*
X102400669Y-118876712D01*
X102300480Y-118753240D01*
X102165578Y-118654462D01*
X102001324Y-118595196D01*
X101807720Y-118575440D01*
X101681672Y-118584330D01*
X101567690Y-118611000D01*
X101400050Y-118689740D01*
X101294640Y-118790070D01*
X101238760Y-118870080D01*
X101180340Y-119042800D01*
X101212090Y-119133605D01*
X101307340Y-119212980D01*
X101447040Y-119258700D01*
X101543560Y-119226950D01*
X101614680Y-119131700D01*
X101629920Y-119101220D01*
X101695960Y-119040260D01*
X101839470Y-119009780D01*
X101980440Y-119058040D01*
X102031240Y-119159640D01*
X101982980Y-119233935D01*
X101838200Y-119258700D01*
X101706120Y-119271400D01*
X101635635Y-119340615D01*
X101612140Y-119482220D01*
X101629285Y-119612395D01*
X101680720Y-119677800D01*
X101746760Y-119703200D01*
X101862330Y-119708280D01*
X102009650Y-119760350D01*
X102071880Y-119881000D01*
X102008380Y-120004190D01*
X101927100Y-120045147D01*
X101810260Y-120058800D01*
X101703580Y-120043560D01*
X101563880Y-119921640D01*
X101487680Y-119789560D01*
X101353060Y-119764160D01*
X101166370Y-119800990D01*
X101104140Y-119911480D01*
X100972098Y-119911480D01*
X100977140Y-119873380D01*
X100956185Y-119743840D01*
X100893320Y-119629540D01*
X100813310Y-119546990D01*
X100738380Y-119492380D01*
X100738380Y-119474600D01*
X100848447Y-119394872D01*
X100914487Y-119287769D01*
X100936500Y-119153290D01*
X100916462Y-119010062D01*
X100856349Y-118876712D01*
X100756160Y-118753240D01*
X100621258Y-118654462D01*
X100457004Y-118595196D01*
X100263400Y-118575440D01*
X100137352Y-118584330D01*
X100023370Y-118611000D01*
X99855730Y-118689740D01*
X99750320Y-118790070D01*
X99694440Y-118870080D01*
X99636020Y-119042800D01*
X99667770Y-119133605D01*
X99763020Y-119212980D01*
X99902720Y-119258700D01*
X99999240Y-119226950D01*
X100070360Y-119131700D01*
X100085600Y-119101220D01*
X100151640Y-119040260D01*
X100295150Y-119009780D01*
X100436120Y-119058040D01*
X100486920Y-119159640D01*
X100438660Y-119233935D01*
X100293880Y-119258700D01*
X100161800Y-119271400D01*
X100091315Y-119340615D01*
X100067820Y-119482220D01*
X100084965Y-119612395D01*
X100136400Y-119677800D01*
X100202440Y-119703200D01*
X100318010Y-119708280D01*
X100465330Y-119760350D01*
X100527560Y-119881000D01*
X100464060Y-120004190D01*
X100382780Y-120045147D01*
X100265940Y-120058800D01*
X100159260Y-120043560D01*
X100019560Y-119921640D01*
X99943360Y-119789560D01*
X99808740Y-119764160D01*
X99622050Y-119800990D01*
X99559820Y-119911480D01*
X99156370Y-119911480D01*
X99104525Y-119857505D01*
X98952601Y-119705581D01*
X98772420Y-119530480D01*
X98874020Y-119433960D01*
X99018800Y-119293307D01*
X99143260Y-119168530D01*
X99247400Y-119059628D01*
X99331220Y-118966600D01*
X99407420Y-118812930D01*
X99305820Y-118660530D01*
X99138180Y-118572900D01*
X98983240Y-118677040D01*
X98892613Y-118782196D01*
X98791419Y-118898528D01*
X98679659Y-119026036D01*
X98557333Y-119164720D01*
X98424440Y-119314580D01*
X98424440Y-118829440D01*
X98411740Y-118697360D01*
X98342525Y-118626875D01*
X98200920Y-118603380D01*
X98070110Y-118620525D01*
X98002800Y-118671960D01*
X97978670Y-118739270D01*
X97974860Y-118826900D01*
X97974860Y-120239140D01*
X96533461Y-120239140D01*
X96521992Y-120220005D01*
X96457905Y-120084506D01*
X96407409Y-119943377D01*
X96370988Y-119797978D01*
X96348995Y-119649710D01*
X96341640Y-119500000D01*
X96348995Y-119350290D01*
X96370988Y-119202022D01*
X96407409Y-119056623D01*
X96457905Y-118915494D01*
X96521992Y-118779995D01*
X96599051Y-118651429D01*
X96688341Y-118531036D01*
X96789001Y-118419975D01*
X96900063Y-118319314D01*
X97020456Y-118230024D01*
X97149022Y-118152965D01*
X97284521Y-118088879D01*
X97425650Y-118038382D01*
X97571048Y-118001962D01*
X97719317Y-117979968D01*
X97869027Y-117972613D01*
X97974860Y-117972613D01*
X104025140Y-117972613D01*
X104130973Y-117972613D01*
X104280683Y-117979968D01*
G37*
G36*
X103519680Y-119643510D02*
G01*
X103580640Y-119797180D01*
X103514600Y-119949580D01*
X103354580Y-120018160D01*
X103198370Y-119949580D01*
X103136140Y-119798450D01*
X103195830Y-119644780D01*
X103357120Y-119573660D01*
X103519680Y-119643510D01*
G37*
%TO.C,kibuzzard-65BAB00C*%
G36*
X92742754Y-118005246D02*
G01*
X92888556Y-118026874D01*
X93031537Y-118062688D01*
X93170319Y-118112345D01*
X93303565Y-118175366D01*
X93429992Y-118251144D01*
X93548384Y-118338949D01*
X93657598Y-118437935D01*
X93756585Y-118547150D01*
X93844390Y-118665541D01*
X93920167Y-118791968D01*
X93983188Y-118925215D01*
X94032845Y-119063996D01*
X94068660Y-119206977D01*
X94090287Y-119352780D01*
X94097520Y-119500000D01*
X94090287Y-119647220D01*
X94068660Y-119793023D01*
X94032845Y-119936004D01*
X93983188Y-120074785D01*
X93920167Y-120208032D01*
X93844390Y-120334459D01*
X93756585Y-120452850D01*
X93657598Y-120562065D01*
X93548384Y-120661051D01*
X93429992Y-120748856D01*
X93303565Y-120824634D01*
X93170319Y-120887655D01*
X93031537Y-120937312D01*
X92888556Y-120973126D01*
X92742754Y-120994754D01*
X92595533Y-121001987D01*
X92489700Y-121001987D01*
X91775960Y-121001987D01*
X90231640Y-121001987D01*
X88694940Y-121001987D01*
X87619250Y-121001987D01*
X85771400Y-121001987D01*
X83714000Y-121001987D01*
X82619260Y-121001987D01*
X80481850Y-121001987D01*
X79510300Y-121001987D01*
X79404467Y-121001987D01*
X79257246Y-120994754D01*
X79111444Y-120973126D01*
X78968463Y-120937312D01*
X78829681Y-120887655D01*
X78696435Y-120824634D01*
X78570008Y-120748856D01*
X78451617Y-120661051D01*
X78342402Y-120562065D01*
X78243415Y-120452850D01*
X78155610Y-120334459D01*
X78079833Y-120208032D01*
X78016812Y-120074785D01*
X77967155Y-119936004D01*
X77931340Y-119793023D01*
X77909713Y-119647220D01*
X77902480Y-119500000D01*
X77902605Y-119497460D01*
X79510300Y-119497460D01*
X79527128Y-119688278D01*
X79577610Y-119864490D01*
X79654128Y-120018160D01*
X79749060Y-120141350D01*
X79859868Y-120241045D01*
X79984010Y-120324230D01*
X80112915Y-120388365D01*
X80238010Y-120430910D01*
X80360565Y-120454723D01*
X80481850Y-120462660D01*
X80604723Y-120452500D01*
X80732040Y-120422020D01*
X80903490Y-120355980D01*
X80991120Y-120302640D01*
X81071130Y-120239140D01*
X81082887Y-120208660D01*
X81273060Y-120208660D01*
X81288300Y-120340740D01*
X81355610Y-120411225D01*
X81496580Y-120434720D01*
X81627390Y-120417575D01*
X81694700Y-120366140D01*
X81718830Y-120298830D01*
X81722640Y-120211200D01*
X81722640Y-119693040D01*
X82395740Y-119693040D01*
X82395740Y-120208660D01*
X82410980Y-120340740D01*
X82478290Y-120411225D01*
X82619260Y-120434720D01*
X82750070Y-120417575D01*
X82817380Y-120366140D01*
X82841510Y-120298830D01*
X82845320Y-120211200D01*
X82845320Y-119883540D01*
X83010420Y-119883540D01*
X83038360Y-120020700D01*
X83043440Y-120046100D01*
X83071380Y-120112140D01*
X83134245Y-120213105D01*
X83206000Y-120292480D01*
X83352756Y-120391258D01*
X83522089Y-120450524D01*
X83714000Y-120470280D01*
X83907322Y-120450666D01*
X84077502Y-120391822D01*
X84224540Y-120293750D01*
X84294956Y-120213740D01*
X84554740Y-120213740D01*
X84620780Y-120373760D01*
X84778260Y-120442340D01*
X85771400Y-120442340D01*
X85928880Y-120411860D01*
X85983490Y-120345820D01*
X85999837Y-120218820D01*
X86076200Y-120218820D01*
X86176530Y-120372490D01*
X86341630Y-120462660D01*
X86497840Y-120361060D01*
X86980440Y-119807340D01*
X87463040Y-120361060D01*
X87619250Y-120462660D01*
X87784350Y-120373760D01*
X87882140Y-120218820D01*
X87795780Y-120056260D01*
X87296791Y-119507620D01*
X87983740Y-119507620D01*
X87991925Y-119685702D01*
X88016478Y-119850802D01*
X88057400Y-120002920D01*
X88112328Y-120130555D01*
X88180590Y-120239140D01*
X88270125Y-120330262D01*
X88388870Y-120405510D01*
X88532063Y-120455993D01*
X88694940Y-120472820D01*
X88857183Y-120456310D01*
X88998470Y-120406780D01*
X89114993Y-120331850D01*
X89202940Y-120239140D01*
X89289618Y-120092614D01*
X89351530Y-119922275D01*
X89358941Y-119883540D01*
X89528060Y-119883540D01*
X89556000Y-120020700D01*
X89561080Y-120046100D01*
X89589020Y-120112140D01*
X89651885Y-120213105D01*
X89723640Y-120292480D01*
X89870396Y-120391258D01*
X90039729Y-120450524D01*
X90231640Y-120470280D01*
X90424962Y-120450666D01*
X90595142Y-120391822D01*
X90742180Y-120293750D01*
X90855069Y-120165480D01*
X90922802Y-120016043D01*
X90940338Y-119883540D01*
X91072380Y-119883540D01*
X91100320Y-120020700D01*
X91105400Y-120046100D01*
X91133340Y-120112140D01*
X91196205Y-120213105D01*
X91267960Y-120292480D01*
X91414716Y-120391258D01*
X91584049Y-120450524D01*
X91775960Y-120470280D01*
X91969282Y-120450666D01*
X92139462Y-120391822D01*
X92286500Y-120293750D01*
X92399389Y-120165480D01*
X92467122Y-120016043D01*
X92489700Y-119845440D01*
X92468745Y-119715900D01*
X92405880Y-119601600D01*
X92325870Y-119519050D01*
X92250940Y-119464440D01*
X92250940Y-119446660D01*
X92361007Y-119366932D01*
X92427047Y-119259829D01*
X92449060Y-119125350D01*
X92429022Y-118982122D01*
X92368909Y-118848772D01*
X92268720Y-118725300D01*
X92133818Y-118626522D01*
X91969565Y-118567256D01*
X91775960Y-118547500D01*
X91649913Y-118556390D01*
X91535930Y-118583060D01*
X91368290Y-118661800D01*
X91262880Y-118762130D01*
X91207000Y-118842140D01*
X91148580Y-119014860D01*
X91180330Y-119105665D01*
X91275580Y-119185040D01*
X91415280Y-119230760D01*
X91511800Y-119199010D01*
X91582920Y-119103760D01*
X91598160Y-119073280D01*
X91664200Y-119012320D01*
X91807710Y-118981840D01*
X91948680Y-119030100D01*
X91999480Y-119131700D01*
X91951220Y-119205995D01*
X91806440Y-119230760D01*
X91674360Y-119243460D01*
X91603875Y-119312675D01*
X91580380Y-119454280D01*
X91597525Y-119584455D01*
X91648960Y-119649860D01*
X91715000Y-119675260D01*
X91830570Y-119680340D01*
X91977890Y-119732410D01*
X92040120Y-119853060D01*
X91976620Y-119976250D01*
X91895340Y-120017208D01*
X91778500Y-120030860D01*
X91671820Y-120015620D01*
X91532120Y-119893700D01*
X91455920Y-119761620D01*
X91321300Y-119736220D01*
X91134610Y-119773050D01*
X91072380Y-119883540D01*
X90940338Y-119883540D01*
X90945380Y-119845440D01*
X90924425Y-119715900D01*
X90861560Y-119601600D01*
X90781550Y-119519050D01*
X90706620Y-119464440D01*
X90706620Y-119446660D01*
X90816687Y-119366932D01*
X90882727Y-119259829D01*
X90904740Y-119125350D01*
X90884702Y-118982122D01*
X90824589Y-118848772D01*
X90724400Y-118725300D01*
X90589498Y-118626522D01*
X90425245Y-118567256D01*
X90231640Y-118547500D01*
X90105593Y-118556390D01*
X89991610Y-118583060D01*
X89823970Y-118661800D01*
X89718560Y-118762130D01*
X89662680Y-118842140D01*
X89604260Y-119014860D01*
X89636010Y-119105665D01*
X89731260Y-119185040D01*
X89870960Y-119230760D01*
X89967480Y-119199010D01*
X90038600Y-119103760D01*
X90053840Y-119073280D01*
X90119880Y-119012320D01*
X90263390Y-118981840D01*
X90404360Y-119030100D01*
X90455160Y-119131700D01*
X90406900Y-119205995D01*
X90262120Y-119230760D01*
X90130040Y-119243460D01*
X90059555Y-119312675D01*
X90036060Y-119454280D01*
X90053205Y-119584455D01*
X90104640Y-119649860D01*
X90170680Y-119675260D01*
X90286250Y-119680340D01*
X90433570Y-119732410D01*
X90495800Y-119853060D01*
X90432300Y-119976250D01*
X90351020Y-120017208D01*
X90234180Y-120030860D01*
X90127500Y-120015620D01*
X89987800Y-119893700D01*
X89911600Y-119761620D01*
X89776980Y-119736220D01*
X89590290Y-119773050D01*
X89528060Y-119883540D01*
X89358941Y-119883540D01*
X89388678Y-119728124D01*
X89401060Y-119510160D01*
X89392593Y-119342238D01*
X89367193Y-119180524D01*
X89324860Y-119025020D01*
X89271838Y-118896750D01*
X89204210Y-118786260D01*
X89115310Y-118692915D01*
X88998470Y-118616080D01*
X88856548Y-118564645D01*
X88692400Y-118547500D01*
X88527618Y-118564962D01*
X88383790Y-118617350D01*
X88265363Y-118695455D01*
X88176780Y-118790070D01*
X88106613Y-118912308D01*
X88043430Y-119073280D01*
X88010269Y-119201691D01*
X87990372Y-119346471D01*
X87983740Y-119507620D01*
X87296791Y-119507620D01*
X87285240Y-119494920D01*
X87795780Y-118933580D01*
X87882140Y-118773560D01*
X87783080Y-118616080D01*
X87619250Y-118527180D01*
X87463040Y-118628780D01*
X86980440Y-119182500D01*
X86497840Y-118628780D01*
X86341630Y-118527180D01*
X86175260Y-118617350D01*
X86076200Y-118773560D01*
X86165100Y-118933580D01*
X86675640Y-119494920D01*
X86165100Y-120056260D01*
X86076200Y-120218820D01*
X85999837Y-120218820D01*
X86000000Y-120217550D01*
X85984760Y-120088010D01*
X85925070Y-120014350D01*
X85776480Y-119990220D01*
X85311660Y-119990220D01*
X85311660Y-119977520D01*
X85375160Y-119952120D01*
X85532640Y-119866395D01*
X85710440Y-119726060D01*
X85792990Y-119634620D01*
X85862840Y-119517780D01*
X85910465Y-119384430D01*
X85926340Y-119243460D01*
X85905173Y-119068906D01*
X85841673Y-118907616D01*
X85735840Y-118759590D01*
X85595999Y-118641762D01*
X85430476Y-118571066D01*
X85239270Y-118547500D01*
X85048206Y-118570783D01*
X84883106Y-118640633D01*
X84743970Y-118757050D01*
X84638842Y-118902818D01*
X84575766Y-119060721D01*
X84554740Y-119230760D01*
X84567440Y-119360300D01*
X84636655Y-119432690D01*
X84778260Y-119456820D01*
X84907800Y-119441580D01*
X84976380Y-119395860D01*
X85000510Y-119332360D01*
X85004320Y-119248540D01*
X85004320Y-119233300D01*
X85014480Y-119174880D01*
X85081790Y-119056770D01*
X85222760Y-118997080D01*
X85349760Y-119019940D01*
X85417070Y-119069470D01*
X85456440Y-119138050D01*
X85474220Y-119202820D01*
X85450408Y-119313945D01*
X85378970Y-119418720D01*
X85273878Y-119514923D01*
X85149100Y-119600330D01*
X85014480Y-119680975D01*
X84879860Y-119762890D01*
X84755083Y-119853695D01*
X84649990Y-119961010D01*
X84578553Y-120081978D01*
X84554740Y-120213740D01*
X84294956Y-120213740D01*
X84337429Y-120165480D01*
X84405162Y-120016043D01*
X84427740Y-119845440D01*
X84406785Y-119715900D01*
X84343920Y-119601600D01*
X84263910Y-119519050D01*
X84188980Y-119464440D01*
X84188980Y-119446660D01*
X84299047Y-119366932D01*
X84365087Y-119259829D01*
X84387100Y-119125350D01*
X84367062Y-118982122D01*
X84306949Y-118848772D01*
X84206760Y-118725300D01*
X84071858Y-118626522D01*
X83907605Y-118567256D01*
X83714000Y-118547500D01*
X83587953Y-118556390D01*
X83473970Y-118583060D01*
X83306330Y-118661800D01*
X83200920Y-118762130D01*
X83145040Y-118842140D01*
X83086620Y-119014860D01*
X83118370Y-119105665D01*
X83213620Y-119185040D01*
X83353320Y-119230760D01*
X83449840Y-119199010D01*
X83520960Y-119103760D01*
X83536200Y-119073280D01*
X83602240Y-119012320D01*
X83745750Y-118981840D01*
X83886720Y-119030100D01*
X83937520Y-119131700D01*
X83889260Y-119205995D01*
X83744480Y-119230760D01*
X83612400Y-119243460D01*
X83541915Y-119312675D01*
X83518420Y-119454280D01*
X83535565Y-119584455D01*
X83587000Y-119649860D01*
X83653040Y-119675260D01*
X83768610Y-119680340D01*
X83915930Y-119732410D01*
X83978160Y-119853060D01*
X83914660Y-119976250D01*
X83833380Y-120017208D01*
X83716540Y-120030860D01*
X83609860Y-120015620D01*
X83470160Y-119893700D01*
X83393960Y-119761620D01*
X83259340Y-119736220D01*
X83072650Y-119773050D01*
X83010420Y-119883540D01*
X82845320Y-119883540D01*
X82845320Y-118801500D01*
X82832620Y-118669420D01*
X82797060Y-118618620D01*
X82731020Y-118588140D01*
X82614180Y-118575440D01*
X82492260Y-118590680D01*
X82423680Y-118644020D01*
X82399550Y-118711330D01*
X82395740Y-118798960D01*
X82395740Y-119319660D01*
X81722640Y-119319660D01*
X81722640Y-118801500D01*
X81709940Y-118669420D01*
X81640725Y-118598935D01*
X81499120Y-118575440D01*
X81368310Y-118592585D01*
X81301000Y-118644020D01*
X81276870Y-118711330D01*
X81273060Y-118798960D01*
X81273060Y-120208660D01*
X81082887Y-120208660D01*
X81105420Y-120150240D01*
X81049540Y-120008000D01*
X80961275Y-119901320D01*
X80879360Y-119865760D01*
X80757440Y-119916560D01*
X80711720Y-119949580D01*
X80611390Y-119990220D01*
X80462800Y-120010540D01*
X80298335Y-119982600D01*
X80140220Y-119898780D01*
X80010680Y-119738760D01*
X79972580Y-119630493D01*
X79959880Y-119508890D01*
X79972580Y-119387288D01*
X80010680Y-119279020D01*
X80137680Y-119121540D01*
X80298970Y-119035815D01*
X80462800Y-119007240D01*
X80622820Y-119028830D01*
X80747280Y-119093600D01*
X80876820Y-119149480D01*
X80960640Y-119115190D01*
X81054620Y-119012320D01*
X81107960Y-118871350D01*
X81041920Y-118750700D01*
X80970800Y-118704980D01*
X80909840Y-118669420D01*
X80723150Y-118594490D01*
X80600913Y-118566867D01*
X80480580Y-118557660D01*
X80313222Y-118572900D01*
X80146429Y-118618620D01*
X79980200Y-118694820D01*
X79855423Y-118774513D01*
X79745250Y-118871350D01*
X79651588Y-118990730D01*
X79576340Y-119138050D01*
X79526810Y-119308548D01*
X79510300Y-119497460D01*
X77902605Y-119497460D01*
X77909713Y-119352780D01*
X77931340Y-119206977D01*
X77967155Y-119063996D01*
X78016812Y-118925215D01*
X78079833Y-118791968D01*
X78155610Y-118665541D01*
X78243415Y-118547150D01*
X78342402Y-118437935D01*
X78451617Y-118338949D01*
X78570008Y-118251144D01*
X78696435Y-118175366D01*
X78829681Y-118112345D01*
X78968463Y-118062688D01*
X79111444Y-118026874D01*
X79257246Y-118005246D01*
X79404467Y-117998013D01*
X79510300Y-117998013D01*
X92489700Y-117998013D01*
X92595533Y-117998013D01*
X92742754Y-118005246D01*
G37*
G36*
X88805748Y-119028989D02*
G01*
X88886710Y-119124715D01*
X88935288Y-119284259D01*
X88951480Y-119507620D01*
X88951480Y-119522860D01*
X88935129Y-119740665D01*
X88886075Y-119896240D01*
X88804319Y-119989585D01*
X88689860Y-120020700D01*
X88577624Y-119988712D01*
X88497455Y-119892748D01*
X88449354Y-119732807D01*
X88433320Y-119508890D01*
X88449513Y-119284973D01*
X88498090Y-119125033D01*
X88579053Y-119029068D01*
X88692400Y-118997080D01*
X88805748Y-119028989D01*
G37*
%TO.C,kibuzzard-65BAAF97*%
G36*
X109145130Y-93233356D02*
G01*
X109145130Y-94288268D01*
X109145130Y-95041370D01*
X109145130Y-95127359D01*
X93854870Y-95127359D01*
X93854870Y-95041370D01*
X93854870Y-94280157D01*
X94284818Y-94280157D01*
X94313711Y-94378185D01*
X94390069Y-94447321D01*
X95543706Y-95004534D01*
X95648957Y-95039617D01*
X95719124Y-95009693D01*
X95781037Y-94919920D01*
X95816121Y-94809509D01*
X95815757Y-94808284D01*
X96884828Y-94808284D01*
X96898552Y-94912997D01*
X96939726Y-94966878D01*
X96992590Y-94986194D01*
X97063754Y-94989243D01*
X98192208Y-94989243D01*
X98297937Y-94977044D01*
X98355885Y-94923163D01*
X98374895Y-94812104D01*
X99486249Y-94812104D01*
X99499774Y-94915291D01*
X99540348Y-94968388D01*
X99592442Y-94987422D01*
X99662570Y-94990428D01*
X100774590Y-94990428D01*
X100878780Y-94978406D01*
X100935884Y-94925310D01*
X100954918Y-94814107D01*
X100954918Y-94314194D01*
X102089022Y-94314194D01*
X102116670Y-94408001D01*
X102189741Y-94474160D01*
X103293699Y-95007377D01*
X103394418Y-95040950D01*
X103461564Y-95012315D01*
X103520810Y-94926407D01*
X103554383Y-94820751D01*
X103535622Y-94757555D01*
X103499087Y-94722007D01*
X103441815Y-94691396D01*
X103228528Y-94588703D01*
X103228528Y-94324898D01*
X104689194Y-94324898D01*
X104716451Y-94417377D01*
X104788488Y-94482599D01*
X105876824Y-95008272D01*
X105976118Y-95041370D01*
X106042313Y-95013139D01*
X106100721Y-94928447D01*
X106133819Y-94824286D01*
X106115323Y-94761984D01*
X106079305Y-94726940D01*
X106022844Y-94696762D01*
X105812575Y-94595522D01*
X105812575Y-94289228D01*
X107275356Y-94289228D01*
X107286875Y-94415720D01*
X107321431Y-94541784D01*
X107379024Y-94667422D01*
X107439257Y-94761731D01*
X107512448Y-94845001D01*
X107602677Y-94915792D01*
X107714023Y-94972665D01*
X107842888Y-95010101D01*
X107985670Y-95022579D01*
X108129893Y-95009861D01*
X108263077Y-94971705D01*
X108379223Y-94913872D01*
X108472331Y-94842121D01*
X108547682Y-94758371D01*
X108610555Y-94664543D01*
X108659029Y-94567115D01*
X108691185Y-94472566D01*
X108709183Y-94379937D01*
X108715182Y-94288268D01*
X108707503Y-94195400D01*
X108684466Y-94099171D01*
X108634552Y-93969587D01*
X108594237Y-93903355D01*
X108546242Y-93842882D01*
X108479051Y-93816965D01*
X108371544Y-93859200D01*
X108290913Y-93925912D01*
X108264037Y-93987825D01*
X108302432Y-94079974D01*
X108327389Y-94114529D01*
X108358105Y-94190360D01*
X108373463Y-94302667D01*
X108352346Y-94426971D01*
X108288994Y-94546477D01*
X108168048Y-94644385D01*
X108086218Y-94673182D01*
X107994309Y-94682780D01*
X107902400Y-94673182D01*
X107820570Y-94644385D01*
X107701545Y-94548397D01*
X107636753Y-94426492D01*
X107615155Y-94302667D01*
X107631473Y-94181721D01*
X107680427Y-94087653D01*
X107722662Y-93989744D01*
X107696745Y-93926392D01*
X107618995Y-93855361D01*
X107512448Y-93815046D01*
X107489774Y-93827456D01*
X107421259Y-93864960D01*
X107386703Y-93918713D01*
X107359826Y-93964787D01*
X107303193Y-94105890D01*
X107282316Y-94198279D01*
X107275356Y-94289228D01*
X105812575Y-94289228D01*
X105812575Y-94056221D01*
X106022844Y-93954980D01*
X106081252Y-93924803D01*
X106118244Y-93889758D01*
X106135766Y-93827456D01*
X106102668Y-93723295D01*
X106042800Y-93638604D01*
X105976118Y-93610373D01*
X105876824Y-93643471D01*
X105533465Y-93809612D01*
X104790435Y-94169143D01*
X104714504Y-94233392D01*
X104689194Y-94324898D01*
X103228528Y-94324898D01*
X103228528Y-94041661D01*
X103441815Y-93938967D01*
X103501061Y-93908356D01*
X103538584Y-93872809D01*
X103556358Y-93809612D01*
X103522785Y-93703956D01*
X103462058Y-93618049D01*
X103394418Y-93589413D01*
X103293699Y-93622986D01*
X103025274Y-93752869D01*
X102191716Y-94156204D01*
X102114695Y-94221375D01*
X102096502Y-94287150D01*
X102089022Y-94314194D01*
X100954918Y-94314194D01*
X100954918Y-94287150D01*
X100939891Y-94166598D01*
X100894809Y-94058735D01*
X100819672Y-93963562D01*
X100722273Y-93889093D01*
X100610403Y-93843344D01*
X100484063Y-93826313D01*
X100371636Y-93839448D01*
X100266779Y-93878853D01*
X100169491Y-93944527D01*
X100053781Y-93887424D01*
X99927050Y-93868389D01*
X99811285Y-93882860D01*
X99707095Y-93926272D01*
X99614482Y-93998626D01*
X99543242Y-94088122D01*
X99500498Y-94190975D01*
X99490126Y-94275572D01*
X99486249Y-94307186D01*
X99486249Y-94812104D01*
X98374895Y-94812104D01*
X98375201Y-94810317D01*
X98375201Y-94275572D01*
X98359952Y-94153238D01*
X98314203Y-94043782D01*
X98237957Y-93947202D01*
X98139118Y-93871633D01*
X98025595Y-93825207D01*
X97897387Y-93807925D01*
X97783299Y-93821254D01*
X97676892Y-93861241D01*
X97578167Y-93927886D01*
X97460746Y-93869939D01*
X97332143Y-93850623D01*
X97214666Y-93865307D01*
X97108937Y-93909361D01*
X97014956Y-93982784D01*
X96942663Y-94073603D01*
X96899287Y-94177976D01*
X96884828Y-94295905D01*
X96884828Y-94808284D01*
X95815757Y-94808284D01*
X95796515Y-94743469D01*
X95758336Y-94706322D01*
X95698487Y-94674334D01*
X95475602Y-94567019D01*
X95475602Y-93995360D01*
X95698487Y-93888045D01*
X95760399Y-93856057D01*
X95799611Y-93818909D01*
X95818184Y-93752869D01*
X95783101Y-93642459D01*
X95719640Y-93552685D01*
X95648957Y-93522761D01*
X95543706Y-93557845D01*
X94392133Y-94115057D01*
X94311647Y-94183161D01*
X94284818Y-94280157D01*
X93854870Y-94280157D01*
X93854870Y-93289557D01*
X94286882Y-93289557D01*
X94311647Y-93409255D01*
X94365304Y-93448466D01*
X94468492Y-93460849D01*
X94571679Y-93448466D01*
X94631528Y-93398936D01*
X94652166Y-93279239D01*
X94652166Y-92808704D01*
X94746066Y-92854106D01*
X94819845Y-92904152D01*
X94907039Y-92963485D01*
X95005325Y-93027461D01*
X95112382Y-93091437D01*
X95231305Y-93150770D01*
X95365191Y-93200816D01*
X95504752Y-93234868D01*
X95640702Y-93246219D01*
X95709837Y-93243123D01*
X95756272Y-93223517D01*
X95771095Y-93198966D01*
X96884828Y-93198966D01*
X96937692Y-93313844D01*
X96941759Y-93319944D01*
X97242680Y-93653397D01*
X97362642Y-93726594D01*
X97488703Y-93662547D01*
X97559867Y-93539535D01*
X97496837Y-93397208D01*
X97472437Y-93370775D01*
X98198308Y-93370775D01*
X98272522Y-93367726D01*
X98328436Y-93348410D01*
X98368085Y-93294020D01*
X98381301Y-93191849D01*
X99490257Y-93191849D01*
X99490257Y-93579865D01*
X99514300Y-93696076D01*
X99566395Y-93734145D01*
X99666577Y-93746167D01*
X99766759Y-93734145D01*
X99824865Y-93686058D01*
X99844901Y-93569847D01*
X99844901Y-93113016D01*
X99936067Y-93157097D01*
X100007697Y-93205685D01*
X100092351Y-93263290D01*
X100187774Y-93325402D01*
X100291713Y-93387515D01*
X100407173Y-93445120D01*
X100537159Y-93493708D01*
X100672655Y-93526768D01*
X100804645Y-93537788D01*
X100871767Y-93534783D01*
X100916849Y-93515748D01*
X100948907Y-93462652D01*
X100956922Y-93361468D01*
X100948907Y-93260284D01*
X100943891Y-93251709D01*
X102085072Y-93251709D01*
X102103834Y-93331691D01*
X102128457Y-93361468D01*
X102146293Y-93383038D01*
X102199615Y-93411674D01*
X102241088Y-93425498D01*
X102323045Y-93436854D01*
X102545219Y-93466971D01*
X102770849Y-93496594D01*
X102863175Y-93506468D01*
X102911560Y-93484745D01*
X102971793Y-93392913D01*
X103009316Y-93268495D01*
X102963894Y-93160864D01*
X102928346Y-93066070D01*
X102966856Y-92960414D01*
X103071525Y-92914004D01*
X103175206Y-92956464D01*
X103212729Y-93086806D01*
X103171256Y-93210236D01*
X103108060Y-93342553D01*
X103173231Y-93457096D01*
X103301599Y-93530167D01*
X103420091Y-93455121D01*
X103433916Y-93439322D01*
X103471438Y-93389950D01*
X103523005Y-93287257D01*
X103530107Y-93261872D01*
X104681406Y-93261872D01*
X104702823Y-93329041D01*
X104747602Y-93364086D01*
X104815745Y-93384529D01*
X105467968Y-93546124D01*
X105545845Y-93551965D01*
X105629563Y-93542230D01*
X105685051Y-93489176D01*
X105703547Y-93380635D01*
X105703547Y-93240075D01*
X107286875Y-93240075D01*
X107336789Y-93348542D01*
X107340628Y-93354301D01*
X107624754Y-93669143D01*
X107738020Y-93738255D01*
X107857046Y-93677782D01*
X107924238Y-93561636D01*
X107864725Y-93427253D01*
X107841688Y-93402296D01*
X108527045Y-93402296D01*
X108597116Y-93399416D01*
X108649910Y-93381178D01*
X108687345Y-93329824D01*
X108699824Y-93233356D01*
X108686865Y-93134488D01*
X108647990Y-93083614D01*
X108597116Y-93065376D01*
X108530884Y-93062497D01*
X107461574Y-93062497D01*
X107359826Y-93072096D01*
X107318551Y-93098972D01*
X107296474Y-93148886D01*
X107286875Y-93240075D01*
X105703547Y-93240075D01*
X105703547Y-92853016D01*
X105941073Y-92853016D01*
X106042313Y-92841334D01*
X106081252Y-92816024D01*
X106104615Y-92765404D01*
X106114350Y-92675845D01*
X106102668Y-92581418D01*
X106054968Y-92524957D01*
X105943020Y-92506461D01*
X104860524Y-92506461D01*
X104792382Y-92509382D01*
X104740788Y-92527878D01*
X104699902Y-92580445D01*
X104687247Y-92678765D01*
X104697955Y-92778059D01*
X104735921Y-92831599D01*
X104784594Y-92850095D01*
X104850790Y-92853016D01*
X105382303Y-92853016D01*
X105382303Y-93170366D01*
X104907251Y-93051603D01*
X104901410Y-93049656D01*
X104819639Y-93036028D01*
X104770924Y-93058170D01*
X104744682Y-93070099D01*
X104695035Y-93172313D01*
X104681406Y-93261872D01*
X103530107Y-93261872D01*
X103553944Y-93176663D01*
X103564258Y-93058170D01*
X103547910Y-92924976D01*
X103498867Y-92807141D01*
X103417129Y-92704667D01*
X103312680Y-92625672D01*
X103195504Y-92578274D01*
X103065600Y-92562475D01*
X102936355Y-92579152D01*
X102821154Y-92629183D01*
X102719996Y-92712566D01*
X102641550Y-92816796D01*
X102594482Y-92929364D01*
X102578792Y-93050271D01*
X102582742Y-93119392D01*
X102432651Y-93099643D01*
X102432651Y-92754039D01*
X102429689Y-92689855D01*
X102410927Y-92641471D01*
X102362049Y-92604442D01*
X102266761Y-92592099D01*
X102162093Y-92605429D01*
X102108771Y-92645420D01*
X102090009Y-92696767D01*
X102087047Y-92765888D01*
X102087047Y-92951527D01*
X102085072Y-93251709D01*
X100943891Y-93251709D01*
X100917851Y-93207188D01*
X100873771Y-93187151D01*
X100808652Y-93183144D01*
X100679974Y-93163553D01*
X100526362Y-93104779D01*
X100347815Y-93006824D01*
X100230101Y-92932939D01*
X100113389Y-92859556D01*
X99996426Y-92791683D01*
X99877961Y-92734328D01*
X99768512Y-92695257D01*
X99678599Y-92682234D01*
X99566395Y-92694256D01*
X99509291Y-92747352D01*
X99490257Y-92858554D01*
X99490257Y-93191849D01*
X98381301Y-93191849D01*
X98367576Y-93087137D01*
X98326403Y-93033256D01*
X98272522Y-93013940D01*
X98202375Y-93010890D01*
X97069854Y-93010890D01*
X96962091Y-93021056D01*
X96918377Y-93049522D01*
X96911704Y-93064609D01*
X96894994Y-93102386D01*
X96884828Y-93198966D01*
X95771095Y-93198966D01*
X95789292Y-93168828D01*
X95797547Y-93064609D01*
X95789292Y-92960389D01*
X95757304Y-92905700D01*
X95711901Y-92885062D01*
X95644829Y-92880935D01*
X95547833Y-92869584D01*
X95436391Y-92835532D01*
X95310502Y-92778779D01*
X95170167Y-92699325D01*
X95048921Y-92623224D01*
X94928708Y-92547639D01*
X94808237Y-92477730D01*
X94778905Y-92463529D01*
X107265758Y-92463529D01*
X107280262Y-92588741D01*
X107314109Y-92675845D01*
X107323777Y-92700727D01*
X107396302Y-92799489D01*
X107490370Y-92876279D01*
X107598517Y-92922354D01*
X107720742Y-92937712D01*
X107870244Y-92903876D01*
X108003908Y-92802368D01*
X108073766Y-92706273D01*
X108115681Y-92598446D01*
X108129653Y-92478887D01*
X108097017Y-92334905D01*
X108123894Y-92344504D01*
X108191085Y-92382419D01*
X108265956Y-92450091D01*
X108331228Y-92564317D01*
X108358105Y-92716939D01*
X108369624Y-92828285D01*
X108420498Y-92882999D01*
X108527045Y-92901236D01*
X108624473Y-92887798D01*
X108678706Y-92847483D01*
X108697904Y-92743815D01*
X108697904Y-92732297D01*
X108682546Y-92562277D01*
X108636471Y-92411216D01*
X108559681Y-92279112D01*
X108452174Y-92165965D01*
X108349044Y-92091325D01*
X108236238Y-92033271D01*
X108113757Y-91991804D01*
X107981600Y-91966924D01*
X107839768Y-91958630D01*
X107681174Y-91972709D01*
X107543271Y-92014944D01*
X107426058Y-92085335D01*
X107337002Y-92183670D01*
X107283569Y-92309735D01*
X107265758Y-92463529D01*
X94778905Y-92463529D01*
X94686217Y-92418655D01*
X94573485Y-92378412D01*
X94480874Y-92364997D01*
X94365304Y-92377380D01*
X94306487Y-92432069D01*
X94286882Y-92546607D01*
X94286882Y-93289557D01*
X93854870Y-93289557D01*
X93854870Y-91958630D01*
X93854870Y-91872641D01*
X109145130Y-91872641D01*
X109145130Y-91958630D01*
X109145130Y-92732297D01*
X109145130Y-93233356D01*
G37*
G36*
X97980750Y-94199834D02*
G01*
X98015316Y-94295905D01*
X98015316Y-94629358D01*
X97244713Y-94629358D01*
X97244713Y-94344703D01*
X97265046Y-94244057D01*
X97336210Y-94210508D01*
X97409407Y-94216608D01*
X97452105Y-94314204D01*
X97480570Y-94439249D01*
X97597482Y-94476864D01*
X97714394Y-94440266D01*
X97742860Y-94330470D01*
X97759126Y-94216608D01*
X97799791Y-94178993D01*
X97877054Y-94167810D01*
X97980750Y-94199834D01*
G37*
G36*
X100566212Y-94212514D02*
G01*
X100600274Y-94307186D01*
X100600274Y-94635783D01*
X99840894Y-94635783D01*
X99840894Y-94355274D01*
X99860930Y-94256094D01*
X99931058Y-94223033D01*
X100003189Y-94229044D01*
X100045265Y-94325219D01*
X100073316Y-94448443D01*
X100188526Y-94485510D01*
X100303735Y-94449445D01*
X100331786Y-94341248D01*
X100347815Y-94229044D01*
X100387888Y-94191977D01*
X100464026Y-94180957D01*
X100566212Y-94212514D01*
G37*
G36*
X95170167Y-94418429D02*
G01*
X94887433Y-94282221D01*
X95170167Y-94143950D01*
X95170167Y-94418429D01*
G37*
G36*
X107794653Y-92347383D02*
G01*
X107830169Y-92461610D01*
X107791774Y-92570076D01*
X107709224Y-92603672D01*
X107612756Y-92566717D01*
X107580599Y-92455850D01*
X107624754Y-92332985D01*
X107667949Y-92312828D01*
X107723622Y-92308028D01*
X107794653Y-92347383D01*
G37*
G36*
X102936246Y-94446511D02*
G01*
X102665687Y-94316169D01*
X102936246Y-94183852D01*
X102936246Y-94446511D01*
G37*
G36*
X105524429Y-94455342D02*
G01*
X105257699Y-94326845D01*
X105524429Y-94196400D01*
X105524429Y-94455342D01*
G37*
%TO.C,kibuzzard-65BAAF54*%
G36*
X165045423Y-88397893D02*
G01*
X165152926Y-88413839D01*
X165258348Y-88440246D01*
X165360674Y-88476859D01*
X165458919Y-88523325D01*
X165552136Y-88579197D01*
X165639427Y-88643937D01*
X165719953Y-88716922D01*
X165792938Y-88797448D01*
X165857678Y-88884739D01*
X165913550Y-88977956D01*
X165960016Y-89076201D01*
X165996629Y-89178527D01*
X166023036Y-89283949D01*
X166038982Y-89391452D01*
X166044315Y-89500000D01*
X166038982Y-89608548D01*
X166023036Y-89716051D01*
X165996629Y-89821473D01*
X165960016Y-89923799D01*
X165913550Y-90022044D01*
X165857678Y-90115261D01*
X165792938Y-90202552D01*
X165719953Y-90283078D01*
X165639427Y-90356063D01*
X165552136Y-90420803D01*
X165458919Y-90476675D01*
X165360674Y-90523141D01*
X165258348Y-90559754D01*
X165152926Y-90586161D01*
X165045423Y-90602107D01*
X164936875Y-90607440D01*
X164857500Y-90607440D01*
X164257425Y-90607440D01*
X163512570Y-90607440D01*
X162436245Y-90607440D01*
X160841760Y-90607440D01*
X159310140Y-90607440D01*
X159142500Y-90607440D01*
X159063125Y-90607440D01*
X158954577Y-90602107D01*
X158847074Y-90586161D01*
X158741652Y-90559754D01*
X158639326Y-90523141D01*
X158541081Y-90476675D01*
X158447864Y-90420803D01*
X158360573Y-90356063D01*
X158280047Y-90283078D01*
X158207062Y-90202552D01*
X158142322Y-90115261D01*
X158086450Y-90022044D01*
X158082811Y-90014350D01*
X159142500Y-90014350D01*
X159153930Y-90113410D01*
X159204413Y-90166274D01*
X159310140Y-90183895D01*
X159408248Y-90171036D01*
X159458730Y-90132460D01*
X159476828Y-90081977D01*
X159479685Y-90016255D01*
X159479685Y-89800990D01*
X159717810Y-89800990D01*
X159829570Y-89787443D01*
X159938790Y-89746803D01*
X160036469Y-89684785D01*
X160317885Y-89684785D01*
X160338126Y-89829327D01*
X160398848Y-89958153D01*
X160489097Y-90064356D01*
X160597920Y-90141032D01*
X160717935Y-90187467D01*
X160841760Y-90202945D01*
X160965347Y-90188419D01*
X161084648Y-90144843D01*
X161192994Y-90070548D01*
X161283720Y-89963867D01*
X161345156Y-89832184D01*
X161365635Y-89682880D01*
X161348067Y-89539476D01*
X161295362Y-89414063D01*
X161214530Y-89315215D01*
X161441835Y-89315215D01*
X161460885Y-89389510D01*
X161748540Y-90090550D01*
X161801880Y-90158178D01*
X161900940Y-90191515D01*
X162005715Y-90145795D01*
X162036195Y-90105790D01*
X162052388Y-90074358D01*
X162065723Y-90040068D01*
X162113348Y-89910527D01*
X162145971Y-89821231D01*
X162169545Y-89760985D01*
X162225213Y-89909152D01*
X162262678Y-90008212D01*
X162281940Y-90058165D01*
X162297180Y-90090550D01*
X162351473Y-90158178D01*
X162436245Y-90191515D01*
X162508635Y-90178180D01*
X162565785Y-90131508D01*
X162603885Y-90060070D01*
X162756356Y-89688595D01*
X162971550Y-89688595D01*
X162984885Y-89811573D01*
X163024890Y-89926508D01*
X163091565Y-90033400D01*
X163164669Y-90105552D01*
X163262063Y-90161987D01*
X163379458Y-90198421D01*
X163512570Y-90210565D01*
X163690092Y-90199968D01*
X163816894Y-90168179D01*
X163892975Y-90115196D01*
X163907914Y-90071500D01*
X164091690Y-90071500D01*
X164125980Y-90153415D01*
X164257425Y-90185800D01*
X164354580Y-90173418D01*
X164406015Y-90136270D01*
X164424113Y-90085787D01*
X164426970Y-90020065D01*
X164426970Y-89620015D01*
X164471738Y-89532385D01*
X164567940Y-89496190D01*
X164650808Y-89511430D01*
X164716530Y-89526670D01*
X164821305Y-89454280D01*
X164857500Y-89320930D01*
X164833688Y-89232347D01*
X164773680Y-89193295D01*
X164707005Y-89177102D01*
X164631758Y-89172340D01*
X164527935Y-89204725D01*
X164450783Y-89256160D01*
X164423160Y-89288545D01*
X164402205Y-89225680D01*
X164352199Y-89192819D01*
X164259330Y-89181865D01*
X164161223Y-89194724D01*
X164110740Y-89233300D01*
X164094548Y-89281877D01*
X164091690Y-89347600D01*
X164091690Y-90016255D01*
X164091690Y-90071500D01*
X163907914Y-90071500D01*
X163918335Y-90041020D01*
X163893570Y-89953390D01*
X163788795Y-89867665D01*
X163712595Y-89888620D01*
X163691640Y-89896240D01*
X163616869Y-89913385D01*
X163518285Y-89919100D01*
X163392555Y-89882905D01*
X163329690Y-89793370D01*
X163781175Y-89793370D01*
X163909763Y-89737172D01*
X163953339Y-89665735D01*
X163967865Y-89563818D01*
X163951673Y-89451184D01*
X163903095Y-89347600D01*
X163832372Y-89265923D01*
X163744028Y-89207582D01*
X163638062Y-89172578D01*
X163514475Y-89160910D01*
X163368108Y-89176891D01*
X163238885Y-89224833D01*
X163126808Y-89304737D01*
X163040553Y-89411312D01*
X162988801Y-89539264D01*
X162971550Y-89688595D01*
X162756356Y-89688595D01*
X162813435Y-89549530D01*
X162864870Y-89424752D01*
X162895350Y-89320930D01*
X162864870Y-89249016D01*
X162773430Y-89189485D01*
X162697230Y-89170435D01*
X162617220Y-89200915D01*
X162560070Y-89292355D01*
X162443865Y-89608585D01*
X162423757Y-89557785D01*
X162386292Y-89456185D01*
X162331470Y-89303785D01*
X162316230Y-89271400D01*
X162260033Y-89210440D01*
X162161925Y-89179960D01*
X162049530Y-89235205D01*
X162007620Y-89301880D01*
X161895225Y-89610490D01*
X161834477Y-89445390D01*
X161789392Y-89326010D01*
X161759970Y-89252350D01*
X161744730Y-89219012D01*
X161711393Y-89186627D01*
X161649480Y-89170435D01*
X161550420Y-89195200D01*
X161468981Y-89247111D01*
X161441835Y-89315215D01*
X161214530Y-89315215D01*
X161207520Y-89306642D01*
X161096818Y-89224622D01*
X160975533Y-89175409D01*
X160843665Y-89159005D01*
X160711585Y-89175515D01*
X160589665Y-89225045D01*
X160477905Y-89307595D01*
X160389005Y-89415545D01*
X160335665Y-89541275D01*
X160317885Y-89684785D01*
X160036469Y-89684785D01*
X160045470Y-89679070D01*
X160116431Y-89609776D01*
X160173105Y-89520002D01*
X160210253Y-89414037D01*
X160222635Y-89296165D01*
X160210253Y-89178055D01*
X160173105Y-89071375D01*
X160116431Y-88980887D01*
X160045470Y-88911355D01*
X159939002Y-88843622D01*
X159830417Y-88802982D01*
X159719715Y-88789435D01*
X159312045Y-88789435D01*
X159213938Y-88802294D01*
X159163455Y-88840870D01*
X159145358Y-88891352D01*
X159142500Y-88957075D01*
X159142500Y-90014350D01*
X158082811Y-90014350D01*
X158039984Y-89923799D01*
X158003371Y-89821473D01*
X157976964Y-89716051D01*
X157961018Y-89608548D01*
X157955685Y-89500000D01*
X157961018Y-89391452D01*
X157976964Y-89283949D01*
X158003371Y-89178527D01*
X158039984Y-89076201D01*
X158086450Y-88977956D01*
X158142322Y-88884739D01*
X158207062Y-88797448D01*
X158280047Y-88716922D01*
X158360573Y-88643937D01*
X158447864Y-88579197D01*
X158541081Y-88523325D01*
X158639326Y-88476859D01*
X158741652Y-88440246D01*
X158847074Y-88413839D01*
X158954577Y-88397893D01*
X159063125Y-88392560D01*
X159142500Y-88392560D01*
X164857500Y-88392560D01*
X164936875Y-88392560D01*
X165045423Y-88397893D01*
G37*
G36*
X159832110Y-89169482D02*
G01*
X159887355Y-89296165D01*
X159832110Y-89421895D01*
X159719715Y-89463805D01*
X159479685Y-89463805D01*
X159479685Y-89126620D01*
X159717810Y-89126620D01*
X159832110Y-89169482D01*
G37*
G36*
X160969395Y-89540005D02*
G01*
X161013686Y-89597631D01*
X161028450Y-89679070D01*
X161012734Y-89760985D01*
X160965585Y-89820040D01*
X160839855Y-89867665D01*
X160716030Y-89820992D01*
X160670310Y-89762890D01*
X160655070Y-89681928D01*
X160669834Y-89600727D01*
X160714125Y-89541910D01*
X160841760Y-89494285D01*
X160969395Y-89540005D01*
G37*
G36*
X163604963Y-89488570D02*
G01*
X163638300Y-89559055D01*
X163565910Y-89620015D01*
X163325880Y-89620015D01*
X163386840Y-89512382D01*
X163509713Y-89461900D01*
X163604963Y-89488570D01*
G37*
D11*
%TO.C,RN2*%
X148100000Y-90120000D02*
X147100000Y-90120000D01*
X148100000Y-93480000D02*
X147100000Y-93480000D01*
%TO.C,D7*%
X156622500Y-92040000D02*
X153937500Y-92040000D01*
X156622500Y-93960000D02*
X156622500Y-92040000D01*
X153937500Y-93960000D02*
X156622500Y-93960000D01*
%TO.C,D6*%
X156622500Y-88540000D02*
X153937500Y-88540000D01*
X156622500Y-90460000D02*
X156622500Y-88540000D01*
X153937500Y-90460000D02*
X156622500Y-90460000D01*
%TO.C,kibuzzard-65BAAB8A*%
G36*
X140490053Y-91897893D02*
G01*
X140597556Y-91913839D01*
X140702978Y-91940246D01*
X140805304Y-91976859D01*
X140903549Y-92023325D01*
X140996766Y-92079197D01*
X141084057Y-92143937D01*
X141164583Y-92216922D01*
X141237568Y-92297448D01*
X141302308Y-92384739D01*
X141358180Y-92477956D01*
X141404646Y-92576201D01*
X141441259Y-92678527D01*
X141467666Y-92783949D01*
X141483612Y-92891452D01*
X141488945Y-93000000D01*
X141483612Y-93108548D01*
X141467666Y-93216051D01*
X141441259Y-93321473D01*
X141404646Y-93423799D01*
X141358180Y-93522044D01*
X141302308Y-93615261D01*
X141237568Y-93702552D01*
X141164583Y-93783078D01*
X141084057Y-93856063D01*
X140996766Y-93920803D01*
X140903549Y-93976675D01*
X140805304Y-94023141D01*
X140702978Y-94059754D01*
X140597556Y-94086161D01*
X140490053Y-94102107D01*
X140381505Y-94107440D01*
X140302130Y-94107440D01*
X139829690Y-94107440D01*
X139041972Y-94107440D01*
X136865510Y-94107440D01*
X136697870Y-94107440D01*
X136618495Y-94107440D01*
X136509947Y-94102107D01*
X136402444Y-94086161D01*
X136297022Y-94059754D01*
X136194696Y-94023141D01*
X136096451Y-93976675D01*
X136003234Y-93920803D01*
X135915943Y-93856063D01*
X135835417Y-93783078D01*
X135762432Y-93702552D01*
X135697692Y-93615261D01*
X135641820Y-93522044D01*
X135638181Y-93514350D01*
X136697870Y-93514350D01*
X136709300Y-93613410D01*
X136759782Y-93666274D01*
X136865510Y-93683895D01*
X136963617Y-93671036D01*
X137014100Y-93632460D01*
X137032197Y-93581977D01*
X137033647Y-93548640D01*
X137854205Y-93548640D01*
X137881827Y-93613410D01*
X137964695Y-93670560D01*
X138066612Y-93702945D01*
X138127572Y-93684847D01*
X138161862Y-93649605D01*
X138191390Y-93594360D01*
X138290450Y-93388620D01*
X138818135Y-93388620D01*
X138917195Y-93594360D01*
X138946722Y-93651510D01*
X138981012Y-93687705D01*
X139041972Y-93704850D01*
X139143890Y-93672465D01*
X139226757Y-93613886D01*
X139254380Y-93548640D01*
X139221995Y-93451485D01*
X139071746Y-93140970D01*
X139330580Y-93140970D01*
X139344550Y-93298344D01*
X139386460Y-93435187D01*
X139456310Y-93551497D01*
X139553677Y-93639868D01*
X139678137Y-93692891D01*
X139829690Y-93710565D01*
X139954044Y-93696172D01*
X140065487Y-93652992D01*
X140164017Y-93581025D01*
X140240747Y-93487680D01*
X140286784Y-93380365D01*
X140302130Y-93259080D01*
X140287207Y-93158432D01*
X140242440Y-93064770D01*
X140167827Y-92978092D01*
X140072260Y-92908772D01*
X139964627Y-92867179D01*
X139844930Y-92853315D01*
X139703960Y-92885700D01*
X139713485Y-92859030D01*
X139748727Y-92792355D01*
X139816355Y-92718060D01*
X139931607Y-92653290D01*
X140083055Y-92626620D01*
X140193545Y-92615190D01*
X140231645Y-92590425D01*
X140254505Y-92540895D01*
X140264030Y-92453265D01*
X140252600Y-92361825D01*
X140207832Y-92307532D01*
X140102105Y-92289435D01*
X139964907Y-92299189D01*
X139839825Y-92328449D01*
X139726858Y-92377217D01*
X139626007Y-92445493D01*
X139537272Y-92533275D01*
X139462863Y-92635612D01*
X139404989Y-92747549D01*
X139363651Y-92869088D01*
X139338848Y-93000229D01*
X139330580Y-93140970D01*
X139071746Y-93140970D01*
X138707645Y-92388495D01*
X138644780Y-92314200D01*
X138555245Y-92289435D01*
X138464757Y-92316105D01*
X138400940Y-92386590D01*
X137886590Y-93451485D01*
X137854205Y-93548640D01*
X137033647Y-93548640D01*
X137035055Y-93516255D01*
X137035055Y-93300990D01*
X137273180Y-93300990D01*
X137384940Y-93287443D01*
X137494160Y-93246803D01*
X137600840Y-93179070D01*
X137671801Y-93109776D01*
X137728475Y-93020002D01*
X137765622Y-92914037D01*
X137778005Y-92796165D01*
X137765622Y-92678055D01*
X137728475Y-92571375D01*
X137671801Y-92480887D01*
X137600840Y-92411355D01*
X137494372Y-92343622D01*
X137385787Y-92302982D01*
X137275085Y-92289435D01*
X136867415Y-92289435D01*
X136769307Y-92302294D01*
X136718825Y-92340870D01*
X136700727Y-92391352D01*
X136697870Y-92457075D01*
X136697870Y-93514350D01*
X135638181Y-93514350D01*
X135595354Y-93423799D01*
X135558741Y-93321473D01*
X135532334Y-93216051D01*
X135516388Y-93108548D01*
X135511055Y-93000000D01*
X135516388Y-92891452D01*
X135532334Y-92783949D01*
X135558741Y-92678527D01*
X135595354Y-92576201D01*
X135641820Y-92477956D01*
X135697692Y-92384739D01*
X135762432Y-92297448D01*
X135835417Y-92216922D01*
X135915943Y-92143937D01*
X136003234Y-92079197D01*
X136096451Y-92023325D01*
X136194696Y-91976859D01*
X136297022Y-91940246D01*
X136402444Y-91913839D01*
X136509947Y-91897893D01*
X136618495Y-91892560D01*
X136697870Y-91892560D01*
X140302130Y-91892560D01*
X140381505Y-91892560D01*
X140490053Y-91897893D01*
G37*
G36*
X137387480Y-92669482D02*
G01*
X137442725Y-92796165D01*
X137387480Y-92921895D01*
X137275085Y-92963805D01*
X137035055Y-92963805D01*
X137035055Y-92626620D01*
X137273180Y-92626620D01*
X137387480Y-92669482D01*
G37*
G36*
X139935417Y-93188595D02*
G01*
X139968755Y-93270510D01*
X139932084Y-93366236D01*
X139822070Y-93398145D01*
X139700150Y-93354330D01*
X139682052Y-93312420D01*
X139677290Y-93257175D01*
X139716342Y-93185737D01*
X139828737Y-93150495D01*
X139935417Y-93188595D01*
G37*
G36*
X138680975Y-93106680D02*
G01*
X138427610Y-93106680D01*
X138553340Y-92845695D01*
X138680975Y-93106680D01*
G37*
%TO.C,kibuzzard-65BAAB6D*%
G36*
X130219965Y-93044767D02*
G01*
X130264256Y-93102394D01*
X130279020Y-93183832D01*
X130263304Y-93265747D01*
X130216155Y-93324802D01*
X130090425Y-93372428D01*
X129966600Y-93325755D01*
X129920880Y-93267653D01*
X129905640Y-93186690D01*
X129920404Y-93105489D01*
X129964695Y-93046672D01*
X130092330Y-92999047D01*
X130219965Y-93044767D01*
G37*
G36*
X131362965Y-93044767D02*
G01*
X131407256Y-93102394D01*
X131422020Y-93183832D01*
X131406304Y-93265747D01*
X131359155Y-93324802D01*
X131233425Y-93372428D01*
X131109600Y-93325755D01*
X131063880Y-93267653D01*
X131048640Y-93186690D01*
X131063404Y-93105489D01*
X131107695Y-93046672D01*
X131235330Y-92999047D01*
X131362965Y-93044767D01*
G37*
G36*
X129064582Y-92648527D02*
G01*
X129096015Y-92715202D01*
X129090300Y-92783782D01*
X128998860Y-92823787D01*
X128881702Y-92850457D01*
X128846460Y-92959995D01*
X128880750Y-93069533D01*
X128983620Y-93096202D01*
X129090300Y-93111443D01*
X129125542Y-93149543D01*
X129136020Y-93221932D01*
X129106016Y-93319087D01*
X129016005Y-93351473D01*
X128703585Y-93351473D01*
X128703585Y-92629477D01*
X128970285Y-92629477D01*
X129064582Y-92648527D01*
G37*
G36*
X132821243Y-91900736D02*
G01*
X132928468Y-91916642D01*
X133033618Y-91942980D01*
X133135680Y-91979499D01*
X133233672Y-92025845D01*
X133326648Y-92081573D01*
X133413715Y-92146146D01*
X133494033Y-92218942D01*
X133566829Y-92299260D01*
X133631402Y-92386327D01*
X133687130Y-92479303D01*
X133733476Y-92577295D01*
X133769995Y-92679357D01*
X133796333Y-92784507D01*
X133812239Y-92891732D01*
X133817557Y-93000000D01*
X133812239Y-93108268D01*
X133796333Y-93215493D01*
X133769995Y-93320643D01*
X133733476Y-93422705D01*
X133687130Y-93520697D01*
X133631402Y-93613673D01*
X133566829Y-93700740D01*
X133494033Y-93781058D01*
X133413715Y-93853854D01*
X133326648Y-93918427D01*
X133233672Y-93974155D01*
X133135680Y-94020501D01*
X133033618Y-94057020D01*
X132928468Y-94083358D01*
X132821243Y-94099264D01*
X132712975Y-94104583D01*
X132633600Y-94104583D01*
X132414525Y-94104583D01*
X131235330Y-94104583D01*
X130092330Y-94104583D01*
X129035055Y-94104583D01*
X128366400Y-94104583D01*
X128287025Y-94104583D01*
X128178757Y-94099264D01*
X128071532Y-94083358D01*
X127966382Y-94057020D01*
X127864320Y-94020501D01*
X127766328Y-93974155D01*
X127673352Y-93918427D01*
X127586285Y-93853854D01*
X127505967Y-93781058D01*
X127433171Y-93700740D01*
X127368598Y-93613673D01*
X127312870Y-93520697D01*
X127311219Y-93517207D01*
X128366400Y-93517207D01*
X128377830Y-93616268D01*
X128428312Y-93670560D01*
X128534040Y-93688657D01*
X129035055Y-93688657D01*
X129149672Y-93674370D01*
X129252225Y-93631508D01*
X129342712Y-93560070D01*
X129413515Y-93467466D01*
X129457012Y-93361103D01*
X129473205Y-93240982D01*
X129467196Y-93189547D01*
X129568455Y-93189547D01*
X129588696Y-93334089D01*
X129649417Y-93462915D01*
X129739667Y-93569119D01*
X129848490Y-93645795D01*
X129968505Y-93692229D01*
X130092330Y-93707708D01*
X130215917Y-93693182D01*
X130335217Y-93649605D01*
X130443564Y-93575310D01*
X130534290Y-93468630D01*
X130595726Y-93336947D01*
X130615944Y-93189547D01*
X130711455Y-93189547D01*
X130731696Y-93334089D01*
X130792418Y-93462915D01*
X130882667Y-93569119D01*
X130991490Y-93645795D01*
X131111505Y-93692229D01*
X131235330Y-93707708D01*
X131358917Y-93693182D01*
X131478218Y-93649605D01*
X131586564Y-93575310D01*
X131677290Y-93468630D01*
X131738726Y-93336947D01*
X131759205Y-93187643D01*
X131741637Y-93044238D01*
X131688932Y-92918826D01*
X131656391Y-92879032D01*
X131835405Y-92879032D01*
X131863028Y-92989522D01*
X131932560Y-93021907D01*
X132010665Y-93016192D01*
X132010665Y-93298133D01*
X132022095Y-93426614D01*
X132056385Y-93527579D01*
X132113535Y-93601027D01*
X132192698Y-93650769D01*
X132293028Y-93680614D01*
X132414525Y-93690563D01*
X132478343Y-93687705D01*
X132528825Y-93671513D01*
X132568830Y-93621506D01*
X132582165Y-93524827D01*
X132538350Y-93397192D01*
X132487868Y-93379095D01*
X132419288Y-93376237D01*
X132358328Y-93353377D01*
X132342135Y-93279082D01*
X132342135Y-93016192D01*
X132465960Y-93023812D01*
X132531683Y-93020955D01*
X132582165Y-93004762D01*
X132620741Y-92954756D01*
X132633600Y-92858077D01*
X132621218Y-92760446D01*
X132584070Y-92711392D01*
X132533588Y-92693295D01*
X132468818Y-92690437D01*
X132342135Y-92698057D01*
X132342135Y-92511367D01*
X132332610Y-92414212D01*
X132281651Y-92361349D01*
X132178305Y-92343727D01*
X132080674Y-92355634D01*
X132031620Y-92391352D01*
X132013523Y-92437072D01*
X132010665Y-92501842D01*
X132010665Y-92698057D01*
X131947800Y-92690437D01*
X131871600Y-92715202D01*
X131844930Y-92765685D01*
X131835405Y-92879032D01*
X131656391Y-92879032D01*
X131601090Y-92811405D01*
X131490388Y-92729384D01*
X131369103Y-92680172D01*
X131237235Y-92663767D01*
X131105155Y-92680277D01*
X130983235Y-92729807D01*
X130871475Y-92812357D01*
X130782575Y-92920307D01*
X130729235Y-93046037D01*
X130711455Y-93189547D01*
X130615944Y-93189547D01*
X130616205Y-93187643D01*
X130598637Y-93044238D01*
X130545932Y-92918826D01*
X130458090Y-92811405D01*
X130347388Y-92729384D01*
X130226103Y-92680172D01*
X130094235Y-92663767D01*
X129962155Y-92680277D01*
X129840235Y-92729807D01*
X129728475Y-92812357D01*
X129639575Y-92920307D01*
X129586235Y-93046037D01*
X129568455Y-93189547D01*
X129467196Y-93189547D01*
X129460717Y-93134091D01*
X129423252Y-93034396D01*
X129360810Y-92941897D01*
X129415103Y-92831884D01*
X129433200Y-92711392D01*
X129419442Y-92601326D01*
X129378167Y-92502266D01*
X129309375Y-92414212D01*
X129224285Y-92346479D01*
X129126495Y-92305839D01*
X129016005Y-92292292D01*
X128535945Y-92292292D01*
X128437837Y-92305151D01*
X128387355Y-92343727D01*
X128369257Y-92393257D01*
X128366400Y-92459932D01*
X128366400Y-93517207D01*
X127311219Y-93517207D01*
X127266524Y-93422705D01*
X127230005Y-93320643D01*
X127203667Y-93215493D01*
X127187761Y-93108268D01*
X127182442Y-93000000D01*
X127187761Y-92891732D01*
X127203667Y-92784507D01*
X127230005Y-92679357D01*
X127266524Y-92577295D01*
X127312870Y-92479303D01*
X127368598Y-92386327D01*
X127433171Y-92299260D01*
X127505967Y-92218942D01*
X127586285Y-92146146D01*
X127673352Y-92081573D01*
X127766328Y-92025845D01*
X127864320Y-91979499D01*
X127966382Y-91942980D01*
X128071532Y-91916642D01*
X128178757Y-91900736D01*
X128287025Y-91895417D01*
X128366400Y-91895417D01*
X132633600Y-91895417D01*
X132712975Y-91895417D01*
X132821243Y-91900736D01*
G37*
%TO.C,kibuzzard-65BAAB5D*%
G36*
X119796352Y-92988570D02*
G01*
X119829690Y-93059055D01*
X119757300Y-93120015D01*
X119517270Y-93120015D01*
X119578230Y-93012382D01*
X119701102Y-92961900D01*
X119796352Y-92988570D01*
G37*
G36*
X117773242Y-92988570D02*
G01*
X117806580Y-93059055D01*
X117734190Y-93120015D01*
X117494160Y-93120015D01*
X117555120Y-93012382D01*
X117677992Y-92961900D01*
X117773242Y-92988570D01*
G37*
G36*
X116657865Y-92669482D02*
G01*
X116713110Y-92796165D01*
X116657865Y-92921895D01*
X116547375Y-92963805D01*
X116303535Y-92963805D01*
X116303535Y-92626620D01*
X116543565Y-92626620D01*
X116657865Y-92669482D01*
G37*
G36*
X121221573Y-91897893D02*
G01*
X121329076Y-91913839D01*
X121434498Y-91940246D01*
X121536824Y-91976859D01*
X121635069Y-92023325D01*
X121728286Y-92079197D01*
X121815577Y-92143937D01*
X121896103Y-92216922D01*
X121969088Y-92297448D01*
X122033828Y-92384739D01*
X122089700Y-92477956D01*
X122136166Y-92576201D01*
X122172779Y-92678527D01*
X122199186Y-92783949D01*
X122215132Y-92891452D01*
X122220465Y-93000000D01*
X122215132Y-93108548D01*
X122199186Y-93216051D01*
X122172779Y-93321473D01*
X122136166Y-93423799D01*
X122089700Y-93522044D01*
X122033828Y-93615261D01*
X121969088Y-93702552D01*
X121896103Y-93783078D01*
X121815577Y-93856063D01*
X121728286Y-93920803D01*
X121635069Y-93976675D01*
X121536824Y-94023141D01*
X121434498Y-94059754D01*
X121329076Y-94086161D01*
X121221573Y-94102107D01*
X121113025Y-94107440D01*
X121033650Y-94107440D01*
X120814575Y-94107440D01*
X119703960Y-94107440D01*
X118620967Y-94107440D01*
X117680850Y-94107440D01*
X116847412Y-94107440D01*
X115966350Y-94107440D01*
X115886975Y-94107440D01*
X115778427Y-94102107D01*
X115670924Y-94086161D01*
X115565502Y-94059754D01*
X115463176Y-94023141D01*
X115364931Y-93976675D01*
X115271714Y-93920803D01*
X115184423Y-93856063D01*
X115103897Y-93783078D01*
X115030912Y-93702552D01*
X114966172Y-93615261D01*
X114910300Y-93522044D01*
X114906661Y-93514350D01*
X115966350Y-93514350D01*
X115977780Y-93613410D01*
X116028262Y-93666274D01*
X116133990Y-93683895D01*
X116232097Y-93671036D01*
X116282580Y-93632460D01*
X116300677Y-93581977D01*
X116303535Y-93516255D01*
X116303535Y-93300990D01*
X116543565Y-93300990D01*
X116602620Y-93297180D01*
X116676703Y-93472652D01*
X116726233Y-93587587D01*
X116751210Y-93641985D01*
X116786452Y-93679132D01*
X116847412Y-93697230D01*
X116945520Y-93670560D01*
X117034102Y-93615315D01*
X117063630Y-93548640D01*
X117035055Y-93449580D01*
X116981715Y-93328295D01*
X116938535Y-93228600D01*
X116921622Y-93188595D01*
X117139830Y-93188595D01*
X117153165Y-93311573D01*
X117193170Y-93426508D01*
X117259845Y-93533400D01*
X117332949Y-93605552D01*
X117430342Y-93661987D01*
X117547738Y-93698421D01*
X117680850Y-93710565D01*
X117858372Y-93699968D01*
X117985174Y-93668179D01*
X118061255Y-93615196D01*
X118086615Y-93541020D01*
X118081770Y-93523875D01*
X118231395Y-93523875D01*
X118267590Y-93596265D01*
X118382207Y-93655532D01*
X118500000Y-93691092D01*
X118620967Y-93702945D01*
X118736643Y-93696383D01*
X118838561Y-93676698D01*
X118926720Y-93643890D01*
X119030542Y-93540068D01*
X119058403Y-93463153D01*
X119067690Y-93371475D01*
X119058403Y-93280749D01*
X119030542Y-93206692D01*
X119012445Y-93188595D01*
X119162940Y-93188595D01*
X119176275Y-93311573D01*
X119216280Y-93426508D01*
X119282955Y-93533400D01*
X119356059Y-93605552D01*
X119453452Y-93661987D01*
X119570848Y-93698421D01*
X119703960Y-93710565D01*
X119881482Y-93699968D01*
X120008284Y-93668179D01*
X120084365Y-93615196D01*
X120109725Y-93541020D01*
X120084960Y-93453390D01*
X119980185Y-93367665D01*
X119903985Y-93388620D01*
X119883030Y-93396240D01*
X119808259Y-93413385D01*
X119709675Y-93419100D01*
X119583945Y-93382905D01*
X119521080Y-93293370D01*
X119972565Y-93293370D01*
X120101152Y-93237172D01*
X120144729Y-93165735D01*
X120159255Y-93063818D01*
X120143062Y-92951184D01*
X120106992Y-92874270D01*
X120235455Y-92874270D01*
X120263077Y-92984760D01*
X120332610Y-93017145D01*
X120410715Y-93011430D01*
X120410715Y-93293370D01*
X120422145Y-93421852D01*
X120456435Y-93522817D01*
X120513585Y-93596265D01*
X120592748Y-93646007D01*
X120693078Y-93675852D01*
X120814575Y-93685800D01*
X120878392Y-93682942D01*
X120928875Y-93666750D01*
X120968880Y-93616744D01*
X120982215Y-93520065D01*
X120938400Y-93392430D01*
X120887917Y-93374332D01*
X120819337Y-93371475D01*
X120758377Y-93348615D01*
X120742185Y-93274320D01*
X120742185Y-93011430D01*
X120866010Y-93019050D01*
X120931732Y-93016192D01*
X120982215Y-93000000D01*
X121020791Y-92949994D01*
X121033650Y-92853315D01*
X121021267Y-92755684D01*
X120984120Y-92706630D01*
X120933637Y-92688532D01*
X120868867Y-92685675D01*
X120742185Y-92693295D01*
X120742185Y-92506605D01*
X120732660Y-92409450D01*
X120681701Y-92356586D01*
X120578355Y-92338965D01*
X120480724Y-92350871D01*
X120431670Y-92386590D01*
X120413572Y-92432310D01*
X120410715Y-92497080D01*
X120410715Y-92693295D01*
X120347850Y-92685675D01*
X120271650Y-92710440D01*
X120244980Y-92760922D01*
X120235455Y-92874270D01*
X120106992Y-92874270D01*
X120094485Y-92847600D01*
X120023762Y-92765923D01*
X119935417Y-92707582D01*
X119829452Y-92672578D01*
X119705865Y-92660910D01*
X119559497Y-92676891D01*
X119430275Y-92724833D01*
X119318197Y-92804737D01*
X119231943Y-92911312D01*
X119180191Y-93039264D01*
X119162940Y-93188595D01*
X119012445Y-93188595D01*
X118938150Y-93114300D01*
X118818135Y-93066675D01*
X118694310Y-93041910D01*
X118597155Y-93014764D01*
X118564770Y-92967615D01*
X118677165Y-92925705D01*
X118811467Y-92954280D01*
X118896240Y-92982855D01*
X118981965Y-92916180D01*
X119023875Y-92803785D01*
X118957200Y-92727585D01*
X118816230Y-92679007D01*
X118679070Y-92662815D01*
X118530251Y-92674855D01*
X118414504Y-92710973D01*
X118331827Y-92771171D01*
X118282220Y-92855449D01*
X118265685Y-92963805D01*
X118274734Y-93057864D01*
X118301880Y-93138113D01*
X118393320Y-93245745D01*
X118511906Y-93304324D01*
X118631445Y-93335280D01*
X118727171Y-93357187D01*
X118759080Y-93388620D01*
X118730029Y-93422910D01*
X118642875Y-93434340D01*
X118498095Y-93387667D01*
X118371412Y-93340995D01*
X118303785Y-93373380D01*
X118249492Y-93461486D01*
X118231395Y-93523875D01*
X118081770Y-93523875D01*
X118061850Y-93453390D01*
X117957075Y-93367665D01*
X117880875Y-93388620D01*
X117859920Y-93396240D01*
X117785149Y-93413385D01*
X117686565Y-93419100D01*
X117560835Y-93382905D01*
X117497970Y-93293370D01*
X117949455Y-93293370D01*
X118078042Y-93237172D01*
X118121619Y-93165735D01*
X118136145Y-93063818D01*
X118119952Y-92951184D01*
X118071375Y-92847600D01*
X118000652Y-92765923D01*
X117912307Y-92707582D01*
X117806342Y-92672578D01*
X117682755Y-92660910D01*
X117536387Y-92676891D01*
X117407165Y-92724833D01*
X117295087Y-92804737D01*
X117208833Y-92911312D01*
X117157081Y-93039264D01*
X117139830Y-93188595D01*
X116921622Y-93188595D01*
X116905515Y-93150495D01*
X116984890Y-93049318D01*
X117032515Y-92931208D01*
X117048390Y-92796165D01*
X117036007Y-92678055D01*
X116998860Y-92571375D01*
X116942662Y-92480887D01*
X116873130Y-92411355D01*
X116766662Y-92343622D01*
X116658077Y-92302982D01*
X116547375Y-92289435D01*
X116135895Y-92289435D01*
X116037787Y-92302294D01*
X115987305Y-92340870D01*
X115969207Y-92391352D01*
X115966350Y-92457075D01*
X115966350Y-93514350D01*
X114906661Y-93514350D01*
X114863834Y-93423799D01*
X114827221Y-93321473D01*
X114800814Y-93216051D01*
X114784868Y-93108548D01*
X114779535Y-93000000D01*
X114784868Y-92891452D01*
X114800814Y-92783949D01*
X114827221Y-92678527D01*
X114863834Y-92576201D01*
X114910300Y-92477956D01*
X114966172Y-92384739D01*
X115030912Y-92297448D01*
X115103897Y-92216922D01*
X115184423Y-92143937D01*
X115271714Y-92079197D01*
X115364931Y-92023325D01*
X115463176Y-91976859D01*
X115565502Y-91940246D01*
X115670924Y-91913839D01*
X115778427Y-91897893D01*
X115886975Y-91892560D01*
X115966350Y-91892560D01*
X121033650Y-91892560D01*
X121113025Y-91892560D01*
X121221573Y-91897893D01*
G37*
%TO.C,U1*%
X76265000Y-103412500D02*
X76265000Y-101212500D01*
X76265000Y-103412500D02*
X76265000Y-105612500D01*
X83035000Y-103412500D02*
X83035000Y-99812500D01*
X83035000Y-103412500D02*
X83035000Y-105612500D01*
%TO.C,SW4*%
X146115000Y-97015000D02*
X160085000Y-97015000D01*
X160085000Y-110985000D02*
X146115000Y-110985000D01*
X146115000Y-110985000D02*
X146115000Y-97015000D01*
X160085000Y-97015000D02*
X160085000Y-110985000D01*
%TO.C,SW3*%
X126795000Y-97015000D02*
X140765000Y-97015000D01*
X140765000Y-110985000D02*
X126795000Y-110985000D01*
X126795000Y-110985000D02*
X126795000Y-97015000D01*
X140765000Y-97015000D02*
X140765000Y-110985000D01*
%TO.C,SW2*%
X107435000Y-97015000D02*
X121405000Y-97015000D01*
X121405000Y-110985000D02*
X107435000Y-110985000D01*
X107435000Y-110985000D02*
X107435000Y-97015000D01*
X121405000Y-97015000D02*
X121405000Y-110985000D01*
%TO.C,SW1*%
X88095000Y-97015000D02*
X102065000Y-97015000D01*
X102065000Y-110985000D02*
X88095000Y-110985000D01*
X88095000Y-110985000D02*
X88095000Y-97015000D01*
X102065000Y-97015000D02*
X102065000Y-110985000D01*
%TO.C,RN1*%
X88150000Y-88470000D02*
X89150000Y-88470000D01*
X88150000Y-91830000D02*
X89150000Y-91830000D01*
%TO.C,R1*%
X124360436Y-93235000D02*
X124814564Y-93235000D01*
X124360436Y-91765000D02*
X124814564Y-91765000D01*
%TO.C,J1*%
X96420000Y-88870000D02*
X109180000Y-88870000D01*
X109180000Y-91530000D02*
X109180000Y-88870000D01*
X96420000Y-91530000D02*
X96420000Y-88870000D01*
X93820000Y-91530000D02*
X93820000Y-90200000D01*
X95150000Y-91530000D02*
X93820000Y-91530000D01*
X96420000Y-91530000D02*
X109180000Y-91530000D01*
D10*
%TO.C,D5*%
X168700000Y-116310000D02*
X168000000Y-117010000D01*
X168700000Y-115110000D02*
X168700000Y-116310000D01*
X168000000Y-117010000D02*
X163900000Y-117010000D01*
X163900000Y-117010000D02*
X163900000Y-115110000D01*
X163900000Y-115110000D02*
X168700000Y-115110000D01*
%TO.C,D4*%
X146325000Y-116310000D02*
X145625000Y-117010000D01*
X146325000Y-115110000D02*
X146325000Y-116310000D01*
X145625000Y-117010000D02*
X141525000Y-117010000D01*
X141525000Y-117010000D02*
X141525000Y-115110000D01*
X141525000Y-115110000D02*
X146325000Y-115110000D01*
%TO.C,D3*%
X126600000Y-116310000D02*
X125900000Y-117010000D01*
X126600000Y-115110000D02*
X126600000Y-116310000D01*
X125900000Y-117010000D02*
X121800000Y-117010000D01*
X121800000Y-117010000D02*
X121800000Y-115110000D01*
X121800000Y-115110000D02*
X126600000Y-115110000D01*
%TO.C,D2*%
X102225000Y-115110000D02*
X107025000Y-115110000D01*
X102225000Y-117010000D02*
X102225000Y-115110000D01*
X106325000Y-117010000D02*
X102225000Y-117010000D01*
X107025000Y-115110000D02*
X107025000Y-116310000D01*
X107025000Y-116310000D02*
X106325000Y-117010000D01*
%TO.C,D1*%
X84150000Y-116310000D02*
X83450000Y-117010000D01*
X84150000Y-115110000D02*
X84150000Y-116310000D01*
X83450000Y-117010000D02*
X79350000Y-117010000D01*
X79350000Y-117010000D02*
X79350000Y-115110000D01*
X79350000Y-115110000D02*
X84150000Y-115110000D01*
D11*
%TO.C,C9*%
X166311252Y-111835000D02*
X165788748Y-111835000D01*
X166311252Y-110365000D02*
X165788748Y-110365000D01*
%TO.C,C8*%
X137888748Y-114265000D02*
X138411252Y-114265000D01*
X137888748Y-115735000D02*
X138411252Y-115735000D01*
%TO.C,C6*%
X118188748Y-114265000D02*
X118711252Y-114265000D01*
X118188748Y-115735000D02*
X118711252Y-115735000D01*
%TO.C,C5*%
X124238748Y-88765000D02*
X124761252Y-88765000D01*
X124238748Y-90235000D02*
X124761252Y-90235000D01*
%TO.C,C4*%
X98588748Y-114365000D02*
X99111252Y-114365000D01*
X98588748Y-115835000D02*
X99111252Y-115835000D01*
%TO.C,C3*%
X82111252Y-112035000D02*
X81588748Y-112035000D01*
X82111252Y-110565000D02*
X81588748Y-110565000D01*
%TO.C,C2*%
X73515000Y-104461252D02*
X73515000Y-103938748D01*
X74985000Y-104461252D02*
X74985000Y-103938748D01*
%TO.C,C1*%
X73515000Y-100461252D02*
X73515000Y-99938748D01*
X74985000Y-100461252D02*
X74985000Y-99938748D01*
%TD*%
M02*
