M48
; DRILL file {KiCad 7.0.8} date Wed Jan 31 16:08:28 2024
; FORMAT={-:-/ absolute / inch / decimal}
; #@! TF.CreationDate,2024-01-31T16:08:28-06:00
; #@! TF.GenerationSoftware,Kicad,Pcbnew,7.0.8
; #@! TF.FileFunction,MixedPlating,1,2
FMAT,2
INCH
; #@! TA.AperFunction,Plated,PTH,ViaDrill
T1C0.0157
; #@! TA.AperFunction,Plated,PTH,ComponentDrill
T2C0.0236
; #@! TA.AperFunction,Plated,PTH,ComponentDrill
T3C0.0394
; #@! TA.AperFunction,Plated,PTH,ComponentDrill
T4C0.0591
; #@! TA.AperFunction,NonPlated,NPTH,ComponentDrill
T5C0.0256
; #@! TA.AperFunction,NonPlated,NPTH,ComponentDrill
T6C0.0276
; #@! TA.AperFunction,NonPlated,NPTH,ComponentDrill
T7C0.0669
; #@! TA.AperFunction,NonPlated,NPTH,ComponentDrill
T8C0.1575
%
G90
G05
T1
X2.9724Y-4.0157
X3.0118Y-3.7795
X3.0315Y-3.8583
X3.0709Y-3.7795
X3.1102Y-4.0349
X3.1496Y-3.5433
X3.2283Y-3.7795
X3.2874Y-3.8189
X3.2972Y-3.9567
X3.3858Y-3.6417
X3.4252Y-4.5276
X3.4646Y-4.4291
X3.5827Y-3.5039
X3.7402Y-3.6811
X3.7795Y-4.5276
X3.7795Y-4.6457
X3.8386Y-3.9961
X4.1043Y-3.9272
X4.4488Y-3.5236
X4.5079Y-3.6614
X4.5079Y-4.5276
X4.5669Y-4.4094
X4.8031Y-3.6614
X4.927Y-4.4939
X5.2559Y-4.626
X5.3346Y-4.5276
X5.5512Y-4.4291
X5.7677Y-3.7795
X6.122Y-4.626
X6.2795Y-4.4291
X6.6339Y-4.4488
T3
X3.7461Y-3.5512
X3.8461Y-3.5512
X3.9461Y-3.5512
X4.0461Y-3.5512
X4.1461Y-3.5512
X4.2461Y-3.5512
T4
X3.5933Y-3.9945
X3.8433Y-3.8945
X4.3547Y-3.9945
X4.6047Y-3.8945
X5.1169Y-3.9945
X5.3669Y-3.8945
X5.8776Y-3.9945
X6.1276Y-3.8945
T5
X3.0287Y-3.6673
X3.2563Y-3.6673
T6
X4.6526Y-3.5197
X4.6526Y-3.5866
X5.1447Y-3.5197
X5.1447Y-3.5866
X5.4498Y-3.5197
X5.4498Y-3.5866
T7
X3.5433Y-4.0945
X3.9433Y-4.0945
X4.3047Y-4.0945
X4.7047Y-4.0945
X5.0669Y-4.0945
X5.4669Y-4.0945
X5.8276Y-4.0945
X6.2276Y-4.0945
T8
X3.7433Y-4.0945
X4.5047Y-4.0945
X5.2669Y-4.0945
X6.0276Y-4.0945
T2
G00X2.9724Y-3.5394
M15
G01X2.9724Y-3.5079
M16
G05
G00X2.9724Y-3.7087
M15
G01X2.9724Y-3.6654
M16
G05
G00X3.3126Y-3.5394
M15
G01X3.3126Y-3.5079
M16
G05
G00X3.3126Y-3.7087
M15
G01X3.3126Y-3.6654
M16
G05
T0
M30
