%TF.GenerationSoftware,KiCad,Pcbnew,(6.0.11)*%
%TF.CreationDate,2023-02-12T12:57:38-06:00*%
%TF.ProjectId,DisplayMin,44697370-6c61-4794-9d69-6e2e6b696361,rev?*%
%TF.SameCoordinates,Original*%
%TF.FileFunction,Legend,Top*%
%TF.FilePolarity,Positive*%
%FSLAX46Y46*%
G04 Gerber Fmt 4.6, Leading zero omitted, Abs format (unit mm)*
G04 Created by KiCad (PCBNEW (6.0.11)) date 2023-02-12 12:57:38*
%MOMM*%
%LPD*%
G01*
G04 APERTURE LIST*
%ADD10C,0.150000*%
%ADD11C,0.120000*%
G04 APERTURE END LIST*
D10*
%TO.C,RN1*%
X148052380Y-102090476D02*
X147576190Y-102423809D01*
X148052380Y-102661904D02*
X147052380Y-102661904D01*
X147052380Y-102280952D01*
X147100000Y-102185714D01*
X147147619Y-102138095D01*
X147242857Y-102090476D01*
X147385714Y-102090476D01*
X147480952Y-102138095D01*
X147528571Y-102185714D01*
X147576190Y-102280952D01*
X147576190Y-102661904D01*
X148052380Y-101661904D02*
X147052380Y-101661904D01*
X148052380Y-101090476D01*
X147052380Y-101090476D01*
X148052380Y-100090476D02*
X148052380Y-100661904D01*
X148052380Y-100376190D02*
X147052380Y-100376190D01*
X147195238Y-100471428D01*
X147290476Y-100566666D01*
X147338095Y-100661904D01*
%TO.C,BT1*%
X133485714Y-82071428D02*
X133342857Y-82023809D01*
X133295238Y-81976190D01*
X133247619Y-81880952D01*
X133247619Y-81738095D01*
X133295238Y-81642857D01*
X133342857Y-81595238D01*
X133438095Y-81547619D01*
X133819047Y-81547619D01*
X133819047Y-82547619D01*
X133485714Y-82547619D01*
X133390476Y-82500000D01*
X133342857Y-82452380D01*
X133295238Y-82357142D01*
X133295238Y-82261904D01*
X133342857Y-82166666D01*
X133390476Y-82119047D01*
X133485714Y-82071428D01*
X133819047Y-82071428D01*
X132961904Y-82547619D02*
X132390476Y-82547619D01*
X132676190Y-81547619D02*
X132676190Y-82547619D01*
X131533333Y-81547619D02*
X132104761Y-81547619D01*
X131819047Y-81547619D02*
X131819047Y-82547619D01*
X131914285Y-82404761D01*
X132009523Y-82309523D01*
X132104761Y-82261904D01*
%TO.C,U2*%
X171938095Y-113177380D02*
X171938095Y-113986904D01*
X171985714Y-114082142D01*
X172033333Y-114129761D01*
X172128571Y-114177380D01*
X172319047Y-114177380D01*
X172414285Y-114129761D01*
X172461904Y-114082142D01*
X172509523Y-113986904D01*
X172509523Y-113177380D01*
X172938095Y-113272619D02*
X172985714Y-113225000D01*
X173080952Y-113177380D01*
X173319047Y-113177380D01*
X173414285Y-113225000D01*
X173461904Y-113272619D01*
X173509523Y-113367857D01*
X173509523Y-113463095D01*
X173461904Y-113605952D01*
X172890476Y-114177380D01*
X173509523Y-114177380D01*
%TO.C,U1*%
X112638095Y-110452380D02*
X112638095Y-111261904D01*
X112685714Y-111357142D01*
X112733333Y-111404761D01*
X112828571Y-111452380D01*
X113019047Y-111452380D01*
X113114285Y-111404761D01*
X113161904Y-111357142D01*
X113209523Y-111261904D01*
X113209523Y-110452380D01*
X114209523Y-111452380D02*
X113638095Y-111452380D01*
X113923809Y-111452380D02*
X113923809Y-110452380D01*
X113828571Y-110595238D01*
X113733333Y-110690476D01*
X113638095Y-110738095D01*
%TO.C,SW3*%
X133826666Y-104310761D02*
X133969523Y-104358380D01*
X134207619Y-104358380D01*
X134302857Y-104310761D01*
X134350476Y-104263142D01*
X134398095Y-104167904D01*
X134398095Y-104072666D01*
X134350476Y-103977428D01*
X134302857Y-103929809D01*
X134207619Y-103882190D01*
X134017142Y-103834571D01*
X133921904Y-103786952D01*
X133874285Y-103739333D01*
X133826666Y-103644095D01*
X133826666Y-103548857D01*
X133874285Y-103453619D01*
X133921904Y-103406000D01*
X134017142Y-103358380D01*
X134255238Y-103358380D01*
X134398095Y-103406000D01*
X134731428Y-103358380D02*
X134969523Y-104358380D01*
X135160000Y-103644095D01*
X135350476Y-104358380D01*
X135588571Y-103358380D01*
X135874285Y-103358380D02*
X136493333Y-103358380D01*
X136160000Y-103739333D01*
X136302857Y-103739333D01*
X136398095Y-103786952D01*
X136445714Y-103834571D01*
X136493333Y-103929809D01*
X136493333Y-104167904D01*
X136445714Y-104263142D01*
X136398095Y-104310761D01*
X136302857Y-104358380D01*
X136017142Y-104358380D01*
X135921904Y-104310761D01*
X135874285Y-104263142D01*
%TO.C,SW2*%
X159466666Y-114304761D02*
X159609523Y-114352380D01*
X159847619Y-114352380D01*
X159942857Y-114304761D01*
X159990476Y-114257142D01*
X160038095Y-114161904D01*
X160038095Y-114066666D01*
X159990476Y-113971428D01*
X159942857Y-113923809D01*
X159847619Y-113876190D01*
X159657142Y-113828571D01*
X159561904Y-113780952D01*
X159514285Y-113733333D01*
X159466666Y-113638095D01*
X159466666Y-113542857D01*
X159514285Y-113447619D01*
X159561904Y-113400000D01*
X159657142Y-113352380D01*
X159895238Y-113352380D01*
X160038095Y-113400000D01*
X160371428Y-113352380D02*
X160609523Y-114352380D01*
X160800000Y-113638095D01*
X160990476Y-114352380D01*
X161228571Y-113352380D01*
X161561904Y-113447619D02*
X161609523Y-113400000D01*
X161704761Y-113352380D01*
X161942857Y-113352380D01*
X162038095Y-113400000D01*
X162085714Y-113447619D01*
X162133333Y-113542857D01*
X162133333Y-113638095D01*
X162085714Y-113780952D01*
X161514285Y-114352380D01*
X162133333Y-114352380D01*
%TO.C,SW1*%
X95666666Y-115904761D02*
X95809523Y-115952380D01*
X96047619Y-115952380D01*
X96142857Y-115904761D01*
X96190476Y-115857142D01*
X96238095Y-115761904D01*
X96238095Y-115666666D01*
X96190476Y-115571428D01*
X96142857Y-115523809D01*
X96047619Y-115476190D01*
X95857142Y-115428571D01*
X95761904Y-115380952D01*
X95714285Y-115333333D01*
X95666666Y-115238095D01*
X95666666Y-115142857D01*
X95714285Y-115047619D01*
X95761904Y-115000000D01*
X95857142Y-114952380D01*
X96095238Y-114952380D01*
X96238095Y-115000000D01*
X96571428Y-114952380D02*
X96809523Y-115952380D01*
X97000000Y-115238095D01*
X97190476Y-115952380D01*
X97428571Y-114952380D01*
X98333333Y-115952380D02*
X97761904Y-115952380D01*
X98047619Y-115952380D02*
X98047619Y-114952380D01*
X97952380Y-115095238D01*
X97857142Y-115190476D01*
X97761904Y-115238095D01*
%TO.C,R2*%
X167233333Y-104002380D02*
X166900000Y-103526190D01*
X166661904Y-104002380D02*
X166661904Y-103002380D01*
X167042857Y-103002380D01*
X167138095Y-103050000D01*
X167185714Y-103097619D01*
X167233333Y-103192857D01*
X167233333Y-103335714D01*
X167185714Y-103430952D01*
X167138095Y-103478571D01*
X167042857Y-103526190D01*
X166661904Y-103526190D01*
X167614285Y-103097619D02*
X167661904Y-103050000D01*
X167757142Y-103002380D01*
X167995238Y-103002380D01*
X168090476Y-103050000D01*
X168138095Y-103097619D01*
X168185714Y-103192857D01*
X168185714Y-103288095D01*
X168138095Y-103430952D01*
X167566666Y-104002380D01*
X168185714Y-104002380D01*
%TO.C,R1*%
X111933333Y-102802380D02*
X111600000Y-102326190D01*
X111361904Y-102802380D02*
X111361904Y-101802380D01*
X111742857Y-101802380D01*
X111838095Y-101850000D01*
X111885714Y-101897619D01*
X111933333Y-101992857D01*
X111933333Y-102135714D01*
X111885714Y-102230952D01*
X111838095Y-102278571D01*
X111742857Y-102326190D01*
X111361904Y-102326190D01*
X112885714Y-102802380D02*
X112314285Y-102802380D01*
X112600000Y-102802380D02*
X112600000Y-101802380D01*
X112504761Y-101945238D01*
X112409523Y-102040476D01*
X112314285Y-102088095D01*
%TO.C,J4*%
X172897380Y-91333333D02*
X173611666Y-91333333D01*
X173754523Y-91380952D01*
X173849761Y-91476190D01*
X173897380Y-91619047D01*
X173897380Y-91714285D01*
X173230714Y-90428571D02*
X173897380Y-90428571D01*
X172849761Y-90666666D02*
X173564047Y-90904761D01*
X173564047Y-90285714D01*
%TO.C,J3*%
X172682380Y-119858333D02*
X173396666Y-119858333D01*
X173539523Y-119905952D01*
X173634761Y-120001190D01*
X173682380Y-120144047D01*
X173682380Y-120239285D01*
X172682380Y-119477380D02*
X172682380Y-118858333D01*
X173063333Y-119191666D01*
X173063333Y-119048809D01*
X173110952Y-118953571D01*
X173158571Y-118905952D01*
X173253809Y-118858333D01*
X173491904Y-118858333D01*
X173587142Y-118905952D01*
X173634761Y-118953571D01*
X173682380Y-119048809D01*
X173682380Y-119334523D01*
X173634761Y-119429761D01*
X173587142Y-119477380D01*
%TO.C,J2*%
X128322380Y-102433333D02*
X129036666Y-102433333D01*
X129179523Y-102480952D01*
X129274761Y-102576190D01*
X129322380Y-102719047D01*
X129322380Y-102814285D01*
X128417619Y-102004761D02*
X128370000Y-101957142D01*
X128322380Y-101861904D01*
X128322380Y-101623809D01*
X128370000Y-101528571D01*
X128417619Y-101480952D01*
X128512857Y-101433333D01*
X128608095Y-101433333D01*
X128750952Y-101480952D01*
X129322380Y-102052380D01*
X129322380Y-101433333D01*
%TO.C,J1*%
X186166666Y-119482380D02*
X186166666Y-120196666D01*
X186119047Y-120339523D01*
X186023809Y-120434761D01*
X185880952Y-120482380D01*
X185785714Y-120482380D01*
X187166666Y-120482380D02*
X186595238Y-120482380D01*
X186880952Y-120482380D02*
X186880952Y-119482380D01*
X186785714Y-119625238D01*
X186690476Y-119720476D01*
X186595238Y-119768095D01*
%TO.C,D2*%
X161461904Y-104052380D02*
X161461904Y-103052380D01*
X161700000Y-103052380D01*
X161842857Y-103100000D01*
X161938095Y-103195238D01*
X161985714Y-103290476D01*
X162033333Y-103480952D01*
X162033333Y-103623809D01*
X161985714Y-103814285D01*
X161938095Y-103909523D01*
X161842857Y-104004761D01*
X161700000Y-104052380D01*
X161461904Y-104052380D01*
X162414285Y-103147619D02*
X162461904Y-103100000D01*
X162557142Y-103052380D01*
X162795238Y-103052380D01*
X162890476Y-103100000D01*
X162938095Y-103147619D01*
X162985714Y-103242857D01*
X162985714Y-103338095D01*
X162938095Y-103480952D01*
X162366666Y-104052380D01*
X162985714Y-104052380D01*
%TO.C,D1*%
X116161904Y-106102380D02*
X116161904Y-105102380D01*
X116400000Y-105102380D01*
X116542857Y-105150000D01*
X116638095Y-105245238D01*
X116685714Y-105340476D01*
X116733333Y-105530952D01*
X116733333Y-105673809D01*
X116685714Y-105864285D01*
X116638095Y-105959523D01*
X116542857Y-106054761D01*
X116400000Y-106102380D01*
X116161904Y-106102380D01*
X117685714Y-106102380D02*
X117114285Y-106102380D01*
X117400000Y-106102380D02*
X117400000Y-105102380D01*
X117304761Y-105245238D01*
X117209523Y-105340476D01*
X117114285Y-105388095D01*
%TO.C,C4*%
X177133333Y-105462142D02*
X177085714Y-105509761D01*
X176942857Y-105557380D01*
X176847619Y-105557380D01*
X176704761Y-105509761D01*
X176609523Y-105414523D01*
X176561904Y-105319285D01*
X176514285Y-105128809D01*
X176514285Y-104985952D01*
X176561904Y-104795476D01*
X176609523Y-104700238D01*
X176704761Y-104605000D01*
X176847619Y-104557380D01*
X176942857Y-104557380D01*
X177085714Y-104605000D01*
X177133333Y-104652619D01*
X177990476Y-104890714D02*
X177990476Y-105557380D01*
X177752380Y-104509761D02*
X177514285Y-105224047D01*
X178133333Y-105224047D01*
%TO.C,C3*%
X107183333Y-108777142D02*
X107135714Y-108824761D01*
X106992857Y-108872380D01*
X106897619Y-108872380D01*
X106754761Y-108824761D01*
X106659523Y-108729523D01*
X106611904Y-108634285D01*
X106564285Y-108443809D01*
X106564285Y-108300952D01*
X106611904Y-108110476D01*
X106659523Y-108015238D01*
X106754761Y-107920000D01*
X106897619Y-107872380D01*
X106992857Y-107872380D01*
X107135714Y-107920000D01*
X107183333Y-107967619D01*
X107516666Y-107872380D02*
X108135714Y-107872380D01*
X107802380Y-108253333D01*
X107945238Y-108253333D01*
X108040476Y-108300952D01*
X108088095Y-108348571D01*
X108135714Y-108443809D01*
X108135714Y-108681904D01*
X108088095Y-108777142D01*
X108040476Y-108824761D01*
X107945238Y-108872380D01*
X107659523Y-108872380D01*
X107564285Y-108824761D01*
X107516666Y-108777142D01*
%TO.C,C2*%
X120333333Y-108777142D02*
X120285714Y-108824761D01*
X120142857Y-108872380D01*
X120047619Y-108872380D01*
X119904761Y-108824761D01*
X119809523Y-108729523D01*
X119761904Y-108634285D01*
X119714285Y-108443809D01*
X119714285Y-108300952D01*
X119761904Y-108110476D01*
X119809523Y-108015238D01*
X119904761Y-107920000D01*
X120047619Y-107872380D01*
X120142857Y-107872380D01*
X120285714Y-107920000D01*
X120333333Y-107967619D01*
X120714285Y-107967619D02*
X120761904Y-107920000D01*
X120857142Y-107872380D01*
X121095238Y-107872380D01*
X121190476Y-107920000D01*
X121238095Y-107967619D01*
X121285714Y-108062857D01*
X121285714Y-108158095D01*
X121238095Y-108300952D01*
X120666666Y-108872380D01*
X121285714Y-108872380D01*
%TO.C,C1*%
X120333333Y-115537142D02*
X120285714Y-115584761D01*
X120142857Y-115632380D01*
X120047619Y-115632380D01*
X119904761Y-115584761D01*
X119809523Y-115489523D01*
X119761904Y-115394285D01*
X119714285Y-115203809D01*
X119714285Y-115060952D01*
X119761904Y-114870476D01*
X119809523Y-114775238D01*
X119904761Y-114680000D01*
X120047619Y-114632380D01*
X120142857Y-114632380D01*
X120285714Y-114680000D01*
X120333333Y-114727619D01*
X121285714Y-115632380D02*
X120714285Y-115632380D01*
X121000000Y-115632380D02*
X121000000Y-114632380D01*
X120904761Y-114775238D01*
X120809523Y-114870476D01*
X120714285Y-114918095D01*
%TO.C,kibuzzard-63E934AF*%
G36*
X173474116Y-70355410D02*
G01*
X184525884Y-70355410D01*
X184525884Y-77644590D01*
X173474116Y-77644590D01*
X173474116Y-76512566D01*
X173887528Y-76512566D01*
X173900351Y-76653928D01*
X173938823Y-76785176D01*
X174002942Y-76906310D01*
X174092708Y-77017329D01*
X174200777Y-77110045D01*
X174319803Y-77176272D01*
X174449787Y-77216007D01*
X174590728Y-77229252D01*
X174731369Y-77215827D01*
X174860449Y-77175549D01*
X174977970Y-77108420D01*
X175061124Y-77034668D01*
X175409524Y-77034668D01*
X175421083Y-77132924D01*
X175472138Y-77187831D01*
X175579063Y-77206133D01*
X176272631Y-77206133D01*
X176372813Y-77186868D01*
X176405565Y-77144483D01*
X176415197Y-77062603D01*
X176411911Y-77034668D01*
X176540425Y-77034668D01*
X176551984Y-77132924D01*
X176603039Y-77187831D01*
X176709964Y-77206133D01*
X177472889Y-77206133D01*
X177573071Y-77194574D01*
X177626533Y-77143520D01*
X177644354Y-77036595D01*
X177643849Y-77032742D01*
X177769582Y-77032742D01*
X177792700Y-77156042D01*
X177843755Y-77192166D01*
X177939120Y-77204207D01*
X178291684Y-77204207D01*
X178433589Y-77191082D01*
X178564536Y-77151708D01*
X178684525Y-77086084D01*
X178793558Y-76994210D01*
X178884167Y-76883974D01*
X178948888Y-76763261D01*
X178987720Y-76632074D01*
X179000665Y-76490410D01*
X178987419Y-76349288D01*
X178947684Y-76219726D01*
X178881458Y-76101723D01*
X178788741Y-75995279D01*
X178780457Y-75988657D01*
X178708010Y-75930739D01*
X179565152Y-75930739D01*
X179574785Y-76011655D01*
X179613316Y-76056930D01*
X179703866Y-76071379D01*
X180073768Y-76071379D01*
X180073768Y-77038521D01*
X180076658Y-77104988D01*
X180093997Y-77155079D01*
X180144089Y-77194574D01*
X180239454Y-77206133D01*
X180335783Y-77194574D01*
X180386837Y-77155079D01*
X180404177Y-77105951D01*
X180407066Y-77040448D01*
X180407066Y-76703297D01*
X180992746Y-76703297D01*
X181006232Y-76827668D01*
X181046690Y-76943905D01*
X181114120Y-77052007D01*
X181188053Y-77124976D01*
X181286549Y-77182051D01*
X181405274Y-77218897D01*
X181539894Y-77231179D01*
X181719427Y-77220462D01*
X181847665Y-77188313D01*
X181924608Y-77134730D01*
X181950255Y-77059714D01*
X181945355Y-77042374D01*
X182096675Y-77042374D01*
X182133280Y-77115584D01*
X182249196Y-77175522D01*
X182368322Y-77211485D01*
X182490660Y-77223473D01*
X182660921Y-77208542D01*
X182799876Y-77163749D01*
X182904874Y-77058750D01*
X182933051Y-76980965D01*
X182942443Y-76888248D01*
X182933051Y-76796495D01*
X182904874Y-76721599D01*
X182811435Y-76628160D01*
X182690061Y-76579996D01*
X182564833Y-76554950D01*
X182466578Y-76527497D01*
X182433826Y-76479814D01*
X182547494Y-76437429D01*
X182683318Y-76466328D01*
X182769051Y-76495226D01*
X182855747Y-76427796D01*
X182871551Y-76385411D01*
X183019506Y-76385411D01*
X183047441Y-76497153D01*
X183117761Y-76529905D01*
X183196751Y-76524125D01*
X183196751Y-76809258D01*
X183208310Y-76939195D01*
X183242989Y-77041304D01*
X183300786Y-77115584D01*
X183380846Y-77165889D01*
X183482312Y-77196072D01*
X183605185Y-77206133D01*
X183669726Y-77203244D01*
X183720780Y-77186868D01*
X183761238Y-77136295D01*
X183774724Y-77038521D01*
X183730413Y-76909441D01*
X183679359Y-76891138D01*
X183610002Y-76888248D01*
X183548351Y-76865129D01*
X183531975Y-76789993D01*
X183531975Y-76524125D01*
X183657203Y-76531831D01*
X183723670Y-76528941D01*
X183774724Y-76512566D01*
X183813737Y-76461993D01*
X183826742Y-76364219D01*
X183814219Y-76265482D01*
X183776651Y-76215873D01*
X183725596Y-76197570D01*
X183660093Y-76194680D01*
X183554863Y-76201010D01*
X183531975Y-76202387D01*
X183531975Y-76013582D01*
X183522342Y-75915326D01*
X183470807Y-75861864D01*
X183366290Y-75844043D01*
X183267553Y-75856084D01*
X183217943Y-75892208D01*
X183199641Y-75938445D01*
X183196751Y-76003949D01*
X183196751Y-76202387D01*
X183133174Y-76194680D01*
X183056111Y-76219726D01*
X183029139Y-76270780D01*
X183019506Y-76385411D01*
X182871551Y-76385411D01*
X182898131Y-76314128D01*
X182830701Y-76237065D01*
X182688134Y-76187937D01*
X182549421Y-76171561D01*
X182398916Y-76183737D01*
X182354316Y-76197655D01*
X182281858Y-76220265D01*
X182198244Y-76281145D01*
X182148076Y-76366377D01*
X182131353Y-76475961D01*
X182140505Y-76571085D01*
X182167958Y-76652242D01*
X182260434Y-76761094D01*
X182380364Y-76820336D01*
X182501256Y-76851643D01*
X182598067Y-76873799D01*
X182630337Y-76905587D01*
X182512816Y-76951825D01*
X182366396Y-76904624D01*
X182238278Y-76857423D01*
X182169885Y-76890175D01*
X182114977Y-76979279D01*
X182096675Y-77042374D01*
X181945355Y-77042374D01*
X181925210Y-76971091D01*
X181819248Y-76884395D01*
X181742185Y-76905587D01*
X181720992Y-76913294D01*
X181645374Y-76930633D01*
X181545674Y-76936413D01*
X181418520Y-76899808D01*
X181354943Y-76809258D01*
X181811541Y-76809258D01*
X181941585Y-76752424D01*
X181985656Y-76680178D01*
X182000346Y-76577106D01*
X181983970Y-76463197D01*
X181934842Y-76358439D01*
X181835517Y-76253548D01*
X181704509Y-76190613D01*
X181541821Y-76169635D01*
X181393795Y-76185797D01*
X181263109Y-76234282D01*
X181149762Y-76315091D01*
X181147816Y-76317496D01*
X181062531Y-76422873D01*
X181010192Y-76552274D01*
X180992746Y-76703297D01*
X180407066Y-76703297D01*
X180407066Y-76071379D01*
X180775043Y-76071379D01*
X180873298Y-76054040D01*
X180906050Y-76012619D01*
X180915683Y-75932666D01*
X180906050Y-75851749D01*
X180867518Y-75806475D01*
X180776969Y-75792025D01*
X179705792Y-75792025D01*
X179607537Y-75809365D01*
X179574785Y-75850786D01*
X179565152Y-75930739D01*
X178708010Y-75930739D01*
X178678565Y-75907199D01*
X178559960Y-75844284D01*
X178432926Y-75806535D01*
X178297464Y-75793952D01*
X177941047Y-75792025D01*
X177841828Y-75805030D01*
X177816911Y-75824071D01*
X177790774Y-75844043D01*
X177772471Y-75894134D01*
X177769582Y-75961564D01*
X177769582Y-77032742D01*
X177643849Y-77032742D01*
X177631350Y-76937376D01*
X177592336Y-76886322D01*
X177541282Y-76868019D01*
X177474815Y-76865129D01*
X176881429Y-76865129D01*
X176881429Y-76670545D01*
X177259038Y-76670545D01*
X177359220Y-76658985D01*
X177414128Y-76607931D01*
X177432430Y-76501006D01*
X177419426Y-76401787D01*
X177380413Y-76350733D01*
X177329359Y-76332431D01*
X177262892Y-76329541D01*
X176881429Y-76329541D01*
X176881429Y-76134956D01*
X177472889Y-76134956D01*
X177573071Y-76123397D01*
X177626533Y-76072343D01*
X177644354Y-75965417D01*
X177631350Y-75866199D01*
X177592336Y-75815144D01*
X177541282Y-75796842D01*
X177474815Y-75793952D01*
X176715744Y-75793952D01*
X176577030Y-75829594D01*
X176540425Y-75963491D01*
X176540425Y-77034668D01*
X176411911Y-77034668D01*
X176405565Y-76980724D01*
X176367033Y-76935449D01*
X176317847Y-76927764D01*
X176274557Y-76921000D01*
X175750528Y-76921000D01*
X175750528Y-75965417D01*
X175740895Y-75865235D01*
X175688396Y-75811773D01*
X175580989Y-75793952D01*
X175481771Y-75806956D01*
X175430716Y-75845970D01*
X175412414Y-75897024D01*
X175409524Y-75963491D01*
X175409524Y-77034668D01*
X175061124Y-77034668D01*
X175083932Y-77014439D01*
X175171592Y-76901373D01*
X175234205Y-76776988D01*
X175271774Y-76641285D01*
X175284296Y-76494263D01*
X175271172Y-76347783D01*
X175231797Y-76213705D01*
X175166173Y-76092030D01*
X175074299Y-75982757D01*
X174964605Y-75892569D01*
X174845518Y-75828149D01*
X174717040Y-75789497D01*
X174647996Y-75783045D01*
X174579169Y-75776613D01*
X174448162Y-75790099D01*
X174321008Y-75830557D01*
X174203005Y-75894616D01*
X174099451Y-75978904D01*
X174012755Y-76084624D01*
X173945325Y-76212983D01*
X173901977Y-76357717D01*
X173887528Y-76512566D01*
X173474116Y-76512566D01*
X173474116Y-74189981D01*
X177350632Y-74189981D01*
X177360407Y-74278936D01*
X177399508Y-74328790D01*
X177493350Y-74344430D01*
X177663439Y-74344430D01*
X177663439Y-74500834D01*
X177681035Y-74608362D01*
X177727956Y-74644530D01*
X177816911Y-74655283D01*
X177905866Y-74644530D01*
X177955719Y-74602497D01*
X177972337Y-74502789D01*
X177972337Y-74344430D01*
X178140471Y-74344430D01*
X178240179Y-74326835D01*
X178273415Y-74279914D01*
X178283190Y-74190959D01*
X178272437Y-74102004D01*
X178230404Y-74052150D01*
X178130696Y-74035532D01*
X177972337Y-74035532D01*
X177972337Y-73879128D01*
X177954742Y-73771601D01*
X177906843Y-73735432D01*
X177817888Y-73724680D01*
X177728934Y-73735432D01*
X177679080Y-73777466D01*
X177663439Y-73877173D01*
X177663439Y-74035532D01*
X177507036Y-74035532D01*
X177399508Y-74053128D01*
X177361384Y-74101027D01*
X177350632Y-74189981D01*
X173474116Y-74189981D01*
X173474116Y-71510977D01*
X173888972Y-71510977D01*
X173902119Y-71660053D01*
X173941558Y-71797719D01*
X174001338Y-71917774D01*
X174075504Y-72014016D01*
X174162072Y-72091903D01*
X174259058Y-72156891D01*
X174359765Y-72206997D01*
X174457496Y-72240235D01*
X174553242Y-72258839D01*
X174647996Y-72265040D01*
X174743990Y-72257102D01*
X174843457Y-72233290D01*
X174977402Y-72181696D01*
X175045863Y-72140024D01*
X175108371Y-72090415D01*
X175117556Y-72066602D01*
X175266129Y-72066602D01*
X175278035Y-72169790D01*
X175330621Y-72224856D01*
X175440754Y-72243212D01*
X175542949Y-72229817D01*
X175595535Y-72189633D01*
X175614387Y-72137048D01*
X175617363Y-72068587D01*
X175617363Y-71663774D01*
X176143222Y-71663774D01*
X176143222Y-72066602D01*
X176155129Y-72169790D01*
X176207715Y-72224856D01*
X176317847Y-72243212D01*
X176420043Y-72229817D01*
X176472629Y-72189633D01*
X176491480Y-72137048D01*
X176494457Y-72068587D01*
X176494457Y-71812602D01*
X176623441Y-71812602D01*
X176645269Y-71919758D01*
X176649238Y-71939602D01*
X176671066Y-71991196D01*
X176720179Y-72070075D01*
X176776238Y-72132087D01*
X176890891Y-72209257D01*
X177023183Y-72255559D01*
X177173113Y-72270993D01*
X177324146Y-72255669D01*
X177457099Y-72209698D01*
X177571972Y-72133079D01*
X177626985Y-72070571D01*
X177829941Y-72070571D01*
X177881535Y-72195587D01*
X178004566Y-72249165D01*
X178780457Y-72249165D01*
X178903488Y-72225352D01*
X178946152Y-72173758D01*
X178959051Y-72073548D01*
X178947144Y-71972344D01*
X178900512Y-71914798D01*
X178784426Y-71895946D01*
X178421285Y-71895946D01*
X178421285Y-71886024D01*
X178470894Y-71866180D01*
X178593926Y-71799208D01*
X178732832Y-71689571D01*
X178797324Y-71618133D01*
X178851894Y-71526852D01*
X178889101Y-71422673D01*
X178901504Y-71312540D01*
X178884967Y-71176169D01*
X178835358Y-71050161D01*
X178756223Y-70939477D01*
X179018582Y-70939477D01*
X179048347Y-71034727D01*
X179596035Y-72145977D01*
X179662512Y-72216423D01*
X179756769Y-72243212D01*
X179776613Y-72243212D01*
X179868887Y-72216423D01*
X179935363Y-72145977D01*
X180244415Y-71518915D01*
X180592191Y-71518915D01*
X180598585Y-71658041D01*
X180617768Y-71787026D01*
X180649738Y-71905868D01*
X180692650Y-72005583D01*
X180745980Y-72090415D01*
X180815929Y-72161604D01*
X180908699Y-72220391D01*
X181020568Y-72259831D01*
X181147816Y-72272977D01*
X181274568Y-72260079D01*
X181384949Y-72221383D01*
X181475982Y-72162844D01*
X181544691Y-72090415D01*
X181612408Y-71975941D01*
X181660777Y-71842864D01*
X181689799Y-71691183D01*
X181699472Y-71520899D01*
X181699372Y-71518915D01*
X181798691Y-71518915D01*
X181805085Y-71658041D01*
X181824268Y-71787026D01*
X181856238Y-71905868D01*
X181899150Y-72005583D01*
X181952480Y-72090415D01*
X182022429Y-72161604D01*
X182115199Y-72220391D01*
X182227068Y-72259831D01*
X182354316Y-72272977D01*
X182481068Y-72260079D01*
X182591449Y-72221383D01*
X182682482Y-72162844D01*
X182751191Y-72090415D01*
X182818908Y-71975941D01*
X182867277Y-71842864D01*
X182873067Y-71812602D01*
X183005191Y-71812602D01*
X183027019Y-71919758D01*
X183030988Y-71939602D01*
X183052816Y-71991196D01*
X183101929Y-72070075D01*
X183157988Y-72132087D01*
X183272641Y-72209257D01*
X183404933Y-72255559D01*
X183554863Y-72270993D01*
X183705896Y-72255669D01*
X183838849Y-72209698D01*
X183953722Y-72133079D01*
X184041917Y-72032868D01*
X184094834Y-71916120D01*
X184112472Y-71782837D01*
X184096101Y-71681633D01*
X184046988Y-71592337D01*
X183984480Y-71527844D01*
X183925941Y-71485180D01*
X183925941Y-71471290D01*
X184011931Y-71409002D01*
X184063525Y-71325328D01*
X184080722Y-71220266D01*
X184065068Y-71108370D01*
X184018104Y-71004190D01*
X183939832Y-70907727D01*
X183834439Y-70830557D01*
X183706117Y-70784255D01*
X183554863Y-70768821D01*
X183456388Y-70775766D01*
X183367340Y-70796602D01*
X183236371Y-70858118D01*
X183154019Y-70936501D01*
X183110363Y-70999008D01*
X183064722Y-71133946D01*
X183089527Y-71204887D01*
X183163941Y-71266899D01*
X183273082Y-71302618D01*
X183348488Y-71277813D01*
X183404051Y-71203399D01*
X183415957Y-71179587D01*
X183467551Y-71131962D01*
X183579668Y-71108149D01*
X183689801Y-71145852D01*
X183729488Y-71225227D01*
X183691785Y-71283270D01*
X183578676Y-71302618D01*
X183475488Y-71312540D01*
X183420422Y-71366614D01*
X183402066Y-71477243D01*
X183415461Y-71578942D01*
X183455644Y-71630040D01*
X183507238Y-71649883D01*
X183597527Y-71653852D01*
X183712621Y-71694532D01*
X183761238Y-71788790D01*
X183711629Y-71885032D01*
X183648129Y-71917030D01*
X183556847Y-71927696D01*
X183473504Y-71915790D01*
X183364363Y-71820540D01*
X183304832Y-71717352D01*
X183199660Y-71697508D01*
X183053808Y-71726282D01*
X183005191Y-71812602D01*
X182873067Y-71812602D01*
X182896299Y-71691183D01*
X182905972Y-71520899D01*
X182899358Y-71389710D01*
X182879514Y-71263371D01*
X182846441Y-71141883D01*
X182805017Y-71041673D01*
X182752183Y-70955352D01*
X182682730Y-70882426D01*
X182591449Y-70822399D01*
X182480572Y-70782216D01*
X182352332Y-70768821D01*
X182223596Y-70782464D01*
X182111230Y-70823391D01*
X182018709Y-70884411D01*
X181949504Y-70958329D01*
X181894685Y-71053827D01*
X181845324Y-71179587D01*
X181819417Y-71279908D01*
X181803873Y-71393017D01*
X181798691Y-71518915D01*
X181699372Y-71518915D01*
X181692858Y-71389710D01*
X181673014Y-71263371D01*
X181639941Y-71141883D01*
X181598517Y-71041673D01*
X181545683Y-70955352D01*
X181476230Y-70882426D01*
X181384949Y-70822399D01*
X181274072Y-70782216D01*
X181145832Y-70768821D01*
X181017096Y-70782464D01*
X180904730Y-70823391D01*
X180812209Y-70884411D01*
X180743004Y-70958329D01*
X180688185Y-71053827D01*
X180638824Y-71179587D01*
X180612917Y-71279908D01*
X180597373Y-71393017D01*
X180592191Y-71518915D01*
X180244415Y-71518915D01*
X180483051Y-71034727D01*
X180512816Y-70939477D01*
X180483547Y-70873001D01*
X180395738Y-70812477D01*
X180278660Y-70778743D01*
X180191347Y-70832321D01*
X180163566Y-70891852D01*
X179766691Y-71761008D01*
X179745111Y-71715120D01*
X179696246Y-71609204D01*
X179631754Y-71469057D01*
X179563293Y-71320477D01*
X179495080Y-71171897D01*
X179431332Y-71031751D01*
X179381474Y-70922610D01*
X179354933Y-70867048D01*
X179322191Y-70814462D01*
X179288457Y-70786680D01*
X179235871Y-70778743D01*
X179135660Y-70812477D01*
X179047851Y-70873001D01*
X179018582Y-70939477D01*
X178756223Y-70939477D01*
X178752676Y-70934516D01*
X178643425Y-70842463D01*
X178514110Y-70787232D01*
X178364730Y-70768821D01*
X178215461Y-70787011D01*
X178086477Y-70841581D01*
X177977777Y-70932532D01*
X177895646Y-71046413D01*
X177846367Y-71169775D01*
X177829941Y-71302618D01*
X177839863Y-71403821D01*
X177893937Y-71460376D01*
X178004566Y-71479227D01*
X178105769Y-71467321D01*
X178159347Y-71431602D01*
X178178199Y-71381993D01*
X178181176Y-71316508D01*
X178181176Y-71304602D01*
X178189113Y-71258962D01*
X178241699Y-71166688D01*
X178351832Y-71120055D01*
X178451051Y-71137915D01*
X178503637Y-71176610D01*
X178534394Y-71230188D01*
X178548285Y-71280790D01*
X178529681Y-71367606D01*
X178473871Y-71449462D01*
X178391767Y-71524620D01*
X178294285Y-71591344D01*
X178189113Y-71654348D01*
X178083941Y-71718344D01*
X177986459Y-71789286D01*
X177904355Y-71873126D01*
X177848545Y-71967632D01*
X177829941Y-72070571D01*
X177626985Y-72070571D01*
X177660167Y-72032868D01*
X177713084Y-71916120D01*
X177730722Y-71782837D01*
X177714351Y-71681633D01*
X177665238Y-71592337D01*
X177602730Y-71527844D01*
X177544191Y-71485180D01*
X177544191Y-71471290D01*
X177630181Y-71409002D01*
X177681775Y-71325328D01*
X177698972Y-71220266D01*
X177683318Y-71108370D01*
X177636354Y-71004190D01*
X177558082Y-70907727D01*
X177452689Y-70830557D01*
X177324367Y-70784255D01*
X177173113Y-70768821D01*
X177074638Y-70775766D01*
X176985590Y-70796602D01*
X176854621Y-70858118D01*
X176772269Y-70936501D01*
X176728613Y-70999008D01*
X176682972Y-71133946D01*
X176707777Y-71204887D01*
X176782191Y-71266899D01*
X176891332Y-71302618D01*
X176966738Y-71277813D01*
X177022301Y-71203399D01*
X177034207Y-71179587D01*
X177085801Y-71131962D01*
X177197918Y-71108149D01*
X177308051Y-71145852D01*
X177347738Y-71225227D01*
X177310035Y-71283270D01*
X177196926Y-71302618D01*
X177093738Y-71312540D01*
X177038672Y-71366614D01*
X177020316Y-71477243D01*
X177033711Y-71578942D01*
X177073894Y-71630040D01*
X177125488Y-71649883D01*
X177215777Y-71653852D01*
X177330871Y-71694532D01*
X177379488Y-71788790D01*
X177329879Y-71885032D01*
X177266379Y-71917030D01*
X177175097Y-71927696D01*
X177091754Y-71915790D01*
X176982613Y-71820540D01*
X176923082Y-71717352D01*
X176817910Y-71697508D01*
X176672058Y-71726282D01*
X176623441Y-71812602D01*
X176494457Y-71812602D01*
X176494457Y-70967258D01*
X176484535Y-70864071D01*
X176456754Y-70824383D01*
X176405160Y-70800571D01*
X176313879Y-70790649D01*
X176218629Y-70802555D01*
X176165051Y-70844227D01*
X176146199Y-70896813D01*
X176143222Y-70965274D01*
X176143222Y-71372071D01*
X175617363Y-71372071D01*
X175617363Y-70967258D01*
X175607441Y-70864071D01*
X175553367Y-70809005D01*
X175442738Y-70790649D01*
X175340543Y-70804044D01*
X175287957Y-70844227D01*
X175269105Y-70896813D01*
X175266129Y-70965274D01*
X175266129Y-72066602D01*
X175117556Y-72066602D01*
X175135160Y-72020962D01*
X175091504Y-71909837D01*
X175022547Y-71826493D01*
X174958551Y-71798712D01*
X174863301Y-71838399D01*
X174827582Y-71864196D01*
X174749199Y-71895946D01*
X174633113Y-71911821D01*
X174504625Y-71889993D01*
X174381097Y-71824508D01*
X174279894Y-71699493D01*
X174250129Y-71614909D01*
X174240207Y-71519907D01*
X174250129Y-71424905D01*
X174279894Y-71340321D01*
X174379113Y-71217290D01*
X174505121Y-71150317D01*
X174633113Y-71127993D01*
X174758129Y-71144860D01*
X174855363Y-71195462D01*
X174956566Y-71239118D01*
X175022051Y-71212329D01*
X175095472Y-71131962D01*
X175137144Y-71021829D01*
X175085551Y-70927571D01*
X175029988Y-70891852D01*
X174982363Y-70864071D01*
X174836512Y-70805532D01*
X174741013Y-70783952D01*
X174647004Y-70776758D01*
X174516255Y-70788665D01*
X174385948Y-70824383D01*
X174256082Y-70883915D01*
X174158599Y-70946175D01*
X174072527Y-71021829D01*
X173999353Y-71115094D01*
X173940566Y-71230188D01*
X173901871Y-71363389D01*
X173888972Y-71510977D01*
X173474116Y-71510977D01*
X173474116Y-70355410D01*
G37*
G36*
X174715233Y-76144108D02*
G01*
X174832514Y-76223579D01*
X174915598Y-76346880D01*
X174943292Y-76504859D01*
X174915838Y-76662357D01*
X174833477Y-76784213D01*
X174716919Y-76862239D01*
X174586875Y-76888248D01*
X174456590Y-76861517D01*
X174339310Y-76781323D01*
X174256226Y-76658263D01*
X174228532Y-76502933D01*
X174255986Y-76347602D01*
X174338347Y-76224542D01*
X174454905Y-76144348D01*
X174584949Y-76117617D01*
X174715233Y-76144108D01*
G37*
G36*
X178432565Y-76161206D02*
G01*
X178550809Y-76239955D01*
X178632448Y-76357717D01*
X178659660Y-76501006D01*
X178631725Y-76643814D01*
X178547919Y-76760131D01*
X178429434Y-76837435D01*
X178297464Y-76863203D01*
X178110586Y-76863203D01*
X178110586Y-76134956D01*
X178295537Y-76134956D01*
X178432565Y-76161206D01*
G37*
G36*
X182440885Y-71144984D02*
G01*
X182504137Y-71219770D01*
X182542088Y-71344414D01*
X182554738Y-71518915D01*
X182554738Y-71530821D01*
X182541964Y-71700981D01*
X182503640Y-71822524D01*
X182439768Y-71895450D01*
X182350347Y-71919758D01*
X182262663Y-71894768D01*
X182200031Y-71819796D01*
X182162452Y-71694842D01*
X182149926Y-71519907D01*
X182162576Y-71344972D01*
X182200527Y-71220018D01*
X182263779Y-71145046D01*
X182352332Y-71120055D01*
X182440885Y-71144984D01*
G37*
G36*
X181234385Y-71144984D02*
G01*
X181297637Y-71219770D01*
X181335588Y-71344414D01*
X181348238Y-71518915D01*
X181348238Y-71530821D01*
X181335464Y-71700981D01*
X181297140Y-71822524D01*
X181233268Y-71895450D01*
X181143847Y-71919758D01*
X181056163Y-71894768D01*
X180993531Y-71819796D01*
X180955952Y-71694842D01*
X180943426Y-71519907D01*
X180956076Y-71344972D01*
X180994027Y-71220018D01*
X181057279Y-71145046D01*
X181145832Y-71120055D01*
X181234385Y-71144984D01*
G37*
G36*
X181633333Y-76501006D02*
G01*
X181667048Y-76572289D01*
X181593838Y-76633940D01*
X181351089Y-76633940D01*
X181412740Y-76525088D01*
X181537004Y-76474034D01*
X181633333Y-76501006D01*
G37*
%TO.C,kibuzzard-63E93477*%
G36*
X100500000Y-113774502D02*
G01*
X99346417Y-113005446D01*
X99346417Y-112415425D01*
X99759828Y-112415425D01*
X99773223Y-112517621D01*
X99813406Y-112570207D01*
X99865992Y-112589058D01*
X99934453Y-112592035D01*
X101035781Y-112592035D01*
X101138969Y-112580128D01*
X101194035Y-112527543D01*
X101212391Y-112417410D01*
X101198996Y-112315214D01*
X101158812Y-112262628D01*
X101106227Y-112243777D01*
X101037766Y-112240800D01*
X100813531Y-112240800D01*
X100813531Y-111992753D01*
X100799420Y-111876337D01*
X100757087Y-111762566D01*
X100686531Y-111651441D01*
X100614350Y-111577523D01*
X100520836Y-111518488D01*
X100410455Y-111479793D01*
X100287672Y-111466894D01*
X100164641Y-111479793D01*
X100053516Y-111518488D01*
X99959258Y-111577523D01*
X99886828Y-111651441D01*
X99816273Y-111762345D01*
X99773939Y-111875455D01*
X99759828Y-111990769D01*
X99759828Y-112415425D01*
X99346417Y-112415425D01*
X99346417Y-110819988D01*
X100144797Y-110819988D01*
X100161995Y-110957571D01*
X100213589Y-111084571D01*
X100299578Y-111200988D01*
X100412026Y-111293592D01*
X100542995Y-111349155D01*
X100692484Y-111367675D01*
X100843049Y-111346591D01*
X100977242Y-111283339D01*
X101087871Y-111189330D01*
X101167742Y-111075972D01*
X101216111Y-110950957D01*
X101232234Y-110821972D01*
X101217104Y-110693236D01*
X101171711Y-110568964D01*
X101094320Y-110456103D01*
X100983195Y-110361597D01*
X100846025Y-110297601D01*
X100690500Y-110276269D01*
X100541121Y-110294569D01*
X100410483Y-110349470D01*
X100298586Y-110440972D01*
X100213148Y-110556286D01*
X100161885Y-110682625D01*
X100144797Y-110819988D01*
X99346417Y-110819988D01*
X99346417Y-109980597D01*
X100156703Y-109980597D01*
X100182500Y-110083785D01*
X100236574Y-110168617D01*
X100307516Y-110196894D01*
X100384906Y-110177050D01*
X101115156Y-109877410D01*
X101185602Y-109821847D01*
X101220328Y-109718660D01*
X101172703Y-109609519D01*
X101131031Y-109577769D01*
X101098289Y-109560902D01*
X101062570Y-109547011D01*
X100927633Y-109497402D01*
X100834615Y-109463419D01*
X100771859Y-109438863D01*
X100926200Y-109380875D01*
X101029387Y-109341849D01*
X101081422Y-109321785D01*
X101115156Y-109305910D01*
X101185602Y-109249355D01*
X101220328Y-109161050D01*
X101206437Y-109085644D01*
X101157820Y-109026113D01*
X101083406Y-108986425D01*
X100551594Y-108768144D01*
X100421617Y-108714566D01*
X100313469Y-108682816D01*
X100238559Y-108714566D01*
X100176547Y-108809816D01*
X100156703Y-108889191D01*
X100188453Y-108972535D01*
X100283703Y-109032066D01*
X100613109Y-109153113D01*
X100560193Y-109174059D01*
X100454359Y-109213085D01*
X100295609Y-109270191D01*
X100261875Y-109286066D01*
X100198375Y-109344605D01*
X100166625Y-109446800D01*
X100224172Y-109563878D01*
X100293625Y-109607535D01*
X100615094Y-109724613D01*
X100443115Y-109787892D01*
X100318760Y-109834856D01*
X100242031Y-109865503D01*
X100207305Y-109881378D01*
X100173570Y-109916105D01*
X100156703Y-109980597D01*
X99346417Y-109980597D01*
X99346417Y-108037894D01*
X100146781Y-108037894D01*
X100163428Y-108190360D01*
X100213368Y-108324967D01*
X100296602Y-108441714D01*
X100407616Y-108531563D01*
X100540900Y-108585471D01*
X100696453Y-108603441D01*
X100824556Y-108589550D01*
X100944280Y-108547878D01*
X101055625Y-108478425D01*
X101130783Y-108402275D01*
X101189570Y-108300824D01*
X101227521Y-108178537D01*
X101240172Y-108039878D01*
X101229134Y-107854960D01*
X101196020Y-107722875D01*
X101140829Y-107643624D01*
X101063562Y-107617207D01*
X100972281Y-107643003D01*
X100882984Y-107752144D01*
X100904812Y-107831519D01*
X100912750Y-107853347D01*
X100930609Y-107931234D01*
X100936562Y-108033925D01*
X100898859Y-108164894D01*
X100805594Y-108230378D01*
X100805594Y-107760082D01*
X100747055Y-107626136D01*
X100672641Y-107580744D01*
X100566477Y-107565613D01*
X100449150Y-107582480D01*
X100341250Y-107633082D01*
X100256170Y-107706752D01*
X100195398Y-107798777D01*
X100158936Y-107909158D01*
X100146781Y-108037894D01*
X99346417Y-108037894D01*
X99346417Y-106874058D01*
X100158687Y-106874058D01*
X100192422Y-106982207D01*
X100246000Y-107062574D01*
X100279734Y-107091347D01*
X100214250Y-107113175D01*
X100180020Y-107165265D01*
X100168609Y-107262003D01*
X100182004Y-107364199D01*
X100222187Y-107416785D01*
X100272789Y-107433652D01*
X100341250Y-107436628D01*
X101095312Y-107436628D01*
X101180641Y-107400910D01*
X101214375Y-107263988D01*
X101201477Y-107162785D01*
X101162781Y-107109207D01*
X101110195Y-107090355D01*
X101041734Y-107087378D01*
X100625016Y-107087378D01*
X100533734Y-107040746D01*
X100496031Y-106940535D01*
X100511906Y-106854214D01*
X100527781Y-106785753D01*
X100452375Y-106676613D01*
X100313469Y-106638910D01*
X100221195Y-106663714D01*
X100180516Y-106726222D01*
X100163648Y-106795675D01*
X100158687Y-106874058D01*
X99346417Y-106874058D01*
X99346417Y-106225498D01*
X101653583Y-106225498D01*
X101653583Y-113005446D01*
X100500000Y-113774502D01*
G37*
G36*
X100418641Y-111873691D02*
G01*
X100462297Y-111990769D01*
X100462297Y-112240800D01*
X100111062Y-112240800D01*
X100111062Y-111992753D01*
X100155711Y-111873691D01*
X100287672Y-111816144D01*
X100418641Y-111873691D01*
G37*
G36*
X100771859Y-110643875D02*
G01*
X100833375Y-110692988D01*
X100882984Y-110823957D01*
X100834367Y-110952941D01*
X100773844Y-111000566D01*
X100689508Y-111016441D01*
X100604924Y-111001062D01*
X100543656Y-110954925D01*
X100494047Y-110821972D01*
X100541672Y-110689019D01*
X100601699Y-110642882D01*
X100686531Y-110627503D01*
X100771859Y-110643875D01*
G37*
G36*
X100625016Y-107984316D02*
G01*
X100625016Y-108234347D01*
X100512898Y-108170847D01*
X100460312Y-108042855D01*
X100488094Y-107943636D01*
X100561516Y-107908910D01*
X100625016Y-107984316D01*
G37*
%TO.C,kibuzzard-63E933A2*%
G36*
X160476018Y-98442448D02*
G01*
X169218513Y-98442448D01*
X169218513Y-100757552D01*
X159781487Y-100757552D01*
X159965042Y-100145703D01*
X160889430Y-100145703D01*
X160901336Y-100248891D01*
X160953922Y-100303957D01*
X161064055Y-100322313D01*
X161166250Y-100308918D01*
X161218836Y-100268734D01*
X161237687Y-100216148D01*
X161240664Y-100147688D01*
X161240664Y-99923453D01*
X161488711Y-99923453D01*
X161605128Y-99909342D01*
X161718898Y-99867009D01*
X161830023Y-99796453D01*
X161903941Y-99724271D01*
X161962977Y-99630758D01*
X161977238Y-99590078D01*
X162113789Y-99590078D01*
X162126936Y-99739154D01*
X162166375Y-99876820D01*
X162226154Y-99996875D01*
X162300320Y-100093117D01*
X162386889Y-100171004D01*
X162483875Y-100235992D01*
X162584582Y-100286098D01*
X162682312Y-100319336D01*
X162778059Y-100337939D01*
X162872812Y-100344141D01*
X162968807Y-100336203D01*
X163068273Y-100312391D01*
X163202219Y-100260797D01*
X163270680Y-100219125D01*
X163333187Y-100169516D01*
X163359977Y-100100063D01*
X163316320Y-99988938D01*
X163247363Y-99905594D01*
X163183367Y-99877813D01*
X163088117Y-99917500D01*
X163052398Y-99943297D01*
X162974016Y-99975047D01*
X162857930Y-99990922D01*
X162729441Y-99969094D01*
X162605914Y-99903609D01*
X162504711Y-99778594D01*
X162474945Y-99694010D01*
X162465023Y-99599008D01*
X162474945Y-99504006D01*
X162504711Y-99419422D01*
X162603930Y-99296391D01*
X162729937Y-99229418D01*
X162857930Y-99207094D01*
X162982945Y-99223961D01*
X163080180Y-99274563D01*
X163181383Y-99318219D01*
X163246867Y-99291430D01*
X163320289Y-99211063D01*
X163361961Y-99100930D01*
X163332090Y-99046359D01*
X163441336Y-99046359D01*
X163453242Y-99145578D01*
X163500867Y-99203125D01*
X163615961Y-99222969D01*
X164068398Y-99222969D01*
X164024742Y-99313258D01*
X163976621Y-99384199D01*
X163919570Y-99468039D01*
X163858055Y-99562545D01*
X163796539Y-99665484D01*
X163739488Y-99779834D01*
X163691367Y-99908570D01*
X163658625Y-100042764D01*
X163647711Y-100173484D01*
X163650688Y-100239961D01*
X163669539Y-100284609D01*
X163722125Y-100316359D01*
X163822336Y-100324297D01*
X163922547Y-100316359D01*
X163975133Y-100285602D01*
X163994977Y-100241945D01*
X163998945Y-100177453D01*
X164002428Y-100147688D01*
X165106227Y-100147688D01*
X165118133Y-100248891D01*
X165170719Y-100305445D01*
X165280852Y-100324297D01*
X165995227Y-100324297D01*
X166098414Y-100304453D01*
X166132148Y-100260797D01*
X166142070Y-100176461D01*
X166138685Y-100147688D01*
X166271055Y-100147688D01*
X166282961Y-100248891D01*
X166335547Y-100305445D01*
X166445680Y-100324297D01*
X167231492Y-100324297D01*
X167334680Y-100312391D01*
X167389746Y-100259805D01*
X167408102Y-100149672D01*
X167407582Y-100145703D01*
X167537086Y-100145703D01*
X167560898Y-100272703D01*
X167613484Y-100309910D01*
X167711711Y-100322313D01*
X168074852Y-100322313D01*
X168221013Y-100308794D01*
X168355889Y-100268238D01*
X168479478Y-100200646D01*
X168591781Y-100106016D01*
X168685109Y-99992472D01*
X168751771Y-99868139D01*
X168791769Y-99733015D01*
X168805102Y-99587102D01*
X168791459Y-99441746D01*
X168750531Y-99308297D01*
X168682318Y-99186754D01*
X168586820Y-99077117D01*
X168473339Y-98986394D01*
X168351176Y-98921592D01*
X168220331Y-98882710D01*
X168080805Y-98869750D01*
X167713695Y-98867766D01*
X167611500Y-98881160D01*
X167558914Y-98921344D01*
X167540062Y-98972937D01*
X167537086Y-99042391D01*
X167537086Y-100145703D01*
X167407582Y-100145703D01*
X167394707Y-100047477D01*
X167354523Y-99994891D01*
X167301937Y-99976039D01*
X167233477Y-99973063D01*
X166622289Y-99973063D01*
X166622289Y-99772641D01*
X167011227Y-99772641D01*
X167114414Y-99760734D01*
X167170969Y-99708148D01*
X167189820Y-99598016D01*
X167176426Y-99495820D01*
X167136242Y-99443234D01*
X167083656Y-99424383D01*
X167015195Y-99421406D01*
X166622289Y-99421406D01*
X166622289Y-99220984D01*
X167231492Y-99220984D01*
X167334680Y-99209078D01*
X167389746Y-99156492D01*
X167408102Y-99046359D01*
X167394707Y-98944164D01*
X167354523Y-98891578D01*
X167301937Y-98872727D01*
X167233477Y-98869750D01*
X166451633Y-98869750D01*
X166308758Y-98906461D01*
X166271055Y-99044375D01*
X166271055Y-100147688D01*
X166138685Y-100147688D01*
X166132148Y-100092125D01*
X166092461Y-100045492D01*
X165997211Y-100030609D01*
X165457461Y-100030609D01*
X165457461Y-99046359D01*
X165447539Y-98943172D01*
X165393465Y-98888105D01*
X165282836Y-98869750D01*
X165180641Y-98883145D01*
X165128055Y-98923328D01*
X165109203Y-98975914D01*
X165106227Y-99044375D01*
X165106227Y-100147688D01*
X164002428Y-100147688D01*
X164009859Y-100084187D01*
X164042602Y-99977031D01*
X164097172Y-99855984D01*
X164173570Y-99721047D01*
X164246744Y-99604465D01*
X164319422Y-99488875D01*
X164386643Y-99373037D01*
X164443445Y-99255711D01*
X164482141Y-99147314D01*
X164495039Y-99058266D01*
X164483133Y-98947141D01*
X164430547Y-98890586D01*
X164320414Y-98871734D01*
X163606039Y-98871734D01*
X163490945Y-98895547D01*
X163453242Y-98947141D01*
X163441336Y-99046359D01*
X163332090Y-99046359D01*
X163310367Y-99006672D01*
X163254805Y-98970953D01*
X163207180Y-98943172D01*
X163061328Y-98884633D01*
X162965830Y-98863053D01*
X162871820Y-98855859D01*
X162741072Y-98867766D01*
X162610765Y-98903484D01*
X162480898Y-98963016D01*
X162383416Y-99025275D01*
X162297344Y-99100930D01*
X162224170Y-99194195D01*
X162165383Y-99309289D01*
X162126687Y-99442490D01*
X162113789Y-99590078D01*
X161977238Y-99590078D01*
X162001672Y-99520377D01*
X162014570Y-99397594D01*
X162001672Y-99274563D01*
X161962977Y-99163438D01*
X161903941Y-99069180D01*
X161830023Y-98996750D01*
X161719119Y-98926194D01*
X161606010Y-98883861D01*
X161490695Y-98869750D01*
X161066039Y-98869750D01*
X160963844Y-98883145D01*
X160911258Y-98923328D01*
X160892406Y-98975914D01*
X160889430Y-99044375D01*
X160889430Y-100145703D01*
X159965042Y-100145703D01*
X160476018Y-98442448D01*
G37*
G36*
X168219959Y-99248021D02*
G01*
X168341750Y-99329133D01*
X168425838Y-99450428D01*
X168453867Y-99598016D01*
X168425094Y-99745107D01*
X168338773Y-99864914D01*
X168216734Y-99944537D01*
X168080805Y-99971078D01*
X167888320Y-99971078D01*
X167888320Y-99220984D01*
X168078820Y-99220984D01*
X168219959Y-99248021D01*
G37*
G36*
X161607773Y-99265633D02*
G01*
X161665320Y-99397594D01*
X161607773Y-99528563D01*
X161490695Y-99572219D01*
X161240664Y-99572219D01*
X161240664Y-99220984D01*
X161488711Y-99220984D01*
X161607773Y-99265633D01*
G37*
%TO.C,kibuzzard-63E9336F*%
G36*
X153860476Y-111306862D02*
G01*
X153905931Y-111366003D01*
X153921082Y-111449581D01*
X153904953Y-111533648D01*
X153856566Y-111594255D01*
X153727532Y-111643131D01*
X153600454Y-111595232D01*
X153553533Y-111535603D01*
X153537893Y-111452514D01*
X153553044Y-111369180D01*
X153598499Y-111308818D01*
X153729487Y-111259941D01*
X153860476Y-111306862D01*
G37*
G36*
X149737335Y-108430491D02*
G01*
X149794882Y-108562452D01*
X149737335Y-108693421D01*
X149620257Y-108737077D01*
X149370226Y-108737077D01*
X149370226Y-108385843D01*
X149618273Y-108385843D01*
X149737335Y-108430491D01*
G37*
G36*
X149734344Y-110900212D02*
G01*
X149766602Y-110968639D01*
X149760737Y-111039021D01*
X149666895Y-111080077D01*
X149546659Y-111107447D01*
X149510491Y-111219863D01*
X149545682Y-111332278D01*
X149651255Y-111359649D01*
X149760737Y-111375289D01*
X149796906Y-111414390D01*
X149807659Y-111488682D01*
X149776867Y-111588390D01*
X149684490Y-111621625D01*
X149363862Y-111621625D01*
X149363862Y-110880662D01*
X149637569Y-110880662D01*
X149734344Y-110900212D01*
G37*
G36*
X150955990Y-108412880D02*
G01*
X151077781Y-108493991D01*
X151161869Y-108615286D01*
X151189898Y-108762874D01*
X151161124Y-108909966D01*
X151074804Y-109029773D01*
X150952765Y-109109396D01*
X150816835Y-109135937D01*
X150624351Y-109135937D01*
X150624351Y-108385843D01*
X150814851Y-108385843D01*
X150955990Y-108412880D01*
G37*
G36*
X148604407Y-107599369D02*
G01*
X155835971Y-107599369D01*
X155835971Y-112400631D01*
X147164029Y-112400631D01*
X147346704Y-111791715D01*
X149017819Y-111791715D01*
X149029549Y-111893377D01*
X149081358Y-111949096D01*
X149189863Y-111967669D01*
X149704041Y-111967669D01*
X149821670Y-111953006D01*
X149926917Y-111909018D01*
X150019781Y-111835703D01*
X150092444Y-111740666D01*
X150137084Y-111631509D01*
X150153702Y-111508233D01*
X150147078Y-111451536D01*
X150280780Y-111451536D01*
X150295226Y-111587629D01*
X150338563Y-111709168D01*
X150410791Y-111816153D01*
X150504959Y-111899242D01*
X150614116Y-111949096D01*
X150738262Y-111965714D01*
X150882936Y-111922703D01*
X150935722Y-111879692D01*
X150970913Y-111840591D01*
X150990463Y-111920748D01*
X151040806Y-111955939D01*
X151137092Y-111967669D01*
X151235333Y-111954961D01*
X151287631Y-111916838D01*
X151306204Y-111866984D01*
X151309136Y-111801490D01*
X151309136Y-111136773D01*
X151416664Y-111136773D01*
X151445012Y-111250166D01*
X151516372Y-111283402D01*
X151596529Y-111277537D01*
X151596529Y-111566884D01*
X151608259Y-111698741D01*
X151643450Y-111802359D01*
X151702101Y-111877737D01*
X151783344Y-111928785D01*
X151886310Y-111959414D01*
X152010999Y-111969624D01*
X152076493Y-111966692D01*
X152128302Y-111950074D01*
X152169358Y-111898754D01*
X152183043Y-111799535D01*
X152138077Y-111668547D01*
X152086268Y-111649974D01*
X152015887Y-111647041D01*
X151953325Y-111623580D01*
X151936707Y-111547334D01*
X151936707Y-111277537D01*
X152063785Y-111285357D01*
X152131235Y-111282424D01*
X152183043Y-111265806D01*
X152222633Y-111214486D01*
X152232970Y-111136773D01*
X152294481Y-111136773D01*
X152322829Y-111250166D01*
X152394189Y-111283402D01*
X152474346Y-111277537D01*
X152474346Y-111566884D01*
X152486076Y-111698741D01*
X152521267Y-111802359D01*
X152579918Y-111877737D01*
X152661162Y-111928785D01*
X152764127Y-111959414D01*
X152888816Y-111969624D01*
X152954310Y-111966692D01*
X153006119Y-111950074D01*
X153047175Y-111898754D01*
X153060860Y-111799535D01*
X153015894Y-111668547D01*
X152964086Y-111649974D01*
X152893704Y-111647041D01*
X152831142Y-111623580D01*
X152814524Y-111547334D01*
X152814524Y-111455446D01*
X153191849Y-111455446D01*
X153212621Y-111603786D01*
X153274938Y-111735996D01*
X153367559Y-111844990D01*
X153479241Y-111923680D01*
X153602409Y-111971335D01*
X153729487Y-111987220D01*
X153856321Y-111972312D01*
X153978756Y-111927591D01*
X154089950Y-111851344D01*
X154137336Y-111795625D01*
X154394204Y-111795625D01*
X154397137Y-111863074D01*
X154413755Y-111914883D01*
X154465075Y-111954473D01*
X154564293Y-111967669D01*
X154664490Y-111954473D01*
X154714832Y-111914883D01*
X154733405Y-111865029D01*
X154736338Y-111797580D01*
X154736338Y-111451536D01*
X154784236Y-111328368D01*
X154909360Y-111281447D01*
X155032528Y-111326413D01*
X155078471Y-111451536D01*
X155078471Y-111795625D01*
X155090202Y-111895332D01*
X155141033Y-111949585D01*
X155250516Y-111967669D01*
X155351201Y-111954473D01*
X155403010Y-111914883D01*
X155419627Y-111865029D01*
X155422560Y-111797580D01*
X155422560Y-111453491D01*
X155408114Y-111317398D01*
X155364777Y-111195859D01*
X155292549Y-111088874D01*
X155198598Y-111005785D01*
X155090093Y-110955931D01*
X154967034Y-110939313D01*
X154820405Y-110984279D01*
X154767619Y-111025335D01*
X154732428Y-111064436D01*
X154712877Y-110984279D01*
X154662535Y-110950555D01*
X154566248Y-110939313D01*
X154467030Y-110951532D01*
X154415710Y-110988189D01*
X154397137Y-111038043D01*
X154394204Y-111103537D01*
X154394204Y-111795625D01*
X154137336Y-111795625D01*
X154183059Y-111741861D01*
X154246109Y-111606718D01*
X154267126Y-111453491D01*
X154249096Y-111306319D01*
X154195006Y-111177612D01*
X154104857Y-111067369D01*
X153991247Y-110983193D01*
X153866775Y-110932688D01*
X153731442Y-110915853D01*
X153595892Y-110932796D01*
X153470769Y-110983628D01*
X153356073Y-111068346D01*
X153264837Y-111179133D01*
X153210096Y-111308166D01*
X153191849Y-111455446D01*
X152814524Y-111455446D01*
X152814524Y-111277537D01*
X152941602Y-111285357D01*
X153009052Y-111282424D01*
X153060860Y-111265806D01*
X153100450Y-111214486D01*
X153113647Y-111115268D01*
X153100939Y-111015071D01*
X153062816Y-110964729D01*
X153011007Y-110946156D01*
X152944535Y-110943223D01*
X152814524Y-110951043D01*
X152814524Y-110759449D01*
X152804749Y-110659741D01*
X152752451Y-110605489D01*
X152646390Y-110587404D01*
X152546194Y-110599623D01*
X152495851Y-110636281D01*
X152477278Y-110683202D01*
X152474346Y-110749673D01*
X152474346Y-110951043D01*
X152409829Y-110943223D01*
X152331627Y-110968639D01*
X152304256Y-111020448D01*
X152294481Y-111136773D01*
X152232970Y-111136773D01*
X152235830Y-111115268D01*
X152223122Y-111015071D01*
X152190023Y-110971364D01*
X152184998Y-110964729D01*
X152133190Y-110946156D01*
X152066718Y-110943223D01*
X151936707Y-110951043D01*
X151936707Y-110759449D01*
X151926932Y-110659741D01*
X151874634Y-110605489D01*
X151768573Y-110587404D01*
X151668377Y-110599623D01*
X151618034Y-110636281D01*
X151599461Y-110683202D01*
X151596529Y-110749673D01*
X151596529Y-110951043D01*
X151532012Y-110943223D01*
X151453810Y-110968639D01*
X151426439Y-111020448D01*
X151416664Y-111136773D01*
X151309136Y-111136773D01*
X151309136Y-111109402D01*
X151306204Y-111041953D01*
X151289586Y-110990144D01*
X151238266Y-110950555D01*
X151139047Y-110937358D01*
X151038851Y-110950066D01*
X150988508Y-110988189D01*
X150969935Y-111039998D01*
X150967003Y-111107447D01*
X150967003Y-111453491D01*
X150919104Y-111576659D01*
X150810882Y-111617242D01*
X150793981Y-111623580D01*
X150670813Y-111578614D01*
X150624869Y-111453491D01*
X150624869Y-111111358D01*
X150613139Y-111011650D01*
X150561330Y-110955931D01*
X150452825Y-110937358D01*
X150352140Y-110950555D01*
X150300331Y-110990144D01*
X150283713Y-111040976D01*
X150280780Y-111109402D01*
X150280780Y-111451536D01*
X150147078Y-111451536D01*
X150140886Y-111398533D01*
X150102437Y-111296218D01*
X150038354Y-111201290D01*
X150094073Y-111088386D01*
X150112646Y-110964729D01*
X150098526Y-110851770D01*
X150056167Y-110750108D01*
X149985568Y-110659741D01*
X149898242Y-110590228D01*
X149797883Y-110548521D01*
X149684490Y-110534618D01*
X149191818Y-110534618D01*
X149091133Y-110547815D01*
X149039324Y-110587404D01*
X149020751Y-110638236D01*
X149017819Y-110706662D01*
X149017819Y-111791715D01*
X147346704Y-111791715D01*
X148091049Y-109310562D01*
X149018992Y-109310562D01*
X149030898Y-109413749D01*
X149083484Y-109468816D01*
X149193617Y-109487171D01*
X149295812Y-109473776D01*
X149348398Y-109433593D01*
X149367249Y-109381007D01*
X149370226Y-109312546D01*
X149370226Y-109310562D01*
X150273117Y-109310562D01*
X150296929Y-109437562D01*
X150349515Y-109474769D01*
X150447742Y-109487171D01*
X150810882Y-109487171D01*
X150957044Y-109473652D01*
X151091919Y-109433097D01*
X151215509Y-109365504D01*
X151327812Y-109270874D01*
X151421140Y-109157331D01*
X151475168Y-109056562D01*
X151640351Y-109056562D01*
X151662179Y-109163718D01*
X151666148Y-109183562D01*
X151687976Y-109235155D01*
X151737089Y-109314034D01*
X151793148Y-109376046D01*
X151907801Y-109453216D01*
X152040092Y-109499518D01*
X152190023Y-109514952D01*
X152341056Y-109499628D01*
X152474009Y-109453657D01*
X152588882Y-109377038D01*
X152677077Y-109276827D01*
X152729993Y-109160080D01*
X152747632Y-109026796D01*
X152731261Y-108925593D01*
X152682148Y-108836296D01*
X152619640Y-108771804D01*
X152561101Y-108729140D01*
X152561101Y-108715249D01*
X152647091Y-108652962D01*
X152698684Y-108569287D01*
X152715882Y-108464226D01*
X152700228Y-108352329D01*
X152653264Y-108248149D01*
X152574992Y-108151687D01*
X152469599Y-108074517D01*
X152341276Y-108028214D01*
X152190023Y-108012780D01*
X152091548Y-108019726D01*
X152002499Y-108040562D01*
X151871531Y-108102077D01*
X151789179Y-108180460D01*
X151745523Y-108242968D01*
X151699882Y-108377905D01*
X151724687Y-108448847D01*
X151799101Y-108510859D01*
X151908242Y-108546577D01*
X151983648Y-108521773D01*
X152039210Y-108447359D01*
X152051117Y-108423546D01*
X152102710Y-108375921D01*
X152214828Y-108352109D01*
X152324960Y-108389812D01*
X152364648Y-108469187D01*
X152326945Y-108527230D01*
X152213835Y-108546577D01*
X152110648Y-108556499D01*
X152055582Y-108610573D01*
X152037226Y-108721202D01*
X152050621Y-108822901D01*
X152090804Y-108873999D01*
X152142398Y-108893843D01*
X152232687Y-108897812D01*
X152347781Y-108938491D01*
X152396398Y-109032749D01*
X152346789Y-109128991D01*
X152283289Y-109160989D01*
X152192007Y-109171655D01*
X152108664Y-109159749D01*
X151999523Y-109064499D01*
X151939992Y-108961312D01*
X151834820Y-108941468D01*
X151688968Y-108970241D01*
X151640351Y-109056562D01*
X151475168Y-109056562D01*
X151487802Y-109032997D01*
X151527800Y-108897874D01*
X151541132Y-108751960D01*
X151527490Y-108606605D01*
X151486562Y-108473155D01*
X151418349Y-108351612D01*
X151322851Y-108241976D01*
X151209370Y-108151253D01*
X151087207Y-108086450D01*
X150956362Y-108047569D01*
X150816835Y-108034609D01*
X150449726Y-108032624D01*
X150347531Y-108046019D01*
X150294945Y-108086202D01*
X150276093Y-108137796D01*
X150273117Y-108207249D01*
X150273117Y-109310562D01*
X149370226Y-109310562D01*
X149370226Y-109088312D01*
X149618273Y-109088312D01*
X149734690Y-109074201D01*
X149848460Y-109031867D01*
X149959585Y-108961312D01*
X150033503Y-108889130D01*
X150092539Y-108795616D01*
X150131234Y-108685235D01*
X150144132Y-108562452D01*
X150131234Y-108439421D01*
X150092539Y-108328296D01*
X150033503Y-108234038D01*
X149959585Y-108161609D01*
X149848681Y-108091053D01*
X149735572Y-108048720D01*
X149620257Y-108034609D01*
X149195601Y-108034609D01*
X149093406Y-108048003D01*
X149040820Y-108088187D01*
X149021968Y-108140773D01*
X149018992Y-108209234D01*
X149018992Y-109310562D01*
X148091049Y-109310562D01*
X148604407Y-107599369D01*
G37*
%TO.C,kibuzzard-63E93344*%
G36*
X171128003Y-114780635D02*
G01*
X171159810Y-114890298D01*
X171116135Y-115011829D01*
X171074359Y-115029868D01*
X171019290Y-115034616D01*
X170948080Y-114995688D01*
X170912950Y-114883651D01*
X170950929Y-114777312D01*
X171032582Y-114744081D01*
X171128003Y-114780635D01*
G37*
G36*
X170685079Y-117153814D02*
G01*
X170726856Y-117265851D01*
X170726856Y-117505115D01*
X170390746Y-117505115D01*
X170390746Y-117267750D01*
X170433472Y-117153814D01*
X170559750Y-117098746D01*
X170685079Y-117153814D01*
G37*
G36*
X168193521Y-117142697D02*
G01*
X168235906Y-117256365D01*
X168235906Y-117499114D01*
X167894902Y-117499114D01*
X167894902Y-117258292D01*
X167938250Y-117142697D01*
X168066367Y-117086827D01*
X168193521Y-117142697D01*
G37*
G36*
X165701635Y-117131252D02*
G01*
X165744646Y-117246600D01*
X165744646Y-117492936D01*
X165398603Y-117492936D01*
X165398603Y-117248555D01*
X165442591Y-117131252D01*
X165572602Y-117074555D01*
X165701635Y-117131252D01*
G37*
G36*
X163209407Y-117119463D02*
G01*
X163253063Y-117236541D01*
X163253063Y-117486572D01*
X162901829Y-117486572D01*
X162901829Y-117238525D01*
X162946477Y-117119463D01*
X163078438Y-117061916D01*
X163209407Y-117119463D01*
G37*
G36*
X162115355Y-118254636D02*
G01*
X162115355Y-117661197D01*
X162550594Y-117661197D01*
X162563989Y-117763393D01*
X162604173Y-117815978D01*
X162656759Y-117834830D01*
X162725219Y-117837807D01*
X163826548Y-117837807D01*
X163929735Y-117825900D01*
X163984802Y-117773314D01*
X164002857Y-117664980D01*
X165052559Y-117664980D01*
X165065756Y-117765665D01*
X165105345Y-117817474D01*
X165157154Y-117836047D01*
X165224603Y-117838980D01*
X166309656Y-117838980D01*
X166411318Y-117827249D01*
X166465571Y-117775441D01*
X166483369Y-117668653D01*
X167553897Y-117668653D01*
X167566902Y-117767872D01*
X167605915Y-117818926D01*
X167656969Y-117837229D01*
X167723436Y-117840118D01*
X168792687Y-117840118D01*
X168892869Y-117828559D01*
X168946331Y-117777505D01*
X168963879Y-117672220D01*
X170054637Y-117672220D01*
X170067454Y-117770015D01*
X170105908Y-117820336D01*
X170156229Y-117838376D01*
X170221742Y-117841225D01*
X171275645Y-117841225D01*
X171374389Y-117829831D01*
X171427084Y-117779510D01*
X171444649Y-117674119D01*
X171431831Y-117576325D01*
X171393378Y-117526003D01*
X171343056Y-117507964D01*
X171277543Y-117505115D01*
X171062965Y-117505115D01*
X171062965Y-117267750D01*
X171049462Y-117156346D01*
X171008951Y-117047475D01*
X170941434Y-116941135D01*
X170872361Y-116870400D01*
X170782874Y-116813907D01*
X170677246Y-116776878D01*
X170559750Y-116764535D01*
X170442017Y-116776878D01*
X170335677Y-116813907D01*
X170245479Y-116870400D01*
X170176168Y-116941135D01*
X170108651Y-117047264D01*
X170068140Y-117155502D01*
X170054637Y-117265851D01*
X170054637Y-117672220D01*
X168963879Y-117672220D01*
X168964152Y-117670580D01*
X168951148Y-117571361D01*
X168912135Y-117520307D01*
X168861080Y-117502004D01*
X168794613Y-117499114D01*
X168576910Y-117499114D01*
X168576910Y-117258292D01*
X168563210Y-117145266D01*
X168522110Y-117034809D01*
X168453609Y-116926921D01*
X168383530Y-116855156D01*
X168292740Y-116797840D01*
X168185574Y-116760272D01*
X168066367Y-116747749D01*
X167946919Y-116760272D01*
X167839031Y-116797840D01*
X167747518Y-116855156D01*
X167677198Y-116926921D01*
X167608698Y-117034595D01*
X167567598Y-117144410D01*
X167553897Y-117256365D01*
X167553897Y-117668653D01*
X166483369Y-117668653D01*
X166483655Y-117666935D01*
X166470458Y-117566250D01*
X166430869Y-117514441D01*
X166379060Y-117495868D01*
X166311611Y-117492936D01*
X166090690Y-117492936D01*
X166090690Y-117248555D01*
X166076788Y-117133859D01*
X166035080Y-117021769D01*
X165965567Y-116912286D01*
X165894452Y-116839461D01*
X165802320Y-116781298D01*
X165693571Y-116743175D01*
X165572602Y-116730467D01*
X165451389Y-116743175D01*
X165341906Y-116781298D01*
X165249041Y-116839461D01*
X165177682Y-116912286D01*
X165108169Y-117021552D01*
X165066462Y-117132990D01*
X165052559Y-117246600D01*
X165052559Y-117664980D01*
X164002857Y-117664980D01*
X164003157Y-117663182D01*
X163989762Y-117560986D01*
X163949579Y-117508400D01*
X163896993Y-117489549D01*
X163828532Y-117486572D01*
X163604298Y-117486572D01*
X163604298Y-117238525D01*
X163590187Y-117122109D01*
X163547853Y-117008338D01*
X163477298Y-116897213D01*
X163405116Y-116823295D01*
X163311602Y-116764260D01*
X163201221Y-116725564D01*
X163078438Y-116712666D01*
X162955407Y-116725564D01*
X162844282Y-116764260D01*
X162750024Y-116823295D01*
X162677594Y-116897213D01*
X162607039Y-117008117D01*
X162564706Y-117121227D01*
X162550594Y-117236541D01*
X162550594Y-117661197D01*
X162115355Y-117661197D01*
X162115355Y-115855416D01*
X162536704Y-115855416D01*
X162548610Y-115986164D01*
X162584329Y-116116472D01*
X162643860Y-116246338D01*
X162706120Y-116343820D01*
X162781774Y-116429893D01*
X162875040Y-116503066D01*
X162990134Y-116561853D01*
X163123335Y-116600549D01*
X163270923Y-116613447D01*
X163419999Y-116600301D01*
X163557665Y-116560861D01*
X163677719Y-116501082D01*
X163773962Y-116426916D01*
X163851848Y-116340348D01*
X163916837Y-116243361D01*
X163966942Y-116142654D01*
X164000180Y-116044924D01*
X164018784Y-115949178D01*
X164022926Y-115885885D01*
X165038874Y-115885885D01*
X165050604Y-116014701D01*
X165085795Y-116143083D01*
X165144446Y-116271030D01*
X165205786Y-116367072D01*
X165280322Y-116451872D01*
X165372210Y-116523965D01*
X165485602Y-116581883D01*
X165616835Y-116620006D01*
X165762242Y-116632714D01*
X165909115Y-116619762D01*
X166044747Y-116580905D01*
X166163027Y-116522010D01*
X166257847Y-116448940D01*
X166334583Y-116363651D01*
X166398610Y-116268098D01*
X166447975Y-116168879D01*
X166480722Y-116072593D01*
X166499051Y-115978261D01*
X166503161Y-115915467D01*
X167540411Y-115915467D01*
X167551971Y-116042407D01*
X167586649Y-116168919D01*
X167644447Y-116295003D01*
X167704893Y-116389646D01*
X167778344Y-116473212D01*
X167868893Y-116544254D01*
X167980634Y-116601329D01*
X168109956Y-116638897D01*
X168253245Y-116651420D01*
X168397979Y-116638656D01*
X168531636Y-116600366D01*
X168648194Y-116542328D01*
X168741633Y-116470322D01*
X168817251Y-116386275D01*
X168880346Y-116292113D01*
X168928992Y-116194340D01*
X168961262Y-116099456D01*
X168979324Y-116006498D01*
X168983401Y-115944200D01*
X170041344Y-115944200D01*
X170052738Y-116069318D01*
X170086918Y-116194014D01*
X170143886Y-116318288D01*
X170203465Y-116411573D01*
X170275861Y-116493938D01*
X170365111Y-116563961D01*
X170475248Y-116620217D01*
X170602714Y-116657246D01*
X170743946Y-116669589D01*
X170886603Y-116657009D01*
X171018340Y-116619267D01*
X171133225Y-116562062D01*
X171225323Y-116491090D01*
X171299856Y-116408250D01*
X171362046Y-116315440D01*
X171409993Y-116219069D01*
X171441800Y-116125547D01*
X171459603Y-116033924D01*
X171465537Y-115943251D01*
X171457941Y-115851390D01*
X171435154Y-115756207D01*
X171385782Y-115628029D01*
X171345905Y-115562517D01*
X171298432Y-115502700D01*
X171231969Y-115477065D01*
X171125630Y-115518841D01*
X171045875Y-115584829D01*
X171019290Y-115646069D01*
X171057268Y-115737217D01*
X171081954Y-115771398D01*
X171112337Y-115846406D01*
X171127528Y-115957493D01*
X171106640Y-116080448D01*
X171043976Y-116198656D01*
X170924344Y-116295501D01*
X170843402Y-116323985D01*
X170752491Y-116333479D01*
X170661580Y-116323985D01*
X170580639Y-116295501D01*
X170462905Y-116200555D01*
X170398817Y-116079973D01*
X170377454Y-115957493D01*
X170393595Y-115837860D01*
X170442017Y-115744813D01*
X170483793Y-115647968D01*
X170458158Y-115585304D01*
X170381252Y-115515043D01*
X170275861Y-115475166D01*
X170185662Y-115524538D01*
X170151482Y-115577708D01*
X170124897Y-115623282D01*
X170068879Y-115762853D01*
X170048228Y-115854239D01*
X170043617Y-115914504D01*
X170041344Y-115944200D01*
X168983401Y-115944200D01*
X168985345Y-115914504D01*
X168977638Y-115821306D01*
X168954519Y-115724736D01*
X168904428Y-115594692D01*
X168863970Y-115528225D01*
X168815806Y-115467538D01*
X168748376Y-115441529D01*
X168640487Y-115483914D01*
X168559571Y-115550863D01*
X168532599Y-115612995D01*
X168571130Y-115705470D01*
X168596176Y-115740149D01*
X168627001Y-115816249D01*
X168642414Y-115928953D01*
X168621221Y-116053699D01*
X168557644Y-116173629D01*
X168436270Y-116271884D01*
X168354150Y-116300783D01*
X168261915Y-116310416D01*
X168169680Y-116300783D01*
X168087559Y-116271884D01*
X167968112Y-116175555D01*
X167903090Y-116053218D01*
X167881416Y-115928953D01*
X167897792Y-115807579D01*
X167946919Y-115713177D01*
X167989304Y-115614921D01*
X167963295Y-115551344D01*
X167885269Y-115480061D01*
X167778344Y-115439603D01*
X167686831Y-115489694D01*
X167652153Y-115543638D01*
X167625181Y-115589876D01*
X167568347Y-115731479D01*
X167547395Y-115824196D01*
X167542750Y-115884908D01*
X167540411Y-115915467D01*
X166503161Y-115915467D01*
X166505161Y-115884908D01*
X166497340Y-115790332D01*
X166473880Y-115692336D01*
X166423049Y-115560370D01*
X166381993Y-115492921D01*
X166333116Y-115431336D01*
X166264690Y-115404943D01*
X166155207Y-115447954D01*
X166073095Y-115515892D01*
X166045724Y-115578943D01*
X166084825Y-115672785D01*
X166110241Y-115707976D01*
X166141521Y-115785200D01*
X166157162Y-115899571D01*
X166135656Y-116026160D01*
X166071140Y-116147862D01*
X165947972Y-116247570D01*
X165864638Y-116276895D01*
X165771040Y-116286671D01*
X165677442Y-116276895D01*
X165594108Y-116247570D01*
X165472895Y-116149817D01*
X165406912Y-116025671D01*
X165384917Y-115899571D01*
X165401535Y-115776403D01*
X165451389Y-115680605D01*
X165494400Y-115580898D01*
X165468007Y-115516381D01*
X165388827Y-115444044D01*
X165280322Y-115402988D01*
X165187457Y-115453820D01*
X165152267Y-115508561D01*
X165124896Y-115555482D01*
X165067222Y-115699178D01*
X165045961Y-115793265D01*
X165041281Y-115854424D01*
X165038874Y-115885885D01*
X164022926Y-115885885D01*
X164024985Y-115854424D01*
X164017048Y-115758430D01*
X163993235Y-115658963D01*
X163941641Y-115525018D01*
X163899969Y-115456557D01*
X163850360Y-115394049D01*
X163780907Y-115367260D01*
X163669782Y-115410916D01*
X163586438Y-115479873D01*
X163558657Y-115543869D01*
X163598344Y-115639119D01*
X163624141Y-115674838D01*
X163655891Y-115753221D01*
X163671766Y-115869307D01*
X163649938Y-115997795D01*
X163584454Y-116121322D01*
X163459438Y-116222525D01*
X163374854Y-116252291D01*
X163279852Y-116262213D01*
X163184850Y-116252291D01*
X163100266Y-116222525D01*
X162977235Y-116123307D01*
X162910262Y-115997299D01*
X162887938Y-115869307D01*
X162904805Y-115744291D01*
X162955407Y-115647057D01*
X162999063Y-115545853D01*
X162972274Y-115480369D01*
X162891907Y-115406947D01*
X162781774Y-115365275D01*
X162687516Y-115416869D01*
X162651798Y-115472432D01*
X162624016Y-115520057D01*
X162565477Y-115665908D01*
X162543897Y-115761406D01*
X162536704Y-115855416D01*
X162115355Y-115855416D01*
X162115355Y-114716385D01*
X162528766Y-114716385D01*
X162535712Y-114814859D01*
X162556548Y-114903908D01*
X162618063Y-115034877D01*
X162696446Y-115117228D01*
X162758954Y-115160885D01*
X162893891Y-115206525D01*
X162964833Y-115181721D01*
X163026844Y-115107307D01*
X163062563Y-114998166D01*
X163037759Y-114922760D01*
X162963344Y-114867197D01*
X162939532Y-114855291D01*
X162891907Y-114803697D01*
X162868094Y-114691580D01*
X162905798Y-114581447D01*
X162985173Y-114541760D01*
X163043216Y-114579463D01*
X163062563Y-114692572D01*
X163072485Y-114795760D01*
X163126559Y-114850826D01*
X163237188Y-114869182D01*
X163338887Y-114855787D01*
X163389985Y-114815603D01*
X163409829Y-114764010D01*
X163413798Y-114673721D01*
X163454477Y-114558627D01*
X163548735Y-114510010D01*
X163644977Y-114559619D01*
X163676975Y-114623119D01*
X163687641Y-114714400D01*
X163675735Y-114797744D01*
X163580485Y-114906885D01*
X163477298Y-114966416D01*
X163457454Y-115071588D01*
X163486227Y-115217439D01*
X163572548Y-115266057D01*
X163679704Y-115244228D01*
X163699548Y-115240260D01*
X163751141Y-115218432D01*
X163830020Y-115169318D01*
X163892032Y-115113260D01*
X163945727Y-115033484D01*
X165044739Y-115033484D01*
X165066244Y-115100933D01*
X165111210Y-115136124D01*
X165179637Y-115156652D01*
X165834579Y-115318921D01*
X165912781Y-115324786D01*
X165996848Y-115315011D01*
X166052567Y-115261736D01*
X166071140Y-115152742D01*
X166071140Y-115090892D01*
X167550044Y-115090892D01*
X167568347Y-115168919D01*
X167609768Y-115219010D01*
X167661786Y-115246945D01*
X167702244Y-115260431D01*
X167782197Y-115271509D01*
X167998937Y-115300889D01*
X168219048Y-115329788D01*
X168309116Y-115339421D01*
X168356317Y-115318228D01*
X168415078Y-115228642D01*
X168451683Y-115107268D01*
X168407371Y-115002270D01*
X168372693Y-114909794D01*
X168410261Y-114806722D01*
X168512370Y-114761447D01*
X168613515Y-114802869D01*
X168650120Y-114930023D01*
X168609662Y-115050434D01*
X168548012Y-115179515D01*
X168611589Y-115291256D01*
X168736816Y-115362540D01*
X168852411Y-115289330D01*
X168865897Y-115273917D01*
X168902502Y-115225753D01*
X168952807Y-115125571D01*
X168982990Y-115017682D01*
X168993051Y-114902088D01*
X168977103Y-114772151D01*
X168929260Y-114657198D01*
X168892535Y-114611156D01*
X170054637Y-114611156D01*
X170064359Y-114747916D01*
X170093527Y-114872600D01*
X170106257Y-114902088D01*
X170142139Y-114985206D01*
X170210197Y-115085735D01*
X170297699Y-115174187D01*
X170399709Y-115248359D01*
X170511290Y-115306048D01*
X170632441Y-115347255D01*
X170763163Y-115371979D01*
X170903456Y-115380220D01*
X171060328Y-115366294D01*
X171196734Y-115324518D01*
X171312674Y-115254891D01*
X171400762Y-115157835D01*
X171453616Y-115033772D01*
X171471234Y-114882702D01*
X171456886Y-114758744D01*
X171413844Y-114647657D01*
X171342107Y-114549441D01*
X171249060Y-114472956D01*
X171142087Y-114427066D01*
X171021189Y-114411769D01*
X170920862Y-114426644D01*
X170827499Y-114471269D01*
X170741098Y-114545643D01*
X170671998Y-114640906D01*
X170630538Y-114748195D01*
X170616718Y-114867511D01*
X170649000Y-115008031D01*
X170622415Y-114998536D01*
X170555953Y-114963406D01*
X170481895Y-114895994D01*
X170417331Y-114781110D01*
X170390746Y-114630145D01*
X170379353Y-114520008D01*
X170354667Y-114482029D01*
X170305295Y-114459242D01*
X170217944Y-114449747D01*
X170126796Y-114461141D01*
X170072677Y-114505766D01*
X170054637Y-114611156D01*
X168892535Y-114611156D01*
X168849521Y-114557230D01*
X168747626Y-114480167D01*
X168633316Y-114433929D01*
X168506590Y-114418517D01*
X168380506Y-114434785D01*
X168356953Y-114445014D01*
X168268123Y-114483592D01*
X168169439Y-114564936D01*
X168092911Y-114666617D01*
X168046994Y-114776432D01*
X168031689Y-114894381D01*
X168035542Y-114961811D01*
X167889122Y-114942546D01*
X167889122Y-114605395D01*
X167886232Y-114542781D01*
X167867930Y-114495580D01*
X167820247Y-114459456D01*
X167727289Y-114447415D01*
X167625181Y-114460420D01*
X167573163Y-114499433D01*
X167554861Y-114549524D01*
X167551971Y-114616954D01*
X167551971Y-114798052D01*
X167550044Y-115090892D01*
X166071140Y-115090892D01*
X166071140Y-114622924D01*
X166309656Y-114622924D01*
X166411318Y-114611193D01*
X166450419Y-114585778D01*
X166473880Y-114534946D01*
X166483655Y-114445014D01*
X166471925Y-114350194D01*
X166424026Y-114293498D01*
X166311611Y-114274925D01*
X165224603Y-114274925D01*
X165156177Y-114277857D01*
X165104368Y-114296430D01*
X165063312Y-114349217D01*
X165050604Y-114447947D01*
X165061357Y-114547654D01*
X165099480Y-114601418D01*
X165148356Y-114619991D01*
X165214828Y-114622924D01*
X165748557Y-114622924D01*
X165748557Y-114941597D01*
X165271525Y-114822339D01*
X165265659Y-114820384D01*
X165183547Y-114806698D01*
X165108278Y-114840912D01*
X165058424Y-114943552D01*
X165044739Y-115033484D01*
X163945727Y-115033484D01*
X163969202Y-114998607D01*
X164015504Y-114866315D01*
X164030938Y-114716385D01*
X164015614Y-114565352D01*
X163969643Y-114432399D01*
X163893024Y-114317525D01*
X163792813Y-114229331D01*
X163676066Y-114176414D01*
X163542782Y-114158775D01*
X163441579Y-114175146D01*
X163352282Y-114224260D01*
X163287790Y-114286768D01*
X163245126Y-114345307D01*
X163231235Y-114345307D01*
X163168948Y-114259317D01*
X163085273Y-114207723D01*
X162980212Y-114190525D01*
X162868315Y-114206180D01*
X162764135Y-114253143D01*
X162667673Y-114331416D01*
X162590502Y-114436808D01*
X162544200Y-114565131D01*
X162528766Y-114716385D01*
X162115355Y-114716385D01*
X162115355Y-113745364D01*
X171884645Y-113745364D01*
X171884645Y-118254636D01*
X162115355Y-118254636D01*
G37*
%TO.C,kibuzzard-63E932E7*%
G36*
X175938993Y-93309478D02*
G01*
X176034904Y-93347181D01*
X176114500Y-93410020D01*
X176194867Y-93530074D01*
X176221656Y-93664020D01*
X176194123Y-93798213D01*
X176111523Y-93919012D01*
X176030715Y-93982402D01*
X175935134Y-94020435D01*
X175824781Y-94033113D01*
X175714428Y-94020546D01*
X175618847Y-93982843D01*
X175538039Y-93920004D01*
X175455439Y-93799949D01*
X175427906Y-93666004D01*
X175455191Y-93531811D01*
X175537047Y-93411012D01*
X175617745Y-93347622D01*
X175714318Y-93309588D01*
X175826766Y-93296910D01*
X175938993Y-93309478D01*
G37*
G36*
X174657307Y-98467736D02*
G01*
X174657307Y-97523629D01*
X175070719Y-97523629D01*
X175085161Y-97662646D01*
X175128486Y-97780716D01*
X175200695Y-97877840D01*
X175292307Y-97950049D01*
X175393841Y-97993375D01*
X175505297Y-98007817D01*
X175623119Y-97995166D01*
X175722586Y-97957215D01*
X175800721Y-97900412D01*
X175854547Y-97831207D01*
X175893490Y-97752824D01*
X175926976Y-97668488D01*
X175953518Y-97584152D01*
X175971625Y-97505770D01*
X176016273Y-97379762D01*
X176092672Y-97329160D01*
X176176457Y-97349665D01*
X176226727Y-97411181D01*
X176243484Y-97513707D01*
X176212726Y-97608957D01*
X176148234Y-97688332D01*
X176073820Y-97776637D01*
X176049016Y-97843113D01*
X176096641Y-97948285D01*
X176171799Y-98012281D01*
X176230586Y-98033613D01*
X176344687Y-97982020D01*
X176366516Y-97964160D01*
X176427039Y-97906613D01*
X176489547Y-97817317D01*
X176546101Y-97682379D01*
X176563217Y-97596555D01*
X176568922Y-97505770D01*
X176557236Y-97386487D01*
X176522179Y-97272054D01*
X176463750Y-97162473D01*
X176399010Y-97087067D01*
X176311945Y-97027535D01*
X176206029Y-96988840D01*
X176084734Y-96975942D01*
X175965920Y-96988592D01*
X175867445Y-97026543D01*
X175792287Y-97083346D01*
X175743422Y-97152551D01*
X175710432Y-97231430D01*
X175682898Y-97317254D01*
X175661318Y-97403078D01*
X175646187Y-97481957D01*
X175600547Y-97607965D01*
X175512242Y-97658567D01*
X175426914Y-97615902D01*
X175396156Y-97508746D01*
X175421953Y-97402582D01*
X175447750Y-97371824D01*
X175467594Y-97349004D01*
X175507281Y-97245817D01*
X175482476Y-97175371D01*
X175408062Y-97106910D01*
X175298922Y-97059285D01*
X175201687Y-97120801D01*
X175163984Y-97170410D01*
X175101476Y-97306340D01*
X175078408Y-97409776D01*
X175070719Y-97523629D01*
X174657307Y-97523629D01*
X174657307Y-95199926D01*
X175082625Y-95199926D01*
X175103461Y-95266402D01*
X175146125Y-95303113D01*
X175213594Y-95328910D01*
X175880344Y-95547192D01*
X175191766Y-95775395D01*
X175127273Y-95830957D01*
X175094531Y-95925215D01*
X175108422Y-96007567D01*
X175153070Y-96069578D01*
X175223516Y-96108770D01*
X175876375Y-96325067D01*
X175213594Y-96543348D01*
X175116359Y-96587996D01*
X175084609Y-96659434D01*
X175104453Y-96763613D01*
X175158527Y-96863328D01*
X175229469Y-96896567D01*
X175326703Y-96874738D01*
X175505847Y-96812441D01*
X177584765Y-96812441D01*
X177637552Y-96898463D01*
X177696203Y-96925834D01*
X178552515Y-97316843D01*
X178402954Y-97386248D01*
X178264878Y-97449787D01*
X178143379Y-97505770D01*
X178118494Y-97517236D01*
X177972110Y-97584441D01*
X177834034Y-97647247D01*
X177726506Y-97696367D01*
X177671765Y-97722516D01*
X177619956Y-97754774D01*
X177592586Y-97788010D01*
X177584765Y-97839819D01*
X177618001Y-97938549D01*
X177677630Y-98025060D01*
X177743124Y-98053897D01*
X177836967Y-98024571D01*
X178204634Y-97843364D01*
X180086275Y-97843364D01*
X180119026Y-97940656D01*
X180177787Y-98025907D01*
X180242327Y-98054324D01*
X180334803Y-98025425D01*
X181413687Y-97493690D01*
X181482080Y-97429150D01*
X181508089Y-97337637D01*
X181508089Y-97318371D01*
X181482080Y-97228786D01*
X181413687Y-97164245D01*
X180334803Y-96632510D01*
X180242327Y-96603611D01*
X180177787Y-96632028D01*
X180119026Y-96717279D01*
X180086275Y-96830947D01*
X180138292Y-96915717D01*
X180196090Y-96942689D01*
X180994081Y-97307068D01*
X181039931Y-97328004D01*
X180892547Y-97396398D01*
X180756483Y-97459012D01*
X180612230Y-97525479D01*
X180467978Y-97591705D01*
X180331913Y-97653596D01*
X180225952Y-97702001D01*
X180172007Y-97727769D01*
X180120953Y-97759558D01*
X180093981Y-97792310D01*
X180086275Y-97843364D01*
X178204634Y-97843364D01*
X178931794Y-97484978D01*
X179001199Y-97419484D01*
X179027592Y-97326619D01*
X179027592Y-97307068D01*
X179001199Y-97216158D01*
X178931794Y-97150664D01*
X177836967Y-96611071D01*
X177743124Y-96581745D01*
X177677630Y-96610582D01*
X177618001Y-96697093D01*
X177584765Y-96812441D01*
X175505847Y-96812441D01*
X176428031Y-96491754D01*
X176457797Y-96477863D01*
X176517328Y-96423293D01*
X176547094Y-96319113D01*
X176501453Y-96209973D01*
X176461766Y-96178223D01*
X176428031Y-96160363D01*
X176397710Y-96150124D01*
X176316271Y-96122581D01*
X176183715Y-96077734D01*
X176000041Y-96015583D01*
X175765250Y-95936129D01*
X176294294Y-95756714D01*
X177582810Y-95756714D01*
X177594541Y-95885530D01*
X177629732Y-96013912D01*
X177688383Y-96141859D01*
X177749723Y-96237901D01*
X177824259Y-96322701D01*
X177916146Y-96394793D01*
X178029539Y-96452712D01*
X178160772Y-96490835D01*
X178306179Y-96503543D01*
X178453052Y-96490591D01*
X178588683Y-96451734D01*
X178706964Y-96392838D01*
X178801784Y-96319768D01*
X178878519Y-96234479D01*
X178942547Y-96138926D01*
X178991912Y-96039708D01*
X178994731Y-96031418D01*
X180074715Y-96031418D01*
X180088736Y-96166385D01*
X180130800Y-96281016D01*
X180200906Y-96375312D01*
X180289850Y-96445418D01*
X180388426Y-96487481D01*
X180496636Y-96501503D01*
X180611026Y-96489221D01*
X180707596Y-96452375D01*
X180783455Y-96397226D01*
X180835713Y-96330037D01*
X180873522Y-96253937D01*
X180906033Y-96172058D01*
X180949381Y-96014078D01*
X180992729Y-95891741D01*
X181066903Y-95842613D01*
X181176718Y-95887406D01*
X181213323Y-96021785D01*
X181183461Y-96114260D01*
X181120847Y-96191323D01*
X181048600Y-96277056D01*
X181024518Y-96341597D01*
X181070756Y-96443705D01*
X181200800Y-96526548D01*
X181311578Y-96476457D01*
X181332770Y-96459118D01*
X181391531Y-96403247D01*
X181452218Y-96316551D01*
X181507126Y-96185544D01*
X181523742Y-96102219D01*
X181529281Y-96014078D01*
X181517936Y-95898270D01*
X181483900Y-95787170D01*
X181427173Y-95680780D01*
X181364318Y-95607570D01*
X181279790Y-95549773D01*
X181176958Y-95512205D01*
X181059196Y-95499682D01*
X180943843Y-95511964D01*
X180848236Y-95548810D01*
X180775267Y-95603958D01*
X180727825Y-95671148D01*
X180695796Y-95747729D01*
X180669064Y-95831053D01*
X180633423Y-95990959D01*
X180589111Y-96113297D01*
X180503379Y-96162425D01*
X180420536Y-96121003D01*
X180390674Y-96016968D01*
X180415719Y-95913896D01*
X180440765Y-95884034D01*
X180460031Y-95861879D01*
X180498562Y-95761697D01*
X180474480Y-95693303D01*
X180402233Y-95626836D01*
X180296272Y-95580598D01*
X180201869Y-95640322D01*
X180165264Y-95688487D01*
X180134339Y-95755737D01*
X180104577Y-95820457D01*
X180082181Y-95920880D01*
X180074715Y-96031418D01*
X178994731Y-96031418D01*
X179024659Y-95943421D01*
X179042988Y-95849090D01*
X179049097Y-95755737D01*
X179041277Y-95661161D01*
X179017817Y-95563164D01*
X178966985Y-95431198D01*
X178925929Y-95363749D01*
X178877053Y-95302165D01*
X178808626Y-95275772D01*
X178699143Y-95318783D01*
X178617031Y-95386721D01*
X178589661Y-95449771D01*
X178628762Y-95543614D01*
X178654177Y-95578805D01*
X178685458Y-95656029D01*
X178701099Y-95770399D01*
X178679593Y-95896989D01*
X178615076Y-96018691D01*
X178491908Y-96118398D01*
X178408574Y-96147724D01*
X178314976Y-96157499D01*
X178221378Y-96147724D01*
X178138044Y-96118398D01*
X178016831Y-96020646D01*
X177950848Y-95896500D01*
X177928854Y-95770399D01*
X177945472Y-95647231D01*
X177995326Y-95551434D01*
X178038337Y-95451726D01*
X178011944Y-95387210D01*
X177932764Y-95314873D01*
X177824259Y-95273817D01*
X177731394Y-95324648D01*
X177696203Y-95379390D01*
X177668833Y-95426311D01*
X177620714Y-95546199D01*
X177611159Y-95570007D01*
X177589897Y-95664094D01*
X177582810Y-95756714D01*
X176294294Y-95756714D01*
X176449859Y-95703957D01*
X176514351Y-95647402D01*
X176547094Y-95546199D01*
X176514351Y-95444996D01*
X176461766Y-95392410D01*
X176428031Y-95378520D01*
X175326703Y-94997520D01*
X175229469Y-94973707D01*
X175158031Y-95006945D01*
X175102469Y-95106660D01*
X175082625Y-95199926D01*
X174657307Y-95199926D01*
X174657307Y-94687957D01*
X175094531Y-94687957D01*
X175107926Y-94790152D01*
X175148109Y-94842738D01*
X175200695Y-94861590D01*
X175269156Y-94864567D01*
X176372469Y-94864567D01*
X176473672Y-94852660D01*
X176530226Y-94800074D01*
X176549078Y-94689942D01*
X176535684Y-94587746D01*
X176495500Y-94535160D01*
X176443906Y-94516309D01*
X176374453Y-94513332D01*
X175271141Y-94513332D01*
X175167953Y-94523254D01*
X175112887Y-94577328D01*
X175094531Y-94687957D01*
X174657307Y-94687957D01*
X174657307Y-94429236D01*
X177582810Y-94429236D01*
X177594541Y-94558052D01*
X177629732Y-94686433D01*
X177631340Y-94689942D01*
X177688383Y-94814380D01*
X177749723Y-94910422D01*
X177824259Y-94995222D01*
X177916146Y-95067315D01*
X178029539Y-95125233D01*
X178160772Y-95163357D01*
X178306179Y-95176065D01*
X178453052Y-95163112D01*
X178588683Y-95124256D01*
X178706964Y-95065360D01*
X178801784Y-94992290D01*
X178877420Y-94908223D01*
X180074715Y-94908223D01*
X180088736Y-95043190D01*
X180130800Y-95157822D01*
X180200906Y-95252117D01*
X180289850Y-95322223D01*
X180388426Y-95364287D01*
X180496636Y-95378308D01*
X180611026Y-95366026D01*
X180707596Y-95329180D01*
X180783455Y-95274032D01*
X180835713Y-95206842D01*
X180873522Y-95130742D01*
X180906033Y-95048863D01*
X180949381Y-94890884D01*
X180992729Y-94768546D01*
X181066903Y-94719418D01*
X181176718Y-94764211D01*
X181213323Y-94898590D01*
X181183461Y-94991066D01*
X181120847Y-95068129D01*
X181048600Y-95153861D01*
X181024518Y-95218402D01*
X181070756Y-95320510D01*
X181200800Y-95403353D01*
X181311578Y-95353262D01*
X181332770Y-95335923D01*
X181391531Y-95280052D01*
X181452218Y-95193356D01*
X181507126Y-95062349D01*
X181523742Y-94979024D01*
X181529281Y-94890884D01*
X181517936Y-94775075D01*
X181483900Y-94663976D01*
X181427173Y-94557586D01*
X181364318Y-94484376D01*
X181279790Y-94426578D01*
X181176958Y-94389010D01*
X181059196Y-94376487D01*
X180943843Y-94388769D01*
X180848236Y-94425615D01*
X180844739Y-94428258D01*
X180775267Y-94480763D01*
X180727825Y-94547953D01*
X180695796Y-94624534D01*
X180669064Y-94707859D01*
X180633423Y-94867765D01*
X180589111Y-94990102D01*
X180503379Y-95039230D01*
X180420536Y-94997809D01*
X180390674Y-94893773D01*
X180415719Y-94790702D01*
X180440765Y-94760840D01*
X180460031Y-94738684D01*
X180498562Y-94638502D01*
X180474480Y-94570108D01*
X180402233Y-94503641D01*
X180296272Y-94457404D01*
X180201869Y-94517128D01*
X180165264Y-94565292D01*
X180104577Y-94697263D01*
X180082181Y-94797685D01*
X180074715Y-94908223D01*
X178877420Y-94908223D01*
X178878519Y-94907001D01*
X178942547Y-94811448D01*
X178991912Y-94712229D01*
X179024659Y-94615943D01*
X179042988Y-94521612D01*
X179049097Y-94428258D01*
X179041277Y-94333683D01*
X179017817Y-94235686D01*
X178966985Y-94103720D01*
X178925929Y-94036271D01*
X178877053Y-93974687D01*
X178808626Y-93948294D01*
X178699143Y-93991305D01*
X178617031Y-94059243D01*
X178589661Y-94122293D01*
X178628762Y-94216135D01*
X178654177Y-94251326D01*
X178685458Y-94328551D01*
X178701099Y-94442921D01*
X178679593Y-94569510D01*
X178615076Y-94691212D01*
X178491908Y-94790920D01*
X178408574Y-94820246D01*
X178314976Y-94830021D01*
X178221378Y-94820246D01*
X178138044Y-94790920D01*
X178016831Y-94693167D01*
X177950848Y-94569022D01*
X177928854Y-94442921D01*
X177945472Y-94319753D01*
X177995326Y-94223956D01*
X178038337Y-94124248D01*
X178011944Y-94059731D01*
X177932764Y-93987395D01*
X177824259Y-93946339D01*
X177731394Y-93997170D01*
X177696203Y-94051911D01*
X177668833Y-94098832D01*
X177611159Y-94242528D01*
X177589897Y-94336615D01*
X177582810Y-94429236D01*
X174657307Y-94429236D01*
X174657307Y-93671957D01*
X175076672Y-93671957D01*
X175090562Y-93806895D01*
X175132234Y-93937863D01*
X175198215Y-94059406D01*
X175285031Y-94166067D01*
X175393924Y-94255363D01*
X175526133Y-94324817D01*
X175675209Y-94369465D01*
X175834703Y-94384348D01*
X175980307Y-94371139D01*
X176115492Y-94331514D01*
X176240260Y-94265471D01*
X176354609Y-94173012D01*
X176450107Y-94061701D01*
X176518320Y-93939104D01*
X176559248Y-93805220D01*
X176572891Y-93660051D01*
X176559062Y-93515192D01*
X176517576Y-93382238D01*
X176448433Y-93261192D01*
X176351633Y-93152051D01*
X176235175Y-93061762D01*
X176107059Y-92997270D01*
X175967284Y-92958574D01*
X175815851Y-92945676D01*
X175664977Y-92959194D01*
X175526877Y-92999750D01*
X175401551Y-93067343D01*
X175289000Y-93161973D01*
X175196106Y-93274958D01*
X175129754Y-93397617D01*
X175089942Y-93529950D01*
X175076672Y-93671957D01*
X174657307Y-93671957D01*
X174657307Y-92532264D01*
X181942693Y-92532264D01*
X181942693Y-98467736D01*
X174657307Y-98467736D01*
G37*
%TO.C,kibuzzard-63E932A7*%
G36*
X182086284Y-112878212D02*
G01*
X181840776Y-112878212D01*
X181962607Y-112625319D01*
X182086284Y-112878212D01*
G37*
G36*
X182114522Y-110389802D02*
G01*
X181865539Y-110389802D01*
X181989094Y-110133331D01*
X182114522Y-110389802D01*
G37*
G36*
X183324594Y-105495132D02*
G01*
X183358309Y-105577974D01*
X183321223Y-105674785D01*
X183209963Y-105707055D01*
X183086662Y-105662744D01*
X183068359Y-105620359D01*
X183063543Y-105564488D01*
X183103038Y-105492242D01*
X183216706Y-105456600D01*
X183324594Y-105495132D01*
G37*
G36*
X180812751Y-117442245D02*
G01*
X180864830Y-117561667D01*
X180812751Y-117680191D01*
X180706798Y-117719698D01*
X180480525Y-117719698D01*
X180480525Y-117401839D01*
X180705002Y-117401839D01*
X180812751Y-117442245D01*
G37*
G36*
X180822686Y-114948592D02*
G01*
X180875481Y-115069657D01*
X180822686Y-115189812D01*
X180715275Y-115229863D01*
X180485888Y-115229863D01*
X180485888Y-114907630D01*
X180713454Y-114907630D01*
X180822686Y-114948592D01*
G37*
G36*
X180832898Y-112454571D02*
G01*
X180886430Y-112577325D01*
X180832898Y-112699157D01*
X180723988Y-112739767D01*
X180491401Y-112739767D01*
X180491401Y-112413037D01*
X180722142Y-112413037D01*
X180832898Y-112454571D01*
G37*
G36*
X180843399Y-109960166D02*
G01*
X180897688Y-110084658D01*
X180843399Y-110208213D01*
X180732948Y-110249398D01*
X180497069Y-110249398D01*
X180497069Y-109918045D01*
X180731075Y-109918045D01*
X180843399Y-109960166D01*
G37*
G36*
X180854201Y-107465361D02*
G01*
X180909270Y-107591640D01*
X180854201Y-107716969D01*
X180742164Y-107758745D01*
X180502900Y-107758745D01*
X180502900Y-107422636D01*
X180740266Y-107422636D01*
X180854201Y-107465361D01*
G37*
G36*
X180865318Y-104970139D02*
G01*
X180921189Y-105098257D01*
X180865318Y-105225411D01*
X180751650Y-105267795D01*
X180508901Y-105267795D01*
X180508901Y-104926791D01*
X180749723Y-104926791D01*
X180865318Y-104970139D01*
G37*
G36*
X180876764Y-102474481D02*
G01*
X180933460Y-102604492D01*
X180876764Y-102733525D01*
X180761416Y-102776536D01*
X180515079Y-102776536D01*
X180515079Y-102430492D01*
X180759461Y-102430492D01*
X180876764Y-102474481D01*
G37*
G36*
X180888552Y-99978367D02*
G01*
X180946099Y-100110328D01*
X180888552Y-100241296D01*
X180771474Y-100284953D01*
X180521443Y-100284953D01*
X180521443Y-99933718D01*
X180769490Y-99933718D01*
X180888552Y-99978367D01*
G37*
G36*
X183071212Y-117404645D02*
G01*
X183128454Y-117472325D01*
X183162799Y-117585125D01*
X183174247Y-117743044D01*
X183174247Y-117753819D01*
X183162687Y-117907810D01*
X183128005Y-118017804D01*
X183070202Y-118083800D01*
X182989278Y-118105799D01*
X182909926Y-118083182D01*
X182853245Y-118015334D01*
X182819237Y-117902254D01*
X182807901Y-117743942D01*
X182819349Y-117585630D01*
X182853694Y-117472549D01*
X182910936Y-117404701D01*
X182991074Y-117382085D01*
X183071212Y-117404645D01*
G37*
G36*
X183157740Y-114910475D02*
G01*
X183215769Y-114979086D01*
X183250587Y-115093438D01*
X183262193Y-115253530D01*
X183262193Y-115264453D01*
X183250473Y-115420564D01*
X183215314Y-115532071D01*
X183156716Y-115598975D01*
X183074678Y-115621277D01*
X182994234Y-115598350D01*
X182936773Y-115529568D01*
X182902297Y-115414931D01*
X182890805Y-115254441D01*
X182902411Y-115093950D01*
X182937228Y-114979313D01*
X182995258Y-114910532D01*
X183076499Y-114887604D01*
X183157740Y-114910475D01*
G37*
G36*
X181940717Y-114932435D02*
G01*
X182052452Y-115006849D01*
X182129597Y-115118129D01*
X182155312Y-115253530D01*
X182128914Y-115388477D01*
X182049721Y-115498391D01*
X181937759Y-115571440D01*
X181813053Y-115595789D01*
X181636462Y-115595789D01*
X181636462Y-114907630D01*
X181811232Y-114907630D01*
X181940717Y-114932435D01*
G37*
G36*
X182020377Y-107448509D02*
G01*
X182136924Y-107526127D01*
X182217391Y-107642199D01*
X182244213Y-107783431D01*
X182216679Y-107924189D01*
X182134075Y-108038836D01*
X182017292Y-108115031D01*
X181887215Y-108140429D01*
X181703020Y-108140429D01*
X181703020Y-107422636D01*
X181885316Y-107422636D01*
X182020377Y-107448509D01*
G37*
G36*
X182048477Y-104953041D02*
G01*
X182166721Y-105031790D01*
X182248360Y-105149552D01*
X182275573Y-105292841D01*
X182247637Y-105435649D01*
X182163831Y-105551966D01*
X182045347Y-105629270D01*
X181913376Y-105655038D01*
X181726498Y-105655038D01*
X181726498Y-104926791D01*
X181911450Y-104926791D01*
X182048477Y-104953041D01*
G37*
G36*
X182077408Y-102457130D02*
G01*
X182197399Y-102537042D01*
X182280245Y-102656545D01*
X182307860Y-102801952D01*
X182279511Y-102946870D01*
X182194467Y-103064906D01*
X182074231Y-103143352D01*
X181940310Y-103169501D01*
X181750671Y-103169501D01*
X181750671Y-102430492D01*
X181938355Y-102430492D01*
X182077408Y-102457130D01*
G37*
G36*
X182107207Y-99960755D02*
G01*
X182228998Y-100041867D01*
X182313086Y-100163162D01*
X182341115Y-100310750D01*
X182312342Y-100457841D01*
X182226021Y-100577648D01*
X182103982Y-100657271D01*
X181968052Y-100683812D01*
X181775568Y-100683812D01*
X181775568Y-99933718D01*
X181966068Y-99933718D01*
X182107207Y-99960755D01*
G37*
G36*
X179749255Y-99161135D02*
G01*
X184250745Y-99161135D01*
X184250745Y-118838865D01*
X179749255Y-118838865D01*
X179749255Y-118238689D01*
X180162666Y-118238689D01*
X180173441Y-118332071D01*
X180221030Y-118381905D01*
X180320698Y-118398516D01*
X180413182Y-118386395D01*
X180460771Y-118350029D01*
X180477832Y-118302440D01*
X180480525Y-118240485D01*
X180480525Y-118037558D01*
X180705002Y-118037558D01*
X180810357Y-118024787D01*
X180913317Y-117986477D01*
X181013882Y-117922625D01*
X181080776Y-117857303D01*
X181134202Y-117772675D01*
X181147107Y-117735861D01*
X181270684Y-117735861D01*
X181282581Y-117870771D01*
X181318273Y-117995356D01*
X181372372Y-118104003D01*
X181439490Y-118191100D01*
X181517833Y-118261585D01*
X181605603Y-118320398D01*
X181696741Y-118365743D01*
X181785185Y-118395823D01*
X181871833Y-118412658D01*
X181957583Y-118418270D01*
X182044455Y-118411087D01*
X182134471Y-118389537D01*
X182255688Y-118342846D01*
X182317644Y-118305134D01*
X182374212Y-118260239D01*
X182398455Y-118197385D01*
X182358947Y-118096819D01*
X182296543Y-118021395D01*
X182238628Y-117996254D01*
X182152429Y-118032170D01*
X182120104Y-118055516D01*
X182049169Y-118084249D01*
X181944114Y-118098615D01*
X181827835Y-118078861D01*
X181716046Y-118019599D01*
X181624459Y-117906463D01*
X181597522Y-117829917D01*
X181588543Y-117743942D01*
X181588637Y-117743044D01*
X182490042Y-117743044D01*
X182495828Y-117868951D01*
X182513188Y-117985679D01*
X182542120Y-118093228D01*
X182580955Y-118183468D01*
X182629217Y-118260239D01*
X182692520Y-118324663D01*
X182776474Y-118377864D01*
X182877713Y-118413556D01*
X182992870Y-118425454D01*
X183107578Y-118413781D01*
X183207470Y-118378762D01*
X183289853Y-118325786D01*
X183352033Y-118260239D01*
X183413315Y-118156643D01*
X183457088Y-118036211D01*
X183483352Y-117898943D01*
X183492106Y-117744840D01*
X183486120Y-117626117D01*
X183468162Y-117511783D01*
X183438232Y-117401839D01*
X183400744Y-117311151D01*
X183352931Y-117233033D01*
X183290077Y-117167037D01*
X183207470Y-117112713D01*
X183107129Y-117076348D01*
X183078319Y-117073339D01*
X182991074Y-117064226D01*
X182874571Y-117076572D01*
X182772883Y-117113611D01*
X182689153Y-117168832D01*
X182626524Y-117235726D01*
X182576914Y-117322150D01*
X182532243Y-117435960D01*
X182500592Y-117576482D01*
X182490042Y-117743044D01*
X181588637Y-117743044D01*
X181597522Y-117657967D01*
X181624459Y-117581421D01*
X181714250Y-117470080D01*
X181828284Y-117409471D01*
X181944114Y-117389269D01*
X182057251Y-117404533D01*
X182145245Y-117450326D01*
X182236832Y-117489834D01*
X182296094Y-117465591D01*
X182362539Y-117392860D01*
X182400251Y-117293192D01*
X182353560Y-117207891D01*
X182303277Y-117175567D01*
X182260178Y-117150425D01*
X182128185Y-117097449D01*
X182041762Y-117077919D01*
X181956685Y-117071409D01*
X181838361Y-117082184D01*
X181807591Y-117090619D01*
X181720436Y-117114509D01*
X181602910Y-117168383D01*
X181514690Y-117224727D01*
X181436797Y-117293192D01*
X181370576Y-117377596D01*
X181317375Y-117481753D01*
X181282357Y-117602297D01*
X181270684Y-117735861D01*
X181147107Y-117735861D01*
X181169220Y-117672783D01*
X181180893Y-117561667D01*
X181169220Y-117450326D01*
X181134202Y-117349761D01*
X181080776Y-117264459D01*
X181013882Y-117198912D01*
X180913516Y-117135061D01*
X180811155Y-117096750D01*
X180706798Y-117083980D01*
X180322494Y-117083980D01*
X180230009Y-117096102D01*
X180182420Y-117132467D01*
X180165360Y-117180056D01*
X180162666Y-117242012D01*
X180162666Y-118238689D01*
X179749255Y-118238689D01*
X179749255Y-115755996D01*
X180163655Y-115755996D01*
X180174578Y-115850663D01*
X180222822Y-115901183D01*
X180323861Y-115918023D01*
X180417618Y-115905734D01*
X180465862Y-115868869D01*
X180483157Y-115820625D01*
X180485888Y-115757816D01*
X180485888Y-115755996D01*
X181314228Y-115755996D01*
X181336075Y-115872510D01*
X181474435Y-115918023D01*
X181807591Y-115918023D01*
X181941684Y-115905620D01*
X182065423Y-115868413D01*
X182178808Y-115806402D01*
X182281839Y-115719585D01*
X182367460Y-115615417D01*
X182428619Y-115501350D01*
X182465314Y-115377383D01*
X182476630Y-115253530D01*
X182568572Y-115253530D01*
X182574438Y-115381169D01*
X182592036Y-115499504D01*
X182621367Y-115608533D01*
X182660736Y-115700015D01*
X182709663Y-115777842D01*
X182773836Y-115843154D01*
X182858946Y-115897087D01*
X182961578Y-115933270D01*
X183078319Y-115945331D01*
X183194606Y-115933497D01*
X183295872Y-115897997D01*
X183379389Y-115844291D01*
X183442425Y-115777842D01*
X183504550Y-115672821D01*
X183548926Y-115550731D01*
X183575551Y-115411575D01*
X183584426Y-115255351D01*
X183578358Y-115134994D01*
X183560152Y-115019087D01*
X183529810Y-114907630D01*
X183491807Y-114815693D01*
X183443335Y-114736500D01*
X183379617Y-114669596D01*
X183295872Y-114614525D01*
X183194150Y-114577659D01*
X183076499Y-114565371D01*
X182958392Y-114577887D01*
X182855305Y-114615435D01*
X182770423Y-114671417D01*
X182706932Y-114739231D01*
X182656640Y-114826844D01*
X182611354Y-114942220D01*
X182579267Y-115084676D01*
X182568572Y-115253530D01*
X182476630Y-115253530D01*
X182477545Y-115243517D01*
X182465029Y-115110164D01*
X182436088Y-115015798D01*
X182427481Y-114987733D01*
X182364900Y-114876226D01*
X182277287Y-114775642D01*
X182173176Y-114692410D01*
X182061100Y-114632958D01*
X181941059Y-114597287D01*
X181813053Y-114585397D01*
X181476255Y-114583576D01*
X181382498Y-114595865D01*
X181334254Y-114632730D01*
X181316959Y-114680064D01*
X181314228Y-114743783D01*
X181314228Y-115755996D01*
X180485888Y-115755996D01*
X180485888Y-115552097D01*
X180713454Y-115552097D01*
X180820258Y-115539151D01*
X180924635Y-115500313D01*
X181026585Y-115435583D01*
X181094400Y-115369361D01*
X181148560Y-115283569D01*
X181184060Y-115182302D01*
X181195894Y-115069657D01*
X181184060Y-114956784D01*
X181148560Y-114854835D01*
X181094400Y-114768360D01*
X181026585Y-114701910D01*
X180924838Y-114637181D01*
X180821068Y-114598343D01*
X180715275Y-114585397D01*
X180325682Y-114585397D01*
X180231925Y-114597685D01*
X180183681Y-114634551D01*
X180166386Y-114682795D01*
X180163655Y-114745603D01*
X180163655Y-115755996D01*
X179749255Y-115755996D01*
X179749255Y-113273241D01*
X180164671Y-113273241D01*
X180175747Y-113369229D01*
X180224664Y-113420454D01*
X180327113Y-113437529D01*
X180422178Y-113425069D01*
X180471095Y-113387689D01*
X180488632Y-113338771D01*
X180490037Y-113306468D01*
X181285151Y-113306468D01*
X181311917Y-113369229D01*
X181392215Y-113424607D01*
X181490972Y-113455988D01*
X181550042Y-113438452D01*
X181583268Y-113404302D01*
X181611880Y-113350770D01*
X181707869Y-113151409D01*
X182219191Y-113151409D01*
X182315180Y-113350770D01*
X182343792Y-113406148D01*
X182377018Y-113441221D01*
X182436088Y-113457834D01*
X182534845Y-113426453D01*
X182615143Y-113369691D01*
X182641909Y-113306468D01*
X182632064Y-113276933D01*
X182715747Y-113276933D01*
X182763741Y-113393226D01*
X182878188Y-113443066D01*
X183599947Y-113443066D01*
X183714395Y-113420915D01*
X183754082Y-113372921D01*
X183766081Y-113279702D01*
X183755005Y-113185559D01*
X183711626Y-113132027D01*
X183603639Y-113114491D01*
X183265834Y-113114491D01*
X183265834Y-113105261D01*
X183311982Y-113086802D01*
X183426430Y-113024502D01*
X183555645Y-112922514D01*
X183615637Y-112856061D01*
X183666401Y-112771148D01*
X183701012Y-112674237D01*
X183712549Y-112571787D01*
X183697166Y-112444931D01*
X183651018Y-112327714D01*
X183574104Y-112220138D01*
X183472475Y-112134507D01*
X183352182Y-112083129D01*
X183226521Y-112067641D01*
X183213225Y-112066003D01*
X183074370Y-112082924D01*
X182954384Y-112133687D01*
X182853268Y-112218292D01*
X182776867Y-112324228D01*
X182731027Y-112438983D01*
X182715747Y-112562558D01*
X182724976Y-112656700D01*
X182775278Y-112709309D01*
X182878188Y-112726846D01*
X182972331Y-112715770D01*
X183022171Y-112682543D01*
X183039707Y-112636395D01*
X183042476Y-112575479D01*
X183042476Y-112564404D01*
X183049860Y-112521947D01*
X183098777Y-112436112D01*
X183201226Y-112392732D01*
X183293523Y-112409346D01*
X183342440Y-112445341D01*
X183371052Y-112495181D01*
X183383973Y-112542253D01*
X183366668Y-112623012D01*
X183314751Y-112699157D01*
X183238375Y-112769071D01*
X183147694Y-112831141D01*
X183049860Y-112889749D01*
X182952026Y-112949280D01*
X182861344Y-113015272D01*
X182784969Y-113093263D01*
X182733052Y-113181175D01*
X182715747Y-113276933D01*
X182632064Y-113276933D01*
X182610528Y-113212325D01*
X182469276Y-112920403D01*
X182112127Y-112182296D01*
X182051212Y-112110305D01*
X181964453Y-112086308D01*
X181876771Y-112112151D01*
X181814933Y-112180450D01*
X181316531Y-113212325D01*
X181285151Y-113306468D01*
X180490037Y-113306468D01*
X180491401Y-113275087D01*
X180491401Y-113066497D01*
X180722142Y-113066497D01*
X180830436Y-113053370D01*
X180936270Y-113013990D01*
X181039642Y-112948357D01*
X181108403Y-112881211D01*
X181163319Y-112794222D01*
X181199315Y-112691542D01*
X181211313Y-112577325D01*
X181199315Y-112462878D01*
X181163319Y-112359505D01*
X181108403Y-112271824D01*
X181039642Y-112204447D01*
X180936475Y-112138814D01*
X180831257Y-112099434D01*
X180723988Y-112086308D01*
X180328959Y-112086308D01*
X180233893Y-112098768D01*
X180184976Y-112136148D01*
X180167440Y-112185065D01*
X180164671Y-112248750D01*
X180164671Y-113273241D01*
X179749255Y-113273241D01*
X179749255Y-110790421D01*
X180165716Y-110790421D01*
X180176948Y-110887768D01*
X180226557Y-110939717D01*
X180330456Y-110957034D01*
X180426867Y-110944397D01*
X180476476Y-110906488D01*
X180494261Y-110856879D01*
X180495685Y-110824118D01*
X181302051Y-110824118D01*
X181329196Y-110887768D01*
X181410630Y-110943929D01*
X181510785Y-110975754D01*
X181570691Y-110957970D01*
X181604388Y-110923337D01*
X181633404Y-110869047D01*
X181730751Y-110666866D01*
X182249310Y-110666866D01*
X182346656Y-110869047D01*
X182375673Y-110925209D01*
X182409370Y-110960778D01*
X182469276Y-110977626D01*
X182569430Y-110945801D01*
X182650865Y-110888236D01*
X182678009Y-110824118D01*
X182646185Y-110728643D01*
X182305592Y-110024752D01*
X182734171Y-110024752D01*
X182793141Y-110140819D01*
X182906400Y-110206341D01*
X183037443Y-110148307D01*
X183061780Y-110125843D01*
X183061780Y-110794165D01*
X183064588Y-110862495D01*
X183082373Y-110913977D01*
X183132450Y-110950482D01*
X183226521Y-110962650D01*
X183322931Y-110950014D01*
X183372541Y-110912105D01*
X183390325Y-110862495D01*
X183393133Y-110797909D01*
X183393133Y-109755176D01*
X183383773Y-109655958D01*
X183357564Y-109615709D01*
X183308891Y-109594180D01*
X183219968Y-109584820D01*
X183114198Y-109633493D01*
X183108581Y-109637237D01*
X183020873Y-109716389D01*
X182801565Y-109914301D01*
X182734171Y-110024752D01*
X182305592Y-110024752D01*
X182140731Y-109684039D01*
X182078953Y-109611029D01*
X181990966Y-109586692D01*
X181902044Y-109612901D01*
X181881519Y-109635570D01*
X181839330Y-109682166D01*
X181333876Y-110728643D01*
X181302051Y-110824118D01*
X180495685Y-110824118D01*
X180497069Y-110792293D01*
X180497069Y-110580751D01*
X180731075Y-110580751D01*
X180840902Y-110567439D01*
X180948233Y-110527502D01*
X181053068Y-110460940D01*
X181122802Y-110392844D01*
X181178496Y-110304624D01*
X181215001Y-110200491D01*
X181227169Y-110084658D01*
X181215001Y-109968590D01*
X181178496Y-109863756D01*
X181122802Y-109774833D01*
X181053068Y-109706503D01*
X180948441Y-109639941D01*
X180841735Y-109600004D01*
X180732948Y-109586692D01*
X180332328Y-109586692D01*
X180235918Y-109599328D01*
X180186308Y-109637237D01*
X180168524Y-109686847D01*
X180165716Y-109751432D01*
X180165716Y-110790421D01*
X179749255Y-110790421D01*
X179749255Y-108307534D01*
X180166791Y-108307534D01*
X180178184Y-108406278D01*
X180228506Y-108458973D01*
X180333896Y-108476538D01*
X180431690Y-108463720D01*
X180482012Y-108425267D01*
X180500052Y-108374946D01*
X180502900Y-108309433D01*
X180502900Y-108307534D01*
X181366910Y-108307534D01*
X181389697Y-108429065D01*
X181440019Y-108464670D01*
X181534016Y-108476538D01*
X181881519Y-108476538D01*
X182021386Y-108463602D01*
X182150454Y-108424793D01*
X182268721Y-108360110D01*
X182376188Y-108269556D01*
X182465497Y-108160902D01*
X182529289Y-108041922D01*
X182567564Y-107912617D01*
X182580322Y-107772987D01*
X182567267Y-107633891D01*
X182528102Y-107506188D01*
X182462826Y-107389879D01*
X182371441Y-107284964D01*
X182334623Y-107255530D01*
X182656279Y-107255530D01*
X182667673Y-107350477D01*
X182713247Y-107405545D01*
X182823385Y-107424535D01*
X183256339Y-107424535D01*
X183214563Y-107510936D01*
X183168514Y-107578822D01*
X183113920Y-107659052D01*
X183055053Y-107749488D01*
X182996187Y-107847995D01*
X182941593Y-107957420D01*
X182895544Y-108080613D01*
X182864211Y-108209027D01*
X182853767Y-108334119D01*
X182856616Y-108397733D01*
X182874655Y-108440459D01*
X182924977Y-108470841D01*
X183020873Y-108478437D01*
X183116768Y-108470841D01*
X183167090Y-108441408D01*
X183186079Y-108399632D01*
X183189877Y-108337917D01*
X183208444Y-108215964D01*
X183264146Y-108070380D01*
X183356982Y-107901164D01*
X183427005Y-107789603D01*
X183496553Y-107678990D01*
X183560879Y-107568141D01*
X183615236Y-107455867D01*
X183652265Y-107352138D01*
X183664608Y-107266924D01*
X183653214Y-107160584D01*
X183602893Y-107106465D01*
X183217669Y-107088425D01*
X182813890Y-107088425D01*
X182703752Y-107111212D01*
X182667673Y-107160584D01*
X182656279Y-107255530D01*
X182334623Y-107255530D01*
X182262846Y-107198147D01*
X182145944Y-107136136D01*
X182020733Y-107098929D01*
X181907596Y-107088419D01*
X181887215Y-107086526D01*
X181535914Y-107084627D01*
X181438120Y-107097445D01*
X181387798Y-107135898D01*
X181369759Y-107185270D01*
X181366910Y-107251733D01*
X181366910Y-108307534D01*
X180502900Y-108307534D01*
X180502900Y-108094855D01*
X180740266Y-108094855D01*
X180851669Y-108081351D01*
X180960541Y-108040841D01*
X181066880Y-107973323D01*
X181137615Y-107904250D01*
X181194108Y-107814763D01*
X181231137Y-107709136D01*
X181243480Y-107591640D01*
X181231137Y-107473907D01*
X181194108Y-107367567D01*
X181137615Y-107277368D01*
X181066880Y-107208057D01*
X180960752Y-107140540D01*
X180852513Y-107100030D01*
X180742164Y-107086526D01*
X180335795Y-107086526D01*
X180238000Y-107099344D01*
X180187679Y-107137797D01*
X180169639Y-107188119D01*
X180166791Y-107253631D01*
X180166791Y-108307534D01*
X179749255Y-108307534D01*
X179749255Y-105824576D01*
X180167897Y-105824576D01*
X180179456Y-105924758D01*
X180230511Y-105978221D01*
X180337436Y-105996042D01*
X180436654Y-105983037D01*
X180487709Y-105944024D01*
X180506011Y-105892970D01*
X180508901Y-105826503D01*
X180508901Y-105824576D01*
X181385494Y-105824576D01*
X181408613Y-105947877D01*
X181459667Y-105984001D01*
X181555033Y-105996042D01*
X181907596Y-105996042D01*
X182049501Y-105982917D01*
X182180448Y-105943543D01*
X182300438Y-105877918D01*
X182409470Y-105786045D01*
X182500079Y-105675808D01*
X182564800Y-105555096D01*
X182596807Y-105446967D01*
X182712906Y-105446967D01*
X182727034Y-105606124D01*
X182769419Y-105744516D01*
X182840060Y-105862145D01*
X182938530Y-105951516D01*
X183064399Y-106005140D01*
X183217669Y-106023014D01*
X183343432Y-106008458D01*
X183456137Y-105964788D01*
X183555784Y-105892007D01*
X183633382Y-105797604D01*
X183679941Y-105689074D01*
X183695461Y-105566415D01*
X183680369Y-105464627D01*
X183635094Y-105369904D01*
X183559637Y-105282245D01*
X183462987Y-105212139D01*
X183354135Y-105170075D01*
X183233082Y-105156054D01*
X183090515Y-105188806D01*
X183100148Y-105161834D01*
X183135790Y-105094403D01*
X183204183Y-105019267D01*
X183320741Y-104953763D01*
X183473904Y-104926791D01*
X183585646Y-104915232D01*
X183624177Y-104890186D01*
X183647296Y-104840095D01*
X183656929Y-104751473D01*
X183645370Y-104658997D01*
X183600095Y-104604089D01*
X183493170Y-104585787D01*
X183354418Y-104595651D01*
X183227919Y-104625243D01*
X183199362Y-104637571D01*
X183113673Y-104674564D01*
X183011680Y-104743612D01*
X182921940Y-104832389D01*
X182846687Y-104935885D01*
X182788158Y-105049090D01*
X182746351Y-105172006D01*
X182721267Y-105304632D01*
X182712906Y-105446967D01*
X182596807Y-105446967D01*
X182603633Y-105423908D01*
X182616577Y-105282245D01*
X182603332Y-105141123D01*
X182563596Y-105011561D01*
X182497370Y-104893558D01*
X182404653Y-104787114D01*
X182294477Y-104699034D01*
X182175872Y-104636119D01*
X182048839Y-104598370D01*
X181934445Y-104587744D01*
X181913376Y-104585787D01*
X181556959Y-104583860D01*
X181457741Y-104596865D01*
X181406686Y-104635878D01*
X181388384Y-104685969D01*
X181385494Y-104753399D01*
X181385494Y-105824576D01*
X180508901Y-105824576D01*
X180508901Y-105608800D01*
X180749723Y-105608800D01*
X180862749Y-105595100D01*
X180973206Y-105553999D01*
X181081095Y-105485499D01*
X181152860Y-105415419D01*
X181210175Y-105324629D01*
X181247744Y-105217464D01*
X181260266Y-105098257D01*
X181247744Y-104978809D01*
X181210175Y-104870920D01*
X181152860Y-104779408D01*
X181081095Y-104709088D01*
X180973420Y-104640587D01*
X180863605Y-104599487D01*
X180751650Y-104585787D01*
X180339362Y-104585787D01*
X180240143Y-104598791D01*
X180189089Y-104637805D01*
X180170787Y-104688859D01*
X180167897Y-104755326D01*
X180167897Y-105824576D01*
X179749255Y-105824576D01*
X179749255Y-103341545D01*
X180169036Y-103341545D01*
X180180766Y-103443208D01*
X180232575Y-103497460D01*
X180341080Y-103515545D01*
X180441765Y-103502348D01*
X180493574Y-103462758D01*
X180512147Y-103410949D01*
X180515079Y-103343500D01*
X180515079Y-103341545D01*
X181404627Y-103341545D01*
X181428087Y-103466668D01*
X181479896Y-103503326D01*
X181576671Y-103515545D01*
X181934445Y-103515545D01*
X182078447Y-103502226D01*
X182211329Y-103462269D01*
X182333092Y-103395676D01*
X182443735Y-103302444D01*
X182458197Y-103284849D01*
X182732105Y-103284849D01*
X182806397Y-103402152D01*
X182822038Y-103415837D01*
X182870914Y-103452983D01*
X182972576Y-103504031D01*
X183082059Y-103534661D01*
X183199362Y-103544870D01*
X183331219Y-103528687D01*
X183447871Y-103480136D01*
X183549316Y-103399219D01*
X183627518Y-103295819D01*
X183674439Y-103179819D01*
X183690079Y-103051220D01*
X183673570Y-102923273D01*
X183664693Y-102902833D01*
X183624042Y-102809229D01*
X183541496Y-102709087D01*
X183438313Y-102631428D01*
X183326875Y-102584832D01*
X183207182Y-102569301D01*
X183138756Y-102573211D01*
X183158306Y-102424627D01*
X183500440Y-102424627D01*
X183563979Y-102421695D01*
X183611877Y-102403122D01*
X183648535Y-102354734D01*
X183660754Y-102260403D01*
X183647557Y-102156785D01*
X183607967Y-102103999D01*
X183557136Y-102085426D01*
X183488709Y-102082493D01*
X183304935Y-102082493D01*
X183007767Y-102080538D01*
X182928588Y-102099111D01*
X182877756Y-102141145D01*
X182849408Y-102193931D01*
X182835723Y-102234987D01*
X182824481Y-102316122D01*
X182794667Y-102536065D01*
X182765341Y-102759429D01*
X182755566Y-102850828D01*
X182777071Y-102898727D01*
X182867981Y-102958356D01*
X182991149Y-102995501D01*
X183097699Y-102950535D01*
X183191542Y-102915344D01*
X183296137Y-102953468D01*
X183342081Y-103057086D01*
X183300047Y-103159726D01*
X183171014Y-103196872D01*
X183048823Y-103155815D01*
X182917835Y-103093254D01*
X182804442Y-103157771D01*
X182732105Y-103284849D01*
X182458197Y-103284849D01*
X182535684Y-103190579D01*
X182601361Y-103068083D01*
X182640768Y-102934956D01*
X182653903Y-102791199D01*
X182640462Y-102647991D01*
X182600139Y-102516514D01*
X182532935Y-102396768D01*
X182438848Y-102288751D01*
X182327043Y-102199369D01*
X182206686Y-102135524D01*
X182077775Y-102097217D01*
X181962099Y-102086472D01*
X181940310Y-102084449D01*
X181578626Y-102082493D01*
X181477941Y-102095690D01*
X181426132Y-102135280D01*
X181407559Y-102186111D01*
X181404627Y-102254538D01*
X181404627Y-103341545D01*
X180515079Y-103341545D01*
X180515079Y-103122580D01*
X180759461Y-103122580D01*
X180874157Y-103108677D01*
X180986246Y-103066969D01*
X181095729Y-102997457D01*
X181168555Y-102926342D01*
X181226717Y-102834210D01*
X181264841Y-102725460D01*
X181277549Y-102604492D01*
X181264841Y-102483279D01*
X181226717Y-102373796D01*
X181168555Y-102280931D01*
X181095729Y-102209572D01*
X180986463Y-102140059D01*
X180875026Y-102098351D01*
X180761416Y-102084449D01*
X180343035Y-102084449D01*
X180242350Y-102097645D01*
X180190541Y-102137235D01*
X180171968Y-102189044D01*
X180169036Y-102256493D01*
X180169036Y-103341545D01*
X179749255Y-103341545D01*
X179749255Y-100858437D01*
X180170209Y-100858437D01*
X180182115Y-100961625D01*
X180234701Y-101016691D01*
X180344834Y-101035046D01*
X180447029Y-101021652D01*
X180499615Y-100981468D01*
X180518467Y-100928882D01*
X180521443Y-100860421D01*
X180521443Y-100858437D01*
X181424334Y-100858437D01*
X181448146Y-100985437D01*
X181500732Y-101022644D01*
X181598959Y-101035046D01*
X181962099Y-101035046D01*
X182108261Y-101021528D01*
X182243136Y-100980972D01*
X182366726Y-100913379D01*
X182479029Y-100818750D01*
X182572357Y-100705206D01*
X182639019Y-100580873D01*
X182676098Y-100455609D01*
X182771724Y-100455609D01*
X182781646Y-100540937D01*
X182835720Y-100597492D01*
X182946349Y-100616343D01*
X183484115Y-100616343D01*
X183484115Y-100858437D01*
X183496021Y-100961625D01*
X183521818Y-101001312D01*
X183573412Y-101025125D01*
X183664693Y-101035046D01*
X183760935Y-101023140D01*
X183818482Y-100974523D01*
X183837334Y-100860421D01*
X183837334Y-99757109D01*
X183834357Y-99687656D01*
X183815506Y-99635070D01*
X183761927Y-99593398D01*
X183661717Y-99580500D01*
X183560513Y-99591414D01*
X183505943Y-99630109D01*
X183487092Y-99679718D01*
X183484115Y-99747187D01*
X183484115Y-100288921D01*
X183160662Y-100288921D01*
X183281709Y-99804734D01*
X183283693Y-99798781D01*
X183297584Y-99715437D01*
X183262857Y-99639039D01*
X183158677Y-99588437D01*
X183067396Y-99574546D01*
X182998935Y-99596375D01*
X182963217Y-99642015D01*
X182942381Y-99711468D01*
X182777677Y-100376234D01*
X182771724Y-100455609D01*
X182676098Y-100455609D01*
X182679017Y-100445749D01*
X182692349Y-100299836D01*
X182678707Y-100154480D01*
X182637779Y-100021031D01*
X182569566Y-99899488D01*
X182474068Y-99789851D01*
X182360587Y-99699128D01*
X182238424Y-99634326D01*
X182107579Y-99595444D01*
X181968052Y-99582484D01*
X181600943Y-99580500D01*
X181498748Y-99593894D01*
X181446162Y-99634078D01*
X181427310Y-99685671D01*
X181424334Y-99755125D01*
X181424334Y-100858437D01*
X180521443Y-100858437D01*
X180521443Y-100636187D01*
X180769490Y-100636187D01*
X180885907Y-100622076D01*
X180999677Y-100579743D01*
X181110802Y-100509187D01*
X181184720Y-100437005D01*
X181243756Y-100343492D01*
X181282451Y-100233111D01*
X181295349Y-100110328D01*
X181282451Y-99987296D01*
X181243756Y-99876171D01*
X181184720Y-99781914D01*
X181110802Y-99709484D01*
X180999898Y-99638928D01*
X180886789Y-99596595D01*
X180771474Y-99582484D01*
X180346818Y-99582484D01*
X180244623Y-99595879D01*
X180192037Y-99636062D01*
X180173185Y-99688648D01*
X180170209Y-99757109D01*
X180170209Y-100858437D01*
X179749255Y-100858437D01*
X179749255Y-99161135D01*
G37*
D11*
%TO.C,RN1*%
X148480000Y-101000000D02*
X148480000Y-101800000D01*
X151920000Y-101000000D02*
X151920000Y-101800000D01*
%TO.C,BT1*%
X162700000Y-96500000D02*
X102700000Y-96500000D01*
X102700000Y-96500000D02*
X102700000Y-66500000D01*
X102700000Y-66500000D02*
X162700000Y-66500000D01*
X162700000Y-66500000D02*
X162700000Y-96500000D01*
D10*
%TO.C,U2*%
X170375000Y-112875000D02*
X170375000Y-112775000D01*
X175025000Y-106050000D02*
X170375000Y-106050000D01*
X175025000Y-106050000D02*
X175025000Y-106075000D01*
X176100000Y-112875000D02*
X170375000Y-112875000D01*
X170375000Y-106050000D02*
X170375000Y-106075000D01*
D11*
%TO.C,U1*%
X113400000Y-111840000D02*
X111600000Y-111840000D01*
X113400000Y-114960000D02*
X114200000Y-114960000D01*
X113400000Y-111840000D02*
X114200000Y-111840000D01*
X113400000Y-114960000D02*
X112600000Y-114960000D01*
%TO.C,SW3*%
X128175000Y-104795000D02*
X142145000Y-104795000D01*
X142145000Y-118765000D02*
X128175000Y-118765000D01*
X128175000Y-118765000D02*
X128175000Y-104795000D01*
X142145000Y-104795000D02*
X142145000Y-118765000D01*
%TO.C,SW2*%
X157450000Y-113100000D02*
X157450000Y-112650000D01*
X157450000Y-106900000D02*
X157450000Y-107300000D01*
X164150000Y-112650000D02*
X164150000Y-113100000D01*
X157450000Y-111350000D02*
X157450000Y-108650000D01*
X164150000Y-113100000D02*
X157450000Y-113100000D01*
X164150000Y-107350000D02*
X164150000Y-106900000D01*
X164150000Y-106900000D02*
X157450000Y-106900000D01*
X164150000Y-108650000D02*
X164150000Y-111350000D01*
%TO.C,R2*%
X167627064Y-101165000D02*
X167172936Y-101165000D01*
X167627064Y-102635000D02*
X167172936Y-102635000D01*
%TO.C,R1*%
X111872936Y-104735000D02*
X112327064Y-104735000D01*
X111872936Y-103265000D02*
X112327064Y-103265000D01*
%TO.C,J4*%
X177045000Y-92330000D02*
X177045000Y-89670000D01*
X174445000Y-92330000D02*
X174445000Y-91000000D01*
X177045000Y-89670000D02*
X182185000Y-89670000D01*
X175775000Y-92330000D02*
X174445000Y-92330000D01*
X177045000Y-92330000D02*
X182185000Y-92330000D01*
X182185000Y-92330000D02*
X182185000Y-89670000D01*
%TO.C,J3*%
X169630000Y-118195000D02*
X161950000Y-118195000D01*
X172230000Y-118195000D02*
X172230000Y-119525000D01*
X169630000Y-118195000D02*
X169630000Y-120855000D01*
X161950000Y-118195000D02*
X161950000Y-120855000D01*
X170900000Y-118195000D02*
X172230000Y-118195000D01*
X169630000Y-120855000D02*
X161950000Y-120855000D01*
%TO.C,J2*%
X132470000Y-100770000D02*
X140150000Y-100770000D01*
X131200000Y-103430000D02*
X129870000Y-103430000D01*
X140150000Y-103430000D02*
X140150000Y-100770000D01*
X132470000Y-103430000D02*
X132470000Y-100770000D01*
X129870000Y-103430000D02*
X129870000Y-102100000D01*
X132470000Y-103430000D02*
X140150000Y-103430000D01*
%TO.C,J1*%
X187830000Y-119030000D02*
X186500000Y-119030000D01*
X185170000Y-116430000D02*
X185170000Y-98590000D01*
X187830000Y-117700000D02*
X187830000Y-119030000D01*
X187830000Y-116430000D02*
X187830000Y-98590000D01*
X187830000Y-98590000D02*
X185170000Y-98590000D01*
X187830000Y-116430000D02*
X185170000Y-116430000D01*
%TO.C,D2*%
X163200000Y-100940000D02*
X160515000Y-100940000D01*
X160515000Y-100940000D02*
X160515000Y-102860000D01*
X160515000Y-102860000D02*
X163200000Y-102860000D01*
%TO.C,D1*%
X118585000Y-103040000D02*
X115900000Y-103040000D01*
X118585000Y-104960000D02*
X118585000Y-103040000D01*
X115900000Y-104960000D02*
X118585000Y-104960000D01*
%TO.C,C4*%
X177561252Y-104160000D02*
X177038748Y-104160000D01*
X177561252Y-102690000D02*
X177038748Y-102690000D01*
%TO.C,C3*%
X107088748Y-109365000D02*
X107611252Y-109365000D01*
X107088748Y-110835000D02*
X107611252Y-110835000D01*
%TO.C,C2*%
X120238748Y-109365000D02*
X120761252Y-109365000D01*
X120238748Y-110835000D02*
X120761252Y-110835000D01*
%TO.C,C1*%
X120761252Y-114235000D02*
X120238748Y-114235000D01*
X120761252Y-112765000D02*
X120238748Y-112765000D01*
%TD*%
M02*
