%TF.GenerationSoftware,KiCad,Pcbnew,(6.0.11)*%
%TF.CreationDate,2023-02-12T12:57:39-06:00*%
%TF.ProjectId,DisplayMin,44697370-6c61-4794-9d69-6e2e6b696361,rev?*%
%TF.SameCoordinates,Original*%
%TF.FileFunction,Legend,Bot*%
%TF.FilePolarity,Positive*%
%FSLAX46Y46*%
G04 Gerber Fmt 4.6, Leading zero omitted, Abs format (unit mm)*
G04 Created by KiCad (PCBNEW (6.0.11)) date 2023-02-12 12:57:39*
%MOMM*%
%LPD*%
G01*
G04 APERTURE LIST*
%ADD10C,0.010000*%
G04 APERTURE END LIST*
%TO.C,Ref\u002A\u002A*%
G36*
X147602177Y-93603029D02*
G01*
X147556811Y-93669668D01*
X147466506Y-93744706D01*
X147353599Y-93792724D01*
X147225300Y-93812012D01*
X147088818Y-93800858D01*
X146951363Y-93757551D01*
X146909821Y-93739744D01*
X146867474Y-93727734D01*
X146832441Y-93733169D01*
X146786062Y-93755857D01*
X146779267Y-93759370D01*
X146676891Y-93790673D01*
X146556405Y-93796780D01*
X146432104Y-93778304D01*
X146318286Y-93735855D01*
X146238931Y-93685428D01*
X146152311Y-93594021D01*
X146097427Y-93477657D01*
X146071978Y-93332567D01*
X146069987Y-93280861D01*
X146088033Y-93121183D01*
X146142528Y-92980054D01*
X146231657Y-92858736D01*
X146353604Y-92758495D01*
X146506554Y-92680594D01*
X146688691Y-92626297D01*
X146898201Y-92596869D01*
X147133267Y-92593573D01*
X147339732Y-92612646D01*
X147560391Y-92662107D01*
X147751149Y-92740311D01*
X147911366Y-92846983D01*
X148040402Y-92981851D01*
X148076700Y-93032953D01*
X148138927Y-93151714D01*
X148173076Y-93280714D01*
X148183484Y-93433645D01*
X148182932Y-93479628D01*
X148175921Y-93566105D01*
X148157430Y-93639731D01*
X148123175Y-93720916D01*
X148107396Y-93752133D01*
X148008746Y-93892186D01*
X147877453Y-94008243D01*
X147716509Y-94098544D01*
X147528907Y-94161330D01*
X147317638Y-94194839D01*
X147218447Y-94200246D01*
X147095561Y-94200768D01*
X146974483Y-94195636D01*
X146863308Y-94185613D01*
X146770136Y-94171462D01*
X146703062Y-94153946D01*
X146670184Y-94133828D01*
X146667183Y-94100288D01*
X146684659Y-94058459D01*
X146713184Y-94025580D01*
X146742646Y-94017840D01*
X146749321Y-94019936D01*
X146794984Y-94029549D01*
X146866749Y-94041420D01*
X146952302Y-94053457D01*
X147035996Y-94061418D01*
X147233766Y-94059131D01*
X147423683Y-94028929D01*
X147592428Y-93972497D01*
X147632683Y-93952235D01*
X147734946Y-93883048D01*
X147829319Y-93796624D01*
X147905176Y-93703548D01*
X147951892Y-93614403D01*
X147969251Y-93546993D01*
X147980409Y-93418949D01*
X147969195Y-93289841D01*
X147936284Y-93178575D01*
X147891214Y-93094911D01*
X147786055Y-92967495D01*
X147649676Y-92867343D01*
X147483346Y-92795100D01*
X147288336Y-92751410D01*
X147065917Y-92736917D01*
X146882091Y-92748911D01*
X146705771Y-92787224D01*
X146555843Y-92850018D01*
X146434947Y-92935390D01*
X146345725Y-93041439D01*
X146290818Y-93166263D01*
X146272867Y-93307960D01*
X146274508Y-93345880D01*
X146299645Y-93466040D01*
X146352329Y-93561867D01*
X146429132Y-93628588D01*
X146526629Y-93661430D01*
X146590651Y-93662983D01*
X146646106Y-93639614D01*
X146672952Y-93585981D01*
X146672884Y-93500215D01*
X146670692Y-93481758D01*
X146662896Y-93405008D01*
X146655218Y-93318283D01*
X146882949Y-93318283D01*
X146888763Y-93411900D01*
X146896936Y-93486900D01*
X146908908Y-93544311D01*
X146927321Y-93580839D01*
X146956134Y-93608002D01*
X146958482Y-93609713D01*
X147029740Y-93642227D01*
X147118969Y-93658534D01*
X147207924Y-93657040D01*
X147278359Y-93636152D01*
X147304279Y-93618895D01*
X147363940Y-93548894D01*
X147394584Y-93460264D01*
X147393719Y-93364264D01*
X147358857Y-93272152D01*
X147294705Y-93199111D01*
X147204982Y-93152341D01*
X147101556Y-93140998D01*
X146992196Y-93167304D01*
X146952760Y-93185312D01*
X146910622Y-93215218D01*
X146888794Y-93256132D01*
X146882949Y-93318283D01*
X146655218Y-93318283D01*
X146654318Y-93308121D01*
X146646450Y-93207625D01*
X146632260Y-93011833D01*
X146720628Y-93011833D01*
X146724645Y-93011851D01*
X146790272Y-93019978D01*
X146820508Y-93041834D01*
X146820957Y-93042971D01*
X146834899Y-93057979D01*
X146864482Y-93054589D01*
X146920386Y-93031716D01*
X147036386Y-92997638D01*
X147167384Y-92993539D01*
X147297812Y-93019241D01*
X147418205Y-93071734D01*
X147519099Y-93148007D01*
X147591029Y-93245049D01*
X147616190Y-93313393D01*
X147631684Y-93416510D01*
X147629771Y-93460264D01*
X147627200Y-93519081D01*
X147602177Y-93603029D01*
G37*
D10*
X147602177Y-93603029D02*
X147556811Y-93669668D01*
X147466506Y-93744706D01*
X147353599Y-93792724D01*
X147225300Y-93812012D01*
X147088818Y-93800858D01*
X146951363Y-93757551D01*
X146909821Y-93739744D01*
X146867474Y-93727734D01*
X146832441Y-93733169D01*
X146786062Y-93755857D01*
X146779267Y-93759370D01*
X146676891Y-93790673D01*
X146556405Y-93796780D01*
X146432104Y-93778304D01*
X146318286Y-93735855D01*
X146238931Y-93685428D01*
X146152311Y-93594021D01*
X146097427Y-93477657D01*
X146071978Y-93332567D01*
X146069987Y-93280861D01*
X146088033Y-93121183D01*
X146142528Y-92980054D01*
X146231657Y-92858736D01*
X146353604Y-92758495D01*
X146506554Y-92680594D01*
X146688691Y-92626297D01*
X146898201Y-92596869D01*
X147133267Y-92593573D01*
X147339732Y-92612646D01*
X147560391Y-92662107D01*
X147751149Y-92740311D01*
X147911366Y-92846983D01*
X148040402Y-92981851D01*
X148076700Y-93032953D01*
X148138927Y-93151714D01*
X148173076Y-93280714D01*
X148183484Y-93433645D01*
X148182932Y-93479628D01*
X148175921Y-93566105D01*
X148157430Y-93639731D01*
X148123175Y-93720916D01*
X148107396Y-93752133D01*
X148008746Y-93892186D01*
X147877453Y-94008243D01*
X147716509Y-94098544D01*
X147528907Y-94161330D01*
X147317638Y-94194839D01*
X147218447Y-94200246D01*
X147095561Y-94200768D01*
X146974483Y-94195636D01*
X146863308Y-94185613D01*
X146770136Y-94171462D01*
X146703062Y-94153946D01*
X146670184Y-94133828D01*
X146667183Y-94100288D01*
X146684659Y-94058459D01*
X146713184Y-94025580D01*
X146742646Y-94017840D01*
X146749321Y-94019936D01*
X146794984Y-94029549D01*
X146866749Y-94041420D01*
X146952302Y-94053457D01*
X147035996Y-94061418D01*
X147233766Y-94059131D01*
X147423683Y-94028929D01*
X147592428Y-93972497D01*
X147632683Y-93952235D01*
X147734946Y-93883048D01*
X147829319Y-93796624D01*
X147905176Y-93703548D01*
X147951892Y-93614403D01*
X147969251Y-93546993D01*
X147980409Y-93418949D01*
X147969195Y-93289841D01*
X147936284Y-93178575D01*
X147891214Y-93094911D01*
X147786055Y-92967495D01*
X147649676Y-92867343D01*
X147483346Y-92795100D01*
X147288336Y-92751410D01*
X147065917Y-92736917D01*
X146882091Y-92748911D01*
X146705771Y-92787224D01*
X146555843Y-92850018D01*
X146434947Y-92935390D01*
X146345725Y-93041439D01*
X146290818Y-93166263D01*
X146272867Y-93307960D01*
X146274508Y-93345880D01*
X146299645Y-93466040D01*
X146352329Y-93561867D01*
X146429132Y-93628588D01*
X146526629Y-93661430D01*
X146590651Y-93662983D01*
X146646106Y-93639614D01*
X146672952Y-93585981D01*
X146672884Y-93500215D01*
X146670692Y-93481758D01*
X146662896Y-93405008D01*
X146655218Y-93318283D01*
X146882949Y-93318283D01*
X146888763Y-93411900D01*
X146896936Y-93486900D01*
X146908908Y-93544311D01*
X146927321Y-93580839D01*
X146956134Y-93608002D01*
X146958482Y-93609713D01*
X147029740Y-93642227D01*
X147118969Y-93658534D01*
X147207924Y-93657040D01*
X147278359Y-93636152D01*
X147304279Y-93618895D01*
X147363940Y-93548894D01*
X147394584Y-93460264D01*
X147393719Y-93364264D01*
X147358857Y-93272152D01*
X147294705Y-93199111D01*
X147204982Y-93152341D01*
X147101556Y-93140998D01*
X146992196Y-93167304D01*
X146952760Y-93185312D01*
X146910622Y-93215218D01*
X146888794Y-93256132D01*
X146882949Y-93318283D01*
X146655218Y-93318283D01*
X146654318Y-93308121D01*
X146646450Y-93207625D01*
X146632260Y-93011833D01*
X146720628Y-93011833D01*
X146724645Y-93011851D01*
X146790272Y-93019978D01*
X146820508Y-93041834D01*
X146820957Y-93042971D01*
X146834899Y-93057979D01*
X146864482Y-93054589D01*
X146920386Y-93031716D01*
X147036386Y-92997638D01*
X147167384Y-92993539D01*
X147297812Y-93019241D01*
X147418205Y-93071734D01*
X147519099Y-93148007D01*
X147591029Y-93245049D01*
X147616190Y-93313393D01*
X147631684Y-93416510D01*
X147629771Y-93460264D01*
X147627200Y-93519081D01*
X147602177Y-93603029D01*
G36*
X144589004Y-93080625D02*
G01*
X144590456Y-93175414D01*
X144593798Y-93321776D01*
X144599280Y-93434425D01*
X144608437Y-93518962D01*
X144622801Y-93580989D01*
X144643908Y-93626107D01*
X144673292Y-93659919D01*
X144712486Y-93688025D01*
X144763025Y-93716028D01*
X144848210Y-93746162D01*
X144963858Y-93762931D01*
X145088241Y-93763112D01*
X145205649Y-93746767D01*
X145300373Y-93713955D01*
X145321915Y-93702437D01*
X145369937Y-93673165D01*
X145406640Y-93640913D01*
X145433541Y-93600060D01*
X145452156Y-93544984D01*
X145464001Y-93470066D01*
X145470595Y-93369683D01*
X145473451Y-93238215D01*
X145474088Y-93070041D01*
X145474167Y-92609666D01*
X145707000Y-92609666D01*
X145707000Y-93079233D01*
X145706956Y-93153292D01*
X145706366Y-93291075D01*
X145704687Y-93395642D01*
X145701421Y-93473294D01*
X145696068Y-93530329D01*
X145688130Y-93573047D01*
X145677107Y-93607746D01*
X145662500Y-93640725D01*
X145658898Y-93647998D01*
X145589176Y-93746266D01*
X145488697Y-93823034D01*
X145352948Y-93881818D01*
X145298470Y-93897659D01*
X145223427Y-93911039D01*
X145135071Y-93915987D01*
X145019084Y-93913877D01*
X144966962Y-93911265D01*
X144868502Y-93903293D01*
X144784375Y-93892770D01*
X144728577Y-93881266D01*
X144684677Y-93864589D01*
X144579580Y-93802365D01*
X144486740Y-93718752D01*
X144421125Y-93626168D01*
X144411397Y-93606310D01*
X144398055Y-93573749D01*
X144388269Y-93537192D01*
X144381491Y-93490251D01*
X144377173Y-93426535D01*
X144374768Y-93339656D01*
X144373726Y-93223223D01*
X144373500Y-93070848D01*
X144373500Y-92609666D01*
X144582257Y-92609666D01*
X144589004Y-93080625D01*
G37*
X144589004Y-93080625D02*
X144590456Y-93175414D01*
X144593798Y-93321776D01*
X144599280Y-93434425D01*
X144608437Y-93518962D01*
X144622801Y-93580989D01*
X144643908Y-93626107D01*
X144673292Y-93659919D01*
X144712486Y-93688025D01*
X144763025Y-93716028D01*
X144848210Y-93746162D01*
X144963858Y-93762931D01*
X145088241Y-93763112D01*
X145205649Y-93746767D01*
X145300373Y-93713955D01*
X145321915Y-93702437D01*
X145369937Y-93673165D01*
X145406640Y-93640913D01*
X145433541Y-93600060D01*
X145452156Y-93544984D01*
X145464001Y-93470066D01*
X145470595Y-93369683D01*
X145473451Y-93238215D01*
X145474088Y-93070041D01*
X145474167Y-92609666D01*
X145707000Y-92609666D01*
X145707000Y-93079233D01*
X145706956Y-93153292D01*
X145706366Y-93291075D01*
X145704687Y-93395642D01*
X145701421Y-93473294D01*
X145696068Y-93530329D01*
X145688130Y-93573047D01*
X145677107Y-93607746D01*
X145662500Y-93640725D01*
X145658898Y-93647998D01*
X145589176Y-93746266D01*
X145488697Y-93823034D01*
X145352948Y-93881818D01*
X145298470Y-93897659D01*
X145223427Y-93911039D01*
X145135071Y-93915987D01*
X145019084Y-93913877D01*
X144966962Y-93911265D01*
X144868502Y-93903293D01*
X144784375Y-93892770D01*
X144728577Y-93881266D01*
X144684677Y-93864589D01*
X144579580Y-93802365D01*
X144486740Y-93718752D01*
X144421125Y-93626168D01*
X144411397Y-93606310D01*
X144398055Y-93573749D01*
X144388269Y-93537192D01*
X144381491Y-93490251D01*
X144377173Y-93426535D01*
X144374768Y-93339656D01*
X144373726Y-93223223D01*
X144373500Y-93070848D01*
X144373500Y-92609666D01*
X144582257Y-92609666D01*
X144589004Y-93080625D01*
G36*
X142532000Y-92990666D02*
G01*
X142616667Y-92990666D01*
X142641650Y-92990832D01*
X142682944Y-92996237D01*
X142698771Y-93017317D01*
X142701334Y-93064750D01*
X142701145Y-93086610D01*
X142694967Y-93122742D01*
X142670876Y-93136590D01*
X142616667Y-93138833D01*
X142532000Y-93138833D01*
X142532000Y-93749410D01*
X142469122Y-93812288D01*
X142460807Y-93820170D01*
X142395336Y-93866770D01*
X142326247Y-93897698D01*
X142292949Y-93904559D01*
X142218841Y-93911054D01*
X142134767Y-93911320D01*
X142053756Y-93905950D01*
X141988840Y-93895540D01*
X141953050Y-93880683D01*
X141943568Y-93861219D01*
X141954845Y-93809542D01*
X141966252Y-93788141D01*
X141987819Y-93770362D01*
X142026431Y-93765226D01*
X142094556Y-93769128D01*
X142134369Y-93771918D01*
X142190465Y-93770406D01*
X142228934Y-93755960D01*
X142265885Y-93724372D01*
X142286846Y-93701916D01*
X142302708Y-93676738D01*
X142312561Y-93642785D01*
X142317831Y-93591667D01*
X142319946Y-93514994D01*
X142320334Y-93404378D01*
X142320334Y-93138833D01*
X141981667Y-93138833D01*
X141981667Y-92990666D01*
X142320334Y-92990666D01*
X142320334Y-92736666D01*
X142532000Y-92736666D01*
X142532000Y-92990666D01*
G37*
X142532000Y-92990666D02*
X142616667Y-92990666D01*
X142641650Y-92990832D01*
X142682944Y-92996237D01*
X142698771Y-93017317D01*
X142701334Y-93064750D01*
X142701145Y-93086610D01*
X142694967Y-93122742D01*
X142670876Y-93136590D01*
X142616667Y-93138833D01*
X142532000Y-93138833D01*
X142532000Y-93749410D01*
X142469122Y-93812288D01*
X142460807Y-93820170D01*
X142395336Y-93866770D01*
X142326247Y-93897698D01*
X142292949Y-93904559D01*
X142218841Y-93911054D01*
X142134767Y-93911320D01*
X142053756Y-93905950D01*
X141988840Y-93895540D01*
X141953050Y-93880683D01*
X141943568Y-93861219D01*
X141954845Y-93809542D01*
X141966252Y-93788141D01*
X141987819Y-93770362D01*
X142026431Y-93765226D01*
X142094556Y-93769128D01*
X142134369Y-93771918D01*
X142190465Y-93770406D01*
X142228934Y-93755960D01*
X142265885Y-93724372D01*
X142286846Y-93701916D01*
X142302708Y-93676738D01*
X142312561Y-93642785D01*
X142317831Y-93591667D01*
X142319946Y-93514994D01*
X142320334Y-93404378D01*
X142320334Y-93138833D01*
X141981667Y-93138833D01*
X141981667Y-92990666D01*
X142320334Y-92990666D01*
X142320334Y-92736666D01*
X142532000Y-92736666D01*
X142532000Y-92990666D01*
G36*
X141008000Y-92990666D02*
G01*
X141092667Y-92990666D01*
X141117650Y-92990832D01*
X141158944Y-92996237D01*
X141174771Y-93017317D01*
X141177334Y-93064750D01*
X141177145Y-93086610D01*
X141170967Y-93122742D01*
X141146876Y-93136590D01*
X141092667Y-93138833D01*
X141008000Y-93138833D01*
X141008000Y-93442895D01*
X141007347Y-93541690D01*
X141002719Y-93655302D01*
X140991247Y-93737819D01*
X140970159Y-93795886D01*
X140936680Y-93836150D01*
X140888035Y-93865255D01*
X140821452Y-93889849D01*
X140786078Y-93898737D01*
X140707690Y-93909043D01*
X140620374Y-93912472D01*
X140536837Y-93909231D01*
X140469784Y-93899523D01*
X140431923Y-93883555D01*
X140424886Y-93858370D01*
X140433898Y-93812429D01*
X140444130Y-93789397D01*
X140463866Y-93770520D01*
X140500654Y-93764998D01*
X140566976Y-93768730D01*
X140567622Y-93768783D01*
X140642234Y-93770971D01*
X140693224Y-93759977D01*
X140738125Y-93732044D01*
X140744035Y-93727366D01*
X140766042Y-93707913D01*
X140780805Y-93685838D01*
X140789769Y-93653197D01*
X140794380Y-93602049D01*
X140796087Y-93524452D01*
X140796334Y-93412463D01*
X140796334Y-93138833D01*
X140457667Y-93138833D01*
X140457667Y-92990666D01*
X140796334Y-92990666D01*
X140796334Y-92736666D01*
X141008000Y-92736666D01*
X141008000Y-92990666D01*
G37*
X141008000Y-92990666D02*
X141092667Y-92990666D01*
X141117650Y-92990832D01*
X141158944Y-92996237D01*
X141174771Y-93017317D01*
X141177334Y-93064750D01*
X141177145Y-93086610D01*
X141170967Y-93122742D01*
X141146876Y-93136590D01*
X141092667Y-93138833D01*
X141008000Y-93138833D01*
X141008000Y-93442895D01*
X141007347Y-93541690D01*
X141002719Y-93655302D01*
X140991247Y-93737819D01*
X140970159Y-93795886D01*
X140936680Y-93836150D01*
X140888035Y-93865255D01*
X140821452Y-93889849D01*
X140786078Y-93898737D01*
X140707690Y-93909043D01*
X140620374Y-93912472D01*
X140536837Y-93909231D01*
X140469784Y-93899523D01*
X140431923Y-93883555D01*
X140424886Y-93858370D01*
X140433898Y-93812429D01*
X140444130Y-93789397D01*
X140463866Y-93770520D01*
X140500654Y-93764998D01*
X140566976Y-93768730D01*
X140567622Y-93768783D01*
X140642234Y-93770971D01*
X140693224Y-93759977D01*
X140738125Y-93732044D01*
X140744035Y-93727366D01*
X140766042Y-93707913D01*
X140780805Y-93685838D01*
X140789769Y-93653197D01*
X140794380Y-93602049D01*
X140796087Y-93524452D01*
X140796334Y-93412463D01*
X140796334Y-93138833D01*
X140457667Y-93138833D01*
X140457667Y-92990666D01*
X140796334Y-92990666D01*
X140796334Y-92736666D01*
X141008000Y-92736666D01*
X141008000Y-92990666D01*
G36*
X140161334Y-93144706D02*
G01*
X140161244Y-93302674D01*
X140160424Y-93459817D01*
X140158032Y-93583155D01*
X140153222Y-93677367D01*
X140145150Y-93747130D01*
X140132973Y-93797123D01*
X140115846Y-93832024D01*
X140092926Y-93856513D01*
X140063367Y-93875266D01*
X140026326Y-93892963D01*
X139993738Y-93902214D01*
X139928729Y-93910244D01*
X139851384Y-93913409D01*
X139775297Y-93911687D01*
X139714064Y-93905058D01*
X139681279Y-93893500D01*
X139682639Y-93871936D01*
X139698272Y-93829485D01*
X139710194Y-93807317D01*
X139742865Y-93780556D01*
X139799606Y-93773509D01*
X139835365Y-93773408D01*
X139867260Y-93770791D01*
X139891901Y-93761257D01*
X139910287Y-93740380D01*
X139923420Y-93703733D01*
X139932300Y-93646891D01*
X139937928Y-93565427D01*
X139941304Y-93454916D01*
X139943430Y-93310930D01*
X139945305Y-93129044D01*
X139951526Y-92525000D01*
X140161334Y-92525000D01*
X140161334Y-93144706D01*
G37*
X140161334Y-93144706D02*
X140161244Y-93302674D01*
X140160424Y-93459817D01*
X140158032Y-93583155D01*
X140153222Y-93677367D01*
X140145150Y-93747130D01*
X140132973Y-93797123D01*
X140115846Y-93832024D01*
X140092926Y-93856513D01*
X140063367Y-93875266D01*
X140026326Y-93892963D01*
X139993738Y-93902214D01*
X139928729Y-93910244D01*
X139851384Y-93913409D01*
X139775297Y-93911687D01*
X139714064Y-93905058D01*
X139681279Y-93893500D01*
X139682639Y-93871936D01*
X139698272Y-93829485D01*
X139710194Y-93807317D01*
X139742865Y-93780556D01*
X139799606Y-93773509D01*
X139835365Y-93773408D01*
X139867260Y-93770791D01*
X139891901Y-93761257D01*
X139910287Y-93740380D01*
X139923420Y-93703733D01*
X139932300Y-93646891D01*
X139937928Y-93565427D01*
X139941304Y-93454916D01*
X139943430Y-93310930D01*
X139945305Y-93129044D01*
X139951526Y-92525000D01*
X140161334Y-92525000D01*
X140161334Y-93144706D01*
G36*
X139528743Y-93573851D02*
G01*
X139473233Y-93693241D01*
X139450724Y-93724957D01*
X139389293Y-93788960D01*
X139310119Y-93838829D01*
X139200958Y-93883102D01*
X139126860Y-93901541D01*
X139007708Y-93915614D01*
X138874545Y-93919014D01*
X138742512Y-93911485D01*
X138626750Y-93892773D01*
X138593670Y-93884520D01*
X138547015Y-93868036D01*
X138527969Y-93847647D01*
X138526817Y-93815880D01*
X138528369Y-93803923D01*
X138543843Y-93757204D01*
X138577381Y-93742227D01*
X138638187Y-93753867D01*
X138639253Y-93754182D01*
X138698273Y-93765320D01*
X138781491Y-93773656D01*
X138871251Y-93777406D01*
X139022700Y-93764872D01*
X139143586Y-93723873D01*
X139233247Y-93654496D01*
X139291503Y-93556836D01*
X139313619Y-93498666D01*
X138468000Y-93498666D01*
X138468000Y-93381198D01*
X138468005Y-93378465D01*
X138473939Y-93323825D01*
X138679667Y-93323825D01*
X138680061Y-93336986D01*
X138685032Y-93351518D01*
X138700855Y-93361290D01*
X138733826Y-93367246D01*
X138790243Y-93370331D01*
X138876399Y-93371490D01*
X138998594Y-93371666D01*
X139317520Y-93371666D01*
X139303875Y-93324041D01*
X139279293Y-93273717D01*
X139218913Y-93208112D01*
X139139946Y-93155977D01*
X139055934Y-93128020D01*
X139027080Y-93124783D01*
X138924957Y-93129516D01*
X138830549Y-93156264D01*
X138752462Y-93200550D01*
X138699300Y-93257896D01*
X138679667Y-93323825D01*
X138473939Y-93323825D01*
X138480683Y-93261725D01*
X138520981Y-93169361D01*
X138593703Y-93090256D01*
X138685756Y-93031825D01*
X138805490Y-92994960D01*
X138954834Y-92981766D01*
X139044687Y-92984117D01*
X139182697Y-93007232D01*
X139298621Y-93057293D01*
X139401483Y-93137446D01*
X139461594Y-93207133D01*
X139522054Y-93324058D01*
X139530725Y-93371666D01*
X139544727Y-93448544D01*
X139528743Y-93573851D01*
G37*
X139528743Y-93573851D02*
X139473233Y-93693241D01*
X139450724Y-93724957D01*
X139389293Y-93788960D01*
X139310119Y-93838829D01*
X139200958Y-93883102D01*
X139126860Y-93901541D01*
X139007708Y-93915614D01*
X138874545Y-93919014D01*
X138742512Y-93911485D01*
X138626750Y-93892773D01*
X138593670Y-93884520D01*
X138547015Y-93868036D01*
X138527969Y-93847647D01*
X138526817Y-93815880D01*
X138528369Y-93803923D01*
X138543843Y-93757204D01*
X138577381Y-93742227D01*
X138638187Y-93753867D01*
X138639253Y-93754182D01*
X138698273Y-93765320D01*
X138781491Y-93773656D01*
X138871251Y-93777406D01*
X139022700Y-93764872D01*
X139143586Y-93723873D01*
X139233247Y-93654496D01*
X139291503Y-93556836D01*
X139313619Y-93498666D01*
X138468000Y-93498666D01*
X138468000Y-93381198D01*
X138468005Y-93378465D01*
X138473939Y-93323825D01*
X138679667Y-93323825D01*
X138680061Y-93336986D01*
X138685032Y-93351518D01*
X138700855Y-93361290D01*
X138733826Y-93367246D01*
X138790243Y-93370331D01*
X138876399Y-93371490D01*
X138998594Y-93371666D01*
X139317520Y-93371666D01*
X139303875Y-93324041D01*
X139279293Y-93273717D01*
X139218913Y-93208112D01*
X139139946Y-93155977D01*
X139055934Y-93128020D01*
X139027080Y-93124783D01*
X138924957Y-93129516D01*
X138830549Y-93156264D01*
X138752462Y-93200550D01*
X138699300Y-93257896D01*
X138679667Y-93323825D01*
X138473939Y-93323825D01*
X138480683Y-93261725D01*
X138520981Y-93169361D01*
X138593703Y-93090256D01*
X138685756Y-93031825D01*
X138805490Y-92994960D01*
X138954834Y-92981766D01*
X139044687Y-92984117D01*
X139182697Y-93007232D01*
X139298621Y-93057293D01*
X139401483Y-93137446D01*
X139461594Y-93207133D01*
X139522054Y-93324058D01*
X139530725Y-93371666D01*
X139544727Y-93448544D01*
X139528743Y-93573851D01*
G36*
X138210692Y-93513277D02*
G01*
X138178381Y-93646918D01*
X138110988Y-93757291D01*
X138009642Y-93842894D01*
X137875471Y-93902223D01*
X137853536Y-93907925D01*
X137753820Y-93919894D01*
X137637269Y-93918552D01*
X137521910Y-93904809D01*
X137425769Y-93879572D01*
X137384810Y-93864438D01*
X137336602Y-93850627D01*
X137309134Y-93852444D01*
X137290917Y-93868988D01*
X137289656Y-93870582D01*
X137250536Y-93892235D01*
X137190375Y-93900833D01*
X137113334Y-93900833D01*
X137113334Y-93685390D01*
X137325000Y-93685390D01*
X137416350Y-93729611D01*
X137429079Y-93735509D01*
X137555856Y-93769969D01*
X137687403Y-93766833D01*
X137811401Y-93726208D01*
X137861016Y-93697978D01*
X137937193Y-93632061D01*
X137978998Y-93550742D01*
X137991750Y-93445750D01*
X137983784Y-93365035D01*
X137943602Y-93266415D01*
X137871011Y-93193775D01*
X137767668Y-93148572D01*
X137635229Y-93132262D01*
X137566302Y-93134204D01*
X137486986Y-93148723D01*
X137414206Y-93181158D01*
X137325000Y-93231295D01*
X137325000Y-93685390D01*
X137113334Y-93685390D01*
X137113334Y-92525000D01*
X137325000Y-92525000D01*
X137325000Y-93052006D01*
X137404375Y-93017902D01*
X137432767Y-93007845D01*
X137528907Y-92989891D01*
X137653084Y-92983410D01*
X137793364Y-92993743D01*
X137938109Y-93033338D01*
X138054755Y-93100818D01*
X138141045Y-93194299D01*
X138194725Y-93311895D01*
X138212733Y-93445750D01*
X138213536Y-93451721D01*
X138210692Y-93513277D01*
G37*
X138210692Y-93513277D02*
X138178381Y-93646918D01*
X138110988Y-93757291D01*
X138009642Y-93842894D01*
X137875471Y-93902223D01*
X137853536Y-93907925D01*
X137753820Y-93919894D01*
X137637269Y-93918552D01*
X137521910Y-93904809D01*
X137425769Y-93879572D01*
X137384810Y-93864438D01*
X137336602Y-93850627D01*
X137309134Y-93852444D01*
X137290917Y-93868988D01*
X137289656Y-93870582D01*
X137250536Y-93892235D01*
X137190375Y-93900833D01*
X137113334Y-93900833D01*
X137113334Y-93685390D01*
X137325000Y-93685390D01*
X137416350Y-93729611D01*
X137429079Y-93735509D01*
X137555856Y-93769969D01*
X137687403Y-93766833D01*
X137811401Y-93726208D01*
X137861016Y-93697978D01*
X137937193Y-93632061D01*
X137978998Y-93550742D01*
X137991750Y-93445750D01*
X137983784Y-93365035D01*
X137943602Y-93266415D01*
X137871011Y-93193775D01*
X137767668Y-93148572D01*
X137635229Y-93132262D01*
X137566302Y-93134204D01*
X137486986Y-93148723D01*
X137414206Y-93181158D01*
X137325000Y-93231295D01*
X137325000Y-93685390D01*
X137113334Y-93685390D01*
X137113334Y-92525000D01*
X137325000Y-92525000D01*
X137325000Y-93052006D01*
X137404375Y-93017902D01*
X137432767Y-93007845D01*
X137528907Y-92989891D01*
X137653084Y-92983410D01*
X137793364Y-92993743D01*
X137938109Y-93033338D01*
X138054755Y-93100818D01*
X138141045Y-93194299D01*
X138194725Y-93311895D01*
X138212733Y-93445750D01*
X138213536Y-93451721D01*
X138210692Y-93513277D01*
G36*
X135250667Y-93144706D02*
G01*
X135250577Y-93302623D01*
X135249757Y-93459787D01*
X135247364Y-93583143D01*
X135242553Y-93677368D01*
X135234481Y-93747140D01*
X135222304Y-93797135D01*
X135205177Y-93832032D01*
X135182257Y-93856508D01*
X135152699Y-93875240D01*
X135115660Y-93892906D01*
X135036003Y-93912741D01*
X134929313Y-93914046D01*
X134889867Y-93910836D01*
X134820930Y-93901541D01*
X134785393Y-93886954D01*
X134776926Y-93863098D01*
X134789196Y-93825994D01*
X134808646Y-93795182D01*
X134842861Y-93778044D01*
X134904070Y-93773833D01*
X134936548Y-93772833D01*
X134988781Y-93761159D01*
X135017089Y-93732891D01*
X135020545Y-93721358D01*
X135026890Y-93667600D01*
X135032021Y-93576245D01*
X135035824Y-93450480D01*
X135038188Y-93293494D01*
X135039000Y-93108474D01*
X135039000Y-92525000D01*
X135250667Y-92525000D01*
X135250667Y-93144706D01*
G37*
X135250667Y-93144706D02*
X135250577Y-93302623D01*
X135249757Y-93459787D01*
X135247364Y-93583143D01*
X135242553Y-93677368D01*
X135234481Y-93747140D01*
X135222304Y-93797135D01*
X135205177Y-93832032D01*
X135182257Y-93856508D01*
X135152699Y-93875240D01*
X135115660Y-93892906D01*
X135036003Y-93912741D01*
X134929313Y-93914046D01*
X134889867Y-93910836D01*
X134820930Y-93901541D01*
X134785393Y-93886954D01*
X134776926Y-93863098D01*
X134789196Y-93825994D01*
X134808646Y-93795182D01*
X134842861Y-93778044D01*
X134904070Y-93773833D01*
X134936548Y-93772833D01*
X134988781Y-93761159D01*
X135017089Y-93732891D01*
X135020545Y-93721358D01*
X135026890Y-93667600D01*
X135032021Y-93576245D01*
X135035824Y-93450480D01*
X135038188Y-93293494D01*
X135039000Y-93108474D01*
X135039000Y-92525000D01*
X135250667Y-92525000D01*
X135250667Y-93144706D01*
G36*
X134632341Y-93520106D02*
G01*
X134596028Y-93644133D01*
X134523087Y-93747343D01*
X134413293Y-93830005D01*
X134266417Y-93892391D01*
X134227781Y-93902223D01*
X134129779Y-93915297D01*
X134015194Y-93919646D01*
X133895726Y-93915841D01*
X133783077Y-93904450D01*
X133688949Y-93886042D01*
X133625042Y-93861188D01*
X133618681Y-93855640D01*
X133611275Y-93821961D01*
X133624285Y-93780685D01*
X133649978Y-93748423D01*
X133680620Y-93741790D01*
X133748308Y-93761164D01*
X133857143Y-93775829D01*
X133974725Y-93777865D01*
X134088600Y-93767871D01*
X134186309Y-93746446D01*
X134255397Y-93714186D01*
X134268224Y-93703804D01*
X134312801Y-93658426D01*
X134356878Y-93603360D01*
X134390573Y-93551740D01*
X134404000Y-93516703D01*
X134403193Y-93515587D01*
X134375519Y-93510215D01*
X134313093Y-93505567D01*
X134222252Y-93501913D01*
X134109331Y-93499523D01*
X133980667Y-93498666D01*
X133557334Y-93498666D01*
X133557334Y-93390740D01*
X133561291Y-93330957D01*
X133769000Y-93330957D01*
X133769163Y-93336339D01*
X133773713Y-93350484D01*
X133789237Y-93360254D01*
X133822006Y-93366453D01*
X133878292Y-93369885D01*
X133964366Y-93371355D01*
X134086500Y-93371666D01*
X134219248Y-93370341D01*
X134321091Y-93366142D01*
X134383074Y-93359150D01*
X134404000Y-93349448D01*
X134403980Y-93348609D01*
X134394183Y-93314510D01*
X134371892Y-93265140D01*
X134355162Y-93238379D01*
X134287145Y-93177414D01*
X134196874Y-93138966D01*
X134094861Y-93123794D01*
X133991615Y-93132656D01*
X133897645Y-93166313D01*
X133823462Y-93225523D01*
X133814431Y-93236820D01*
X133782080Y-93289021D01*
X133769000Y-93330957D01*
X133561291Y-93330957D01*
X133562290Y-93315873D01*
X133596024Y-93203114D01*
X133663113Y-93113827D01*
X133765258Y-93046087D01*
X133904161Y-92997967D01*
X133945155Y-92989076D01*
X134096628Y-92977080D01*
X134239446Y-92996557D01*
X134368268Y-93044207D01*
X134477757Y-93116733D01*
X134562574Y-93210837D01*
X134617379Y-93323221D01*
X134621386Y-93349448D01*
X134636834Y-93450585D01*
X134632341Y-93520106D01*
G37*
X134632341Y-93520106D02*
X134596028Y-93644133D01*
X134523087Y-93747343D01*
X134413293Y-93830005D01*
X134266417Y-93892391D01*
X134227781Y-93902223D01*
X134129779Y-93915297D01*
X134015194Y-93919646D01*
X133895726Y-93915841D01*
X133783077Y-93904450D01*
X133688949Y-93886042D01*
X133625042Y-93861188D01*
X133618681Y-93855640D01*
X133611275Y-93821961D01*
X133624285Y-93780685D01*
X133649978Y-93748423D01*
X133680620Y-93741790D01*
X133748308Y-93761164D01*
X133857143Y-93775829D01*
X133974725Y-93777865D01*
X134088600Y-93767871D01*
X134186309Y-93746446D01*
X134255397Y-93714186D01*
X134268224Y-93703804D01*
X134312801Y-93658426D01*
X134356878Y-93603360D01*
X134390573Y-93551740D01*
X134404000Y-93516703D01*
X134403193Y-93515587D01*
X134375519Y-93510215D01*
X134313093Y-93505567D01*
X134222252Y-93501913D01*
X134109331Y-93499523D01*
X133980667Y-93498666D01*
X133557334Y-93498666D01*
X133557334Y-93390740D01*
X133561291Y-93330957D01*
X133769000Y-93330957D01*
X133769163Y-93336339D01*
X133773713Y-93350484D01*
X133789237Y-93360254D01*
X133822006Y-93366453D01*
X133878292Y-93369885D01*
X133964366Y-93371355D01*
X134086500Y-93371666D01*
X134219248Y-93370341D01*
X134321091Y-93366142D01*
X134383074Y-93359150D01*
X134404000Y-93349448D01*
X134403980Y-93348609D01*
X134394183Y-93314510D01*
X134371892Y-93265140D01*
X134355162Y-93238379D01*
X134287145Y-93177414D01*
X134196874Y-93138966D01*
X134094861Y-93123794D01*
X133991615Y-93132656D01*
X133897645Y-93166313D01*
X133823462Y-93225523D01*
X133814431Y-93236820D01*
X133782080Y-93289021D01*
X133769000Y-93330957D01*
X133561291Y-93330957D01*
X133562290Y-93315873D01*
X133596024Y-93203114D01*
X133663113Y-93113827D01*
X133765258Y-93046087D01*
X133904161Y-92997967D01*
X133945155Y-92989076D01*
X134096628Y-92977080D01*
X134239446Y-92996557D01*
X134368268Y-93044207D01*
X134477757Y-93116733D01*
X134562574Y-93210837D01*
X134617379Y-93323221D01*
X134621386Y-93349448D01*
X134636834Y-93450585D01*
X134632341Y-93520106D01*
G36*
X132800867Y-92979485D02*
G01*
X132834971Y-92984844D01*
X132952108Y-93017532D01*
X133064551Y-93068054D01*
X133159762Y-93129986D01*
X133225203Y-93196903D01*
X133270052Y-93275917D01*
X133307866Y-93401262D01*
X133310623Y-93526416D01*
X133280429Y-93644516D01*
X133219390Y-93748700D01*
X133129610Y-93832106D01*
X133013196Y-93887871D01*
X132988578Y-93894597D01*
X132878361Y-93912503D01*
X132749394Y-93919679D01*
X132619208Y-93915702D01*
X132505334Y-93900148D01*
X132473901Y-93893192D01*
X132405284Y-93874268D01*
X132369759Y-93853798D01*
X132360719Y-93826121D01*
X132371557Y-93785582D01*
X132380268Y-93765012D01*
X132404038Y-93738380D01*
X132441169Y-93741524D01*
X132447060Y-93743132D01*
X132497177Y-93751728D01*
X132572766Y-93760420D01*
X132659890Y-93767550D01*
X132712915Y-93770467D01*
X132795504Y-93770464D01*
X132856398Y-93761422D01*
X132909015Y-93741962D01*
X132946436Y-93720979D01*
X133023421Y-93648729D01*
X133070760Y-93557974D01*
X133087782Y-93457715D01*
X133073814Y-93356957D01*
X133028185Y-93264702D01*
X132950222Y-93189953D01*
X132942598Y-93185063D01*
X132843026Y-93145232D01*
X132718599Y-93129496D01*
X132578652Y-93138186D01*
X132432521Y-93171633D01*
X132416466Y-93171124D01*
X132388120Y-93146275D01*
X132367752Y-93103768D01*
X132361746Y-93059715D01*
X132376487Y-93030227D01*
X132394469Y-93021888D01*
X132457587Y-93004998D01*
X132543259Y-92990703D01*
X132638012Y-92980611D01*
X132728372Y-92976335D01*
X132800867Y-92979485D01*
G37*
X132800867Y-92979485D02*
X132834971Y-92984844D01*
X132952108Y-93017532D01*
X133064551Y-93068054D01*
X133159762Y-93129986D01*
X133225203Y-93196903D01*
X133270052Y-93275917D01*
X133307866Y-93401262D01*
X133310623Y-93526416D01*
X133280429Y-93644516D01*
X133219390Y-93748700D01*
X133129610Y-93832106D01*
X133013196Y-93887871D01*
X132988578Y-93894597D01*
X132878361Y-93912503D01*
X132749394Y-93919679D01*
X132619208Y-93915702D01*
X132505334Y-93900148D01*
X132473901Y-93893192D01*
X132405284Y-93874268D01*
X132369759Y-93853798D01*
X132360719Y-93826121D01*
X132371557Y-93785582D01*
X132380268Y-93765012D01*
X132404038Y-93738380D01*
X132441169Y-93741524D01*
X132447060Y-93743132D01*
X132497177Y-93751728D01*
X132572766Y-93760420D01*
X132659890Y-93767550D01*
X132712915Y-93770467D01*
X132795504Y-93770464D01*
X132856398Y-93761422D01*
X132909015Y-93741962D01*
X132946436Y-93720979D01*
X133023421Y-93648729D01*
X133070760Y-93557974D01*
X133087782Y-93457715D01*
X133073814Y-93356957D01*
X133028185Y-93264702D01*
X132950222Y-93189953D01*
X132942598Y-93185063D01*
X132843026Y-93145232D01*
X132718599Y-93129496D01*
X132578652Y-93138186D01*
X132432521Y-93171633D01*
X132416466Y-93171124D01*
X132388120Y-93146275D01*
X132367752Y-93103768D01*
X132361746Y-93059715D01*
X132376487Y-93030227D01*
X132394469Y-93021888D01*
X132457587Y-93004998D01*
X132543259Y-92990703D01*
X132638012Y-92980611D01*
X132728372Y-92976335D01*
X132800867Y-92979485D01*
G36*
X143560955Y-92989811D02*
G01*
X143692255Y-93020245D01*
X143747402Y-93038251D01*
X143789007Y-93047333D01*
X143812773Y-93042141D01*
X143830772Y-93022909D01*
X143863585Y-92999147D01*
X143929935Y-92994292D01*
X144003084Y-93001250D01*
X144008796Y-93451041D01*
X144014509Y-93900833D01*
X143780834Y-93900833D01*
X143780834Y-93201285D01*
X143722625Y-93179121D01*
X143670331Y-93161447D01*
X143542286Y-93135703D01*
X143421627Y-93134426D01*
X143317729Y-93157144D01*
X143239964Y-93203385D01*
X143227228Y-93215777D01*
X143211120Y-93236175D01*
X143200186Y-93262841D01*
X143193426Y-93302987D01*
X143189837Y-93363827D01*
X143188418Y-93452573D01*
X143188167Y-93576439D01*
X143188167Y-93900833D01*
X142952485Y-93900833D01*
X142959201Y-93553055D01*
X142960057Y-93511204D01*
X142964377Y-93375598D01*
X142972289Y-93273783D01*
X142986353Y-93198984D01*
X143009133Y-93144431D01*
X143043191Y-93103351D01*
X143091089Y-93068972D01*
X143155389Y-93034521D01*
X143170835Y-93027274D01*
X143285636Y-92993713D01*
X143420546Y-92981096D01*
X143560955Y-92989811D01*
G37*
X143560955Y-92989811D02*
X143692255Y-93020245D01*
X143747402Y-93038251D01*
X143789007Y-93047333D01*
X143812773Y-93042141D01*
X143830772Y-93022909D01*
X143863585Y-92999147D01*
X143929935Y-92994292D01*
X144003084Y-93001250D01*
X144008796Y-93451041D01*
X144014509Y-93900833D01*
X143780834Y-93900833D01*
X143780834Y-93201285D01*
X143722625Y-93179121D01*
X143670331Y-93161447D01*
X143542286Y-93135703D01*
X143421627Y-93134426D01*
X143317729Y-93157144D01*
X143239964Y-93203385D01*
X143227228Y-93215777D01*
X143211120Y-93236175D01*
X143200186Y-93262841D01*
X143193426Y-93302987D01*
X143189837Y-93363827D01*
X143188418Y-93452573D01*
X143188167Y-93576439D01*
X143188167Y-93900833D01*
X142952485Y-93900833D01*
X142959201Y-93553055D01*
X142960057Y-93511204D01*
X142964377Y-93375598D01*
X142972289Y-93273783D01*
X142986353Y-93198984D01*
X143009133Y-93144431D01*
X143043191Y-93103351D01*
X143091089Y-93068972D01*
X143155389Y-93034521D01*
X143170835Y-93027274D01*
X143285636Y-92993713D01*
X143420546Y-92981096D01*
X143560955Y-92989811D01*
G36*
X141685334Y-93900833D02*
G01*
X141452500Y-93900833D01*
X141452500Y-92990666D01*
X141685334Y-92990666D01*
X141685334Y-93900833D01*
G37*
X141685334Y-93900833D02*
X141452500Y-93900833D01*
X141452500Y-92990666D01*
X141685334Y-92990666D01*
X141685334Y-93900833D01*
G36*
X136690000Y-93900833D02*
G01*
X135589334Y-93900833D01*
X135589334Y-93752666D01*
X136457167Y-93752666D01*
X136457167Y-93308166D01*
X135652834Y-93308166D01*
X135652834Y-93160000D01*
X136457167Y-93160000D01*
X136457167Y-92757833D01*
X135589334Y-92757833D01*
X135589334Y-92609666D01*
X136690000Y-92609666D01*
X136690000Y-93900833D01*
G37*
X136690000Y-93900833D02*
X135589334Y-93900833D01*
X135589334Y-93752666D01*
X136457167Y-93752666D01*
X136457167Y-93308166D01*
X135652834Y-93308166D01*
X135652834Y-93160000D01*
X136457167Y-93160000D01*
X136457167Y-92757833D01*
X135589334Y-92757833D01*
X135589334Y-92609666D01*
X136690000Y-92609666D01*
X136690000Y-93900833D01*
G36*
X141608382Y-92574976D02*
G01*
X141669891Y-92596929D01*
X141710477Y-92641691D01*
X141714143Y-92650187D01*
X141721316Y-92696631D01*
X141698432Y-92746382D01*
X141675683Y-92774531D01*
X141636036Y-92794952D01*
X141571710Y-92800166D01*
X141526822Y-92796922D01*
X141457727Y-92772166D01*
X141420343Y-92726173D01*
X141418833Y-92662687D01*
X141430036Y-92636478D01*
X141475283Y-92595698D01*
X141539122Y-92574881D01*
X141608382Y-92574976D01*
G37*
X141608382Y-92574976D02*
X141669891Y-92596929D01*
X141710477Y-92641691D01*
X141714143Y-92650187D01*
X141721316Y-92696631D01*
X141698432Y-92746382D01*
X141675683Y-92774531D01*
X141636036Y-92794952D01*
X141571710Y-92800166D01*
X141526822Y-92796922D01*
X141457727Y-92772166D01*
X141420343Y-92726173D01*
X141418833Y-92662687D01*
X141430036Y-92636478D01*
X141475283Y-92595698D01*
X141539122Y-92574881D01*
X141608382Y-92574976D01*
G36*
X150075158Y-91159286D02*
G01*
X150085270Y-91196791D01*
X150092947Y-91276166D01*
X149390000Y-91276166D01*
X149390000Y-91678333D01*
X149199500Y-91678333D01*
X149199500Y-91276166D01*
X148945500Y-91276166D01*
X148945500Y-91085666D01*
X149199500Y-91085666D01*
X149390000Y-91085666D01*
X149622834Y-91085666D01*
X149703621Y-91085118D01*
X149782395Y-91083265D01*
X149835925Y-91080413D01*
X149855667Y-91076884D01*
X149855639Y-91076704D01*
X149844410Y-91055339D01*
X149815496Y-91004543D01*
X149772772Y-90930869D01*
X149720113Y-90840871D01*
X149661394Y-90741101D01*
X149600490Y-90638114D01*
X149541275Y-90538461D01*
X149487625Y-90448697D01*
X149443415Y-90375373D01*
X149412519Y-90325045D01*
X149398813Y-90304263D01*
X149398719Y-90304192D01*
X149395968Y-90322672D01*
X149393575Y-90376913D01*
X149391686Y-90460551D01*
X149390446Y-90567220D01*
X149390000Y-90690555D01*
X149390000Y-91085666D01*
X149199500Y-91085666D01*
X149199500Y-89963833D01*
X149289459Y-89964515D01*
X149379417Y-89965198D01*
X149728506Y-90541307D01*
X149758853Y-90591486D01*
X149862198Y-90764295D01*
X149944106Y-90904916D01*
X150005971Y-91015913D01*
X150037367Y-91076884D01*
X150049191Y-91099848D01*
X150075158Y-91159286D01*
G37*
X150075158Y-91159286D02*
X150085270Y-91196791D01*
X150092947Y-91276166D01*
X149390000Y-91276166D01*
X149390000Y-91678333D01*
X149199500Y-91678333D01*
X149199500Y-91276166D01*
X148945500Y-91276166D01*
X148945500Y-91085666D01*
X149199500Y-91085666D01*
X149390000Y-91085666D01*
X149622834Y-91085666D01*
X149703621Y-91085118D01*
X149782395Y-91083265D01*
X149835925Y-91080413D01*
X149855667Y-91076884D01*
X149855639Y-91076704D01*
X149844410Y-91055339D01*
X149815496Y-91004543D01*
X149772772Y-90930869D01*
X149720113Y-90840871D01*
X149661394Y-90741101D01*
X149600490Y-90638114D01*
X149541275Y-90538461D01*
X149487625Y-90448697D01*
X149443415Y-90375373D01*
X149412519Y-90325045D01*
X149398813Y-90304263D01*
X149398719Y-90304192D01*
X149395968Y-90322672D01*
X149393575Y-90376913D01*
X149391686Y-90460551D01*
X149390446Y-90567220D01*
X149390000Y-90690555D01*
X149390000Y-91085666D01*
X149199500Y-91085666D01*
X149199500Y-89963833D01*
X149289459Y-89964515D01*
X149379417Y-89965198D01*
X149728506Y-90541307D01*
X149758853Y-90591486D01*
X149862198Y-90764295D01*
X149944106Y-90904916D01*
X150005971Y-91015913D01*
X150037367Y-91076884D01*
X150049191Y-91099848D01*
X150075158Y-91159286D01*
G36*
X148768271Y-91129258D02*
G01*
X148724838Y-91304440D01*
X148662369Y-91448998D01*
X148582158Y-91559963D01*
X148485497Y-91634368D01*
X148404570Y-91664131D01*
X148287366Y-91678265D01*
X148169014Y-91666791D01*
X148067084Y-91629898D01*
X148009812Y-91588297D01*
X147929435Y-91498962D01*
X147859570Y-91385203D01*
X147807608Y-91257623D01*
X147799055Y-91224613D01*
X147783158Y-91122560D01*
X147772966Y-90994690D01*
X147769552Y-90886292D01*
X147953457Y-90886292D01*
X147967249Y-91077990D01*
X148001911Y-91235419D01*
X148057194Y-91357586D01*
X148132848Y-91443499D01*
X148210225Y-91483013D01*
X148295880Y-91486861D01*
X148379837Y-91454665D01*
X148455722Y-91388932D01*
X148517164Y-91292173D01*
X148529322Y-91264365D01*
X148571444Y-91126724D01*
X148595866Y-90970327D01*
X148603041Y-90804900D01*
X148593424Y-90640167D01*
X148567469Y-90485855D01*
X148525631Y-90351689D01*
X148468363Y-90247393D01*
X148461377Y-90238397D01*
X148385998Y-90170524D01*
X148303994Y-90141469D01*
X148220528Y-90149699D01*
X148140759Y-90193678D01*
X148069850Y-90271875D01*
X148012961Y-90382753D01*
X148007592Y-90397427D01*
X147982783Y-90487819D01*
X147966137Y-90598710D01*
X147955936Y-90740884D01*
X147953457Y-90886292D01*
X147769552Y-90886292D01*
X147768481Y-90852297D01*
X147769703Y-90706675D01*
X147776632Y-90569119D01*
X147789266Y-90450921D01*
X147807608Y-90363376D01*
X147821063Y-90323116D01*
X147888691Y-90180107D01*
X147975243Y-90069506D01*
X148077350Y-89993288D01*
X148191644Y-89953427D01*
X148314756Y-89951899D01*
X148443318Y-89990678D01*
X148462190Y-89999906D01*
X148569820Y-90079208D01*
X148657824Y-90193120D01*
X148725069Y-90338575D01*
X148770426Y-90512507D01*
X148792763Y-90711847D01*
X148792001Y-90804900D01*
X148790950Y-90933528D01*
X148768271Y-91129258D01*
G37*
X148768271Y-91129258D02*
X148724838Y-91304440D01*
X148662369Y-91448998D01*
X148582158Y-91559963D01*
X148485497Y-91634368D01*
X148404570Y-91664131D01*
X148287366Y-91678265D01*
X148169014Y-91666791D01*
X148067084Y-91629898D01*
X148009812Y-91588297D01*
X147929435Y-91498962D01*
X147859570Y-91385203D01*
X147807608Y-91257623D01*
X147799055Y-91224613D01*
X147783158Y-91122560D01*
X147772966Y-90994690D01*
X147769552Y-90886292D01*
X147953457Y-90886292D01*
X147967249Y-91077990D01*
X148001911Y-91235419D01*
X148057194Y-91357586D01*
X148132848Y-91443499D01*
X148210225Y-91483013D01*
X148295880Y-91486861D01*
X148379837Y-91454665D01*
X148455722Y-91388932D01*
X148517164Y-91292173D01*
X148529322Y-91264365D01*
X148571444Y-91126724D01*
X148595866Y-90970327D01*
X148603041Y-90804900D01*
X148593424Y-90640167D01*
X148567469Y-90485855D01*
X148525631Y-90351689D01*
X148468363Y-90247393D01*
X148461377Y-90238397D01*
X148385998Y-90170524D01*
X148303994Y-90141469D01*
X148220528Y-90149699D01*
X148140759Y-90193678D01*
X148069850Y-90271875D01*
X148012961Y-90382753D01*
X148007592Y-90397427D01*
X147982783Y-90487819D01*
X147966137Y-90598710D01*
X147955936Y-90740884D01*
X147953457Y-90886292D01*
X147769552Y-90886292D01*
X147768481Y-90852297D01*
X147769703Y-90706675D01*
X147776632Y-90569119D01*
X147789266Y-90450921D01*
X147807608Y-90363376D01*
X147821063Y-90323116D01*
X147888691Y-90180107D01*
X147975243Y-90069506D01*
X148077350Y-89993288D01*
X148191644Y-89953427D01*
X148314756Y-89951899D01*
X148443318Y-89990678D01*
X148462190Y-89999906D01*
X148569820Y-90079208D01*
X148657824Y-90193120D01*
X148725069Y-90338575D01*
X148770426Y-90512507D01*
X148792763Y-90711847D01*
X148792001Y-90804900D01*
X148790950Y-90933528D01*
X148768271Y-91129258D01*
G36*
X147594556Y-91169914D02*
G01*
X147608132Y-91207375D01*
X147616632Y-91276166D01*
X146892334Y-91276166D01*
X146892334Y-91678333D01*
X146701834Y-91678333D01*
X146701834Y-91276166D01*
X146447834Y-91276166D01*
X146447834Y-91085666D01*
X146701834Y-91085666D01*
X146892334Y-91085666D01*
X147127432Y-91085666D01*
X147139978Y-91085661D01*
X147238556Y-91084890D01*
X147302138Y-91082085D01*
X147337361Y-91076213D01*
X147350863Y-91066241D01*
X147349279Y-91051137D01*
X147347654Y-91047443D01*
X147328368Y-91011355D01*
X147292402Y-90948100D01*
X147243974Y-90864761D01*
X147187304Y-90768423D01*
X147126610Y-90666170D01*
X147066110Y-90565087D01*
X147010023Y-90472258D01*
X146962567Y-90394768D01*
X146927961Y-90339701D01*
X146910424Y-90314141D01*
X146910324Y-90314036D01*
X146904600Y-90328174D01*
X146899657Y-90378685D01*
X146895777Y-90459708D01*
X146893242Y-90565383D01*
X146892334Y-90689850D01*
X146892334Y-91085666D01*
X146701834Y-91085666D01*
X146701834Y-89963833D01*
X146883212Y-89963833D01*
X147241422Y-90551208D01*
X147253226Y-90570586D01*
X147351410Y-90733682D01*
X147436598Y-90878675D01*
X147506827Y-91002052D01*
X147541654Y-91066241D01*
X147560134Y-91100303D01*
X147594556Y-91169914D01*
G37*
X147594556Y-91169914D02*
X147608132Y-91207375D01*
X147616632Y-91276166D01*
X146892334Y-91276166D01*
X146892334Y-91678333D01*
X146701834Y-91678333D01*
X146701834Y-91276166D01*
X146447834Y-91276166D01*
X146447834Y-91085666D01*
X146701834Y-91085666D01*
X146892334Y-91085666D01*
X147127432Y-91085666D01*
X147139978Y-91085661D01*
X147238556Y-91084890D01*
X147302138Y-91082085D01*
X147337361Y-91076213D01*
X147350863Y-91066241D01*
X147349279Y-91051137D01*
X147347654Y-91047443D01*
X147328368Y-91011355D01*
X147292402Y-90948100D01*
X147243974Y-90864761D01*
X147187304Y-90768423D01*
X147126610Y-90666170D01*
X147066110Y-90565087D01*
X147010023Y-90472258D01*
X146962567Y-90394768D01*
X146927961Y-90339701D01*
X146910424Y-90314141D01*
X146910324Y-90314036D01*
X146904600Y-90328174D01*
X146899657Y-90378685D01*
X146895777Y-90459708D01*
X146893242Y-90565383D01*
X146892334Y-90689850D01*
X146892334Y-91085666D01*
X146701834Y-91085666D01*
X146701834Y-89963833D01*
X146883212Y-89963833D01*
X147241422Y-90551208D01*
X147253226Y-90570586D01*
X147351410Y-90733682D01*
X147436598Y-90878675D01*
X147506827Y-91002052D01*
X147541654Y-91066241D01*
X147560134Y-91100303D01*
X147594556Y-91169914D01*
G36*
X144315575Y-91448499D02*
G01*
X144265719Y-91551976D01*
X144185162Y-91630286D01*
X144183219Y-91631569D01*
X144091245Y-91669276D01*
X143980967Y-91680678D01*
X143866749Y-91665946D01*
X143762954Y-91625250D01*
X143717626Y-91599890D01*
X143684230Y-91585753D01*
X143668526Y-91591117D01*
X143659944Y-91614921D01*
X143656477Y-91625255D01*
X143630621Y-91650160D01*
X143575802Y-91657166D01*
X143502707Y-91657166D01*
X143508474Y-91265095D01*
X143696167Y-91265095D01*
X143697362Y-91332182D01*
X143703979Y-91382404D01*
X143719807Y-91413093D01*
X143748606Y-91436550D01*
X143824990Y-91474526D01*
X143917596Y-91492828D01*
X144003356Y-91483436D01*
X144074381Y-91448819D01*
X144122781Y-91391447D01*
X144140667Y-91313790D01*
X144136408Y-91280104D01*
X144099427Y-91217009D01*
X144027787Y-91169191D01*
X143925533Y-91138832D01*
X143796709Y-91128118D01*
X143696167Y-91128000D01*
X143696167Y-91265095D01*
X143508474Y-91265095D01*
X143509479Y-91196791D01*
X143510461Y-91132275D01*
X143513048Y-90994277D01*
X143516235Y-90889824D01*
X143520636Y-90812600D01*
X143526865Y-90756291D01*
X143535535Y-90714580D01*
X143547261Y-90681152D01*
X143562656Y-90649691D01*
X143593721Y-90600762D01*
X143679430Y-90519825D01*
X143789112Y-90471960D01*
X143919979Y-90458102D01*
X144069245Y-90479192D01*
X144144342Y-90500173D01*
X144214782Y-90524578D01*
X144259627Y-90545636D01*
X144282742Y-90563244D01*
X144297147Y-90593793D01*
X144288125Y-90643637D01*
X144273320Y-90690631D01*
X144254075Y-90717999D01*
X144221318Y-90718238D01*
X144162284Y-90696732D01*
X144122410Y-90684229D01*
X144037648Y-90668486D01*
X143950919Y-90662333D01*
X143847171Y-90672260D01*
X143771716Y-90705781D01*
X143724811Y-90766343D01*
X143702078Y-90857378D01*
X143699803Y-90876797D01*
X143696809Y-90914860D01*
X143702946Y-90940573D01*
X143724789Y-90957461D01*
X143768911Y-90969046D01*
X143841889Y-90978853D01*
X143950296Y-90990404D01*
X144052350Y-91010159D01*
X144167853Y-91060407D01*
X144255704Y-91134345D01*
X144311575Y-91228027D01*
X144326898Y-91313790D01*
X144331134Y-91337505D01*
X144315575Y-91448499D01*
G37*
X144315575Y-91448499D02*
X144265719Y-91551976D01*
X144185162Y-91630286D01*
X144183219Y-91631569D01*
X144091245Y-91669276D01*
X143980967Y-91680678D01*
X143866749Y-91665946D01*
X143762954Y-91625250D01*
X143717626Y-91599890D01*
X143684230Y-91585753D01*
X143668526Y-91591117D01*
X143659944Y-91614921D01*
X143656477Y-91625255D01*
X143630621Y-91650160D01*
X143575802Y-91657166D01*
X143502707Y-91657166D01*
X143508474Y-91265095D01*
X143696167Y-91265095D01*
X143697362Y-91332182D01*
X143703979Y-91382404D01*
X143719807Y-91413093D01*
X143748606Y-91436550D01*
X143824990Y-91474526D01*
X143917596Y-91492828D01*
X144003356Y-91483436D01*
X144074381Y-91448819D01*
X144122781Y-91391447D01*
X144140667Y-91313790D01*
X144136408Y-91280104D01*
X144099427Y-91217009D01*
X144027787Y-91169191D01*
X143925533Y-91138832D01*
X143796709Y-91128118D01*
X143696167Y-91128000D01*
X143696167Y-91265095D01*
X143508474Y-91265095D01*
X143509479Y-91196791D01*
X143510461Y-91132275D01*
X143513048Y-90994277D01*
X143516235Y-90889824D01*
X143520636Y-90812600D01*
X143526865Y-90756291D01*
X143535535Y-90714580D01*
X143547261Y-90681152D01*
X143562656Y-90649691D01*
X143593721Y-90600762D01*
X143679430Y-90519825D01*
X143789112Y-90471960D01*
X143919979Y-90458102D01*
X144069245Y-90479192D01*
X144144342Y-90500173D01*
X144214782Y-90524578D01*
X144259627Y-90545636D01*
X144282742Y-90563244D01*
X144297147Y-90593793D01*
X144288125Y-90643637D01*
X144273320Y-90690631D01*
X144254075Y-90717999D01*
X144221318Y-90718238D01*
X144162284Y-90696732D01*
X144122410Y-90684229D01*
X144037648Y-90668486D01*
X143950919Y-90662333D01*
X143847171Y-90672260D01*
X143771716Y-90705781D01*
X143724811Y-90766343D01*
X143702078Y-90857378D01*
X143699803Y-90876797D01*
X143696809Y-90914860D01*
X143702946Y-90940573D01*
X143724789Y-90957461D01*
X143768911Y-90969046D01*
X143841889Y-90978853D01*
X143950296Y-90990404D01*
X144052350Y-91010159D01*
X144167853Y-91060407D01*
X144255704Y-91134345D01*
X144311575Y-91228027D01*
X144326898Y-91313790D01*
X144331134Y-91337505D01*
X144315575Y-91448499D01*
G36*
X141435607Y-91159720D02*
G01*
X141407412Y-91323970D01*
X141349861Y-91458113D01*
X141262677Y-91562680D01*
X141145584Y-91638204D01*
X141120110Y-91648493D01*
X141014799Y-91671996D01*
X140893859Y-91677891D01*
X140774935Y-91666224D01*
X140675672Y-91637038D01*
X140640076Y-91620371D01*
X140605367Y-91597637D01*
X140596790Y-91571331D01*
X140606227Y-91528795D01*
X140607626Y-91523966D01*
X140622856Y-91476855D01*
X140633341Y-91453270D01*
X140642687Y-91452804D01*
X140682603Y-91461659D01*
X140741510Y-91479874D01*
X140787348Y-91492743D01*
X140899675Y-91504426D01*
X141005244Y-91490423D01*
X141089794Y-91451880D01*
X141097832Y-91445559D01*
X141146937Y-91390501D01*
X141193120Y-91316385D01*
X141227410Y-91239575D01*
X141240834Y-91176431D01*
X141240834Y-91128000D01*
X140563500Y-91128000D01*
X140560309Y-91048625D01*
X140560815Y-90979833D01*
X140732834Y-90979833D01*
X141257501Y-90979833D01*
X141237883Y-90889875D01*
X141211539Y-90806634D01*
X141153612Y-90716775D01*
X141073546Y-90660948D01*
X140973813Y-90641478D01*
X140933092Y-90646635D01*
X140857460Y-90683892D01*
X140793548Y-90749204D01*
X140749344Y-90833131D01*
X140732834Y-90926236D01*
X140732834Y-90979833D01*
X140560815Y-90979833D01*
X140561336Y-90908904D01*
X140582027Y-90773085D01*
X140625425Y-90663762D01*
X140693205Y-90574962D01*
X140710811Y-90558163D01*
X140815432Y-90488185D01*
X140931207Y-90458962D01*
X141059648Y-90470060D01*
X141119784Y-90487357D01*
X141222379Y-90540902D01*
X141304861Y-90624223D01*
X141374196Y-90743371D01*
X141386702Y-90770553D01*
X141414299Y-90839014D01*
X141430092Y-90901690D01*
X141437214Y-90974597D01*
X141437298Y-90979833D01*
X141438795Y-91073752D01*
X141435607Y-91159720D01*
G37*
X141435607Y-91159720D02*
X141407412Y-91323970D01*
X141349861Y-91458113D01*
X141262677Y-91562680D01*
X141145584Y-91638204D01*
X141120110Y-91648493D01*
X141014799Y-91671996D01*
X140893859Y-91677891D01*
X140774935Y-91666224D01*
X140675672Y-91637038D01*
X140640076Y-91620371D01*
X140605367Y-91597637D01*
X140596790Y-91571331D01*
X140606227Y-91528795D01*
X140607626Y-91523966D01*
X140622856Y-91476855D01*
X140633341Y-91453270D01*
X140642687Y-91452804D01*
X140682603Y-91461659D01*
X140741510Y-91479874D01*
X140787348Y-91492743D01*
X140899675Y-91504426D01*
X141005244Y-91490423D01*
X141089794Y-91451880D01*
X141097832Y-91445559D01*
X141146937Y-91390501D01*
X141193120Y-91316385D01*
X141227410Y-91239575D01*
X141240834Y-91176431D01*
X141240834Y-91128000D01*
X140563500Y-91128000D01*
X140560309Y-91048625D01*
X140560815Y-90979833D01*
X140732834Y-90979833D01*
X141257501Y-90979833D01*
X141237883Y-90889875D01*
X141211539Y-90806634D01*
X141153612Y-90716775D01*
X141073546Y-90660948D01*
X140973813Y-90641478D01*
X140933092Y-90646635D01*
X140857460Y-90683892D01*
X140793548Y-90749204D01*
X140749344Y-90833131D01*
X140732834Y-90926236D01*
X140732834Y-90979833D01*
X140560815Y-90979833D01*
X140561336Y-90908904D01*
X140582027Y-90773085D01*
X140625425Y-90663762D01*
X140693205Y-90574962D01*
X140710811Y-90558163D01*
X140815432Y-90488185D01*
X140931207Y-90458962D01*
X141059648Y-90470060D01*
X141119784Y-90487357D01*
X141222379Y-90540902D01*
X141304861Y-90624223D01*
X141374196Y-90743371D01*
X141386702Y-90770553D01*
X141414299Y-90839014D01*
X141430092Y-90901690D01*
X141437214Y-90974597D01*
X141437298Y-90979833D01*
X141438795Y-91073752D01*
X141435607Y-91159720D01*
G36*
X138346741Y-91241179D02*
G01*
X138329850Y-91328599D01*
X138310108Y-91393935D01*
X138295531Y-91424792D01*
X138234334Y-91516144D01*
X138156853Y-91595465D01*
X138076417Y-91648249D01*
X138058625Y-91655069D01*
X137975098Y-91671800D01*
X137874983Y-91676411D01*
X137777040Y-91668861D01*
X137700029Y-91649107D01*
X137645705Y-91619722D01*
X137552286Y-91535973D01*
X137476621Y-91422176D01*
X137422867Y-91285377D01*
X137395183Y-91132619D01*
X137392959Y-91078710D01*
X137578686Y-91078710D01*
X137587761Y-91200112D01*
X137621412Y-91311879D01*
X137680849Y-91404693D01*
X137758941Y-91467179D01*
X137849648Y-91491814D01*
X137951046Y-91475547D01*
X137955174Y-91474104D01*
X138048744Y-91419313D01*
X138116526Y-91331833D01*
X138157755Y-91213088D01*
X138171667Y-91064500D01*
X138169436Y-91006690D01*
X138146340Y-90879775D01*
X138101208Y-90776769D01*
X138037783Y-90701332D01*
X137959809Y-90657122D01*
X137871030Y-90647798D01*
X137775189Y-90677018D01*
X137764001Y-90683069D01*
X137686846Y-90749851D01*
X137629437Y-90844263D01*
X137592981Y-90956988D01*
X137578686Y-91078710D01*
X137392959Y-91078710D01*
X137391468Y-91042569D01*
X137406955Y-90878970D01*
X137450874Y-90737715D01*
X137520920Y-90622097D01*
X137614786Y-90535410D01*
X137730165Y-90480949D01*
X137864750Y-90462007D01*
X137953568Y-90469663D01*
X138078755Y-90511598D01*
X138183768Y-90587212D01*
X138266310Y-90693237D01*
X138324084Y-90826406D01*
X138354794Y-90983449D01*
X138355410Y-91064500D01*
X138356142Y-91161101D01*
X138346741Y-91241179D01*
G37*
X138346741Y-91241179D02*
X138329850Y-91328599D01*
X138310108Y-91393935D01*
X138295531Y-91424792D01*
X138234334Y-91516144D01*
X138156853Y-91595465D01*
X138076417Y-91648249D01*
X138058625Y-91655069D01*
X137975098Y-91671800D01*
X137874983Y-91676411D01*
X137777040Y-91668861D01*
X137700029Y-91649107D01*
X137645705Y-91619722D01*
X137552286Y-91535973D01*
X137476621Y-91422176D01*
X137422867Y-91285377D01*
X137395183Y-91132619D01*
X137392959Y-91078710D01*
X137578686Y-91078710D01*
X137587761Y-91200112D01*
X137621412Y-91311879D01*
X137680849Y-91404693D01*
X137758941Y-91467179D01*
X137849648Y-91491814D01*
X137951046Y-91475547D01*
X137955174Y-91474104D01*
X138048744Y-91419313D01*
X138116526Y-91331833D01*
X138157755Y-91213088D01*
X138171667Y-91064500D01*
X138169436Y-91006690D01*
X138146340Y-90879775D01*
X138101208Y-90776769D01*
X138037783Y-90701332D01*
X137959809Y-90657122D01*
X137871030Y-90647798D01*
X137775189Y-90677018D01*
X137764001Y-90683069D01*
X137686846Y-90749851D01*
X137629437Y-90844263D01*
X137592981Y-90956988D01*
X137578686Y-91078710D01*
X137392959Y-91078710D01*
X137391468Y-91042569D01*
X137406955Y-90878970D01*
X137450874Y-90737715D01*
X137520920Y-90622097D01*
X137614786Y-90535410D01*
X137730165Y-90480949D01*
X137864750Y-90462007D01*
X137953568Y-90469663D01*
X138078755Y-90511598D01*
X138183768Y-90587212D01*
X138266310Y-90693237D01*
X138324084Y-90826406D01*
X138354794Y-90983449D01*
X138355410Y-91064500D01*
X138356142Y-91161101D01*
X138346741Y-91241179D01*
G36*
X137092167Y-90471833D02*
G01*
X137155667Y-90471833D01*
X137179623Y-90472371D01*
X137206698Y-90480771D01*
X137217326Y-90508512D01*
X137219167Y-90567083D01*
X137218824Y-90602050D01*
X137213339Y-90643194D01*
X137195207Y-90659461D01*
X137156925Y-90662333D01*
X137094683Y-90662333D01*
X137088133Y-91073600D01*
X137085710Y-91200309D01*
X137081104Y-91328051D01*
X137073148Y-91424198D01*
X137060077Y-91494756D01*
X137040124Y-91545733D01*
X137011526Y-91583138D01*
X136972516Y-91612977D01*
X136921329Y-91641258D01*
X136843951Y-91670570D01*
X136762389Y-91675538D01*
X136662521Y-91655771D01*
X136621134Y-91642140D01*
X136593947Y-91621790D01*
X136593729Y-91592389D01*
X136600667Y-91567837D01*
X136616795Y-91510729D01*
X136621726Y-91496851D01*
X136642819Y-91479957D01*
X136687271Y-91487050D01*
X136724365Y-91492317D01*
X136792655Y-91482595D01*
X136852797Y-91454576D01*
X136887916Y-91414372D01*
X136891286Y-91394643D01*
X136895417Y-91336459D01*
X136898707Y-91249471D01*
X136900882Y-91141516D01*
X136901667Y-91020435D01*
X136901667Y-90662333D01*
X136624066Y-90662333D01*
X136630575Y-90572375D01*
X136637084Y-90482416D01*
X136769375Y-90476114D01*
X136901667Y-90469813D01*
X136901667Y-90133166D01*
X137092167Y-90133166D01*
X137092167Y-90471833D01*
G37*
X137092167Y-90471833D02*
X137155667Y-90471833D01*
X137179623Y-90472371D01*
X137206698Y-90480771D01*
X137217326Y-90508512D01*
X137219167Y-90567083D01*
X137218824Y-90602050D01*
X137213339Y-90643194D01*
X137195207Y-90659461D01*
X137156925Y-90662333D01*
X137094683Y-90662333D01*
X137088133Y-91073600D01*
X137085710Y-91200309D01*
X137081104Y-91328051D01*
X137073148Y-91424198D01*
X137060077Y-91494756D01*
X137040124Y-91545733D01*
X137011526Y-91583138D01*
X136972516Y-91612977D01*
X136921329Y-91641258D01*
X136843951Y-91670570D01*
X136762389Y-91675538D01*
X136662521Y-91655771D01*
X136621134Y-91642140D01*
X136593947Y-91621790D01*
X136593729Y-91592389D01*
X136600667Y-91567837D01*
X136616795Y-91510729D01*
X136621726Y-91496851D01*
X136642819Y-91479957D01*
X136687271Y-91487050D01*
X136724365Y-91492317D01*
X136792655Y-91482595D01*
X136852797Y-91454576D01*
X136887916Y-91414372D01*
X136891286Y-91394643D01*
X136895417Y-91336459D01*
X136898707Y-91249471D01*
X136900882Y-91141516D01*
X136901667Y-91020435D01*
X136901667Y-90662333D01*
X136624066Y-90662333D01*
X136630575Y-90572375D01*
X136637084Y-90482416D01*
X136769375Y-90476114D01*
X136901667Y-90469813D01*
X136901667Y-90133166D01*
X137092167Y-90133166D01*
X137092167Y-90471833D01*
G36*
X134828211Y-91227133D02*
G01*
X134796082Y-91361220D01*
X134742151Y-91481628D01*
X134665731Y-91574476D01*
X134562750Y-91646189D01*
X134523288Y-91662135D01*
X134450260Y-91673712D01*
X134347126Y-91673710D01*
X134214879Y-91655188D01*
X134108772Y-91608962D01*
X134022653Y-91530303D01*
X133949183Y-91414426D01*
X133940732Y-91397766D01*
X133915197Y-91342724D01*
X133899006Y-91292837D01*
X133890051Y-91236237D01*
X133886224Y-91161052D01*
X133885735Y-91096976D01*
X134061472Y-91096976D01*
X134072373Y-91210886D01*
X134099587Y-91314007D01*
X134141712Y-91396414D01*
X134197346Y-91448182D01*
X134213810Y-91456581D01*
X134318103Y-91489977D01*
X134412376Y-91485455D01*
X134414125Y-91484969D01*
X134501678Y-91439351D01*
X134572492Y-91360685D01*
X134623147Y-91255994D01*
X134650223Y-91132304D01*
X134650301Y-90996640D01*
X134642340Y-90940253D01*
X134605808Y-90817248D01*
X134547438Y-90726733D01*
X134468959Y-90670853D01*
X134372097Y-90651750D01*
X134345276Y-90652787D01*
X134252249Y-90677732D01*
X134175607Y-90738218D01*
X134111091Y-90837274D01*
X134094210Y-90876492D01*
X134068283Y-90982203D01*
X134061472Y-91096976D01*
X133885735Y-91096976D01*
X133885417Y-91055413D01*
X133885427Y-91040024D01*
X133886584Y-90938240D01*
X133891028Y-90865908D01*
X133900682Y-90811592D01*
X133917470Y-90763858D01*
X133943317Y-90711270D01*
X133989423Y-90638169D01*
X134085145Y-90542011D01*
X134198581Y-90481303D01*
X134324148Y-90457632D01*
X134456260Y-90472584D01*
X134589331Y-90527746D01*
X134642660Y-90565996D01*
X134723523Y-90660038D01*
X134785243Y-90781176D01*
X134825086Y-90921407D01*
X134832661Y-90996640D01*
X134840320Y-91072727D01*
X134828211Y-91227133D01*
G37*
X134828211Y-91227133D02*
X134796082Y-91361220D01*
X134742151Y-91481628D01*
X134665731Y-91574476D01*
X134562750Y-91646189D01*
X134523288Y-91662135D01*
X134450260Y-91673712D01*
X134347126Y-91673710D01*
X134214879Y-91655188D01*
X134108772Y-91608962D01*
X134022653Y-91530303D01*
X133949183Y-91414426D01*
X133940732Y-91397766D01*
X133915197Y-91342724D01*
X133899006Y-91292837D01*
X133890051Y-91236237D01*
X133886224Y-91161052D01*
X133885735Y-91096976D01*
X134061472Y-91096976D01*
X134072373Y-91210886D01*
X134099587Y-91314007D01*
X134141712Y-91396414D01*
X134197346Y-91448182D01*
X134213810Y-91456581D01*
X134318103Y-91489977D01*
X134412376Y-91485455D01*
X134414125Y-91484969D01*
X134501678Y-91439351D01*
X134572492Y-91360685D01*
X134623147Y-91255994D01*
X134650223Y-91132304D01*
X134650301Y-90996640D01*
X134642340Y-90940253D01*
X134605808Y-90817248D01*
X134547438Y-90726733D01*
X134468959Y-90670853D01*
X134372097Y-90651750D01*
X134345276Y-90652787D01*
X134252249Y-90677732D01*
X134175607Y-90738218D01*
X134111091Y-90837274D01*
X134094210Y-90876492D01*
X134068283Y-90982203D01*
X134061472Y-91096976D01*
X133885735Y-91096976D01*
X133885417Y-91055413D01*
X133885427Y-91040024D01*
X133886584Y-90938240D01*
X133891028Y-90865908D01*
X133900682Y-90811592D01*
X133917470Y-90763858D01*
X133943317Y-90711270D01*
X133989423Y-90638169D01*
X134085145Y-90542011D01*
X134198581Y-90481303D01*
X134324148Y-90457632D01*
X134456260Y-90472584D01*
X134589331Y-90527746D01*
X134642660Y-90565996D01*
X134723523Y-90660038D01*
X134785243Y-90781176D01*
X134825086Y-90921407D01*
X134832661Y-90996640D01*
X134840320Y-91072727D01*
X134828211Y-91227133D01*
G36*
X132964667Y-91399713D02*
G01*
X133038089Y-91445091D01*
X133076733Y-91465389D01*
X133174233Y-91490232D01*
X133269659Y-91482498D01*
X133352840Y-91444039D01*
X133413604Y-91376708D01*
X133420875Y-91356660D01*
X133430534Y-91297910D01*
X133438158Y-91203847D01*
X133443918Y-91072140D01*
X133447980Y-90900458D01*
X133455263Y-90471833D01*
X133620834Y-90471833D01*
X133620834Y-90933015D01*
X133620769Y-91027218D01*
X133620130Y-91157718D01*
X133618353Y-91256030D01*
X133614889Y-91328545D01*
X133609191Y-91381655D01*
X133600710Y-91421752D01*
X133588899Y-91455226D01*
X133573209Y-91488469D01*
X133558422Y-91514505D01*
X133507767Y-91581369D01*
X133453662Y-91630537D01*
X133380895Y-91663747D01*
X133272071Y-91679817D01*
X133155015Y-91668053D01*
X133042779Y-91628519D01*
X132996028Y-91605446D01*
X132959609Y-91591868D01*
X132941797Y-91596371D01*
X132931932Y-91617935D01*
X132930832Y-91621114D01*
X132903930Y-91648837D01*
X132846489Y-91657166D01*
X132773498Y-91657166D01*
X132784750Y-90482416D01*
X132874709Y-90475907D01*
X132964667Y-90469399D01*
X132964667Y-91399713D01*
G37*
X132964667Y-91399713D02*
X133038089Y-91445091D01*
X133076733Y-91465389D01*
X133174233Y-91490232D01*
X133269659Y-91482498D01*
X133352840Y-91444039D01*
X133413604Y-91376708D01*
X133420875Y-91356660D01*
X133430534Y-91297910D01*
X133438158Y-91203847D01*
X133443918Y-91072140D01*
X133447980Y-90900458D01*
X133455263Y-90471833D01*
X133620834Y-90471833D01*
X133620834Y-90933015D01*
X133620769Y-91027218D01*
X133620130Y-91157718D01*
X133618353Y-91256030D01*
X133614889Y-91328545D01*
X133609191Y-91381655D01*
X133600710Y-91421752D01*
X133588899Y-91455226D01*
X133573209Y-91488469D01*
X133558422Y-91514505D01*
X133507767Y-91581369D01*
X133453662Y-91630537D01*
X133380895Y-91663747D01*
X133272071Y-91679817D01*
X133155015Y-91668053D01*
X133042779Y-91628519D01*
X132996028Y-91605446D01*
X132959609Y-91591868D01*
X132941797Y-91596371D01*
X132931932Y-91617935D01*
X132930832Y-91621114D01*
X132903930Y-91648837D01*
X132846489Y-91657166D01*
X132773498Y-91657166D01*
X132784750Y-90482416D01*
X132874709Y-90475907D01*
X132964667Y-90469399D01*
X132964667Y-91399713D01*
G36*
X131325901Y-91317348D02*
G01*
X131276070Y-91452928D01*
X131202976Y-91560428D01*
X131108458Y-91635123D01*
X131082381Y-91647340D01*
X130983121Y-91671843D01*
X130872476Y-91674551D01*
X130766721Y-91656143D01*
X130682132Y-91617300D01*
X130612462Y-91567690D01*
X130600762Y-91612428D01*
X130596658Y-91624707D01*
X130571070Y-91650184D01*
X130517448Y-91657166D01*
X130445834Y-91657166D01*
X130445834Y-91087060D01*
X130636334Y-91087060D01*
X130636381Y-91156636D01*
X130637118Y-91258625D01*
X130639560Y-91329031D01*
X130644720Y-91374872D01*
X130653613Y-91403163D01*
X130667253Y-91420920D01*
X130686653Y-91435161D01*
X130776314Y-91478478D01*
X130880897Y-91492425D01*
X130978105Y-91467796D01*
X131061632Y-91406391D01*
X131125169Y-91310010D01*
X131139897Y-91271171D01*
X131162439Y-91157795D01*
X131166117Y-91031779D01*
X131151181Y-90910090D01*
X131117875Y-90809693D01*
X131062316Y-90729686D01*
X130981640Y-90670741D01*
X130889619Y-90648082D01*
X130793481Y-90663296D01*
X130700457Y-90717973D01*
X130636334Y-90771929D01*
X130636334Y-91087060D01*
X130445834Y-91087060D01*
X130445834Y-89858000D01*
X130636334Y-89858000D01*
X130636334Y-90536420D01*
X130705125Y-90499919D01*
X130709525Y-90497665D01*
X130791982Y-90472624D01*
X130892237Y-90464148D01*
X130991427Y-90472367D01*
X131070690Y-90497410D01*
X131087651Y-90506799D01*
X131195888Y-90590479D01*
X131274974Y-90701054D01*
X131326181Y-90840866D01*
X131350785Y-91012255D01*
X131350764Y-91031779D01*
X131350632Y-91158414D01*
X131325901Y-91317348D01*
G37*
X131325901Y-91317348D02*
X131276070Y-91452928D01*
X131202976Y-91560428D01*
X131108458Y-91635123D01*
X131082381Y-91647340D01*
X130983121Y-91671843D01*
X130872476Y-91674551D01*
X130766721Y-91656143D01*
X130682132Y-91617300D01*
X130612462Y-91567690D01*
X130600762Y-91612428D01*
X130596658Y-91624707D01*
X130571070Y-91650184D01*
X130517448Y-91657166D01*
X130445834Y-91657166D01*
X130445834Y-91087060D01*
X130636334Y-91087060D01*
X130636381Y-91156636D01*
X130637118Y-91258625D01*
X130639560Y-91329031D01*
X130644720Y-91374872D01*
X130653613Y-91403163D01*
X130667253Y-91420920D01*
X130686653Y-91435161D01*
X130776314Y-91478478D01*
X130880897Y-91492425D01*
X130978105Y-91467796D01*
X131061632Y-91406391D01*
X131125169Y-91310010D01*
X131139897Y-91271171D01*
X131162439Y-91157795D01*
X131166117Y-91031779D01*
X131151181Y-90910090D01*
X131117875Y-90809693D01*
X131062316Y-90729686D01*
X130981640Y-90670741D01*
X130889619Y-90648082D01*
X130793481Y-90663296D01*
X130700457Y-90717973D01*
X130636334Y-90771929D01*
X130636334Y-91087060D01*
X130445834Y-91087060D01*
X130445834Y-89858000D01*
X130636334Y-89858000D01*
X130636334Y-90536420D01*
X130705125Y-90499919D01*
X130709525Y-90497665D01*
X130791982Y-90472624D01*
X130892237Y-90464148D01*
X130991427Y-90472367D01*
X131070690Y-90497410D01*
X131087651Y-90506799D01*
X131195888Y-90590479D01*
X131274974Y-90701054D01*
X131326181Y-90840866D01*
X131350785Y-91012255D01*
X131350764Y-91031779D01*
X131350632Y-91158414D01*
X131325901Y-91317348D01*
G36*
X145675250Y-89968745D02*
G01*
X145781084Y-89974416D01*
X145786618Y-90815791D01*
X145792153Y-91657166D01*
X145601754Y-91657166D01*
X145596169Y-90982450D01*
X145590584Y-90307733D01*
X145199787Y-90982450D01*
X144808991Y-91657166D01*
X144606334Y-91657166D01*
X144606334Y-89963833D01*
X144775089Y-89963833D01*
X144780670Y-90648253D01*
X144786250Y-91332674D01*
X145177834Y-90647874D01*
X145569417Y-89963074D01*
X145675250Y-89968745D01*
G37*
X145675250Y-89968745D02*
X145781084Y-89974416D01*
X145786618Y-90815791D01*
X145792153Y-91657166D01*
X145601754Y-91657166D01*
X145596169Y-90982450D01*
X145590584Y-90307733D01*
X145199787Y-90982450D01*
X144808991Y-91657166D01*
X144606334Y-91657166D01*
X144606334Y-89963833D01*
X144775089Y-89963833D01*
X144780670Y-90648253D01*
X144786250Y-91332674D01*
X145177834Y-90647874D01*
X145569417Y-89963074D01*
X145675250Y-89968745D01*
G36*
X142856535Y-90480474D02*
G01*
X142903029Y-90495986D01*
X142963596Y-90522825D01*
X142998782Y-90547260D01*
X143014496Y-90563447D01*
X143032674Y-90562167D01*
X143055144Y-90526307D01*
X143089604Y-90485234D01*
X143146510Y-90471833D01*
X143209334Y-90471833D01*
X143209334Y-91657166D01*
X143018834Y-91657166D01*
X143018834Y-90746377D01*
X142950042Y-90704417D01*
X142866816Y-90664072D01*
X142767561Y-90648318D01*
X142673287Y-90672577D01*
X142657827Y-90680340D01*
X142616646Y-90708132D01*
X142585367Y-90745450D01*
X142562689Y-90797754D01*
X142547313Y-90870504D01*
X142537940Y-90969157D01*
X142533269Y-91099173D01*
X142532000Y-91266011D01*
X142532000Y-91657166D01*
X142362667Y-91657166D01*
X142362667Y-90750452D01*
X142293875Y-90708170D01*
X142194304Y-90662584D01*
X142093851Y-90648848D01*
X142005763Y-90671401D01*
X141979641Y-90685949D01*
X141944337Y-90712681D01*
X141918014Y-90747553D01*
X141899379Y-90796260D01*
X141887137Y-90864498D01*
X141879995Y-90957965D01*
X141876658Y-91082355D01*
X141875834Y-91243365D01*
X141875834Y-91657166D01*
X141685334Y-91657166D01*
X141685334Y-91230997D01*
X141685507Y-91168379D01*
X141687929Y-91005509D01*
X141693062Y-90874081D01*
X141700729Y-90777707D01*
X141710749Y-90719999D01*
X141738280Y-90653798D01*
X141808812Y-90561731D01*
X141903040Y-90495264D01*
X142012050Y-90459937D01*
X142126928Y-90461293D01*
X142173398Y-90472923D01*
X142257306Y-90505074D01*
X142332535Y-90545719D01*
X142382608Y-90586772D01*
X142391792Y-90596641D01*
X142412229Y-90604333D01*
X142441416Y-90589464D01*
X142489858Y-90548261D01*
X142521148Y-90522458D01*
X142618887Y-90471562D01*
X142728771Y-90457921D01*
X142856535Y-90480474D01*
G37*
X142856535Y-90480474D02*
X142903029Y-90495986D01*
X142963596Y-90522825D01*
X142998782Y-90547260D01*
X143014496Y-90563447D01*
X143032674Y-90562167D01*
X143055144Y-90526307D01*
X143089604Y-90485234D01*
X143146510Y-90471833D01*
X143209334Y-90471833D01*
X143209334Y-91657166D01*
X143018834Y-91657166D01*
X143018834Y-90746377D01*
X142950042Y-90704417D01*
X142866816Y-90664072D01*
X142767561Y-90648318D01*
X142673287Y-90672577D01*
X142657827Y-90680340D01*
X142616646Y-90708132D01*
X142585367Y-90745450D01*
X142562689Y-90797754D01*
X142547313Y-90870504D01*
X142537940Y-90969157D01*
X142533269Y-91099173D01*
X142532000Y-91266011D01*
X142532000Y-91657166D01*
X142362667Y-91657166D01*
X142362667Y-90750452D01*
X142293875Y-90708170D01*
X142194304Y-90662584D01*
X142093851Y-90648848D01*
X142005763Y-90671401D01*
X141979641Y-90685949D01*
X141944337Y-90712681D01*
X141918014Y-90747553D01*
X141899379Y-90796260D01*
X141887137Y-90864498D01*
X141879995Y-90957965D01*
X141876658Y-91082355D01*
X141875834Y-91243365D01*
X141875834Y-91657166D01*
X141685334Y-91657166D01*
X141685334Y-91230997D01*
X141685507Y-91168379D01*
X141687929Y-91005509D01*
X141693062Y-90874081D01*
X141700729Y-90777707D01*
X141710749Y-90719999D01*
X141738280Y-90653798D01*
X141808812Y-90561731D01*
X141903040Y-90495264D01*
X142012050Y-90459937D01*
X142126928Y-90461293D01*
X142173398Y-90472923D01*
X142257306Y-90505074D01*
X142332535Y-90545719D01*
X142382608Y-90586772D01*
X142391792Y-90596641D01*
X142412229Y-90604333D01*
X142441416Y-90589464D01*
X142489858Y-90548261D01*
X142521148Y-90522458D01*
X142618887Y-90471562D01*
X142728771Y-90457921D01*
X142856535Y-90480474D01*
G36*
X139822667Y-91657166D02*
G01*
X139632762Y-91657166D01*
X139621584Y-90326408D01*
X139238405Y-90986495D01*
X138855226Y-91646583D01*
X138746280Y-91652981D01*
X138637334Y-91659378D01*
X138637334Y-89963833D01*
X138827247Y-89963833D01*
X138838417Y-91312451D01*
X139223006Y-90643433D01*
X139607594Y-89974416D01*
X139715131Y-89968018D01*
X139822667Y-89961621D01*
X139822667Y-91657166D01*
G37*
X139822667Y-91657166D02*
X139632762Y-91657166D01*
X139621584Y-90326408D01*
X139238405Y-90986495D01*
X138855226Y-91646583D01*
X138746280Y-91652981D01*
X138637334Y-91659378D01*
X138637334Y-89963833D01*
X138827247Y-89963833D01*
X138838417Y-91312451D01*
X139223006Y-90643433D01*
X139607594Y-89974416D01*
X139715131Y-89968018D01*
X139822667Y-89961621D01*
X139822667Y-91657166D01*
G36*
X135467625Y-89968704D02*
G01*
X135917417Y-89974416D01*
X135922952Y-90815791D01*
X135928486Y-91657166D01*
X135737500Y-91657166D01*
X135737500Y-90896241D01*
X135070750Y-90884583D01*
X135070750Y-90694083D01*
X135737500Y-90682425D01*
X135737500Y-90154333D01*
X135017834Y-90154333D01*
X135017834Y-89962991D01*
X135467625Y-89968704D01*
G37*
X135467625Y-89968704D02*
X135917417Y-89974416D01*
X135922952Y-90815791D01*
X135928486Y-91657166D01*
X135737500Y-91657166D01*
X135737500Y-90896241D01*
X135070750Y-90884583D01*
X135070750Y-90694083D01*
X135737500Y-90682425D01*
X135737500Y-90154333D01*
X135017834Y-90154333D01*
X135017834Y-89962991D01*
X135467625Y-89968704D01*
G36*
X132088716Y-90473773D02*
G01*
X132216858Y-90524696D01*
X132305132Y-90572803D01*
X132317803Y-90522318D01*
X132320477Y-90512943D01*
X132344118Y-90480553D01*
X132393570Y-90471833D01*
X132456667Y-90471833D01*
X132456667Y-91657166D01*
X132287334Y-91657166D01*
X132287334Y-90750452D01*
X132209867Y-90702575D01*
X132134079Y-90668010D01*
X132037382Y-90651698D01*
X131947250Y-90663399D01*
X131876287Y-90703094D01*
X131850881Y-90730260D01*
X131824914Y-90771448D01*
X131805912Y-90824901D01*
X131792871Y-90896624D01*
X131784784Y-90992621D01*
X131780646Y-91118897D01*
X131779452Y-91281458D01*
X131779334Y-91657166D01*
X131610000Y-91657166D01*
X131610465Y-91207375D01*
X131610820Y-91085895D01*
X131612178Y-90960418D01*
X131614985Y-90865992D01*
X131619712Y-90796241D01*
X131626833Y-90744785D01*
X131636818Y-90705248D01*
X131650140Y-90671252D01*
X131674634Y-90625392D01*
X131751945Y-90537147D01*
X131850541Y-90481477D01*
X131964704Y-90459859D01*
X132088716Y-90473773D01*
G37*
X132088716Y-90473773D02*
X132216858Y-90524696D01*
X132305132Y-90572803D01*
X132317803Y-90522318D01*
X132320477Y-90512943D01*
X132344118Y-90480553D01*
X132393570Y-90471833D01*
X132456667Y-90471833D01*
X132456667Y-91657166D01*
X132287334Y-91657166D01*
X132287334Y-90750452D01*
X132209867Y-90702575D01*
X132134079Y-90668010D01*
X132037382Y-90651698D01*
X131947250Y-90663399D01*
X131876287Y-90703094D01*
X131850881Y-90730260D01*
X131824914Y-90771448D01*
X131805912Y-90824901D01*
X131792871Y-90896624D01*
X131784784Y-90992621D01*
X131780646Y-91118897D01*
X131779452Y-91281458D01*
X131779334Y-91657166D01*
X131610000Y-91657166D01*
X131610465Y-91207375D01*
X131610820Y-91085895D01*
X131612178Y-90960418D01*
X131614985Y-90865992D01*
X131619712Y-90796241D01*
X131626833Y-90744785D01*
X131636818Y-90705248D01*
X131650140Y-90671252D01*
X131674634Y-90625392D01*
X131751945Y-90537147D01*
X131850541Y-90481477D01*
X131964704Y-90459859D01*
X132088716Y-90473773D01*
G36*
X150871667Y-87345908D02*
G01*
X150871841Y-87585367D01*
X150872622Y-87796943D01*
X150874369Y-87973425D01*
X150877442Y-88118510D01*
X150882201Y-88235891D01*
X150889004Y-88329263D01*
X150898210Y-88402320D01*
X150910180Y-88458756D01*
X150925273Y-88502267D01*
X150943847Y-88536547D01*
X150966262Y-88565290D01*
X150992878Y-88592191D01*
X151014894Y-88611178D01*
X151111188Y-88664677D01*
X151219189Y-88688488D01*
X151329485Y-88683889D01*
X151432667Y-88652159D01*
X151519323Y-88594576D01*
X151580043Y-88512418D01*
X151584236Y-88503294D01*
X151600177Y-88461365D01*
X151613538Y-88410896D01*
X151624539Y-88348134D01*
X151633400Y-88269324D01*
X151640339Y-88170711D01*
X151645577Y-88048542D01*
X151649333Y-87899061D01*
X151651827Y-87718515D01*
X151653277Y-87503149D01*
X151653904Y-87249208D01*
X151654834Y-86365500D01*
X151931834Y-86365500D01*
X151925626Y-87429125D01*
X151925347Y-87476762D01*
X151923941Y-87708752D01*
X151922558Y-87902906D01*
X151921023Y-88063014D01*
X151919157Y-88192867D01*
X151916786Y-88296256D01*
X151913731Y-88376972D01*
X151909816Y-88438806D01*
X151904864Y-88485548D01*
X151898700Y-88520989D01*
X151891144Y-88548920D01*
X151882023Y-88573133D01*
X151871157Y-88597418D01*
X151805343Y-88716794D01*
X151704627Y-88836049D01*
X151583502Y-88919466D01*
X151440061Y-88968688D01*
X151417546Y-88972804D01*
X151303841Y-88980993D01*
X151177423Y-88974684D01*
X151056272Y-88955504D01*
X150958368Y-88925081D01*
X150885990Y-88887391D01*
X150777485Y-88799438D01*
X150688024Y-88678254D01*
X150686940Y-88676412D01*
X150662377Y-88633093D01*
X150641724Y-88590984D01*
X150624641Y-88546128D01*
X150610788Y-88494566D01*
X150599827Y-88432339D01*
X150591419Y-88355489D01*
X150585224Y-88260057D01*
X150580904Y-88142085D01*
X150578119Y-87997615D01*
X150576530Y-87822687D01*
X150575798Y-87613343D01*
X150575585Y-87365625D01*
X150575334Y-86365500D01*
X150871667Y-86365500D01*
X150871667Y-87345908D01*
G37*
X150871667Y-87345908D02*
X150871841Y-87585367D01*
X150872622Y-87796943D01*
X150874369Y-87973425D01*
X150877442Y-88118510D01*
X150882201Y-88235891D01*
X150889004Y-88329263D01*
X150898210Y-88402320D01*
X150910180Y-88458756D01*
X150925273Y-88502267D01*
X150943847Y-88536547D01*
X150966262Y-88565290D01*
X150992878Y-88592191D01*
X151014894Y-88611178D01*
X151111188Y-88664677D01*
X151219189Y-88688488D01*
X151329485Y-88683889D01*
X151432667Y-88652159D01*
X151519323Y-88594576D01*
X151580043Y-88512418D01*
X151584236Y-88503294D01*
X151600177Y-88461365D01*
X151613538Y-88410896D01*
X151624539Y-88348134D01*
X151633400Y-88269324D01*
X151640339Y-88170711D01*
X151645577Y-88048542D01*
X151649333Y-87899061D01*
X151651827Y-87718515D01*
X151653277Y-87503149D01*
X151653904Y-87249208D01*
X151654834Y-86365500D01*
X151931834Y-86365500D01*
X151925626Y-87429125D01*
X151925347Y-87476762D01*
X151923941Y-87708752D01*
X151922558Y-87902906D01*
X151921023Y-88063014D01*
X151919157Y-88192867D01*
X151916786Y-88296256D01*
X151913731Y-88376972D01*
X151909816Y-88438806D01*
X151904864Y-88485548D01*
X151898700Y-88520989D01*
X151891144Y-88548920D01*
X151882023Y-88573133D01*
X151871157Y-88597418D01*
X151805343Y-88716794D01*
X151704627Y-88836049D01*
X151583502Y-88919466D01*
X151440061Y-88968688D01*
X151417546Y-88972804D01*
X151303841Y-88980993D01*
X151177423Y-88974684D01*
X151056272Y-88955504D01*
X150958368Y-88925081D01*
X150885990Y-88887391D01*
X150777485Y-88799438D01*
X150688024Y-88678254D01*
X150686940Y-88676412D01*
X150662377Y-88633093D01*
X150641724Y-88590984D01*
X150624641Y-88546128D01*
X150610788Y-88494566D01*
X150599827Y-88432339D01*
X150591419Y-88355489D01*
X150585224Y-88260057D01*
X150580904Y-88142085D01*
X150578119Y-87997615D01*
X150576530Y-87822687D01*
X150575798Y-87613343D01*
X150575585Y-87365625D01*
X150575334Y-86365500D01*
X150871667Y-86365500D01*
X150871667Y-87345908D01*
G36*
X148628000Y-87021666D02*
G01*
X148882000Y-87021666D01*
X148882000Y-87296833D01*
X148628000Y-87296833D01*
X148628000Y-87930791D01*
X148627397Y-88091619D01*
X148625312Y-88260728D01*
X148621894Y-88408437D01*
X148617303Y-88529516D01*
X148611700Y-88618731D01*
X148605246Y-88670851D01*
X148568906Y-88783278D01*
X148503619Y-88885429D01*
X148415912Y-88954204D01*
X148393394Y-88964854D01*
X148323757Y-88982560D01*
X148237633Y-88979393D01*
X148201581Y-88974445D01*
X148145475Y-88964462D01*
X148115925Y-88955897D01*
X148107782Y-88934423D01*
X148101313Y-88881576D01*
X148098834Y-88810122D01*
X148098834Y-88674909D01*
X148185722Y-88678374D01*
X148197049Y-88678821D01*
X148233740Y-88679079D01*
X148263073Y-88674031D01*
X148285873Y-88659564D01*
X148302961Y-88631563D01*
X148315162Y-88585915D01*
X148323299Y-88518504D01*
X148328195Y-88425216D01*
X148330673Y-88301938D01*
X148331556Y-88144556D01*
X148331667Y-87948954D01*
X148331667Y-87296833D01*
X148098834Y-87296833D01*
X148098834Y-87021666D01*
X148331667Y-87021666D01*
X148331667Y-86556000D01*
X148628000Y-86556000D01*
X148628000Y-87021666D01*
G37*
X148628000Y-87021666D02*
X148882000Y-87021666D01*
X148882000Y-87296833D01*
X148628000Y-87296833D01*
X148628000Y-87930791D01*
X148627397Y-88091619D01*
X148625312Y-88260728D01*
X148621894Y-88408437D01*
X148617303Y-88529516D01*
X148611700Y-88618731D01*
X148605246Y-88670851D01*
X148568906Y-88783278D01*
X148503619Y-88885429D01*
X148415912Y-88954204D01*
X148393394Y-88964854D01*
X148323757Y-88982560D01*
X148237633Y-88979393D01*
X148201581Y-88974445D01*
X148145475Y-88964462D01*
X148115925Y-88955897D01*
X148107782Y-88934423D01*
X148101313Y-88881576D01*
X148098834Y-88810122D01*
X148098834Y-88674909D01*
X148185722Y-88678374D01*
X148197049Y-88678821D01*
X148233740Y-88679079D01*
X148263073Y-88674031D01*
X148285873Y-88659564D01*
X148302961Y-88631563D01*
X148315162Y-88585915D01*
X148323299Y-88518504D01*
X148328195Y-88425216D01*
X148330673Y-88301938D01*
X148331556Y-88144556D01*
X148331667Y-87948954D01*
X148331667Y-87296833D01*
X148098834Y-87296833D01*
X148098834Y-87021666D01*
X148331667Y-87021666D01*
X148331667Y-86556000D01*
X148628000Y-86556000D01*
X148628000Y-87021666D01*
G36*
X146998167Y-87021666D02*
G01*
X147252167Y-87021666D01*
X147252167Y-87296833D01*
X146998167Y-87296833D01*
X146998049Y-87968875D01*
X146997996Y-88015578D01*
X146996962Y-88190966D01*
X146994722Y-88349891D01*
X146991424Y-88487180D01*
X146987216Y-88597658D01*
X146982246Y-88676152D01*
X146976661Y-88717489D01*
X146971300Y-88735427D01*
X146924614Y-88837532D01*
X146860303Y-88916393D01*
X146785768Y-88962513D01*
X146708254Y-88983689D01*
X146635056Y-88986005D01*
X146548375Y-88967887D01*
X146469000Y-88945843D01*
X146469000Y-88667127D01*
X146542499Y-88679054D01*
X146606926Y-88680014D01*
X146664208Y-88651968D01*
X146672955Y-88644684D01*
X146684693Y-88632094D01*
X146693919Y-88614328D01*
X146700994Y-88586741D01*
X146706281Y-88544688D01*
X146710142Y-88483526D01*
X146712940Y-88398610D01*
X146715037Y-88285295D01*
X146716794Y-88138938D01*
X146718575Y-87954893D01*
X146724733Y-87296833D01*
X146469000Y-87296833D01*
X146469000Y-87021666D01*
X146723000Y-87021666D01*
X146723000Y-86556000D01*
X146998167Y-86556000D01*
X146998167Y-87021666D01*
G37*
X146998167Y-87021666D02*
X147252167Y-87021666D01*
X147252167Y-87296833D01*
X146998167Y-87296833D01*
X146998049Y-87968875D01*
X146997996Y-88015578D01*
X146996962Y-88190966D01*
X146994722Y-88349891D01*
X146991424Y-88487180D01*
X146987216Y-88597658D01*
X146982246Y-88676152D01*
X146976661Y-88717489D01*
X146971300Y-88735427D01*
X146924614Y-88837532D01*
X146860303Y-88916393D01*
X146785768Y-88962513D01*
X146708254Y-88983689D01*
X146635056Y-88986005D01*
X146548375Y-88967887D01*
X146469000Y-88945843D01*
X146469000Y-88667127D01*
X146542499Y-88679054D01*
X146606926Y-88680014D01*
X146664208Y-88651968D01*
X146672955Y-88644684D01*
X146684693Y-88632094D01*
X146693919Y-88614328D01*
X146700994Y-88586741D01*
X146706281Y-88544688D01*
X146710142Y-88483526D01*
X146712940Y-88398610D01*
X146715037Y-88285295D01*
X146716794Y-88138938D01*
X146718575Y-87954893D01*
X146724733Y-87296833D01*
X146469000Y-87296833D01*
X146469000Y-87021666D01*
X146723000Y-87021666D01*
X146723000Y-86556000D01*
X146998167Y-86556000D01*
X146998167Y-87021666D01*
G36*
X145516614Y-87986786D02*
G01*
X145515090Y-88133788D01*
X145509081Y-88270884D01*
X145498613Y-88387341D01*
X145483714Y-88472427D01*
X145470676Y-88518626D01*
X145403921Y-88680691D01*
X145313126Y-88808153D01*
X145197880Y-88901483D01*
X145057770Y-88961154D01*
X144959189Y-88978352D01*
X144829475Y-88979542D01*
X144701797Y-88961674D01*
X144594681Y-88926149D01*
X144549966Y-88900419D01*
X144485729Y-88852256D01*
X144425779Y-88796802D01*
X144377675Y-88742001D01*
X144348979Y-88695800D01*
X144347253Y-88666144D01*
X144354945Y-88655969D01*
X144385926Y-88614593D01*
X144425662Y-88561222D01*
X144484845Y-88481528D01*
X144585506Y-88575685D01*
X144610359Y-88597948D01*
X144706343Y-88662336D01*
X144806822Y-88690985D01*
X144924183Y-88688004D01*
X144992887Y-88671252D01*
X145084393Y-88615835D01*
X145154508Y-88524686D01*
X145203524Y-88397371D01*
X145231735Y-88233458D01*
X145246804Y-88080000D01*
X144325645Y-88080000D01*
X144336330Y-87804833D01*
X144604876Y-87804833D01*
X145241834Y-87804833D01*
X145229158Y-87714875D01*
X145224667Y-87686023D01*
X145205213Y-87591840D01*
X145180419Y-87500953D01*
X145154095Y-87426227D01*
X145130057Y-87380528D01*
X145103451Y-87351637D01*
X145014063Y-87295088D01*
X144906424Y-87275666D01*
X144851392Y-87279310D01*
X144798209Y-87299475D01*
X144743697Y-87345736D01*
X144698972Y-87400283D01*
X144663573Y-87471909D01*
X144637823Y-87566504D01*
X144618244Y-87693708D01*
X144604876Y-87804833D01*
X144336330Y-87804833D01*
X144336535Y-87799541D01*
X144346942Y-87640617D01*
X144373629Y-87460058D01*
X144416327Y-87313231D01*
X144476588Y-87196441D01*
X144555964Y-87105988D01*
X144656006Y-87038177D01*
X144702434Y-87018686D01*
X144812653Y-86994580D01*
X144934256Y-86989390D01*
X145050861Y-87003188D01*
X145146084Y-87036045D01*
X145241767Y-87100209D01*
X145349257Y-87216347D01*
X145430716Y-87365633D01*
X145485958Y-87547785D01*
X145494022Y-87593671D01*
X145506106Y-87705995D01*
X145511629Y-87804833D01*
X145513628Y-87840611D01*
X145516614Y-87986786D01*
G37*
X145516614Y-87986786D02*
X145515090Y-88133788D01*
X145509081Y-88270884D01*
X145498613Y-88387341D01*
X145483714Y-88472427D01*
X145470676Y-88518626D01*
X145403921Y-88680691D01*
X145313126Y-88808153D01*
X145197880Y-88901483D01*
X145057770Y-88961154D01*
X144959189Y-88978352D01*
X144829475Y-88979542D01*
X144701797Y-88961674D01*
X144594681Y-88926149D01*
X144549966Y-88900419D01*
X144485729Y-88852256D01*
X144425779Y-88796802D01*
X144377675Y-88742001D01*
X144348979Y-88695800D01*
X144347253Y-88666144D01*
X144354945Y-88655969D01*
X144385926Y-88614593D01*
X144425662Y-88561222D01*
X144484845Y-88481528D01*
X144585506Y-88575685D01*
X144610359Y-88597948D01*
X144706343Y-88662336D01*
X144806822Y-88690985D01*
X144924183Y-88688004D01*
X144992887Y-88671252D01*
X145084393Y-88615835D01*
X145154508Y-88524686D01*
X145203524Y-88397371D01*
X145231735Y-88233458D01*
X145246804Y-88080000D01*
X144325645Y-88080000D01*
X144336330Y-87804833D01*
X144604876Y-87804833D01*
X145241834Y-87804833D01*
X145229158Y-87714875D01*
X145224667Y-87686023D01*
X145205213Y-87591840D01*
X145180419Y-87500953D01*
X145154095Y-87426227D01*
X145130057Y-87380528D01*
X145103451Y-87351637D01*
X145014063Y-87295088D01*
X144906424Y-87275666D01*
X144851392Y-87279310D01*
X144798209Y-87299475D01*
X144743697Y-87345736D01*
X144698972Y-87400283D01*
X144663573Y-87471909D01*
X144637823Y-87566504D01*
X144618244Y-87693708D01*
X144604876Y-87804833D01*
X144336330Y-87804833D01*
X144336535Y-87799541D01*
X144346942Y-87640617D01*
X144373629Y-87460058D01*
X144416327Y-87313231D01*
X144476588Y-87196441D01*
X144555964Y-87105988D01*
X144656006Y-87038177D01*
X144702434Y-87018686D01*
X144812653Y-86994580D01*
X144934256Y-86989390D01*
X145050861Y-87003188D01*
X145146084Y-87036045D01*
X145241767Y-87100209D01*
X145349257Y-87216347D01*
X145430716Y-87365633D01*
X145485958Y-87547785D01*
X145494022Y-87593671D01*
X145506106Y-87705995D01*
X145511629Y-87804833D01*
X145513628Y-87840611D01*
X145516614Y-87986786D01*
G36*
X144063403Y-88265230D02*
G01*
X144058905Y-88355343D01*
X144051806Y-88425576D01*
X144041610Y-88483099D01*
X144027821Y-88535083D01*
X143969919Y-88682740D01*
X143885597Y-88814504D01*
X143781518Y-88910404D01*
X143658828Y-88969090D01*
X143615619Y-88979671D01*
X143487406Y-88983450D01*
X143364266Y-88947064D01*
X143252552Y-88872031D01*
X143206037Y-88834450D01*
X143169829Y-88821671D01*
X143151142Y-88845476D01*
X143145834Y-88907231D01*
X143143730Y-88923882D01*
X143128407Y-88939229D01*
X143089968Y-88946192D01*
X143018834Y-88947833D01*
X142891834Y-88947833D01*
X142891834Y-87973444D01*
X143167000Y-87973444D01*
X143167001Y-87978570D01*
X143167150Y-88130954D01*
X143167976Y-88247359D01*
X143170050Y-88333954D01*
X143173945Y-88396910D01*
X143180235Y-88442399D01*
X143189491Y-88476589D01*
X143202287Y-88505653D01*
X143219195Y-88535761D01*
X143226139Y-88547030D01*
X143281989Y-88614170D01*
X143344103Y-88659329D01*
X143351155Y-88662584D01*
X143455485Y-88689580D01*
X143553045Y-88677098D01*
X143639081Y-88627785D01*
X143708838Y-88544287D01*
X143757560Y-88429250D01*
X143772864Y-88361616D01*
X143789279Y-88234352D01*
X143796939Y-88089369D01*
X143796246Y-87936596D01*
X143787598Y-87785961D01*
X143771397Y-87647394D01*
X143748043Y-87530824D01*
X143717935Y-87446179D01*
X143660275Y-87364309D01*
X143578585Y-87304984D01*
X143486319Y-87280634D01*
X143391042Y-87291639D01*
X143300319Y-87338380D01*
X143221716Y-87421237D01*
X143167000Y-87500192D01*
X143167000Y-87973444D01*
X142891834Y-87973444D01*
X142891834Y-86217333D01*
X143167000Y-86217333D01*
X143167000Y-87171871D01*
X143241666Y-87099356D01*
X143260923Y-87081798D01*
X143367074Y-87016311D01*
X143485020Y-86986336D01*
X143607217Y-86990766D01*
X143726124Y-87028494D01*
X143834197Y-87098414D01*
X143923893Y-87199421D01*
X143941633Y-87226453D01*
X143982449Y-87296607D01*
X144013480Y-87367420D01*
X144036004Y-87445829D01*
X144051299Y-87538772D01*
X144060642Y-87653184D01*
X144065311Y-87796003D01*
X144066584Y-87974166D01*
X144066575Y-87996685D01*
X144066096Y-88089369D01*
X144065794Y-88148068D01*
X144063403Y-88265230D01*
G37*
X144063403Y-88265230D02*
X144058905Y-88355343D01*
X144051806Y-88425576D01*
X144041610Y-88483099D01*
X144027821Y-88535083D01*
X143969919Y-88682740D01*
X143885597Y-88814504D01*
X143781518Y-88910404D01*
X143658828Y-88969090D01*
X143615619Y-88979671D01*
X143487406Y-88983450D01*
X143364266Y-88947064D01*
X143252552Y-88872031D01*
X143206037Y-88834450D01*
X143169829Y-88821671D01*
X143151142Y-88845476D01*
X143145834Y-88907231D01*
X143143730Y-88923882D01*
X143128407Y-88939229D01*
X143089968Y-88946192D01*
X143018834Y-88947833D01*
X142891834Y-88947833D01*
X142891834Y-87973444D01*
X143167000Y-87973444D01*
X143167001Y-87978570D01*
X143167150Y-88130954D01*
X143167976Y-88247359D01*
X143170050Y-88333954D01*
X143173945Y-88396910D01*
X143180235Y-88442399D01*
X143189491Y-88476589D01*
X143202287Y-88505653D01*
X143219195Y-88535761D01*
X143226139Y-88547030D01*
X143281989Y-88614170D01*
X143344103Y-88659329D01*
X143351155Y-88662584D01*
X143455485Y-88689580D01*
X143553045Y-88677098D01*
X143639081Y-88627785D01*
X143708838Y-88544287D01*
X143757560Y-88429250D01*
X143772864Y-88361616D01*
X143789279Y-88234352D01*
X143796939Y-88089369D01*
X143796246Y-87936596D01*
X143787598Y-87785961D01*
X143771397Y-87647394D01*
X143748043Y-87530824D01*
X143717935Y-87446179D01*
X143660275Y-87364309D01*
X143578585Y-87304984D01*
X143486319Y-87280634D01*
X143391042Y-87291639D01*
X143300319Y-87338380D01*
X143221716Y-87421237D01*
X143167000Y-87500192D01*
X143167000Y-87973444D01*
X142891834Y-87973444D01*
X142891834Y-86217333D01*
X143167000Y-86217333D01*
X143167000Y-87171871D01*
X143241666Y-87099356D01*
X143260923Y-87081798D01*
X143367074Y-87016311D01*
X143485020Y-86986336D01*
X143607217Y-86990766D01*
X143726124Y-87028494D01*
X143834197Y-87098414D01*
X143923893Y-87199421D01*
X143941633Y-87226453D01*
X143982449Y-87296607D01*
X144013480Y-87367420D01*
X144036004Y-87445829D01*
X144051299Y-87538772D01*
X144060642Y-87653184D01*
X144065311Y-87796003D01*
X144066584Y-87974166D01*
X144066575Y-87996685D01*
X144066096Y-88089369D01*
X144065794Y-88148068D01*
X144063403Y-88265230D01*
G36*
X139587663Y-87909316D02*
G01*
X139585278Y-88066790D01*
X139583959Y-88127383D01*
X139580242Y-88259366D01*
X139575511Y-88359326D01*
X139568988Y-88434714D01*
X139559894Y-88492987D01*
X139547452Y-88541597D01*
X139530884Y-88588000D01*
X139472099Y-88707620D01*
X139377277Y-88826608D01*
X139256891Y-88912822D01*
X139108621Y-88968351D01*
X139082007Y-88974251D01*
X138939478Y-88983938D01*
X138793082Y-88962326D01*
X138656152Y-88912494D01*
X138542018Y-88837520D01*
X138504077Y-88802915D01*
X138454387Y-88746294D01*
X138436939Y-88696715D01*
X138449612Y-88643454D01*
X138490287Y-88575788D01*
X138557501Y-88478096D01*
X138645042Y-88563568D01*
X138682659Y-88597616D01*
X138743406Y-88643947D01*
X138792170Y-88671437D01*
X138817973Y-88679946D01*
X138929211Y-88694126D01*
X139040547Y-88677497D01*
X139139800Y-88633149D01*
X139214788Y-88564175D01*
X139227679Y-88543530D01*
X139259690Y-88467477D01*
X139287320Y-88369897D01*
X139306794Y-88265741D01*
X139314337Y-88169958D01*
X139314667Y-88080000D01*
X138404500Y-88080000D01*
X138405239Y-87884208D01*
X138407378Y-87804833D01*
X138700834Y-87804833D01*
X139007750Y-87804833D01*
X139127005Y-87804097D01*
X139216936Y-87801418D01*
X139274710Y-87796320D01*
X139305548Y-87788329D01*
X139314667Y-87776970D01*
X139312956Y-87747528D01*
X139300291Y-87666434D01*
X139278959Y-87572702D01*
X139253353Y-87484412D01*
X139227866Y-87419649D01*
X139177079Y-87350778D01*
X139097771Y-87297329D01*
X139006506Y-87274515D01*
X138913709Y-87284682D01*
X138829806Y-87330171D01*
X138791422Y-87372806D01*
X138743729Y-87464344D01*
X138712216Y-87578162D01*
X138700834Y-87702841D01*
X138700834Y-87804833D01*
X138407378Y-87804833D01*
X138408310Y-87770273D01*
X138429330Y-87564800D01*
X138469388Y-87387214D01*
X138527500Y-87241272D01*
X138602681Y-87130731D01*
X138615777Y-87116963D01*
X138710801Y-87046564D01*
X138829081Y-87005373D01*
X138976000Y-86991379D01*
X139077552Y-86997535D01*
X139214311Y-87034128D01*
X139329605Y-87104748D01*
X139424847Y-87210705D01*
X139501449Y-87353310D01*
X139560823Y-87533873D01*
X139565962Y-87555379D01*
X139576747Y-87617136D01*
X139583735Y-87691823D01*
X139586897Y-87776970D01*
X139587261Y-87786772D01*
X139587663Y-87909316D01*
G37*
X139587663Y-87909316D02*
X139585278Y-88066790D01*
X139583959Y-88127383D01*
X139580242Y-88259366D01*
X139575511Y-88359326D01*
X139568988Y-88434714D01*
X139559894Y-88492987D01*
X139547452Y-88541597D01*
X139530884Y-88588000D01*
X139472099Y-88707620D01*
X139377277Y-88826608D01*
X139256891Y-88912822D01*
X139108621Y-88968351D01*
X139082007Y-88974251D01*
X138939478Y-88983938D01*
X138793082Y-88962326D01*
X138656152Y-88912494D01*
X138542018Y-88837520D01*
X138504077Y-88802915D01*
X138454387Y-88746294D01*
X138436939Y-88696715D01*
X138449612Y-88643454D01*
X138490287Y-88575788D01*
X138557501Y-88478096D01*
X138645042Y-88563568D01*
X138682659Y-88597616D01*
X138743406Y-88643947D01*
X138792170Y-88671437D01*
X138817973Y-88679946D01*
X138929211Y-88694126D01*
X139040547Y-88677497D01*
X139139800Y-88633149D01*
X139214788Y-88564175D01*
X139227679Y-88543530D01*
X139259690Y-88467477D01*
X139287320Y-88369897D01*
X139306794Y-88265741D01*
X139314337Y-88169958D01*
X139314667Y-88080000D01*
X138404500Y-88080000D01*
X138405239Y-87884208D01*
X138407378Y-87804833D01*
X138700834Y-87804833D01*
X139007750Y-87804833D01*
X139127005Y-87804097D01*
X139216936Y-87801418D01*
X139274710Y-87796320D01*
X139305548Y-87788329D01*
X139314667Y-87776970D01*
X139312956Y-87747528D01*
X139300291Y-87666434D01*
X139278959Y-87572702D01*
X139253353Y-87484412D01*
X139227866Y-87419649D01*
X139177079Y-87350778D01*
X139097771Y-87297329D01*
X139006506Y-87274515D01*
X138913709Y-87284682D01*
X138829806Y-87330171D01*
X138791422Y-87372806D01*
X138743729Y-87464344D01*
X138712216Y-87578162D01*
X138700834Y-87702841D01*
X138700834Y-87804833D01*
X138407378Y-87804833D01*
X138408310Y-87770273D01*
X138429330Y-87564800D01*
X138469388Y-87387214D01*
X138527500Y-87241272D01*
X138602681Y-87130731D01*
X138615777Y-87116963D01*
X138710801Y-87046564D01*
X138829081Y-87005373D01*
X138976000Y-86991379D01*
X139077552Y-86997535D01*
X139214311Y-87034128D01*
X139329605Y-87104748D01*
X139424847Y-87210705D01*
X139501449Y-87353310D01*
X139560823Y-87533873D01*
X139565962Y-87555379D01*
X139576747Y-87617136D01*
X139583735Y-87691823D01*
X139586897Y-87776970D01*
X139587261Y-87786772D01*
X139587663Y-87909316D01*
G36*
X137678312Y-87003642D02*
G01*
X137810524Y-87048563D01*
X137921406Y-87127709D01*
X138013680Y-87243084D01*
X138090073Y-87396691D01*
X138097429Y-87415426D01*
X138111952Y-87457164D01*
X138122660Y-87500196D01*
X138130140Y-87551363D01*
X138134976Y-87617504D01*
X138137754Y-87705458D01*
X138139059Y-87822066D01*
X138139475Y-87974166D01*
X138139422Y-88068176D01*
X138138410Y-88204478D01*
X138135829Y-88309065D01*
X138131221Y-88388708D01*
X138124124Y-88450176D01*
X138114078Y-88500239D01*
X138100624Y-88545666D01*
X138039845Y-88687835D01*
X137951584Y-88814209D01*
X137841835Y-88904860D01*
X137709799Y-88960639D01*
X137682619Y-88967433D01*
X137606815Y-88982184D01*
X137545801Y-88988738D01*
X137502337Y-88986683D01*
X137393179Y-88963267D01*
X137283624Y-88919667D01*
X137193664Y-88863021D01*
X137171342Y-88842320D01*
X137106602Y-88759726D01*
X137047246Y-88654567D01*
X137000691Y-88541340D01*
X136974358Y-88434541D01*
X136960360Y-88334000D01*
X137230316Y-88334000D01*
X137256220Y-88445125D01*
X137263966Y-88473943D01*
X137313568Y-88577423D01*
X137386285Y-88650148D01*
X137476215Y-88689223D01*
X137577453Y-88691756D01*
X137684095Y-88654852D01*
X137744952Y-88608504D01*
X137798643Y-88530190D01*
X137837296Y-88421694D01*
X137861531Y-88280454D01*
X137871966Y-88103910D01*
X137869221Y-87889500D01*
X137862638Y-87756603D01*
X137852025Y-87637708D01*
X137836312Y-87546803D01*
X137813611Y-87476250D01*
X137782033Y-87418414D01*
X137739691Y-87365656D01*
X137727234Y-87352346D01*
X137680386Y-87311818D01*
X137629339Y-87290864D01*
X137555052Y-87280725D01*
X137521942Y-87278356D01*
X137461598Y-87279545D01*
X137417630Y-87294512D01*
X137371996Y-87327908D01*
X137330728Y-87375378D01*
X137285058Y-87460099D01*
X137252652Y-87557177D01*
X137240334Y-87649925D01*
X137240294Y-87655020D01*
X137236049Y-87679358D01*
X137218062Y-87692535D01*
X137176804Y-87697950D01*
X137102750Y-87699000D01*
X137082326Y-87698973D01*
X137016735Y-87697339D01*
X136981715Y-87690555D01*
X136967711Y-87675018D01*
X136965167Y-87647125D01*
X136971486Y-87575490D01*
X136991712Y-87473820D01*
X137021108Y-87370822D01*
X137054770Y-87286250D01*
X137070929Y-87255364D01*
X137155515Y-87136346D01*
X137259323Y-87053976D01*
X137385773Y-87006163D01*
X137538287Y-86990818D01*
X137678312Y-87003642D01*
G37*
X137678312Y-87003642D02*
X137810524Y-87048563D01*
X137921406Y-87127709D01*
X138013680Y-87243084D01*
X138090073Y-87396691D01*
X138097429Y-87415426D01*
X138111952Y-87457164D01*
X138122660Y-87500196D01*
X138130140Y-87551363D01*
X138134976Y-87617504D01*
X138137754Y-87705458D01*
X138139059Y-87822066D01*
X138139475Y-87974166D01*
X138139422Y-88068176D01*
X138138410Y-88204478D01*
X138135829Y-88309065D01*
X138131221Y-88388708D01*
X138124124Y-88450176D01*
X138114078Y-88500239D01*
X138100624Y-88545666D01*
X138039845Y-88687835D01*
X137951584Y-88814209D01*
X137841835Y-88904860D01*
X137709799Y-88960639D01*
X137682619Y-88967433D01*
X137606815Y-88982184D01*
X137545801Y-88988738D01*
X137502337Y-88986683D01*
X137393179Y-88963267D01*
X137283624Y-88919667D01*
X137193664Y-88863021D01*
X137171342Y-88842320D01*
X137106602Y-88759726D01*
X137047246Y-88654567D01*
X137000691Y-88541340D01*
X136974358Y-88434541D01*
X136960360Y-88334000D01*
X137230316Y-88334000D01*
X137256220Y-88445125D01*
X137263966Y-88473943D01*
X137313568Y-88577423D01*
X137386285Y-88650148D01*
X137476215Y-88689223D01*
X137577453Y-88691756D01*
X137684095Y-88654852D01*
X137744952Y-88608504D01*
X137798643Y-88530190D01*
X137837296Y-88421694D01*
X137861531Y-88280454D01*
X137871966Y-88103910D01*
X137869221Y-87889500D01*
X137862638Y-87756603D01*
X137852025Y-87637708D01*
X137836312Y-87546803D01*
X137813611Y-87476250D01*
X137782033Y-87418414D01*
X137739691Y-87365656D01*
X137727234Y-87352346D01*
X137680386Y-87311818D01*
X137629339Y-87290864D01*
X137555052Y-87280725D01*
X137521942Y-87278356D01*
X137461598Y-87279545D01*
X137417630Y-87294512D01*
X137371996Y-87327908D01*
X137330728Y-87375378D01*
X137285058Y-87460099D01*
X137252652Y-87557177D01*
X137240334Y-87649925D01*
X137240294Y-87655020D01*
X137236049Y-87679358D01*
X137218062Y-87692535D01*
X137176804Y-87697950D01*
X137102750Y-87699000D01*
X137082326Y-87698973D01*
X137016735Y-87697339D01*
X136981715Y-87690555D01*
X136967711Y-87675018D01*
X136965167Y-87647125D01*
X136971486Y-87575490D01*
X136991712Y-87473820D01*
X137021108Y-87370822D01*
X137054770Y-87286250D01*
X137070929Y-87255364D01*
X137155515Y-87136346D01*
X137259323Y-87053976D01*
X137385773Y-87006163D01*
X137538287Y-86990818D01*
X137678312Y-87003642D01*
G36*
X136584167Y-87021666D02*
G01*
X136838167Y-87021666D01*
X136838167Y-87296833D01*
X136584167Y-87296833D01*
X136584167Y-87981591D01*
X136583958Y-88105298D01*
X136582353Y-88313616D01*
X136579150Y-88480501D01*
X136574329Y-88606526D01*
X136567873Y-88692268D01*
X136559763Y-88738299D01*
X136526897Y-88814874D01*
X136462815Y-88904497D01*
X136385280Y-88959911D01*
X136329001Y-88979436D01*
X136239619Y-88987359D01*
X136134375Y-88967887D01*
X136055000Y-88945843D01*
X136055000Y-88667127D01*
X136128499Y-88679054D01*
X136192926Y-88680014D01*
X136250208Y-88651968D01*
X136258955Y-88644684D01*
X136270693Y-88632094D01*
X136279919Y-88614328D01*
X136286994Y-88586741D01*
X136292281Y-88544688D01*
X136296142Y-88483526D01*
X136298940Y-88398610D01*
X136301037Y-88285295D01*
X136302794Y-88138938D01*
X136304575Y-87954893D01*
X136310733Y-87296833D01*
X136055000Y-87296833D01*
X136055000Y-87021666D01*
X136309000Y-87021666D01*
X136309000Y-86556000D01*
X136584167Y-86556000D01*
X136584167Y-87021666D01*
G37*
X136584167Y-87021666D02*
X136838167Y-87021666D01*
X136838167Y-87296833D01*
X136584167Y-87296833D01*
X136584167Y-87981591D01*
X136583958Y-88105298D01*
X136582353Y-88313616D01*
X136579150Y-88480501D01*
X136574329Y-88606526D01*
X136567873Y-88692268D01*
X136559763Y-88738299D01*
X136526897Y-88814874D01*
X136462815Y-88904497D01*
X136385280Y-88959911D01*
X136329001Y-88979436D01*
X136239619Y-88987359D01*
X136134375Y-88967887D01*
X136055000Y-88945843D01*
X136055000Y-88667127D01*
X136128499Y-88679054D01*
X136192926Y-88680014D01*
X136250208Y-88651968D01*
X136258955Y-88644684D01*
X136270693Y-88632094D01*
X136279919Y-88614328D01*
X136286994Y-88586741D01*
X136292281Y-88544688D01*
X136296142Y-88483526D01*
X136298940Y-88398610D01*
X136301037Y-88285295D01*
X136302794Y-88138938D01*
X136304575Y-87954893D01*
X136310733Y-87296833D01*
X136055000Y-87296833D01*
X136055000Y-87021666D01*
X136309000Y-87021666D01*
X136309000Y-86556000D01*
X136584167Y-86556000D01*
X136584167Y-87021666D01*
G36*
X134904383Y-88189235D02*
G01*
X134894636Y-88310642D01*
X134880854Y-88403435D01*
X134860659Y-88482989D01*
X134795509Y-88644477D01*
X134705507Y-88779153D01*
X134593877Y-88882782D01*
X134463844Y-88951128D01*
X134411720Y-88967183D01*
X134264442Y-88985439D01*
X134123214Y-88964334D01*
X133992036Y-88906069D01*
X133874906Y-88812845D01*
X133775825Y-88686860D01*
X133698793Y-88530316D01*
X133684660Y-88490423D01*
X133672294Y-88445314D01*
X133663557Y-88394232D01*
X133657834Y-88329906D01*
X133654508Y-88245065D01*
X133652964Y-88132436D01*
X133652611Y-87994334D01*
X133917167Y-87994334D01*
X133922039Y-88155284D01*
X133943650Y-88335452D01*
X133982698Y-88477941D01*
X134039360Y-88583344D01*
X134113813Y-88652251D01*
X134201201Y-88688860D01*
X134301852Y-88693697D01*
X134396826Y-88661096D01*
X134479731Y-88593420D01*
X134544176Y-88493035D01*
X134577231Y-88402517D01*
X134609184Y-88254255D01*
X134625910Y-88088074D01*
X134627443Y-87915472D01*
X134613816Y-87747944D01*
X134585062Y-87596988D01*
X134541214Y-87474099D01*
X134509917Y-87419418D01*
X134433717Y-87335284D01*
X134346101Y-87287793D01*
X134253424Y-87277042D01*
X134162040Y-87303124D01*
X134078303Y-87366134D01*
X134008570Y-87466166D01*
X133974910Y-87543932D01*
X133941926Y-87666391D01*
X133923131Y-87813910D01*
X133917167Y-87994334D01*
X133652611Y-87994334D01*
X133652587Y-87984750D01*
X133652860Y-87854544D01*
X133654213Y-87737668D01*
X133657266Y-87649546D01*
X133662635Y-87582909D01*
X133670935Y-87530483D01*
X133682782Y-87484998D01*
X133698793Y-87439183D01*
X133706730Y-87418855D01*
X133786322Y-87264780D01*
X133887353Y-87141140D01*
X134006015Y-87052725D01*
X134056344Y-87026887D01*
X134117790Y-87004388D01*
X134185335Y-86993999D01*
X134277000Y-86991660D01*
X134378712Y-86995961D01*
X134456217Y-87010352D01*
X134523131Y-87037768D01*
X134562566Y-87060791D01*
X134674877Y-87156808D01*
X134769540Y-87285920D01*
X134843137Y-87442720D01*
X134892250Y-87621802D01*
X134899342Y-87670468D01*
X134907576Y-87779828D01*
X134911037Y-87911176D01*
X134911002Y-87915472D01*
X134909912Y-88051862D01*
X134904383Y-88189235D01*
G37*
X134904383Y-88189235D02*
X134894636Y-88310642D01*
X134880854Y-88403435D01*
X134860659Y-88482989D01*
X134795509Y-88644477D01*
X134705507Y-88779153D01*
X134593877Y-88882782D01*
X134463844Y-88951128D01*
X134411720Y-88967183D01*
X134264442Y-88985439D01*
X134123214Y-88964334D01*
X133992036Y-88906069D01*
X133874906Y-88812845D01*
X133775825Y-88686860D01*
X133698793Y-88530316D01*
X133684660Y-88490423D01*
X133672294Y-88445314D01*
X133663557Y-88394232D01*
X133657834Y-88329906D01*
X133654508Y-88245065D01*
X133652964Y-88132436D01*
X133652611Y-87994334D01*
X133917167Y-87994334D01*
X133922039Y-88155284D01*
X133943650Y-88335452D01*
X133982698Y-88477941D01*
X134039360Y-88583344D01*
X134113813Y-88652251D01*
X134201201Y-88688860D01*
X134301852Y-88693697D01*
X134396826Y-88661096D01*
X134479731Y-88593420D01*
X134544176Y-88493035D01*
X134577231Y-88402517D01*
X134609184Y-88254255D01*
X134625910Y-88088074D01*
X134627443Y-87915472D01*
X134613816Y-87747944D01*
X134585062Y-87596988D01*
X134541214Y-87474099D01*
X134509917Y-87419418D01*
X134433717Y-87335284D01*
X134346101Y-87287793D01*
X134253424Y-87277042D01*
X134162040Y-87303124D01*
X134078303Y-87366134D01*
X134008570Y-87466166D01*
X133974910Y-87543932D01*
X133941926Y-87666391D01*
X133923131Y-87813910D01*
X133917167Y-87994334D01*
X133652611Y-87994334D01*
X133652587Y-87984750D01*
X133652860Y-87854544D01*
X133654213Y-87737668D01*
X133657266Y-87649546D01*
X133662635Y-87582909D01*
X133670935Y-87530483D01*
X133682782Y-87484998D01*
X133698793Y-87439183D01*
X133706730Y-87418855D01*
X133786322Y-87264780D01*
X133887353Y-87141140D01*
X134006015Y-87052725D01*
X134056344Y-87026887D01*
X134117790Y-87004388D01*
X134185335Y-86993999D01*
X134277000Y-86991660D01*
X134378712Y-86995961D01*
X134456217Y-87010352D01*
X134523131Y-87037768D01*
X134562566Y-87060791D01*
X134674877Y-87156808D01*
X134769540Y-87285920D01*
X134843137Y-87442720D01*
X134892250Y-87621802D01*
X134899342Y-87670468D01*
X134907576Y-87779828D01*
X134911037Y-87911176D01*
X134911002Y-87915472D01*
X134909912Y-88051862D01*
X134904383Y-88189235D01*
G36*
X130663983Y-86998615D02*
G01*
X130798469Y-87044422D01*
X130914020Y-87121710D01*
X130952442Y-87159733D01*
X131031429Y-87267572D01*
X131091024Y-87400346D01*
X131132284Y-87561702D01*
X131156265Y-87755288D01*
X131164024Y-87984750D01*
X131163938Y-88007530D01*
X131156474Y-88197137D01*
X131137807Y-88370817D01*
X131109153Y-88519995D01*
X131071727Y-88636096D01*
X131028325Y-88712905D01*
X130963671Y-88796185D01*
X130891345Y-88869153D01*
X130823821Y-88917641D01*
X130819655Y-88919747D01*
X130755432Y-88946233D01*
X130684647Y-88968209D01*
X130626012Y-88977972D01*
X130511713Y-88978766D01*
X130396724Y-88961450D01*
X130301392Y-88928152D01*
X130291962Y-88923149D01*
X130178878Y-88839014D01*
X130085948Y-88725108D01*
X130019502Y-88591092D01*
X129985869Y-88446625D01*
X129974020Y-88331820D01*
X130108876Y-88338201D01*
X130243733Y-88344583D01*
X130258796Y-88433270D01*
X130290129Y-88537512D01*
X130350623Y-88623214D01*
X130436336Y-88675884D01*
X130545324Y-88693754D01*
X130561318Y-88693302D01*
X130663025Y-88667599D01*
X130748276Y-88604769D01*
X130812399Y-88508060D01*
X130813143Y-88506446D01*
X130828851Y-88469238D01*
X130840473Y-88431086D01*
X130848616Y-88385093D01*
X130853890Y-88324361D01*
X130856904Y-88241992D01*
X130858265Y-88131087D01*
X130858584Y-87984750D01*
X130858583Y-87977928D01*
X130858234Y-87833187D01*
X130856816Y-87723595D01*
X130853722Y-87642254D01*
X130848341Y-87582266D01*
X130840067Y-87536733D01*
X130828289Y-87498756D01*
X130812399Y-87461439D01*
X130777787Y-87402101D01*
X130701095Y-87326366D01*
X130608026Y-87283231D01*
X130506544Y-87275715D01*
X130404617Y-87306839D01*
X130401930Y-87308285D01*
X130351084Y-87353929D01*
X130303796Y-87424609D01*
X130268926Y-87504293D01*
X130255334Y-87576951D01*
X130255311Y-87583562D01*
X130249915Y-87644800D01*
X130228928Y-87679681D01*
X130183531Y-87695363D01*
X130104903Y-87699000D01*
X129980167Y-87699000D01*
X129980167Y-87607591D01*
X129989562Y-87502463D01*
X130027063Y-87365636D01*
X130088168Y-87238511D01*
X130167476Y-87131748D01*
X130259587Y-87056007D01*
X130380189Y-87005666D01*
X130521058Y-86985346D01*
X130663983Y-86998615D01*
G37*
X130663983Y-86998615D02*
X130798469Y-87044422D01*
X130914020Y-87121710D01*
X130952442Y-87159733D01*
X131031429Y-87267572D01*
X131091024Y-87400346D01*
X131132284Y-87561702D01*
X131156265Y-87755288D01*
X131164024Y-87984750D01*
X131163938Y-88007530D01*
X131156474Y-88197137D01*
X131137807Y-88370817D01*
X131109153Y-88519995D01*
X131071727Y-88636096D01*
X131028325Y-88712905D01*
X130963671Y-88796185D01*
X130891345Y-88869153D01*
X130823821Y-88917641D01*
X130819655Y-88919747D01*
X130755432Y-88946233D01*
X130684647Y-88968209D01*
X130626012Y-88977972D01*
X130511713Y-88978766D01*
X130396724Y-88961450D01*
X130301392Y-88928152D01*
X130291962Y-88923149D01*
X130178878Y-88839014D01*
X130085948Y-88725108D01*
X130019502Y-88591092D01*
X129985869Y-88446625D01*
X129974020Y-88331820D01*
X130108876Y-88338201D01*
X130243733Y-88344583D01*
X130258796Y-88433270D01*
X130290129Y-88537512D01*
X130350623Y-88623214D01*
X130436336Y-88675884D01*
X130545324Y-88693754D01*
X130561318Y-88693302D01*
X130663025Y-88667599D01*
X130748276Y-88604769D01*
X130812399Y-88508060D01*
X130813143Y-88506446D01*
X130828851Y-88469238D01*
X130840473Y-88431086D01*
X130848616Y-88385093D01*
X130853890Y-88324361D01*
X130856904Y-88241992D01*
X130858265Y-88131087D01*
X130858584Y-87984750D01*
X130858583Y-87977928D01*
X130858234Y-87833187D01*
X130856816Y-87723595D01*
X130853722Y-87642254D01*
X130848341Y-87582266D01*
X130840067Y-87536733D01*
X130828289Y-87498756D01*
X130812399Y-87461439D01*
X130777787Y-87402101D01*
X130701095Y-87326366D01*
X130608026Y-87283231D01*
X130506544Y-87275715D01*
X130404617Y-87306839D01*
X130401930Y-87308285D01*
X130351084Y-87353929D01*
X130303796Y-87424609D01*
X130268926Y-87504293D01*
X130255334Y-87576951D01*
X130255311Y-87583562D01*
X130249915Y-87644800D01*
X130228928Y-87679681D01*
X130183531Y-87695363D01*
X130104903Y-87699000D01*
X129980167Y-87699000D01*
X129980167Y-87607591D01*
X129989562Y-87502463D01*
X130027063Y-87365636D01*
X130088168Y-87238511D01*
X130167476Y-87131748D01*
X130259587Y-87056007D01*
X130380189Y-87005666D01*
X130521058Y-86985346D01*
X130663983Y-86998615D01*
G36*
X129301365Y-87004068D02*
G01*
X129401328Y-87038039D01*
X129455128Y-87070746D01*
X129557376Y-87166593D01*
X129630947Y-87287968D01*
X129672502Y-87428333D01*
X129678701Y-87581150D01*
X129663652Y-87684397D01*
X129631449Y-87777927D01*
X129577816Y-87860539D01*
X129497949Y-87937916D01*
X129387042Y-88015741D01*
X129240289Y-88099700D01*
X129176326Y-88134732D01*
X129064500Y-88202889D01*
X128985742Y-88264370D01*
X128935331Y-88324163D01*
X128908546Y-88387258D01*
X128900667Y-88458645D01*
X128902180Y-88500747D01*
X128916745Y-88564645D01*
X128951780Y-88615803D01*
X128972174Y-88635239D01*
X129052558Y-88679470D01*
X129143771Y-88693274D01*
X129235957Y-88679194D01*
X129319261Y-88639770D01*
X129383828Y-88577547D01*
X129419802Y-88495066D01*
X129430991Y-88440280D01*
X129446576Y-88389691D01*
X129471422Y-88364576D01*
X129516548Y-88356035D01*
X129592971Y-88355166D01*
X129732090Y-88355166D01*
X129719924Y-88473037D01*
X129703881Y-88565526D01*
X129648330Y-88707387D01*
X129559590Y-88824258D01*
X129440088Y-88913309D01*
X129292250Y-88971711D01*
X129281830Y-88974135D01*
X129196842Y-88981733D01*
X129093516Y-88976858D01*
X128990412Y-88961204D01*
X128906088Y-88936465D01*
X128791951Y-88868159D01*
X128700767Y-88767368D01*
X128639020Y-88639539D01*
X128609240Y-88488489D01*
X128608316Y-88476044D01*
X128610058Y-88344310D01*
X128636872Y-88229898D01*
X128692114Y-88128079D01*
X128779142Y-88034126D01*
X128901315Y-87943310D01*
X129061988Y-87850902D01*
X129153801Y-87801430D01*
X129252634Y-87741792D01*
X129320737Y-87689176D01*
X129363146Y-87638570D01*
X129384897Y-87584956D01*
X129391028Y-87523323D01*
X129374903Y-87419027D01*
X129327147Y-87340825D01*
X129249906Y-87292317D01*
X129145326Y-87275666D01*
X129101138Y-87282234D01*
X129026470Y-87322413D01*
X128963341Y-87392148D01*
X128920533Y-87483327D01*
X128893966Y-87572000D01*
X128625500Y-87572000D01*
X128625500Y-87501687D01*
X128626652Y-87471649D01*
X128654990Y-87343254D01*
X128716030Y-87220472D01*
X128802719Y-87114875D01*
X128908006Y-87038039D01*
X128946357Y-87021371D01*
X129056963Y-86995734D01*
X129180938Y-86989967D01*
X129301365Y-87004068D01*
G37*
X129301365Y-87004068D02*
X129401328Y-87038039D01*
X129455128Y-87070746D01*
X129557376Y-87166593D01*
X129630947Y-87287968D01*
X129672502Y-87428333D01*
X129678701Y-87581150D01*
X129663652Y-87684397D01*
X129631449Y-87777927D01*
X129577816Y-87860539D01*
X129497949Y-87937916D01*
X129387042Y-88015741D01*
X129240289Y-88099700D01*
X129176326Y-88134732D01*
X129064500Y-88202889D01*
X128985742Y-88264370D01*
X128935331Y-88324163D01*
X128908546Y-88387258D01*
X128900667Y-88458645D01*
X128902180Y-88500747D01*
X128916745Y-88564645D01*
X128951780Y-88615803D01*
X128972174Y-88635239D01*
X129052558Y-88679470D01*
X129143771Y-88693274D01*
X129235957Y-88679194D01*
X129319261Y-88639770D01*
X129383828Y-88577547D01*
X129419802Y-88495066D01*
X129430991Y-88440280D01*
X129446576Y-88389691D01*
X129471422Y-88364576D01*
X129516548Y-88356035D01*
X129592971Y-88355166D01*
X129732090Y-88355166D01*
X129719924Y-88473037D01*
X129703881Y-88565526D01*
X129648330Y-88707387D01*
X129559590Y-88824258D01*
X129440088Y-88913309D01*
X129292250Y-88971711D01*
X129281830Y-88974135D01*
X129196842Y-88981733D01*
X129093516Y-88976858D01*
X128990412Y-88961204D01*
X128906088Y-88936465D01*
X128791951Y-88868159D01*
X128700767Y-88767368D01*
X128639020Y-88639539D01*
X128609240Y-88488489D01*
X128608316Y-88476044D01*
X128610058Y-88344310D01*
X128636872Y-88229898D01*
X128692114Y-88128079D01*
X128779142Y-88034126D01*
X128901315Y-87943310D01*
X129061988Y-87850902D01*
X129153801Y-87801430D01*
X129252634Y-87741792D01*
X129320737Y-87689176D01*
X129363146Y-87638570D01*
X129384897Y-87584956D01*
X129391028Y-87523323D01*
X129374903Y-87419027D01*
X129327147Y-87340825D01*
X129249906Y-87292317D01*
X129145326Y-87275666D01*
X129101138Y-87282234D01*
X129026470Y-87322413D01*
X128963341Y-87392148D01*
X128920533Y-87483327D01*
X128893966Y-87572000D01*
X128625500Y-87572000D01*
X128625500Y-87501687D01*
X128626652Y-87471649D01*
X128654990Y-87343254D01*
X128716030Y-87220472D01*
X128802719Y-87114875D01*
X128908006Y-87038039D01*
X128946357Y-87021371D01*
X129056963Y-86995734D01*
X129180938Y-86989967D01*
X129301365Y-87004068D01*
G36*
X149605765Y-86991939D02*
G01*
X149724262Y-87029315D01*
X149833614Y-87099902D01*
X149863874Y-87125341D01*
X149899473Y-87151126D01*
X149915464Y-87152089D01*
X149919167Y-87130880D01*
X149924054Y-87075144D01*
X149944998Y-87041256D01*
X149990635Y-87025519D01*
X150069598Y-87021666D01*
X150194334Y-87021666D01*
X150194334Y-88947833D01*
X149919167Y-88947833D01*
X149919167Y-87536924D01*
X149855088Y-87440182D01*
X149835245Y-87412848D01*
X149764849Y-87342200D01*
X149686775Y-87293691D01*
X149613292Y-87275666D01*
X149600295Y-87276400D01*
X149529019Y-87301049D01*
X149462124Y-87352576D01*
X149414791Y-87419947D01*
X149409697Y-87432290D01*
X149400872Y-87462212D01*
X149393725Y-87502761D01*
X149388021Y-87558467D01*
X149383523Y-87633859D01*
X149379995Y-87733466D01*
X149377199Y-87861818D01*
X149374900Y-88023444D01*
X149372861Y-88222875D01*
X149366304Y-88947833D01*
X149093667Y-88947833D01*
X149093667Y-88211447D01*
X149093889Y-88049617D01*
X149095178Y-87855538D01*
X149098034Y-87695903D01*
X149102927Y-87566108D01*
X149110326Y-87461552D01*
X149120702Y-87377631D01*
X149134523Y-87309743D01*
X149152260Y-87253283D01*
X149174382Y-87203650D01*
X149201360Y-87156241D01*
X149274655Y-87072002D01*
X149373036Y-87013988D01*
X149486048Y-86987065D01*
X149605765Y-86991939D01*
G37*
X149605765Y-86991939D02*
X149724262Y-87029315D01*
X149833614Y-87099902D01*
X149863874Y-87125341D01*
X149899473Y-87151126D01*
X149915464Y-87152089D01*
X149919167Y-87130880D01*
X149924054Y-87075144D01*
X149944998Y-87041256D01*
X149990635Y-87025519D01*
X150069598Y-87021666D01*
X150194334Y-87021666D01*
X150194334Y-88947833D01*
X149919167Y-88947833D01*
X149919167Y-87536924D01*
X149855088Y-87440182D01*
X149835245Y-87412848D01*
X149764849Y-87342200D01*
X149686775Y-87293691D01*
X149613292Y-87275666D01*
X149600295Y-87276400D01*
X149529019Y-87301049D01*
X149462124Y-87352576D01*
X149414791Y-87419947D01*
X149409697Y-87432290D01*
X149400872Y-87462212D01*
X149393725Y-87502761D01*
X149388021Y-87558467D01*
X149383523Y-87633859D01*
X149379995Y-87733466D01*
X149377199Y-87861818D01*
X149374900Y-88023444D01*
X149372861Y-88222875D01*
X149366304Y-88947833D01*
X149093667Y-88947833D01*
X149093667Y-88211447D01*
X149093889Y-88049617D01*
X149095178Y-87855538D01*
X149098034Y-87695903D01*
X149102927Y-87566108D01*
X149110326Y-87461552D01*
X149120702Y-87377631D01*
X149134523Y-87309743D01*
X149152260Y-87253283D01*
X149174382Y-87203650D01*
X149201360Y-87156241D01*
X149274655Y-87072002D01*
X149373036Y-87013988D01*
X149486048Y-86987065D01*
X149605765Y-86991939D01*
G36*
X147781334Y-88947833D02*
G01*
X147485000Y-88947833D01*
X147485000Y-87021666D01*
X147781334Y-87021666D01*
X147781334Y-88947833D01*
G37*
X147781334Y-88947833D02*
X147485000Y-88947833D01*
X147485000Y-87021666D01*
X147781334Y-87021666D01*
X147781334Y-88947833D01*
G36*
X146151500Y-88947833D02*
G01*
X145876334Y-88947833D01*
X145876334Y-86217333D01*
X146151500Y-86217333D01*
X146151500Y-88947833D01*
G37*
X146151500Y-88947833D02*
X145876334Y-88947833D01*
X145876334Y-86217333D01*
X146151500Y-86217333D01*
X146151500Y-88947833D01*
G36*
X141748834Y-88947833D02*
G01*
X140542334Y-88947833D01*
X140542334Y-88651500D01*
X141452500Y-88651500D01*
X141452500Y-87762500D01*
X140669334Y-87762500D01*
X140669334Y-87466166D01*
X141452500Y-87466166D01*
X141452500Y-86661833D01*
X140563500Y-86661833D01*
X140563500Y-86365500D01*
X141748834Y-86365500D01*
X141748834Y-88947833D01*
G37*
X141748834Y-88947833D02*
X140542334Y-88947833D01*
X140542334Y-88651500D01*
X141452500Y-88651500D01*
X141452500Y-87762500D01*
X140669334Y-87762500D01*
X140669334Y-87466166D01*
X141452500Y-87466166D01*
X141452500Y-86661833D01*
X140563500Y-86661833D01*
X140563500Y-86365500D01*
X141748834Y-86365500D01*
X141748834Y-88947833D01*
G36*
X140224834Y-88947833D02*
G01*
X139949667Y-88947833D01*
X139949667Y-86217333D01*
X140224834Y-86217333D01*
X140224834Y-88947833D01*
G37*
X140224834Y-88947833D02*
X139949667Y-88947833D01*
X139949667Y-86217333D01*
X140224834Y-86217333D01*
X140224834Y-88947833D01*
G36*
X135312075Y-87017298D02*
G01*
X135400097Y-87078242D01*
X135483500Y-87153592D01*
X135483500Y-87021666D01*
X135758667Y-87021666D01*
X135758667Y-88947833D01*
X135483500Y-88947833D01*
X135483500Y-88259073D01*
X135483492Y-88198650D01*
X135483266Y-88020358D01*
X135482528Y-87878126D01*
X135481007Y-87767115D01*
X135478433Y-87682484D01*
X135474537Y-87619395D01*
X135469046Y-87573008D01*
X135461693Y-87538483D01*
X135452205Y-87510980D01*
X135440313Y-87485659D01*
X135432956Y-87471898D01*
X135363797Y-87385113D01*
X135275414Y-87334621D01*
X135171292Y-87322537D01*
X135081334Y-87328888D01*
X135081334Y-87166120D01*
X135081396Y-87139661D01*
X135083328Y-87066272D01*
X135089740Y-87023093D01*
X135103008Y-87000616D01*
X135125507Y-86989332D01*
X135135568Y-86986521D01*
X135220078Y-86985487D01*
X135312075Y-87017298D01*
G37*
X135312075Y-87017298D02*
X135400097Y-87078242D01*
X135483500Y-87153592D01*
X135483500Y-87021666D01*
X135758667Y-87021666D01*
X135758667Y-88947833D01*
X135483500Y-88947833D01*
X135483500Y-88259073D01*
X135483492Y-88198650D01*
X135483266Y-88020358D01*
X135482528Y-87878126D01*
X135481007Y-87767115D01*
X135478433Y-87682484D01*
X135474537Y-87619395D01*
X135469046Y-87573008D01*
X135461693Y-87538483D01*
X135452205Y-87510980D01*
X135440313Y-87485659D01*
X135432956Y-87471898D01*
X135363797Y-87385113D01*
X135275414Y-87334621D01*
X135171292Y-87322537D01*
X135081334Y-87328888D01*
X135081334Y-87166120D01*
X135081396Y-87139661D01*
X135083328Y-87066272D01*
X135089740Y-87023093D01*
X135103008Y-87000616D01*
X135125507Y-86989332D01*
X135135568Y-86986521D01*
X135220078Y-86985487D01*
X135312075Y-87017298D01*
G36*
X132676573Y-86986458D02*
G01*
X132789255Y-87012546D01*
X132894527Y-87063201D01*
X132975739Y-87131940D01*
X133028167Y-87194248D01*
X133028167Y-87021666D01*
X133303334Y-87021666D01*
X133303334Y-88947833D01*
X133028167Y-88947833D01*
X133028167Y-88248934D01*
X133027995Y-88060291D01*
X133027332Y-87908958D01*
X133025927Y-87790142D01*
X133023526Y-87699053D01*
X133019879Y-87630897D01*
X133014732Y-87580884D01*
X133007834Y-87544222D01*
X132998931Y-87516118D01*
X132987772Y-87491781D01*
X132984406Y-87485333D01*
X132915925Y-87385344D01*
X132837242Y-87318392D01*
X132753929Y-87285564D01*
X132671556Y-87287950D01*
X132595692Y-87326637D01*
X132531909Y-87402714D01*
X132524191Y-87416528D01*
X132514006Y-87439457D01*
X132505852Y-87468069D01*
X132499447Y-87506945D01*
X132494507Y-87560666D01*
X132490749Y-87633813D01*
X132487890Y-87730968D01*
X132485647Y-87856712D01*
X132483736Y-88015626D01*
X132481876Y-88212291D01*
X132475334Y-88947833D01*
X132202667Y-88947833D01*
X132202918Y-88201708D01*
X132202929Y-88178864D01*
X132203448Y-87963081D01*
X132205067Y-87784585D01*
X132208286Y-87638778D01*
X132213606Y-87521059D01*
X132221528Y-87426828D01*
X132232551Y-87351486D01*
X132247177Y-87290432D01*
X132265905Y-87239067D01*
X132289237Y-87192791D01*
X132317672Y-87147003D01*
X132386984Y-87067855D01*
X132480049Y-87014173D01*
X132601670Y-86986345D01*
X132676573Y-86986458D01*
G37*
X132676573Y-86986458D02*
X132789255Y-87012546D01*
X132894527Y-87063201D01*
X132975739Y-87131940D01*
X133028167Y-87194248D01*
X133028167Y-87021666D01*
X133303334Y-87021666D01*
X133303334Y-88947833D01*
X133028167Y-88947833D01*
X133028167Y-88248934D01*
X133027995Y-88060291D01*
X133027332Y-87908958D01*
X133025927Y-87790142D01*
X133023526Y-87699053D01*
X133019879Y-87630897D01*
X133014732Y-87580884D01*
X133007834Y-87544222D01*
X132998931Y-87516118D01*
X132987772Y-87491781D01*
X132984406Y-87485333D01*
X132915925Y-87385344D01*
X132837242Y-87318392D01*
X132753929Y-87285564D01*
X132671556Y-87287950D01*
X132595692Y-87326637D01*
X132531909Y-87402714D01*
X132524191Y-87416528D01*
X132514006Y-87439457D01*
X132505852Y-87468069D01*
X132499447Y-87506945D01*
X132494507Y-87560666D01*
X132490749Y-87633813D01*
X132487890Y-87730968D01*
X132485647Y-87856712D01*
X132483736Y-88015626D01*
X132481876Y-88212291D01*
X132475334Y-88947833D01*
X132202667Y-88947833D01*
X132202918Y-88201708D01*
X132202929Y-88178864D01*
X132203448Y-87963081D01*
X132205067Y-87784585D01*
X132208286Y-87638778D01*
X132213606Y-87521059D01*
X132221528Y-87426828D01*
X132232551Y-87351486D01*
X132247177Y-87290432D01*
X132265905Y-87239067D01*
X132289237Y-87192791D01*
X132317672Y-87147003D01*
X132386984Y-87067855D01*
X132480049Y-87014173D01*
X132601670Y-86986345D01*
X132676573Y-86986458D01*
G36*
X131800500Y-88947833D02*
G01*
X131504167Y-88947833D01*
X131504167Y-87021666D01*
X131800500Y-87021666D01*
X131800500Y-88947833D01*
G37*
X131800500Y-88947833D02*
X131504167Y-88947833D01*
X131504167Y-87021666D01*
X131800500Y-87021666D01*
X131800500Y-88947833D01*
G36*
X147676064Y-86330010D02*
G01*
X147739000Y-86365500D01*
X147757535Y-86388763D01*
X147775997Y-86440989D01*
X147781334Y-86520969D01*
X147781082Y-86539374D01*
X147769106Y-86622121D01*
X147735577Y-86676055D01*
X147675500Y-86710105D01*
X147626107Y-86716107D01*
X147560589Y-86693762D01*
X147505938Y-86644106D01*
X147473951Y-86575045D01*
X147470255Y-86524127D01*
X147482956Y-86449927D01*
X147510948Y-86384364D01*
X147548804Y-86344170D01*
X147600263Y-86326599D01*
X147676064Y-86330010D01*
G37*
X147676064Y-86330010D02*
X147739000Y-86365500D01*
X147757535Y-86388763D01*
X147775997Y-86440989D01*
X147781334Y-86520969D01*
X147781082Y-86539374D01*
X147769106Y-86622121D01*
X147735577Y-86676055D01*
X147675500Y-86710105D01*
X147626107Y-86716107D01*
X147560589Y-86693762D01*
X147505938Y-86644106D01*
X147473951Y-86575045D01*
X147470255Y-86524127D01*
X147482956Y-86449927D01*
X147510948Y-86384364D01*
X147548804Y-86344170D01*
X147600263Y-86326599D01*
X147676064Y-86330010D01*
G36*
X131742706Y-86355680D02*
G01*
X131785123Y-86418394D01*
X131800500Y-86508466D01*
X131792876Y-86593634D01*
X131763120Y-86663642D01*
X131709158Y-86704018D01*
X131662872Y-86720337D01*
X131627868Y-86720157D01*
X131581581Y-86701832D01*
X131541213Y-86673256D01*
X131498762Y-86606520D01*
X131483000Y-86522202D01*
X131485595Y-86493731D01*
X131506284Y-86427338D01*
X131540405Y-86369223D01*
X131579199Y-86336315D01*
X131599051Y-86329670D01*
X131678824Y-86324660D01*
X131742706Y-86355680D01*
G37*
X131742706Y-86355680D02*
X131785123Y-86418394D01*
X131800500Y-86508466D01*
X131792876Y-86593634D01*
X131763120Y-86663642D01*
X131709158Y-86704018D01*
X131662872Y-86720337D01*
X131627868Y-86720157D01*
X131581581Y-86701832D01*
X131541213Y-86673256D01*
X131498762Y-86606520D01*
X131483000Y-86522202D01*
X131485595Y-86493731D01*
X131506284Y-86427338D01*
X131540405Y-86369223D01*
X131579199Y-86336315D01*
X131599051Y-86329670D01*
X131678824Y-86324660D01*
X131742706Y-86355680D01*
G36*
X146045667Y-81327833D02*
G01*
X146045667Y-81751166D01*
X144987334Y-81751166D01*
X144987334Y-82195666D01*
X146045667Y-82195666D01*
X146045667Y-82618285D01*
X145501563Y-82623934D01*
X144957460Y-82629583D01*
X144940388Y-82714250D01*
X144933356Y-82746771D01*
X144863088Y-82960406D01*
X144755752Y-83162064D01*
X144615372Y-83347726D01*
X144445971Y-83513371D01*
X144251571Y-83654979D01*
X144036197Y-83768528D01*
X143803872Y-83849998D01*
X143632667Y-83895821D01*
X143632667Y-84905000D01*
X143188167Y-84905000D01*
X143188167Y-83910166D01*
X142718345Y-83910166D01*
X142732443Y-84894416D01*
X142299167Y-84906480D01*
X142299167Y-83910166D01*
X141833500Y-83910166D01*
X141833500Y-84905000D01*
X141389000Y-84905000D01*
X141389000Y-83910166D01*
X140944500Y-83910166D01*
X140944500Y-84905000D01*
X140500000Y-84905000D01*
X140500000Y-83910166D01*
X140034334Y-83910166D01*
X140034334Y-84905000D01*
X139611000Y-84905000D01*
X139611000Y-83910166D01*
X139145334Y-83910166D01*
X139145334Y-84905000D01*
X138700834Y-84905000D01*
X138700834Y-83910166D01*
X138256334Y-83910166D01*
X138256334Y-84905000D01*
X137811834Y-84905000D01*
X137811834Y-83910166D01*
X137346167Y-83910166D01*
X137346167Y-84905000D01*
X136927344Y-84905000D01*
X136911806Y-84396725D01*
X136896268Y-83888451D01*
X136840759Y-83876294D01*
X136770086Y-83859569D01*
X136520081Y-83776998D01*
X136295848Y-83662422D01*
X136093413Y-83513502D01*
X135908804Y-83327901D01*
X135884884Y-83298972D01*
X135796840Y-83172140D01*
X135715811Y-83026274D01*
X135649917Y-82877191D01*
X135607282Y-82740708D01*
X135579708Y-82619000D01*
X134488667Y-82619000D01*
X134488667Y-82195666D01*
X135568167Y-82195666D01*
X135568167Y-81751166D01*
X134488667Y-81751166D01*
X134488667Y-81327833D01*
X135568167Y-81327833D01*
X135568167Y-80904500D01*
X134488667Y-80904500D01*
X134488667Y-80481166D01*
X135568167Y-80481166D01*
X135568167Y-80036666D01*
X134488667Y-80036666D01*
X134488667Y-79640884D01*
X134695042Y-79627218D01*
X134719126Y-79625750D01*
X134826742Y-79620950D01*
X134958181Y-79617053D01*
X135099009Y-79614427D01*
X135234792Y-79613442D01*
X135568167Y-79613333D01*
X135568167Y-79190000D01*
X134488667Y-79190000D01*
X134488667Y-78766666D01*
X135568167Y-78766666D01*
X135568167Y-78588665D01*
X136012617Y-78588665D01*
X136012641Y-78982848D01*
X136012667Y-79417272D01*
X136012667Y-79450436D01*
X136012714Y-79875314D01*
X136012857Y-80260059D01*
X136013117Y-80606717D01*
X136013514Y-80917337D01*
X136014069Y-81193967D01*
X136014803Y-81438653D01*
X136015736Y-81653445D01*
X136016890Y-81840388D01*
X136018284Y-82001532D01*
X136019940Y-82138924D01*
X136021878Y-82254611D01*
X136024118Y-82350642D01*
X136026682Y-82429063D01*
X136029590Y-82491923D01*
X136032863Y-82541269D01*
X136036522Y-82579150D01*
X136040586Y-82607612D01*
X136045077Y-82628703D01*
X136092408Y-82768770D01*
X136190336Y-82951856D01*
X136320703Y-83114589D01*
X136478815Y-83252324D01*
X136659977Y-83360418D01*
X136859494Y-83434227D01*
X136893081Y-83438355D01*
X136967637Y-83442532D01*
X137079083Y-83446387D01*
X137224588Y-83449922D01*
X137401324Y-83453138D01*
X137606460Y-83456036D01*
X137837169Y-83458615D01*
X138090619Y-83460878D01*
X138363983Y-83462826D01*
X138654431Y-83464458D01*
X138959133Y-83465775D01*
X139275260Y-83466780D01*
X139599983Y-83467471D01*
X139930472Y-83467851D01*
X140263898Y-83467920D01*
X140597432Y-83467679D01*
X140928244Y-83467129D01*
X141253505Y-83466270D01*
X141570386Y-83465104D01*
X141876058Y-83463631D01*
X142167690Y-83461852D01*
X142442454Y-83459768D01*
X142697521Y-83457379D01*
X142930061Y-83454687D01*
X143137244Y-83451693D01*
X143316242Y-83448397D01*
X143464224Y-83444800D01*
X143578363Y-83440902D01*
X143655828Y-83436706D01*
X143693790Y-83432211D01*
X143797152Y-83398547D01*
X143981754Y-83307478D01*
X144148143Y-83184946D01*
X144290563Y-83036431D01*
X144403254Y-82867415D01*
X144480458Y-82683378D01*
X144485197Y-82667270D01*
X144490406Y-82647114D01*
X144495096Y-82624152D01*
X144499290Y-82596303D01*
X144503012Y-82561487D01*
X144506283Y-82517624D01*
X144509126Y-82462633D01*
X144511565Y-82394433D01*
X144513621Y-82310945D01*
X144515319Y-82210089D01*
X144516679Y-82089782D01*
X144517726Y-81947947D01*
X144518481Y-81782501D01*
X144518968Y-81591365D01*
X144519210Y-81372458D01*
X144519228Y-81123701D01*
X144519046Y-80843011D01*
X144518686Y-80528310D01*
X144518172Y-80177517D01*
X144517525Y-79788551D01*
X144516769Y-79359333D01*
X144511084Y-76173750D01*
X144461856Y-76057775D01*
X144452567Y-76036488D01*
X144345027Y-75846579D01*
X144205533Y-75680772D01*
X144038928Y-75543149D01*
X143850056Y-75437787D01*
X143643761Y-75368768D01*
X143631498Y-75366228D01*
X143604900Y-75362190D01*
X143569622Y-75358553D01*
X143523684Y-75355301D01*
X143465106Y-75352421D01*
X143391908Y-75349896D01*
X143302112Y-75347712D01*
X143193737Y-75345853D01*
X143064804Y-75344305D01*
X142913333Y-75343052D01*
X142737345Y-75342079D01*
X142534861Y-75341371D01*
X142303900Y-75340913D01*
X142042484Y-75340690D01*
X141748632Y-75340687D01*
X141420365Y-75340888D01*
X141055704Y-75341280D01*
X140652669Y-75341845D01*
X140209281Y-75342570D01*
X136912250Y-75348250D01*
X136770884Y-75403283D01*
X136639095Y-75462395D01*
X136447498Y-75583398D01*
X136285426Y-75734712D01*
X136152761Y-75916433D01*
X136141665Y-75934699D01*
X136124052Y-75963284D01*
X136108117Y-75990278D01*
X136093774Y-76017774D01*
X136080942Y-76047862D01*
X136069535Y-76082636D01*
X136059470Y-76124185D01*
X136050664Y-76174602D01*
X136043032Y-76235979D01*
X136036492Y-76310406D01*
X136030959Y-76399976D01*
X136026349Y-76506780D01*
X136022579Y-76632910D01*
X136019566Y-76780457D01*
X136017225Y-76951513D01*
X136015474Y-77148169D01*
X136014227Y-77372518D01*
X136013401Y-77626650D01*
X136012914Y-77912658D01*
X136012680Y-78232632D01*
X136012617Y-78588665D01*
X135568167Y-78588665D01*
X135568167Y-78322166D01*
X134488667Y-78322166D01*
X134488667Y-77920000D01*
X134930213Y-77920000D01*
X134954708Y-77919979D01*
X135093324Y-77919119D01*
X135222340Y-77917141D01*
X135333575Y-77914249D01*
X135418843Y-77910647D01*
X135469963Y-77906539D01*
X135568167Y-77893079D01*
X135568167Y-77475500D01*
X134488667Y-77475500D01*
X134488667Y-77052166D01*
X135568167Y-77052166D01*
X135568167Y-76604997D01*
X134488667Y-76635197D01*
X134488667Y-76205500D01*
X135589334Y-76205500D01*
X135589617Y-76157875D01*
X135596590Y-76106900D01*
X135621125Y-76019972D01*
X135659091Y-75916502D01*
X135706039Y-75807467D01*
X135757517Y-75703842D01*
X135809075Y-75616607D01*
X135920015Y-75471124D01*
X136095006Y-75298818D01*
X136296611Y-75152944D01*
X136518290Y-75038060D01*
X136753500Y-74958722D01*
X136912250Y-74918969D01*
X136903981Y-74429818D01*
X136895712Y-73940666D01*
X137346167Y-73940666D01*
X137346167Y-74914333D01*
X137811834Y-74914333D01*
X137811834Y-73940666D01*
X138256334Y-73940666D01*
X138256334Y-74914333D01*
X138700834Y-74914333D01*
X138700834Y-73940666D01*
X139145334Y-73940666D01*
X139145334Y-74914333D01*
X139612432Y-74914333D01*
X139610144Y-74432791D01*
X139607856Y-73951250D01*
X139821095Y-73945217D01*
X140034334Y-73939185D01*
X140034334Y-74914333D01*
X140500000Y-74914333D01*
X140500000Y-73940666D01*
X140944500Y-73940666D01*
X140944500Y-74914333D01*
X141389000Y-74914333D01*
X141389000Y-73940666D01*
X141833500Y-73940666D01*
X141833500Y-74914333D01*
X142299167Y-74914333D01*
X142299167Y-73940666D01*
X142722500Y-73940666D01*
X142722500Y-74914333D01*
X143188167Y-74914333D01*
X143188167Y-73940666D01*
X143631887Y-73940666D01*
X143637569Y-74429917D01*
X143643250Y-74919168D01*
X143791417Y-74957155D01*
X143831215Y-74967712D01*
X143989504Y-75019287D01*
X144133897Y-75085498D01*
X144284794Y-75175368D01*
X144350474Y-75221991D01*
X144454229Y-75307295D01*
X144557527Y-75403543D01*
X144648585Y-75499556D01*
X144715624Y-75584155D01*
X144748199Y-75635055D01*
X144832643Y-75795678D01*
X144903951Y-75972733D01*
X144954109Y-76147291D01*
X144966974Y-76205500D01*
X146045667Y-76205500D01*
X146045667Y-76607666D01*
X145849875Y-76607737D01*
X145825321Y-76607835D01*
X145721381Y-76609345D01*
X145593329Y-76612393D01*
X145455119Y-76616611D01*
X145320709Y-76621634D01*
X144987334Y-76635461D01*
X144987334Y-77052166D01*
X146045667Y-77052166D01*
X146045667Y-77475500D01*
X144987334Y-77475500D01*
X144987334Y-77926648D01*
X145516500Y-77914001D01*
X146045667Y-77901354D01*
X146045667Y-78322166D01*
X144987334Y-78322166D01*
X144987334Y-78766666D01*
X146045667Y-78766666D01*
X146045667Y-79190000D01*
X144987334Y-79190000D01*
X144987310Y-79623916D01*
X145516488Y-79616729D01*
X146045667Y-79609542D01*
X146045667Y-80036666D01*
X144987334Y-80036666D01*
X144987334Y-80481166D01*
X146045667Y-80481166D01*
X146045667Y-80904500D01*
X144987334Y-80904500D01*
X144987334Y-81327833D01*
X146045667Y-81327833D01*
G37*
X146045667Y-81327833D02*
X146045667Y-81751166D01*
X144987334Y-81751166D01*
X144987334Y-82195666D01*
X146045667Y-82195666D01*
X146045667Y-82618285D01*
X145501563Y-82623934D01*
X144957460Y-82629583D01*
X144940388Y-82714250D01*
X144933356Y-82746771D01*
X144863088Y-82960406D01*
X144755752Y-83162064D01*
X144615372Y-83347726D01*
X144445971Y-83513371D01*
X144251571Y-83654979D01*
X144036197Y-83768528D01*
X143803872Y-83849998D01*
X143632667Y-83895821D01*
X143632667Y-84905000D01*
X143188167Y-84905000D01*
X143188167Y-83910166D01*
X142718345Y-83910166D01*
X142732443Y-84894416D01*
X142299167Y-84906480D01*
X142299167Y-83910166D01*
X141833500Y-83910166D01*
X141833500Y-84905000D01*
X141389000Y-84905000D01*
X141389000Y-83910166D01*
X140944500Y-83910166D01*
X140944500Y-84905000D01*
X140500000Y-84905000D01*
X140500000Y-83910166D01*
X140034334Y-83910166D01*
X140034334Y-84905000D01*
X139611000Y-84905000D01*
X139611000Y-83910166D01*
X139145334Y-83910166D01*
X139145334Y-84905000D01*
X138700834Y-84905000D01*
X138700834Y-83910166D01*
X138256334Y-83910166D01*
X138256334Y-84905000D01*
X137811834Y-84905000D01*
X137811834Y-83910166D01*
X137346167Y-83910166D01*
X137346167Y-84905000D01*
X136927344Y-84905000D01*
X136911806Y-84396725D01*
X136896268Y-83888451D01*
X136840759Y-83876294D01*
X136770086Y-83859569D01*
X136520081Y-83776998D01*
X136295848Y-83662422D01*
X136093413Y-83513502D01*
X135908804Y-83327901D01*
X135884884Y-83298972D01*
X135796840Y-83172140D01*
X135715811Y-83026274D01*
X135649917Y-82877191D01*
X135607282Y-82740708D01*
X135579708Y-82619000D01*
X134488667Y-82619000D01*
X134488667Y-82195666D01*
X135568167Y-82195666D01*
X135568167Y-81751166D01*
X134488667Y-81751166D01*
X134488667Y-81327833D01*
X135568167Y-81327833D01*
X135568167Y-80904500D01*
X134488667Y-80904500D01*
X134488667Y-80481166D01*
X135568167Y-80481166D01*
X135568167Y-80036666D01*
X134488667Y-80036666D01*
X134488667Y-79640884D01*
X134695042Y-79627218D01*
X134719126Y-79625750D01*
X134826742Y-79620950D01*
X134958181Y-79617053D01*
X135099009Y-79614427D01*
X135234792Y-79613442D01*
X135568167Y-79613333D01*
X135568167Y-79190000D01*
X134488667Y-79190000D01*
X134488667Y-78766666D01*
X135568167Y-78766666D01*
X135568167Y-78588665D01*
X136012617Y-78588665D01*
X136012641Y-78982848D01*
X136012667Y-79417272D01*
X136012667Y-79450436D01*
X136012714Y-79875314D01*
X136012857Y-80260059D01*
X136013117Y-80606717D01*
X136013514Y-80917337D01*
X136014069Y-81193967D01*
X136014803Y-81438653D01*
X136015736Y-81653445D01*
X136016890Y-81840388D01*
X136018284Y-82001532D01*
X136019940Y-82138924D01*
X136021878Y-82254611D01*
X136024118Y-82350642D01*
X136026682Y-82429063D01*
X136029590Y-82491923D01*
X136032863Y-82541269D01*
X136036522Y-82579150D01*
X136040586Y-82607612D01*
X136045077Y-82628703D01*
X136092408Y-82768770D01*
X136190336Y-82951856D01*
X136320703Y-83114589D01*
X136478815Y-83252324D01*
X136659977Y-83360418D01*
X136859494Y-83434227D01*
X136893081Y-83438355D01*
X136967637Y-83442532D01*
X137079083Y-83446387D01*
X137224588Y-83449922D01*
X137401324Y-83453138D01*
X137606460Y-83456036D01*
X137837169Y-83458615D01*
X138090619Y-83460878D01*
X138363983Y-83462826D01*
X138654431Y-83464458D01*
X138959133Y-83465775D01*
X139275260Y-83466780D01*
X139599983Y-83467471D01*
X139930472Y-83467851D01*
X140263898Y-83467920D01*
X140597432Y-83467679D01*
X140928244Y-83467129D01*
X141253505Y-83466270D01*
X141570386Y-83465104D01*
X141876058Y-83463631D01*
X142167690Y-83461852D01*
X142442454Y-83459768D01*
X142697521Y-83457379D01*
X142930061Y-83454687D01*
X143137244Y-83451693D01*
X143316242Y-83448397D01*
X143464224Y-83444800D01*
X143578363Y-83440902D01*
X143655828Y-83436706D01*
X143693790Y-83432211D01*
X143797152Y-83398547D01*
X143981754Y-83307478D01*
X144148143Y-83184946D01*
X144290563Y-83036431D01*
X144403254Y-82867415D01*
X144480458Y-82683378D01*
X144485197Y-82667270D01*
X144490406Y-82647114D01*
X144495096Y-82624152D01*
X144499290Y-82596303D01*
X144503012Y-82561487D01*
X144506283Y-82517624D01*
X144509126Y-82462633D01*
X144511565Y-82394433D01*
X144513621Y-82310945D01*
X144515319Y-82210089D01*
X144516679Y-82089782D01*
X144517726Y-81947947D01*
X144518481Y-81782501D01*
X144518968Y-81591365D01*
X144519210Y-81372458D01*
X144519228Y-81123701D01*
X144519046Y-80843011D01*
X144518686Y-80528310D01*
X144518172Y-80177517D01*
X144517525Y-79788551D01*
X144516769Y-79359333D01*
X144511084Y-76173750D01*
X144461856Y-76057775D01*
X144452567Y-76036488D01*
X144345027Y-75846579D01*
X144205533Y-75680772D01*
X144038928Y-75543149D01*
X143850056Y-75437787D01*
X143643761Y-75368768D01*
X143631498Y-75366228D01*
X143604900Y-75362190D01*
X143569622Y-75358553D01*
X143523684Y-75355301D01*
X143465106Y-75352421D01*
X143391908Y-75349896D01*
X143302112Y-75347712D01*
X143193737Y-75345853D01*
X143064804Y-75344305D01*
X142913333Y-75343052D01*
X142737345Y-75342079D01*
X142534861Y-75341371D01*
X142303900Y-75340913D01*
X142042484Y-75340690D01*
X141748632Y-75340687D01*
X141420365Y-75340888D01*
X141055704Y-75341280D01*
X140652669Y-75341845D01*
X140209281Y-75342570D01*
X136912250Y-75348250D01*
X136770884Y-75403283D01*
X136639095Y-75462395D01*
X136447498Y-75583398D01*
X136285426Y-75734712D01*
X136152761Y-75916433D01*
X136141665Y-75934699D01*
X136124052Y-75963284D01*
X136108117Y-75990278D01*
X136093774Y-76017774D01*
X136080942Y-76047862D01*
X136069535Y-76082636D01*
X136059470Y-76124185D01*
X136050664Y-76174602D01*
X136043032Y-76235979D01*
X136036492Y-76310406D01*
X136030959Y-76399976D01*
X136026349Y-76506780D01*
X136022579Y-76632910D01*
X136019566Y-76780457D01*
X136017225Y-76951513D01*
X136015474Y-77148169D01*
X136014227Y-77372518D01*
X136013401Y-77626650D01*
X136012914Y-77912658D01*
X136012680Y-78232632D01*
X136012617Y-78588665D01*
X135568167Y-78588665D01*
X135568167Y-78322166D01*
X134488667Y-78322166D01*
X134488667Y-77920000D01*
X134930213Y-77920000D01*
X134954708Y-77919979D01*
X135093324Y-77919119D01*
X135222340Y-77917141D01*
X135333575Y-77914249D01*
X135418843Y-77910647D01*
X135469963Y-77906539D01*
X135568167Y-77893079D01*
X135568167Y-77475500D01*
X134488667Y-77475500D01*
X134488667Y-77052166D01*
X135568167Y-77052166D01*
X135568167Y-76604997D01*
X134488667Y-76635197D01*
X134488667Y-76205500D01*
X135589334Y-76205500D01*
X135589617Y-76157875D01*
X135596590Y-76106900D01*
X135621125Y-76019972D01*
X135659091Y-75916502D01*
X135706039Y-75807467D01*
X135757517Y-75703842D01*
X135809075Y-75616607D01*
X135920015Y-75471124D01*
X136095006Y-75298818D01*
X136296611Y-75152944D01*
X136518290Y-75038060D01*
X136753500Y-74958722D01*
X136912250Y-74918969D01*
X136903981Y-74429818D01*
X136895712Y-73940666D01*
X137346167Y-73940666D01*
X137346167Y-74914333D01*
X137811834Y-74914333D01*
X137811834Y-73940666D01*
X138256334Y-73940666D01*
X138256334Y-74914333D01*
X138700834Y-74914333D01*
X138700834Y-73940666D01*
X139145334Y-73940666D01*
X139145334Y-74914333D01*
X139612432Y-74914333D01*
X139610144Y-74432791D01*
X139607856Y-73951250D01*
X139821095Y-73945217D01*
X140034334Y-73939185D01*
X140034334Y-74914333D01*
X140500000Y-74914333D01*
X140500000Y-73940666D01*
X140944500Y-73940666D01*
X140944500Y-74914333D01*
X141389000Y-74914333D01*
X141389000Y-73940666D01*
X141833500Y-73940666D01*
X141833500Y-74914333D01*
X142299167Y-74914333D01*
X142299167Y-73940666D01*
X142722500Y-73940666D01*
X142722500Y-74914333D01*
X143188167Y-74914333D01*
X143188167Y-73940666D01*
X143631887Y-73940666D01*
X143637569Y-74429917D01*
X143643250Y-74919168D01*
X143791417Y-74957155D01*
X143831215Y-74967712D01*
X143989504Y-75019287D01*
X144133897Y-75085498D01*
X144284794Y-75175368D01*
X144350474Y-75221991D01*
X144454229Y-75307295D01*
X144557527Y-75403543D01*
X144648585Y-75499556D01*
X144715624Y-75584155D01*
X144748199Y-75635055D01*
X144832643Y-75795678D01*
X144903951Y-75972733D01*
X144954109Y-76147291D01*
X144966974Y-76205500D01*
X146045667Y-76205500D01*
X146045667Y-76607666D01*
X145849875Y-76607737D01*
X145825321Y-76607835D01*
X145721381Y-76609345D01*
X145593329Y-76612393D01*
X145455119Y-76616611D01*
X145320709Y-76621634D01*
X144987334Y-76635461D01*
X144987334Y-77052166D01*
X146045667Y-77052166D01*
X146045667Y-77475500D01*
X144987334Y-77475500D01*
X144987334Y-77926648D01*
X145516500Y-77914001D01*
X146045667Y-77901354D01*
X146045667Y-78322166D01*
X144987334Y-78322166D01*
X144987334Y-78766666D01*
X146045667Y-78766666D01*
X146045667Y-79190000D01*
X144987334Y-79190000D01*
X144987310Y-79623916D01*
X145516488Y-79616729D01*
X146045667Y-79609542D01*
X146045667Y-80036666D01*
X144987334Y-80036666D01*
X144987334Y-80481166D01*
X146045667Y-80481166D01*
X146045667Y-80904500D01*
X144987334Y-80904500D01*
X144987334Y-81327833D01*
X146045667Y-81327833D01*
G36*
X143018834Y-82276805D02*
G01*
X143018812Y-82291617D01*
X143017441Y-82393277D01*
X143014248Y-82478078D01*
X143009668Y-82537530D01*
X143004137Y-82563141D01*
X143002486Y-82564133D01*
X142970400Y-82568918D01*
X142905872Y-82571987D01*
X142817303Y-82573086D01*
X142713095Y-82571960D01*
X142436750Y-82566083D01*
X142430353Y-82454958D01*
X142423955Y-82343833D01*
X142786000Y-82343833D01*
X142786000Y-82005166D01*
X143018834Y-82005166D01*
X143018834Y-82276805D01*
G37*
X143018834Y-82276805D02*
X143018812Y-82291617D01*
X143017441Y-82393277D01*
X143014248Y-82478078D01*
X143009668Y-82537530D01*
X143004137Y-82563141D01*
X143002486Y-82564133D01*
X142970400Y-82568918D01*
X142905872Y-82571987D01*
X142817303Y-82573086D01*
X142713095Y-82571960D01*
X142436750Y-82566083D01*
X142430353Y-82454958D01*
X142423955Y-82343833D01*
X142786000Y-82343833D01*
X142786000Y-82005166D01*
X143018834Y-82005166D01*
X143018834Y-82276805D01*
G36*
X141537167Y-82576666D02*
G01*
X140605834Y-82576666D01*
X140605834Y-82343833D01*
X141537167Y-82343833D01*
X141537167Y-82576666D01*
G37*
X141537167Y-82576666D02*
X140605834Y-82576666D01*
X140605834Y-82343833D01*
X141537167Y-82343833D01*
X141537167Y-82576666D01*
G36*
X139695667Y-82576666D02*
G01*
X138764334Y-82576666D01*
X138764334Y-82343833D01*
X139695667Y-82343833D01*
X139695667Y-82576666D01*
G37*
X139695667Y-82576666D02*
X138764334Y-82576666D01*
X138764334Y-82343833D01*
X139695667Y-82343833D01*
X139695667Y-82576666D01*
G36*
X137515500Y-82343833D02*
G01*
X137875334Y-82343833D01*
X137875334Y-82446138D01*
X137874548Y-82479847D01*
X137869262Y-82534917D01*
X137860637Y-82563141D01*
X137858986Y-82564133D01*
X137826900Y-82568918D01*
X137762372Y-82571987D01*
X137673803Y-82573086D01*
X137569595Y-82571960D01*
X137293250Y-82566083D01*
X137287344Y-82285625D01*
X137281438Y-82005166D01*
X137515500Y-82005166D01*
X137515500Y-82343833D01*
G37*
X137515500Y-82343833D02*
X137875334Y-82343833D01*
X137875334Y-82446138D01*
X137874548Y-82479847D01*
X137869262Y-82534917D01*
X137860637Y-82563141D01*
X137858986Y-82564133D01*
X137826900Y-82568918D01*
X137762372Y-82571987D01*
X137673803Y-82573086D01*
X137569595Y-82571960D01*
X137293250Y-82566083D01*
X137287344Y-82285625D01*
X137281438Y-82005166D01*
X137515500Y-82005166D01*
X137515500Y-82343833D01*
G36*
X143018834Y-81158500D02*
G01*
X142786000Y-81158500D01*
X142786000Y-80248333D01*
X143018834Y-80248333D01*
X143018834Y-81158500D01*
G37*
X143018834Y-81158500D02*
X142786000Y-81158500D01*
X142786000Y-80248333D01*
X143018834Y-80248333D01*
X143018834Y-81158500D01*
G36*
X137515500Y-81158500D02*
G01*
X137282667Y-81158500D01*
X137282667Y-80248333D01*
X137515500Y-80248333D01*
X137515500Y-81158500D01*
G37*
X137515500Y-81158500D02*
X137282667Y-81158500D01*
X137282667Y-80248333D01*
X137515500Y-80248333D01*
X137515500Y-81158500D01*
G36*
X143018834Y-79401666D02*
G01*
X142786000Y-79401666D01*
X142786000Y-78512666D01*
X143018834Y-78512666D01*
X143018834Y-79401666D01*
G37*
X143018834Y-79401666D02*
X142786000Y-79401666D01*
X142786000Y-78512666D01*
X143018834Y-78512666D01*
X143018834Y-79401666D01*
G36*
X137515500Y-79401666D02*
G01*
X137282667Y-79401666D01*
X137282667Y-78512666D01*
X137515500Y-78512666D01*
X137515500Y-79401666D01*
G37*
X137515500Y-79401666D02*
X137282667Y-79401666D01*
X137282667Y-78512666D01*
X137515500Y-78512666D01*
X137515500Y-79401666D01*
G36*
X143018834Y-77644833D02*
G01*
X142786000Y-77644833D01*
X142786000Y-77306166D01*
X142426167Y-77306166D01*
X142426167Y-77094500D01*
X143018834Y-77094500D01*
X143018834Y-77644833D01*
G37*
X143018834Y-77644833D02*
X142786000Y-77644833D01*
X142786000Y-77306166D01*
X142426167Y-77306166D01*
X142426167Y-77094500D01*
X143018834Y-77094500D01*
X143018834Y-77644833D01*
G36*
X137875334Y-77306166D02*
G01*
X137515500Y-77306166D01*
X137515500Y-77644833D01*
X137282667Y-77644833D01*
X137282667Y-77094500D01*
X137875334Y-77094500D01*
X137875334Y-77306166D01*
G37*
X137875334Y-77306166D02*
X137515500Y-77306166D01*
X137515500Y-77644833D01*
X137282667Y-77644833D01*
X137282667Y-77094500D01*
X137875334Y-77094500D01*
X137875334Y-77306166D01*
G36*
X141537167Y-77306166D02*
G01*
X140605834Y-77306166D01*
X140605834Y-77094500D01*
X141537167Y-77094500D01*
X141537167Y-77306166D01*
G37*
X141537167Y-77306166D02*
X140605834Y-77306166D01*
X140605834Y-77094500D01*
X141537167Y-77094500D01*
X141537167Y-77306166D01*
G36*
X139695667Y-77306166D02*
G01*
X138764334Y-77306166D01*
X138764334Y-77094500D01*
X139695667Y-77094500D01*
X139695667Y-77306166D01*
G37*
X139695667Y-77306166D02*
X138764334Y-77306166D01*
X138764334Y-77094500D01*
X139695667Y-77094500D01*
X139695667Y-77306166D01*
G36*
X143516393Y-75834200D02*
G01*
X143638795Y-75872270D01*
X143738803Y-75941996D01*
X143812095Y-76039150D01*
X143854351Y-76159506D01*
X143861247Y-76298837D01*
X143833599Y-76417803D01*
X143769513Y-76527834D01*
X143674990Y-76614292D01*
X143555441Y-76670603D01*
X143507385Y-76681905D01*
X143385610Y-76683960D01*
X143271721Y-76651185D01*
X143171352Y-76588992D01*
X143090137Y-76502788D01*
X143033708Y-76397986D01*
X143007699Y-76279993D01*
X143017743Y-76154221D01*
X143020663Y-76142553D01*
X143072033Y-76026602D01*
X143154798Y-75931439D01*
X143261112Y-75864001D01*
X143383128Y-75831224D01*
X143516393Y-75834200D01*
G37*
X143516393Y-75834200D02*
X143638795Y-75872270D01*
X143738803Y-75941996D01*
X143812095Y-76039150D01*
X143854351Y-76159506D01*
X143861247Y-76298837D01*
X143833599Y-76417803D01*
X143769513Y-76527834D01*
X143674990Y-76614292D01*
X143555441Y-76670603D01*
X143507385Y-76681905D01*
X143385610Y-76683960D01*
X143271721Y-76651185D01*
X143171352Y-76588992D01*
X143090137Y-76502788D01*
X143033708Y-76397986D01*
X143007699Y-76279993D01*
X143017743Y-76154221D01*
X143020663Y-76142553D01*
X143072033Y-76026602D01*
X143154798Y-75931439D01*
X143261112Y-75864001D01*
X143383128Y-75831224D01*
X143516393Y-75834200D01*
%TD*%
M02*
