%TF.GenerationSoftware,KiCad,Pcbnew,8.0.6*%
%TF.CreationDate,2024-12-31T08:05:46-06:00*%
%TF.ProjectId,003Ball,30303342-616c-46c2-9e6b-696361645f70,rev?*%
%TF.SameCoordinates,Original*%
%TF.FileFunction,Copper,L2,Bot*%
%TF.FilePolarity,Positive*%
%FSLAX46Y46*%
G04 Gerber Fmt 4.6, Leading zero omitted, Abs format (unit mm)*
G04 Created by KiCad (PCBNEW 8.0.6) date 2024-12-31 08:05:46*
%MOMM*%
%LPD*%
G01*
G04 APERTURE LIST*
%TA.AperFunction,ComponentPad*%
%ADD10C,1.100000*%
%TD*%
%TA.AperFunction,ComponentPad*%
%ADD11C,2.200000*%
%TD*%
%TA.AperFunction,ComponentPad*%
%ADD12R,1.900000X3.000000*%
%TD*%
%TA.AperFunction,ComponentPad*%
%ADD13C,1.300000*%
%TD*%
%TA.AperFunction,ComponentPad*%
%ADD14R,1.700000X1.700000*%
%TD*%
%TA.AperFunction,ComponentPad*%
%ADD15O,1.700000X1.700000*%
%TD*%
%TA.AperFunction,ComponentPad*%
%ADD16O,2.100000X1.000000*%
%TD*%
%TA.AperFunction,ComponentPad*%
%ADD17O,1.800000X1.000000*%
%TD*%
%TA.AperFunction,ViaPad*%
%ADD18C,0.600000*%
%TD*%
%TA.AperFunction,Conductor*%
%ADD19C,0.200000*%
%TD*%
G04 APERTURE END LIST*
D10*
%TO.P,U2,1,Reserved*%
%TO.N,unconnected-(U2-Reserved-Pad1)*%
X184500000Y-84150000D03*
%TO.P,U2,2,Reserved*%
%TO.N,unconnected-(U2-Reserved-Pad2)*%
X184500000Y-82370000D03*
%TO.P,U2,3,VDCPix*%
%TO.N,Net-(U2-VDCPix)*%
X184500000Y-80590000D03*
%TO.P,U2,4,VCC*%
%TO.N,+1V8*%
X184500000Y-78810000D03*
%TO.P,U2,5,VDDIO*%
%TO.N,VCC*%
X184500000Y-77030000D03*
%TO.P,U2,6,GPO*%
%TO.N,unconnected-(U2-GPO-Pad6)*%
X184500000Y-75250000D03*
%TO.P,U2,7,Reset*%
%TO.N,Rst*%
X184500000Y-73470000D03*
%TO.P,U2,8,VSS*%
%TO.N,VSS*%
X184500000Y-71690000D03*
%TO.P,U2,9,MOTION*%
%TO.N,Motion*%
X173800000Y-70800000D03*
%TO.P,U2,10,SCLK*%
%TO.N,SCLK*%
X173800000Y-72580000D03*
%TO.P,U2,11,MOSI*%
%TO.N,MOSI*%
X173800000Y-74360000D03*
%TO.P,U2,12,MISO*%
%TO.N,MISO*%
X173800000Y-76140000D03*
%TO.P,U2,13,NCS*%
%TO.N,VSS*%
X173800000Y-77920000D03*
%TO.P,U2,14,Reserved*%
%TO.N,unconnected-(U2-Reserved-Pad14)*%
X173800000Y-79700000D03*
%TO.P,U2,15,LED*%
%TO.N,Net-(U2-LED)*%
X173800000Y-81480000D03*
%TO.P,U2,16,Reserved*%
%TO.N,unconnected-(U2-Reserved-Pad16)*%
X173800000Y-83260000D03*
%TD*%
D11*
%TO.P,SW3,1,1*%
%TO.N,Right*%
X201260000Y-44320000D03*
%TO.P,SW3,2,2*%
%TO.N,VSS*%
X194910000Y-46860000D03*
%TD*%
D12*
%TO.P,SW2,*%
%TO.N,*%
X173915000Y-48605000D03*
X184915000Y-48605000D03*
D13*
%TO.P,SW2,A,A*%
%TO.N,/RotaryB*%
X176915000Y-56105000D03*
%TO.P,SW2,B,B*%
%TO.N,/RotaryA*%
X181915000Y-56105000D03*
%TO.P,SW2,C,C*%
%TO.N,VSS*%
X179415000Y-56105000D03*
%TO.P,SW2,S1,S1*%
X176915000Y-41605000D03*
%TO.P,SW2,S2,S2*%
%TO.N,/RotaryS*%
X181915000Y-41605000D03*
%TD*%
D11*
%TO.P,SW1,1,1*%
%TO.N,Left*%
X163740000Y-44120000D03*
%TO.P,SW1,2,2*%
%TO.N,VSS*%
X157390000Y-46660000D03*
%TD*%
D14*
%TO.P,J4,1,Pin_1*%
%TO.N,SCLK*%
X177600000Y-64400000D03*
D15*
%TO.P,J4,2,Pin_2*%
%TO.N,MOSI*%
X180140000Y-64400000D03*
%TO.P,J4,3,Pin_3*%
%TO.N,MISO*%
X182680000Y-64400000D03*
%TO.P,J4,4,Pin_4*%
%TO.N,VSS*%
X185220000Y-64400000D03*
%TD*%
D14*
%TO.P,J3,1,Pin_1*%
%TO.N,Net-(J3-Pin_1)*%
X166832500Y-62275000D03*
D15*
%TO.P,J3,2,Pin_2*%
%TO.N,Net-(J3-Pin_2)*%
X164292500Y-62275000D03*
%TO.P,J3,3,Pin_3*%
%TO.N,Net-(J3-Pin_3)*%
X161752500Y-62275000D03*
%TO.P,J3,4,Pin_4*%
%TO.N,Net-(J3-Pin_4)*%
X159212500Y-62275000D03*
%TO.P,J3,5,Pin_5*%
%TO.N,Net-(J3-Pin_5)*%
X156672500Y-62275000D03*
%TD*%
D14*
%TO.P,J2,1,Pin_1*%
%TO.N,VCC*%
X164880000Y-85100000D03*
D15*
%TO.P,J2,2,Pin_2*%
%TO.N,SWIO*%
X162340000Y-85100000D03*
%TO.P,J2,3,Pin_3*%
%TO.N,VSS*%
X159800000Y-85100000D03*
%TD*%
D16*
%TO.P,J1,S1,SHIELD*%
%TO.N,VSS*%
X157640000Y-67755000D03*
D17*
X153490000Y-67755000D03*
D16*
X157640000Y-76395000D03*
D17*
X153490000Y-76395000D03*
%TD*%
D18*
%TO.N,VSS*%
X155200000Y-65400000D03*
X168400000Y-65000000D03*
X166200000Y-66400000D03*
X164400000Y-67600000D03*
X166000000Y-70400000D03*
X166400000Y-77000000D03*
X198800000Y-77400000D03*
X198400000Y-84000000D03*
X190400000Y-76400000D03*
X191400000Y-85800000D03*
X186400000Y-85800000D03*
X194800000Y-76800000D03*
X166400000Y-68400000D03*
%TO.N,VCC*%
X167400000Y-83000000D03*
X166800000Y-67600000D03*
%TO.N,+5V*%
X196400000Y-75400000D03*
%TO.N,DPU*%
X164000000Y-75900000D03*
X166900000Y-72000000D03*
%TO.N,/RotaryA*%
X181800000Y-61200000D03*
X169800000Y-71800000D03*
%TO.N,/RotaryB*%
X169983202Y-70592776D03*
%TO.N,/RotaryS*%
X169956809Y-69699930D03*
%TO.N,+5V*%
X160152500Y-69675000D03*
X160152500Y-74475000D03*
%TO.N,D+*%
X160352500Y-71275000D03*
X159752500Y-72900000D03*
%TD*%
D19*
%TO.N,VCC*%
X167500000Y-68300000D02*
X167500000Y-82900000D01*
X166800000Y-67600000D02*
X167500000Y-68300000D01*
X167500000Y-82900000D02*
X167400000Y-83000000D01*
%TO.N,+5V*%
X160152500Y-74475000D02*
X160152500Y-77852500D01*
X160152500Y-77852500D02*
X170900000Y-88600000D01*
X170900000Y-88600000D02*
X192500000Y-88600000D01*
X196400000Y-84700000D02*
X196400000Y-75400000D01*
X192500000Y-88600000D02*
X196400000Y-84700000D01*
%TO.N,MISO*%
X182680000Y-64400000D02*
X181080000Y-62800000D01*
X181080000Y-62800000D02*
X176765686Y-62800000D01*
X176765686Y-62800000D02*
X175400000Y-64165686D01*
X175400000Y-64165686D02*
X175400000Y-66965686D01*
X171200000Y-71165686D02*
X171200000Y-73540000D01*
X175400000Y-66965686D02*
X171200000Y-71165686D01*
X171200000Y-73540000D02*
X173800000Y-76140000D01*
%TO.N,/RotaryA*%
X175000000Y-66600000D02*
X175000000Y-64000000D01*
X169800000Y-71800000D02*
X175000000Y-66600000D01*
X177800000Y-61200000D02*
X181800000Y-61200000D01*
X175000000Y-64000000D02*
X177800000Y-61200000D01*
%TO.N,DPU*%
X164300000Y-74600000D02*
X166900000Y-72000000D01*
X164300000Y-75600000D02*
X164300000Y-74600000D01*
X164000000Y-75900000D02*
X164300000Y-75600000D01*
%TO.N,/RotaryS*%
X181915000Y-41605000D02*
X181915000Y-48885000D01*
X181915000Y-48885000D02*
X170000000Y-60800000D01*
X170000000Y-60800000D02*
X170000000Y-69656739D01*
X170000000Y-69656739D02*
X169956809Y-69699930D01*
%TO.N,/RotaryB*%
X170600000Y-69975978D02*
X169983202Y-70592776D01*
X176915000Y-56105000D02*
X170600000Y-62420000D01*
X170600000Y-62420000D02*
X170600000Y-69975978D01*
%TO.N,MOSI*%
X180140000Y-64400000D02*
X175460000Y-69080000D01*
X172760000Y-74360000D02*
X173800000Y-74360000D01*
X175460000Y-69080000D02*
X174120000Y-69080000D01*
X174120000Y-69080000D02*
X171600000Y-71600000D01*
X171600000Y-71600000D02*
X171600000Y-73200000D01*
X171600000Y-73200000D02*
X172760000Y-74360000D01*
%TO.N,+5V*%
X160152500Y-74475000D02*
X160952500Y-73675000D01*
X160952500Y-73675000D02*
X160952500Y-70475000D01*
X160952500Y-70475000D02*
X160152500Y-69675000D01*
%TO.N,D+*%
X159752500Y-71875000D02*
X160352500Y-71275000D01*
X159752500Y-72900000D02*
X159752500Y-71875000D01*
%TD*%
%TA.AperFunction,Conductor*%
%TO.N,VSS*%
G36*
X205528365Y-31475544D02*
G01*
X205832169Y-31491468D01*
X205845075Y-31492824D01*
X206142334Y-31539907D01*
X206155017Y-31542602D01*
X206445740Y-31620503D01*
X206458085Y-31624514D01*
X206739070Y-31732375D01*
X206750905Y-31737645D01*
X207019087Y-31874291D01*
X207030322Y-31880779D01*
X207282727Y-32044693D01*
X207293228Y-32052322D01*
X207527129Y-32241732D01*
X207536774Y-32250417D01*
X207749582Y-32463225D01*
X207758267Y-32472870D01*
X207947677Y-32706771D01*
X207955306Y-32717272D01*
X208119220Y-32969677D01*
X208125710Y-32980917D01*
X208262349Y-33249083D01*
X208267628Y-33260940D01*
X208375485Y-33541915D01*
X208379496Y-33554259D01*
X208457395Y-33844975D01*
X208460093Y-33857671D01*
X208507174Y-34154923D01*
X208508531Y-34167830D01*
X208524456Y-34471626D01*
X208524626Y-34478117D01*
X208524626Y-88521874D01*
X208524456Y-88528365D01*
X208508531Y-88832169D01*
X208507174Y-88845076D01*
X208460093Y-89142328D01*
X208457395Y-89155024D01*
X208379496Y-89445740D01*
X208375485Y-89458084D01*
X208267628Y-89739059D01*
X208262349Y-89750916D01*
X208125710Y-90019082D01*
X208119220Y-90030322D01*
X207955306Y-90282727D01*
X207947677Y-90293228D01*
X207758267Y-90527129D01*
X207749582Y-90536774D01*
X207536774Y-90749582D01*
X207527129Y-90758267D01*
X207293228Y-90947677D01*
X207282727Y-90955306D01*
X207030322Y-91119220D01*
X207019082Y-91125710D01*
X206750916Y-91262349D01*
X206739059Y-91267628D01*
X206458084Y-91375485D01*
X206445740Y-91379496D01*
X206155024Y-91457395D01*
X206142328Y-91460093D01*
X205845076Y-91507174D01*
X205832169Y-91508531D01*
X205528387Y-91524454D01*
X205521835Y-91524624D01*
X154574072Y-91499535D01*
X154573516Y-91499500D01*
X154565892Y-91499500D01*
X154503246Y-91499500D01*
X154496756Y-91499330D01*
X154192953Y-91483407D01*
X154180046Y-91482050D01*
X153882794Y-91434971D01*
X153870097Y-91432273D01*
X153579376Y-91354374D01*
X153567033Y-91350363D01*
X153286064Y-91242510D01*
X153274206Y-91237231D01*
X153006036Y-91100591D01*
X152994796Y-91094101D01*
X152742391Y-90930187D01*
X152731890Y-90922558D01*
X152497989Y-90733149D01*
X152488344Y-90724464D01*
X152275535Y-90511655D01*
X152266850Y-90502010D01*
X152077441Y-90268109D01*
X152069812Y-90257608D01*
X151905896Y-90005199D01*
X151899408Y-89993963D01*
X151769527Y-89739059D01*
X151762767Y-89725790D01*
X151757489Y-89713935D01*
X151649636Y-89432966D01*
X151645625Y-89420623D01*
X151644626Y-89416895D01*
X151567724Y-89129896D01*
X151565028Y-89117205D01*
X151559217Y-89080518D01*
X151517949Y-88819953D01*
X151516592Y-88807046D01*
X151500670Y-88503243D01*
X151500500Y-88496753D01*
X151500500Y-87893713D01*
X153649500Y-87893713D01*
X153649500Y-88106287D01*
X153682754Y-88316243D01*
X153743514Y-88503243D01*
X153748444Y-88518414D01*
X153844951Y-88707820D01*
X153969890Y-88879786D01*
X154120213Y-89030109D01*
X154292179Y-89155048D01*
X154292181Y-89155049D01*
X154292184Y-89155051D01*
X154481588Y-89251557D01*
X154683757Y-89317246D01*
X154893713Y-89350500D01*
X154893714Y-89350500D01*
X155106286Y-89350500D01*
X155106287Y-89350500D01*
X155316243Y-89317246D01*
X155518412Y-89251557D01*
X155707816Y-89155051D01*
X155759907Y-89117205D01*
X155879786Y-89030109D01*
X155879788Y-89030106D01*
X155879792Y-89030104D01*
X156030104Y-88879792D01*
X156030106Y-88879788D01*
X156030109Y-88879786D01*
X156155048Y-88707820D01*
X156155047Y-88707820D01*
X156155051Y-88707816D01*
X156251557Y-88518412D01*
X156317246Y-88316243D01*
X156350500Y-88106287D01*
X156350500Y-87893713D01*
X156317246Y-87683757D01*
X156251557Y-87481588D01*
X156155051Y-87292184D01*
X156155049Y-87292181D01*
X156155048Y-87292179D01*
X156030109Y-87120213D01*
X155879786Y-86969890D01*
X155707820Y-86844951D01*
X155518414Y-86748444D01*
X155518413Y-86748443D01*
X155518412Y-86748443D01*
X155316243Y-86682754D01*
X155316241Y-86682753D01*
X155316240Y-86682753D01*
X155154957Y-86657208D01*
X155106287Y-86649500D01*
X154893713Y-86649500D01*
X154845042Y-86657208D01*
X154683760Y-86682753D01*
X154481585Y-86748444D01*
X154292179Y-86844951D01*
X154120213Y-86969890D01*
X153969890Y-87120213D01*
X153844951Y-87292179D01*
X153748444Y-87481585D01*
X153682753Y-87683760D01*
X153649500Y-87893713D01*
X151500500Y-87893713D01*
X151500500Y-84849999D01*
X158469364Y-84849999D01*
X158469364Y-84850000D01*
X159366988Y-84850000D01*
X159334075Y-84907007D01*
X159300000Y-85034174D01*
X159300000Y-85165826D01*
X159334075Y-85292993D01*
X159366988Y-85350000D01*
X158469364Y-85350000D01*
X158526567Y-85563486D01*
X158526570Y-85563492D01*
X158626399Y-85777578D01*
X158761894Y-85971082D01*
X158928917Y-86138105D01*
X159122421Y-86273600D01*
X159336507Y-86373429D01*
X159336516Y-86373433D01*
X159550000Y-86430634D01*
X159550000Y-85533012D01*
X159607007Y-85565925D01*
X159734174Y-85600000D01*
X159865826Y-85600000D01*
X159992993Y-85565925D01*
X160050000Y-85533012D01*
X160050000Y-86430633D01*
X160263483Y-86373433D01*
X160263492Y-86373429D01*
X160477578Y-86273600D01*
X160671082Y-86138105D01*
X160838105Y-85971082D01*
X160968119Y-85785405D01*
X161022696Y-85741781D01*
X161092195Y-85734588D01*
X161154549Y-85766110D01*
X161171269Y-85785405D01*
X161301505Y-85971401D01*
X161468599Y-86138495D01*
X161565384Y-86206265D01*
X161662165Y-86274032D01*
X161662167Y-86274033D01*
X161662170Y-86274035D01*
X161876337Y-86373903D01*
X162104592Y-86435063D01*
X162281034Y-86450500D01*
X162339999Y-86455659D01*
X162340000Y-86455659D01*
X162340001Y-86455659D01*
X162398966Y-86450500D01*
X162575408Y-86435063D01*
X162803663Y-86373903D01*
X163017830Y-86274035D01*
X163211401Y-86138495D01*
X163333329Y-86016566D01*
X163394648Y-85983084D01*
X163464340Y-85988068D01*
X163520274Y-86029939D01*
X163537189Y-86060917D01*
X163586202Y-86192328D01*
X163586206Y-86192335D01*
X163672452Y-86307544D01*
X163672455Y-86307547D01*
X163787664Y-86393793D01*
X163787671Y-86393797D01*
X163922517Y-86444091D01*
X163922516Y-86444091D01*
X163929444Y-86444835D01*
X163982127Y-86450500D01*
X165777872Y-86450499D01*
X165837483Y-86444091D01*
X165972331Y-86393796D01*
X166087546Y-86307546D01*
X166173796Y-86192331D01*
X166224091Y-86057483D01*
X166230500Y-85997873D01*
X166230499Y-85079095D01*
X166250183Y-85012057D01*
X166302987Y-84966302D01*
X166372146Y-84956358D01*
X166435702Y-84985383D01*
X166442180Y-84991415D01*
X170415139Y-88964374D01*
X170415149Y-88964385D01*
X170419479Y-88968715D01*
X170419480Y-88968716D01*
X170531284Y-89080520D01*
X170605955Y-89123631D01*
X170668215Y-89159577D01*
X170820942Y-89200500D01*
X170820943Y-89200500D01*
X192413331Y-89200500D01*
X192413347Y-89200501D01*
X192420943Y-89200501D01*
X192579054Y-89200501D01*
X192579057Y-89200501D01*
X192731785Y-89159577D01*
X192794045Y-89123631D01*
X192868716Y-89080520D01*
X192980520Y-88968716D01*
X192980520Y-88968714D01*
X192990724Y-88958511D01*
X192990728Y-88958506D01*
X194055521Y-87893713D01*
X204149500Y-87893713D01*
X204149500Y-88106287D01*
X204182754Y-88316243D01*
X204243514Y-88503243D01*
X204248444Y-88518414D01*
X204344951Y-88707820D01*
X204469890Y-88879786D01*
X204620213Y-89030109D01*
X204792179Y-89155048D01*
X204792181Y-89155049D01*
X204792184Y-89155051D01*
X204981588Y-89251557D01*
X205183757Y-89317246D01*
X205393713Y-89350500D01*
X205393714Y-89350500D01*
X205606286Y-89350500D01*
X205606287Y-89350500D01*
X205816243Y-89317246D01*
X206018412Y-89251557D01*
X206207816Y-89155051D01*
X206259907Y-89117205D01*
X206379786Y-89030109D01*
X206379788Y-89030106D01*
X206379792Y-89030104D01*
X206530104Y-88879792D01*
X206530106Y-88879788D01*
X206530109Y-88879786D01*
X206655048Y-88707820D01*
X206655047Y-88707820D01*
X206655051Y-88707816D01*
X206751557Y-88518412D01*
X206817246Y-88316243D01*
X206850500Y-88106287D01*
X206850500Y-87893713D01*
X206817246Y-87683757D01*
X206751557Y-87481588D01*
X206655051Y-87292184D01*
X206655049Y-87292181D01*
X206655048Y-87292179D01*
X206530109Y-87120213D01*
X206379786Y-86969890D01*
X206207820Y-86844951D01*
X206018414Y-86748444D01*
X206018413Y-86748443D01*
X206018412Y-86748443D01*
X205816243Y-86682754D01*
X205816241Y-86682753D01*
X205816240Y-86682753D01*
X205654957Y-86657208D01*
X205606287Y-86649500D01*
X205393713Y-86649500D01*
X205345042Y-86657208D01*
X205183760Y-86682753D01*
X204981585Y-86748444D01*
X204792179Y-86844951D01*
X204620213Y-86969890D01*
X204469890Y-87120213D01*
X204344951Y-87292179D01*
X204248444Y-87481585D01*
X204182753Y-87683760D01*
X204149500Y-87893713D01*
X194055521Y-87893713D01*
X196758506Y-85190728D01*
X196758511Y-85190724D01*
X196768714Y-85180520D01*
X196768716Y-85180520D01*
X196880520Y-85068716D01*
X196938774Y-84967816D01*
X196959577Y-84931785D01*
X197000501Y-84779057D01*
X197000501Y-84620943D01*
X197000501Y-84613348D01*
X197000500Y-84613330D01*
X197000500Y-75982412D01*
X197020185Y-75915373D01*
X197027555Y-75905097D01*
X197029810Y-75902267D01*
X197029816Y-75902262D01*
X197125789Y-75749522D01*
X197185368Y-75579255D01*
X197185369Y-75579249D01*
X197205565Y-75400003D01*
X197205565Y-75399996D01*
X197185369Y-75220750D01*
X197185368Y-75220745D01*
X197173607Y-75187135D01*
X197125789Y-75050478D01*
X197029816Y-74897738D01*
X196902262Y-74770184D01*
X196858781Y-74742863D01*
X196749523Y-74674211D01*
X196579254Y-74614631D01*
X196579249Y-74614630D01*
X196400004Y-74594435D01*
X196399996Y-74594435D01*
X196220750Y-74614630D01*
X196220745Y-74614631D01*
X196050476Y-74674211D01*
X195897737Y-74770184D01*
X195770184Y-74897737D01*
X195674211Y-75050476D01*
X195614631Y-75220745D01*
X195614630Y-75220750D01*
X195594435Y-75399996D01*
X195594435Y-75400003D01*
X195614630Y-75579249D01*
X195614631Y-75579254D01*
X195674211Y-75749523D01*
X195728833Y-75836452D01*
X195768760Y-75899996D01*
X195770185Y-75902263D01*
X195772445Y-75905097D01*
X195773334Y-75907275D01*
X195773889Y-75908158D01*
X195773734Y-75908255D01*
X195798855Y-75969783D01*
X195799500Y-75982412D01*
X195799500Y-84399903D01*
X195779815Y-84466942D01*
X195763181Y-84487584D01*
X192287584Y-87963181D01*
X192226261Y-87996666D01*
X192199903Y-87999500D01*
X171200097Y-87999500D01*
X171133058Y-87979815D01*
X171112416Y-87963181D01*
X167148847Y-83999612D01*
X167115362Y-83938289D01*
X167120346Y-83868597D01*
X167162218Y-83812664D01*
X167227682Y-83788247D01*
X167250411Y-83788711D01*
X167399996Y-83805565D01*
X167400000Y-83805565D01*
X167400004Y-83805565D01*
X167579249Y-83785369D01*
X167579252Y-83785368D01*
X167579255Y-83785368D01*
X167749522Y-83725789D01*
X167902262Y-83629816D01*
X168029816Y-83502262D01*
X168125789Y-83349522D01*
X168185368Y-83179255D01*
X168185369Y-83179249D01*
X168205565Y-83000003D01*
X168205565Y-82999996D01*
X168185369Y-82820750D01*
X168185366Y-82820737D01*
X168125790Y-82650479D01*
X168119506Y-82640478D01*
X168100500Y-82574507D01*
X168100500Y-77920000D01*
X172744919Y-77920000D01*
X172765191Y-78125834D01*
X172825233Y-78323766D01*
X172900975Y-78465469D01*
X172900976Y-78465469D01*
X173446447Y-77920000D01*
X172900976Y-77374529D01*
X172900975Y-77374529D01*
X172825234Y-77516234D01*
X172765191Y-77714166D01*
X172744919Y-77920000D01*
X168100500Y-77920000D01*
X168100500Y-71799996D01*
X168994435Y-71799996D01*
X168994435Y-71800003D01*
X169014630Y-71979249D01*
X169014631Y-71979254D01*
X169074211Y-72149523D01*
X169090875Y-72176043D01*
X169170184Y-72302262D01*
X169297738Y-72429816D01*
X169450478Y-72525789D01*
X169541692Y-72557706D01*
X169620745Y-72585368D01*
X169620750Y-72585369D01*
X169799996Y-72605565D01*
X169800000Y-72605565D01*
X169800004Y-72605565D01*
X169979249Y-72585369D01*
X169979252Y-72585368D01*
X169979255Y-72585368D01*
X170149522Y-72525789D01*
X170302262Y-72429816D01*
X170387819Y-72344259D01*
X170449142Y-72310774D01*
X170518834Y-72315758D01*
X170574767Y-72357630D01*
X170599184Y-72423094D01*
X170599500Y-72431940D01*
X170599500Y-73453330D01*
X170599499Y-73453348D01*
X170599499Y-73619054D01*
X170599498Y-73619054D01*
X170635672Y-73754057D01*
X170640423Y-73771785D01*
X170657002Y-73800500D01*
X170706536Y-73886296D01*
X170719479Y-73908714D01*
X170719481Y-73908717D01*
X170838349Y-74027585D01*
X170838355Y-74027590D01*
X172721447Y-75910682D01*
X172754932Y-75972005D01*
X172757169Y-76010516D01*
X172745630Y-76127685D01*
X172744417Y-76140000D01*
X172746632Y-76162497D01*
X172764699Y-76345932D01*
X172764700Y-76345934D01*
X172824768Y-76543954D01*
X172922315Y-76726450D01*
X172922317Y-76726452D01*
X173053589Y-76886410D01*
X173184864Y-76994143D01*
X173213550Y-77017685D01*
X173213552Y-77017686D01*
X173213555Y-77017688D01*
X173278294Y-77052292D01*
X173307522Y-77073969D01*
X173803553Y-77570000D01*
X173753922Y-77570000D01*
X173664905Y-77593852D01*
X173585095Y-77639930D01*
X173519930Y-77705095D01*
X173473852Y-77784905D01*
X173450000Y-77873922D01*
X173450000Y-77966078D01*
X173473852Y-78055095D01*
X173519930Y-78134905D01*
X173585095Y-78200070D01*
X173664905Y-78246148D01*
X173753922Y-78270000D01*
X173803551Y-78270000D01*
X173307522Y-78766029D01*
X173278297Y-78787705D01*
X173213549Y-78822315D01*
X173053589Y-78953589D01*
X172922317Y-79113547D01*
X172824769Y-79296043D01*
X172764699Y-79494067D01*
X172744417Y-79700000D01*
X172764699Y-79905932D01*
X172764700Y-79905934D01*
X172824768Y-80103954D01*
X172922315Y-80286450D01*
X172922317Y-80286452D01*
X173053590Y-80446410D01*
X173111757Y-80494147D01*
X173151091Y-80551892D01*
X173152962Y-80621737D01*
X173116774Y-80681505D01*
X173111757Y-80685853D01*
X173053590Y-80733589D01*
X172922317Y-80893547D01*
X172824769Y-81076043D01*
X172764699Y-81274067D01*
X172744417Y-81480000D01*
X172764699Y-81685932D01*
X172764700Y-81685934D01*
X172824768Y-81883954D01*
X172922315Y-82066450D01*
X172922317Y-82066452D01*
X173053590Y-82226410D01*
X173111757Y-82274147D01*
X173151091Y-82331892D01*
X173152962Y-82401737D01*
X173116774Y-82461505D01*
X173111757Y-82465853D01*
X173053590Y-82513589D01*
X172922317Y-82673547D01*
X172824769Y-82856043D01*
X172764699Y-83054067D01*
X172744417Y-83260000D01*
X172764699Y-83465932D01*
X172764700Y-83465934D01*
X172824768Y-83663954D01*
X172922315Y-83846450D01*
X172956969Y-83888677D01*
X173053589Y-84006410D01*
X173120719Y-84061501D01*
X173213550Y-84137685D01*
X173396046Y-84235232D01*
X173594066Y-84295300D01*
X173594065Y-84295300D01*
X173612529Y-84297118D01*
X173800000Y-84315583D01*
X174005934Y-84295300D01*
X174189508Y-84239613D01*
X174259372Y-84238991D01*
X174318484Y-84276239D01*
X174348075Y-84339533D01*
X174349500Y-84358275D01*
X174349500Y-87005891D01*
X174383608Y-87133187D01*
X174416554Y-87190250D01*
X174449500Y-87247314D01*
X174542686Y-87340500D01*
X174656814Y-87406392D01*
X174784108Y-87440500D01*
X174784110Y-87440500D01*
X183515890Y-87440500D01*
X183515892Y-87440500D01*
X183643186Y-87406392D01*
X183757314Y-87340500D01*
X183850500Y-87247314D01*
X183916392Y-87133186D01*
X183950500Y-87005892D01*
X183950500Y-85248275D01*
X183970185Y-85181236D01*
X184022989Y-85135481D01*
X184092147Y-85125537D01*
X184110482Y-85129611D01*
X184294066Y-85185300D01*
X184294065Y-85185300D01*
X184312529Y-85187118D01*
X184500000Y-85205583D01*
X184705934Y-85185300D01*
X184903954Y-85125232D01*
X185086450Y-85027685D01*
X185246410Y-84896410D01*
X185377685Y-84736450D01*
X185475232Y-84553954D01*
X185535300Y-84355934D01*
X185555583Y-84150000D01*
X185535300Y-83944066D01*
X185475232Y-83746046D01*
X185377685Y-83563550D01*
X185297574Y-83465934D01*
X185246410Y-83403589D01*
X185188243Y-83355854D01*
X185148908Y-83298108D01*
X185147037Y-83228264D01*
X185183224Y-83168495D01*
X185188243Y-83164146D01*
X185246410Y-83116410D01*
X185297574Y-83054066D01*
X185377685Y-82956450D01*
X185475232Y-82773954D01*
X185535300Y-82575934D01*
X185555583Y-82370000D01*
X185535300Y-82164066D01*
X185475232Y-81966046D01*
X185377685Y-81783550D01*
X185297574Y-81685934D01*
X185246410Y-81623589D01*
X185188243Y-81575854D01*
X185148908Y-81518108D01*
X185147037Y-81448264D01*
X185183224Y-81388495D01*
X185188243Y-81384146D01*
X185246410Y-81336410D01*
X185297574Y-81274066D01*
X185377685Y-81176450D01*
X185475232Y-80993954D01*
X185535300Y-80795934D01*
X185555583Y-80590000D01*
X185535300Y-80384066D01*
X185475232Y-80186046D01*
X185377685Y-80003550D01*
X185297574Y-79905934D01*
X185246410Y-79843589D01*
X185188243Y-79795854D01*
X185148908Y-79738108D01*
X185147037Y-79668264D01*
X185183224Y-79608495D01*
X185188243Y-79604146D01*
X185246410Y-79556410D01*
X185297574Y-79494066D01*
X185377685Y-79396450D01*
X185475232Y-79213954D01*
X185535300Y-79015934D01*
X185555583Y-78810000D01*
X185535300Y-78604066D01*
X185475232Y-78406046D01*
X185377685Y-78223550D01*
X185325702Y-78160209D01*
X185246410Y-78063589D01*
X185188243Y-78015854D01*
X185148908Y-77958108D01*
X185147037Y-77888264D01*
X185183224Y-77828495D01*
X185188243Y-77824146D01*
X185246410Y-77776410D01*
X185255093Y-77765830D01*
X185377685Y-77616450D01*
X185475232Y-77433954D01*
X185535300Y-77235934D01*
X185555583Y-77030000D01*
X185535300Y-76824066D01*
X185475232Y-76626046D01*
X185377685Y-76443550D01*
X185297574Y-76345934D01*
X185246410Y-76283589D01*
X185188243Y-76235854D01*
X185148908Y-76178108D01*
X185147037Y-76108264D01*
X185183224Y-76048495D01*
X185188243Y-76044146D01*
X185246410Y-75996410D01*
X185257898Y-75982412D01*
X185377685Y-75836450D01*
X185475232Y-75653954D01*
X185535300Y-75455934D01*
X185555583Y-75250000D01*
X185535300Y-75044066D01*
X185475232Y-74846046D01*
X185377685Y-74663550D01*
X185298722Y-74567333D01*
X185246410Y-74503589D01*
X185188243Y-74455854D01*
X185148908Y-74398108D01*
X185147037Y-74328264D01*
X185183224Y-74268495D01*
X185188243Y-74264146D01*
X185246410Y-74216410D01*
X185288000Y-74165732D01*
X185377685Y-74056450D01*
X185475232Y-73873954D01*
X185535300Y-73675934D01*
X185555583Y-73470000D01*
X185535300Y-73264066D01*
X185475232Y-73066046D01*
X185377685Y-72883550D01*
X185297574Y-72785934D01*
X185246410Y-72723589D01*
X185086451Y-72592315D01*
X185021703Y-72557706D01*
X184992477Y-72536030D01*
X184496447Y-72040000D01*
X184546078Y-72040000D01*
X184635095Y-72016148D01*
X184714905Y-71970070D01*
X184780070Y-71904905D01*
X184826148Y-71825095D01*
X184850000Y-71736078D01*
X184850000Y-71689999D01*
X184853553Y-71689999D01*
X184853553Y-71690000D01*
X185399022Y-72235469D01*
X185474766Y-72093764D01*
X185534808Y-71895834D01*
X185555080Y-71690000D01*
X185534808Y-71484165D01*
X185474766Y-71286233D01*
X185399023Y-71144528D01*
X184853553Y-71689999D01*
X184850000Y-71689999D01*
X184850000Y-71643922D01*
X184826148Y-71554905D01*
X184780070Y-71475095D01*
X184714905Y-71409930D01*
X184635095Y-71363852D01*
X184546078Y-71340000D01*
X184496447Y-71340000D01*
X184500000Y-71336447D01*
X185045469Y-70790976D01*
X185045469Y-70790975D01*
X184903766Y-70715233D01*
X184705834Y-70655191D01*
X184500000Y-70634919D01*
X184294165Y-70655191D01*
X184110495Y-70710907D01*
X184040628Y-70711530D01*
X183981515Y-70674282D01*
X183951924Y-70610987D01*
X183950500Y-70592246D01*
X183950500Y-69614110D01*
X183950500Y-69614108D01*
X183916392Y-69486814D01*
X183850500Y-69372686D01*
X183757314Y-69279500D01*
X183700250Y-69246554D01*
X183643187Y-69213608D01*
X183579539Y-69196554D01*
X183515892Y-69179500D01*
X183515891Y-69179500D01*
X176509097Y-69179500D01*
X176442058Y-69159815D01*
X176396303Y-69107011D01*
X176386359Y-69037853D01*
X176415384Y-68974297D01*
X176421416Y-68967819D01*
X177168292Y-68220943D01*
X179656470Y-65732763D01*
X179717791Y-65699280D01*
X179776238Y-65700670D01*
X179904592Y-65735063D01*
X180081034Y-65750500D01*
X180139999Y-65755659D01*
X180140000Y-65755659D01*
X180140001Y-65755659D01*
X180198966Y-65750500D01*
X180375408Y-65735063D01*
X180603663Y-65673903D01*
X180817830Y-65574035D01*
X181011401Y-65438495D01*
X181178495Y-65271401D01*
X181308425Y-65085842D01*
X181363002Y-65042217D01*
X181432500Y-65035023D01*
X181494855Y-65066546D01*
X181511575Y-65085842D01*
X181641281Y-65271082D01*
X181641505Y-65271401D01*
X181808599Y-65438495D01*
X181905384Y-65506265D01*
X182002165Y-65574032D01*
X182002167Y-65574033D01*
X182002170Y-65574035D01*
X182216337Y-65673903D01*
X182444592Y-65735063D01*
X182621034Y-65750500D01*
X182679999Y-65755659D01*
X182680000Y-65755659D01*
X182680001Y-65755659D01*
X182738966Y-65750500D01*
X182915408Y-65735063D01*
X183143663Y-65673903D01*
X183357830Y-65574035D01*
X183551401Y-65438495D01*
X183718495Y-65271401D01*
X183848730Y-65085405D01*
X183903307Y-65041781D01*
X183972805Y-65034587D01*
X184035160Y-65066110D01*
X184051879Y-65085405D01*
X184181890Y-65271078D01*
X184348917Y-65438105D01*
X184542421Y-65573600D01*
X184756507Y-65673429D01*
X184756516Y-65673433D01*
X184970000Y-65730634D01*
X184970000Y-64833012D01*
X185027007Y-64865925D01*
X185154174Y-64900000D01*
X185285826Y-64900000D01*
X185412993Y-64865925D01*
X185470000Y-64833012D01*
X185470000Y-65730633D01*
X185683483Y-65673433D01*
X185683492Y-65673429D01*
X185897578Y-65573600D01*
X186091082Y-65438105D01*
X186258105Y-65271082D01*
X186393600Y-65077578D01*
X186493429Y-64863492D01*
X186493432Y-64863486D01*
X186550636Y-64650000D01*
X185653012Y-64650000D01*
X185685925Y-64592993D01*
X185720000Y-64465826D01*
X185720000Y-64334174D01*
X185685925Y-64207007D01*
X185653012Y-64150000D01*
X186550636Y-64150000D01*
X186550635Y-64149999D01*
X186493432Y-63936513D01*
X186493429Y-63936507D01*
X186393600Y-63722422D01*
X186393599Y-63722420D01*
X186258113Y-63528926D01*
X186258108Y-63528920D01*
X186091082Y-63361894D01*
X185897578Y-63226399D01*
X185683492Y-63126570D01*
X185683486Y-63126567D01*
X185470000Y-63069364D01*
X185470000Y-63966988D01*
X185412993Y-63934075D01*
X185285826Y-63900000D01*
X185154174Y-63900000D01*
X185027007Y-63934075D01*
X184970000Y-63966988D01*
X184970000Y-63069364D01*
X184969999Y-63069364D01*
X184756513Y-63126567D01*
X184756507Y-63126570D01*
X184542422Y-63226399D01*
X184542420Y-63226400D01*
X184348926Y-63361886D01*
X184348920Y-63361891D01*
X184181891Y-63528920D01*
X184181890Y-63528922D01*
X184051880Y-63714595D01*
X183997303Y-63758219D01*
X183927804Y-63765412D01*
X183865450Y-63733890D01*
X183848730Y-63714594D01*
X183718494Y-63528597D01*
X183551402Y-63361506D01*
X183551395Y-63361501D01*
X183357834Y-63225967D01*
X183357830Y-63225965D01*
X183143663Y-63126097D01*
X183143659Y-63126096D01*
X183143655Y-63126094D01*
X182915413Y-63064938D01*
X182915403Y-63064936D01*
X182680001Y-63044341D01*
X182679999Y-63044341D01*
X182444596Y-63064936D01*
X182444583Y-63064939D01*
X182316241Y-63099327D01*
X182246392Y-63097664D01*
X182196468Y-63067233D01*
X181567590Y-62438355D01*
X181567588Y-62438352D01*
X181448717Y-62319481D01*
X181448716Y-62319480D01*
X181361904Y-62269360D01*
X181361904Y-62269359D01*
X181361900Y-62269358D01*
X181311785Y-62240423D01*
X181159057Y-62199499D01*
X181000943Y-62199499D01*
X180993347Y-62199499D01*
X180993331Y-62199500D01*
X177949097Y-62199500D01*
X177882058Y-62179815D01*
X177836303Y-62127011D01*
X177826359Y-62057853D01*
X177855384Y-61994297D01*
X177861416Y-61987819D01*
X178012416Y-61836819D01*
X178073739Y-61803334D01*
X178100097Y-61800500D01*
X181217588Y-61800500D01*
X181284627Y-61820185D01*
X181294903Y-61827555D01*
X181297736Y-61829814D01*
X181297738Y-61829816D01*
X181450478Y-61925789D01*
X181620745Y-61985368D01*
X181620750Y-61985369D01*
X181799996Y-62005565D01*
X181800000Y-62005565D01*
X181800004Y-62005565D01*
X181979249Y-61985369D01*
X181979252Y-61985368D01*
X181979255Y-61985368D01*
X182149522Y-61925789D01*
X182302262Y-61829816D01*
X182429816Y-61702262D01*
X182525789Y-61549522D01*
X182585368Y-61379255D01*
X182585608Y-61377127D01*
X182605565Y-61200003D01*
X182605565Y-61199996D01*
X182585369Y-61020750D01*
X182585368Y-61020745D01*
X182539289Y-60889059D01*
X182525789Y-60850478D01*
X182429816Y-60697738D01*
X182302262Y-60570184D01*
X182219363Y-60518095D01*
X182149523Y-60474211D01*
X181979254Y-60414631D01*
X181979249Y-60414630D01*
X181800004Y-60394435D01*
X181799996Y-60394435D01*
X181620750Y-60414630D01*
X181620745Y-60414631D01*
X181450476Y-60474211D01*
X181297736Y-60570185D01*
X181294903Y-60572445D01*
X181292724Y-60573334D01*
X181291842Y-60573889D01*
X181291744Y-60573734D01*
X181230217Y-60598855D01*
X181217588Y-60599500D01*
X177886669Y-60599500D01*
X177886653Y-60599499D01*
X177879057Y-60599499D01*
X177720943Y-60599499D01*
X177613587Y-60628265D01*
X177568210Y-60640424D01*
X177568209Y-60640425D01*
X177533066Y-60660716D01*
X177533064Y-60660717D01*
X177431290Y-60719475D01*
X177431282Y-60719481D01*
X174519481Y-63631282D01*
X174519480Y-63631284D01*
X174471382Y-63714594D01*
X174469361Y-63718094D01*
X174469359Y-63718096D01*
X174440425Y-63768209D01*
X174440424Y-63768210D01*
X174440423Y-63768215D01*
X174399499Y-63920943D01*
X174399499Y-63920945D01*
X174399499Y-64089046D01*
X174399500Y-64089059D01*
X174399500Y-66299902D01*
X174379815Y-66366941D01*
X174363181Y-66387583D01*
X171412181Y-69338583D01*
X171350858Y-69372068D01*
X171281166Y-69367084D01*
X171225233Y-69325212D01*
X171200816Y-69259748D01*
X171200500Y-69250902D01*
X171200500Y-62720097D01*
X171220185Y-62653058D01*
X171236819Y-62632416D01*
X173549757Y-60319478D01*
X176598175Y-57271059D01*
X176659496Y-57237576D01*
X176708639Y-57236853D01*
X176808390Y-57255500D01*
X176808392Y-57255500D01*
X177021608Y-57255500D01*
X177021610Y-57255500D01*
X177231198Y-57216321D01*
X177430019Y-57139298D01*
X177611302Y-57027052D01*
X177768872Y-56883407D01*
X177897366Y-56713255D01*
X177951270Y-56605000D01*
X177992403Y-56522394D01*
X177992403Y-56522393D01*
X177992405Y-56522389D01*
X178045994Y-56334043D01*
X178083273Y-56274952D01*
X178146583Y-56245395D01*
X178215823Y-56254757D01*
X178269009Y-56300067D01*
X178284526Y-56334046D01*
X178338058Y-56522196D01*
X178338064Y-56522211D01*
X178433061Y-56712991D01*
X178433064Y-56712996D01*
X178441836Y-56724610D01*
X178932037Y-56234409D01*
X178949075Y-56297993D01*
X179014901Y-56412007D01*
X179107993Y-56505099D01*
X179222007Y-56570925D01*
X179285590Y-56587962D01*
X178797991Y-57075559D01*
X178900204Y-57138847D01*
X178900208Y-57138849D01*
X179098936Y-57215836D01*
X179098941Y-57215837D01*
X179308439Y-57255000D01*
X179521561Y-57255000D01*
X179731058Y-57215837D01*
X179731063Y-57215836D01*
X179929791Y-57138849D01*
X179929798Y-57138846D01*
X180032006Y-57075560D01*
X180032006Y-57075559D01*
X179544410Y-56587962D01*
X179607993Y-56570925D01*
X179722007Y-56505099D01*
X179815099Y-56412007D01*
X179880925Y-56297993D01*
X179897962Y-56234409D01*
X180388162Y-56724609D01*
X180388163Y-56724609D01*
X180396940Y-56712988D01*
X180396942Y-56712985D01*
X180491933Y-56522216D01*
X180491938Y-56522203D01*
X180545472Y-56334047D01*
X180582751Y-56274953D01*
X180646061Y-56245395D01*
X180715300Y-56254757D01*
X180768487Y-56300066D01*
X180784005Y-56334045D01*
X180798537Y-56385118D01*
X180832675Y-56505099D01*
X180837596Y-56522392D01*
X180837596Y-56522394D01*
X180932632Y-56713253D01*
X180932634Y-56713255D01*
X181061128Y-56883407D01*
X181218698Y-57027052D01*
X181399981Y-57139298D01*
X181598802Y-57216321D01*
X181808390Y-57255500D01*
X181808392Y-57255500D01*
X182021608Y-57255500D01*
X182021610Y-57255500D01*
X182231198Y-57216321D01*
X182430019Y-57139298D01*
X182611302Y-57027052D01*
X182768872Y-56883407D01*
X182897366Y-56713255D01*
X182951270Y-56605000D01*
X182992403Y-56522394D01*
X182992403Y-56522393D01*
X182992405Y-56522389D01*
X183050756Y-56317310D01*
X183070429Y-56105000D01*
X183050756Y-55892690D01*
X182992405Y-55687611D01*
X182992403Y-55687606D01*
X182992403Y-55687605D01*
X182897367Y-55496746D01*
X182768872Y-55326593D01*
X182611302Y-55182948D01*
X182430019Y-55070702D01*
X182430017Y-55070701D01*
X182232447Y-54994163D01*
X182231198Y-54993679D01*
X182021610Y-54954500D01*
X181808390Y-54954500D01*
X181598802Y-54993679D01*
X181598799Y-54993679D01*
X181598799Y-54993680D01*
X181399982Y-55070701D01*
X181399980Y-55070702D01*
X181218699Y-55182947D01*
X181061127Y-55326593D01*
X180932632Y-55496746D01*
X180837596Y-55687605D01*
X180837596Y-55687607D01*
X180784005Y-55875954D01*
X180746725Y-55935047D01*
X180683415Y-55964604D01*
X180614176Y-55955242D01*
X180560990Y-55909931D01*
X180545472Y-55875952D01*
X180491938Y-55687796D01*
X180491933Y-55687783D01*
X180396942Y-55497014D01*
X180396937Y-55497006D01*
X180388163Y-55485389D01*
X179897962Y-55975589D01*
X179880925Y-55912007D01*
X179815099Y-55797993D01*
X179722007Y-55704901D01*
X179607993Y-55639075D01*
X179544409Y-55622037D01*
X180032007Y-55134439D01*
X179929793Y-55071151D01*
X179929789Y-55071149D01*
X179731063Y-54994163D01*
X179731058Y-54994162D01*
X179521561Y-54955000D01*
X179308439Y-54955000D01*
X179098941Y-54994162D01*
X179098936Y-54994163D01*
X178900210Y-55071149D01*
X178900201Y-55071154D01*
X178797992Y-55134438D01*
X178797991Y-55134439D01*
X179285590Y-55622037D01*
X179222007Y-55639075D01*
X179107993Y-55704901D01*
X179014901Y-55797993D01*
X178949075Y-55912007D01*
X178932037Y-55975589D01*
X178441836Y-55485388D01*
X178433059Y-55497010D01*
X178338066Y-55687783D01*
X178338058Y-55687803D01*
X178284526Y-55875953D01*
X178247247Y-55935046D01*
X178183938Y-55964604D01*
X178114698Y-55955242D01*
X178061511Y-55909932D01*
X178045994Y-55875954D01*
X178045994Y-55875953D01*
X177992405Y-55687611D01*
X177992403Y-55687606D01*
X177992403Y-55687605D01*
X177897367Y-55496746D01*
X177768872Y-55326593D01*
X177611302Y-55182948D01*
X177430019Y-55070702D01*
X177430017Y-55070701D01*
X177232447Y-54994163D01*
X177231198Y-54993679D01*
X177021610Y-54954500D01*
X176994097Y-54954500D01*
X176927058Y-54934815D01*
X176881303Y-54882011D01*
X176871359Y-54812853D01*
X176900384Y-54749297D01*
X176906416Y-54742819D01*
X182395520Y-49253716D01*
X182474577Y-49116784D01*
X182515501Y-48964057D01*
X182515501Y-48805942D01*
X182515501Y-48798347D01*
X182515500Y-48798329D01*
X182515500Y-47057135D01*
X183464500Y-47057135D01*
X183464500Y-50152870D01*
X183464501Y-50152876D01*
X183470908Y-50212483D01*
X183521202Y-50347328D01*
X183521206Y-50347335D01*
X183607452Y-50462544D01*
X183607455Y-50462547D01*
X183722664Y-50548793D01*
X183722671Y-50548797D01*
X183857517Y-50599091D01*
X183857516Y-50599091D01*
X183864444Y-50599835D01*
X183917127Y-50605500D01*
X185912872Y-50605499D01*
X185972483Y-50599091D01*
X186107331Y-50548796D01*
X186222546Y-50462546D01*
X186308796Y-50347331D01*
X186359091Y-50212483D01*
X186365500Y-50152873D01*
X186365500Y-49313389D01*
X192539500Y-49313389D01*
X192539500Y-49486610D01*
X192563793Y-49639995D01*
X192566598Y-49657701D01*
X192620127Y-49822445D01*
X192698768Y-49976788D01*
X192800586Y-50116928D01*
X192923072Y-50239414D01*
X193063212Y-50341232D01*
X193217555Y-50419873D01*
X193382299Y-50473402D01*
X193553389Y-50500500D01*
X193553390Y-50500500D01*
X193726610Y-50500500D01*
X193726611Y-50500500D01*
X193897701Y-50473402D01*
X194062445Y-50419873D01*
X194216788Y-50341232D01*
X194356928Y-50239414D01*
X194479414Y-50116928D01*
X194581232Y-49976788D01*
X194659873Y-49822445D01*
X194713402Y-49657701D01*
X194740500Y-49486611D01*
X194740500Y-49313389D01*
X194730854Y-49252486D01*
X196469500Y-49252486D01*
X196469500Y-49547513D01*
X196489037Y-49695904D01*
X196508007Y-49839993D01*
X196582212Y-50116930D01*
X196584361Y-50124951D01*
X196584364Y-50124961D01*
X196697254Y-50397500D01*
X196697258Y-50397510D01*
X196844761Y-50652993D01*
X197024352Y-50887040D01*
X197024358Y-50887047D01*
X197232952Y-51095641D01*
X197232959Y-51095647D01*
X197467006Y-51275238D01*
X197722489Y-51422741D01*
X197722490Y-51422741D01*
X197722493Y-51422743D01*
X197995048Y-51535639D01*
X198280007Y-51611993D01*
X198572494Y-51650500D01*
X198572501Y-51650500D01*
X198867499Y-51650500D01*
X198867506Y-51650500D01*
X199159993Y-51611993D01*
X199444952Y-51535639D01*
X199717507Y-51422743D01*
X199972994Y-51275238D01*
X200207042Y-51095646D01*
X200415646Y-50887042D01*
X200595238Y-50652994D01*
X200742743Y-50397507D01*
X200855639Y-50124952D01*
X200931993Y-49839993D01*
X200970500Y-49547506D01*
X200970500Y-49313389D01*
X202699500Y-49313389D01*
X202699500Y-49486610D01*
X202723793Y-49639995D01*
X202726598Y-49657701D01*
X202780127Y-49822445D01*
X202858768Y-49976788D01*
X202960586Y-50116928D01*
X203083072Y-50239414D01*
X203223212Y-50341232D01*
X203377555Y-50419873D01*
X203542299Y-50473402D01*
X203713389Y-50500500D01*
X203713390Y-50500500D01*
X203886610Y-50500500D01*
X203886611Y-50500500D01*
X204057701Y-50473402D01*
X204222445Y-50419873D01*
X204376788Y-50341232D01*
X204516928Y-50239414D01*
X204639414Y-50116928D01*
X204741232Y-49976788D01*
X204819873Y-49822445D01*
X204873402Y-49657701D01*
X204900500Y-49486611D01*
X204900500Y-49313389D01*
X204873402Y-49142299D01*
X204819873Y-48977555D01*
X204741232Y-48823212D01*
X204639414Y-48683072D01*
X204516928Y-48560586D01*
X204376788Y-48458768D01*
X204222445Y-48380127D01*
X204057701Y-48326598D01*
X204057699Y-48326597D01*
X204057698Y-48326597D01*
X203909271Y-48303089D01*
X203886611Y-48299500D01*
X203713389Y-48299500D01*
X203690729Y-48303089D01*
X203542302Y-48326597D01*
X203377552Y-48380128D01*
X203223211Y-48458768D01*
X203175822Y-48493199D01*
X203083072Y-48560586D01*
X203083070Y-48560588D01*
X203083069Y-48560588D01*
X202960588Y-48683069D01*
X202960588Y-48683070D01*
X202960586Y-48683072D01*
X202916859Y-48743256D01*
X202858768Y-48823211D01*
X202780128Y-48977552D01*
X202726597Y-49142302D01*
X202699500Y-49313389D01*
X200970500Y-49313389D01*
X200970500Y-49252494D01*
X200931993Y-48960007D01*
X200855639Y-48675048D01*
X200742743Y-48402493D01*
X200733449Y-48386396D01*
X200595238Y-48147006D01*
X200415647Y-47912959D01*
X200415641Y-47912952D01*
X200207047Y-47704358D01*
X200207040Y-47704352D01*
X199972993Y-47524761D01*
X199717510Y-47377258D01*
X199717500Y-47377254D01*
X199444961Y-47264364D01*
X199444954Y-47264362D01*
X199444952Y-47264361D01*
X199159993Y-47188007D01*
X199111113Y-47181571D01*
X198867513Y-47149500D01*
X198867506Y-47149500D01*
X198572494Y-47149500D01*
X198572486Y-47149500D01*
X198294085Y-47186153D01*
X198280007Y-47188007D01*
X198076400Y-47242563D01*
X197995048Y-47264361D01*
X197995038Y-47264364D01*
X197722499Y-47377254D01*
X197722489Y-47377258D01*
X197467006Y-47524761D01*
X197232959Y-47704352D01*
X197232952Y-47704358D01*
X197024358Y-47912952D01*
X197024352Y-47912959D01*
X196844761Y-48147006D01*
X196697258Y-48402489D01*
X196697254Y-48402499D01*
X196584364Y-48675038D01*
X196584361Y-48675048D01*
X196561597Y-48760007D01*
X196508008Y-48960004D01*
X196508006Y-48960015D01*
X196469500Y-49252486D01*
X194730854Y-49252486D01*
X194713402Y-49142299D01*
X194659873Y-48977555D01*
X194581232Y-48823212D01*
X194479414Y-48683072D01*
X194420556Y-48624214D01*
X194387071Y-48562891D01*
X194392055Y-48493199D01*
X194433927Y-48437266D01*
X194499391Y-48412849D01*
X194537184Y-48415959D01*
X194658928Y-48445187D01*
X194910000Y-48464947D01*
X195161072Y-48445187D01*
X195405956Y-48386396D01*
X195638631Y-48290019D01*
X195853361Y-48158432D01*
X195853363Y-48158430D01*
X195854180Y-48157732D01*
X195234025Y-47537578D01*
X195265258Y-47524641D01*
X195388097Y-47442563D01*
X195492563Y-47338097D01*
X195574641Y-47215258D01*
X195587578Y-47184025D01*
X196207732Y-47804180D01*
X196208430Y-47803363D01*
X196208432Y-47803361D01*
X196340019Y-47588631D01*
X196436396Y-47355956D01*
X196495187Y-47111072D01*
X196514947Y-46860000D01*
X196495187Y-46608927D01*
X196436396Y-46364043D01*
X196340019Y-46131368D01*
X196208429Y-45916634D01*
X196207733Y-45915819D01*
X196207732Y-45915819D01*
X195587577Y-46535973D01*
X195574641Y-46504742D01*
X195492563Y-46381903D01*
X195388097Y-46277437D01*
X195265258Y-46195359D01*
X195234025Y-46182421D01*
X195854179Y-45562266D01*
X195853362Y-45561568D01*
X195638631Y-45429980D01*
X195405956Y-45333603D01*
X195161072Y-45274812D01*
X194910000Y-45255052D01*
X194658927Y-45274812D01*
X194414043Y-45333603D01*
X194181368Y-45429980D01*
X193966637Y-45561567D01*
X193965819Y-45562266D01*
X194585974Y-46182421D01*
X194554742Y-46195359D01*
X194431903Y-46277437D01*
X194327437Y-46381903D01*
X194245359Y-46504742D01*
X194232422Y-46535974D01*
X193612266Y-45915819D01*
X193611567Y-45916637D01*
X193479980Y-46131368D01*
X193383603Y-46364043D01*
X193324812Y-46608927D01*
X193305052Y-46860000D01*
X193324812Y-47111072D01*
X193383603Y-47355956D01*
X193479980Y-47588631D01*
X193611568Y-47803362D01*
X193612266Y-47804179D01*
X194232421Y-47184024D01*
X194245359Y-47215258D01*
X194327437Y-47338097D01*
X194431903Y-47442563D01*
X194554742Y-47524641D01*
X194585974Y-47537577D01*
X193965819Y-48157732D01*
X193966989Y-48187539D01*
X193949948Y-48255299D01*
X193898980Y-48303089D01*
X193830264Y-48315738D01*
X193823686Y-48314875D01*
X193749271Y-48303089D01*
X193726611Y-48299500D01*
X193553389Y-48299500D01*
X193530729Y-48303089D01*
X193382302Y-48326597D01*
X193217552Y-48380128D01*
X193063211Y-48458768D01*
X193015822Y-48493199D01*
X192923072Y-48560586D01*
X192923070Y-48560588D01*
X192923069Y-48560588D01*
X192800588Y-48683069D01*
X192800588Y-48683070D01*
X192800586Y-48683072D01*
X192756859Y-48743256D01*
X192698768Y-48823211D01*
X192620128Y-48977552D01*
X192566597Y-49142302D01*
X192539500Y-49313389D01*
X186365500Y-49313389D01*
X186365499Y-47057128D01*
X186359091Y-46997517D01*
X186355544Y-46988008D01*
X186308797Y-46862671D01*
X186308793Y-46862664D01*
X186222547Y-46747455D01*
X186222544Y-46747452D01*
X186107335Y-46661206D01*
X186107328Y-46661202D01*
X185972482Y-46610908D01*
X185972483Y-46610908D01*
X185912883Y-46604501D01*
X185912881Y-46604500D01*
X185912873Y-46604500D01*
X185912864Y-46604500D01*
X183917129Y-46604500D01*
X183917123Y-46604501D01*
X183857516Y-46610908D01*
X183722671Y-46661202D01*
X183722664Y-46661206D01*
X183607455Y-46747452D01*
X183607452Y-46747455D01*
X183521206Y-46862664D01*
X183521202Y-46862671D01*
X183470908Y-46997517D01*
X183464501Y-47057116D01*
X183464501Y-47057123D01*
X183464500Y-47057135D01*
X182515500Y-47057135D01*
X182515500Y-44320000D01*
X199654551Y-44320000D01*
X199674317Y-44571151D01*
X199733126Y-44816110D01*
X199829533Y-45048859D01*
X199961160Y-45263653D01*
X199961161Y-45263656D01*
X200016604Y-45328571D01*
X200124776Y-45455224D01*
X200236290Y-45550466D01*
X200316343Y-45618838D01*
X200316346Y-45618839D01*
X200531140Y-45750466D01*
X200763889Y-45846873D01*
X201008852Y-45905683D01*
X201260000Y-45925449D01*
X201511148Y-45905683D01*
X201756111Y-45846873D01*
X201988859Y-45750466D01*
X202203659Y-45618836D01*
X202395224Y-45455224D01*
X202558836Y-45263659D01*
X202690466Y-45048859D01*
X202786873Y-44816111D01*
X202845683Y-44571148D01*
X202865449Y-44320000D01*
X202845683Y-44068852D01*
X202786873Y-43823889D01*
X202690466Y-43591141D01*
X202690466Y-43591140D01*
X202558839Y-43376346D01*
X202558838Y-43376343D01*
X202488721Y-43294247D01*
X202395224Y-43184776D01*
X202268571Y-43076604D01*
X202203656Y-43021161D01*
X202203653Y-43021160D01*
X201988859Y-42889533D01*
X201756110Y-42793126D01*
X201511151Y-42734317D01*
X201260000Y-42714551D01*
X201008848Y-42734317D01*
X200763889Y-42793126D01*
X200531140Y-42889533D01*
X200316346Y-43021160D01*
X200316343Y-43021161D01*
X200124776Y-43184776D01*
X199961161Y-43376343D01*
X199961160Y-43376346D01*
X199829533Y-43591140D01*
X199733126Y-43823889D01*
X199674317Y-44068848D01*
X199654551Y-44320000D01*
X182515500Y-44320000D01*
X182515500Y-42655437D01*
X182535185Y-42588398D01*
X182574222Y-42550010D01*
X182611302Y-42527052D01*
X182768872Y-42383407D01*
X182897366Y-42213255D01*
X182951270Y-42105000D01*
X182992403Y-42022394D01*
X182992403Y-42022393D01*
X182992405Y-42022389D01*
X183050756Y-41817310D01*
X183070429Y-41605000D01*
X183050756Y-41392690D01*
X182992405Y-41187611D01*
X182992403Y-41187606D01*
X182992403Y-41187605D01*
X182897367Y-40996746D01*
X182768872Y-40826593D01*
X182611302Y-40682948D01*
X182430019Y-40570702D01*
X182430017Y-40570701D01*
X182232447Y-40494163D01*
X182231198Y-40493679D01*
X182021610Y-40454500D01*
X181808390Y-40454500D01*
X181598802Y-40493679D01*
X181598799Y-40493679D01*
X181598799Y-40493680D01*
X181399982Y-40570701D01*
X181399980Y-40570702D01*
X181218699Y-40682947D01*
X181061127Y-40826593D01*
X180932632Y-40996746D01*
X180837596Y-41187605D01*
X180837596Y-41187607D01*
X180779244Y-41392689D01*
X180765671Y-41539174D01*
X180759571Y-41605000D01*
X180779244Y-41817310D01*
X180837544Y-42022211D01*
X180837596Y-42022392D01*
X180837596Y-42022394D01*
X180932632Y-42213253D01*
X181061127Y-42383406D01*
X181218699Y-42527053D01*
X181230431Y-42534317D01*
X181255777Y-42550010D01*
X181302412Y-42602036D01*
X181314500Y-42655437D01*
X181314500Y-48584902D01*
X181294815Y-48651941D01*
X181278181Y-48672583D01*
X180837569Y-49113194D01*
X180776246Y-49146679D01*
X180706554Y-49141695D01*
X180650621Y-49099823D01*
X180626204Y-49034359D01*
X180631956Y-48987196D01*
X180659093Y-48903680D01*
X180690500Y-48705384D01*
X180690500Y-48504616D01*
X180659093Y-48306320D01*
X180597052Y-48115378D01*
X180597050Y-48115375D01*
X180597050Y-48115373D01*
X180505904Y-47936491D01*
X180488807Y-47912959D01*
X180387897Y-47774068D01*
X180245932Y-47632103D01*
X180083508Y-47514095D01*
X180064390Y-47504354D01*
X179904626Y-47422949D01*
X179713680Y-47360907D01*
X179515384Y-47329500D01*
X179314616Y-47329500D01*
X179260337Y-47338097D01*
X179116319Y-47360907D01*
X178925373Y-47422949D01*
X178746491Y-47514095D01*
X178654160Y-47581178D01*
X178584068Y-47632103D01*
X178584066Y-47632105D01*
X178584065Y-47632105D01*
X178442105Y-47774065D01*
X178442105Y-47774066D01*
X178442103Y-47774068D01*
X178391423Y-47843822D01*
X178324095Y-47936491D01*
X178232949Y-48115373D01*
X178170907Y-48306319D01*
X178170907Y-48306320D01*
X178139500Y-48504616D01*
X178139500Y-48705384D01*
X178148153Y-48760015D01*
X178170907Y-48903680D01*
X178232949Y-49094626D01*
X178259472Y-49146679D01*
X178324095Y-49273508D01*
X178442103Y-49435932D01*
X178584068Y-49577897D01*
X178746492Y-49695905D01*
X178831007Y-49738967D01*
X178925373Y-49787050D01*
X178925375Y-49787050D01*
X178925378Y-49787052D01*
X179116320Y-49849093D01*
X179314616Y-49880500D01*
X179314617Y-49880500D01*
X179515383Y-49880500D01*
X179515384Y-49880500D01*
X179713680Y-49849093D01*
X179797195Y-49821956D01*
X179867035Y-49819961D01*
X179926868Y-49856041D01*
X179957697Y-49918742D01*
X179949733Y-49988156D01*
X179923194Y-50027569D01*
X169631286Y-60319478D01*
X169519481Y-60431282D01*
X169519479Y-60431285D01*
X169469361Y-60518094D01*
X169469359Y-60518096D01*
X169440425Y-60568209D01*
X169440424Y-60568210D01*
X169432213Y-60598855D01*
X169399499Y-60720943D01*
X169399499Y-60720945D01*
X169399499Y-60889046D01*
X169399500Y-60889059D01*
X169399500Y-69073799D01*
X169379815Y-69140838D01*
X169363181Y-69161480D01*
X169326993Y-69197667D01*
X169231020Y-69350406D01*
X169171440Y-69520675D01*
X169171439Y-69520680D01*
X169151244Y-69699926D01*
X169151244Y-69699933D01*
X169171439Y-69879179D01*
X169171442Y-69879192D01*
X169231018Y-70049450D01*
X169263650Y-70101384D01*
X169282650Y-70168621D01*
X169263652Y-70233323D01*
X169257412Y-70243254D01*
X169197835Y-70413513D01*
X169197832Y-70413526D01*
X169177637Y-70592772D01*
X169177637Y-70592779D01*
X169197832Y-70772025D01*
X169197833Y-70772030D01*
X169257413Y-70942300D01*
X169308298Y-71023281D01*
X169327299Y-71090518D01*
X169306932Y-71157353D01*
X169290987Y-71176935D01*
X169170183Y-71297739D01*
X169074211Y-71450476D01*
X169014631Y-71620745D01*
X169014630Y-71620750D01*
X168994435Y-71799996D01*
X168100500Y-71799996D01*
X168100500Y-68220945D01*
X168100500Y-68220943D01*
X168059577Y-68068216D01*
X168017341Y-67995060D01*
X167980524Y-67931290D01*
X167980521Y-67931286D01*
X167980520Y-67931284D01*
X167868716Y-67819480D01*
X167868715Y-67819479D01*
X167864385Y-67815149D01*
X167864374Y-67815139D01*
X167630700Y-67581465D01*
X167597215Y-67520142D01*
X167595163Y-67507686D01*
X167585368Y-67420745D01*
X167525789Y-67250478D01*
X167429816Y-67097738D01*
X167302262Y-66970184D01*
X167149523Y-66874211D01*
X166979254Y-66814631D01*
X166979249Y-66814630D01*
X166800004Y-66794435D01*
X166799996Y-66794435D01*
X166620750Y-66814630D01*
X166620745Y-66814631D01*
X166450476Y-66874211D01*
X166297737Y-66970184D01*
X166170184Y-67097737D01*
X166074211Y-67250476D01*
X166014631Y-67420745D01*
X166014630Y-67420750D01*
X165994435Y-67599996D01*
X165994435Y-67600003D01*
X166014630Y-67779249D01*
X166014631Y-67779254D01*
X166074211Y-67949523D01*
X166102824Y-67995060D01*
X166170184Y-68102262D01*
X166297738Y-68229816D01*
X166450478Y-68325789D01*
X166620745Y-68385368D01*
X166707669Y-68395161D01*
X166772080Y-68422226D01*
X166781465Y-68430700D01*
X166863181Y-68512416D01*
X166896666Y-68573739D01*
X166899500Y-68600097D01*
X166899500Y-71083677D01*
X166879815Y-71150716D01*
X166827011Y-71196471D01*
X166789384Y-71206897D01*
X166720750Y-71214630D01*
X166550478Y-71274210D01*
X166397737Y-71370184D01*
X166270184Y-71497737D01*
X166174210Y-71650478D01*
X166114630Y-71820750D01*
X166104837Y-71907668D01*
X166077770Y-71972082D01*
X166069298Y-71981465D01*
X163931286Y-74119478D01*
X163819481Y-74231282D01*
X163819479Y-74231284D01*
X163801239Y-74262878D01*
X163793529Y-74276233D01*
X163740423Y-74368215D01*
X163699499Y-74520943D01*
X163699499Y-74520945D01*
X163699499Y-74689046D01*
X163699500Y-74689059D01*
X163699500Y-75074875D01*
X163679815Y-75141914D01*
X163641473Y-75179868D01*
X163497739Y-75270182D01*
X163370184Y-75397737D01*
X163274211Y-75550476D01*
X163214631Y-75720745D01*
X163214630Y-75720750D01*
X163194435Y-75899996D01*
X163194435Y-75900003D01*
X163214630Y-76079249D01*
X163214631Y-76079254D01*
X163274211Y-76249523D01*
X163295617Y-76283590D01*
X163370184Y-76402262D01*
X163497738Y-76529816D01*
X163650478Y-76625789D01*
X163705380Y-76645000D01*
X163820745Y-76685368D01*
X163820750Y-76685369D01*
X163999996Y-76705565D01*
X164000000Y-76705565D01*
X164000004Y-76705565D01*
X164179249Y-76685369D01*
X164179252Y-76685368D01*
X164179255Y-76685368D01*
X164349522Y-76625789D01*
X164502262Y-76529816D01*
X164629816Y-76402262D01*
X164725789Y-76249522D01*
X164785368Y-76079255D01*
X164799121Y-75957187D01*
X164814953Y-75909074D01*
X164830639Y-75881904D01*
X164859577Y-75831785D01*
X164900500Y-75679057D01*
X164900500Y-75520943D01*
X164900500Y-74900097D01*
X164920185Y-74833058D01*
X164936819Y-74812416D01*
X166687819Y-73061416D01*
X166749142Y-73027931D01*
X166818834Y-73032915D01*
X166874767Y-73074787D01*
X166899184Y-73140251D01*
X166899500Y-73149097D01*
X166899500Y-82317059D01*
X166879815Y-82384098D01*
X166863182Y-82404740D01*
X166770183Y-82497739D01*
X166674211Y-82650476D01*
X166614631Y-82820745D01*
X166614630Y-82820750D01*
X166594435Y-82999996D01*
X166594435Y-83000004D01*
X166611288Y-83149588D01*
X166599233Y-83218410D01*
X166551884Y-83269789D01*
X166484273Y-83287413D01*
X166417868Y-83265686D01*
X166400387Y-83251152D01*
X160789319Y-77640084D01*
X160755834Y-77578761D01*
X160753000Y-77552403D01*
X160753000Y-75057412D01*
X160772685Y-74990373D01*
X160780055Y-74980097D01*
X160782310Y-74977267D01*
X160782316Y-74977262D01*
X160878289Y-74824522D01*
X160937868Y-74654255D01*
X160947661Y-74567329D01*
X160974726Y-74502918D01*
X160983190Y-74493543D01*
X161311006Y-74165728D01*
X161311011Y-74165724D01*
X161321214Y-74155520D01*
X161321216Y-74155520D01*
X161433020Y-74043716D01*
X161495373Y-73935717D01*
X161512077Y-73906785D01*
X161553001Y-73754057D01*
X161553001Y-73595943D01*
X161553001Y-73588348D01*
X161553000Y-73588330D01*
X161553000Y-70564059D01*
X161553001Y-70564046D01*
X161553001Y-70395945D01*
X161553001Y-70395943D01*
X161512077Y-70243215D01*
X161449287Y-70134460D01*
X161433020Y-70106284D01*
X161321216Y-69994480D01*
X161321215Y-69994479D01*
X161316885Y-69990149D01*
X161316874Y-69990139D01*
X160983200Y-69656465D01*
X160949715Y-69595142D01*
X160947663Y-69582686D01*
X160937868Y-69495745D01*
X160878289Y-69325478D01*
X160782316Y-69172738D01*
X160654762Y-69045184D01*
X160643095Y-69037853D01*
X160502023Y-68949211D01*
X160331754Y-68889631D01*
X160331749Y-68889630D01*
X160152504Y-68869435D01*
X160152496Y-68869435D01*
X159973250Y-68889630D01*
X159973245Y-68889631D01*
X159802976Y-68949211D01*
X159650237Y-69045184D01*
X159522684Y-69172737D01*
X159426711Y-69325476D01*
X159367131Y-69495745D01*
X159367130Y-69495750D01*
X159346935Y-69674996D01*
X159346935Y-69675003D01*
X159367130Y-69854249D01*
X159367131Y-69854254D01*
X159426711Y-70024523D01*
X159478087Y-70106287D01*
X159522684Y-70177262D01*
X159650238Y-70304816D01*
X159795266Y-70395943D01*
X159802980Y-70400790D01*
X159840118Y-70413785D01*
X159896895Y-70454505D01*
X159922644Y-70519458D01*
X159909189Y-70588019D01*
X159865142Y-70635819D01*
X159850236Y-70645185D01*
X159722684Y-70772737D01*
X159626710Y-70925478D01*
X159567130Y-71095750D01*
X159557337Y-71182668D01*
X159530270Y-71247082D01*
X159521799Y-71256465D01*
X159383786Y-71394478D01*
X159271981Y-71506282D01*
X159271977Y-71506287D01*
X159229696Y-71579522D01*
X159192924Y-71643211D01*
X159192923Y-71643212D01*
X159177087Y-71702315D01*
X159151999Y-71795943D01*
X159151999Y-71795945D01*
X159151999Y-71964046D01*
X159152000Y-71964059D01*
X159152000Y-72317587D01*
X159132315Y-72384626D01*
X159124950Y-72394896D01*
X159122686Y-72397734D01*
X159026711Y-72550476D01*
X158967131Y-72720745D01*
X158967130Y-72720750D01*
X158946935Y-72899996D01*
X158946935Y-72900003D01*
X158967130Y-73079249D01*
X158967131Y-73079254D01*
X159026711Y-73249523D01*
X159035850Y-73264067D01*
X159122684Y-73402262D01*
X159250238Y-73529816D01*
X159396351Y-73621625D01*
X159402980Y-73625790D01*
X159562399Y-73681574D01*
X159619175Y-73722295D01*
X159644922Y-73787248D01*
X159631466Y-73855810D01*
X159609126Y-73886296D01*
X159522683Y-73972739D01*
X159426711Y-74125476D01*
X159367131Y-74295745D01*
X159367130Y-74295750D01*
X159346935Y-74474996D01*
X159346935Y-74475003D01*
X159367130Y-74654249D01*
X159367131Y-74654254D01*
X159426711Y-74824523D01*
X159522685Y-74977263D01*
X159524945Y-74980097D01*
X159525834Y-74982275D01*
X159526389Y-74983158D01*
X159526234Y-74983255D01*
X159551355Y-75044783D01*
X159552000Y-75057412D01*
X159552000Y-77765830D01*
X159551999Y-77765848D01*
X159551999Y-77931554D01*
X159551998Y-77931554D01*
X159592923Y-78084285D01*
X159621858Y-78134400D01*
X159621859Y-78134404D01*
X159621860Y-78134404D01*
X159671979Y-78221214D01*
X159671981Y-78221217D01*
X159790849Y-78340085D01*
X159790855Y-78340090D01*
X164988584Y-83537819D01*
X165022069Y-83599142D01*
X165017085Y-83668834D01*
X164975213Y-83724767D01*
X164909749Y-83749184D01*
X164900903Y-83749500D01*
X163982129Y-83749500D01*
X163982123Y-83749501D01*
X163922516Y-83755908D01*
X163787671Y-83806202D01*
X163787664Y-83806206D01*
X163672455Y-83892452D01*
X163672452Y-83892455D01*
X163586206Y-84007664D01*
X163586203Y-84007669D01*
X163537189Y-84139083D01*
X163495317Y-84195016D01*
X163429853Y-84219433D01*
X163361580Y-84204581D01*
X163333326Y-84183430D01*
X163211402Y-84061506D01*
X163211395Y-84061501D01*
X163017834Y-83925967D01*
X163017830Y-83925965D01*
X163017828Y-83925964D01*
X162803663Y-83826097D01*
X162803659Y-83826096D01*
X162803655Y-83826094D01*
X162575413Y-83764938D01*
X162575403Y-83764936D01*
X162340001Y-83744341D01*
X162339999Y-83744341D01*
X162104596Y-83764936D01*
X162104586Y-83764938D01*
X161876344Y-83826094D01*
X161876335Y-83826098D01*
X161662171Y-83925964D01*
X161662169Y-83925965D01*
X161468597Y-84061505D01*
X161301508Y-84228594D01*
X161171269Y-84414595D01*
X161116692Y-84458219D01*
X161047193Y-84465412D01*
X160984839Y-84433890D01*
X160968119Y-84414594D01*
X160838113Y-84228926D01*
X160838108Y-84228920D01*
X160671082Y-84061894D01*
X160477578Y-83926399D01*
X160263492Y-83826570D01*
X160263486Y-83826567D01*
X160050000Y-83769364D01*
X160050000Y-84666988D01*
X159992993Y-84634075D01*
X159865826Y-84600000D01*
X159734174Y-84600000D01*
X159607007Y-84634075D01*
X159550000Y-84666988D01*
X159550000Y-83769364D01*
X159549999Y-83769364D01*
X159336513Y-83826567D01*
X159336507Y-83826570D01*
X159122422Y-83926399D01*
X159122420Y-83926400D01*
X158928926Y-84061886D01*
X158928920Y-84061891D01*
X158761891Y-84228920D01*
X158761886Y-84228926D01*
X158626400Y-84422420D01*
X158626399Y-84422422D01*
X158526570Y-84636507D01*
X158526567Y-84636513D01*
X158469364Y-84849999D01*
X151500500Y-84849999D01*
X151500500Y-76145000D01*
X152120138Y-76145000D01*
X152923012Y-76145000D01*
X152905795Y-76154940D01*
X152849940Y-76210795D01*
X152810444Y-76279204D01*
X152790000Y-76355504D01*
X152790000Y-76434496D01*
X152810444Y-76510796D01*
X152849940Y-76579205D01*
X152905795Y-76635060D01*
X152923012Y-76645000D01*
X152120138Y-76645000D01*
X152128430Y-76686690D01*
X152128430Y-76686692D01*
X152203807Y-76868671D01*
X152203814Y-76868684D01*
X152313248Y-77032462D01*
X152313251Y-77032466D01*
X152452533Y-77171748D01*
X152452537Y-77171751D01*
X152616315Y-77281185D01*
X152616328Y-77281192D01*
X152798306Y-77356569D01*
X152798318Y-77356572D01*
X152991504Y-77394999D01*
X152991508Y-77395000D01*
X153240000Y-77395000D01*
X153240000Y-76695000D01*
X153740000Y-76695000D01*
X153740000Y-77395000D01*
X153988492Y-77395000D01*
X153988495Y-77394999D01*
X154181681Y-77356572D01*
X154181693Y-77356569D01*
X154363671Y-77281192D01*
X154363684Y-77281185D01*
X154527462Y-77171751D01*
X154527466Y-77171748D01*
X154666748Y-77032466D01*
X154666751Y-77032462D01*
X154776185Y-76868684D01*
X154776192Y-76868671D01*
X154851569Y-76686692D01*
X154851569Y-76686690D01*
X154859862Y-76645000D01*
X154056988Y-76645000D01*
X154074205Y-76635060D01*
X154130060Y-76579205D01*
X154169556Y-76510796D01*
X154190000Y-76434496D01*
X154190000Y-76355504D01*
X154169556Y-76279204D01*
X154130060Y-76210795D01*
X154074205Y-76154940D01*
X154056988Y-76145000D01*
X154859862Y-76145000D01*
X156120138Y-76145000D01*
X156923012Y-76145000D01*
X156905795Y-76154940D01*
X156849940Y-76210795D01*
X156810444Y-76279204D01*
X156790000Y-76355504D01*
X156790000Y-76434496D01*
X156810444Y-76510796D01*
X156849940Y-76579205D01*
X156905795Y-76635060D01*
X156923012Y-76645000D01*
X156120138Y-76645000D01*
X156128430Y-76686690D01*
X156128430Y-76686692D01*
X156203807Y-76868671D01*
X156203814Y-76868684D01*
X156313248Y-77032462D01*
X156313251Y-77032466D01*
X156452533Y-77171748D01*
X156452537Y-77171751D01*
X156616315Y-77281185D01*
X156616328Y-77281192D01*
X156798306Y-77356569D01*
X156798318Y-77356572D01*
X156991504Y-77394999D01*
X156991508Y-77395000D01*
X157390000Y-77395000D01*
X157390000Y-76695000D01*
X157890000Y-76695000D01*
X157890000Y-77395000D01*
X158288492Y-77395000D01*
X158288495Y-77394999D01*
X158481681Y-77356572D01*
X158481693Y-77356569D01*
X158663671Y-77281192D01*
X158663684Y-77281185D01*
X158827462Y-77171751D01*
X158827466Y-77171748D01*
X158966748Y-77032466D01*
X158966751Y-77032462D01*
X159076185Y-76868684D01*
X159076192Y-76868671D01*
X159151569Y-76686692D01*
X159151569Y-76686690D01*
X159159862Y-76645000D01*
X158356988Y-76645000D01*
X158374205Y-76635060D01*
X158430060Y-76579205D01*
X158469556Y-76510796D01*
X158490000Y-76434496D01*
X158490000Y-76355504D01*
X158469556Y-76279204D01*
X158430060Y-76210795D01*
X158374205Y-76154940D01*
X158356988Y-76145000D01*
X159159862Y-76145000D01*
X159151569Y-76103309D01*
X159151569Y-76103307D01*
X159076192Y-75921328D01*
X159076185Y-75921315D01*
X158966751Y-75757537D01*
X158966748Y-75757533D01*
X158827466Y-75618251D01*
X158827462Y-75618248D01*
X158663684Y-75508814D01*
X158663671Y-75508807D01*
X158481693Y-75433430D01*
X158481681Y-75433427D01*
X158288495Y-75395000D01*
X157771045Y-75395000D01*
X157704006Y-75375315D01*
X157658251Y-75322511D01*
X157648307Y-75253353D01*
X157663658Y-75209000D01*
X157676279Y-75187138D01*
X157676281Y-75187135D01*
X157715500Y-75040766D01*
X157715500Y-74889234D01*
X157676281Y-74742865D01*
X157600515Y-74611635D01*
X157493365Y-74504485D01*
X157409134Y-74455854D01*
X157362136Y-74428719D01*
X157288950Y-74409109D01*
X157215766Y-74389500D01*
X157064234Y-74389500D01*
X156917863Y-74428719D01*
X156786635Y-74504485D01*
X156786632Y-74504487D01*
X156679487Y-74611632D01*
X156679485Y-74611635D01*
X156603719Y-74742863D01*
X156564500Y-74889234D01*
X156564500Y-75040766D01*
X156584109Y-75113950D01*
X156603719Y-75187136D01*
X156640014Y-75250000D01*
X156679485Y-75318365D01*
X156679486Y-75318366D01*
X156683549Y-75325403D01*
X156681346Y-75326674D01*
X156701959Y-75379983D01*
X156687923Y-75448428D01*
X156639112Y-75498420D01*
X156625845Y-75504866D01*
X156616324Y-75508809D01*
X156616315Y-75508814D01*
X156452537Y-75618248D01*
X156452533Y-75618251D01*
X156313251Y-75757533D01*
X156313248Y-75757537D01*
X156203814Y-75921315D01*
X156203807Y-75921328D01*
X156128430Y-76103307D01*
X156128430Y-76103309D01*
X156120138Y-76145000D01*
X154859862Y-76145000D01*
X154851569Y-76103309D01*
X154851569Y-76103307D01*
X154776192Y-75921328D01*
X154776185Y-75921315D01*
X154666751Y-75757537D01*
X154666748Y-75757533D01*
X154527466Y-75618251D01*
X154527462Y-75618248D01*
X154363684Y-75508814D01*
X154363671Y-75508807D01*
X154181693Y-75433430D01*
X154181681Y-75433427D01*
X153988495Y-75395000D01*
X153740000Y-75395000D01*
X153740000Y-76095000D01*
X153240000Y-76095000D01*
X153240000Y-75395000D01*
X152991504Y-75395000D01*
X152798318Y-75433427D01*
X152798306Y-75433430D01*
X152616328Y-75508807D01*
X152616315Y-75508814D01*
X152452537Y-75618248D01*
X152452533Y-75618251D01*
X152313251Y-75757533D01*
X152313248Y-75757537D01*
X152203814Y-75921315D01*
X152203807Y-75921328D01*
X152128430Y-76103307D01*
X152128430Y-76103309D01*
X152120138Y-76145000D01*
X151500500Y-76145000D01*
X151500500Y-67505000D01*
X152120138Y-67505000D01*
X152923012Y-67505000D01*
X152905795Y-67514940D01*
X152849940Y-67570795D01*
X152810444Y-67639204D01*
X152790000Y-67715504D01*
X152790000Y-67794496D01*
X152810444Y-67870796D01*
X152849940Y-67939205D01*
X152905795Y-67995060D01*
X152923012Y-68005000D01*
X152120138Y-68005000D01*
X152128430Y-68046690D01*
X152128430Y-68046692D01*
X152203807Y-68228671D01*
X152203814Y-68228684D01*
X152313248Y-68392462D01*
X152313251Y-68392466D01*
X152452533Y-68531748D01*
X152452537Y-68531751D01*
X152616315Y-68641185D01*
X152616328Y-68641192D01*
X152798306Y-68716569D01*
X152798318Y-68716572D01*
X152991504Y-68754999D01*
X152991508Y-68755000D01*
X153240000Y-68755000D01*
X153240000Y-68055000D01*
X153740000Y-68055000D01*
X153740000Y-68755000D01*
X153988492Y-68755000D01*
X153988495Y-68754999D01*
X154181681Y-68716572D01*
X154181693Y-68716569D01*
X154363671Y-68641192D01*
X154363684Y-68641185D01*
X154527462Y-68531751D01*
X154527466Y-68531748D01*
X154666748Y-68392466D01*
X154666751Y-68392462D01*
X154776185Y-68228684D01*
X154776192Y-68228671D01*
X154851569Y-68046692D01*
X154851569Y-68046690D01*
X154859862Y-68005000D01*
X154056988Y-68005000D01*
X154074205Y-67995060D01*
X154130060Y-67939205D01*
X154169556Y-67870796D01*
X154190000Y-67794496D01*
X154190000Y-67715504D01*
X154169556Y-67639204D01*
X154130060Y-67570795D01*
X154074205Y-67514940D01*
X154056988Y-67505000D01*
X154859862Y-67505000D01*
X156120138Y-67505000D01*
X156923012Y-67505000D01*
X156905795Y-67514940D01*
X156849940Y-67570795D01*
X156810444Y-67639204D01*
X156790000Y-67715504D01*
X156790000Y-67794496D01*
X156810444Y-67870796D01*
X156849940Y-67939205D01*
X156905795Y-67995060D01*
X156923012Y-68005000D01*
X156120138Y-68005000D01*
X156128430Y-68046690D01*
X156128430Y-68046692D01*
X156203807Y-68228671D01*
X156203814Y-68228684D01*
X156313248Y-68392462D01*
X156313251Y-68392466D01*
X156452533Y-68531748D01*
X156452537Y-68531751D01*
X156616315Y-68641185D01*
X156616328Y-68641192D01*
X156625838Y-68645131D01*
X156680243Y-68688970D01*
X156702310Y-68755264D01*
X156685033Y-68822963D01*
X156681350Y-68828405D01*
X156603719Y-68962863D01*
X156564500Y-69109234D01*
X156564500Y-69260765D01*
X156603719Y-69407136D01*
X156641602Y-69472750D01*
X156679485Y-69538365D01*
X156786635Y-69645515D01*
X156917865Y-69721281D01*
X157064234Y-69760500D01*
X157064236Y-69760500D01*
X157215764Y-69760500D01*
X157215766Y-69760500D01*
X157362135Y-69721281D01*
X157493365Y-69645515D01*
X157600515Y-69538365D01*
X157676281Y-69407135D01*
X157715500Y-69260766D01*
X157715500Y-69109234D01*
X157676281Y-68962865D01*
X157668398Y-68949211D01*
X157663658Y-68941000D01*
X157647185Y-68873099D01*
X157670038Y-68807073D01*
X157724959Y-68763882D01*
X157771045Y-68755000D01*
X158288492Y-68755000D01*
X158288495Y-68754999D01*
X158481681Y-68716572D01*
X158481693Y-68716569D01*
X158663671Y-68641192D01*
X158663684Y-68641185D01*
X158827462Y-68531751D01*
X158827466Y-68531748D01*
X158966748Y-68392466D01*
X158966751Y-68392462D01*
X159076185Y-68228684D01*
X159076192Y-68228671D01*
X159151569Y-68046692D01*
X159151569Y-68046690D01*
X159159862Y-68005000D01*
X158356988Y-68005000D01*
X158374205Y-67995060D01*
X158430060Y-67939205D01*
X158469556Y-67870796D01*
X158490000Y-67794496D01*
X158490000Y-67715504D01*
X158469556Y-67639204D01*
X158430060Y-67570795D01*
X158374205Y-67514940D01*
X158356988Y-67505000D01*
X159159862Y-67505000D01*
X159151569Y-67463309D01*
X159151569Y-67463307D01*
X159076192Y-67281328D01*
X159076185Y-67281315D01*
X158966751Y-67117537D01*
X158966748Y-67117533D01*
X158827466Y-66978251D01*
X158827462Y-66978248D01*
X158663684Y-66868814D01*
X158663671Y-66868807D01*
X158481693Y-66793430D01*
X158481681Y-66793427D01*
X158288495Y-66755000D01*
X157890000Y-66755000D01*
X157890000Y-67455000D01*
X157390000Y-67455000D01*
X157390000Y-66755000D01*
X156991504Y-66755000D01*
X156798318Y-66793427D01*
X156798306Y-66793430D01*
X156616328Y-66868807D01*
X156616315Y-66868814D01*
X156452537Y-66978248D01*
X156452533Y-66978251D01*
X156313251Y-67117533D01*
X156313248Y-67117537D01*
X156203814Y-67281315D01*
X156203807Y-67281328D01*
X156128430Y-67463307D01*
X156128430Y-67463309D01*
X156120138Y-67505000D01*
X154859862Y-67505000D01*
X154851569Y-67463309D01*
X154851569Y-67463307D01*
X154776192Y-67281328D01*
X154776185Y-67281315D01*
X154666751Y-67117537D01*
X154666748Y-67117533D01*
X154527466Y-66978251D01*
X154527462Y-66978248D01*
X154363684Y-66868814D01*
X154363671Y-66868807D01*
X154181693Y-66793430D01*
X154181681Y-66793427D01*
X153988495Y-66755000D01*
X153740000Y-66755000D01*
X153740000Y-67455000D01*
X153240000Y-67455000D01*
X153240000Y-66755000D01*
X152991504Y-66755000D01*
X152798318Y-66793427D01*
X152798306Y-66793430D01*
X152616328Y-66868807D01*
X152616315Y-66868814D01*
X152452537Y-66978248D01*
X152452533Y-66978251D01*
X152313251Y-67117533D01*
X152313248Y-67117537D01*
X152203814Y-67281315D01*
X152203807Y-67281328D01*
X152128430Y-67463307D01*
X152128430Y-67463309D01*
X152120138Y-67505000D01*
X151500500Y-67505000D01*
X151500500Y-62274999D01*
X155316841Y-62274999D01*
X155316841Y-62275000D01*
X155337436Y-62510403D01*
X155337438Y-62510413D01*
X155398594Y-62738655D01*
X155398596Y-62738659D01*
X155398597Y-62738663D01*
X155402500Y-62747032D01*
X155498465Y-62952830D01*
X155498467Y-62952834D01*
X155578571Y-63067233D01*
X155634005Y-63146401D01*
X155801099Y-63313495D01*
X155897884Y-63381265D01*
X155994665Y-63449032D01*
X155994667Y-63449033D01*
X155994670Y-63449035D01*
X156208837Y-63548903D01*
X156437092Y-63610063D01*
X156613534Y-63625500D01*
X156672499Y-63630659D01*
X156672500Y-63630659D01*
X156672501Y-63630659D01*
X156731466Y-63625500D01*
X156907908Y-63610063D01*
X157136163Y-63548903D01*
X157350330Y-63449035D01*
X157543901Y-63313495D01*
X157710995Y-63146401D01*
X157840925Y-62960842D01*
X157895502Y-62917217D01*
X157965000Y-62910023D01*
X158027355Y-62941546D01*
X158044075Y-62960842D01*
X158174000Y-63146395D01*
X158174005Y-63146401D01*
X158341099Y-63313495D01*
X158437884Y-63381265D01*
X158534665Y-63449032D01*
X158534667Y-63449033D01*
X158534670Y-63449035D01*
X158748837Y-63548903D01*
X158977092Y-63610063D01*
X159153534Y-63625500D01*
X159212499Y-63630659D01*
X159212500Y-63630659D01*
X159212501Y-63630659D01*
X159271466Y-63625500D01*
X159447908Y-63610063D01*
X159676163Y-63548903D01*
X159890330Y-63449035D01*
X160083901Y-63313495D01*
X160250995Y-63146401D01*
X160380925Y-62960842D01*
X160435502Y-62917217D01*
X160505000Y-62910023D01*
X160567355Y-62941546D01*
X160584075Y-62960842D01*
X160714000Y-63146395D01*
X160714005Y-63146401D01*
X160881099Y-63313495D01*
X160977884Y-63381265D01*
X161074665Y-63449032D01*
X161074667Y-63449033D01*
X161074670Y-63449035D01*
X161288837Y-63548903D01*
X161517092Y-63610063D01*
X161693534Y-63625500D01*
X161752499Y-63630659D01*
X161752500Y-63630659D01*
X161752501Y-63630659D01*
X161811466Y-63625500D01*
X161987908Y-63610063D01*
X162216163Y-63548903D01*
X162430330Y-63449035D01*
X162623901Y-63313495D01*
X162790995Y-63146401D01*
X162920925Y-62960842D01*
X162975502Y-62917217D01*
X163045000Y-62910023D01*
X163107355Y-62941546D01*
X163124075Y-62960842D01*
X163254000Y-63146395D01*
X163254005Y-63146401D01*
X163421099Y-63313495D01*
X163517884Y-63381265D01*
X163614665Y-63449032D01*
X163614667Y-63449033D01*
X163614670Y-63449035D01*
X163828837Y-63548903D01*
X164057092Y-63610063D01*
X164233534Y-63625500D01*
X164292499Y-63630659D01*
X164292500Y-63630659D01*
X164292501Y-63630659D01*
X164351466Y-63625500D01*
X164527908Y-63610063D01*
X164756163Y-63548903D01*
X164970330Y-63449035D01*
X165163901Y-63313495D01*
X165285829Y-63191566D01*
X165347148Y-63158084D01*
X165416840Y-63163068D01*
X165472774Y-63204939D01*
X165489689Y-63235917D01*
X165538702Y-63367328D01*
X165538706Y-63367335D01*
X165624952Y-63482544D01*
X165624955Y-63482547D01*
X165740164Y-63568793D01*
X165740171Y-63568797D01*
X165875017Y-63619091D01*
X165875016Y-63619091D01*
X165881944Y-63619835D01*
X165934627Y-63625500D01*
X167730372Y-63625499D01*
X167789983Y-63619091D01*
X167924831Y-63568796D01*
X168040046Y-63482546D01*
X168126296Y-63367331D01*
X168176591Y-63232483D01*
X168183000Y-63172873D01*
X168182999Y-61377128D01*
X168176591Y-61317517D01*
X168175310Y-61314083D01*
X168126297Y-61182671D01*
X168126293Y-61182664D01*
X168040047Y-61067455D01*
X168040044Y-61067452D01*
X167924835Y-60981206D01*
X167924828Y-60981202D01*
X167789982Y-60930908D01*
X167789983Y-60930908D01*
X167730383Y-60924501D01*
X167730381Y-60924500D01*
X167730373Y-60924500D01*
X167730364Y-60924500D01*
X165934629Y-60924500D01*
X165934623Y-60924501D01*
X165875016Y-60930908D01*
X165740171Y-60981202D01*
X165740164Y-60981206D01*
X165624955Y-61067452D01*
X165624952Y-61067455D01*
X165538706Y-61182664D01*
X165538703Y-61182669D01*
X165489689Y-61314083D01*
X165447817Y-61370016D01*
X165382353Y-61394433D01*
X165314080Y-61379581D01*
X165285826Y-61358430D01*
X165163902Y-61236506D01*
X165163895Y-61236501D01*
X164970334Y-61100967D01*
X164970330Y-61100965D01*
X164968466Y-61100096D01*
X164756163Y-61001097D01*
X164756159Y-61001096D01*
X164756155Y-61001094D01*
X164527913Y-60939938D01*
X164527903Y-60939936D01*
X164292501Y-60919341D01*
X164292499Y-60919341D01*
X164057096Y-60939936D01*
X164057086Y-60939938D01*
X163828844Y-61001094D01*
X163828835Y-61001098D01*
X163614671Y-61100964D01*
X163614669Y-61100965D01*
X163421097Y-61236505D01*
X163254005Y-61403597D01*
X163124075Y-61589158D01*
X163069498Y-61632783D01*
X163000000Y-61639977D01*
X162937645Y-61608454D01*
X162920925Y-61589158D01*
X162790994Y-61403597D01*
X162623902Y-61236506D01*
X162623895Y-61236501D01*
X162430334Y-61100967D01*
X162430330Y-61100965D01*
X162428466Y-61100096D01*
X162216163Y-61001097D01*
X162216159Y-61001096D01*
X162216155Y-61001094D01*
X161987913Y-60939938D01*
X161987903Y-60939936D01*
X161752501Y-60919341D01*
X161752499Y-60919341D01*
X161517096Y-60939936D01*
X161517086Y-60939938D01*
X161288844Y-61001094D01*
X161288835Y-61001098D01*
X161074671Y-61100964D01*
X161074669Y-61100965D01*
X160881097Y-61236505D01*
X160714005Y-61403597D01*
X160584075Y-61589158D01*
X160529498Y-61632783D01*
X160460000Y-61639977D01*
X160397645Y-61608454D01*
X160380925Y-61589158D01*
X160250994Y-61403597D01*
X160083902Y-61236506D01*
X160083895Y-61236501D01*
X159890334Y-61100967D01*
X159890330Y-61100965D01*
X159888466Y-61100096D01*
X159676163Y-61001097D01*
X159676159Y-61001096D01*
X159676155Y-61001094D01*
X159447913Y-60939938D01*
X159447903Y-60939936D01*
X159212501Y-60919341D01*
X159212499Y-60919341D01*
X158977096Y-60939936D01*
X158977086Y-60939938D01*
X158748844Y-61001094D01*
X158748835Y-61001098D01*
X158534671Y-61100964D01*
X158534669Y-61100965D01*
X158341097Y-61236505D01*
X158174005Y-61403597D01*
X158044075Y-61589158D01*
X157989498Y-61632783D01*
X157920000Y-61639977D01*
X157857645Y-61608454D01*
X157840925Y-61589158D01*
X157710994Y-61403597D01*
X157543902Y-61236506D01*
X157543895Y-61236501D01*
X157350334Y-61100967D01*
X157350330Y-61100965D01*
X157348466Y-61100096D01*
X157136163Y-61001097D01*
X157136159Y-61001096D01*
X157136155Y-61001094D01*
X156907913Y-60939938D01*
X156907903Y-60939936D01*
X156672501Y-60919341D01*
X156672499Y-60919341D01*
X156437096Y-60939936D01*
X156437086Y-60939938D01*
X156208844Y-61001094D01*
X156208835Y-61001098D01*
X155994671Y-61100964D01*
X155994669Y-61100965D01*
X155801097Y-61236505D01*
X155634005Y-61403597D01*
X155498465Y-61597169D01*
X155498464Y-61597171D01*
X155398598Y-61811335D01*
X155398594Y-61811344D01*
X155337438Y-62039586D01*
X155337436Y-62039596D01*
X155316841Y-62274999D01*
X151500500Y-62274999D01*
X151500500Y-49113389D01*
X155019500Y-49113389D01*
X155019500Y-49286611D01*
X155046598Y-49457701D01*
X155100127Y-49622445D01*
X155178768Y-49776788D01*
X155280586Y-49916928D01*
X155403072Y-50039414D01*
X155543212Y-50141232D01*
X155697555Y-50219873D01*
X155862299Y-50273402D01*
X156033389Y-50300500D01*
X156033390Y-50300500D01*
X156206610Y-50300500D01*
X156206611Y-50300500D01*
X156377701Y-50273402D01*
X156542445Y-50219873D01*
X156696788Y-50141232D01*
X156836928Y-50039414D01*
X156959414Y-49916928D01*
X157061232Y-49776788D01*
X157139873Y-49622445D01*
X157193402Y-49457701D01*
X157220500Y-49286611D01*
X157220500Y-49113389D01*
X157210854Y-49052486D01*
X158949500Y-49052486D01*
X158949500Y-49347513D01*
X158979831Y-49577894D01*
X158988007Y-49639993D01*
X159062212Y-49916930D01*
X159064361Y-49924951D01*
X159064364Y-49924961D01*
X159177254Y-50197500D01*
X159177258Y-50197510D01*
X159324761Y-50452993D01*
X159504352Y-50687040D01*
X159504358Y-50687047D01*
X159712952Y-50895641D01*
X159712959Y-50895647D01*
X159947006Y-51075238D01*
X160202489Y-51222741D01*
X160202490Y-51222741D01*
X160202493Y-51222743D01*
X160475048Y-51335639D01*
X160760007Y-51411993D01*
X161052494Y-51450500D01*
X161052501Y-51450500D01*
X161347499Y-51450500D01*
X161347506Y-51450500D01*
X161639993Y-51411993D01*
X161924952Y-51335639D01*
X162197507Y-51222743D01*
X162452994Y-51075238D01*
X162687042Y-50895646D01*
X162895646Y-50687042D01*
X163075238Y-50452994D01*
X163222743Y-50197507D01*
X163335639Y-49924952D01*
X163411993Y-49639993D01*
X163450500Y-49347506D01*
X163450500Y-49113389D01*
X165179500Y-49113389D01*
X165179500Y-49286611D01*
X165206598Y-49457701D01*
X165260127Y-49622445D01*
X165338768Y-49776788D01*
X165440586Y-49916928D01*
X165563072Y-50039414D01*
X165703212Y-50141232D01*
X165857555Y-50219873D01*
X166022299Y-50273402D01*
X166193389Y-50300500D01*
X166193390Y-50300500D01*
X166366610Y-50300500D01*
X166366611Y-50300500D01*
X166537701Y-50273402D01*
X166702445Y-50219873D01*
X166856788Y-50141232D01*
X166996928Y-50039414D01*
X167119414Y-49916928D01*
X167221232Y-49776788D01*
X167299873Y-49622445D01*
X167353402Y-49457701D01*
X167380500Y-49286611D01*
X167380500Y-49113389D01*
X167353402Y-48942299D01*
X167299873Y-48777555D01*
X167221232Y-48623212D01*
X167119414Y-48483072D01*
X166996928Y-48360586D01*
X166856788Y-48258768D01*
X166702445Y-48180127D01*
X166537701Y-48126598D01*
X166537699Y-48126597D01*
X166537698Y-48126597D01*
X166389271Y-48103089D01*
X166366611Y-48099500D01*
X166193389Y-48099500D01*
X166170729Y-48103089D01*
X166022302Y-48126597D01*
X165857552Y-48180128D01*
X165703211Y-48258768D01*
X165637764Y-48306319D01*
X165563072Y-48360586D01*
X165563070Y-48360588D01*
X165563069Y-48360588D01*
X165440588Y-48483069D01*
X165440588Y-48483070D01*
X165440586Y-48483072D01*
X165396859Y-48543256D01*
X165338768Y-48623211D01*
X165260128Y-48777552D01*
X165206597Y-48942302D01*
X165201014Y-48977552D01*
X165179500Y-49113389D01*
X163450500Y-49113389D01*
X163450500Y-49052494D01*
X163411993Y-48760007D01*
X163335639Y-48475048D01*
X163222743Y-48202493D01*
X163214109Y-48187539D01*
X163075238Y-47947006D01*
X162895647Y-47712959D01*
X162895641Y-47712952D01*
X162687047Y-47504358D01*
X162687040Y-47504352D01*
X162452993Y-47324761D01*
X162197510Y-47177258D01*
X162197500Y-47177254D01*
X161924961Y-47064364D01*
X161924954Y-47064362D01*
X161924952Y-47064361D01*
X161897984Y-47057135D01*
X172464500Y-47057135D01*
X172464500Y-50152870D01*
X172464501Y-50152876D01*
X172470908Y-50212483D01*
X172521202Y-50347328D01*
X172521206Y-50347335D01*
X172607452Y-50462544D01*
X172607455Y-50462547D01*
X172722664Y-50548793D01*
X172722671Y-50548797D01*
X172857517Y-50599091D01*
X172857516Y-50599091D01*
X172864444Y-50599835D01*
X172917127Y-50605500D01*
X174912872Y-50605499D01*
X174972483Y-50599091D01*
X175107331Y-50548796D01*
X175222546Y-50462546D01*
X175308796Y-50347331D01*
X175359091Y-50212483D01*
X175365500Y-50152873D01*
X175365499Y-47057128D01*
X175359091Y-46997517D01*
X175355544Y-46988008D01*
X175308797Y-46862671D01*
X175308793Y-46862664D01*
X175222547Y-46747455D01*
X175222544Y-46747452D01*
X175107335Y-46661206D01*
X175107328Y-46661202D01*
X174972482Y-46610908D01*
X174972483Y-46610908D01*
X174912883Y-46604501D01*
X174912881Y-46604500D01*
X174912873Y-46604500D01*
X174912864Y-46604500D01*
X172917129Y-46604500D01*
X172917123Y-46604501D01*
X172857516Y-46610908D01*
X172722671Y-46661202D01*
X172722664Y-46661206D01*
X172607455Y-46747452D01*
X172607452Y-46747455D01*
X172521206Y-46862664D01*
X172521202Y-46862671D01*
X172470908Y-46997517D01*
X172464501Y-47057116D01*
X172464501Y-47057123D01*
X172464500Y-47057135D01*
X161897984Y-47057135D01*
X161639993Y-46988007D01*
X161591113Y-46981571D01*
X161347513Y-46949500D01*
X161347506Y-46949500D01*
X161052494Y-46949500D01*
X161052486Y-46949500D01*
X160774085Y-46986153D01*
X160760007Y-46988007D01*
X160502087Y-47057116D01*
X160475048Y-47064361D01*
X160475038Y-47064364D01*
X160202499Y-47177254D01*
X160202489Y-47177258D01*
X159947006Y-47324761D01*
X159712959Y-47504352D01*
X159712952Y-47504358D01*
X159504358Y-47712952D01*
X159504352Y-47712959D01*
X159324761Y-47947006D01*
X159177258Y-48202489D01*
X159177254Y-48202499D01*
X159064364Y-48475038D01*
X159064361Y-48475048D01*
X159002644Y-48705383D01*
X158988008Y-48760004D01*
X158988006Y-48760015D01*
X158949500Y-49052486D01*
X157210854Y-49052486D01*
X157193402Y-48942299D01*
X157139873Y-48777555D01*
X157061232Y-48623212D01*
X156959414Y-48483072D01*
X156900556Y-48424214D01*
X156867071Y-48362891D01*
X156872055Y-48293199D01*
X156913927Y-48237266D01*
X156979391Y-48212849D01*
X157017184Y-48215959D01*
X157138928Y-48245187D01*
X157390000Y-48264947D01*
X157641072Y-48245187D01*
X157885956Y-48186396D01*
X158118631Y-48090019D01*
X158333361Y-47958432D01*
X158333363Y-47958430D01*
X158334180Y-47957732D01*
X157714025Y-47337578D01*
X157745258Y-47324641D01*
X157868097Y-47242563D01*
X157972563Y-47138097D01*
X158054641Y-47015258D01*
X158067578Y-46984025D01*
X158687732Y-47604180D01*
X158688430Y-47603363D01*
X158688432Y-47603361D01*
X158820019Y-47388631D01*
X158916396Y-47155956D01*
X158975187Y-46911072D01*
X158994947Y-46660000D01*
X158975187Y-46408927D01*
X158916396Y-46164043D01*
X158820019Y-45931368D01*
X158688429Y-45716634D01*
X158687733Y-45715819D01*
X158687732Y-45715819D01*
X158067577Y-46335973D01*
X158054641Y-46304742D01*
X157972563Y-46181903D01*
X157868097Y-46077437D01*
X157745258Y-45995359D01*
X157714025Y-45982421D01*
X158334179Y-45362266D01*
X158333362Y-45361568D01*
X158118631Y-45229980D01*
X157885956Y-45133603D01*
X157641072Y-45074812D01*
X157390000Y-45055052D01*
X157138927Y-45074812D01*
X156894043Y-45133603D01*
X156661368Y-45229980D01*
X156446637Y-45361567D01*
X156445819Y-45362266D01*
X157065974Y-45982421D01*
X157034742Y-45995359D01*
X156911903Y-46077437D01*
X156807437Y-46181903D01*
X156725359Y-46304742D01*
X156712421Y-46335974D01*
X156092266Y-45715819D01*
X156091567Y-45716637D01*
X155959980Y-45931368D01*
X155863603Y-46164043D01*
X155804812Y-46408927D01*
X155785052Y-46660000D01*
X155804812Y-46911072D01*
X155863603Y-47155956D01*
X155959980Y-47388631D01*
X156091568Y-47603362D01*
X156092266Y-47604179D01*
X156712421Y-46984024D01*
X156725359Y-47015258D01*
X156807437Y-47138097D01*
X156911903Y-47242563D01*
X157034742Y-47324641D01*
X157065974Y-47337577D01*
X156445819Y-47957732D01*
X156446989Y-47987539D01*
X156429948Y-48055299D01*
X156378980Y-48103089D01*
X156310264Y-48115738D01*
X156303686Y-48114875D01*
X156229271Y-48103089D01*
X156206611Y-48099500D01*
X156033389Y-48099500D01*
X156010729Y-48103089D01*
X155862302Y-48126597D01*
X155697552Y-48180128D01*
X155543211Y-48258768D01*
X155477764Y-48306319D01*
X155403072Y-48360586D01*
X155403070Y-48360588D01*
X155403069Y-48360588D01*
X155280588Y-48483069D01*
X155280588Y-48483070D01*
X155280586Y-48483072D01*
X155236859Y-48543256D01*
X155178768Y-48623211D01*
X155100128Y-48777552D01*
X155046597Y-48942302D01*
X155041014Y-48977552D01*
X155019500Y-49113389D01*
X151500500Y-49113389D01*
X151500500Y-44120000D01*
X162134551Y-44120000D01*
X162154317Y-44371151D01*
X162213126Y-44616110D01*
X162309533Y-44848859D01*
X162441160Y-45063653D01*
X162441161Y-45063656D01*
X162458296Y-45083718D01*
X162604776Y-45255224D01*
X162696546Y-45333603D01*
X162796343Y-45418838D01*
X162796346Y-45418839D01*
X163011140Y-45550466D01*
X163243889Y-45646873D01*
X163488852Y-45705683D01*
X163740000Y-45725449D01*
X163991148Y-45705683D01*
X164236111Y-45646873D01*
X164468859Y-45550466D01*
X164683659Y-45418836D01*
X164875224Y-45255224D01*
X165038836Y-45063659D01*
X165170466Y-44848859D01*
X165266873Y-44616111D01*
X165325683Y-44371148D01*
X165345449Y-44120000D01*
X165325683Y-43868852D01*
X165280102Y-43678992D01*
X178389500Y-43678992D01*
X178389500Y-44531007D01*
X178428907Y-44729119D01*
X178428909Y-44729127D01*
X178506212Y-44915752D01*
X178506217Y-44915762D01*
X178618441Y-45083718D01*
X178761281Y-45226558D01*
X178929237Y-45338782D01*
X178929241Y-45338784D01*
X178929244Y-45338786D01*
X179115873Y-45416091D01*
X179312604Y-45455223D01*
X179313992Y-45455499D01*
X179313996Y-45455500D01*
X179313997Y-45455500D01*
X179516004Y-45455500D01*
X179516005Y-45455499D01*
X179714127Y-45416091D01*
X179900756Y-45338786D01*
X180068718Y-45226558D01*
X180211558Y-45083718D01*
X180323786Y-44915756D01*
X180401091Y-44729127D01*
X180440500Y-44531003D01*
X180440500Y-43678997D01*
X180401091Y-43480873D01*
X180323786Y-43294244D01*
X180323784Y-43294241D01*
X180323782Y-43294237D01*
X180211558Y-43126281D01*
X180068718Y-42983441D01*
X179900762Y-42871217D01*
X179900752Y-42871212D01*
X179714127Y-42793909D01*
X179714119Y-42793907D01*
X179516007Y-42754500D01*
X179516003Y-42754500D01*
X179313997Y-42754500D01*
X179313992Y-42754500D01*
X179115880Y-42793907D01*
X179115872Y-42793909D01*
X178929247Y-42871212D01*
X178929237Y-42871217D01*
X178761281Y-42983441D01*
X178618441Y-43126281D01*
X178506217Y-43294237D01*
X178506212Y-43294247D01*
X178428909Y-43480872D01*
X178428907Y-43480880D01*
X178389500Y-43678992D01*
X165280102Y-43678992D01*
X165266873Y-43623889D01*
X165170466Y-43391141D01*
X165170466Y-43391140D01*
X165038839Y-43176346D01*
X165038838Y-43176343D01*
X164906302Y-43021164D01*
X164875224Y-42984776D01*
X164742258Y-42871212D01*
X164683656Y-42821161D01*
X164683653Y-42821160D01*
X164468859Y-42689533D01*
X164236110Y-42593126D01*
X163991151Y-42534317D01*
X163740000Y-42514551D01*
X163488848Y-42534317D01*
X163243889Y-42593126D01*
X163011140Y-42689533D01*
X162796346Y-42821160D01*
X162796343Y-42821161D01*
X162604776Y-42984776D01*
X162441161Y-43176343D01*
X162441160Y-43176346D01*
X162309533Y-43391140D01*
X162213126Y-43623889D01*
X162154317Y-43868848D01*
X162134551Y-44120000D01*
X151500500Y-44120000D01*
X151500500Y-41604999D01*
X175760073Y-41604999D01*
X175760073Y-41605000D01*
X175779737Y-41817216D01*
X175779738Y-41817219D01*
X175838058Y-42022196D01*
X175838064Y-42022211D01*
X175933061Y-42212991D01*
X175933064Y-42212996D01*
X175941836Y-42224610D01*
X176432037Y-41734409D01*
X176449075Y-41797993D01*
X176514901Y-41912007D01*
X176607993Y-42005099D01*
X176722007Y-42070925D01*
X176785590Y-42087962D01*
X176297991Y-42575559D01*
X176400204Y-42638847D01*
X176400208Y-42638849D01*
X176598936Y-42715836D01*
X176598941Y-42715837D01*
X176808439Y-42755000D01*
X177021561Y-42755000D01*
X177231058Y-42715837D01*
X177231063Y-42715836D01*
X177429791Y-42638849D01*
X177429798Y-42638846D01*
X177532006Y-42575560D01*
X177532006Y-42575559D01*
X177044410Y-42087962D01*
X177107993Y-42070925D01*
X177222007Y-42005099D01*
X177315099Y-41912007D01*
X177380925Y-41797993D01*
X177397962Y-41734409D01*
X177888162Y-42224609D01*
X177888163Y-42224609D01*
X177896940Y-42212988D01*
X177896942Y-42212985D01*
X177991933Y-42022216D01*
X177991941Y-42022196D01*
X178050261Y-41817219D01*
X178050262Y-41817216D01*
X178069927Y-41605000D01*
X178069927Y-41604999D01*
X178050262Y-41392783D01*
X178050261Y-41392780D01*
X177991941Y-41187803D01*
X177991933Y-41187783D01*
X177896942Y-40997014D01*
X177896937Y-40997006D01*
X177888163Y-40985389D01*
X177397962Y-41475589D01*
X177380925Y-41412007D01*
X177315099Y-41297993D01*
X177222007Y-41204901D01*
X177107993Y-41139075D01*
X177044409Y-41122037D01*
X177532007Y-40634439D01*
X177429793Y-40571151D01*
X177429789Y-40571149D01*
X177231063Y-40494163D01*
X177231058Y-40494162D01*
X177021561Y-40455000D01*
X176808439Y-40455000D01*
X176598941Y-40494162D01*
X176598936Y-40494163D01*
X176400210Y-40571149D01*
X176400201Y-40571154D01*
X176297992Y-40634438D01*
X176297991Y-40634439D01*
X176785590Y-41122037D01*
X176722007Y-41139075D01*
X176607993Y-41204901D01*
X176514901Y-41297993D01*
X176449075Y-41412007D01*
X176432037Y-41475589D01*
X175941836Y-40985388D01*
X175933059Y-40997010D01*
X175838066Y-41187783D01*
X175838058Y-41187803D01*
X175779738Y-41392780D01*
X175779737Y-41392783D01*
X175760073Y-41604999D01*
X151500500Y-41604999D01*
X151500500Y-34893713D01*
X153649500Y-34893713D01*
X153649500Y-35106286D01*
X153682753Y-35316239D01*
X153748444Y-35518414D01*
X153844951Y-35707820D01*
X153969890Y-35879786D01*
X154120213Y-36030109D01*
X154292179Y-36155048D01*
X154292181Y-36155049D01*
X154292184Y-36155051D01*
X154481588Y-36251557D01*
X154683757Y-36317246D01*
X154893713Y-36350500D01*
X154893714Y-36350500D01*
X155106286Y-36350500D01*
X155106287Y-36350500D01*
X155316243Y-36317246D01*
X155518412Y-36251557D01*
X155707816Y-36155051D01*
X155729789Y-36139086D01*
X155879786Y-36030109D01*
X155879788Y-36030106D01*
X155879792Y-36030104D01*
X156030104Y-35879792D01*
X156030106Y-35879788D01*
X156030109Y-35879786D01*
X156155048Y-35707820D01*
X156155047Y-35707820D01*
X156155051Y-35707816D01*
X156251557Y-35518412D01*
X156292074Y-35393713D01*
X204149500Y-35393713D01*
X204149500Y-35606287D01*
X204182754Y-35816243D01*
X204203402Y-35879792D01*
X204248444Y-36018414D01*
X204344951Y-36207820D01*
X204469890Y-36379786D01*
X204620213Y-36530109D01*
X204792179Y-36655048D01*
X204792181Y-36655049D01*
X204792184Y-36655051D01*
X204981588Y-36751557D01*
X205183757Y-36817246D01*
X205393713Y-36850500D01*
X205393714Y-36850500D01*
X205606286Y-36850500D01*
X205606287Y-36850500D01*
X205816243Y-36817246D01*
X206018412Y-36751557D01*
X206207816Y-36655051D01*
X206229789Y-36639086D01*
X206379786Y-36530109D01*
X206379788Y-36530106D01*
X206379792Y-36530104D01*
X206530104Y-36379792D01*
X206530106Y-36379788D01*
X206530109Y-36379786D01*
X206655048Y-36207820D01*
X206655047Y-36207820D01*
X206655051Y-36207816D01*
X206751557Y-36018412D01*
X206817246Y-35816243D01*
X206850500Y-35606287D01*
X206850500Y-35393713D01*
X206817246Y-35183757D01*
X206751557Y-34981588D01*
X206655051Y-34792184D01*
X206655049Y-34792181D01*
X206655048Y-34792179D01*
X206530109Y-34620213D01*
X206379786Y-34469890D01*
X206207820Y-34344951D01*
X206018414Y-34248444D01*
X206018413Y-34248443D01*
X206018412Y-34248443D01*
X205816243Y-34182754D01*
X205816241Y-34182753D01*
X205816240Y-34182753D01*
X205654957Y-34157208D01*
X205606287Y-34149500D01*
X205393713Y-34149500D01*
X205345042Y-34157208D01*
X205183760Y-34182753D01*
X204981585Y-34248444D01*
X204792179Y-34344951D01*
X204620213Y-34469890D01*
X204469890Y-34620213D01*
X204344951Y-34792179D01*
X204248444Y-34981585D01*
X204182753Y-35183760D01*
X204161771Y-35316239D01*
X204149500Y-35393713D01*
X156292074Y-35393713D01*
X156317246Y-35316243D01*
X156350500Y-35106287D01*
X156350500Y-34893713D01*
X156317246Y-34683757D01*
X156251557Y-34481588D01*
X156155051Y-34292184D01*
X156155049Y-34292181D01*
X156155048Y-34292179D01*
X156030109Y-34120213D01*
X155879786Y-33969890D01*
X155707820Y-33844951D01*
X155518414Y-33748444D01*
X155518413Y-33748443D01*
X155518412Y-33748443D01*
X155316243Y-33682754D01*
X155316241Y-33682753D01*
X155316240Y-33682753D01*
X155154957Y-33657208D01*
X155106287Y-33649500D01*
X154893713Y-33649500D01*
X154845042Y-33657208D01*
X154683760Y-33682753D01*
X154481585Y-33748444D01*
X154292179Y-33844951D01*
X154120213Y-33969890D01*
X153969890Y-34120213D01*
X153844951Y-34292179D01*
X153748444Y-34481585D01*
X153682753Y-34683760D01*
X153649500Y-34893713D01*
X151500500Y-34893713D01*
X151500500Y-34478117D01*
X151500670Y-34471626D01*
X151516594Y-34167831D01*
X151517951Y-34154924D01*
X151523450Y-34120208D01*
X151565033Y-33857668D01*
X151567730Y-33844979D01*
X151593598Y-33748443D01*
X151645630Y-33554257D01*
X151649640Y-33541919D01*
X151649642Y-33541915D01*
X151757501Y-33260936D01*
X151762771Y-33249100D01*
X151899419Y-32980914D01*
X151905895Y-32969699D01*
X152069831Y-32717262D01*
X152077441Y-32706787D01*
X152266866Y-32472870D01*
X152275532Y-32463246D01*
X152488364Y-32250415D01*
X152497992Y-32241747D01*
X152731901Y-32052331D01*
X152742382Y-32044716D01*
X152994817Y-31880784D01*
X153006033Y-31874309D01*
X153274210Y-31737667D01*
X153286066Y-31732389D01*
X153286113Y-31732371D01*
X153567050Y-31624530D01*
X153579366Y-31620528D01*
X153870121Y-31542620D01*
X153882774Y-31539931D01*
X154180065Y-31492845D01*
X154192937Y-31491491D01*
X154485324Y-31476169D01*
X154497253Y-31475544D01*
X154503742Y-31475374D01*
X154565892Y-31475374D01*
X205459230Y-31475374D01*
X205521874Y-31475374D01*
X205528365Y-31475544D01*
G37*
%TD.AperFunction*%
%TD*%
M02*
