%TF.GenerationSoftware,KiCad,Pcbnew,8.0.6*%
%TF.CreationDate,2024-12-31T08:05:46-06:00*%
%TF.ProjectId,003Ball,30303342-616c-46c2-9e6b-696361645f70,rev?*%
%TF.SameCoordinates,Original*%
%TF.FileFunction,Legend,Top*%
%TF.FilePolarity,Positive*%
%FSLAX46Y46*%
G04 Gerber Fmt 4.6, Leading zero omitted, Abs format (unit mm)*
G04 Created by KiCad (PCBNEW 8.0.6) date 2024-12-31 08:05:46*
%MOMM*%
%LPD*%
G01*
G04 APERTURE LIST*
%ADD10C,0.150000*%
%ADD11C,0.000000*%
%ADD12C,0.120000*%
%ADD13C,0.310000*%
G04 APERTURE END LIST*
D10*
X201288095Y-77054819D02*
X201288095Y-77864342D01*
X201288095Y-77864342D02*
X201335714Y-77959580D01*
X201335714Y-77959580D02*
X201383333Y-78007200D01*
X201383333Y-78007200D02*
X201478571Y-78054819D01*
X201478571Y-78054819D02*
X201669047Y-78054819D01*
X201669047Y-78054819D02*
X201764285Y-78007200D01*
X201764285Y-78007200D02*
X201811904Y-77959580D01*
X201811904Y-77959580D02*
X201859523Y-77864342D01*
X201859523Y-77864342D02*
X201859523Y-77054819D01*
X202764285Y-77388152D02*
X202764285Y-78054819D01*
X202526190Y-77007200D02*
X202288095Y-77721485D01*
X202288095Y-77721485D02*
X202907142Y-77721485D01*
X199300595Y-62154819D02*
X199300595Y-62964342D01*
X199300595Y-62964342D02*
X199348214Y-63059580D01*
X199348214Y-63059580D02*
X199395833Y-63107200D01*
X199395833Y-63107200D02*
X199491071Y-63154819D01*
X199491071Y-63154819D02*
X199681547Y-63154819D01*
X199681547Y-63154819D02*
X199776785Y-63107200D01*
X199776785Y-63107200D02*
X199824404Y-63059580D01*
X199824404Y-63059580D02*
X199872023Y-62964342D01*
X199872023Y-62964342D02*
X199872023Y-62154819D01*
X200252976Y-62154819D02*
X200872023Y-62154819D01*
X200872023Y-62154819D02*
X200538690Y-62535771D01*
X200538690Y-62535771D02*
X200681547Y-62535771D01*
X200681547Y-62535771D02*
X200776785Y-62583390D01*
X200776785Y-62583390D02*
X200824404Y-62631009D01*
X200824404Y-62631009D02*
X200872023Y-62726247D01*
X200872023Y-62726247D02*
X200872023Y-62964342D01*
X200872023Y-62964342D02*
X200824404Y-63059580D01*
X200824404Y-63059580D02*
X200776785Y-63107200D01*
X200776785Y-63107200D02*
X200681547Y-63154819D01*
X200681547Y-63154819D02*
X200395833Y-63154819D01*
X200395833Y-63154819D02*
X200300595Y-63107200D01*
X200300595Y-63107200D02*
X200252976Y-63059580D01*
X179881904Y-88365180D02*
X179881904Y-87555657D01*
X179881904Y-87555657D02*
X179834285Y-87460419D01*
X179834285Y-87460419D02*
X179786666Y-87412800D01*
X179786666Y-87412800D02*
X179691428Y-87365180D01*
X179691428Y-87365180D02*
X179500952Y-87365180D01*
X179500952Y-87365180D02*
X179405714Y-87412800D01*
X179405714Y-87412800D02*
X179358095Y-87460419D01*
X179358095Y-87460419D02*
X179310476Y-87555657D01*
X179310476Y-87555657D02*
X179310476Y-88365180D01*
X178881904Y-88269942D02*
X178834285Y-88317561D01*
X178834285Y-88317561D02*
X178739047Y-88365180D01*
X178739047Y-88365180D02*
X178500952Y-88365180D01*
X178500952Y-88365180D02*
X178405714Y-88317561D01*
X178405714Y-88317561D02*
X178358095Y-88269942D01*
X178358095Y-88269942D02*
X178310476Y-88174704D01*
X178310476Y-88174704D02*
X178310476Y-88079466D01*
X178310476Y-88079466D02*
X178358095Y-87936609D01*
X178358095Y-87936609D02*
X178929523Y-87365180D01*
X178929523Y-87365180D02*
X178310476Y-87365180D01*
X164575595Y-73129819D02*
X164575595Y-73939342D01*
X164575595Y-73939342D02*
X164623214Y-74034580D01*
X164623214Y-74034580D02*
X164670833Y-74082200D01*
X164670833Y-74082200D02*
X164766071Y-74129819D01*
X164766071Y-74129819D02*
X164956547Y-74129819D01*
X164956547Y-74129819D02*
X165051785Y-74082200D01*
X165051785Y-74082200D02*
X165099404Y-74034580D01*
X165099404Y-74034580D02*
X165147023Y-73939342D01*
X165147023Y-73939342D02*
X165147023Y-73129819D01*
X166147023Y-74129819D02*
X165575595Y-74129819D01*
X165861309Y-74129819D02*
X165861309Y-73129819D01*
X165861309Y-73129819D02*
X165766071Y-73272676D01*
X165766071Y-73272676D02*
X165670833Y-73367914D01*
X165670833Y-73367914D02*
X165575595Y-73415533D01*
X197386667Y-41933200D02*
X197529524Y-41980819D01*
X197529524Y-41980819D02*
X197767619Y-41980819D01*
X197767619Y-41980819D02*
X197862857Y-41933200D01*
X197862857Y-41933200D02*
X197910476Y-41885580D01*
X197910476Y-41885580D02*
X197958095Y-41790342D01*
X197958095Y-41790342D02*
X197958095Y-41695104D01*
X197958095Y-41695104D02*
X197910476Y-41599866D01*
X197910476Y-41599866D02*
X197862857Y-41552247D01*
X197862857Y-41552247D02*
X197767619Y-41504628D01*
X197767619Y-41504628D02*
X197577143Y-41457009D01*
X197577143Y-41457009D02*
X197481905Y-41409390D01*
X197481905Y-41409390D02*
X197434286Y-41361771D01*
X197434286Y-41361771D02*
X197386667Y-41266533D01*
X197386667Y-41266533D02*
X197386667Y-41171295D01*
X197386667Y-41171295D02*
X197434286Y-41076057D01*
X197434286Y-41076057D02*
X197481905Y-41028438D01*
X197481905Y-41028438D02*
X197577143Y-40980819D01*
X197577143Y-40980819D02*
X197815238Y-40980819D01*
X197815238Y-40980819D02*
X197958095Y-41028438D01*
X198291429Y-40980819D02*
X198529524Y-41980819D01*
X198529524Y-41980819D02*
X198720000Y-41266533D01*
X198720000Y-41266533D02*
X198910476Y-41980819D01*
X198910476Y-41980819D02*
X199148572Y-40980819D01*
X199434286Y-40980819D02*
X200053333Y-40980819D01*
X200053333Y-40980819D02*
X199720000Y-41361771D01*
X199720000Y-41361771D02*
X199862857Y-41361771D01*
X199862857Y-41361771D02*
X199958095Y-41409390D01*
X199958095Y-41409390D02*
X200005714Y-41457009D01*
X200005714Y-41457009D02*
X200053333Y-41552247D01*
X200053333Y-41552247D02*
X200053333Y-41790342D01*
X200053333Y-41790342D02*
X200005714Y-41885580D01*
X200005714Y-41885580D02*
X199958095Y-41933200D01*
X199958095Y-41933200D02*
X199862857Y-41980819D01*
X199862857Y-41980819D02*
X199577143Y-41980819D01*
X199577143Y-41980819D02*
X199481905Y-41933200D01*
X199481905Y-41933200D02*
X199434286Y-41885580D01*
X178181667Y-40207200D02*
X178324524Y-40254819D01*
X178324524Y-40254819D02*
X178562619Y-40254819D01*
X178562619Y-40254819D02*
X178657857Y-40207200D01*
X178657857Y-40207200D02*
X178705476Y-40159580D01*
X178705476Y-40159580D02*
X178753095Y-40064342D01*
X178753095Y-40064342D02*
X178753095Y-39969104D01*
X178753095Y-39969104D02*
X178705476Y-39873866D01*
X178705476Y-39873866D02*
X178657857Y-39826247D01*
X178657857Y-39826247D02*
X178562619Y-39778628D01*
X178562619Y-39778628D02*
X178372143Y-39731009D01*
X178372143Y-39731009D02*
X178276905Y-39683390D01*
X178276905Y-39683390D02*
X178229286Y-39635771D01*
X178229286Y-39635771D02*
X178181667Y-39540533D01*
X178181667Y-39540533D02*
X178181667Y-39445295D01*
X178181667Y-39445295D02*
X178229286Y-39350057D01*
X178229286Y-39350057D02*
X178276905Y-39302438D01*
X178276905Y-39302438D02*
X178372143Y-39254819D01*
X178372143Y-39254819D02*
X178610238Y-39254819D01*
X178610238Y-39254819D02*
X178753095Y-39302438D01*
X179086429Y-39254819D02*
X179324524Y-40254819D01*
X179324524Y-40254819D02*
X179515000Y-39540533D01*
X179515000Y-39540533D02*
X179705476Y-40254819D01*
X179705476Y-40254819D02*
X179943572Y-39254819D01*
X180276905Y-39350057D02*
X180324524Y-39302438D01*
X180324524Y-39302438D02*
X180419762Y-39254819D01*
X180419762Y-39254819D02*
X180657857Y-39254819D01*
X180657857Y-39254819D02*
X180753095Y-39302438D01*
X180753095Y-39302438D02*
X180800714Y-39350057D01*
X180800714Y-39350057D02*
X180848333Y-39445295D01*
X180848333Y-39445295D02*
X180848333Y-39540533D01*
X180848333Y-39540533D02*
X180800714Y-39683390D01*
X180800714Y-39683390D02*
X180229286Y-40254819D01*
X180229286Y-40254819D02*
X180848333Y-40254819D01*
X159866667Y-41733200D02*
X160009524Y-41780819D01*
X160009524Y-41780819D02*
X160247619Y-41780819D01*
X160247619Y-41780819D02*
X160342857Y-41733200D01*
X160342857Y-41733200D02*
X160390476Y-41685580D01*
X160390476Y-41685580D02*
X160438095Y-41590342D01*
X160438095Y-41590342D02*
X160438095Y-41495104D01*
X160438095Y-41495104D02*
X160390476Y-41399866D01*
X160390476Y-41399866D02*
X160342857Y-41352247D01*
X160342857Y-41352247D02*
X160247619Y-41304628D01*
X160247619Y-41304628D02*
X160057143Y-41257009D01*
X160057143Y-41257009D02*
X159961905Y-41209390D01*
X159961905Y-41209390D02*
X159914286Y-41161771D01*
X159914286Y-41161771D02*
X159866667Y-41066533D01*
X159866667Y-41066533D02*
X159866667Y-40971295D01*
X159866667Y-40971295D02*
X159914286Y-40876057D01*
X159914286Y-40876057D02*
X159961905Y-40828438D01*
X159961905Y-40828438D02*
X160057143Y-40780819D01*
X160057143Y-40780819D02*
X160295238Y-40780819D01*
X160295238Y-40780819D02*
X160438095Y-40828438D01*
X160771429Y-40780819D02*
X161009524Y-41780819D01*
X161009524Y-41780819D02*
X161200000Y-41066533D01*
X161200000Y-41066533D02*
X161390476Y-41780819D01*
X161390476Y-41780819D02*
X161628572Y-40780819D01*
X162533333Y-41780819D02*
X161961905Y-41780819D01*
X162247619Y-41780819D02*
X162247619Y-40780819D01*
X162247619Y-40780819D02*
X162152381Y-40923676D01*
X162152381Y-40923676D02*
X162057143Y-41018914D01*
X162057143Y-41018914D02*
X161961905Y-41066533D01*
X156807319Y-81665476D02*
X156331128Y-81998809D01*
X156807319Y-82236904D02*
X155807319Y-82236904D01*
X155807319Y-82236904D02*
X155807319Y-81855952D01*
X155807319Y-81855952D02*
X155854938Y-81760714D01*
X155854938Y-81760714D02*
X155902557Y-81713095D01*
X155902557Y-81713095D02*
X155997795Y-81665476D01*
X155997795Y-81665476D02*
X156140652Y-81665476D01*
X156140652Y-81665476D02*
X156235890Y-81713095D01*
X156235890Y-81713095D02*
X156283509Y-81760714D01*
X156283509Y-81760714D02*
X156331128Y-81855952D01*
X156331128Y-81855952D02*
X156331128Y-82236904D01*
X156807319Y-81236904D02*
X155807319Y-81236904D01*
X155807319Y-81236904D02*
X156807319Y-80665476D01*
X156807319Y-80665476D02*
X155807319Y-80665476D01*
X156807319Y-79665476D02*
X156807319Y-80236904D01*
X156807319Y-79951190D02*
X155807319Y-79951190D01*
X155807319Y-79951190D02*
X155950176Y-80046428D01*
X155950176Y-80046428D02*
X156045414Y-80141666D01*
X156045414Y-80141666D02*
X156093033Y-80236904D01*
X169870833Y-83469819D02*
X169537500Y-82993628D01*
X169299405Y-83469819D02*
X169299405Y-82469819D01*
X169299405Y-82469819D02*
X169680357Y-82469819D01*
X169680357Y-82469819D02*
X169775595Y-82517438D01*
X169775595Y-82517438D02*
X169823214Y-82565057D01*
X169823214Y-82565057D02*
X169870833Y-82660295D01*
X169870833Y-82660295D02*
X169870833Y-82803152D01*
X169870833Y-82803152D02*
X169823214Y-82898390D01*
X169823214Y-82898390D02*
X169775595Y-82946009D01*
X169775595Y-82946009D02*
X169680357Y-82993628D01*
X169680357Y-82993628D02*
X169299405Y-82993628D01*
X170251786Y-82565057D02*
X170299405Y-82517438D01*
X170299405Y-82517438D02*
X170394643Y-82469819D01*
X170394643Y-82469819D02*
X170632738Y-82469819D01*
X170632738Y-82469819D02*
X170727976Y-82517438D01*
X170727976Y-82517438D02*
X170775595Y-82565057D01*
X170775595Y-82565057D02*
X170823214Y-82660295D01*
X170823214Y-82660295D02*
X170823214Y-82755533D01*
X170823214Y-82755533D02*
X170775595Y-82898390D01*
X170775595Y-82898390D02*
X170204167Y-83469819D01*
X170204167Y-83469819D02*
X170823214Y-83469819D01*
X161757319Y-75841666D02*
X161281128Y-76174999D01*
X161757319Y-76413094D02*
X160757319Y-76413094D01*
X160757319Y-76413094D02*
X160757319Y-76032142D01*
X160757319Y-76032142D02*
X160804938Y-75936904D01*
X160804938Y-75936904D02*
X160852557Y-75889285D01*
X160852557Y-75889285D02*
X160947795Y-75841666D01*
X160947795Y-75841666D02*
X161090652Y-75841666D01*
X161090652Y-75841666D02*
X161185890Y-75889285D01*
X161185890Y-75889285D02*
X161233509Y-75936904D01*
X161233509Y-75936904D02*
X161281128Y-76032142D01*
X161281128Y-76032142D02*
X161281128Y-76413094D01*
X161757319Y-74889285D02*
X161757319Y-75460713D01*
X161757319Y-75174999D02*
X160757319Y-75174999D01*
X160757319Y-75174999D02*
X160900176Y-75270237D01*
X160900176Y-75270237D02*
X160995414Y-75365475D01*
X160995414Y-75365475D02*
X161043033Y-75460713D01*
X174724819Y-64733333D02*
X175439104Y-64733333D01*
X175439104Y-64733333D02*
X175581961Y-64780952D01*
X175581961Y-64780952D02*
X175677200Y-64876190D01*
X175677200Y-64876190D02*
X175724819Y-65019047D01*
X175724819Y-65019047D02*
X175724819Y-65114285D01*
X175058152Y-63828571D02*
X175724819Y-63828571D01*
X174677200Y-64066666D02*
X175391485Y-64304761D01*
X175391485Y-64304761D02*
X175391485Y-63685714D01*
X168617319Y-62608333D02*
X169331604Y-62608333D01*
X169331604Y-62608333D02*
X169474461Y-62655952D01*
X169474461Y-62655952D02*
X169569700Y-62751190D01*
X169569700Y-62751190D02*
X169617319Y-62894047D01*
X169617319Y-62894047D02*
X169617319Y-62989285D01*
X168617319Y-62227380D02*
X168617319Y-61608333D01*
X168617319Y-61608333D02*
X168998271Y-61941666D01*
X168998271Y-61941666D02*
X168998271Y-61798809D01*
X168998271Y-61798809D02*
X169045890Y-61703571D01*
X169045890Y-61703571D02*
X169093509Y-61655952D01*
X169093509Y-61655952D02*
X169188747Y-61608333D01*
X169188747Y-61608333D02*
X169426842Y-61608333D01*
X169426842Y-61608333D02*
X169522080Y-61655952D01*
X169522080Y-61655952D02*
X169569700Y-61703571D01*
X169569700Y-61703571D02*
X169617319Y-61798809D01*
X169617319Y-61798809D02*
X169617319Y-62084523D01*
X169617319Y-62084523D02*
X169569700Y-62179761D01*
X169569700Y-62179761D02*
X169522080Y-62227380D01*
X166664819Y-85433333D02*
X167379104Y-85433333D01*
X167379104Y-85433333D02*
X167521961Y-85480952D01*
X167521961Y-85480952D02*
X167617200Y-85576190D01*
X167617200Y-85576190D02*
X167664819Y-85719047D01*
X167664819Y-85719047D02*
X167664819Y-85814285D01*
X166760057Y-85004761D02*
X166712438Y-84957142D01*
X166712438Y-84957142D02*
X166664819Y-84861904D01*
X166664819Y-84861904D02*
X166664819Y-84623809D01*
X166664819Y-84623809D02*
X166712438Y-84528571D01*
X166712438Y-84528571D02*
X166760057Y-84480952D01*
X166760057Y-84480952D02*
X166855295Y-84433333D01*
X166855295Y-84433333D02*
X166950533Y-84433333D01*
X166950533Y-84433333D02*
X167093390Y-84480952D01*
X167093390Y-84480952D02*
X167664819Y-85052380D01*
X167664819Y-85052380D02*
X167664819Y-84433333D01*
X152606666Y-77104819D02*
X152606666Y-77819104D01*
X152606666Y-77819104D02*
X152559047Y-77961961D01*
X152559047Y-77961961D02*
X152463809Y-78057200D01*
X152463809Y-78057200D02*
X152320952Y-78104819D01*
X152320952Y-78104819D02*
X152225714Y-78104819D01*
X153606666Y-78104819D02*
X153035238Y-78104819D01*
X153320952Y-78104819D02*
X153320952Y-77104819D01*
X153320952Y-77104819D02*
X153225714Y-77247676D01*
X153225714Y-77247676D02*
X153130476Y-77342914D01*
X153130476Y-77342914D02*
X153035238Y-77390533D01*
X204738095Y-85254819D02*
X204738095Y-84254819D01*
X204738095Y-84731009D02*
X205309523Y-84731009D01*
X205309523Y-85254819D02*
X205309523Y-84254819D01*
X206214285Y-84588152D02*
X206214285Y-85254819D01*
X205976190Y-84207200D02*
X205738095Y-84921485D01*
X205738095Y-84921485D02*
X206357142Y-84921485D01*
X204738095Y-32754819D02*
X204738095Y-31754819D01*
X204738095Y-32231009D02*
X205309523Y-32231009D01*
X205309523Y-32754819D02*
X205309523Y-31754819D01*
X205690476Y-31754819D02*
X206309523Y-31754819D01*
X206309523Y-31754819D02*
X205976190Y-32135771D01*
X205976190Y-32135771D02*
X206119047Y-32135771D01*
X206119047Y-32135771D02*
X206214285Y-32183390D01*
X206214285Y-32183390D02*
X206261904Y-32231009D01*
X206261904Y-32231009D02*
X206309523Y-32326247D01*
X206309523Y-32326247D02*
X206309523Y-32564342D01*
X206309523Y-32564342D02*
X206261904Y-32659580D01*
X206261904Y-32659580D02*
X206214285Y-32707200D01*
X206214285Y-32707200D02*
X206119047Y-32754819D01*
X206119047Y-32754819D02*
X205833333Y-32754819D01*
X205833333Y-32754819D02*
X205738095Y-32707200D01*
X205738095Y-32707200D02*
X205690476Y-32659580D01*
X154238095Y-85254819D02*
X154238095Y-84254819D01*
X154238095Y-84731009D02*
X154809523Y-84731009D01*
X154809523Y-85254819D02*
X154809523Y-84254819D01*
X155238095Y-84350057D02*
X155285714Y-84302438D01*
X155285714Y-84302438D02*
X155380952Y-84254819D01*
X155380952Y-84254819D02*
X155619047Y-84254819D01*
X155619047Y-84254819D02*
X155714285Y-84302438D01*
X155714285Y-84302438D02*
X155761904Y-84350057D01*
X155761904Y-84350057D02*
X155809523Y-84445295D01*
X155809523Y-84445295D02*
X155809523Y-84540533D01*
X155809523Y-84540533D02*
X155761904Y-84683390D01*
X155761904Y-84683390D02*
X155190476Y-85254819D01*
X155190476Y-85254819D02*
X155809523Y-85254819D01*
X154238095Y-32254819D02*
X154238095Y-31254819D01*
X154238095Y-31731009D02*
X154809523Y-31731009D01*
X154809523Y-32254819D02*
X154809523Y-31254819D01*
X155809523Y-32254819D02*
X155238095Y-32254819D01*
X155523809Y-32254819D02*
X155523809Y-31254819D01*
X155523809Y-31254819D02*
X155428571Y-31397676D01*
X155428571Y-31397676D02*
X155333333Y-31492914D01*
X155333333Y-31492914D02*
X155238095Y-31540533D01*
X169357142Y-86859580D02*
X169309523Y-86907200D01*
X169309523Y-86907200D02*
X169166666Y-86954819D01*
X169166666Y-86954819D02*
X169071428Y-86954819D01*
X169071428Y-86954819D02*
X168928571Y-86907200D01*
X168928571Y-86907200D02*
X168833333Y-86811961D01*
X168833333Y-86811961D02*
X168785714Y-86716723D01*
X168785714Y-86716723D02*
X168738095Y-86526247D01*
X168738095Y-86526247D02*
X168738095Y-86383390D01*
X168738095Y-86383390D02*
X168785714Y-86192914D01*
X168785714Y-86192914D02*
X168833333Y-86097676D01*
X168833333Y-86097676D02*
X168928571Y-86002438D01*
X168928571Y-86002438D02*
X169071428Y-85954819D01*
X169071428Y-85954819D02*
X169166666Y-85954819D01*
X169166666Y-85954819D02*
X169309523Y-86002438D01*
X169309523Y-86002438D02*
X169357142Y-86050057D01*
X170309523Y-86954819D02*
X169738095Y-86954819D01*
X170023809Y-86954819D02*
X170023809Y-85954819D01*
X170023809Y-85954819D02*
X169928571Y-86097676D01*
X169928571Y-86097676D02*
X169833333Y-86192914D01*
X169833333Y-86192914D02*
X169738095Y-86240533D01*
X171214285Y-85954819D02*
X170738095Y-85954819D01*
X170738095Y-85954819D02*
X170690476Y-86431009D01*
X170690476Y-86431009D02*
X170738095Y-86383390D01*
X170738095Y-86383390D02*
X170833333Y-86335771D01*
X170833333Y-86335771D02*
X171071428Y-86335771D01*
X171071428Y-86335771D02*
X171166666Y-86383390D01*
X171166666Y-86383390D02*
X171214285Y-86431009D01*
X171214285Y-86431009D02*
X171261904Y-86526247D01*
X171261904Y-86526247D02*
X171261904Y-86764342D01*
X171261904Y-86764342D02*
X171214285Y-86859580D01*
X171214285Y-86859580D02*
X171166666Y-86907200D01*
X171166666Y-86907200D02*
X171071428Y-86954819D01*
X171071428Y-86954819D02*
X170833333Y-86954819D01*
X170833333Y-86954819D02*
X170738095Y-86907200D01*
X170738095Y-86907200D02*
X170690476Y-86859580D01*
X165032142Y-83404580D02*
X164984523Y-83452200D01*
X164984523Y-83452200D02*
X164841666Y-83499819D01*
X164841666Y-83499819D02*
X164746428Y-83499819D01*
X164746428Y-83499819D02*
X164603571Y-83452200D01*
X164603571Y-83452200D02*
X164508333Y-83356961D01*
X164508333Y-83356961D02*
X164460714Y-83261723D01*
X164460714Y-83261723D02*
X164413095Y-83071247D01*
X164413095Y-83071247D02*
X164413095Y-82928390D01*
X164413095Y-82928390D02*
X164460714Y-82737914D01*
X164460714Y-82737914D02*
X164508333Y-82642676D01*
X164508333Y-82642676D02*
X164603571Y-82547438D01*
X164603571Y-82547438D02*
X164746428Y-82499819D01*
X164746428Y-82499819D02*
X164841666Y-82499819D01*
X164841666Y-82499819D02*
X164984523Y-82547438D01*
X164984523Y-82547438D02*
X165032142Y-82595057D01*
X165984523Y-83499819D02*
X165413095Y-83499819D01*
X165698809Y-83499819D02*
X165698809Y-82499819D01*
X165698809Y-82499819D02*
X165603571Y-82642676D01*
X165603571Y-82642676D02*
X165508333Y-82737914D01*
X165508333Y-82737914D02*
X165413095Y-82785533D01*
X166841666Y-82833152D02*
X166841666Y-83499819D01*
X166603571Y-82452200D02*
X166365476Y-83166485D01*
X166365476Y-83166485D02*
X166984523Y-83166485D01*
X186804580Y-74557857D02*
X186852200Y-74605476D01*
X186852200Y-74605476D02*
X186899819Y-74748333D01*
X186899819Y-74748333D02*
X186899819Y-74843571D01*
X186899819Y-74843571D02*
X186852200Y-74986428D01*
X186852200Y-74986428D02*
X186756961Y-75081666D01*
X186756961Y-75081666D02*
X186661723Y-75129285D01*
X186661723Y-75129285D02*
X186471247Y-75176904D01*
X186471247Y-75176904D02*
X186328390Y-75176904D01*
X186328390Y-75176904D02*
X186137914Y-75129285D01*
X186137914Y-75129285D02*
X186042676Y-75081666D01*
X186042676Y-75081666D02*
X185947438Y-74986428D01*
X185947438Y-74986428D02*
X185899819Y-74843571D01*
X185899819Y-74843571D02*
X185899819Y-74748333D01*
X185899819Y-74748333D02*
X185947438Y-74605476D01*
X185947438Y-74605476D02*
X185995057Y-74557857D01*
X186899819Y-73605476D02*
X186899819Y-74176904D01*
X186899819Y-73891190D02*
X185899819Y-73891190D01*
X185899819Y-73891190D02*
X186042676Y-73986428D01*
X186042676Y-73986428D02*
X186137914Y-74081666D01*
X186137914Y-74081666D02*
X186185533Y-74176904D01*
X185899819Y-73272142D02*
X185899819Y-72653095D01*
X185899819Y-72653095D02*
X186280771Y-72986428D01*
X186280771Y-72986428D02*
X186280771Y-72843571D01*
X186280771Y-72843571D02*
X186328390Y-72748333D01*
X186328390Y-72748333D02*
X186376009Y-72700714D01*
X186376009Y-72700714D02*
X186471247Y-72653095D01*
X186471247Y-72653095D02*
X186709342Y-72653095D01*
X186709342Y-72653095D02*
X186804580Y-72700714D01*
X186804580Y-72700714D02*
X186852200Y-72748333D01*
X186852200Y-72748333D02*
X186899819Y-72843571D01*
X186899819Y-72843571D02*
X186899819Y-73129285D01*
X186899819Y-73129285D02*
X186852200Y-73224523D01*
X186852200Y-73224523D02*
X186804580Y-73272142D01*
X191732142Y-73244580D02*
X191684523Y-73292200D01*
X191684523Y-73292200D02*
X191541666Y-73339819D01*
X191541666Y-73339819D02*
X191446428Y-73339819D01*
X191446428Y-73339819D02*
X191303571Y-73292200D01*
X191303571Y-73292200D02*
X191208333Y-73196961D01*
X191208333Y-73196961D02*
X191160714Y-73101723D01*
X191160714Y-73101723D02*
X191113095Y-72911247D01*
X191113095Y-72911247D02*
X191113095Y-72768390D01*
X191113095Y-72768390D02*
X191160714Y-72577914D01*
X191160714Y-72577914D02*
X191208333Y-72482676D01*
X191208333Y-72482676D02*
X191303571Y-72387438D01*
X191303571Y-72387438D02*
X191446428Y-72339819D01*
X191446428Y-72339819D02*
X191541666Y-72339819D01*
X191541666Y-72339819D02*
X191684523Y-72387438D01*
X191684523Y-72387438D02*
X191732142Y-72435057D01*
X192684523Y-73339819D02*
X192113095Y-73339819D01*
X192398809Y-73339819D02*
X192398809Y-72339819D01*
X192398809Y-72339819D02*
X192303571Y-72482676D01*
X192303571Y-72482676D02*
X192208333Y-72577914D01*
X192208333Y-72577914D02*
X192113095Y-72625533D01*
X193065476Y-72435057D02*
X193113095Y-72387438D01*
X193113095Y-72387438D02*
X193208333Y-72339819D01*
X193208333Y-72339819D02*
X193446428Y-72339819D01*
X193446428Y-72339819D02*
X193541666Y-72387438D01*
X193541666Y-72387438D02*
X193589285Y-72435057D01*
X193589285Y-72435057D02*
X193636904Y-72530295D01*
X193636904Y-72530295D02*
X193636904Y-72625533D01*
X193636904Y-72625533D02*
X193589285Y-72768390D01*
X193589285Y-72768390D02*
X193017857Y-73339819D01*
X193017857Y-73339819D02*
X193636904Y-73339819D01*
X191732142Y-76844580D02*
X191684523Y-76892200D01*
X191684523Y-76892200D02*
X191541666Y-76939819D01*
X191541666Y-76939819D02*
X191446428Y-76939819D01*
X191446428Y-76939819D02*
X191303571Y-76892200D01*
X191303571Y-76892200D02*
X191208333Y-76796961D01*
X191208333Y-76796961D02*
X191160714Y-76701723D01*
X191160714Y-76701723D02*
X191113095Y-76511247D01*
X191113095Y-76511247D02*
X191113095Y-76368390D01*
X191113095Y-76368390D02*
X191160714Y-76177914D01*
X191160714Y-76177914D02*
X191208333Y-76082676D01*
X191208333Y-76082676D02*
X191303571Y-75987438D01*
X191303571Y-75987438D02*
X191446428Y-75939819D01*
X191446428Y-75939819D02*
X191541666Y-75939819D01*
X191541666Y-75939819D02*
X191684523Y-75987438D01*
X191684523Y-75987438D02*
X191732142Y-76035057D01*
X192684523Y-76939819D02*
X192113095Y-76939819D01*
X192398809Y-76939819D02*
X192398809Y-75939819D01*
X192398809Y-75939819D02*
X192303571Y-76082676D01*
X192303571Y-76082676D02*
X192208333Y-76177914D01*
X192208333Y-76177914D02*
X192113095Y-76225533D01*
X193636904Y-76939819D02*
X193065476Y-76939819D01*
X193351190Y-76939819D02*
X193351190Y-75939819D01*
X193351190Y-75939819D02*
X193255952Y-76082676D01*
X193255952Y-76082676D02*
X193160714Y-76177914D01*
X193160714Y-76177914D02*
X193065476Y-76225533D01*
X186804580Y-78557857D02*
X186852200Y-78605476D01*
X186852200Y-78605476D02*
X186899819Y-78748333D01*
X186899819Y-78748333D02*
X186899819Y-78843571D01*
X186899819Y-78843571D02*
X186852200Y-78986428D01*
X186852200Y-78986428D02*
X186756961Y-79081666D01*
X186756961Y-79081666D02*
X186661723Y-79129285D01*
X186661723Y-79129285D02*
X186471247Y-79176904D01*
X186471247Y-79176904D02*
X186328390Y-79176904D01*
X186328390Y-79176904D02*
X186137914Y-79129285D01*
X186137914Y-79129285D02*
X186042676Y-79081666D01*
X186042676Y-79081666D02*
X185947438Y-78986428D01*
X185947438Y-78986428D02*
X185899819Y-78843571D01*
X185899819Y-78843571D02*
X185899819Y-78748333D01*
X185899819Y-78748333D02*
X185947438Y-78605476D01*
X185947438Y-78605476D02*
X185995057Y-78557857D01*
X186899819Y-77605476D02*
X186899819Y-78176904D01*
X186899819Y-77891190D02*
X185899819Y-77891190D01*
X185899819Y-77891190D02*
X186042676Y-77986428D01*
X186042676Y-77986428D02*
X186137914Y-78081666D01*
X186137914Y-78081666D02*
X186185533Y-78176904D01*
X185899819Y-76986428D02*
X185899819Y-76891190D01*
X185899819Y-76891190D02*
X185947438Y-76795952D01*
X185947438Y-76795952D02*
X185995057Y-76748333D01*
X185995057Y-76748333D02*
X186090295Y-76700714D01*
X186090295Y-76700714D02*
X186280771Y-76653095D01*
X186280771Y-76653095D02*
X186518866Y-76653095D01*
X186518866Y-76653095D02*
X186709342Y-76700714D01*
X186709342Y-76700714D02*
X186804580Y-76748333D01*
X186804580Y-76748333D02*
X186852200Y-76795952D01*
X186852200Y-76795952D02*
X186899819Y-76891190D01*
X186899819Y-76891190D02*
X186899819Y-76986428D01*
X186899819Y-76986428D02*
X186852200Y-77081666D01*
X186852200Y-77081666D02*
X186804580Y-77129285D01*
X186804580Y-77129285D02*
X186709342Y-77176904D01*
X186709342Y-77176904D02*
X186518866Y-77224523D01*
X186518866Y-77224523D02*
X186280771Y-77224523D01*
X186280771Y-77224523D02*
X186090295Y-77176904D01*
X186090295Y-77176904D02*
X185995057Y-77129285D01*
X185995057Y-77129285D02*
X185947438Y-77081666D01*
X185947438Y-77081666D02*
X185899819Y-76986428D01*
X192208333Y-80244580D02*
X192160714Y-80292200D01*
X192160714Y-80292200D02*
X192017857Y-80339819D01*
X192017857Y-80339819D02*
X191922619Y-80339819D01*
X191922619Y-80339819D02*
X191779762Y-80292200D01*
X191779762Y-80292200D02*
X191684524Y-80196961D01*
X191684524Y-80196961D02*
X191636905Y-80101723D01*
X191636905Y-80101723D02*
X191589286Y-79911247D01*
X191589286Y-79911247D02*
X191589286Y-79768390D01*
X191589286Y-79768390D02*
X191636905Y-79577914D01*
X191636905Y-79577914D02*
X191684524Y-79482676D01*
X191684524Y-79482676D02*
X191779762Y-79387438D01*
X191779762Y-79387438D02*
X191922619Y-79339819D01*
X191922619Y-79339819D02*
X192017857Y-79339819D01*
X192017857Y-79339819D02*
X192160714Y-79387438D01*
X192160714Y-79387438D02*
X192208333Y-79435057D01*
X192684524Y-80339819D02*
X192875000Y-80339819D01*
X192875000Y-80339819D02*
X192970238Y-80292200D01*
X192970238Y-80292200D02*
X193017857Y-80244580D01*
X193017857Y-80244580D02*
X193113095Y-80101723D01*
X193113095Y-80101723D02*
X193160714Y-79911247D01*
X193160714Y-79911247D02*
X193160714Y-79530295D01*
X193160714Y-79530295D02*
X193113095Y-79435057D01*
X193113095Y-79435057D02*
X193065476Y-79387438D01*
X193065476Y-79387438D02*
X192970238Y-79339819D01*
X192970238Y-79339819D02*
X192779762Y-79339819D01*
X192779762Y-79339819D02*
X192684524Y-79387438D01*
X192684524Y-79387438D02*
X192636905Y-79435057D01*
X192636905Y-79435057D02*
X192589286Y-79530295D01*
X192589286Y-79530295D02*
X192589286Y-79768390D01*
X192589286Y-79768390D02*
X192636905Y-79863628D01*
X192636905Y-79863628D02*
X192684524Y-79911247D01*
X192684524Y-79911247D02*
X192779762Y-79958866D01*
X192779762Y-79958866D02*
X192970238Y-79958866D01*
X192970238Y-79958866D02*
X193065476Y-79911247D01*
X193065476Y-79911247D02*
X193113095Y-79863628D01*
X193113095Y-79863628D02*
X193160714Y-79768390D01*
X190164580Y-82181666D02*
X190212200Y-82229285D01*
X190212200Y-82229285D02*
X190259819Y-82372142D01*
X190259819Y-82372142D02*
X190259819Y-82467380D01*
X190259819Y-82467380D02*
X190212200Y-82610237D01*
X190212200Y-82610237D02*
X190116961Y-82705475D01*
X190116961Y-82705475D02*
X190021723Y-82753094D01*
X190021723Y-82753094D02*
X189831247Y-82800713D01*
X189831247Y-82800713D02*
X189688390Y-82800713D01*
X189688390Y-82800713D02*
X189497914Y-82753094D01*
X189497914Y-82753094D02*
X189402676Y-82705475D01*
X189402676Y-82705475D02*
X189307438Y-82610237D01*
X189307438Y-82610237D02*
X189259819Y-82467380D01*
X189259819Y-82467380D02*
X189259819Y-82372142D01*
X189259819Y-82372142D02*
X189307438Y-82229285D01*
X189307438Y-82229285D02*
X189355057Y-82181666D01*
X189688390Y-81610237D02*
X189640771Y-81705475D01*
X189640771Y-81705475D02*
X189593152Y-81753094D01*
X189593152Y-81753094D02*
X189497914Y-81800713D01*
X189497914Y-81800713D02*
X189450295Y-81800713D01*
X189450295Y-81800713D02*
X189355057Y-81753094D01*
X189355057Y-81753094D02*
X189307438Y-81705475D01*
X189307438Y-81705475D02*
X189259819Y-81610237D01*
X189259819Y-81610237D02*
X189259819Y-81419761D01*
X189259819Y-81419761D02*
X189307438Y-81324523D01*
X189307438Y-81324523D02*
X189355057Y-81276904D01*
X189355057Y-81276904D02*
X189450295Y-81229285D01*
X189450295Y-81229285D02*
X189497914Y-81229285D01*
X189497914Y-81229285D02*
X189593152Y-81276904D01*
X189593152Y-81276904D02*
X189640771Y-81324523D01*
X189640771Y-81324523D02*
X189688390Y-81419761D01*
X189688390Y-81419761D02*
X189688390Y-81610237D01*
X189688390Y-81610237D02*
X189736009Y-81705475D01*
X189736009Y-81705475D02*
X189783628Y-81753094D01*
X189783628Y-81753094D02*
X189878866Y-81800713D01*
X189878866Y-81800713D02*
X190069342Y-81800713D01*
X190069342Y-81800713D02*
X190164580Y-81753094D01*
X190164580Y-81753094D02*
X190212200Y-81705475D01*
X190212200Y-81705475D02*
X190259819Y-81610237D01*
X190259819Y-81610237D02*
X190259819Y-81419761D01*
X190259819Y-81419761D02*
X190212200Y-81324523D01*
X190212200Y-81324523D02*
X190164580Y-81276904D01*
X190164580Y-81276904D02*
X190069342Y-81229285D01*
X190069342Y-81229285D02*
X189878866Y-81229285D01*
X189878866Y-81229285D02*
X189783628Y-81276904D01*
X189783628Y-81276904D02*
X189736009Y-81324523D01*
X189736009Y-81324523D02*
X189688390Y-81419761D01*
X201683333Y-82879580D02*
X201635714Y-82927200D01*
X201635714Y-82927200D02*
X201492857Y-82974819D01*
X201492857Y-82974819D02*
X201397619Y-82974819D01*
X201397619Y-82974819D02*
X201254762Y-82927200D01*
X201254762Y-82927200D02*
X201159524Y-82831961D01*
X201159524Y-82831961D02*
X201111905Y-82736723D01*
X201111905Y-82736723D02*
X201064286Y-82546247D01*
X201064286Y-82546247D02*
X201064286Y-82403390D01*
X201064286Y-82403390D02*
X201111905Y-82212914D01*
X201111905Y-82212914D02*
X201159524Y-82117676D01*
X201159524Y-82117676D02*
X201254762Y-82022438D01*
X201254762Y-82022438D02*
X201397619Y-81974819D01*
X201397619Y-81974819D02*
X201492857Y-81974819D01*
X201492857Y-81974819D02*
X201635714Y-82022438D01*
X201635714Y-82022438D02*
X201683333Y-82070057D01*
X202016667Y-81974819D02*
X202683333Y-81974819D01*
X202683333Y-81974819D02*
X202254762Y-82974819D01*
X201683333Y-74559580D02*
X201635714Y-74607200D01*
X201635714Y-74607200D02*
X201492857Y-74654819D01*
X201492857Y-74654819D02*
X201397619Y-74654819D01*
X201397619Y-74654819D02*
X201254762Y-74607200D01*
X201254762Y-74607200D02*
X201159524Y-74511961D01*
X201159524Y-74511961D02*
X201111905Y-74416723D01*
X201111905Y-74416723D02*
X201064286Y-74226247D01*
X201064286Y-74226247D02*
X201064286Y-74083390D01*
X201064286Y-74083390D02*
X201111905Y-73892914D01*
X201111905Y-73892914D02*
X201159524Y-73797676D01*
X201159524Y-73797676D02*
X201254762Y-73702438D01*
X201254762Y-73702438D02*
X201397619Y-73654819D01*
X201397619Y-73654819D02*
X201492857Y-73654819D01*
X201492857Y-73654819D02*
X201635714Y-73702438D01*
X201635714Y-73702438D02*
X201683333Y-73750057D01*
X202540476Y-73654819D02*
X202350000Y-73654819D01*
X202350000Y-73654819D02*
X202254762Y-73702438D01*
X202254762Y-73702438D02*
X202207143Y-73750057D01*
X202207143Y-73750057D02*
X202111905Y-73892914D01*
X202111905Y-73892914D02*
X202064286Y-74083390D01*
X202064286Y-74083390D02*
X202064286Y-74464342D01*
X202064286Y-74464342D02*
X202111905Y-74559580D01*
X202111905Y-74559580D02*
X202159524Y-74607200D01*
X202159524Y-74607200D02*
X202254762Y-74654819D01*
X202254762Y-74654819D02*
X202445238Y-74654819D01*
X202445238Y-74654819D02*
X202540476Y-74607200D01*
X202540476Y-74607200D02*
X202588095Y-74559580D01*
X202588095Y-74559580D02*
X202635714Y-74464342D01*
X202635714Y-74464342D02*
X202635714Y-74226247D01*
X202635714Y-74226247D02*
X202588095Y-74131009D01*
X202588095Y-74131009D02*
X202540476Y-74083390D01*
X202540476Y-74083390D02*
X202445238Y-74035771D01*
X202445238Y-74035771D02*
X202254762Y-74035771D01*
X202254762Y-74035771D02*
X202159524Y-74083390D01*
X202159524Y-74083390D02*
X202111905Y-74131009D01*
X202111905Y-74131009D02*
X202064286Y-74226247D01*
X197233333Y-60759580D02*
X197185714Y-60807200D01*
X197185714Y-60807200D02*
X197042857Y-60854819D01*
X197042857Y-60854819D02*
X196947619Y-60854819D01*
X196947619Y-60854819D02*
X196804762Y-60807200D01*
X196804762Y-60807200D02*
X196709524Y-60711961D01*
X196709524Y-60711961D02*
X196661905Y-60616723D01*
X196661905Y-60616723D02*
X196614286Y-60426247D01*
X196614286Y-60426247D02*
X196614286Y-60283390D01*
X196614286Y-60283390D02*
X196661905Y-60092914D01*
X196661905Y-60092914D02*
X196709524Y-59997676D01*
X196709524Y-59997676D02*
X196804762Y-59902438D01*
X196804762Y-59902438D02*
X196947619Y-59854819D01*
X196947619Y-59854819D02*
X197042857Y-59854819D01*
X197042857Y-59854819D02*
X197185714Y-59902438D01*
X197185714Y-59902438D02*
X197233333Y-59950057D01*
X198138095Y-59854819D02*
X197661905Y-59854819D01*
X197661905Y-59854819D02*
X197614286Y-60331009D01*
X197614286Y-60331009D02*
X197661905Y-60283390D01*
X197661905Y-60283390D02*
X197757143Y-60235771D01*
X197757143Y-60235771D02*
X197995238Y-60235771D01*
X197995238Y-60235771D02*
X198090476Y-60283390D01*
X198090476Y-60283390D02*
X198138095Y-60331009D01*
X198138095Y-60331009D02*
X198185714Y-60426247D01*
X198185714Y-60426247D02*
X198185714Y-60664342D01*
X198185714Y-60664342D02*
X198138095Y-60759580D01*
X198138095Y-60759580D02*
X198090476Y-60807200D01*
X198090476Y-60807200D02*
X197995238Y-60854819D01*
X197995238Y-60854819D02*
X197757143Y-60854819D01*
X197757143Y-60854819D02*
X197661905Y-60807200D01*
X197661905Y-60807200D02*
X197614286Y-60759580D01*
X197283333Y-72079580D02*
X197235714Y-72127200D01*
X197235714Y-72127200D02*
X197092857Y-72174819D01*
X197092857Y-72174819D02*
X196997619Y-72174819D01*
X196997619Y-72174819D02*
X196854762Y-72127200D01*
X196854762Y-72127200D02*
X196759524Y-72031961D01*
X196759524Y-72031961D02*
X196711905Y-71936723D01*
X196711905Y-71936723D02*
X196664286Y-71746247D01*
X196664286Y-71746247D02*
X196664286Y-71603390D01*
X196664286Y-71603390D02*
X196711905Y-71412914D01*
X196711905Y-71412914D02*
X196759524Y-71317676D01*
X196759524Y-71317676D02*
X196854762Y-71222438D01*
X196854762Y-71222438D02*
X196997619Y-71174819D01*
X196997619Y-71174819D02*
X197092857Y-71174819D01*
X197092857Y-71174819D02*
X197235714Y-71222438D01*
X197235714Y-71222438D02*
X197283333Y-71270057D01*
X198140476Y-71508152D02*
X198140476Y-72174819D01*
X197902381Y-71127200D02*
X197664286Y-71841485D01*
X197664286Y-71841485D02*
X198283333Y-71841485D01*
X176983333Y-61639580D02*
X176935714Y-61687200D01*
X176935714Y-61687200D02*
X176792857Y-61734819D01*
X176792857Y-61734819D02*
X176697619Y-61734819D01*
X176697619Y-61734819D02*
X176554762Y-61687200D01*
X176554762Y-61687200D02*
X176459524Y-61591961D01*
X176459524Y-61591961D02*
X176411905Y-61496723D01*
X176411905Y-61496723D02*
X176364286Y-61306247D01*
X176364286Y-61306247D02*
X176364286Y-61163390D01*
X176364286Y-61163390D02*
X176411905Y-60972914D01*
X176411905Y-60972914D02*
X176459524Y-60877676D01*
X176459524Y-60877676D02*
X176554762Y-60782438D01*
X176554762Y-60782438D02*
X176697619Y-60734819D01*
X176697619Y-60734819D02*
X176792857Y-60734819D01*
X176792857Y-60734819D02*
X176935714Y-60782438D01*
X176935714Y-60782438D02*
X176983333Y-60830057D01*
X177316667Y-60734819D02*
X177935714Y-60734819D01*
X177935714Y-60734819D02*
X177602381Y-61115771D01*
X177602381Y-61115771D02*
X177745238Y-61115771D01*
X177745238Y-61115771D02*
X177840476Y-61163390D01*
X177840476Y-61163390D02*
X177888095Y-61211009D01*
X177888095Y-61211009D02*
X177935714Y-61306247D01*
X177935714Y-61306247D02*
X177935714Y-61544342D01*
X177935714Y-61544342D02*
X177888095Y-61639580D01*
X177888095Y-61639580D02*
X177840476Y-61687200D01*
X177840476Y-61687200D02*
X177745238Y-61734819D01*
X177745238Y-61734819D02*
X177459524Y-61734819D01*
X177459524Y-61734819D02*
X177364286Y-61687200D01*
X177364286Y-61687200D02*
X177316667Y-61639580D01*
X181483333Y-61639580D02*
X181435714Y-61687200D01*
X181435714Y-61687200D02*
X181292857Y-61734819D01*
X181292857Y-61734819D02*
X181197619Y-61734819D01*
X181197619Y-61734819D02*
X181054762Y-61687200D01*
X181054762Y-61687200D02*
X180959524Y-61591961D01*
X180959524Y-61591961D02*
X180911905Y-61496723D01*
X180911905Y-61496723D02*
X180864286Y-61306247D01*
X180864286Y-61306247D02*
X180864286Y-61163390D01*
X180864286Y-61163390D02*
X180911905Y-60972914D01*
X180911905Y-60972914D02*
X180959524Y-60877676D01*
X180959524Y-60877676D02*
X181054762Y-60782438D01*
X181054762Y-60782438D02*
X181197619Y-60734819D01*
X181197619Y-60734819D02*
X181292857Y-60734819D01*
X181292857Y-60734819D02*
X181435714Y-60782438D01*
X181435714Y-60782438D02*
X181483333Y-60830057D01*
X181864286Y-60830057D02*
X181911905Y-60782438D01*
X181911905Y-60782438D02*
X182007143Y-60734819D01*
X182007143Y-60734819D02*
X182245238Y-60734819D01*
X182245238Y-60734819D02*
X182340476Y-60782438D01*
X182340476Y-60782438D02*
X182388095Y-60830057D01*
X182388095Y-60830057D02*
X182435714Y-60925295D01*
X182435714Y-60925295D02*
X182435714Y-61020533D01*
X182435714Y-61020533D02*
X182388095Y-61163390D01*
X182388095Y-61163390D02*
X181816667Y-61734819D01*
X181816667Y-61734819D02*
X182435714Y-61734819D01*
X173639580Y-66116666D02*
X173687200Y-66164285D01*
X173687200Y-66164285D02*
X173734819Y-66307142D01*
X173734819Y-66307142D02*
X173734819Y-66402380D01*
X173734819Y-66402380D02*
X173687200Y-66545237D01*
X173687200Y-66545237D02*
X173591961Y-66640475D01*
X173591961Y-66640475D02*
X173496723Y-66688094D01*
X173496723Y-66688094D02*
X173306247Y-66735713D01*
X173306247Y-66735713D02*
X173163390Y-66735713D01*
X173163390Y-66735713D02*
X172972914Y-66688094D01*
X172972914Y-66688094D02*
X172877676Y-66640475D01*
X172877676Y-66640475D02*
X172782438Y-66545237D01*
X172782438Y-66545237D02*
X172734819Y-66402380D01*
X172734819Y-66402380D02*
X172734819Y-66307142D01*
X172734819Y-66307142D02*
X172782438Y-66164285D01*
X172782438Y-66164285D02*
X172830057Y-66116666D01*
X173734819Y-65164285D02*
X173734819Y-65735713D01*
X173734819Y-65449999D02*
X172734819Y-65449999D01*
X172734819Y-65449999D02*
X172877676Y-65545237D01*
X172877676Y-65545237D02*
X172972914Y-65640475D01*
X172972914Y-65640475D02*
X173020533Y-65735713D01*
D11*
%TO.C,kibuzzard-67733C4A*%
G36*
X192251931Y-38580258D02*
G01*
X191715451Y-38580258D01*
X191118026Y-38580258D01*
X189997854Y-38580258D01*
X188934335Y-38580258D01*
X188306009Y-38580258D01*
X186439056Y-38580258D01*
X184914592Y-38580258D01*
X184278541Y-38580258D01*
X182944635Y-38580258D01*
X181569528Y-38580258D01*
X180650215Y-38580258D01*
X178806438Y-38580258D01*
X177560086Y-38580258D01*
X175806438Y-38580258D01*
X174887124Y-38580258D01*
X173936910Y-38580258D01*
X172834764Y-38580258D01*
X172185837Y-38580258D01*
X171101717Y-38580258D01*
X169077682Y-38580258D01*
X168284549Y-38580258D01*
X167748069Y-38580258D01*
X167039914Y-38580258D01*
X167583262Y-36769099D01*
X168284549Y-36769099D01*
X168284549Y-37490129D01*
X168297425Y-37645923D01*
X168336052Y-37799142D01*
X168398820Y-37945279D01*
X168484120Y-38079828D01*
X168595172Y-38196030D01*
X168735193Y-38287124D01*
X168898069Y-38346030D01*
X169077682Y-38365665D01*
X169257618Y-38346352D01*
X169421459Y-38288412D01*
X169562768Y-38198605D01*
X169675107Y-38083691D01*
X169761695Y-37950107D01*
X169825751Y-37804292D01*
X169865343Y-37651073D01*
X169878541Y-37495279D01*
X169878541Y-37253219D01*
X170027897Y-37253219D01*
X170027897Y-38100429D01*
X170031760Y-38189270D01*
X170056223Y-38258798D01*
X170127039Y-38316738D01*
X170259657Y-38334764D01*
X170393562Y-38316738D01*
X170465665Y-38258798D01*
X170490129Y-38189270D01*
X170493991Y-38103004D01*
X170493991Y-37680687D01*
X170545494Y-37545494D01*
X170681974Y-37495279D01*
X170817167Y-37544206D01*
X170864807Y-37680687D01*
X170864807Y-38100429D01*
X170868670Y-38186695D01*
X170893133Y-38257511D01*
X170965236Y-38316738D01*
X171101717Y-38334764D01*
X171236910Y-38316738D01*
X171307725Y-38258798D01*
X171332189Y-38189270D01*
X171336052Y-38103004D01*
X171336052Y-37680687D01*
X171320887Y-37501574D01*
X171275393Y-37345351D01*
X171230323Y-37266094D01*
X171433906Y-37266094D01*
X171468670Y-37436052D01*
X171588412Y-37492704D01*
X171652790Y-37492704D01*
X171652790Y-37819742D01*
X171667239Y-37981116D01*
X171710587Y-38111588D01*
X171782833Y-38211159D01*
X171885408Y-38281259D01*
X172019742Y-38323319D01*
X172185837Y-38337339D01*
X172269528Y-38333476D01*
X172340343Y-38309013D01*
X172400858Y-38238197D01*
X172420172Y-38105579D01*
X172404721Y-37987124D01*
X172353219Y-37924034D01*
X172283691Y-37899571D01*
X172188412Y-37894421D01*
X172133047Y-37873820D01*
X172118884Y-37796567D01*
X172118884Y-37497854D01*
X172252790Y-37500429D01*
X172340343Y-37493991D01*
X172411159Y-37466953D01*
X172467811Y-37396137D01*
X172487124Y-37268670D01*
X172486487Y-37263519D01*
X172603004Y-37263519D01*
X172603004Y-38103004D01*
X172606867Y-38191845D01*
X172631330Y-38261373D01*
X172702146Y-38319313D01*
X172834764Y-38337339D01*
X172969957Y-38319313D01*
X173040773Y-38261373D01*
X173065236Y-38193133D01*
X173069099Y-38105579D01*
X173069099Y-37268670D01*
X173068987Y-37266094D01*
X173184979Y-37266094D01*
X173219742Y-37436052D01*
X173339485Y-37492704D01*
X173403863Y-37492704D01*
X173403863Y-37819742D01*
X173418312Y-37981116D01*
X173461660Y-38111588D01*
X173533906Y-38211159D01*
X173636481Y-38281259D01*
X173770815Y-38323319D01*
X173936910Y-38337339D01*
X174020601Y-38333476D01*
X174091416Y-38309013D01*
X174151931Y-38238197D01*
X174171245Y-38105579D01*
X174155794Y-37987124D01*
X174104292Y-37924034D01*
X174034764Y-37899571D01*
X173939485Y-37894421D01*
X173884120Y-37873820D01*
X173869957Y-37796567D01*
X173869957Y-37497854D01*
X174003863Y-37500429D01*
X174091416Y-37493991D01*
X174162232Y-37466953D01*
X174218884Y-37396137D01*
X174238197Y-37268670D01*
X174224034Y-37154077D01*
X174190558Y-37083262D01*
X174135193Y-37047210D01*
X174074678Y-37033047D01*
X174006438Y-37031760D01*
X173869957Y-37036910D01*
X173869957Y-36830901D01*
X173864807Y-36744635D01*
X173839056Y-36672532D01*
X173834336Y-36668670D01*
X174354077Y-36668670D01*
X174354077Y-37809442D01*
X174360515Y-37966845D01*
X174379828Y-38088841D01*
X174475107Y-38248498D01*
X174634764Y-38320601D01*
X174742918Y-38333155D01*
X174887124Y-38337339D01*
X174943777Y-38333476D01*
X174993991Y-38310300D01*
X175037768Y-38239485D01*
X175051931Y-38105579D01*
X175037768Y-37979399D01*
X174993991Y-37912446D01*
X174943777Y-37890558D01*
X174889700Y-37886695D01*
X174829185Y-37872532D01*
X174820172Y-37781116D01*
X174820172Y-37688412D01*
X175103433Y-37688412D01*
X175113412Y-37805579D01*
X175143348Y-37920172D01*
X175192918Y-38030901D01*
X175261803Y-38136481D01*
X175356116Y-38229506D01*
X175481974Y-38302575D01*
X175633906Y-38349893D01*
X175806438Y-38365665D01*
X176040773Y-38351019D01*
X176208155Y-38307082D01*
X176308584Y-38233852D01*
X176342060Y-38131330D01*
X176308584Y-38012876D01*
X176239056Y-37920172D01*
X176154077Y-37889270D01*
X176035622Y-37922747D01*
X175827039Y-37956223D01*
X175675107Y-37920172D01*
X175597854Y-37822318D01*
X176146352Y-37822318D01*
X176250966Y-37802682D01*
X176333047Y-37743777D01*
X176369775Y-37678112D01*
X176481116Y-37678112D01*
X176501288Y-37843205D01*
X176561803Y-37995136D01*
X176662661Y-38133906D01*
X176789270Y-38244063D01*
X176927039Y-38310157D01*
X177075966Y-38332189D01*
X177224034Y-38309013D01*
X177348927Y-38239485D01*
X177422318Y-38310944D01*
X177560086Y-38334764D01*
X177692704Y-38316738D01*
X177763519Y-38257511D01*
X177787983Y-38186695D01*
X177791845Y-38100429D01*
X177791845Y-36769099D01*
X178572103Y-36769099D01*
X178572103Y-38100429D01*
X178575966Y-38189270D01*
X178600429Y-38260086D01*
X178672532Y-38319313D01*
X178806438Y-38337339D01*
X179754077Y-38337339D01*
X179842918Y-38333476D01*
X179913734Y-38309013D01*
X179972961Y-38236910D01*
X179990987Y-38103004D01*
X179972961Y-37966524D01*
X179915021Y-37894421D01*
X179845494Y-37869957D01*
X179756652Y-37866094D01*
X179043348Y-37866094D01*
X179043348Y-37636910D01*
X179514592Y-37636910D01*
X179599571Y-37633047D01*
X179663948Y-37612446D01*
X179714163Y-37553219D01*
X179728326Y-37438627D01*
X179714163Y-37321459D01*
X179665236Y-37259657D01*
X179603433Y-37239056D01*
X179519742Y-37235193D01*
X179043348Y-37235193D01*
X179043348Y-37006009D01*
X179754077Y-37006009D01*
X179842918Y-37002146D01*
X179913734Y-36977682D01*
X179972961Y-36905579D01*
X179990987Y-36771674D01*
X179977383Y-36668670D01*
X180117167Y-36668670D01*
X180117167Y-37809442D01*
X180123605Y-37966845D01*
X180142918Y-38088841D01*
X180238197Y-38248498D01*
X180397854Y-38320601D01*
X180506009Y-38333155D01*
X180650215Y-38337339D01*
X180706867Y-38333476D01*
X180757082Y-38310300D01*
X180800858Y-38239485D01*
X180815021Y-38105579D01*
X180800858Y-37979399D01*
X180757082Y-37912446D01*
X180706867Y-37890558D01*
X180652790Y-37886695D01*
X180592275Y-37872532D01*
X180583262Y-37781116D01*
X180583262Y-37688412D01*
X180866524Y-37688412D01*
X180876502Y-37805579D01*
X180906438Y-37920172D01*
X180956009Y-38030901D01*
X181024893Y-38136481D01*
X181119206Y-38229506D01*
X181245064Y-38302575D01*
X181396996Y-38349893D01*
X181569528Y-38365665D01*
X181803863Y-38351019D01*
X181971245Y-38307082D01*
X182071674Y-38233852D01*
X182105150Y-38131330D01*
X182071674Y-38012876D01*
X182002146Y-37920172D01*
X181917167Y-37889270D01*
X181798712Y-37922747D01*
X181590129Y-37956223D01*
X181438197Y-37920172D01*
X181360944Y-37822318D01*
X181909442Y-37822318D01*
X182014056Y-37802682D01*
X182096137Y-37743777D01*
X182132865Y-37678112D01*
X182269957Y-37678112D01*
X182286052Y-37831009D01*
X182334335Y-37970386D01*
X182408369Y-38089807D01*
X182501717Y-38182833D01*
X182607618Y-38253648D01*
X182719313Y-38306438D01*
X182832940Y-38339270D01*
X182944635Y-38350215D01*
X183119742Y-38325107D01*
X183294850Y-38249785D01*
X183406724Y-38149070D01*
X183433333Y-38039199D01*
X183374678Y-37920172D01*
X183271030Y-37817811D01*
X183181545Y-37783691D01*
X183047639Y-37840343D01*
X182934335Y-37873820D01*
X182804292Y-37817167D01*
X182748927Y-37680687D01*
X182805579Y-37545494D01*
X182939485Y-37490129D01*
X183069528Y-37536481D01*
X183196996Y-37582833D01*
X183289700Y-37547425D01*
X183382403Y-37441202D01*
X183436481Y-37294421D01*
X183427511Y-37266094D01*
X183526609Y-37266094D01*
X183561373Y-37436052D01*
X183681116Y-37492704D01*
X183745494Y-37492704D01*
X183745494Y-37819742D01*
X183759943Y-37981116D01*
X183803290Y-38111588D01*
X183875536Y-38211159D01*
X183978112Y-38281259D01*
X184112446Y-38323319D01*
X184278541Y-38337339D01*
X184362232Y-38333476D01*
X184433047Y-38309013D01*
X184493562Y-38238197D01*
X184512876Y-38105579D01*
X184497425Y-37987124D01*
X184445923Y-37924034D01*
X184376395Y-37899571D01*
X184281116Y-37894421D01*
X184225751Y-37873820D01*
X184211588Y-37796567D01*
X184211588Y-37497854D01*
X184345494Y-37500429D01*
X184433047Y-37493991D01*
X184503863Y-37466953D01*
X184560515Y-37396137D01*
X184579828Y-37268670D01*
X184578873Y-37260944D01*
X184682833Y-37260944D01*
X184682833Y-38100429D01*
X184686695Y-38189270D01*
X184711159Y-38260086D01*
X184781974Y-38319313D01*
X184914592Y-38337339D01*
X185051073Y-38319313D01*
X185123176Y-38261373D01*
X185147639Y-38193133D01*
X185151502Y-38105579D01*
X185151502Y-37683262D01*
X185754077Y-37683262D01*
X185777825Y-37867668D01*
X185849070Y-38029471D01*
X185967811Y-38168670D01*
X186115165Y-38275250D01*
X186272246Y-38339199D01*
X186439056Y-38360515D01*
X186604292Y-38339628D01*
X186760086Y-38276967D01*
X186906438Y-38172532D01*
X187024464Y-38034335D01*
X187095279Y-37870386D01*
X187118884Y-37680687D01*
X187096710Y-37499857D01*
X187030186Y-37338484D01*
X186963573Y-37253219D01*
X187232189Y-37253219D01*
X187232189Y-38100429D01*
X187236052Y-38189270D01*
X187260515Y-38258798D01*
X187331330Y-38316738D01*
X187463948Y-38334764D01*
X187597854Y-38316738D01*
X187669957Y-38258798D01*
X187694421Y-38189270D01*
X187698283Y-38103004D01*
X187698283Y-37680687D01*
X187749785Y-37545494D01*
X187886266Y-37495279D01*
X188021459Y-37544206D01*
X188069099Y-37680687D01*
X188069099Y-38100429D01*
X188072961Y-38186695D01*
X188097425Y-38257511D01*
X188169528Y-38316738D01*
X188306009Y-38334764D01*
X188441202Y-38316738D01*
X188512017Y-38258798D01*
X188536481Y-38189270D01*
X188540343Y-38103004D01*
X188540343Y-37680687D01*
X188525179Y-37501574D01*
X188479685Y-37345351D01*
X188433150Y-37263519D01*
X188702575Y-37263519D01*
X188702575Y-38103004D01*
X188706438Y-38191845D01*
X188730901Y-38261373D01*
X188801717Y-38319313D01*
X188934335Y-38337339D01*
X189069528Y-38319313D01*
X189140343Y-38261373D01*
X189164807Y-38193133D01*
X189168670Y-38105579D01*
X189168670Y-37678112D01*
X189323176Y-37678112D01*
X189339270Y-37831009D01*
X189387554Y-37970386D01*
X189461588Y-38089807D01*
X189554936Y-38182833D01*
X189660837Y-38253648D01*
X189772532Y-38306438D01*
X189886159Y-38339270D01*
X189997854Y-38350215D01*
X190172961Y-38325107D01*
X190348069Y-38249785D01*
X190459943Y-38149070D01*
X190467357Y-38118455D01*
X190592704Y-38118455D01*
X190637446Y-38213090D01*
X190771674Y-38290987D01*
X190947747Y-38343133D01*
X191118026Y-38360515D01*
X191324755Y-38342695D01*
X191485545Y-38289236D01*
X191600395Y-38200137D01*
X191669305Y-38075399D01*
X191692275Y-37915021D01*
X191657511Y-37729614D01*
X191557082Y-37611159D01*
X191433476Y-37551931D01*
X191293133Y-37518455D01*
X191251931Y-37512017D01*
X191210730Y-37505579D01*
X191174678Y-37497854D01*
X191141202Y-37488841D01*
X191112876Y-37479828D01*
X191088412Y-37468240D01*
X191071674Y-37454077D01*
X191060086Y-37436052D01*
X191056223Y-37412876D01*
X191151502Y-37361373D01*
X191311159Y-37407725D01*
X191452790Y-37454077D01*
X191581545Y-37356223D01*
X191637554Y-37195279D01*
X191537768Y-37088412D01*
X191358155Y-37024678D01*
X191179828Y-37003433D01*
X191015737Y-37015021D01*
X190880544Y-37049785D01*
X190774249Y-37107725D01*
X190670923Y-37235515D01*
X190636481Y-37410300D01*
X190656277Y-37554989D01*
X190715665Y-37672318D01*
X190814646Y-37762285D01*
X190953219Y-37824893D01*
X191092275Y-37859657D01*
X191219742Y-37895708D01*
X191257082Y-37940773D01*
X191159227Y-37981974D01*
X190967382Y-37918884D01*
X190788412Y-37855794D01*
X190687983Y-37907296D01*
X190616524Y-38027039D01*
X190592704Y-38118455D01*
X190467357Y-38118455D01*
X190486552Y-38039199D01*
X190427897Y-37920172D01*
X190324249Y-37817811D01*
X190234764Y-37783691D01*
X190100858Y-37840343D01*
X189987554Y-37873820D01*
X189857511Y-37817167D01*
X189802146Y-37680687D01*
X189858798Y-37545494D01*
X189992704Y-37490129D01*
X190122747Y-37536481D01*
X190250215Y-37582833D01*
X190342918Y-37547425D01*
X190435622Y-37441202D01*
X190489700Y-37294421D01*
X190465236Y-37217167D01*
X190416309Y-37161803D01*
X190348069Y-37116738D01*
X190176824Y-37039485D01*
X189992704Y-37013734D01*
X189882940Y-37024678D01*
X189769957Y-37057511D01*
X189658584Y-37109979D01*
X189553648Y-37179828D01*
X189461266Y-37271567D01*
X189387554Y-37389700D01*
X189339270Y-37527468D01*
X189323176Y-37678112D01*
X189168670Y-37678112D01*
X189168670Y-37268670D01*
X189164807Y-37179828D01*
X189140343Y-37109013D01*
X189069528Y-37049785D01*
X188936910Y-37031760D01*
X188934335Y-37032106D01*
X188803004Y-37049785D01*
X188730901Y-37107725D01*
X188706438Y-37177253D01*
X188702575Y-37263519D01*
X188433150Y-37263519D01*
X188403863Y-37212017D01*
X188300286Y-37110443D01*
X188171531Y-37049499D01*
X188017597Y-37029185D01*
X187830901Y-37078112D01*
X187693133Y-37188841D01*
X187685408Y-37136052D01*
X187657082Y-37087124D01*
X187587554Y-37044635D01*
X187466524Y-37029185D01*
X187332618Y-37045923D01*
X187261803Y-37101288D01*
X187237339Y-37168240D01*
X187232189Y-37253219D01*
X186963573Y-37253219D01*
X186919313Y-37196567D01*
X186776681Y-37086409D01*
X186614878Y-37020315D01*
X186433906Y-36998283D01*
X186257082Y-37020744D01*
X186097425Y-37088126D01*
X185954936Y-37200429D01*
X185843348Y-37343920D01*
X185776395Y-37504864D01*
X185754077Y-37683262D01*
X185151502Y-37683262D01*
X185151502Y-37603433D01*
X185201717Y-37509442D01*
X185329185Y-37472103D01*
X185392275Y-37491416D01*
X185491416Y-37510730D01*
X185635622Y-37421888D01*
X185678112Y-37322425D01*
X185692275Y-37201717D01*
X185660086Y-37103863D01*
X185576395Y-37045923D01*
X185483691Y-37022747D01*
X185406438Y-37016309D01*
X185268670Y-37045923D01*
X185138627Y-37134764D01*
X185066524Y-37055579D01*
X184917167Y-37029185D01*
X184781974Y-37047210D01*
X184711159Y-37105150D01*
X184686695Y-37173391D01*
X184682833Y-37260944D01*
X184578873Y-37260944D01*
X184565665Y-37154077D01*
X184532189Y-37083262D01*
X184476824Y-37047210D01*
X184416309Y-37033047D01*
X184348069Y-37031760D01*
X184211588Y-37036910D01*
X184211588Y-36830901D01*
X184206438Y-36744635D01*
X184180687Y-36672532D01*
X184179114Y-36671245D01*
X188702575Y-36671245D01*
X188706438Y-36757511D01*
X188730901Y-36828326D01*
X188801717Y-36887554D01*
X188934335Y-36905579D01*
X189069528Y-36887554D01*
X189140343Y-36829614D01*
X189164807Y-36761373D01*
X189168670Y-36673820D01*
X189164807Y-36587554D01*
X189140343Y-36516738D01*
X189069528Y-36457511D01*
X188936910Y-36439485D01*
X188803004Y-36457511D01*
X188730901Y-36515451D01*
X188706438Y-36584979D01*
X188702575Y-36671245D01*
X184179114Y-36671245D01*
X184109871Y-36614592D01*
X183979828Y-36596567D01*
X183844635Y-36613305D01*
X183773820Y-36667382D01*
X183749356Y-36734335D01*
X183745494Y-36820601D01*
X183745494Y-37044635D01*
X183691416Y-37044635D01*
X183567811Y-37100000D01*
X183526609Y-37266094D01*
X183427511Y-37266094D01*
X183412017Y-37217167D01*
X183363090Y-37161803D01*
X183294850Y-37116738D01*
X183123605Y-37039485D01*
X182939485Y-37013734D01*
X182829721Y-37024678D01*
X182716738Y-37057511D01*
X182605365Y-37109979D01*
X182500429Y-37179828D01*
X182408047Y-37271567D01*
X182334335Y-37389700D01*
X182286052Y-37527468D01*
X182269957Y-37678112D01*
X182132865Y-37678112D01*
X182149249Y-37648820D01*
X182166953Y-37521030D01*
X182128648Y-37340129D01*
X182013734Y-37168240D01*
X181896567Y-37075250D01*
X181749356Y-37019456D01*
X181572103Y-37000858D01*
X181377110Y-37022175D01*
X181207582Y-37086123D01*
X181063519Y-37192704D01*
X180954077Y-37333047D01*
X180888412Y-37498283D01*
X180866524Y-37688412D01*
X180583262Y-37688412D01*
X180583262Y-36671245D01*
X180578112Y-36583691D01*
X180553648Y-36511588D01*
X180484120Y-36452361D01*
X180351502Y-36434335D01*
X180217597Y-36452361D01*
X180145494Y-36510300D01*
X180121030Y-36579828D01*
X180117167Y-36668670D01*
X179977383Y-36668670D01*
X179972961Y-36635193D01*
X179915021Y-36563090D01*
X179845494Y-36538627D01*
X179756652Y-36534764D01*
X178814163Y-36534764D01*
X178624893Y-36584979D01*
X178572103Y-36769099D01*
X177791845Y-36769099D01*
X177791845Y-36671245D01*
X177787983Y-36584979D01*
X177763519Y-36515451D01*
X177692704Y-36457511D01*
X177557511Y-36439485D01*
X177445494Y-36452361D01*
X177378541Y-36488412D01*
X177345064Y-36542489D01*
X177334764Y-36606867D01*
X177336052Y-36673820D01*
X177336052Y-37116738D01*
X177216953Y-37053004D01*
X177075966Y-37031760D01*
X176928326Y-37053791D01*
X176790987Y-37119886D01*
X176663948Y-37230043D01*
X176562375Y-37367954D01*
X176501431Y-37517310D01*
X176481116Y-37678112D01*
X176369775Y-37678112D01*
X176386159Y-37648820D01*
X176403863Y-37521030D01*
X176365558Y-37340129D01*
X176250644Y-37168240D01*
X176133476Y-37075250D01*
X175986266Y-37019456D01*
X175809013Y-37000858D01*
X175614020Y-37022175D01*
X175444492Y-37086123D01*
X175300429Y-37192704D01*
X175190987Y-37333047D01*
X175125322Y-37498283D01*
X175103433Y-37688412D01*
X174820172Y-37688412D01*
X174820172Y-36671245D01*
X174815021Y-36583691D01*
X174790558Y-36511588D01*
X174721030Y-36452361D01*
X174588412Y-36434335D01*
X174454506Y-36452361D01*
X174382403Y-36510300D01*
X174357940Y-36579828D01*
X174354077Y-36668670D01*
X173834336Y-36668670D01*
X173768240Y-36614592D01*
X173638197Y-36596567D01*
X173503004Y-36613305D01*
X173432189Y-36667382D01*
X173407725Y-36734335D01*
X173403863Y-36820601D01*
X173403863Y-37044635D01*
X173349785Y-37044635D01*
X173226180Y-37100000D01*
X173184979Y-37266094D01*
X173068987Y-37266094D01*
X173065236Y-37179828D01*
X173040773Y-37109013D01*
X172969957Y-37049785D01*
X172837339Y-37031760D01*
X172834764Y-37032106D01*
X172703433Y-37049785D01*
X172631330Y-37107725D01*
X172606867Y-37177253D01*
X172603004Y-37263519D01*
X172486487Y-37263519D01*
X172472961Y-37154077D01*
X172439485Y-37083262D01*
X172384120Y-37047210D01*
X172323605Y-37033047D01*
X172255365Y-37031760D01*
X172118884Y-37036910D01*
X172118884Y-36830901D01*
X172113734Y-36744635D01*
X172087983Y-36672532D01*
X172086410Y-36671245D01*
X172603004Y-36671245D01*
X172606867Y-36757511D01*
X172631330Y-36828326D01*
X172702146Y-36887554D01*
X172834764Y-36905579D01*
X172969957Y-36887554D01*
X173040773Y-36829614D01*
X173065236Y-36761373D01*
X173069099Y-36673820D01*
X173065236Y-36587554D01*
X173040773Y-36516738D01*
X172969957Y-36457511D01*
X172837339Y-36439485D01*
X172703433Y-36457511D01*
X172631330Y-36515451D01*
X172606867Y-36584979D01*
X172603004Y-36671245D01*
X172086410Y-36671245D01*
X172017167Y-36614592D01*
X171887124Y-36596567D01*
X171751931Y-36613305D01*
X171681116Y-36667382D01*
X171656652Y-36734335D01*
X171652790Y-36820601D01*
X171652790Y-37044635D01*
X171598712Y-37044635D01*
X171475107Y-37100000D01*
X171433906Y-37266094D01*
X171230323Y-37266094D01*
X171199571Y-37212017D01*
X171095994Y-37110443D01*
X170967239Y-37049499D01*
X170813305Y-37029185D01*
X170626609Y-37078112D01*
X170488841Y-37188841D01*
X170481116Y-37136052D01*
X170452790Y-37087124D01*
X170383262Y-37044635D01*
X170262232Y-37029185D01*
X170128326Y-37045923D01*
X170057511Y-37101288D01*
X170033047Y-37168240D01*
X170027897Y-37253219D01*
X169878541Y-37253219D01*
X169878541Y-36771674D01*
X169874678Y-36682833D01*
X169850215Y-36610730D01*
X169778112Y-36550215D01*
X169644206Y-36532189D01*
X169510300Y-36550215D01*
X169438197Y-36605579D01*
X169412446Y-36672532D01*
X169407296Y-36756223D01*
X169407296Y-37487554D01*
X169385408Y-37652361D01*
X169319742Y-37781116D01*
X169217382Y-37864163D01*
X169085408Y-37891845D01*
X168975322Y-37874785D01*
X168887124Y-37823605D01*
X168784120Y-37671674D01*
X168758369Y-37490129D01*
X168758369Y-36771674D01*
X168753219Y-36680258D01*
X168727468Y-36608155D01*
X168656652Y-36550215D01*
X168521459Y-36532189D01*
X168384979Y-36550215D01*
X168312876Y-36609442D01*
X168288412Y-36680258D01*
X168284549Y-36769099D01*
X167583262Y-36769099D01*
X167748069Y-36219742D01*
X168284549Y-36219742D01*
X191715451Y-36219742D01*
X192251931Y-36219742D01*
X192960086Y-36219742D01*
X192251931Y-38580258D01*
G37*
G36*
X186588412Y-37526180D02*
G01*
X186647639Y-37678112D01*
X186578112Y-37837768D01*
X186433906Y-37889270D01*
X186292275Y-37837768D01*
X186225322Y-37680687D01*
X186285837Y-37530043D01*
X186431330Y-37469528D01*
X186588412Y-37526180D01*
G37*
G36*
X177266524Y-37551931D02*
G01*
X177320601Y-37683262D01*
X177266524Y-37813305D01*
X177137768Y-37868670D01*
X177006438Y-37813305D01*
X176949785Y-37683262D01*
X177003863Y-37551931D01*
X177135193Y-37497854D01*
X177266524Y-37551931D01*
G37*
G36*
X181677682Y-37442489D02*
G01*
X181718884Y-37518455D01*
X181649356Y-37580258D01*
X181360944Y-37580258D01*
X181421459Y-37465665D01*
X181566953Y-37415451D01*
X181677682Y-37442489D01*
G37*
G36*
X175914592Y-37442489D02*
G01*
X175955794Y-37518455D01*
X175886266Y-37580258D01*
X175597854Y-37580258D01*
X175658369Y-37465665D01*
X175803863Y-37415451D01*
X175914592Y-37442489D01*
G37*
%TO.C,kibuzzard-67733C22*%
G36*
X156218392Y-58186421D02*
G01*
X156305301Y-58266893D01*
X156334271Y-58340927D01*
X156284915Y-58456807D01*
X156275258Y-58470755D01*
X156263456Y-58488996D01*
X156251653Y-58509382D01*
X156240924Y-58538352D01*
X156232340Y-58572687D01*
X156224829Y-58615605D01*
X156222683Y-58667107D01*
X156244143Y-58789425D01*
X156307447Y-58910669D01*
X156424400Y-59006163D01*
X156504872Y-59033524D01*
X156596074Y-59042644D01*
X156713295Y-59026281D01*
X156811739Y-58977193D01*
X156887115Y-58907719D01*
X156935130Y-58830197D01*
X156969464Y-58667107D01*
X156951761Y-58553910D01*
X156898649Y-58446077D01*
X156855731Y-58338781D01*
X156886310Y-58265820D01*
X156978048Y-58188566D01*
X157102512Y-58141356D01*
X157180838Y-58171399D01*
X157246289Y-58259382D01*
X157313051Y-58386707D01*
X157353108Y-58519754D01*
X157366460Y-58658524D01*
X157360022Y-58749457D01*
X157340709Y-58846292D01*
X157306106Y-58947687D01*
X157253799Y-59052300D01*
X157186203Y-59152890D01*
X157105731Y-59242215D01*
X157006750Y-59318663D01*
X156883628Y-59380627D01*
X156741460Y-59421667D01*
X156585344Y-59435348D01*
X156435130Y-59421936D01*
X156297791Y-59381700D01*
X156178424Y-59320541D01*
X156082125Y-59244360D01*
X156003799Y-59155036D01*
X155938349Y-59054446D01*
X155887651Y-58949296D01*
X155853585Y-58846292D01*
X155834271Y-58746775D01*
X155827834Y-58652086D01*
X155841186Y-58524284D01*
X155881243Y-58392668D01*
X155948005Y-58257236D01*
X155988778Y-58199296D01*
X156033842Y-58159597D01*
X156098220Y-58139210D01*
X156218392Y-58186421D01*
G37*
G36*
X158737256Y-58221708D02*
G01*
X158822966Y-58301069D01*
X158851536Y-58374081D01*
X158802861Y-58488361D01*
X158793338Y-58502117D01*
X158781698Y-58520105D01*
X158770059Y-58540210D01*
X158759477Y-58568780D01*
X158751012Y-58602641D01*
X158743605Y-58644967D01*
X158741489Y-58695758D01*
X158762652Y-58816386D01*
X158825082Y-58935957D01*
X158940420Y-59030132D01*
X159109724Y-59066109D01*
X159225327Y-59049972D01*
X159322412Y-59001562D01*
X159396746Y-58933047D01*
X159444099Y-58856596D01*
X159477959Y-58695758D01*
X159460500Y-58584123D01*
X159408122Y-58477779D01*
X159365796Y-58371965D01*
X159395953Y-58300011D01*
X159486424Y-58223824D01*
X159609170Y-58177265D01*
X159686414Y-58206894D01*
X159750961Y-58293662D01*
X159816802Y-58419228D01*
X159856306Y-58550439D01*
X159869474Y-58687292D01*
X159863125Y-58776970D01*
X159844078Y-58872468D01*
X159809953Y-58972463D01*
X159758368Y-59075633D01*
X159691705Y-59174834D01*
X159612344Y-59262925D01*
X159514730Y-59338318D01*
X159393308Y-59399426D01*
X159253103Y-59439900D01*
X159099143Y-59453391D01*
X158951002Y-59440164D01*
X158815559Y-59400484D01*
X158697840Y-59340169D01*
X158602871Y-59265041D01*
X158525627Y-59176950D01*
X158461080Y-59077749D01*
X158411082Y-58974050D01*
X158377486Y-58872468D01*
X158358439Y-58774325D01*
X158352091Y-58680944D01*
X158365259Y-58554906D01*
X158404763Y-58425107D01*
X158470603Y-58291545D01*
X158510813Y-58234405D01*
X158555255Y-58195254D01*
X158618744Y-58175149D01*
X158737256Y-58221708D01*
G37*
G36*
X161255704Y-58256034D02*
G01*
X161340247Y-58334314D01*
X161368428Y-58406332D01*
X161320416Y-58519055D01*
X161311022Y-58532624D01*
X161299541Y-58550367D01*
X161288060Y-58570198D01*
X161277623Y-58598379D01*
X161269273Y-58631779D01*
X161261967Y-58673528D01*
X161259879Y-58723628D01*
X161280754Y-58842614D01*
X161342335Y-58960556D01*
X161456102Y-59053448D01*
X161623100Y-59088936D01*
X161737128Y-59073019D01*
X161832891Y-59025268D01*
X161906213Y-58957686D01*
X161952921Y-58882276D01*
X161986320Y-58723628D01*
X161969098Y-58613513D01*
X161917434Y-58508618D01*
X161875684Y-58404244D01*
X161905431Y-58333270D01*
X161994670Y-58258121D01*
X162115744Y-58212197D01*
X162191936Y-58241421D01*
X162255604Y-58327008D01*
X162320548Y-58450864D01*
X162359514Y-58580288D01*
X162372503Y-58715278D01*
X162366240Y-58803734D01*
X162347453Y-58897932D01*
X162313793Y-58996565D01*
X162262910Y-59098329D01*
X162197155Y-59196179D01*
X162118875Y-59283071D01*
X162022590Y-59357437D01*
X161902821Y-59417713D01*
X161764526Y-59457636D01*
X161612662Y-59470943D01*
X161466539Y-59457896D01*
X161332941Y-59418756D01*
X161216825Y-59359263D01*
X161123150Y-59285158D01*
X161046957Y-59198267D01*
X160983289Y-59100417D01*
X160933973Y-58998130D01*
X160900834Y-58897932D01*
X160882047Y-58801125D01*
X160875784Y-58709015D01*
X160888773Y-58584695D01*
X160927739Y-58456663D01*
X160992683Y-58324920D01*
X161032345Y-58268558D01*
X161076182Y-58229940D01*
X161138806Y-58210109D01*
X161255704Y-58256034D01*
G37*
G36*
X157363778Y-57611850D02*
G01*
X157336417Y-57714318D01*
X157292694Y-57802032D01*
X157234486Y-57872043D01*
X157092855Y-57977193D01*
X157012383Y-58015551D01*
X156923327Y-58042644D01*
X156752726Y-58072687D01*
X156596074Y-58081270D01*
X156505945Y-58078588D01*
X156415816Y-58070541D01*
X156320323Y-58053105D01*
X156214100Y-58022257D01*
X156109486Y-57979071D01*
X156018821Y-57924618D01*
X155941836Y-57852193D01*
X155878263Y-57755090D01*
X155835613Y-57637064D01*
X155821622Y-57504017D01*
X156214100Y-57504017D01*
X156238107Y-57584757D01*
X156310130Y-57642429D01*
X156430167Y-57677032D01*
X156598220Y-57688566D01*
X156764395Y-57677166D01*
X156883091Y-57642966D01*
X156954309Y-57585965D01*
X156978048Y-57506163D01*
X156949078Y-57417107D01*
X156883628Y-57362386D01*
X156787061Y-57334489D01*
X156692640Y-57322687D01*
X156606804Y-57321614D01*
X156596074Y-57321614D01*
X156428960Y-57333014D01*
X156309593Y-57367215D01*
X156237973Y-57424216D01*
X156214100Y-57504017D01*
X155821622Y-57504017D01*
X155821396Y-57501871D01*
X155835344Y-57370433D01*
X155877190Y-57255090D01*
X155939690Y-57159597D01*
X156015602Y-57087708D01*
X156105194Y-57033255D01*
X156208735Y-56990069D01*
X156314690Y-56958953D01*
X156411525Y-56940712D01*
X156504336Y-56931860D01*
X156598220Y-56928910D01*
X156694518Y-56932129D01*
X156790280Y-56941785D01*
X156888992Y-56960830D01*
X156994143Y-56992215D01*
X157095806Y-57035401D01*
X157184057Y-57089854D01*
X157258628Y-57161206D01*
X157319250Y-57255090D01*
X157359486Y-57368287D01*
X157372898Y-57497579D01*
X157372213Y-57506163D01*
X157363778Y-57611850D01*
G37*
G36*
X163773753Y-58289437D02*
G01*
X163857160Y-58366666D01*
X163884962Y-58437716D01*
X163837595Y-58548925D01*
X163828328Y-58562311D01*
X163817001Y-58579816D01*
X163805674Y-58599381D01*
X163795377Y-58627183D01*
X163787139Y-58660134D01*
X163779931Y-58701323D01*
X163777872Y-58750749D01*
X163798466Y-58868136D01*
X163859219Y-58984494D01*
X163971458Y-59076138D01*
X164136212Y-59111148D01*
X164248708Y-59095445D01*
X164343185Y-59048336D01*
X164415522Y-58981662D01*
X164461602Y-58907265D01*
X164494552Y-58750749D01*
X164477562Y-58642114D01*
X164426591Y-58538628D01*
X164385403Y-58435656D01*
X164414750Y-58365636D01*
X164502790Y-58291497D01*
X164622237Y-58246189D01*
X164697406Y-58275021D01*
X164760218Y-58359458D01*
X164824290Y-58481650D01*
X164862732Y-58609335D01*
X164875546Y-58742511D01*
X164869368Y-58829779D01*
X164850833Y-58922711D01*
X164817625Y-59020019D01*
X164767426Y-59120416D01*
X164702555Y-59216952D01*
X164625326Y-59302675D01*
X164530335Y-59376042D01*
X164412175Y-59435508D01*
X164275738Y-59474895D01*
X164125915Y-59488024D01*
X163981755Y-59475152D01*
X163849952Y-59436538D01*
X163735396Y-59377844D01*
X163642979Y-59304735D01*
X163567810Y-59219011D01*
X163504998Y-59122475D01*
X163456344Y-59021563D01*
X163423650Y-58922711D01*
X163405116Y-58827205D01*
X163398937Y-58736333D01*
X163411752Y-58613682D01*
X163450194Y-58487371D01*
X163514265Y-58357398D01*
X163553394Y-58301794D01*
X163596642Y-58263694D01*
X163658425Y-58244130D01*
X163773753Y-58289437D01*
G37*
G36*
X166291418Y-58321955D02*
G01*
X166373719Y-58398160D01*
X166401153Y-58468268D01*
X166354414Y-58578003D01*
X166345269Y-58591211D01*
X166334093Y-58608485D01*
X166322916Y-58627790D01*
X166312755Y-58655223D01*
X166304627Y-58687737D01*
X166297514Y-58728380D01*
X166295482Y-58777151D01*
X166315803Y-58892982D01*
X166375751Y-59007797D01*
X166486502Y-59098226D01*
X166649072Y-59132772D01*
X166760076Y-59117278D01*
X166853300Y-59070793D01*
X166924679Y-59005003D01*
X166970147Y-58931592D01*
X167002661Y-58777151D01*
X166985896Y-58669956D01*
X166935601Y-58567842D01*
X166894959Y-58466236D01*
X166923916Y-58397144D01*
X167010790Y-58323987D01*
X167128653Y-58279280D01*
X167202825Y-58307730D01*
X167264805Y-58391047D01*
X167328027Y-58511620D01*
X167365960Y-58637612D01*
X167378604Y-58769022D01*
X167372508Y-58855134D01*
X167354219Y-58946833D01*
X167321451Y-59042851D01*
X167271918Y-59141917D01*
X167207906Y-59237173D01*
X167131701Y-59321760D01*
X167037969Y-59394154D01*
X166921376Y-59452832D01*
X166786748Y-59491696D01*
X166638911Y-59504651D01*
X166496662Y-59491950D01*
X166366607Y-59453848D01*
X166253570Y-59395933D01*
X166162378Y-59323792D01*
X166088206Y-59239205D01*
X166026226Y-59143949D01*
X165978217Y-59044375D01*
X165945957Y-58946833D01*
X165927668Y-58852593D01*
X165921571Y-58762926D01*
X165934216Y-58641902D01*
X165972149Y-58517265D01*
X166035370Y-58389015D01*
X166073981Y-58334148D01*
X166116655Y-58296554D01*
X166177619Y-58277248D01*
X166291418Y-58321955D01*
G37*
G36*
X157147576Y-60274403D02*
G01*
X157221610Y-60277622D01*
X157279550Y-60298009D01*
X157327834Y-60358094D01*
X157342855Y-60471828D01*
X157327834Y-60583416D01*
X157278477Y-60643502D01*
X157219464Y-60663888D01*
X157145430Y-60667107D01*
X156038134Y-60667107D01*
X155966246Y-60663888D01*
X155907233Y-60643502D01*
X155857877Y-60583416D01*
X155842855Y-60469682D01*
X155842855Y-60044790D01*
X156235559Y-60044790D01*
X156235559Y-60274403D01*
X156548864Y-60274403D01*
X156548864Y-60042644D01*
X156510237Y-59936421D01*
X156392211Y-59885991D01*
X156280623Y-59932129D01*
X156235559Y-60044790D01*
X155842855Y-60044790D01*
X155842855Y-60042644D01*
X155851439Y-59955197D01*
X155877190Y-59864532D01*
X155919035Y-59774403D01*
X155975902Y-59688566D01*
X156051814Y-59612118D01*
X156150795Y-59550154D01*
X156266943Y-59509114D01*
X156394357Y-59495433D01*
X156521235Y-59508845D01*
X156635774Y-59549081D01*
X156733145Y-59610509D01*
X156808520Y-59687493D01*
X156865387Y-59774403D01*
X156907233Y-59865605D01*
X156932984Y-59957075D01*
X156941567Y-60044790D01*
X156941567Y-60274403D01*
X157147576Y-60274403D01*
G37*
G36*
X159653612Y-60280862D02*
G01*
X159726624Y-60284037D01*
X159783764Y-60304142D01*
X159831381Y-60363398D01*
X159846195Y-60475561D01*
X159831381Y-60585609D01*
X159782706Y-60644865D01*
X159724508Y-60664970D01*
X159651495Y-60668144D01*
X158559487Y-60668144D01*
X158488592Y-60664970D01*
X158430393Y-60644865D01*
X158381719Y-60585609D01*
X158366905Y-60473445D01*
X158366905Y-60054419D01*
X158754187Y-60054419D01*
X158754187Y-60280862D01*
X159063166Y-60280862D01*
X159063166Y-60052302D01*
X159025072Y-59947546D01*
X158908676Y-59897813D01*
X158798629Y-59943313D01*
X158754187Y-60054419D01*
X158366905Y-60054419D01*
X158366905Y-60052302D01*
X158375370Y-59966063D01*
X158400765Y-59876650D01*
X158442033Y-59787766D01*
X158498115Y-59703114D01*
X158572979Y-59627721D01*
X158670593Y-59566613D01*
X158785137Y-59526139D01*
X158910792Y-59512647D01*
X159035918Y-59525874D01*
X159148875Y-59565555D01*
X159244902Y-59626134D01*
X159319237Y-59702056D01*
X159375319Y-59787766D01*
X159416587Y-59877708D01*
X159441982Y-59967915D01*
X159450447Y-60054419D01*
X159450447Y-60280862D01*
X159653612Y-60280862D01*
G37*
G36*
X162273348Y-57030687D02*
G01*
X162330753Y-57078699D01*
X162351628Y-57138192D01*
X162355803Y-57210209D01*
X162355803Y-57963787D01*
X162298397Y-58097386D01*
X162161668Y-58153747D01*
X162055729Y-58134960D01*
X161959183Y-58078598D01*
X161884817Y-58006059D01*
X161807841Y-57905338D01*
X161736084Y-57795224D01*
X161677374Y-57694503D01*
X161618925Y-57603959D01*
X161547951Y-57524374D01*
X161469670Y-57468795D01*
X161389303Y-57450269D01*
X161333985Y-57457575D01*
X161279710Y-57503499D01*
X161251529Y-57608917D01*
X161294845Y-57731034D01*
X161424790Y-57771740D01*
X161491589Y-57774871D01*
X161544820Y-57794702D01*
X161588656Y-57853151D01*
X161602225Y-57963787D01*
X161587613Y-58072336D01*
X161539601Y-58130785D01*
X161482195Y-58150616D01*
X161410177Y-58153747D01*
X161276811Y-58137048D01*
X161152259Y-58086948D01*
X161036520Y-58003449D01*
X160943743Y-57893045D01*
X160888077Y-57762230D01*
X160869522Y-57611004D01*
X160887381Y-57466969D01*
X160940960Y-57338241D01*
X161030257Y-57224822D01*
X161145068Y-57136684D01*
X161275188Y-57083801D01*
X161420615Y-57066174D01*
X161526032Y-57076350D01*
X161625187Y-57106879D01*
X161713905Y-57154109D01*
X161788010Y-57214384D01*
X161897603Y-57341720D01*
X161971708Y-57466969D01*
X161971708Y-57206034D01*
X161975883Y-57134017D01*
X161996758Y-57077655D01*
X162055207Y-57030687D01*
X162165843Y-57016074D01*
X162273348Y-57030687D01*
G37*
G36*
X164522812Y-57100118D02*
G01*
X164639856Y-57152634D01*
X164740654Y-57240159D01*
X164817882Y-57354457D01*
X164864220Y-57487290D01*
X164879665Y-57638658D01*
X164864220Y-57779386D01*
X164817882Y-57907757D01*
X164740654Y-58023771D01*
X164643060Y-58115301D01*
X164535627Y-58170219D01*
X164418354Y-58188525D01*
X164321046Y-58137040D01*
X164288610Y-57982583D01*
X164311263Y-57869314D01*
X164408057Y-57809591D01*
X164419383Y-57805472D01*
X164444096Y-57790026D01*
X164474988Y-57759135D01*
X164499701Y-57709709D01*
X164511028Y-57636599D01*
X164479107Y-57507885D01*
X164393641Y-57459488D01*
X164304055Y-57499132D01*
X164274194Y-57618064D01*
X164274194Y-57674698D01*
X164264926Y-57722065D01*
X164239184Y-57768402D01*
X164185638Y-57793115D01*
X164095024Y-57805472D01*
X163992052Y-57792086D01*
X163938507Y-57748838D01*
X163921002Y-57696322D01*
X163917913Y-57630421D01*
X163917913Y-57616005D01*
X163904527Y-57520241D01*
X163852011Y-57490380D01*
X163780961Y-57524360D01*
X163755218Y-57618064D01*
X163775812Y-57706619D01*
X163837595Y-57766343D01*
X163922489Y-57829041D01*
X163946516Y-57915537D01*
X163909675Y-58025831D01*
X163796407Y-58127772D01*
X163654306Y-58097910D01*
X163647098Y-58094821D01*
X163624445Y-58083495D01*
X163590464Y-58062900D01*
X163549276Y-58029949D01*
X163504998Y-57984642D01*
X163462780Y-57923889D01*
X163426740Y-57847690D01*
X163402027Y-57752956D01*
X163392759Y-57638658D01*
X163408319Y-57488892D01*
X163455000Y-57360865D01*
X163532800Y-57254575D01*
X163629593Y-57175058D01*
X163733251Y-57127348D01*
X163843774Y-57111445D01*
X163994627Y-57146970D01*
X164097083Y-57253545D01*
X164208292Y-57138218D01*
X164290669Y-57096514D01*
X164389522Y-57082613D01*
X164522812Y-57100118D01*
G37*
G36*
X162159580Y-60287145D02*
G01*
X162231598Y-60290277D01*
X162287960Y-60310108D01*
X162334928Y-60368557D01*
X162349541Y-60479193D01*
X162334928Y-60587741D01*
X162286916Y-60646191D01*
X162229511Y-60666022D01*
X162157493Y-60669153D01*
X161080357Y-60669153D01*
X161010426Y-60666022D01*
X160953021Y-60646191D01*
X160905009Y-60587741D01*
X160890397Y-60477105D01*
X160890397Y-60063786D01*
X161272404Y-60063786D01*
X161272404Y-60287145D01*
X161577175Y-60287145D01*
X161577175Y-60061698D01*
X161539601Y-59958368D01*
X161424790Y-59909313D01*
X161316241Y-59954193D01*
X161272404Y-60063786D01*
X160890397Y-60063786D01*
X160890397Y-60061698D01*
X160898746Y-59976634D01*
X160923796Y-59888438D01*
X160964502Y-59800764D01*
X161019820Y-59717265D01*
X161093664Y-59642899D01*
X161189949Y-59582623D01*
X161302934Y-59542700D01*
X161426877Y-59529392D01*
X161550299Y-59542439D01*
X161661718Y-59581579D01*
X161756437Y-59641333D01*
X161829760Y-59716221D01*
X161885078Y-59800764D01*
X161925783Y-59889482D01*
X161950833Y-59978460D01*
X161959183Y-60063786D01*
X161959183Y-60287145D01*
X162159580Y-60287145D01*
G37*
G36*
X164665485Y-60293259D02*
G01*
X164736535Y-60296349D01*
X164792140Y-60315913D01*
X164838477Y-60373577D01*
X164852893Y-60482727D01*
X164838477Y-60589817D01*
X164791110Y-60647481D01*
X164734476Y-60667045D01*
X164663425Y-60670135D01*
X163600761Y-60670135D01*
X163531770Y-60667045D01*
X163475136Y-60647481D01*
X163427769Y-60589817D01*
X163413353Y-60480667D01*
X163413353Y-60072901D01*
X163790228Y-60072901D01*
X163790228Y-60293259D01*
X164090905Y-60293259D01*
X164090905Y-60070841D01*
X164053835Y-59968900D01*
X163940567Y-59920503D01*
X163833476Y-59964781D01*
X163790228Y-60072901D01*
X163413353Y-60072901D01*
X163413353Y-60070841D01*
X163446304Y-59899909D01*
X163486463Y-59813413D01*
X163541038Y-59731036D01*
X163613890Y-59657669D01*
X163708881Y-59598203D01*
X163820348Y-59558816D01*
X163942626Y-59545688D01*
X164064390Y-59558559D01*
X164174312Y-59597173D01*
X164267758Y-59656124D01*
X164340095Y-59730006D01*
X164394670Y-59813413D01*
X164434829Y-59900939D01*
X164467780Y-60072901D01*
X164467780Y-60293259D01*
X164665485Y-60293259D01*
G37*
G36*
X167171328Y-60299212D02*
G01*
X167241436Y-60302260D01*
X167296303Y-60321565D01*
X167342026Y-60378464D01*
X167356251Y-60486167D01*
X167342026Y-60591837D01*
X167295287Y-60648737D01*
X167239404Y-60668042D01*
X167169295Y-60671090D01*
X166120720Y-60671090D01*
X166052643Y-60668042D01*
X165996760Y-60648737D01*
X165950021Y-60591837D01*
X165935796Y-60484135D01*
X165935796Y-60081774D01*
X166307675Y-60081774D01*
X166307675Y-60299212D01*
X166604365Y-60299212D01*
X166604365Y-60079742D01*
X166567787Y-59979152D01*
X166456020Y-59931397D01*
X166350350Y-59975088D01*
X166307675Y-60081774D01*
X165935796Y-60081774D01*
X165935796Y-60079742D01*
X165968310Y-59911076D01*
X166007937Y-59825727D01*
X166061788Y-59744442D01*
X166133674Y-59672047D01*
X166227406Y-59613370D01*
X166337395Y-59574505D01*
X166458052Y-59561551D01*
X166578201Y-59574251D01*
X166686666Y-59612354D01*
X166778874Y-59670523D01*
X166850252Y-59743426D01*
X166904103Y-59825727D01*
X166943730Y-59912092D01*
X166976244Y-60081774D01*
X166976244Y-60299212D01*
X167171328Y-60299212D01*
G37*
G36*
X167241436Y-57192094D02*
G01*
X167297319Y-57212415D01*
X167342026Y-57269315D01*
X167356251Y-57377017D01*
X167342026Y-57482688D01*
X167295287Y-57539587D01*
X167239404Y-57558893D01*
X167169295Y-57561941D01*
X166957955Y-57561941D01*
X166957955Y-58055747D01*
X166943730Y-58161417D01*
X166896991Y-58218317D01*
X166841107Y-58237622D01*
X166770999Y-58240670D01*
X166705971Y-58234574D01*
X166073981Y-58078100D01*
X165939861Y-58001896D01*
X165941893Y-57848470D01*
X166000824Y-57730607D01*
X166090238Y-57702157D01*
X166608429Y-57828149D01*
X166608429Y-57561941D01*
X166110559Y-57561941D01*
X166043499Y-57558893D01*
X165990664Y-57539587D01*
X165946973Y-57481672D01*
X165933764Y-57372953D01*
X165947989Y-57267283D01*
X165994728Y-57211399D01*
X166051627Y-57192094D01*
X166120720Y-57188030D01*
X167171328Y-57188030D01*
X167241436Y-57192094D01*
G37*
G36*
X159810218Y-57449260D02*
G01*
X159852543Y-57599517D01*
X159810218Y-57747658D01*
X159659961Y-57789984D01*
X158944653Y-57789984D01*
X158963700Y-57811146D01*
X159025072Y-57941299D01*
X158951002Y-58067218D01*
X158811326Y-58132823D01*
X158671651Y-58043939D01*
X158430393Y-57775169D01*
X158402882Y-57741309D01*
X158366905Y-57597401D01*
X158410289Y-57449260D01*
X158561604Y-57406934D01*
X159662077Y-57406934D01*
X159810218Y-57449260D01*
G37*
%TO.C,kibuzzard-67733BE6*%
G36*
X161930319Y-88489973D02*
G01*
X163022327Y-88868790D01*
X163120735Y-88934924D01*
X163153537Y-89052907D01*
X163134490Y-89142850D01*
X163086874Y-89202106D01*
X163042432Y-89229618D01*
X163011745Y-89241258D01*
X162359927Y-89440189D01*
X163009629Y-89639121D01*
X163117560Y-89707371D01*
X163153537Y-89827471D01*
X163122851Y-89933286D01*
X163067827Y-89990426D01*
X163022327Y-90009473D01*
X161930319Y-90390406D01*
X161773713Y-90399929D01*
X161684829Y-90267660D01*
X161675305Y-90109997D01*
X161805457Y-90024287D01*
X162448811Y-89804192D01*
X161816039Y-89630656D01*
X161709695Y-89566109D01*
X161674247Y-89444422D01*
X161679538Y-89383049D01*
X161697526Y-89336491D01*
X161720806Y-89303688D01*
X161748317Y-89280409D01*
X161774771Y-89266653D01*
X161801225Y-89256072D01*
X161818155Y-89249723D01*
X162453044Y-89076187D01*
X161805457Y-88856092D01*
X161674247Y-88770382D01*
X161682712Y-88610602D01*
X161775829Y-88478333D01*
X161930319Y-88489973D01*
G37*
G36*
X163165177Y-87306700D02*
G01*
X163123909Y-87443465D01*
X163055129Y-87569120D01*
X162958838Y-87683665D01*
X162843103Y-87779030D01*
X162715993Y-87847149D01*
X162577508Y-87888019D01*
X162427648Y-87901643D01*
X162272894Y-87888416D01*
X162130309Y-87848736D01*
X161999892Y-87782602D01*
X161881644Y-87690014D01*
X161783501Y-87578511D01*
X161713399Y-87455634D01*
X161671337Y-87321382D01*
X161657317Y-87175754D01*
X161658104Y-87167289D01*
X162044599Y-87167289D01*
X162071846Y-87300615D01*
X162153588Y-87412779D01*
X162274481Y-87488966D01*
X162419183Y-87514361D01*
X162560975Y-87488701D01*
X162681603Y-87411721D01*
X162764139Y-87299822D01*
X162791651Y-87169405D01*
X162764933Y-87034756D01*
X162684778Y-86922857D01*
X162564943Y-86847464D01*
X162419183Y-86822333D01*
X162274481Y-86847728D01*
X162153588Y-86923915D01*
X162071846Y-87035550D01*
X162044599Y-87167289D01*
X161658104Y-87167289D01*
X161671139Y-87027084D01*
X161712605Y-86890054D01*
X161781715Y-86764664D01*
X161878470Y-86650913D01*
X161995196Y-86556473D01*
X162124224Y-86489016D01*
X162265553Y-86448542D01*
X162419183Y-86435051D01*
X162570167Y-86448344D01*
X162709909Y-86488223D01*
X162838408Y-86554688D01*
X162955664Y-86647739D01*
X163053344Y-86759439D01*
X163123115Y-86881854D01*
X163164978Y-87014982D01*
X163178933Y-87158824D01*
X163177948Y-87169405D01*
X163165177Y-87306700D01*
G37*
G36*
X159424876Y-90109688D02*
G01*
X160542901Y-90618271D01*
X160621228Y-90692306D01*
X160650198Y-90802821D01*
X160623374Y-90922992D01*
X160542901Y-90995954D01*
X159424876Y-91504537D01*
X159275734Y-91525997D01*
X159173803Y-91405825D01*
X159141614Y-91244881D01*
X159263932Y-91146168D01*
X160098695Y-90807112D01*
X159263932Y-90468057D01*
X159142687Y-90367198D01*
X159173803Y-90208400D01*
X159276807Y-90085009D01*
X159424876Y-90109688D01*
G37*
G36*
X164464936Y-90149959D02*
G01*
X165552509Y-90644690D01*
X165628702Y-90716708D01*
X165656883Y-90824213D01*
X165630790Y-90941112D01*
X165552509Y-91012086D01*
X164464936Y-91506817D01*
X164319856Y-91527692D01*
X164220701Y-91410793D01*
X164189389Y-91254233D01*
X164308375Y-91158209D01*
X165120402Y-90828388D01*
X164308375Y-90498567D01*
X164190433Y-90400456D01*
X164220701Y-90245983D01*
X164320900Y-90125953D01*
X164464936Y-90149959D01*
G37*
G36*
X164563047Y-88824413D02*
G01*
X164647590Y-88902694D01*
X164675771Y-88974712D01*
X164627759Y-89087435D01*
X164618365Y-89101004D01*
X164606884Y-89118747D01*
X164595403Y-89138578D01*
X164584965Y-89166759D01*
X164576616Y-89200159D01*
X164569309Y-89241908D01*
X164567222Y-89292007D01*
X164588097Y-89410993D01*
X164649677Y-89528936D01*
X164763444Y-89621828D01*
X164930442Y-89657315D01*
X165044471Y-89641398D01*
X165140233Y-89593647D01*
X165213556Y-89526065D01*
X165260263Y-89450655D01*
X165293663Y-89292007D01*
X165276441Y-89181893D01*
X165224776Y-89076998D01*
X165183027Y-88972624D01*
X165212773Y-88901650D01*
X165302013Y-88826501D01*
X165423086Y-88780576D01*
X165499279Y-88809801D01*
X165562947Y-88895388D01*
X165627890Y-89019244D01*
X165666857Y-89148668D01*
X165679845Y-89283658D01*
X165673583Y-89372114D01*
X165654796Y-89466312D01*
X165621135Y-89564945D01*
X165570253Y-89666709D01*
X165504498Y-89764559D01*
X165426217Y-89851450D01*
X165329933Y-89925817D01*
X165210164Y-89986092D01*
X165071869Y-90026015D01*
X164920005Y-90039323D01*
X164773882Y-90026276D01*
X164640284Y-89987136D01*
X164524168Y-89927643D01*
X164430492Y-89853538D01*
X164354300Y-89766647D01*
X164290632Y-89668796D01*
X164241315Y-89566510D01*
X164208176Y-89466312D01*
X164189389Y-89369505D01*
X164183127Y-89277395D01*
X164196116Y-89153075D01*
X164235082Y-89025043D01*
X164300025Y-88893300D01*
X164339687Y-88836938D01*
X164383524Y-88798320D01*
X164446148Y-88778489D01*
X164563047Y-88824413D01*
G37*
G36*
X164563047Y-87507218D02*
G01*
X164647590Y-87585498D01*
X164675771Y-87657516D01*
X164627759Y-87770239D01*
X164618365Y-87783808D01*
X164606884Y-87801551D01*
X164595403Y-87821382D01*
X164584965Y-87849563D01*
X164576616Y-87882963D01*
X164569309Y-87924712D01*
X164567222Y-87974812D01*
X164588097Y-88093798D01*
X164649677Y-88211740D01*
X164763444Y-88304633D01*
X164930442Y-88340120D01*
X165044471Y-88324203D01*
X165140233Y-88276452D01*
X165213556Y-88208870D01*
X165260263Y-88133460D01*
X165293663Y-87974812D01*
X165276441Y-87864697D01*
X165224776Y-87759802D01*
X165183027Y-87655428D01*
X165212773Y-87584454D01*
X165302013Y-87509305D01*
X165423086Y-87463381D01*
X165499279Y-87492605D01*
X165562947Y-87578192D01*
X165627890Y-87702049D01*
X165666857Y-87831472D01*
X165679845Y-87966462D01*
X165673583Y-88054919D01*
X165654796Y-88149116D01*
X165621135Y-88247749D01*
X165570253Y-88349513D01*
X165504498Y-88447364D01*
X165426217Y-88534255D01*
X165329933Y-88608621D01*
X165210164Y-88668897D01*
X165071869Y-88708820D01*
X164920005Y-88722127D01*
X164773882Y-88709081D01*
X164640284Y-88669940D01*
X164524168Y-88610447D01*
X164430492Y-88536342D01*
X164354300Y-88449451D01*
X164290632Y-88351601D01*
X164241315Y-88249314D01*
X164208176Y-88149116D01*
X164189389Y-88052309D01*
X164183127Y-87960199D01*
X164196116Y-87835879D01*
X164235082Y-87707847D01*
X164300025Y-87576104D01*
X164339687Y-87519742D01*
X164383524Y-87481124D01*
X164446148Y-87461293D01*
X164563047Y-87507218D01*
G37*
G36*
X160269833Y-88902070D02*
G01*
X160362644Y-88929430D01*
X160507494Y-89022778D01*
X160602987Y-89154752D01*
X160657708Y-89301748D01*
X160673803Y-89444451D01*
X160664146Y-89564623D01*
X160640541Y-89665482D01*
X160605133Y-89748100D01*
X160564361Y-89814623D01*
X160522515Y-89866125D01*
X160484962Y-89903679D01*
X160454919Y-89927284D01*
X160439897Y-89940160D01*
X160300412Y-89993808D01*
X160163073Y-89903679D01*
X160113478Y-89814504D01*
X160127785Y-89721514D01*
X160205992Y-89624709D01*
X160284318Y-89537799D01*
X160304704Y-89453035D01*
X160273588Y-89326426D01*
X160173803Y-89287799D01*
X160107279Y-89343593D01*
X160056850Y-89512048D01*
X160029221Y-89614248D01*
X159999983Y-89695524D01*
X159931313Y-89815696D01*
X159839039Y-89901533D01*
X159723159Y-89953035D01*
X159583674Y-89970203D01*
X159459568Y-89954227D01*
X159350484Y-89906302D01*
X159256421Y-89826426D01*
X159184294Y-89722229D01*
X159141018Y-89601342D01*
X159126592Y-89463765D01*
X159140899Y-89301867D01*
X159183817Y-89165243D01*
X159255348Y-89053894D01*
X159365863Y-88976640D01*
X159497837Y-89028142D01*
X159601914Y-89154752D01*
X159562215Y-89298529D01*
X159541829Y-89323207D01*
X159517150Y-89353250D01*
X159501056Y-89395095D01*
X159493545Y-89465911D01*
X159520369Y-89545310D01*
X159585820Y-89579645D01*
X159655562Y-89542091D01*
X159693116Y-89457327D01*
X159719940Y-89326426D01*
X159753202Y-89189087D01*
X159808996Y-89067574D01*
X159890541Y-88973421D01*
X160006957Y-88913067D01*
X160167365Y-88892949D01*
X160269833Y-88902070D01*
G37*
G36*
X160269833Y-87738979D02*
G01*
X160362644Y-87766340D01*
X160507494Y-87859688D01*
X160602987Y-87991662D01*
X160657708Y-88138658D01*
X160673803Y-88281361D01*
X160664146Y-88401533D01*
X160640541Y-88502391D01*
X160605133Y-88585009D01*
X160564361Y-88651533D01*
X160522515Y-88703035D01*
X160484962Y-88740589D01*
X160454919Y-88764194D01*
X160439897Y-88777070D01*
X160300412Y-88830718D01*
X160163073Y-88740589D01*
X160113478Y-88651414D01*
X160127785Y-88558424D01*
X160205992Y-88461619D01*
X160284318Y-88374709D01*
X160304704Y-88289945D01*
X160273588Y-88163336D01*
X160173803Y-88124709D01*
X160107279Y-88180503D01*
X160056850Y-88348958D01*
X160029221Y-88451158D01*
X159999983Y-88532434D01*
X159931313Y-88652606D01*
X159839039Y-88738443D01*
X159723159Y-88789945D01*
X159583674Y-88807112D01*
X159459568Y-88791137D01*
X159350484Y-88743212D01*
X159256421Y-88663336D01*
X159184294Y-88559139D01*
X159141018Y-88438252D01*
X159126592Y-88300675D01*
X159140899Y-88138777D01*
X159183817Y-88002153D01*
X159255348Y-87890803D01*
X159365863Y-87813550D01*
X159497837Y-87865052D01*
X159601914Y-87991662D01*
X159562215Y-88135439D01*
X159541829Y-88160117D01*
X159517150Y-88190160D01*
X159501056Y-88232005D01*
X159493545Y-88302821D01*
X159520369Y-88382220D01*
X159585820Y-88416555D01*
X159655562Y-88379001D01*
X159693116Y-88294237D01*
X159719940Y-88163336D01*
X159753202Y-88025997D01*
X159808996Y-87904484D01*
X159890541Y-87810331D01*
X160006957Y-87749977D01*
X160167365Y-87729859D01*
X160269833Y-87738979D01*
G37*
G36*
X162778424Y-90479819D02*
G01*
X162869954Y-90506802D01*
X163012804Y-90598861D01*
X163106979Y-90729013D01*
X163160944Y-90873979D01*
X163176816Y-91014712D01*
X163167293Y-91133225D01*
X163144014Y-91232691D01*
X163109095Y-91314168D01*
X163068885Y-91379773D01*
X163027618Y-91430564D01*
X162990582Y-91467600D01*
X162960954Y-91490879D01*
X162946140Y-91503577D01*
X162808581Y-91556484D01*
X162673138Y-91467600D01*
X162624228Y-91379656D01*
X162638337Y-91287950D01*
X162715464Y-91192481D01*
X162792709Y-91106771D01*
X162812814Y-91023178D01*
X162782127Y-90898316D01*
X162683720Y-90860223D01*
X162618115Y-90915247D01*
X162568382Y-91081376D01*
X162541134Y-91182164D01*
X162512300Y-91262319D01*
X162444578Y-91380831D01*
X162353578Y-91465483D01*
X162239298Y-91516274D01*
X162101739Y-91533205D01*
X161979346Y-91517450D01*
X161871768Y-91470186D01*
X161779004Y-91391413D01*
X161707873Y-91288655D01*
X161665194Y-91169437D01*
X161650968Y-91033759D01*
X161665077Y-90874096D01*
X161707402Y-90739359D01*
X161777946Y-90629547D01*
X161886935Y-90553360D01*
X162017087Y-90604151D01*
X162119727Y-90729013D01*
X162080576Y-90870804D01*
X162060471Y-90895142D01*
X162036134Y-90924770D01*
X162020261Y-90966038D01*
X162012854Y-91035875D01*
X162039308Y-91114178D01*
X162103855Y-91148039D01*
X162172635Y-91111004D01*
X162209670Y-91027410D01*
X162236123Y-90898316D01*
X162268926Y-90762873D01*
X162323950Y-90643038D01*
X162404369Y-90550186D01*
X162519178Y-90490665D01*
X162677371Y-90470825D01*
X162778424Y-90479819D01*
G37*
G36*
X163036083Y-87993702D02*
G01*
X163093223Y-88013807D01*
X163140839Y-88073063D01*
X163155653Y-88185227D01*
X163140839Y-88295274D01*
X163092165Y-88354530D01*
X163033966Y-88374635D01*
X162960954Y-88377809D01*
X161866830Y-88377809D01*
X161795934Y-88374635D01*
X161737736Y-88354530D01*
X161689061Y-88295274D01*
X161674247Y-88183110D01*
X161689061Y-88073063D01*
X161737736Y-88013807D01*
X161795934Y-87993702D01*
X161868946Y-87990527D01*
X162963071Y-87990527D01*
X163036083Y-87993702D01*
G37*
%TO.C,kibuzzard-67733B6F*%
G36*
X169861373Y-32317167D02*
G01*
X170129614Y-32506009D01*
X170106009Y-32819313D01*
X169337768Y-35033906D01*
X169203648Y-35233476D01*
X168964378Y-35300000D01*
X168781974Y-35261373D01*
X168661803Y-35164807D01*
X168606009Y-35074678D01*
X168582403Y-35012446D01*
X168178970Y-33690558D01*
X167775536Y-35008155D01*
X167637124Y-35227039D01*
X167393562Y-35300000D01*
X167178970Y-35237768D01*
X167063090Y-35126180D01*
X167024464Y-35033906D01*
X166251931Y-32819313D01*
X166232618Y-32501717D01*
X166500858Y-32321459D01*
X166820601Y-32302146D01*
X166994421Y-32566094D01*
X167440773Y-33870815D01*
X167792704Y-32587554D01*
X167923605Y-32371888D01*
X168170386Y-32300000D01*
X168294850Y-32310730D01*
X168389270Y-32347210D01*
X168455794Y-32394421D01*
X168503004Y-32450215D01*
X168530901Y-32503863D01*
X168552361Y-32557511D01*
X168565236Y-32591845D01*
X168917167Y-33879399D01*
X169363519Y-32566094D01*
X169537339Y-32300000D01*
X169861373Y-32317167D01*
G37*
G36*
X173397854Y-32334335D02*
G01*
X173515880Y-32430901D01*
X173556652Y-32548927D01*
X173565236Y-32699142D01*
X173565236Y-34913734D01*
X173556652Y-35059657D01*
X173513734Y-35175536D01*
X173395708Y-35269957D01*
X173170386Y-35300000D01*
X172947210Y-35269957D01*
X172827039Y-35171245D01*
X172786266Y-35053219D01*
X172779828Y-34905150D01*
X172779828Y-33686266D01*
X172277682Y-34368670D01*
X172251931Y-34403004D01*
X172211159Y-34450215D01*
X172155365Y-34493133D01*
X172065236Y-34531760D01*
X171947210Y-34544635D01*
X171754077Y-34500644D01*
X171612446Y-34368670D01*
X171114592Y-33690558D01*
X171114592Y-34913734D01*
X171108155Y-35057511D01*
X171067382Y-35173391D01*
X170947210Y-35269957D01*
X170719742Y-35300000D01*
X170498712Y-35269957D01*
X170382833Y-35173391D01*
X170342060Y-35055365D01*
X170333476Y-34905150D01*
X170333476Y-32690558D01*
X170339914Y-32546781D01*
X170380687Y-32430901D01*
X170500858Y-32334335D01*
X170728326Y-32304292D01*
X170842060Y-32310730D01*
X170919313Y-32321459D01*
X170975107Y-32340773D01*
X171011588Y-32362232D01*
X171043777Y-32394421D01*
X171071674Y-32424464D01*
X171947210Y-33548927D01*
X172818455Y-32428755D01*
X172947210Y-32330043D01*
X173174678Y-32304292D01*
X173397854Y-32334335D01*
G37*
G36*
X186580258Y-32302146D02*
G01*
X186676824Y-32336481D01*
X186758369Y-32437339D01*
X186784120Y-32626180D01*
X186758369Y-32815021D01*
X186674678Y-32915880D01*
X186575966Y-32950215D01*
X186453648Y-32956652D01*
X185861373Y-32956652D01*
X185861373Y-34922318D01*
X185854936Y-35066094D01*
X185814163Y-35179828D01*
X185693991Y-35274249D01*
X185470815Y-35304292D01*
X185249785Y-35274249D01*
X185133906Y-35177682D01*
X185095279Y-35061803D01*
X185088841Y-34918026D01*
X185088841Y-32956652D01*
X184492275Y-32956652D01*
X184369957Y-32950215D01*
X184273391Y-32915880D01*
X184191845Y-32815021D01*
X184166094Y-32621888D01*
X184191845Y-32435193D01*
X184275536Y-32336481D01*
X184374249Y-32302146D01*
X184496567Y-32295708D01*
X186457940Y-32295708D01*
X186580258Y-32302146D01*
G37*
G36*
X177628422Y-32289509D02*
G01*
X177895231Y-32386791D01*
X178116738Y-32548927D01*
X178282451Y-32750644D01*
X178381879Y-32966667D01*
X178415021Y-33196996D01*
X178340987Y-33511373D01*
X178118884Y-33724893D01*
X178359227Y-33956652D01*
X178446137Y-34128326D01*
X178475107Y-34334335D01*
X178438627Y-34612113D01*
X178329185Y-34856032D01*
X178146781Y-35066094D01*
X177908584Y-35227039D01*
X177631760Y-35323605D01*
X177316309Y-35355794D01*
X177023033Y-35323605D01*
X176755508Y-35227039D01*
X176513734Y-35066094D01*
X176322985Y-34862709D01*
X176208536Y-34638817D01*
X176170386Y-34394421D01*
X176277682Y-34191631D01*
X176599571Y-34124034D01*
X176835622Y-34171245D01*
X176960086Y-34372961D01*
X176968670Y-34396567D01*
X177000858Y-34448069D01*
X177065236Y-34512446D01*
X177168240Y-34563948D01*
X177320601Y-34587554D01*
X177588841Y-34521030D01*
X177689700Y-34342918D01*
X177607082Y-34156223D01*
X177359227Y-34093991D01*
X177241202Y-34093991D01*
X177142489Y-34074678D01*
X177045923Y-34021030D01*
X176994421Y-33909442D01*
X176968670Y-33720601D01*
X176996567Y-33506009D01*
X177086695Y-33394421D01*
X177196137Y-33357940D01*
X177333476Y-33351502D01*
X177363519Y-33351502D01*
X177563090Y-33323605D01*
X177625322Y-33214163D01*
X177554506Y-33066094D01*
X177359227Y-33012446D01*
X177174678Y-33055365D01*
X177050215Y-33184120D01*
X176919552Y-33361040D01*
X176739294Y-33411111D01*
X176509442Y-33334335D01*
X176296996Y-33098283D01*
X176359227Y-32802146D01*
X176365665Y-32787124D01*
X176389270Y-32739914D01*
X176432189Y-32669099D01*
X176500858Y-32583262D01*
X176595279Y-32490987D01*
X176721888Y-32403004D01*
X176880687Y-32327897D01*
X177078112Y-32276395D01*
X177316309Y-32257082D01*
X177628422Y-32289509D01*
G37*
G36*
X175203529Y-32289509D02*
G01*
X175470339Y-32386791D01*
X175691845Y-32548927D01*
X175857558Y-32750644D01*
X175956986Y-32966667D01*
X175990129Y-33196996D01*
X175916094Y-33511373D01*
X175693991Y-33724893D01*
X175934335Y-33956652D01*
X176021245Y-34128326D01*
X176050215Y-34334335D01*
X176013734Y-34612113D01*
X175904292Y-34856032D01*
X175721888Y-35066094D01*
X175483691Y-35227039D01*
X175206867Y-35323605D01*
X174891416Y-35355794D01*
X174598140Y-35323605D01*
X174330615Y-35227039D01*
X174088841Y-35066094D01*
X173898093Y-34862709D01*
X173783643Y-34638817D01*
X173745494Y-34394421D01*
X173852790Y-34191631D01*
X174174678Y-34124034D01*
X174410730Y-34171245D01*
X174535193Y-34372961D01*
X174543777Y-34396567D01*
X174575966Y-34448069D01*
X174640343Y-34512446D01*
X174743348Y-34563948D01*
X174895708Y-34587554D01*
X175163948Y-34521030D01*
X175264807Y-34342918D01*
X175182189Y-34156223D01*
X174934335Y-34093991D01*
X174816309Y-34093991D01*
X174717597Y-34074678D01*
X174621030Y-34021030D01*
X174569528Y-33909442D01*
X174543777Y-33720601D01*
X174571674Y-33506009D01*
X174661803Y-33394421D01*
X174771245Y-33357940D01*
X174908584Y-33351502D01*
X174938627Y-33351502D01*
X175138197Y-33323605D01*
X175200429Y-33214163D01*
X175129614Y-33066094D01*
X174934335Y-33012446D01*
X174749785Y-33055365D01*
X174625322Y-33184120D01*
X174494659Y-33361040D01*
X174314402Y-33411111D01*
X174084549Y-33334335D01*
X173872103Y-33098283D01*
X173934335Y-32802146D01*
X173940773Y-32787124D01*
X173964378Y-32739914D01*
X174007296Y-32669099D01*
X174075966Y-32583262D01*
X174170386Y-32490987D01*
X174296996Y-32403004D01*
X174455794Y-32327897D01*
X174653219Y-32276395D01*
X174891416Y-32257082D01*
X175203529Y-32289509D01*
G37*
G36*
X179972961Y-32270911D02*
G01*
X180210443Y-32363901D01*
X180419313Y-32518884D01*
X180581450Y-32718693D01*
X180678732Y-32946161D01*
X180711159Y-33201288D01*
X180657511Y-33445923D01*
X180496567Y-33690558D01*
X180500858Y-33694850D01*
X180496567Y-33699142D01*
X180663472Y-33896567D01*
X180763615Y-34105436D01*
X180796996Y-34325751D01*
X180759323Y-34614974D01*
X180646304Y-34864616D01*
X180457940Y-35074678D01*
X180223796Y-35233238D01*
X179973438Y-35328374D01*
X179706867Y-35360086D01*
X179702575Y-35359612D01*
X179409061Y-35327182D01*
X179145112Y-35228469D01*
X178921459Y-35068552D01*
X178915021Y-35063948D01*
X178737387Y-34850310D01*
X178630806Y-34604244D01*
X178597469Y-34342918D01*
X179380687Y-34342918D01*
X179466524Y-34538197D01*
X179702575Y-34609013D01*
X179930043Y-34538197D01*
X180011588Y-34342918D01*
X179927897Y-34151931D01*
X179702575Y-34087849D01*
X179693991Y-34085408D01*
X179462232Y-34154077D01*
X179380687Y-34342918D01*
X178597469Y-34342918D01*
X178595279Y-34325751D01*
X178629137Y-34099714D01*
X178730711Y-33890844D01*
X178900000Y-33699142D01*
X178895708Y-33694850D01*
X178900000Y-33690558D01*
X178904292Y-33694850D01*
X178900000Y-33699142D01*
X178921459Y-33716309D01*
X178921459Y-33712017D01*
X178904292Y-33694850D01*
X178923913Y-33677682D01*
X180470815Y-33677682D01*
X180492275Y-33694850D01*
X180496567Y-33690558D01*
X180479399Y-33677682D01*
X180470815Y-33677682D01*
X178923913Y-33677682D01*
X178938627Y-33664807D01*
X178934335Y-33664807D01*
X178900000Y-33690558D01*
X178735837Y-33460944D01*
X178681116Y-33184120D01*
X178681689Y-33179828D01*
X179475107Y-33179828D01*
X179535193Y-33312876D01*
X179702575Y-33360086D01*
X179869957Y-33315021D01*
X179925751Y-33179828D01*
X179865665Y-33046781D01*
X179698283Y-32999571D01*
X179530901Y-33044635D01*
X179475107Y-33179828D01*
X178681689Y-33179828D01*
X178714497Y-32934239D01*
X178814640Y-32711063D01*
X178981545Y-32514592D01*
X179195660Y-32361993D01*
X179437434Y-32270434D01*
X179706867Y-32239914D01*
X179972961Y-32270911D01*
G37*
G36*
X165169313Y-32317167D02*
G01*
X165350644Y-32368670D01*
X165530901Y-32452361D01*
X165702575Y-32566094D01*
X165855472Y-32717918D01*
X165979399Y-32915880D01*
X166061481Y-33148176D01*
X166088841Y-33403004D01*
X166062017Y-33656760D01*
X165981545Y-33885837D01*
X165858691Y-34080579D01*
X165704721Y-34231330D01*
X165530901Y-34345064D01*
X165348498Y-34428755D01*
X165165558Y-34480258D01*
X164990129Y-34497425D01*
X164530901Y-34497425D01*
X164530901Y-34909442D01*
X164524464Y-35057511D01*
X164483691Y-35173391D01*
X164363519Y-35269957D01*
X164136052Y-35300000D01*
X163912876Y-35269957D01*
X163792704Y-35171245D01*
X163751931Y-35053219D01*
X163745494Y-34905150D01*
X163745494Y-33712017D01*
X164530901Y-33712017D01*
X164994421Y-33712017D01*
X165206867Y-33634764D01*
X165307725Y-33398712D01*
X165215451Y-33175536D01*
X164990129Y-33085408D01*
X164530901Y-33085408D01*
X164530901Y-33712017D01*
X163745494Y-33712017D01*
X163745494Y-32690558D01*
X163751931Y-32546781D01*
X163792704Y-32428755D01*
X163912876Y-32330043D01*
X164140343Y-32300000D01*
X164994421Y-32300000D01*
X165169313Y-32317167D01*
G37*
G36*
X182258846Y-32289270D02*
G01*
X182525656Y-32398712D01*
X182743348Y-32581116D01*
X182904292Y-32827420D01*
X183000858Y-33128565D01*
X183033047Y-33484549D01*
X183014678Y-33799742D01*
X182959571Y-34089528D01*
X182867725Y-34353906D01*
X182739142Y-34592876D01*
X182573820Y-34806438D01*
X182378283Y-34987210D01*
X182159056Y-35127811D01*
X181916137Y-35228240D01*
X181649528Y-35288498D01*
X181359227Y-35308584D01*
X181224034Y-35300000D01*
X181112446Y-35257082D01*
X181022318Y-35136910D01*
X180994421Y-34913734D01*
X181024464Y-34690558D01*
X181123176Y-34570386D01*
X181243348Y-34529614D01*
X181393562Y-34523176D01*
X181714974Y-34475012D01*
X181963901Y-34330520D01*
X182140343Y-34089700D01*
X181938627Y-34123953D01*
X181912876Y-34128326D01*
X181657988Y-34098760D01*
X181425513Y-34010062D01*
X181215451Y-33862232D01*
X181049738Y-33674821D01*
X180950310Y-33467382D01*
X180917167Y-33239914D01*
X180920389Y-33214163D01*
X181689700Y-33214163D01*
X181758369Y-33366524D01*
X181938627Y-33424464D01*
X182148927Y-33370815D01*
X182226180Y-33222747D01*
X182163948Y-33042489D01*
X181960086Y-32986695D01*
X181754077Y-33040343D01*
X181689700Y-33214163D01*
X180920389Y-33214163D01*
X180950072Y-32976919D01*
X181048784Y-32743014D01*
X181213305Y-32538197D01*
X181425990Y-32379638D01*
X181669194Y-32284502D01*
X181942918Y-32252790D01*
X182258846Y-32289270D01*
G37*
G36*
X192121030Y-32433047D02*
G01*
X192239056Y-32529614D01*
X192281974Y-32649785D01*
X192290558Y-32793562D01*
X192290558Y-33136910D01*
X192518026Y-33128326D01*
X192631760Y-33130472D01*
X192732618Y-33154077D01*
X192824893Y-33214163D01*
X192880687Y-33332189D01*
X192904292Y-33523176D01*
X192872103Y-33735622D01*
X192777682Y-33853648D01*
X192659657Y-33898712D01*
X192513734Y-33909442D01*
X192290558Y-33905150D01*
X192290558Y-34403004D01*
X192314163Y-34531760D01*
X192406438Y-34566094D01*
X192565236Y-34574678D01*
X192681116Y-34615451D01*
X192766953Y-34720601D01*
X192792704Y-34918026D01*
X192760515Y-35139056D01*
X192659657Y-35257082D01*
X192541631Y-35297854D01*
X192402146Y-35304292D01*
X192125322Y-35280925D01*
X191901431Y-35210825D01*
X191730472Y-35093991D01*
X191610062Y-34928040D01*
X191537816Y-34710587D01*
X191513734Y-34441631D01*
X191513734Y-33896567D01*
X191406438Y-33896567D01*
X191206867Y-33802146D01*
X191148927Y-33518884D01*
X191217597Y-33242060D01*
X191423605Y-33149785D01*
X191513734Y-33149785D01*
X191513734Y-32776395D01*
X191520172Y-32632618D01*
X191560944Y-32521030D01*
X191678970Y-32430901D01*
X191904292Y-32403004D01*
X192121030Y-32433047D01*
G37*
G36*
X188384263Y-33107821D02*
G01*
X188629614Y-33200811D01*
X188824893Y-33355794D01*
X189016416Y-33642275D01*
X189080258Y-33943777D01*
X189050751Y-34156760D01*
X188962232Y-34315021D01*
X188825429Y-34413197D01*
X188651073Y-34445923D01*
X187736910Y-34445923D01*
X187865665Y-34609013D01*
X188118884Y-34669099D01*
X188466524Y-34613305D01*
X188663948Y-34557511D01*
X188805579Y-34609013D01*
X188921459Y-34763519D01*
X188977253Y-34960944D01*
X188921459Y-35131813D01*
X188754077Y-35253863D01*
X188475107Y-35327092D01*
X188084549Y-35351502D01*
X187796996Y-35325215D01*
X187543777Y-35246352D01*
X187334013Y-35124571D01*
X187176824Y-34969528D01*
X187062017Y-34793562D01*
X186979399Y-34609013D01*
X186929506Y-34418026D01*
X186912876Y-34222747D01*
X186933628Y-34042489D01*
X187736910Y-34042489D01*
X188217597Y-34042489D01*
X188333476Y-33939485D01*
X188264807Y-33812876D01*
X188080258Y-33767811D01*
X187837768Y-33851502D01*
X187736910Y-34042489D01*
X186933628Y-34042489D01*
X186949356Y-33905866D01*
X187058798Y-33630472D01*
X187241202Y-33396567D01*
X187481307Y-33218932D01*
X187763853Y-33112351D01*
X188088841Y-33076824D01*
X188384263Y-33107821D01*
G37*
G36*
X194482976Y-33107821D02*
G01*
X194728326Y-33200811D01*
X194923605Y-33355794D01*
X195115129Y-33642275D01*
X195178970Y-33943777D01*
X195149464Y-34156760D01*
X195060944Y-34315021D01*
X194924142Y-34413197D01*
X194749785Y-34445923D01*
X193835622Y-34445923D01*
X193964378Y-34609013D01*
X194217597Y-34669099D01*
X194565236Y-34613305D01*
X194762661Y-34557511D01*
X194904292Y-34609013D01*
X195020172Y-34763519D01*
X195075966Y-34960944D01*
X195020172Y-35131813D01*
X194852790Y-35253863D01*
X194573820Y-35327092D01*
X194183262Y-35351502D01*
X193895708Y-35325215D01*
X193642489Y-35246352D01*
X193432725Y-35124571D01*
X193275536Y-34969528D01*
X193160730Y-34793562D01*
X193078112Y-34609013D01*
X193028219Y-34418026D01*
X193011588Y-34222747D01*
X193032340Y-34042489D01*
X193835622Y-34042489D01*
X194316309Y-34042489D01*
X194432189Y-33939485D01*
X194363519Y-33812876D01*
X194178970Y-33767811D01*
X193936481Y-33851502D01*
X193835622Y-34042489D01*
X193032340Y-34042489D01*
X193048069Y-33905866D01*
X193157511Y-33630472D01*
X193339914Y-33396567D01*
X193580019Y-33218932D01*
X193862566Y-33112351D01*
X194187554Y-33076824D01*
X194482976Y-33107821D01*
G37*
G36*
X190484764Y-33116524D02*
G01*
X190784120Y-33222747D01*
X190950429Y-33400858D01*
X190857082Y-33669099D01*
X190642489Y-33832189D01*
X190406438Y-33754936D01*
X190140343Y-33677682D01*
X189981545Y-33763519D01*
X189987983Y-33802146D01*
X190007296Y-33832189D01*
X190035193Y-33855794D01*
X190075966Y-33875107D01*
X190123176Y-33890129D01*
X190178970Y-33905150D01*
X190239056Y-33918026D01*
X190307725Y-33928755D01*
X190376395Y-33939485D01*
X190610300Y-33995279D01*
X190816309Y-34093991D01*
X190983691Y-34291416D01*
X191041631Y-34600429D01*
X191003348Y-34867725D01*
X190888498Y-35075622D01*
X190697082Y-35224120D01*
X190429099Y-35313219D01*
X190084549Y-35342918D01*
X189800751Y-35313948D01*
X189507296Y-35227039D01*
X189283584Y-35097210D01*
X189209013Y-34939485D01*
X189248712Y-34787124D01*
X189367811Y-34587554D01*
X189535193Y-34501717D01*
X189833476Y-34606867D01*
X190153219Y-34712017D01*
X190316309Y-34643348D01*
X190254077Y-34568240D01*
X190041631Y-34508155D01*
X189809871Y-34450215D01*
X189578916Y-34345869D01*
X189413948Y-34195923D01*
X189314968Y-34000376D01*
X189281974Y-33759227D01*
X189339378Y-33467918D01*
X189511588Y-33254936D01*
X189688746Y-33158369D01*
X189914068Y-33100429D01*
X190187554Y-33081116D01*
X190484764Y-33116524D01*
G37*
G36*
X196706867Y-33113305D02*
G01*
X196861373Y-33151931D01*
X197000858Y-33248498D01*
X197054506Y-33411588D01*
X197030901Y-33612768D01*
X196960086Y-33778541D01*
X196719742Y-33926609D01*
X196554506Y-33894421D01*
X196449356Y-33862232D01*
X196236910Y-33924464D01*
X196153219Y-34081116D01*
X196153219Y-34918026D01*
X196146781Y-35063948D01*
X196106009Y-35177682D01*
X195985837Y-35274249D01*
X195758369Y-35304292D01*
X195537339Y-35274249D01*
X195419313Y-35175536D01*
X195378541Y-35057511D01*
X195372103Y-34909442D01*
X195372103Y-33510300D01*
X195378541Y-33364378D01*
X195419313Y-33250644D01*
X195537339Y-33154077D01*
X195762661Y-33124034D01*
X196011588Y-33168026D01*
X196131760Y-33300000D01*
X196348498Y-33151931D01*
X196578112Y-33102575D01*
X196706867Y-33113305D01*
G37*
D12*
%TO.C,U4*%
X202050000Y-78440000D02*
X201400000Y-78440000D01*
X202050000Y-78440000D02*
X202700000Y-78440000D01*
X202050000Y-81560000D02*
X201400000Y-81560000D01*
X202050000Y-81560000D02*
X202700000Y-81560000D01*
X200887500Y-78490000D02*
X200647500Y-78160000D01*
X201127500Y-78160000D01*
X200887500Y-78490000D01*
G36*
X200887500Y-78490000D02*
G01*
X200647500Y-78160000D01*
X201127500Y-78160000D01*
X200887500Y-78490000D01*
G37*
%TO.C,U3*%
X198212500Y-63790000D02*
X201972500Y-63790000D01*
X198212500Y-70610000D02*
X201972500Y-70610000D01*
X201972500Y-63790000D02*
X201972500Y-65050000D01*
X201972500Y-70610000D02*
X201972500Y-69350000D01*
X196932500Y-63890000D02*
X196692500Y-63560000D01*
X197172500Y-63560000D01*
X196932500Y-63890000D01*
G36*
X196932500Y-63890000D02*
G01*
X196692500Y-63560000D01*
X197172500Y-63560000D01*
X196932500Y-63890000D01*
G37*
%TO.C,U2*%
D13*
X185955000Y-84050000D02*
G75*
G02*
X185645000Y-84050000I-155000J0D01*
G01*
X185645000Y-84050000D02*
G75*
G02*
X185955000Y-84050000I155000J0D01*
G01*
D12*
%TO.C,U1*%
X165337500Y-72860000D02*
X167537500Y-72860000D01*
X165337500Y-72860000D02*
X163137500Y-72860000D01*
X165337500Y-66090000D02*
X167537500Y-66090000D01*
X165337500Y-66090000D02*
X163137500Y-66090000D01*
X169527500Y-72640000D02*
X169197500Y-72400000D01*
X169527500Y-72160000D01*
X169527500Y-72640000D01*
G36*
X169527500Y-72640000D02*
G01*
X169197500Y-72400000D01*
X169527500Y-72160000D01*
X169527500Y-72640000D01*
G37*
%TO.C,SW3*%
X191735000Y-42415000D02*
X205705000Y-42415000D01*
X191735000Y-56385000D02*
X191735000Y-42415000D01*
X205705000Y-42415000D02*
X205705000Y-56385000D01*
X205705000Y-56385000D02*
X191735000Y-56385000D01*
%TO.C,SW1*%
X154215000Y-42215000D02*
X168185000Y-42215000D01*
X154215000Y-56185000D02*
X154215000Y-42215000D01*
X168185000Y-42215000D02*
X168185000Y-56185000D01*
X168185000Y-56185000D02*
X154215000Y-56185000D01*
%TO.C,RN1*%
X157472500Y-80475000D02*
X157472500Y-81475000D01*
X160832500Y-80475000D02*
X160832500Y-81475000D01*
%TO.C,R2*%
X170264564Y-82100000D02*
X169810436Y-82100000D01*
X170264564Y-80630000D02*
X169810436Y-80630000D01*
%TO.C,R1*%
X162217500Y-75902064D02*
X162217500Y-75447936D01*
X163687500Y-75902064D02*
X163687500Y-75447936D01*
%TO.C,J4*%
X176270000Y-65730000D02*
X176270000Y-64400000D01*
X177600000Y-65730000D02*
X176270000Y-65730000D01*
X178870000Y-65730000D02*
X186550000Y-65730000D01*
X178870000Y-65730000D02*
X178870000Y-63070000D01*
X186550000Y-65730000D02*
X186550000Y-63070000D01*
X178870000Y-63070000D02*
X186550000Y-63070000D01*
%TO.C,J3*%
X168162500Y-60945000D02*
X168162500Y-62275000D01*
X166832500Y-60945000D02*
X168162500Y-60945000D01*
X165562500Y-60945000D02*
X155342500Y-60945000D01*
X165562500Y-60945000D02*
X165562500Y-63605000D01*
X155342500Y-60945000D02*
X155342500Y-63605000D01*
X165562500Y-63605000D02*
X155342500Y-63605000D01*
%TO.C,J2*%
X166210000Y-83770000D02*
X166210000Y-85100000D01*
X164880000Y-83770000D02*
X166210000Y-83770000D01*
X163610000Y-83770000D02*
X158470000Y-83770000D01*
X163610000Y-83770000D02*
X163610000Y-86430000D01*
X158470000Y-83770000D02*
X158470000Y-86430000D01*
X163610000Y-86430000D02*
X158470000Y-86430000D01*
%TO.C,C15*%
X169788748Y-84065000D02*
X170311252Y-84065000D01*
X169788748Y-85535000D02*
X170311252Y-85535000D01*
%TO.C,C14*%
X165936252Y-82100000D02*
X165413748Y-82100000D01*
X165936252Y-80630000D02*
X165413748Y-80630000D01*
%TO.C,C13*%
X187390000Y-74176252D02*
X187390000Y-73653748D01*
X188860000Y-74176252D02*
X188860000Y-73653748D01*
%TO.C,C12*%
X192113748Y-73830000D02*
X192636252Y-73830000D01*
X192113748Y-75300000D02*
X192636252Y-75300000D01*
%TO.C,C11*%
X192113748Y-77430000D02*
X192636252Y-77430000D01*
X192113748Y-78900000D02*
X192636252Y-78900000D01*
%TO.C,C10*%
X187390000Y-78176252D02*
X187390000Y-77653748D01*
X188860000Y-78176252D02*
X188860000Y-77653748D01*
%TO.C,C9*%
X192113748Y-80830000D02*
X192636252Y-80830000D01*
X192113748Y-82300000D02*
X192636252Y-82300000D01*
%TO.C,C8*%
X188860000Y-81753748D02*
X188860000Y-82276252D01*
X187390000Y-81753748D02*
X187390000Y-82276252D01*
%TO.C,C7*%
X201588748Y-83465000D02*
X202111252Y-83465000D01*
X201588748Y-84935000D02*
X202111252Y-84935000D01*
%TO.C,C6*%
X202111252Y-76535000D02*
X201588748Y-76535000D01*
X202111252Y-75065000D02*
X201588748Y-75065000D01*
%TO.C,C5*%
X197661252Y-61265000D02*
X197138748Y-61265000D01*
X197661252Y-62735000D02*
X197138748Y-62735000D01*
%TO.C,C4*%
X197188748Y-72665000D02*
X197711252Y-72665000D01*
X197188748Y-74135000D02*
X197711252Y-74135000D01*
%TO.C,C3*%
X177411252Y-60335000D02*
X176888748Y-60335000D01*
X177411252Y-58865000D02*
X176888748Y-58865000D01*
%TO.C,C2*%
X181911252Y-60335000D02*
X181388748Y-60335000D01*
X181911252Y-58865000D02*
X181388748Y-58865000D01*
%TO.C,C1*%
X172335000Y-65688748D02*
X172335000Y-66211252D01*
X170865000Y-65688748D02*
X170865000Y-66211252D01*
%TD*%
M02*
