M48
; DRILL file {KiCad 8.0.6} date 2024-12-31T08:05:44-0600
; FORMAT={-:-/ absolute / inch / decimal}
; #@! TF.CreationDate,2024-12-31T08:05:44-06:00
; #@! TF.GenerationSoftware,Kicad,Pcbnew,8.0.6
; #@! TF.FileFunction,Plated,1,2,PTH
FMAT,2
INCH
; #@! TA.AperFunction,Plated,PTH,ViaDrill
T1C0.0118
; #@! TA.AperFunction,Plated,PTH,ComponentDrill
T2C0.0236
; #@! TA.AperFunction,Plated,PTH,ComponentDrill
T3C0.0276
; #@! TA.AperFunction,Plated,PTH,ComponentDrill
T4C0.0394
; #@! TA.AperFunction,Plated,PTH,ComponentDrill
T5C0.0591
%
G90
G05
T1
X6.1102Y-2.5748
X6.2895Y-2.8701
X6.3052Y-2.7431
X6.3052Y-2.9321
X6.3131Y-2.8061
X6.4567Y-2.9882
X6.4724Y-2.6614
X6.5354Y-2.7717
X6.5433Y-2.6142
X6.5512Y-2.6929
X6.5512Y-3.0315
X6.5669Y-2.6614
X6.5709Y-2.8346
X6.5906Y-3.2677
X6.6299Y-2.5591
X6.685Y-2.8268
X6.6912Y-2.7441
X6.6923Y-2.7792
X7.1575Y-2.4094
X7.3386Y-3.378
X7.4961Y-3.0079
X7.5354Y-3.378
X7.6693Y-3.0236
X7.7323Y-2.9685
X7.811Y-3.3071
X7.8268Y-3.0472
T3
X6.8425Y-2.7874
X6.8425Y-2.8575
X6.8425Y-2.9276
X6.8425Y-2.9976
X6.8425Y-3.0677
X6.8425Y-3.1378
X6.8425Y-3.2079
X6.8425Y-3.278
X7.2638Y-2.8224
X7.2638Y-2.8925
X7.2638Y-2.9626
X7.2638Y-3.0327
X7.2638Y-3.1028
X7.2638Y-3.1728
X7.2638Y-3.2429
X7.2638Y-3.313
T4
X6.1682Y-2.4518
X6.2682Y-2.4518
X6.2913Y-3.3504
X6.3682Y-2.4518
X6.3913Y-3.3504
X6.4682Y-2.4518
X6.4913Y-3.3504
X6.5682Y-2.4518
X6.9652Y-1.638
X6.9652Y-2.2089
X6.9921Y-2.5354
X7.0636Y-2.2089
X7.0921Y-2.5354
X7.162Y-1.638
X7.162Y-2.2089
X7.1921Y-2.5354
X7.2921Y-2.5354
T5
X6.1965Y-1.837
X6.4465Y-1.737
X7.6736Y-1.8449
X7.9236Y-1.7449
T2
G00X6.0587Y-2.6675
M15
G01X6.0272Y-2.6675
M16
G05
G00X6.0587Y-3.0077
M15
G01X6.0272Y-3.0077
M16
G05
G00X6.228Y-2.6675
M15
G01X6.1846Y-2.6675
M16
G05
G00X6.228Y-3.0077
M15
G01X6.1846Y-3.0077
M16
G05
T5
G00X6.847Y-1.8919
M15
G01X6.847Y-1.9352
M16
G05
G00X7.2801Y-1.8919
M15
G01X7.2801Y-1.9352
M16
G05
M30
