%TF.GenerationSoftware,KiCad,Pcbnew,7.0.8*%
%TF.CreationDate,2024-02-20T11:28:20-06:00*%
%TF.ProjectId,CH32V103DevBoard,43483332-5631-4303-9344-6576426f6172,rev?*%
%TF.SameCoordinates,Original*%
%TF.FileFunction,Legend,Top*%
%TF.FilePolarity,Positive*%
%FSLAX46Y46*%
G04 Gerber Fmt 4.6, Leading zero omitted, Abs format (unit mm)*
G04 Created by KiCad (PCBNEW 7.0.8) date 2024-02-20 11:28:20*
%MOMM*%
%LPD*%
G01*
G04 APERTURE LIST*
%ADD10C,0.150000*%
%ADD11C,0.120000*%
G04 APERTURE END LIST*
D10*
X155024819Y-63933333D02*
X155739104Y-63933333D01*
X155739104Y-63933333D02*
X155881961Y-63980952D01*
X155881961Y-63980952D02*
X155977200Y-64076190D01*
X155977200Y-64076190D02*
X156024819Y-64219047D01*
X156024819Y-64219047D02*
X156024819Y-64314285D01*
X155024819Y-63552380D02*
X155024819Y-62885714D01*
X155024819Y-62885714D02*
X156024819Y-63314285D01*
X144666667Y-77207200D02*
X144809524Y-77254819D01*
X144809524Y-77254819D02*
X145047619Y-77254819D01*
X145047619Y-77254819D02*
X145142857Y-77207200D01*
X145142857Y-77207200D02*
X145190476Y-77159580D01*
X145190476Y-77159580D02*
X145238095Y-77064342D01*
X145238095Y-77064342D02*
X145238095Y-76969104D01*
X145238095Y-76969104D02*
X145190476Y-76873866D01*
X145190476Y-76873866D02*
X145142857Y-76826247D01*
X145142857Y-76826247D02*
X145047619Y-76778628D01*
X145047619Y-76778628D02*
X144857143Y-76731009D01*
X144857143Y-76731009D02*
X144761905Y-76683390D01*
X144761905Y-76683390D02*
X144714286Y-76635771D01*
X144714286Y-76635771D02*
X144666667Y-76540533D01*
X144666667Y-76540533D02*
X144666667Y-76445295D01*
X144666667Y-76445295D02*
X144714286Y-76350057D01*
X144714286Y-76350057D02*
X144761905Y-76302438D01*
X144761905Y-76302438D02*
X144857143Y-76254819D01*
X144857143Y-76254819D02*
X145095238Y-76254819D01*
X145095238Y-76254819D02*
X145238095Y-76302438D01*
X145571429Y-76254819D02*
X145809524Y-77254819D01*
X145809524Y-77254819D02*
X146000000Y-76540533D01*
X146000000Y-76540533D02*
X146190476Y-77254819D01*
X146190476Y-77254819D02*
X146428572Y-76254819D01*
X147333333Y-77254819D02*
X146761905Y-77254819D01*
X147047619Y-77254819D02*
X147047619Y-76254819D01*
X147047619Y-76254819D02*
X146952381Y-76397676D01*
X146952381Y-76397676D02*
X146857143Y-76492914D01*
X146857143Y-76492914D02*
X146761905Y-76540533D01*
X150366667Y-77407200D02*
X150509524Y-77454819D01*
X150509524Y-77454819D02*
X150747619Y-77454819D01*
X150747619Y-77454819D02*
X150842857Y-77407200D01*
X150842857Y-77407200D02*
X150890476Y-77359580D01*
X150890476Y-77359580D02*
X150938095Y-77264342D01*
X150938095Y-77264342D02*
X150938095Y-77169104D01*
X150938095Y-77169104D02*
X150890476Y-77073866D01*
X150890476Y-77073866D02*
X150842857Y-77026247D01*
X150842857Y-77026247D02*
X150747619Y-76978628D01*
X150747619Y-76978628D02*
X150557143Y-76931009D01*
X150557143Y-76931009D02*
X150461905Y-76883390D01*
X150461905Y-76883390D02*
X150414286Y-76835771D01*
X150414286Y-76835771D02*
X150366667Y-76740533D01*
X150366667Y-76740533D02*
X150366667Y-76645295D01*
X150366667Y-76645295D02*
X150414286Y-76550057D01*
X150414286Y-76550057D02*
X150461905Y-76502438D01*
X150461905Y-76502438D02*
X150557143Y-76454819D01*
X150557143Y-76454819D02*
X150795238Y-76454819D01*
X150795238Y-76454819D02*
X150938095Y-76502438D01*
X151271429Y-76454819D02*
X151509524Y-77454819D01*
X151509524Y-77454819D02*
X151700000Y-76740533D01*
X151700000Y-76740533D02*
X151890476Y-77454819D01*
X151890476Y-77454819D02*
X152128572Y-76454819D01*
X152938095Y-76788152D02*
X152938095Y-77454819D01*
X152700000Y-76407200D02*
X152461905Y-77121485D01*
X152461905Y-77121485D02*
X153080952Y-77121485D01*
X159238095Y-79554819D02*
X159238095Y-80364342D01*
X159238095Y-80364342D02*
X159285714Y-80459580D01*
X159285714Y-80459580D02*
X159333333Y-80507200D01*
X159333333Y-80507200D02*
X159428571Y-80554819D01*
X159428571Y-80554819D02*
X159619047Y-80554819D01*
X159619047Y-80554819D02*
X159714285Y-80507200D01*
X159714285Y-80507200D02*
X159761904Y-80459580D01*
X159761904Y-80459580D02*
X159809523Y-80364342D01*
X159809523Y-80364342D02*
X159809523Y-79554819D01*
X160238095Y-79650057D02*
X160285714Y-79602438D01*
X160285714Y-79602438D02*
X160380952Y-79554819D01*
X160380952Y-79554819D02*
X160619047Y-79554819D01*
X160619047Y-79554819D02*
X160714285Y-79602438D01*
X160714285Y-79602438D02*
X160761904Y-79650057D01*
X160761904Y-79650057D02*
X160809523Y-79745295D01*
X160809523Y-79745295D02*
X160809523Y-79840533D01*
X160809523Y-79840533D02*
X160761904Y-79983390D01*
X160761904Y-79983390D02*
X160190476Y-80554819D01*
X160190476Y-80554819D02*
X160809523Y-80554819D01*
X133066666Y-72824819D02*
X133066666Y-73539104D01*
X133066666Y-73539104D02*
X133019047Y-73681961D01*
X133019047Y-73681961D02*
X132923809Y-73777200D01*
X132923809Y-73777200D02*
X132780952Y-73824819D01*
X132780952Y-73824819D02*
X132685714Y-73824819D01*
X133971428Y-73158152D02*
X133971428Y-73824819D01*
X133733333Y-72777200D02*
X133495238Y-73491485D01*
X133495238Y-73491485D02*
X134114285Y-73491485D01*
X140854819Y-103333333D02*
X141569104Y-103333333D01*
X141569104Y-103333333D02*
X141711961Y-103380952D01*
X141711961Y-103380952D02*
X141807200Y-103476190D01*
X141807200Y-103476190D02*
X141854819Y-103619047D01*
X141854819Y-103619047D02*
X141854819Y-103714285D01*
X140854819Y-102380952D02*
X140854819Y-102857142D01*
X140854819Y-102857142D02*
X141331009Y-102904761D01*
X141331009Y-102904761D02*
X141283390Y-102857142D01*
X141283390Y-102857142D02*
X141235771Y-102761904D01*
X141235771Y-102761904D02*
X141235771Y-102523809D01*
X141235771Y-102523809D02*
X141283390Y-102428571D01*
X141283390Y-102428571D02*
X141331009Y-102380952D01*
X141331009Y-102380952D02*
X141426247Y-102333333D01*
X141426247Y-102333333D02*
X141664342Y-102333333D01*
X141664342Y-102333333D02*
X141759580Y-102380952D01*
X141759580Y-102380952D02*
X141807200Y-102428571D01*
X141807200Y-102428571D02*
X141854819Y-102523809D01*
X141854819Y-102523809D02*
X141854819Y-102761904D01*
X141854819Y-102761904D02*
X141807200Y-102857142D01*
X141807200Y-102857142D02*
X141759580Y-102904761D01*
X160724819Y-103333333D02*
X161439104Y-103333333D01*
X161439104Y-103333333D02*
X161581961Y-103380952D01*
X161581961Y-103380952D02*
X161677200Y-103476190D01*
X161677200Y-103476190D02*
X161724819Y-103619047D01*
X161724819Y-103619047D02*
X161724819Y-103714285D01*
X160724819Y-102952380D02*
X160724819Y-102333333D01*
X160724819Y-102333333D02*
X161105771Y-102666666D01*
X161105771Y-102666666D02*
X161105771Y-102523809D01*
X161105771Y-102523809D02*
X161153390Y-102428571D01*
X161153390Y-102428571D02*
X161201009Y-102380952D01*
X161201009Y-102380952D02*
X161296247Y-102333333D01*
X161296247Y-102333333D02*
X161534342Y-102333333D01*
X161534342Y-102333333D02*
X161629580Y-102380952D01*
X161629580Y-102380952D02*
X161677200Y-102428571D01*
X161677200Y-102428571D02*
X161724819Y-102523809D01*
X161724819Y-102523809D02*
X161724819Y-102809523D01*
X161724819Y-102809523D02*
X161677200Y-102904761D01*
X161677200Y-102904761D02*
X161629580Y-102952380D01*
X150533333Y-82159580D02*
X150485714Y-82207200D01*
X150485714Y-82207200D02*
X150342857Y-82254819D01*
X150342857Y-82254819D02*
X150247619Y-82254819D01*
X150247619Y-82254819D02*
X150104762Y-82207200D01*
X150104762Y-82207200D02*
X150009524Y-82111961D01*
X150009524Y-82111961D02*
X149961905Y-82016723D01*
X149961905Y-82016723D02*
X149914286Y-81826247D01*
X149914286Y-81826247D02*
X149914286Y-81683390D01*
X149914286Y-81683390D02*
X149961905Y-81492914D01*
X149961905Y-81492914D02*
X150009524Y-81397676D01*
X150009524Y-81397676D02*
X150104762Y-81302438D01*
X150104762Y-81302438D02*
X150247619Y-81254819D01*
X150247619Y-81254819D02*
X150342857Y-81254819D01*
X150342857Y-81254819D02*
X150485714Y-81302438D01*
X150485714Y-81302438D02*
X150533333Y-81350057D01*
X151438095Y-81254819D02*
X150961905Y-81254819D01*
X150961905Y-81254819D02*
X150914286Y-81731009D01*
X150914286Y-81731009D02*
X150961905Y-81683390D01*
X150961905Y-81683390D02*
X151057143Y-81635771D01*
X151057143Y-81635771D02*
X151295238Y-81635771D01*
X151295238Y-81635771D02*
X151390476Y-81683390D01*
X151390476Y-81683390D02*
X151438095Y-81731009D01*
X151438095Y-81731009D02*
X151485714Y-81826247D01*
X151485714Y-81826247D02*
X151485714Y-82064342D01*
X151485714Y-82064342D02*
X151438095Y-82159580D01*
X151438095Y-82159580D02*
X151390476Y-82207200D01*
X151390476Y-82207200D02*
X151295238Y-82254819D01*
X151295238Y-82254819D02*
X151057143Y-82254819D01*
X151057143Y-82254819D02*
X150961905Y-82207200D01*
X150961905Y-82207200D02*
X150914286Y-82159580D01*
X158833333Y-95279580D02*
X158785714Y-95327200D01*
X158785714Y-95327200D02*
X158642857Y-95374819D01*
X158642857Y-95374819D02*
X158547619Y-95374819D01*
X158547619Y-95374819D02*
X158404762Y-95327200D01*
X158404762Y-95327200D02*
X158309524Y-95231961D01*
X158309524Y-95231961D02*
X158261905Y-95136723D01*
X158261905Y-95136723D02*
X158214286Y-94946247D01*
X158214286Y-94946247D02*
X158214286Y-94803390D01*
X158214286Y-94803390D02*
X158261905Y-94612914D01*
X158261905Y-94612914D02*
X158309524Y-94517676D01*
X158309524Y-94517676D02*
X158404762Y-94422438D01*
X158404762Y-94422438D02*
X158547619Y-94374819D01*
X158547619Y-94374819D02*
X158642857Y-94374819D01*
X158642857Y-94374819D02*
X158785714Y-94422438D01*
X158785714Y-94422438D02*
X158833333Y-94470057D01*
X159214286Y-94470057D02*
X159261905Y-94422438D01*
X159261905Y-94422438D02*
X159357143Y-94374819D01*
X159357143Y-94374819D02*
X159595238Y-94374819D01*
X159595238Y-94374819D02*
X159690476Y-94422438D01*
X159690476Y-94422438D02*
X159738095Y-94470057D01*
X159738095Y-94470057D02*
X159785714Y-94565295D01*
X159785714Y-94565295D02*
X159785714Y-94660533D01*
X159785714Y-94660533D02*
X159738095Y-94803390D01*
X159738095Y-94803390D02*
X159166667Y-95374819D01*
X159166667Y-95374819D02*
X159785714Y-95374819D01*
X145209523Y-83854819D02*
X144876190Y-83378628D01*
X144638095Y-83854819D02*
X144638095Y-82854819D01*
X144638095Y-82854819D02*
X145019047Y-82854819D01*
X145019047Y-82854819D02*
X145114285Y-82902438D01*
X145114285Y-82902438D02*
X145161904Y-82950057D01*
X145161904Y-82950057D02*
X145209523Y-83045295D01*
X145209523Y-83045295D02*
X145209523Y-83188152D01*
X145209523Y-83188152D02*
X145161904Y-83283390D01*
X145161904Y-83283390D02*
X145114285Y-83331009D01*
X145114285Y-83331009D02*
X145019047Y-83378628D01*
X145019047Y-83378628D02*
X144638095Y-83378628D01*
X145638095Y-83854819D02*
X145638095Y-82854819D01*
X145638095Y-82854819D02*
X146209523Y-83854819D01*
X146209523Y-83854819D02*
X146209523Y-82854819D01*
X147209523Y-83854819D02*
X146638095Y-83854819D01*
X146923809Y-83854819D02*
X146923809Y-82854819D01*
X146923809Y-82854819D02*
X146828571Y-82997676D01*
X146828571Y-82997676D02*
X146733333Y-83092914D01*
X146733333Y-83092914D02*
X146638095Y-83140533D01*
X163183333Y-71639580D02*
X163135714Y-71687200D01*
X163135714Y-71687200D02*
X162992857Y-71734819D01*
X162992857Y-71734819D02*
X162897619Y-71734819D01*
X162897619Y-71734819D02*
X162754762Y-71687200D01*
X162754762Y-71687200D02*
X162659524Y-71591961D01*
X162659524Y-71591961D02*
X162611905Y-71496723D01*
X162611905Y-71496723D02*
X162564286Y-71306247D01*
X162564286Y-71306247D02*
X162564286Y-71163390D01*
X162564286Y-71163390D02*
X162611905Y-70972914D01*
X162611905Y-70972914D02*
X162659524Y-70877676D01*
X162659524Y-70877676D02*
X162754762Y-70782438D01*
X162754762Y-70782438D02*
X162897619Y-70734819D01*
X162897619Y-70734819D02*
X162992857Y-70734819D01*
X162992857Y-70734819D02*
X163135714Y-70782438D01*
X163135714Y-70782438D02*
X163183333Y-70830057D01*
X163659524Y-71734819D02*
X163850000Y-71734819D01*
X163850000Y-71734819D02*
X163945238Y-71687200D01*
X163945238Y-71687200D02*
X163992857Y-71639580D01*
X163992857Y-71639580D02*
X164088095Y-71496723D01*
X164088095Y-71496723D02*
X164135714Y-71306247D01*
X164135714Y-71306247D02*
X164135714Y-70925295D01*
X164135714Y-70925295D02*
X164088095Y-70830057D01*
X164088095Y-70830057D02*
X164040476Y-70782438D01*
X164040476Y-70782438D02*
X163945238Y-70734819D01*
X163945238Y-70734819D02*
X163754762Y-70734819D01*
X163754762Y-70734819D02*
X163659524Y-70782438D01*
X163659524Y-70782438D02*
X163611905Y-70830057D01*
X163611905Y-70830057D02*
X163564286Y-70925295D01*
X163564286Y-70925295D02*
X163564286Y-71163390D01*
X163564286Y-71163390D02*
X163611905Y-71258628D01*
X163611905Y-71258628D02*
X163659524Y-71306247D01*
X163659524Y-71306247D02*
X163754762Y-71353866D01*
X163754762Y-71353866D02*
X163945238Y-71353866D01*
X163945238Y-71353866D02*
X164040476Y-71306247D01*
X164040476Y-71306247D02*
X164088095Y-71258628D01*
X164088095Y-71258628D02*
X164135714Y-71163390D01*
X171866666Y-64774819D02*
X171866666Y-65489104D01*
X171866666Y-65489104D02*
X171819047Y-65631961D01*
X171819047Y-65631961D02*
X171723809Y-65727200D01*
X171723809Y-65727200D02*
X171580952Y-65774819D01*
X171580952Y-65774819D02*
X171485714Y-65774819D01*
X172295238Y-64870057D02*
X172342857Y-64822438D01*
X172342857Y-64822438D02*
X172438095Y-64774819D01*
X172438095Y-64774819D02*
X172676190Y-64774819D01*
X172676190Y-64774819D02*
X172771428Y-64822438D01*
X172771428Y-64822438D02*
X172819047Y-64870057D01*
X172819047Y-64870057D02*
X172866666Y-64965295D01*
X172866666Y-64965295D02*
X172866666Y-65060533D01*
X172866666Y-65060533D02*
X172819047Y-65203390D01*
X172819047Y-65203390D02*
X172247619Y-65774819D01*
X172247619Y-65774819D02*
X172866666Y-65774819D01*
X165984819Y-97390476D02*
X165508628Y-97723809D01*
X165984819Y-97961904D02*
X164984819Y-97961904D01*
X164984819Y-97961904D02*
X164984819Y-97580952D01*
X164984819Y-97580952D02*
X165032438Y-97485714D01*
X165032438Y-97485714D02*
X165080057Y-97438095D01*
X165080057Y-97438095D02*
X165175295Y-97390476D01*
X165175295Y-97390476D02*
X165318152Y-97390476D01*
X165318152Y-97390476D02*
X165413390Y-97438095D01*
X165413390Y-97438095D02*
X165461009Y-97485714D01*
X165461009Y-97485714D02*
X165508628Y-97580952D01*
X165508628Y-97580952D02*
X165508628Y-97961904D01*
X165984819Y-96961904D02*
X164984819Y-96961904D01*
X164984819Y-96961904D02*
X165984819Y-96390476D01*
X165984819Y-96390476D02*
X164984819Y-96390476D01*
X165080057Y-95961904D02*
X165032438Y-95914285D01*
X165032438Y-95914285D02*
X164984819Y-95819047D01*
X164984819Y-95819047D02*
X164984819Y-95580952D01*
X164984819Y-95580952D02*
X165032438Y-95485714D01*
X165032438Y-95485714D02*
X165080057Y-95438095D01*
X165080057Y-95438095D02*
X165175295Y-95390476D01*
X165175295Y-95390476D02*
X165270533Y-95390476D01*
X165270533Y-95390476D02*
X165413390Y-95438095D01*
X165413390Y-95438095D02*
X165984819Y-96009523D01*
X165984819Y-96009523D02*
X165984819Y-95390476D01*
X162307142Y-82839580D02*
X162259523Y-82887200D01*
X162259523Y-82887200D02*
X162116666Y-82934819D01*
X162116666Y-82934819D02*
X162021428Y-82934819D01*
X162021428Y-82934819D02*
X161878571Y-82887200D01*
X161878571Y-82887200D02*
X161783333Y-82791961D01*
X161783333Y-82791961D02*
X161735714Y-82696723D01*
X161735714Y-82696723D02*
X161688095Y-82506247D01*
X161688095Y-82506247D02*
X161688095Y-82363390D01*
X161688095Y-82363390D02*
X161735714Y-82172914D01*
X161735714Y-82172914D02*
X161783333Y-82077676D01*
X161783333Y-82077676D02*
X161878571Y-81982438D01*
X161878571Y-81982438D02*
X162021428Y-81934819D01*
X162021428Y-81934819D02*
X162116666Y-81934819D01*
X162116666Y-81934819D02*
X162259523Y-81982438D01*
X162259523Y-81982438D02*
X162307142Y-82030057D01*
X163259523Y-82934819D02*
X162688095Y-82934819D01*
X162973809Y-82934819D02*
X162973809Y-81934819D01*
X162973809Y-81934819D02*
X162878571Y-82077676D01*
X162878571Y-82077676D02*
X162783333Y-82172914D01*
X162783333Y-82172914D02*
X162688095Y-82220533D01*
X163878571Y-81934819D02*
X163973809Y-81934819D01*
X163973809Y-81934819D02*
X164069047Y-81982438D01*
X164069047Y-81982438D02*
X164116666Y-82030057D01*
X164116666Y-82030057D02*
X164164285Y-82125295D01*
X164164285Y-82125295D02*
X164211904Y-82315771D01*
X164211904Y-82315771D02*
X164211904Y-82553866D01*
X164211904Y-82553866D02*
X164164285Y-82744342D01*
X164164285Y-82744342D02*
X164116666Y-82839580D01*
X164116666Y-82839580D02*
X164069047Y-82887200D01*
X164069047Y-82887200D02*
X163973809Y-82934819D01*
X163973809Y-82934819D02*
X163878571Y-82934819D01*
X163878571Y-82934819D02*
X163783333Y-82887200D01*
X163783333Y-82887200D02*
X163735714Y-82839580D01*
X163735714Y-82839580D02*
X163688095Y-82744342D01*
X163688095Y-82744342D02*
X163640476Y-82553866D01*
X163640476Y-82553866D02*
X163640476Y-82315771D01*
X163640476Y-82315771D02*
X163688095Y-82125295D01*
X163688095Y-82125295D02*
X163735714Y-82030057D01*
X163735714Y-82030057D02*
X163783333Y-81982438D01*
X163783333Y-81982438D02*
X163878571Y-81934819D01*
X162759580Y-88166666D02*
X162807200Y-88214285D01*
X162807200Y-88214285D02*
X162854819Y-88357142D01*
X162854819Y-88357142D02*
X162854819Y-88452380D01*
X162854819Y-88452380D02*
X162807200Y-88595237D01*
X162807200Y-88595237D02*
X162711961Y-88690475D01*
X162711961Y-88690475D02*
X162616723Y-88738094D01*
X162616723Y-88738094D02*
X162426247Y-88785713D01*
X162426247Y-88785713D02*
X162283390Y-88785713D01*
X162283390Y-88785713D02*
X162092914Y-88738094D01*
X162092914Y-88738094D02*
X161997676Y-88690475D01*
X161997676Y-88690475D02*
X161902438Y-88595237D01*
X161902438Y-88595237D02*
X161854819Y-88452380D01*
X161854819Y-88452380D02*
X161854819Y-88357142D01*
X161854819Y-88357142D02*
X161902438Y-88214285D01*
X161902438Y-88214285D02*
X161950057Y-88166666D01*
X161854819Y-87833332D02*
X161854819Y-87214285D01*
X161854819Y-87214285D02*
X162235771Y-87547618D01*
X162235771Y-87547618D02*
X162235771Y-87404761D01*
X162235771Y-87404761D02*
X162283390Y-87309523D01*
X162283390Y-87309523D02*
X162331009Y-87261904D01*
X162331009Y-87261904D02*
X162426247Y-87214285D01*
X162426247Y-87214285D02*
X162664342Y-87214285D01*
X162664342Y-87214285D02*
X162759580Y-87261904D01*
X162759580Y-87261904D02*
X162807200Y-87309523D01*
X162807200Y-87309523D02*
X162854819Y-87404761D01*
X162854819Y-87404761D02*
X162854819Y-87690475D01*
X162854819Y-87690475D02*
X162807200Y-87785713D01*
X162807200Y-87785713D02*
X162759580Y-87833332D01*
X170979166Y-82779819D02*
X170979166Y-83494104D01*
X170979166Y-83494104D02*
X170931547Y-83636961D01*
X170931547Y-83636961D02*
X170836309Y-83732200D01*
X170836309Y-83732200D02*
X170693452Y-83779819D01*
X170693452Y-83779819D02*
X170598214Y-83779819D01*
X171979166Y-83779819D02*
X171407738Y-83779819D01*
X171693452Y-83779819D02*
X171693452Y-82779819D01*
X171693452Y-82779819D02*
X171598214Y-82922676D01*
X171598214Y-82922676D02*
X171502976Y-83017914D01*
X171502976Y-83017914D02*
X171407738Y-83065533D01*
X158838095Y-84254819D02*
X158838095Y-85064342D01*
X158838095Y-85064342D02*
X158885714Y-85159580D01*
X158885714Y-85159580D02*
X158933333Y-85207200D01*
X158933333Y-85207200D02*
X159028571Y-85254819D01*
X159028571Y-85254819D02*
X159219047Y-85254819D01*
X159219047Y-85254819D02*
X159314285Y-85207200D01*
X159314285Y-85207200D02*
X159361904Y-85159580D01*
X159361904Y-85159580D02*
X159409523Y-85064342D01*
X159409523Y-85064342D02*
X159409523Y-84254819D01*
X160409523Y-85254819D02*
X159838095Y-85254819D01*
X160123809Y-85254819D02*
X160123809Y-84254819D01*
X160123809Y-84254819D02*
X160028571Y-84397676D01*
X160028571Y-84397676D02*
X159933333Y-84492914D01*
X159933333Y-84492914D02*
X159838095Y-84540533D01*
X150533333Y-79159580D02*
X150485714Y-79207200D01*
X150485714Y-79207200D02*
X150342857Y-79254819D01*
X150342857Y-79254819D02*
X150247619Y-79254819D01*
X150247619Y-79254819D02*
X150104762Y-79207200D01*
X150104762Y-79207200D02*
X150009524Y-79111961D01*
X150009524Y-79111961D02*
X149961905Y-79016723D01*
X149961905Y-79016723D02*
X149914286Y-78826247D01*
X149914286Y-78826247D02*
X149914286Y-78683390D01*
X149914286Y-78683390D02*
X149961905Y-78492914D01*
X149961905Y-78492914D02*
X150009524Y-78397676D01*
X150009524Y-78397676D02*
X150104762Y-78302438D01*
X150104762Y-78302438D02*
X150247619Y-78254819D01*
X150247619Y-78254819D02*
X150342857Y-78254819D01*
X150342857Y-78254819D02*
X150485714Y-78302438D01*
X150485714Y-78302438D02*
X150533333Y-78350057D01*
X151390476Y-78588152D02*
X151390476Y-79254819D01*
X151152381Y-78207200D02*
X150914286Y-78921485D01*
X150914286Y-78921485D02*
X151533333Y-78921485D01*
X143079580Y-91166666D02*
X143127200Y-91214285D01*
X143127200Y-91214285D02*
X143174819Y-91357142D01*
X143174819Y-91357142D02*
X143174819Y-91452380D01*
X143174819Y-91452380D02*
X143127200Y-91595237D01*
X143127200Y-91595237D02*
X143031961Y-91690475D01*
X143031961Y-91690475D02*
X142936723Y-91738094D01*
X142936723Y-91738094D02*
X142746247Y-91785713D01*
X142746247Y-91785713D02*
X142603390Y-91785713D01*
X142603390Y-91785713D02*
X142412914Y-91738094D01*
X142412914Y-91738094D02*
X142317676Y-91690475D01*
X142317676Y-91690475D02*
X142222438Y-91595237D01*
X142222438Y-91595237D02*
X142174819Y-91452380D01*
X142174819Y-91452380D02*
X142174819Y-91357142D01*
X142174819Y-91357142D02*
X142222438Y-91214285D01*
X142222438Y-91214285D02*
X142270057Y-91166666D01*
X142174819Y-90833332D02*
X142174819Y-90166666D01*
X142174819Y-90166666D02*
X143174819Y-90595237D01*
X146459580Y-87066666D02*
X146507200Y-87114285D01*
X146507200Y-87114285D02*
X146554819Y-87257142D01*
X146554819Y-87257142D02*
X146554819Y-87352380D01*
X146554819Y-87352380D02*
X146507200Y-87495237D01*
X146507200Y-87495237D02*
X146411961Y-87590475D01*
X146411961Y-87590475D02*
X146316723Y-87638094D01*
X146316723Y-87638094D02*
X146126247Y-87685713D01*
X146126247Y-87685713D02*
X145983390Y-87685713D01*
X145983390Y-87685713D02*
X145792914Y-87638094D01*
X145792914Y-87638094D02*
X145697676Y-87590475D01*
X145697676Y-87590475D02*
X145602438Y-87495237D01*
X145602438Y-87495237D02*
X145554819Y-87352380D01*
X145554819Y-87352380D02*
X145554819Y-87257142D01*
X145554819Y-87257142D02*
X145602438Y-87114285D01*
X145602438Y-87114285D02*
X145650057Y-87066666D01*
X145983390Y-86495237D02*
X145935771Y-86590475D01*
X145935771Y-86590475D02*
X145888152Y-86638094D01*
X145888152Y-86638094D02*
X145792914Y-86685713D01*
X145792914Y-86685713D02*
X145745295Y-86685713D01*
X145745295Y-86685713D02*
X145650057Y-86638094D01*
X145650057Y-86638094D02*
X145602438Y-86590475D01*
X145602438Y-86590475D02*
X145554819Y-86495237D01*
X145554819Y-86495237D02*
X145554819Y-86304761D01*
X145554819Y-86304761D02*
X145602438Y-86209523D01*
X145602438Y-86209523D02*
X145650057Y-86161904D01*
X145650057Y-86161904D02*
X145745295Y-86114285D01*
X145745295Y-86114285D02*
X145792914Y-86114285D01*
X145792914Y-86114285D02*
X145888152Y-86161904D01*
X145888152Y-86161904D02*
X145935771Y-86209523D01*
X145935771Y-86209523D02*
X145983390Y-86304761D01*
X145983390Y-86304761D02*
X145983390Y-86495237D01*
X145983390Y-86495237D02*
X146031009Y-86590475D01*
X146031009Y-86590475D02*
X146078628Y-86638094D01*
X146078628Y-86638094D02*
X146173866Y-86685713D01*
X146173866Y-86685713D02*
X146364342Y-86685713D01*
X146364342Y-86685713D02*
X146459580Y-86638094D01*
X146459580Y-86638094D02*
X146507200Y-86590475D01*
X146507200Y-86590475D02*
X146554819Y-86495237D01*
X146554819Y-86495237D02*
X146554819Y-86304761D01*
X146554819Y-86304761D02*
X146507200Y-86209523D01*
X146507200Y-86209523D02*
X146459580Y-86161904D01*
X146459580Y-86161904D02*
X146364342Y-86114285D01*
X146364342Y-86114285D02*
X146173866Y-86114285D01*
X146173866Y-86114285D02*
X146078628Y-86161904D01*
X146078628Y-86161904D02*
X146031009Y-86209523D01*
X146031009Y-86209523D02*
X145983390Y-86304761D01*
X142723809Y-93778628D02*
X142723809Y-94254819D01*
X142390476Y-93254819D02*
X142723809Y-93778628D01*
X142723809Y-93778628D02*
X143057142Y-93254819D01*
X143914285Y-94254819D02*
X143342857Y-94254819D01*
X143628571Y-94254819D02*
X143628571Y-93254819D01*
X143628571Y-93254819D02*
X143533333Y-93397676D01*
X143533333Y-93397676D02*
X143438095Y-93492914D01*
X143438095Y-93492914D02*
X143342857Y-93540533D01*
X143159580Y-86966666D02*
X143207200Y-87014285D01*
X143207200Y-87014285D02*
X143254819Y-87157142D01*
X143254819Y-87157142D02*
X143254819Y-87252380D01*
X143254819Y-87252380D02*
X143207200Y-87395237D01*
X143207200Y-87395237D02*
X143111961Y-87490475D01*
X143111961Y-87490475D02*
X143016723Y-87538094D01*
X143016723Y-87538094D02*
X142826247Y-87585713D01*
X142826247Y-87585713D02*
X142683390Y-87585713D01*
X142683390Y-87585713D02*
X142492914Y-87538094D01*
X142492914Y-87538094D02*
X142397676Y-87490475D01*
X142397676Y-87490475D02*
X142302438Y-87395237D01*
X142302438Y-87395237D02*
X142254819Y-87252380D01*
X142254819Y-87252380D02*
X142254819Y-87157142D01*
X142254819Y-87157142D02*
X142302438Y-87014285D01*
X142302438Y-87014285D02*
X142350057Y-86966666D01*
X142254819Y-86109523D02*
X142254819Y-86299999D01*
X142254819Y-86299999D02*
X142302438Y-86395237D01*
X142302438Y-86395237D02*
X142350057Y-86442856D01*
X142350057Y-86442856D02*
X142492914Y-86538094D01*
X142492914Y-86538094D02*
X142683390Y-86585713D01*
X142683390Y-86585713D02*
X143064342Y-86585713D01*
X143064342Y-86585713D02*
X143159580Y-86538094D01*
X143159580Y-86538094D02*
X143207200Y-86490475D01*
X143207200Y-86490475D02*
X143254819Y-86395237D01*
X143254819Y-86395237D02*
X143254819Y-86204761D01*
X143254819Y-86204761D02*
X143207200Y-86109523D01*
X143207200Y-86109523D02*
X143159580Y-86061904D01*
X143159580Y-86061904D02*
X143064342Y-86014285D01*
X143064342Y-86014285D02*
X142826247Y-86014285D01*
X142826247Y-86014285D02*
X142731009Y-86061904D01*
X142731009Y-86061904D02*
X142683390Y-86109523D01*
X142683390Y-86109523D02*
X142635771Y-86204761D01*
X142635771Y-86204761D02*
X142635771Y-86395237D01*
X142635771Y-86395237D02*
X142683390Y-86490475D01*
X142683390Y-86490475D02*
X142731009Y-86538094D01*
X142731009Y-86538094D02*
X142826247Y-86585713D01*
X146279580Y-91046666D02*
X146327200Y-91094285D01*
X146327200Y-91094285D02*
X146374819Y-91237142D01*
X146374819Y-91237142D02*
X146374819Y-91332380D01*
X146374819Y-91332380D02*
X146327200Y-91475237D01*
X146327200Y-91475237D02*
X146231961Y-91570475D01*
X146231961Y-91570475D02*
X146136723Y-91618094D01*
X146136723Y-91618094D02*
X145946247Y-91665713D01*
X145946247Y-91665713D02*
X145803390Y-91665713D01*
X145803390Y-91665713D02*
X145612914Y-91618094D01*
X145612914Y-91618094D02*
X145517676Y-91570475D01*
X145517676Y-91570475D02*
X145422438Y-91475237D01*
X145422438Y-91475237D02*
X145374819Y-91332380D01*
X145374819Y-91332380D02*
X145374819Y-91237142D01*
X145374819Y-91237142D02*
X145422438Y-91094285D01*
X145422438Y-91094285D02*
X145470057Y-91046666D01*
X146374819Y-90094285D02*
X146374819Y-90665713D01*
X146374819Y-90379999D02*
X145374819Y-90379999D01*
X145374819Y-90379999D02*
X145517676Y-90475237D01*
X145517676Y-90475237D02*
X145612914Y-90570475D01*
X145612914Y-90570475D02*
X145660533Y-90665713D01*
%TO.C,kibuzzard-65D4E0E6*%
G36*
X163291638Y-66589735D02*
G01*
X163390182Y-66604353D01*
X163486819Y-66628559D01*
X163580618Y-66662121D01*
X163670675Y-66704715D01*
X163756124Y-66755931D01*
X163836142Y-66815276D01*
X163909957Y-66882178D01*
X163976860Y-66955994D01*
X164036205Y-67036011D01*
X164087421Y-67121460D01*
X164130015Y-67211518D01*
X164163577Y-67305317D01*
X164187783Y-67401953D01*
X164202400Y-67500498D01*
X164207289Y-67600000D01*
X164202400Y-67699502D01*
X164187783Y-67798047D01*
X164163577Y-67894683D01*
X164130015Y-67988482D01*
X164087421Y-68078540D01*
X164036205Y-68163989D01*
X163976860Y-68244006D01*
X163909957Y-68317822D01*
X163836142Y-68384724D01*
X163756124Y-68444069D01*
X163670675Y-68495285D01*
X163580618Y-68537879D01*
X163486819Y-68571441D01*
X163390182Y-68595647D01*
X163291638Y-68610265D01*
X163192135Y-68615153D01*
X163119375Y-68615153D01*
X162569306Y-68615153D01*
X161886523Y-68615153D01*
X160899891Y-68615153D01*
X159438280Y-68615153D01*
X158034295Y-68615153D01*
X157880625Y-68615153D01*
X157807865Y-68615153D01*
X157708362Y-68610265D01*
X157609818Y-68595647D01*
X157513181Y-68571441D01*
X157419382Y-68537879D01*
X157329325Y-68495285D01*
X157243876Y-68444069D01*
X157163858Y-68384724D01*
X157090043Y-68317822D01*
X157023140Y-68244006D01*
X156963795Y-68163989D01*
X156912579Y-68078540D01*
X156909243Y-68071487D01*
X157880625Y-68071487D01*
X157891103Y-68162293D01*
X157937378Y-68210751D01*
X158034295Y-68226904D01*
X158124227Y-68215117D01*
X158170503Y-68179755D01*
X158187092Y-68133479D01*
X158189711Y-68073234D01*
X158189711Y-67875908D01*
X158407993Y-67875908D01*
X158510439Y-67863490D01*
X158610558Y-67826236D01*
X158700097Y-67769386D01*
X158958061Y-67769386D01*
X158976615Y-67901883D01*
X159032277Y-68019973D01*
X159115005Y-68117327D01*
X159214760Y-68187613D01*
X159324774Y-68230178D01*
X159438280Y-68244366D01*
X159551568Y-68231051D01*
X159660927Y-68191106D01*
X159760245Y-68123002D01*
X159843410Y-68025212D01*
X159899727Y-67904502D01*
X159918499Y-67767640D01*
X159902394Y-67636186D01*
X159854082Y-67521225D01*
X159779986Y-67430614D01*
X159988349Y-67430614D01*
X160005811Y-67498717D01*
X160269495Y-68141338D01*
X160318390Y-68203329D01*
X160409195Y-68233889D01*
X160505239Y-68191979D01*
X160533179Y-68155308D01*
X160548022Y-68126494D01*
X160560246Y-68095062D01*
X160603902Y-67976317D01*
X160633806Y-67894461D01*
X160655416Y-67839236D01*
X160706446Y-67975056D01*
X160740788Y-68065861D01*
X160758445Y-68111651D01*
X160772415Y-68141338D01*
X160822183Y-68203329D01*
X160899891Y-68233889D01*
X160966249Y-68221665D01*
X161018636Y-68178882D01*
X161053561Y-68113397D01*
X161193326Y-67772879D01*
X161390588Y-67772879D01*
X161402811Y-67885609D01*
X161439483Y-67990966D01*
X161500601Y-68088950D01*
X161567614Y-68155089D01*
X161656891Y-68206822D01*
X161764503Y-68240219D01*
X161886523Y-68251351D01*
X162049251Y-68241638D01*
X162165486Y-68212497D01*
X162235227Y-68163930D01*
X162248922Y-68123875D01*
X162417383Y-68123875D01*
X162448815Y-68198964D01*
X162569306Y-68228650D01*
X162658365Y-68217299D01*
X162705514Y-68183248D01*
X162722103Y-68136972D01*
X162724723Y-68076726D01*
X162724723Y-67710014D01*
X162765759Y-67629686D01*
X162853945Y-67596507D01*
X162929907Y-67610477D01*
X162990153Y-67624447D01*
X163086196Y-67558090D01*
X163119375Y-67435852D01*
X163097547Y-67354652D01*
X163042540Y-67318854D01*
X162981421Y-67304011D01*
X162912444Y-67299645D01*
X162817274Y-67329331D01*
X162746551Y-67376480D01*
X162721230Y-67406166D01*
X162702021Y-67348540D01*
X162656182Y-67318417D01*
X162571053Y-67308376D01*
X162481121Y-67320163D01*
X162434845Y-67355525D01*
X162420002Y-67400054D01*
X162417383Y-67460300D01*
X162417383Y-68073234D01*
X162417383Y-68123875D01*
X162248922Y-68123875D01*
X162258474Y-68095935D01*
X162235773Y-68015607D01*
X162139729Y-67937026D01*
X162069879Y-67956235D01*
X162050670Y-67963220D01*
X161982130Y-67978936D01*
X161891761Y-67984175D01*
X161776509Y-67950996D01*
X161718883Y-67868923D01*
X162132744Y-67868923D01*
X162250616Y-67817408D01*
X162290561Y-67751924D01*
X162303876Y-67658499D01*
X162289033Y-67555252D01*
X162244504Y-67460300D01*
X162179674Y-67385430D01*
X162098692Y-67331951D01*
X162001557Y-67299863D01*
X161888269Y-67289167D01*
X161754099Y-67303817D01*
X161635645Y-67347764D01*
X161532907Y-67421009D01*
X161453841Y-67518702D01*
X161406401Y-67635992D01*
X161390588Y-67772879D01*
X161193326Y-67772879D01*
X161245649Y-67645402D01*
X161292798Y-67531023D01*
X161320738Y-67435852D01*
X161292798Y-67369932D01*
X161208978Y-67315361D01*
X161139128Y-67297899D01*
X161065785Y-67325839D01*
X161013398Y-67409659D01*
X160906876Y-67699536D01*
X160888444Y-67652970D01*
X160854101Y-67559836D01*
X160803848Y-67420136D01*
X160789878Y-67390450D01*
X160738363Y-67334570D01*
X160648431Y-67306630D01*
X160545403Y-67357271D01*
X160506985Y-67418390D01*
X160403956Y-67701282D01*
X160348270Y-67549941D01*
X160306942Y-67440509D01*
X160279973Y-67372987D01*
X160266003Y-67342428D01*
X160235443Y-67312742D01*
X160178690Y-67297899D01*
X160087885Y-67320600D01*
X160013233Y-67368185D01*
X159988349Y-67430614D01*
X159779986Y-67430614D01*
X159773560Y-67422756D01*
X159672083Y-67347570D01*
X159560906Y-67302458D01*
X159440026Y-67287421D01*
X159318953Y-67302555D01*
X159207193Y-67347958D01*
X159104746Y-67423629D01*
X159023255Y-67522583D01*
X158974360Y-67637835D01*
X158958061Y-67769386D01*
X158700097Y-67769386D01*
X158708348Y-67764147D01*
X158773395Y-67700628D01*
X158825346Y-67618336D01*
X158859398Y-67521200D01*
X158870749Y-67413151D01*
X158859398Y-67304884D01*
X158825346Y-67207094D01*
X158773395Y-67124147D01*
X158708348Y-67060409D01*
X158610752Y-66998320D01*
X158511215Y-66961067D01*
X158409739Y-66948649D01*
X158036041Y-66948649D01*
X157946109Y-66960436D01*
X157899834Y-66995797D01*
X157883244Y-67042073D01*
X157880625Y-67102319D01*
X157880625Y-68071487D01*
X156909243Y-68071487D01*
X156869985Y-67988482D01*
X156836423Y-67894683D01*
X156812217Y-67798047D01*
X156797600Y-67699502D01*
X156792711Y-67600000D01*
X156797600Y-67500498D01*
X156812217Y-67401953D01*
X156836423Y-67305317D01*
X156869985Y-67211518D01*
X156912579Y-67121460D01*
X156963795Y-67036011D01*
X157023140Y-66955994D01*
X157090043Y-66882178D01*
X157163858Y-66815276D01*
X157243876Y-66755931D01*
X157329325Y-66704715D01*
X157419382Y-66662121D01*
X157513181Y-66628559D01*
X157609818Y-66604353D01*
X157708362Y-66589735D01*
X157807865Y-66584847D01*
X157880625Y-66584847D01*
X163119375Y-66584847D01*
X163192135Y-66584847D01*
X163291638Y-66589735D01*
G37*
G36*
X158512768Y-67297026D02*
G01*
X158563409Y-67413151D01*
X158512768Y-67528404D01*
X158409739Y-67566821D01*
X158189711Y-67566821D01*
X158189711Y-67257735D01*
X158407993Y-67257735D01*
X158512768Y-67297026D01*
G37*
G36*
X159555279Y-67636671D02*
G01*
X159595879Y-67689495D01*
X159609413Y-67764147D01*
X159595006Y-67839236D01*
X159551786Y-67893370D01*
X159436534Y-67937026D01*
X159323028Y-67894243D01*
X159281118Y-67840983D01*
X159267148Y-67766767D01*
X159280681Y-67692333D01*
X159321281Y-67638417D01*
X159438280Y-67594761D01*
X159555279Y-67636671D01*
G37*
G36*
X161971216Y-67589522D02*
G01*
X162001775Y-67654134D01*
X161935418Y-67710014D01*
X161715390Y-67710014D01*
X161771270Y-67611351D01*
X161883903Y-67565075D01*
X161971216Y-67589522D01*
G37*
%TO.C,kibuzzard-65D4E06E*%
G36*
X142926665Y-76865894D02*
G01*
X142998272Y-76876516D01*
X143068493Y-76894105D01*
X143136651Y-76918493D01*
X143202091Y-76949443D01*
X143264183Y-76986660D01*
X143322327Y-77029782D01*
X143375965Y-77078397D01*
X143424579Y-77132035D01*
X143467702Y-77190179D01*
X143504918Y-77252270D01*
X143535869Y-77317710D01*
X143560257Y-77385869D01*
X143577846Y-77456090D01*
X143588468Y-77527697D01*
X143592020Y-77600000D01*
X143588468Y-77672303D01*
X143577846Y-77743910D01*
X143560257Y-77814131D01*
X143535869Y-77882290D01*
X143504918Y-77947730D01*
X143467702Y-78009821D01*
X143424579Y-78067965D01*
X143375965Y-78121603D01*
X143322327Y-78170218D01*
X143264183Y-78213340D01*
X143202091Y-78250557D01*
X143136651Y-78281507D01*
X143068493Y-78305895D01*
X142998272Y-78323484D01*
X142926665Y-78334106D01*
X142854362Y-78337658D01*
X142801445Y-78337658D01*
X142657300Y-78337658D01*
X141633680Y-78337658D01*
X140110315Y-78337658D01*
X139998555Y-78337658D01*
X139945638Y-78337658D01*
X139873335Y-78334106D01*
X139801728Y-78323484D01*
X139731507Y-78305895D01*
X139663349Y-78281507D01*
X139597909Y-78250557D01*
X139535817Y-78213340D01*
X139477673Y-78170218D01*
X139424035Y-78121603D01*
X139375421Y-78067965D01*
X139332298Y-78009821D01*
X139297135Y-77951155D01*
X139998555Y-77951155D01*
X140006175Y-78017195D01*
X140039830Y-78052437D01*
X140110315Y-78064185D01*
X140175720Y-78055613D01*
X140209375Y-78029895D01*
X140221440Y-77996240D01*
X140223345Y-77952425D01*
X140223345Y-77808915D01*
X140382095Y-77808915D01*
X140456602Y-77799884D01*
X140529415Y-77772791D01*
X140600535Y-77727635D01*
X140647843Y-77681439D01*
X140685625Y-77621590D01*
X140710390Y-77550946D01*
X140718645Y-77472365D01*
X140710390Y-77393625D01*
X140685625Y-77322505D01*
X140647843Y-77262180D01*
X140605719Y-77220905D01*
X140769445Y-77220905D01*
X140783415Y-77283135D01*
X141028525Y-77987985D01*
X141037415Y-78007035D01*
X141072340Y-78045135D01*
X141139015Y-78064185D01*
X141208865Y-78034975D01*
X141229185Y-78009575D01*
X141240615Y-77987985D01*
X141247168Y-77968579D01*
X141264796Y-77916459D01*
X141293498Y-77831623D01*
X141333274Y-77714071D01*
X141384125Y-77563805D01*
X141532715Y-78001955D01*
X141568910Y-78043230D01*
X141633680Y-78064185D01*
X141698450Y-78043230D01*
X141732105Y-78009575D01*
X141740995Y-77987985D01*
X141753736Y-77951155D01*
X142069925Y-77951155D01*
X142077545Y-78017195D01*
X142111200Y-78052437D01*
X142181685Y-78064185D01*
X142247090Y-78055613D01*
X142280745Y-78029895D01*
X142292810Y-77996240D01*
X142294715Y-77952425D01*
X142294715Y-77808915D01*
X142454735Y-77808915D01*
X142494105Y-77806375D01*
X142543494Y-77923356D01*
X142576514Y-77999979D01*
X142593165Y-78036245D01*
X142616660Y-78061010D01*
X142657300Y-78073075D01*
X142722705Y-78055295D01*
X142781760Y-78018465D01*
X142801445Y-77974015D01*
X142782395Y-77907975D01*
X142746835Y-77827118D01*
X142718048Y-77760655D01*
X142696035Y-77708585D01*
X142748952Y-77641134D01*
X142780702Y-77562394D01*
X142791285Y-77472365D01*
X142783030Y-77393625D01*
X142758265Y-77322505D01*
X142720800Y-77262180D01*
X142674445Y-77215825D01*
X142603466Y-77170669D01*
X142531076Y-77143576D01*
X142457275Y-77134545D01*
X142182955Y-77134545D01*
X142117550Y-77143118D01*
X142083895Y-77168835D01*
X142071830Y-77202490D01*
X142069925Y-77246305D01*
X142069925Y-77951155D01*
X141753736Y-77951155D01*
X141984835Y-77283135D01*
X142000075Y-77220905D01*
X141978803Y-77175185D01*
X141914985Y-77139625D01*
X141855295Y-77126925D01*
X141812750Y-77140260D01*
X141789255Y-77167565D01*
X141772745Y-77210745D01*
X141633045Y-77637465D01*
X141486995Y-77196775D01*
X141451435Y-77155500D01*
X141391110Y-77134545D01*
X141338405Y-77143435D01*
X141298718Y-77172010D01*
X141273635Y-77217095D01*
X141135205Y-77634925D01*
X140995505Y-77210745D01*
X140966930Y-77148515D01*
X140921210Y-77128195D01*
X140854535Y-77140895D01*
X140790718Y-77175502D01*
X140769445Y-77220905D01*
X140605719Y-77220905D01*
X140600535Y-77215825D01*
X140529556Y-77170669D01*
X140457166Y-77143576D01*
X140383365Y-77134545D01*
X140111585Y-77134545D01*
X140046180Y-77143118D01*
X140012525Y-77168835D01*
X140000460Y-77202490D01*
X139998555Y-77246305D01*
X139998555Y-77951155D01*
X139297135Y-77951155D01*
X139295082Y-77947730D01*
X139264131Y-77882290D01*
X139239743Y-77814131D01*
X139222154Y-77743910D01*
X139211532Y-77672303D01*
X139207980Y-77600000D01*
X139211532Y-77527697D01*
X139222154Y-77456090D01*
X139239743Y-77385869D01*
X139264131Y-77317710D01*
X139295082Y-77252270D01*
X139332298Y-77190179D01*
X139375421Y-77132035D01*
X139424035Y-77078397D01*
X139477673Y-77029782D01*
X139535817Y-76986660D01*
X139597909Y-76949443D01*
X139663349Y-76918493D01*
X139731507Y-76894105D01*
X139801728Y-76876516D01*
X139873335Y-76865894D01*
X139945638Y-76862342D01*
X139998555Y-76862342D01*
X142801445Y-76862342D01*
X142854362Y-76862342D01*
X142926665Y-76865894D01*
G37*
G36*
X142530935Y-77387910D02*
G01*
X142567765Y-77472365D01*
X142530935Y-77556185D01*
X142457275Y-77584125D01*
X142294715Y-77584125D01*
X142294715Y-77359335D01*
X142454735Y-77359335D01*
X142530935Y-77387910D01*
G37*
G36*
X140458295Y-77387910D02*
G01*
X140495125Y-77472365D01*
X140458295Y-77556185D01*
X140383365Y-77584125D01*
X140223345Y-77584125D01*
X140223345Y-77359335D01*
X140382095Y-77359335D01*
X140458295Y-77387910D01*
G37*
%TO.C,kibuzzard-65D4E052*%
G36*
X142757929Y-80457678D02*
G01*
X142830337Y-80468419D01*
X142901344Y-80486205D01*
X142970265Y-80510866D01*
X143036438Y-80542163D01*
X143099224Y-80579796D01*
X143158019Y-80623401D01*
X143212257Y-80672560D01*
X143261415Y-80726798D01*
X143305021Y-80785593D01*
X143342653Y-80848379D01*
X143373951Y-80914551D01*
X143398611Y-80983473D01*
X143416397Y-81054480D01*
X143427138Y-81126888D01*
X143430730Y-81200000D01*
X143427138Y-81273112D01*
X143416397Y-81345520D01*
X143398611Y-81416527D01*
X143373951Y-81485449D01*
X143342653Y-81551621D01*
X143305021Y-81614407D01*
X143261415Y-81673202D01*
X143212257Y-81727440D01*
X143158019Y-81776599D01*
X143099224Y-81820204D01*
X143036438Y-81857837D01*
X142970265Y-81889134D01*
X142901344Y-81913795D01*
X142830337Y-81931581D01*
X142757929Y-81942322D01*
X142684817Y-81945913D01*
X142631900Y-81945913D01*
X142278840Y-81945913D01*
X141730835Y-81945913D01*
X140279860Y-81945913D01*
X140168100Y-81945913D01*
X140115183Y-81945913D01*
X140042071Y-81942322D01*
X139969663Y-81931581D01*
X139898656Y-81913795D01*
X139829735Y-81889134D01*
X139763562Y-81857837D01*
X139700776Y-81820204D01*
X139641981Y-81776599D01*
X139587743Y-81727440D01*
X139538585Y-81673202D01*
X139494979Y-81614407D01*
X139457347Y-81551621D01*
X139456226Y-81549250D01*
X140168100Y-81549250D01*
X140175720Y-81615290D01*
X140209375Y-81650532D01*
X140279860Y-81662280D01*
X140345265Y-81653708D01*
X140378920Y-81627990D01*
X140390985Y-81594335D01*
X140391951Y-81572110D01*
X140938990Y-81572110D01*
X140957405Y-81615290D01*
X141012650Y-81653390D01*
X141080595Y-81674980D01*
X141121235Y-81662915D01*
X141144095Y-81639420D01*
X141163780Y-81602590D01*
X141229820Y-81465430D01*
X141581610Y-81465430D01*
X141647650Y-81602590D01*
X141667335Y-81640690D01*
X141690195Y-81664820D01*
X141730835Y-81676250D01*
X141798780Y-81654660D01*
X141854025Y-81615608D01*
X141872440Y-81572110D01*
X141850850Y-81507340D01*
X141701523Y-81198730D01*
X141923240Y-81198730D01*
X141927332Y-81287771D01*
X141939609Y-81370321D01*
X141960070Y-81446380D01*
X141987534Y-81510198D01*
X142021665Y-81564490D01*
X142066433Y-81610051D01*
X142125805Y-81647675D01*
X142197401Y-81672916D01*
X142278840Y-81681330D01*
X142359961Y-81673075D01*
X142430605Y-81648310D01*
X142488866Y-81610845D01*
X142532840Y-81564490D01*
X142576179Y-81491227D01*
X142607135Y-81406058D01*
X142625709Y-81308982D01*
X142631900Y-81200000D01*
X142627667Y-81116039D01*
X142614967Y-81035182D01*
X142593800Y-80957430D01*
X142567289Y-80893295D01*
X142533475Y-80838050D01*
X142489025Y-80791378D01*
X142430605Y-80752960D01*
X142359644Y-80727242D01*
X142277570Y-80718670D01*
X142195179Y-80727401D01*
X142123265Y-80753595D01*
X142064051Y-80792647D01*
X142019760Y-80839955D01*
X141984676Y-80901074D01*
X141953085Y-80981560D01*
X141936504Y-81045766D01*
X141926556Y-81118156D01*
X141923240Y-81198730D01*
X141701523Y-81198730D01*
X141507950Y-80798680D01*
X141466040Y-80749150D01*
X141406350Y-80732640D01*
X141346025Y-80750420D01*
X141303480Y-80797410D01*
X140960580Y-81507340D01*
X140938990Y-81572110D01*
X140391951Y-81572110D01*
X140392890Y-81550520D01*
X140392890Y-81407010D01*
X140551640Y-81407010D01*
X140626147Y-81397979D01*
X140698960Y-81370886D01*
X140770080Y-81325730D01*
X140817388Y-81279534D01*
X140855170Y-81219685D01*
X140879935Y-81149041D01*
X140888190Y-81070460D01*
X140879935Y-80991720D01*
X140855170Y-80920600D01*
X140817388Y-80860275D01*
X140770080Y-80813920D01*
X140699101Y-80768764D01*
X140626711Y-80741671D01*
X140552910Y-80732640D01*
X140281130Y-80732640D01*
X140215725Y-80741213D01*
X140182070Y-80766930D01*
X140170005Y-80800585D01*
X140168100Y-80844400D01*
X140168100Y-81549250D01*
X139456226Y-81549250D01*
X139426049Y-81485449D01*
X139401389Y-81416527D01*
X139383603Y-81345520D01*
X139372862Y-81273112D01*
X139369270Y-81200000D01*
X139372862Y-81126888D01*
X139383603Y-81054480D01*
X139401389Y-80983473D01*
X139426049Y-80914551D01*
X139457347Y-80848379D01*
X139494979Y-80785593D01*
X139538585Y-80726798D01*
X139587743Y-80672560D01*
X139641981Y-80623401D01*
X139700776Y-80579796D01*
X139763562Y-80542163D01*
X139829735Y-80510866D01*
X139898656Y-80486205D01*
X139969663Y-80468419D01*
X140042071Y-80457678D01*
X140115183Y-80454087D01*
X140168100Y-80454087D01*
X142631900Y-80454087D01*
X142684817Y-80454087D01*
X142757929Y-80457678D01*
G37*
G36*
X142334244Y-80959414D02*
G01*
X142374725Y-81007278D01*
X142399014Y-81087049D01*
X142407110Y-81198730D01*
X142407110Y-81206350D01*
X142398934Y-81315253D01*
X142374408Y-81393040D01*
X142333529Y-81439713D01*
X142276300Y-81455270D01*
X142220182Y-81439276D01*
X142180098Y-81391294D01*
X142156047Y-81311323D01*
X142148030Y-81199365D01*
X142156126Y-81087407D01*
X142180415Y-81007436D01*
X142220896Y-80959454D01*
X142277570Y-80943460D01*
X142334244Y-80959414D01*
G37*
G36*
X140627840Y-80986005D02*
G01*
X140664670Y-81070460D01*
X140627840Y-81154280D01*
X140552910Y-81182220D01*
X140392890Y-81182220D01*
X140392890Y-80957430D01*
X140551640Y-80957430D01*
X140627840Y-80986005D01*
G37*
G36*
X141490170Y-81277470D02*
G01*
X141321260Y-81277470D01*
X141405080Y-81103480D01*
X141490170Y-81277470D01*
G37*
%TO.C,kibuzzard-65D4E002*%
G36*
X153782334Y-69808104D02*
G01*
X153898595Y-69825350D01*
X154012605Y-69853908D01*
X154123268Y-69893504D01*
X154229516Y-69943756D01*
X154330328Y-70004180D01*
X154424731Y-70074194D01*
X154511818Y-70153124D01*
X154590748Y-70240211D01*
X154660762Y-70334614D01*
X154721186Y-70435426D01*
X154771438Y-70541674D01*
X154811034Y-70652337D01*
X154839592Y-70766348D01*
X154856838Y-70882609D01*
X154862605Y-71000000D01*
X154856838Y-71117391D01*
X154839592Y-71233652D01*
X154811034Y-71347663D01*
X154771438Y-71458326D01*
X154721186Y-71564574D01*
X154660762Y-71665386D01*
X154590748Y-71759789D01*
X154511818Y-71846876D01*
X154424731Y-71925806D01*
X154330328Y-71995820D01*
X154229516Y-72056244D01*
X154123268Y-72106496D01*
X154012605Y-72146092D01*
X153898595Y-72174650D01*
X153782334Y-72191896D01*
X153664942Y-72197663D01*
X153578952Y-72197663D01*
X153395279Y-72197663D01*
X152560492Y-72197663D01*
X150202657Y-72197663D01*
X150021047Y-72197663D01*
X149935058Y-72197663D01*
X149817666Y-72191896D01*
X149701405Y-72174650D01*
X149587395Y-72146092D01*
X149476732Y-72106496D01*
X149370484Y-72056244D01*
X149269672Y-71995820D01*
X149175269Y-71925806D01*
X149088182Y-71846876D01*
X149009252Y-71759789D01*
X148939238Y-71665386D01*
X148878814Y-71564574D01*
X148877284Y-71561340D01*
X150021047Y-71561340D01*
X150033430Y-71668655D01*
X150088119Y-71725924D01*
X150202657Y-71745014D01*
X150308941Y-71731083D01*
X150363630Y-71689293D01*
X150383236Y-71634603D01*
X150384806Y-71598488D01*
X151273744Y-71598488D01*
X151303668Y-71668655D01*
X151393441Y-71730568D01*
X151503852Y-71765651D01*
X151569892Y-71746046D01*
X151607039Y-71707866D01*
X151639027Y-71648018D01*
X151746342Y-71425133D01*
X152318001Y-71425133D01*
X152425316Y-71648018D01*
X152457304Y-71709930D01*
X152494452Y-71749141D01*
X152560492Y-71767715D01*
X152670902Y-71732631D01*
X152760676Y-71669171D01*
X152790600Y-71598488D01*
X152755516Y-71493236D01*
X152380047Y-70717266D01*
X152852512Y-70717266D01*
X152917521Y-70845219D01*
X153042377Y-70917450D01*
X153186840Y-70853474D01*
X153213669Y-70828709D01*
X153213669Y-71565467D01*
X153216764Y-71640794D01*
X153236370Y-71697548D01*
X153291575Y-71737791D01*
X153395279Y-71751205D01*
X153501562Y-71737275D01*
X153556251Y-71695484D01*
X153575857Y-71640794D01*
X153578952Y-71569595D01*
X153578952Y-70420086D01*
X153568634Y-70310707D01*
X153539741Y-70266337D01*
X153486084Y-70242604D01*
X153388056Y-70232285D01*
X153271454Y-70285942D01*
X153265262Y-70290070D01*
X152926807Y-70595505D01*
X152852512Y-70717266D01*
X152380047Y-70717266D01*
X152198304Y-70341664D01*
X152130200Y-70261178D01*
X152033204Y-70234349D01*
X151935176Y-70263241D01*
X151866040Y-70339600D01*
X151308827Y-71493236D01*
X151273744Y-71598488D01*
X150384806Y-71598488D01*
X150386331Y-71563404D01*
X150386331Y-71330200D01*
X150644300Y-71330200D01*
X150765373Y-71315524D01*
X150883695Y-71271498D01*
X150999265Y-71198120D01*
X151076140Y-71123051D01*
X151137536Y-71025797D01*
X151177779Y-70911001D01*
X151191194Y-70783306D01*
X151177779Y-70655354D01*
X151137536Y-70539784D01*
X151076140Y-70441756D01*
X150999265Y-70366429D01*
X150883924Y-70293051D01*
X150766291Y-70249024D01*
X150646364Y-70234349D01*
X150204721Y-70234349D01*
X150098438Y-70248279D01*
X150043749Y-70290070D01*
X150024143Y-70344759D01*
X150021047Y-70415959D01*
X150021047Y-71561340D01*
X148877284Y-71561340D01*
X148828562Y-71458326D01*
X148788966Y-71347663D01*
X148760408Y-71233652D01*
X148743162Y-71117391D01*
X148737395Y-71000000D01*
X148743162Y-70882609D01*
X148760408Y-70766348D01*
X148788966Y-70652337D01*
X148828562Y-70541674D01*
X148878814Y-70435426D01*
X148939238Y-70334614D01*
X149009252Y-70240211D01*
X149088182Y-70153124D01*
X149175269Y-70074194D01*
X149269672Y-70004180D01*
X149370484Y-69943756D01*
X149476732Y-69893504D01*
X149587395Y-69853908D01*
X149701405Y-69825350D01*
X149817666Y-69808104D01*
X149935058Y-69802337D01*
X150021047Y-69802337D01*
X153578952Y-69802337D01*
X153664942Y-69802337D01*
X153782334Y-69808104D01*
G37*
G36*
X150768125Y-70646067D02*
G01*
X150827974Y-70783306D01*
X150768125Y-70919514D01*
X150646364Y-70964916D01*
X150386331Y-70964916D01*
X150386331Y-70599633D01*
X150644300Y-70599633D01*
X150768125Y-70646067D01*
G37*
G36*
X152169411Y-71119698D02*
G01*
X151894932Y-71119698D01*
X152031140Y-70836964D01*
X152169411Y-71119698D01*
G37*
%TO.C,kibuzzard-65D4DFF8*%
G36*
X146548371Y-69806050D02*
G01*
X146664832Y-69823326D01*
X146779039Y-69851933D01*
X146889893Y-69891597D01*
X146996324Y-69941936D01*
X147097309Y-70002464D01*
X147191876Y-70072599D01*
X147279112Y-70151665D01*
X147358178Y-70238901D01*
X147428313Y-70333468D01*
X147488842Y-70434453D01*
X147539180Y-70540884D01*
X147578844Y-70651738D01*
X147607451Y-70765945D01*
X147624727Y-70882406D01*
X147630504Y-71000000D01*
X147624727Y-71117594D01*
X147607451Y-71234055D01*
X147578844Y-71348262D01*
X147539180Y-71459116D01*
X147488842Y-71565547D01*
X147428313Y-71666532D01*
X147358178Y-71761099D01*
X147279112Y-71848335D01*
X147191876Y-71927401D01*
X147097309Y-71997536D01*
X146996324Y-72058064D01*
X146889893Y-72108403D01*
X146779039Y-72148067D01*
X146664832Y-72176674D01*
X146548371Y-72193950D01*
X146430777Y-72199727D01*
X146344787Y-72199727D01*
X146107456Y-72199727D01*
X144904290Y-72199727D01*
X143731048Y-72199727D01*
X142712587Y-72199727D01*
X141809697Y-72199727D01*
X140855212Y-72199727D01*
X140769223Y-72199727D01*
X140651629Y-72193950D01*
X140535168Y-72176674D01*
X140420961Y-72148067D01*
X140310107Y-72108403D01*
X140203676Y-72058064D01*
X140102690Y-71997536D01*
X140008124Y-71927401D01*
X139920888Y-71848335D01*
X139841822Y-71761099D01*
X139771687Y-71666532D01*
X139711158Y-71565547D01*
X139707216Y-71557212D01*
X140855212Y-71557212D01*
X140867595Y-71664528D01*
X140922284Y-71721797D01*
X141036822Y-71740886D01*
X141143106Y-71726956D01*
X141197795Y-71685165D01*
X141217401Y-71630476D01*
X141220496Y-71559276D01*
X141220496Y-71326073D01*
X141480529Y-71326073D01*
X141544505Y-71321945D01*
X141624762Y-71512039D01*
X141678419Y-71636552D01*
X141705477Y-71695484D01*
X141743657Y-71735727D01*
X141809697Y-71755332D01*
X141915980Y-71726440D01*
X142011944Y-71666591D01*
X142043932Y-71594360D01*
X142012976Y-71487045D01*
X141955191Y-71355653D01*
X141908413Y-71247650D01*
X141890091Y-71204311D01*
X142126482Y-71204311D01*
X142140929Y-71337538D01*
X142184267Y-71462051D01*
X142256499Y-71577850D01*
X142335695Y-71656015D01*
X142441204Y-71717153D01*
X142568383Y-71756622D01*
X142712587Y-71769779D01*
X142904903Y-71758299D01*
X143042272Y-71723860D01*
X143124693Y-71666462D01*
X143152166Y-71586105D01*
X143146917Y-71567531D01*
X143309011Y-71567531D01*
X143348222Y-71645954D01*
X143472391Y-71710159D01*
X143600000Y-71748683D01*
X143731048Y-71761524D01*
X143856364Y-71754415D01*
X143966774Y-71733090D01*
X144062280Y-71697548D01*
X144174754Y-71585073D01*
X144204937Y-71501749D01*
X144214997Y-71402431D01*
X144204937Y-71304145D01*
X144174754Y-71223917D01*
X144155148Y-71204311D01*
X144318185Y-71204311D01*
X144332631Y-71337538D01*
X144375970Y-71462051D01*
X144448201Y-71577850D01*
X144527398Y-71656015D01*
X144632907Y-71717153D01*
X144760085Y-71756622D01*
X144904290Y-71769779D01*
X145096606Y-71758299D01*
X145233974Y-71723860D01*
X145316395Y-71666462D01*
X145343869Y-71586105D01*
X145317040Y-71491172D01*
X145203534Y-71398304D01*
X145120984Y-71421005D01*
X145098282Y-71429260D01*
X145017280Y-71447834D01*
X144910481Y-71454025D01*
X144774274Y-71414814D01*
X144706170Y-71317818D01*
X145195279Y-71317818D01*
X145334582Y-71256937D01*
X145381790Y-71179546D01*
X145397526Y-71069136D01*
X145379984Y-70947116D01*
X145340908Y-70863792D01*
X145480076Y-70863792D01*
X145510001Y-70983490D01*
X145585327Y-71018574D01*
X145669941Y-71012382D01*
X145669941Y-71317818D01*
X145682324Y-71457006D01*
X145719471Y-71566385D01*
X145781384Y-71645954D01*
X145867144Y-71699841D01*
X145975835Y-71732173D01*
X146107456Y-71742950D01*
X146176592Y-71739854D01*
X146231281Y-71722313D01*
X146274620Y-71668139D01*
X146289066Y-71563404D01*
X146241600Y-71425132D01*
X146186911Y-71405527D01*
X146112616Y-71402431D01*
X146046576Y-71377666D01*
X146029034Y-71297180D01*
X146029034Y-71012382D01*
X146163177Y-71020637D01*
X146234377Y-71017542D01*
X146289066Y-71000000D01*
X146330857Y-70945827D01*
X146344787Y-70841091D01*
X146331373Y-70735324D01*
X146291130Y-70682182D01*
X146236441Y-70662577D01*
X146166273Y-70659481D01*
X146029034Y-70667736D01*
X146029034Y-70465489D01*
X146018715Y-70360237D01*
X145963510Y-70302968D01*
X145851551Y-70283879D01*
X145745784Y-70296777D01*
X145692642Y-70335472D01*
X145673037Y-70385002D01*
X145669941Y-70455170D01*
X145669941Y-70667736D01*
X145601837Y-70659481D01*
X145519287Y-70686310D01*
X145490395Y-70740999D01*
X145480076Y-70863792D01*
X145340908Y-70863792D01*
X145327359Y-70834900D01*
X145250742Y-70746417D01*
X145155036Y-70683214D01*
X145040240Y-70645293D01*
X144906354Y-70632652D01*
X144747789Y-70649965D01*
X144607798Y-70701903D01*
X144486381Y-70788466D01*
X144392939Y-70903921D01*
X144336873Y-71042536D01*
X144318185Y-71204311D01*
X144155148Y-71204311D01*
X144074662Y-71123825D01*
X143944646Y-71072231D01*
X143810502Y-71045402D01*
X143705251Y-71015994D01*
X143670167Y-70964916D01*
X143791929Y-70919514D01*
X143937423Y-70950470D01*
X144029260Y-70981426D01*
X144122129Y-70909195D01*
X144167531Y-70787434D01*
X144095300Y-70704884D01*
X143942582Y-70652258D01*
X143793992Y-70634716D01*
X143632772Y-70647759D01*
X143507379Y-70686888D01*
X143417812Y-70752102D01*
X143364072Y-70843403D01*
X143346159Y-70960789D01*
X143355962Y-71062686D01*
X143385370Y-71149622D01*
X143484430Y-71266224D01*
X143612898Y-71329684D01*
X143742399Y-71363220D01*
X143846102Y-71386953D01*
X143880670Y-71421005D01*
X143849198Y-71458153D01*
X143754781Y-71470535D01*
X143597936Y-71419973D01*
X143460697Y-71369411D01*
X143387434Y-71404495D01*
X143328617Y-71499943D01*
X143309011Y-71567531D01*
X143146917Y-71567531D01*
X143125337Y-71491172D01*
X143011831Y-71398304D01*
X142929281Y-71421005D01*
X142906580Y-71429260D01*
X142825578Y-71447834D01*
X142718779Y-71454025D01*
X142582571Y-71414814D01*
X142514467Y-71317818D01*
X143003576Y-71317818D01*
X143142879Y-71256937D01*
X143190088Y-71179546D01*
X143205824Y-71069136D01*
X143188282Y-70947116D01*
X143135656Y-70834900D01*
X143059040Y-70746417D01*
X142963333Y-70683214D01*
X142848537Y-70645293D01*
X142714651Y-70632652D01*
X142556086Y-70649965D01*
X142416095Y-70701903D01*
X142294678Y-70788466D01*
X142201236Y-70903921D01*
X142145171Y-71042536D01*
X142126482Y-71204311D01*
X141890091Y-71204311D01*
X141872641Y-71163036D01*
X141958631Y-71053428D01*
X142010225Y-70925476D01*
X142027422Y-70779179D01*
X142014008Y-70651226D01*
X141973765Y-70535656D01*
X141912884Y-70437628D01*
X141837557Y-70362301D01*
X141722217Y-70288923D01*
X141604583Y-70244897D01*
X141484656Y-70230221D01*
X141038886Y-70230221D01*
X140932603Y-70244152D01*
X140877914Y-70285942D01*
X140858308Y-70340632D01*
X140855212Y-70411831D01*
X140855212Y-71557212D01*
X139707216Y-71557212D01*
X139660820Y-71459116D01*
X139621156Y-71348262D01*
X139592549Y-71234055D01*
X139575273Y-71117594D01*
X139569496Y-71000000D01*
X139575273Y-70882406D01*
X139592549Y-70765945D01*
X139621156Y-70651738D01*
X139660820Y-70540884D01*
X139711158Y-70434453D01*
X139771687Y-70333468D01*
X139841822Y-70238901D01*
X139920888Y-70151665D01*
X140008124Y-70072599D01*
X140102690Y-70002464D01*
X140203676Y-69941936D01*
X140310107Y-69891597D01*
X140420961Y-69851933D01*
X140535168Y-69823326D01*
X140651629Y-69806050D01*
X140769223Y-69800273D01*
X140855212Y-69800273D01*
X146344787Y-69800273D01*
X146430777Y-69800273D01*
X146548371Y-69806050D01*
G37*
G36*
X141604354Y-70641939D02*
G01*
X141664202Y-70779179D01*
X141604354Y-70915386D01*
X141484656Y-70960789D01*
X141220496Y-70960789D01*
X141220496Y-70595505D01*
X141480529Y-70595505D01*
X141604354Y-70641939D01*
G37*
G36*
X142812679Y-70987617D02*
G01*
X142848795Y-71063976D01*
X142770372Y-71130016D01*
X142510340Y-71130016D01*
X142576380Y-71013414D01*
X142709492Y-70958725D01*
X142812679Y-70987617D01*
G37*
G36*
X145004382Y-70987617D02*
G01*
X145040497Y-71063976D01*
X144962075Y-71130016D01*
X144702042Y-71130016D01*
X144768082Y-71013414D01*
X144901194Y-70958725D01*
X145004382Y-70987617D01*
G37*
%TO.C,kibuzzard-65D4DFBF*%
G36*
X155561034Y-94793727D02*
G01*
X155678697Y-94811181D01*
X155794083Y-94840084D01*
X155906081Y-94880157D01*
X156013611Y-94931015D01*
X156115638Y-94992168D01*
X156211180Y-95063027D01*
X156299317Y-95142909D01*
X156379200Y-95231046D01*
X156450058Y-95326588D01*
X156511211Y-95428616D01*
X156562069Y-95536146D01*
X156602143Y-95648143D01*
X156631045Y-95763529D01*
X156648499Y-95881193D01*
X156654336Y-96000000D01*
X156648499Y-96118807D01*
X156631045Y-96236471D01*
X156602143Y-96351857D01*
X156562069Y-96463854D01*
X156511211Y-96571384D01*
X156450058Y-96673412D01*
X156379200Y-96768954D01*
X156299317Y-96857091D01*
X156211180Y-96936973D01*
X156115638Y-97007832D01*
X156013611Y-97068985D01*
X155906081Y-97119843D01*
X155794083Y-97159916D01*
X155678697Y-97188819D01*
X155561034Y-97206273D01*
X155442226Y-97212109D01*
X155356237Y-97212109D01*
X154731952Y-97212109D01*
X153525691Y-97212109D01*
X152076938Y-97212109D01*
X150281476Y-97212109D01*
X149032907Y-97212109D01*
X148137239Y-97212109D01*
X146766909Y-97212109D01*
X145730907Y-97212109D01*
X144059269Y-97212109D01*
X143169793Y-97212109D01*
X141433147Y-97212109D01*
X140643763Y-97212109D01*
X140557774Y-97212109D01*
X140438966Y-97206273D01*
X140321303Y-97188819D01*
X140205917Y-97159916D01*
X140093919Y-97119843D01*
X139986389Y-97068985D01*
X139884362Y-97007832D01*
X139788820Y-96936973D01*
X139700683Y-96857091D01*
X139620800Y-96768954D01*
X139549942Y-96673412D01*
X139488789Y-96571384D01*
X139437931Y-96463854D01*
X139397857Y-96351857D01*
X139368955Y-96236471D01*
X139351501Y-96118807D01*
X139345664Y-96000000D01*
X139346171Y-95989681D01*
X140643763Y-95989681D01*
X140657435Y-96144720D01*
X140698452Y-96287893D01*
X140760623Y-96412750D01*
X140837756Y-96512842D01*
X140927787Y-96593844D01*
X141028652Y-96661432D01*
X141133388Y-96713542D01*
X141235027Y-96748109D01*
X141334603Y-96767457D01*
X141433147Y-96773906D01*
X141532981Y-96765651D01*
X141636427Y-96740886D01*
X141775730Y-96687229D01*
X141846929Y-96643890D01*
X141911937Y-96592296D01*
X141921489Y-96567531D01*
X142076006Y-96567531D01*
X142088388Y-96674846D01*
X142143077Y-96732115D01*
X142257616Y-96751205D01*
X142363899Y-96737275D01*
X142418588Y-96695484D01*
X142438194Y-96640794D01*
X142441289Y-96569595D01*
X142441289Y-96148590D01*
X142988183Y-96148590D01*
X142988183Y-96567531D01*
X143000566Y-96674846D01*
X143055255Y-96732115D01*
X143169793Y-96751205D01*
X143276076Y-96737275D01*
X143330766Y-96695484D01*
X143350371Y-96640794D01*
X143353467Y-96569595D01*
X143353467Y-96303371D01*
X143487611Y-96303371D01*
X143510312Y-96414814D01*
X143514439Y-96435451D01*
X143537141Y-96489109D01*
X143588218Y-96571143D01*
X143646519Y-96635635D01*
X143765758Y-96715892D01*
X143903342Y-96764046D01*
X144059269Y-96780098D01*
X144216344Y-96764161D01*
X144354615Y-96716351D01*
X144474083Y-96636667D01*
X144531296Y-96571659D01*
X144742371Y-96571659D01*
X144796028Y-96701675D01*
X144923981Y-96757396D01*
X145730907Y-96757396D01*
X145858859Y-96732631D01*
X145903230Y-96678974D01*
X145916644Y-96574754D01*
X145904262Y-96469503D01*
X145855764Y-96409654D01*
X145735034Y-96390049D01*
X145357368Y-96390049D01*
X145357368Y-96379730D01*
X145408962Y-96359093D01*
X145536914Y-96289441D01*
X145681377Y-96175419D01*
X145748449Y-96101124D01*
X145805202Y-96006191D01*
X145843897Y-95897844D01*
X145856796Y-95783306D01*
X145839598Y-95641481D01*
X145788004Y-95510433D01*
X145705703Y-95395321D01*
X145978557Y-95395321D01*
X146009513Y-95494381D01*
X146579108Y-96650081D01*
X146648244Y-96723344D01*
X146746272Y-96751205D01*
X146766909Y-96751205D01*
X146862874Y-96723344D01*
X146932009Y-96650081D01*
X147388702Y-95723458D01*
X147594473Y-95723458D01*
X147659481Y-95851410D01*
X147784338Y-95923641D01*
X147928801Y-95859665D01*
X147955629Y-95834900D01*
X147955629Y-96571659D01*
X147958725Y-96646986D01*
X147978331Y-96703739D01*
X148033536Y-96743982D01*
X148137239Y-96757396D01*
X148243522Y-96743466D01*
X148298212Y-96701675D01*
X148317817Y-96646986D01*
X148320913Y-96575786D01*
X148320913Y-95997936D01*
X148455057Y-95997936D01*
X148461707Y-96142628D01*
X148481656Y-96276772D01*
X148514906Y-96400368D01*
X148559534Y-96504071D01*
X148614997Y-96592296D01*
X148687745Y-96666333D01*
X148784225Y-96727472D01*
X148900569Y-96768489D01*
X149032907Y-96782161D01*
X149164729Y-96768747D01*
X149279525Y-96728504D01*
X149374200Y-96667623D01*
X149445657Y-96592296D01*
X149516082Y-96473244D01*
X149566386Y-96334843D01*
X149572408Y-96303371D01*
X149709817Y-96303371D01*
X149732518Y-96414814D01*
X149736646Y-96435451D01*
X149759347Y-96489109D01*
X149810425Y-96571143D01*
X149868726Y-96635635D01*
X149987965Y-96715892D01*
X150125548Y-96764046D01*
X150281476Y-96780098D01*
X150438550Y-96764161D01*
X150576821Y-96716351D01*
X150696289Y-96636667D01*
X150757135Y-96567531D01*
X151517662Y-96567531D01*
X151542427Y-96699611D01*
X151597116Y-96738307D01*
X151699272Y-96751205D01*
X152076938Y-96751205D01*
X152228946Y-96737146D01*
X152369217Y-96694968D01*
X152497750Y-96624671D01*
X152614545Y-96526256D01*
X152711606Y-96408171D01*
X152780935Y-96278864D01*
X152799949Y-96214630D01*
X152939586Y-96214630D01*
X152954032Y-96347857D01*
X152997371Y-96472369D01*
X153069602Y-96588169D01*
X153148798Y-96666333D01*
X153254307Y-96727472D01*
X153381486Y-96766941D01*
X153525691Y-96780098D01*
X153718006Y-96768618D01*
X153855375Y-96734179D01*
X153937796Y-96676781D01*
X153965269Y-96596424D01*
X153938441Y-96501491D01*
X153824934Y-96408623D01*
X153742384Y-96431324D01*
X153719683Y-96439579D01*
X153638681Y-96458153D01*
X153531882Y-96464344D01*
X153395674Y-96425133D01*
X153327571Y-96328136D01*
X153816679Y-96328136D01*
X153955982Y-96267256D01*
X154003191Y-96189865D01*
X154018927Y-96079454D01*
X154001385Y-95957435D01*
X153948759Y-95845219D01*
X153934463Y-95828709D01*
X154101477Y-95828709D01*
X154142752Y-95940151D01*
X154572012Y-96674846D01*
X154590586Y-96697548D01*
X154647339Y-96741918D01*
X154731952Y-96763588D01*
X154821726Y-96735727D01*
X154887766Y-96672783D01*
X155314962Y-95940151D01*
X155356237Y-95826645D01*
X155329408Y-95756478D01*
X155248922Y-95690438D01*
X155135416Y-95647099D01*
X155069376Y-95664641D01*
X155033260Y-95699724D01*
X154999208Y-95756478D01*
X154728857Y-96276543D01*
X154458506Y-95756478D01*
X154403816Y-95672896D01*
X154332617Y-95645035D01*
X154208792Y-95690438D01*
X154128306Y-95756993D01*
X154101477Y-95828709D01*
X153934463Y-95828709D01*
X153872143Y-95756735D01*
X153776436Y-95693533D01*
X153661640Y-95655612D01*
X153527754Y-95642971D01*
X153369190Y-95660284D01*
X153229199Y-95712222D01*
X153107781Y-95798784D01*
X153014339Y-95914240D01*
X152958274Y-96052855D01*
X152939586Y-96214630D01*
X152799949Y-96214630D01*
X152822532Y-96138336D01*
X152836398Y-95986586D01*
X152822210Y-95835416D01*
X152779645Y-95696629D01*
X152708704Y-95570224D01*
X152609386Y-95456202D01*
X152491365Y-95361850D01*
X152364315Y-95294455D01*
X152228237Y-95254019D01*
X152083129Y-95240540D01*
X151701336Y-95238476D01*
X151595052Y-95252407D01*
X151540363Y-95294198D01*
X151520757Y-95347855D01*
X151517662Y-95420086D01*
X151517662Y-96567531D01*
X150757135Y-96567531D01*
X150788012Y-96532448D01*
X150843045Y-96411030D01*
X150861389Y-96272415D01*
X150844363Y-96167164D01*
X150793286Y-96074295D01*
X150728277Y-96007223D01*
X150667397Y-95962853D01*
X150667397Y-95948406D01*
X150756826Y-95883627D01*
X150810484Y-95796606D01*
X150828369Y-95687342D01*
X150812089Y-95570969D01*
X150763247Y-95462622D01*
X150681843Y-95362301D01*
X150572235Y-95282044D01*
X150438779Y-95233890D01*
X150281476Y-95217839D01*
X150179062Y-95225062D01*
X150086451Y-95246731D01*
X149950244Y-95310708D01*
X149864598Y-95392226D01*
X149819196Y-95457234D01*
X149771729Y-95597569D01*
X149797526Y-95671348D01*
X149874917Y-95735840D01*
X149988423Y-95772988D01*
X150066846Y-95747191D01*
X150124631Y-95669800D01*
X150137013Y-95645035D01*
X150190671Y-95595505D01*
X150307272Y-95570740D01*
X150421811Y-95609951D01*
X150463086Y-95692501D01*
X150423874Y-95752866D01*
X150306241Y-95772988D01*
X150198926Y-95783306D01*
X150141657Y-95839543D01*
X150122567Y-95954598D01*
X150136497Y-96060365D01*
X150178288Y-96113506D01*
X150231946Y-96134144D01*
X150325846Y-96138271D01*
X150445544Y-96180578D01*
X150496106Y-96278606D01*
X150444512Y-96378698D01*
X150378472Y-96411976D01*
X150283539Y-96423069D01*
X150196862Y-96410686D01*
X150083356Y-96311626D01*
X150021443Y-96204311D01*
X149912064Y-96183674D01*
X149760379Y-96213598D01*
X149709817Y-96303371D01*
X149572408Y-96303371D01*
X149596569Y-96177096D01*
X149606629Y-96000000D01*
X149599750Y-95863563D01*
X149579113Y-95732171D01*
X149544717Y-95605824D01*
X149501636Y-95501604D01*
X149446689Y-95411831D01*
X149374457Y-95335988D01*
X149279525Y-95273560D01*
X149164213Y-95231769D01*
X149030843Y-95217839D01*
X148896957Y-95232027D01*
X148780097Y-95274592D01*
X148683875Y-95338052D01*
X148611902Y-95414927D01*
X148554891Y-95514245D01*
X148503555Y-95645035D01*
X148476612Y-95749369D01*
X148460446Y-95867003D01*
X148455057Y-95997936D01*
X148320913Y-95997936D01*
X148320913Y-95426278D01*
X148310594Y-95316899D01*
X148281702Y-95272528D01*
X148228044Y-95248795D01*
X148130016Y-95238476D01*
X148013414Y-95292134D01*
X148007223Y-95296261D01*
X147668768Y-95601696D01*
X147594473Y-95723458D01*
X147388702Y-95723458D01*
X147501604Y-95494381D01*
X147532561Y-95395321D01*
X147502120Y-95326186D01*
X147410799Y-95263241D01*
X147289038Y-95228157D01*
X147198233Y-95283879D01*
X147169341Y-95345791D01*
X146756591Y-96249714D01*
X146734147Y-96201990D01*
X146683327Y-96091837D01*
X146616256Y-95946085D01*
X146545056Y-95791561D01*
X146474115Y-95637038D01*
X146407817Y-95491286D01*
X146355965Y-95377779D01*
X146328362Y-95319994D01*
X146294311Y-95265305D01*
X146259227Y-95236412D01*
X146204537Y-95228157D01*
X146100318Y-95263241D01*
X146008997Y-95326186D01*
X145978557Y-95395321D01*
X145705703Y-95395321D01*
X145702014Y-95390162D01*
X145588393Y-95294427D01*
X145453906Y-95236986D01*
X145298551Y-95217839D01*
X145143311Y-95236756D01*
X145009168Y-95293510D01*
X144896120Y-95388098D01*
X144810704Y-95506534D01*
X144759454Y-95634831D01*
X144742371Y-95772988D01*
X144752689Y-95878239D01*
X144808927Y-95937056D01*
X144923981Y-95956661D01*
X145029232Y-95944279D01*
X145084953Y-95907131D01*
X145104559Y-95855538D01*
X145107654Y-95787434D01*
X145107654Y-95775051D01*
X145115909Y-95727585D01*
X145170599Y-95631621D01*
X145285137Y-95583123D01*
X145388324Y-95601696D01*
X145443014Y-95641939D01*
X145475002Y-95697661D01*
X145489448Y-95750286D01*
X145470100Y-95840575D01*
X145412057Y-95925705D01*
X145326670Y-96003870D01*
X145225288Y-96073263D01*
X145115909Y-96138787D01*
X145006531Y-96205343D01*
X144905149Y-96279122D01*
X144819761Y-96366316D01*
X144761718Y-96464602D01*
X144742371Y-96571659D01*
X144531296Y-96571659D01*
X144565805Y-96532448D01*
X144620839Y-96411030D01*
X144639183Y-96272415D01*
X144622157Y-96167164D01*
X144571079Y-96074295D01*
X144506071Y-96007223D01*
X144445191Y-95962853D01*
X144445191Y-95948406D01*
X144534620Y-95883627D01*
X144588277Y-95796606D01*
X144606163Y-95687342D01*
X144589882Y-95570969D01*
X144541040Y-95462622D01*
X144459637Y-95362301D01*
X144350029Y-95282044D01*
X144216573Y-95233890D01*
X144059269Y-95217839D01*
X143956856Y-95225062D01*
X143864245Y-95246731D01*
X143728037Y-95310708D01*
X143642392Y-95392226D01*
X143596989Y-95457234D01*
X143549523Y-95597569D01*
X143575320Y-95671348D01*
X143652711Y-95735840D01*
X143766217Y-95772988D01*
X143844639Y-95747191D01*
X143902424Y-95669800D01*
X143914807Y-95645035D01*
X143968464Y-95595505D01*
X144085066Y-95570740D01*
X144199604Y-95609951D01*
X144240879Y-95692501D01*
X144201668Y-95752866D01*
X144084034Y-95772988D01*
X143976719Y-95783306D01*
X143919450Y-95839543D01*
X143900361Y-95954598D01*
X143914291Y-96060365D01*
X143956082Y-96113506D01*
X144009739Y-96134144D01*
X144103640Y-96138271D01*
X144223337Y-96180578D01*
X144273899Y-96278606D01*
X144222306Y-96378698D01*
X144156266Y-96411976D01*
X144061333Y-96423069D01*
X143974656Y-96410686D01*
X143861149Y-96311626D01*
X143799237Y-96204311D01*
X143689858Y-96183674D01*
X143538172Y-96213598D01*
X143487611Y-96303371D01*
X143353467Y-96303371D01*
X143353467Y-95424214D01*
X143343148Y-95316899D01*
X143314256Y-95275624D01*
X143260598Y-95250859D01*
X143165666Y-95240540D01*
X143066606Y-95252922D01*
X143010884Y-95296261D01*
X142991279Y-95350951D01*
X142988183Y-95422150D01*
X142988183Y-95845219D01*
X142441289Y-95845219D01*
X142441289Y-95424214D01*
X142430971Y-95316899D01*
X142374733Y-95259630D01*
X142259679Y-95240540D01*
X142153396Y-95254470D01*
X142098707Y-95296261D01*
X142079101Y-95350951D01*
X142076006Y-95422150D01*
X142076006Y-96567531D01*
X141921489Y-96567531D01*
X141939798Y-96520065D01*
X141894396Y-96404495D01*
X141822680Y-96317818D01*
X141756124Y-96288925D01*
X141657064Y-96330200D01*
X141619917Y-96357029D01*
X141538399Y-96390049D01*
X141417669Y-96406559D01*
X141284042Y-96383858D01*
X141155573Y-96315754D01*
X141050322Y-96185738D01*
X141019366Y-96097770D01*
X141009047Y-95998968D01*
X141019366Y-95900166D01*
X141050322Y-95812199D01*
X141153509Y-95684246D01*
X141284557Y-95614595D01*
X141417669Y-95591378D01*
X141547686Y-95608919D01*
X141648809Y-95661545D01*
X141754061Y-95706947D01*
X141822164Y-95679087D01*
X141898523Y-95595505D01*
X141941862Y-95480967D01*
X141888204Y-95382939D01*
X141830419Y-95345791D01*
X141780889Y-95316899D01*
X141629204Y-95256018D01*
X141529886Y-95233575D01*
X141432116Y-95226094D01*
X141296137Y-95238476D01*
X141160618Y-95275624D01*
X141025557Y-95337536D01*
X140924175Y-95402286D01*
X140834660Y-95480967D01*
X140758559Y-95577963D01*
X140697421Y-95697661D01*
X140657177Y-95836190D01*
X140643763Y-95989681D01*
X139346171Y-95989681D01*
X139351501Y-95881193D01*
X139368955Y-95763529D01*
X139397857Y-95648143D01*
X139437931Y-95536146D01*
X139488789Y-95428616D01*
X139549942Y-95326588D01*
X139620800Y-95231046D01*
X139700683Y-95142909D01*
X139788820Y-95063027D01*
X139884362Y-94992168D01*
X139986389Y-94931015D01*
X140093919Y-94880157D01*
X140205917Y-94840084D01*
X140321303Y-94811181D01*
X140438966Y-94793727D01*
X140557774Y-94787891D01*
X140643763Y-94787891D01*
X155356237Y-94787891D01*
X155442226Y-94787891D01*
X155561034Y-94793727D01*
G37*
G36*
X152227850Y-95633942D02*
G01*
X152354512Y-95718298D01*
X152441964Y-95844445D01*
X152471114Y-95997936D01*
X152441190Y-96150912D01*
X152351417Y-96275511D01*
X152224496Y-96358319D01*
X152083129Y-96385921D01*
X151882946Y-96385921D01*
X151882946Y-95605824D01*
X152081066Y-95605824D01*
X152227850Y-95633942D01*
G37*
G36*
X149122938Y-95609048D02*
G01*
X149188720Y-95686826D01*
X149228189Y-95816455D01*
X149241346Y-95997936D01*
X149241346Y-96010319D01*
X149228060Y-96187285D01*
X149188204Y-96313690D01*
X149121777Y-96389533D01*
X149028779Y-96414814D01*
X148937587Y-96388823D01*
X148872450Y-96310852D01*
X148833368Y-96180901D01*
X148820341Y-95998968D01*
X148833497Y-95817036D01*
X148872966Y-95687084D01*
X148938748Y-95609113D01*
X149030843Y-95583123D01*
X149122938Y-95609048D01*
G37*
G36*
X153625782Y-95997936D02*
G01*
X153661898Y-96074295D01*
X153583476Y-96140335D01*
X153323443Y-96140335D01*
X153389483Y-96023733D01*
X153522595Y-95969044D01*
X153625782Y-95997936D01*
G37*
%TO.C,kibuzzard-65D4DF6C*%
G36*
X169503717Y-99153240D02*
G01*
X169605821Y-99168386D01*
X169705949Y-99193467D01*
X169803136Y-99228241D01*
X169896447Y-99272374D01*
X169984983Y-99325440D01*
X170067891Y-99386929D01*
X170144373Y-99456248D01*
X170213692Y-99532730D01*
X170275181Y-99615638D01*
X170328247Y-99704173D01*
X170372380Y-99797484D01*
X170407154Y-99894671D01*
X170432234Y-99994799D01*
X170447380Y-100096903D01*
X170452445Y-100200000D01*
X170447380Y-100303097D01*
X170432234Y-100405201D01*
X170407154Y-100505329D01*
X170372380Y-100602516D01*
X170328247Y-100695827D01*
X170275181Y-100784362D01*
X170213692Y-100867270D01*
X170144373Y-100943752D01*
X170067891Y-101013071D01*
X169984983Y-101074560D01*
X169896447Y-101127626D01*
X169803136Y-101171759D01*
X169705949Y-101206533D01*
X169605821Y-101231614D01*
X169503717Y-101246760D01*
X169400620Y-101251825D01*
X169327860Y-101251825D01*
X169161093Y-101251825D01*
X167892443Y-101251825D01*
X167214898Y-101251825D01*
X166109521Y-101251825D01*
X165472140Y-101251825D01*
X165399380Y-101251825D01*
X165296283Y-101246760D01*
X165194179Y-101231614D01*
X165094051Y-101206533D01*
X164996864Y-101171759D01*
X164903553Y-101127626D01*
X164815017Y-101074560D01*
X164732109Y-101013071D01*
X164655627Y-100943752D01*
X164586308Y-100867270D01*
X164524819Y-100784362D01*
X164471753Y-100695827D01*
X164427620Y-100602516D01*
X164392846Y-100505329D01*
X164367766Y-100405201D01*
X164352620Y-100303097D01*
X164349357Y-100236671D01*
X165472140Y-100236671D01*
X165483764Y-100364802D01*
X165518634Y-100483766D01*
X165576751Y-100593561D01*
X165658116Y-100694189D01*
X165756069Y-100778227D01*
X165863955Y-100838254D01*
X165981772Y-100874271D01*
X166109521Y-100886276D01*
X166236998Y-100874107D01*
X166353996Y-100837600D01*
X166460518Y-100776754D01*
X166556561Y-100691569D01*
X166636016Y-100589086D01*
X166682440Y-100496863D01*
X166851678Y-100496863D01*
X166863901Y-100658391D01*
X166900573Y-100769278D01*
X166964311Y-100827340D01*
X167075198Y-100858336D01*
X167214898Y-100866194D01*
X167291733Y-100847859D01*
X167317926Y-100802020D01*
X167326658Y-100713397D01*
X167291733Y-100589414D01*
X167262046Y-100574571D01*
X167214024Y-100571951D01*
X167167749Y-100555362D01*
X167157271Y-100475908D01*
X167157271Y-100409550D01*
X167396508Y-100409550D01*
X167408731Y-100522280D01*
X167445403Y-100627637D01*
X167506521Y-100725621D01*
X167573534Y-100791760D01*
X167662811Y-100843493D01*
X167770423Y-100876890D01*
X167892443Y-100888023D01*
X168055171Y-100878309D01*
X168171406Y-100849168D01*
X168241147Y-100800601D01*
X168264394Y-100732606D01*
X168241693Y-100652279D01*
X168145649Y-100573698D01*
X168075799Y-100592906D01*
X168056590Y-100599891D01*
X167988050Y-100615608D01*
X167897681Y-100620846D01*
X167782429Y-100587668D01*
X167724803Y-100505594D01*
X168138664Y-100505594D01*
X168256536Y-100454079D01*
X168286362Y-100405184D01*
X168405840Y-100405184D01*
X168420198Y-100521795D01*
X168463272Y-100628316D01*
X168535063Y-100724748D01*
X168624315Y-100800904D01*
X168719777Y-100846598D01*
X168821448Y-100861829D01*
X168938010Y-100840874D01*
X169025759Y-100778009D01*
X169066577Y-100842183D01*
X169161093Y-100863575D01*
X169258665Y-100851788D01*
X169308651Y-100816426D01*
X169325241Y-100771897D01*
X169327860Y-100711651D01*
X169327860Y-99669140D01*
X169325241Y-99608894D01*
X169309524Y-99562619D01*
X169263249Y-99525947D01*
X169175063Y-99515470D01*
X169086878Y-99525947D01*
X169040602Y-99561746D01*
X169024886Y-99607148D01*
X169022266Y-99667394D01*
X169022266Y-100034106D01*
X168936263Y-99968622D01*
X168821448Y-99946794D01*
X168720650Y-99962122D01*
X168625479Y-100008107D01*
X168535936Y-100084748D01*
X168463660Y-100181664D01*
X168420295Y-100288477D01*
X168405840Y-100405184D01*
X168286362Y-100405184D01*
X168296481Y-100388595D01*
X168309796Y-100295171D01*
X168294953Y-100191924D01*
X168250424Y-100096971D01*
X168185594Y-100022101D01*
X168104612Y-99968622D01*
X168007477Y-99936535D01*
X167894189Y-99925839D01*
X167760019Y-99940488D01*
X167641565Y-99984435D01*
X167538827Y-100057681D01*
X167459761Y-100155374D01*
X167412321Y-100272663D01*
X167396508Y-100409550D01*
X167157271Y-100409550D01*
X167157271Y-99667394D01*
X167154652Y-99606275D01*
X167138063Y-99559126D01*
X167091787Y-99523765D01*
X167005348Y-99511977D01*
X166915416Y-99523765D01*
X166869140Y-99559126D01*
X166854297Y-99605402D01*
X166851678Y-99665647D01*
X166851678Y-100496863D01*
X166682440Y-100496863D01*
X166692769Y-100476344D01*
X166726821Y-100353343D01*
X166738171Y-100220082D01*
X166726275Y-100087312D01*
X166690586Y-99965784D01*
X166631104Y-99855498D01*
X166547830Y-99756452D01*
X166448403Y-99674706D01*
X166340463Y-99616316D01*
X166224010Y-99581282D01*
X166099044Y-99569604D01*
X165980299Y-99581827D01*
X165865046Y-99618499D01*
X165758088Y-99676562D01*
X165664228Y-99752960D01*
X165585646Y-99848785D01*
X165524528Y-99965129D01*
X165485237Y-100096316D01*
X165472140Y-100236671D01*
X164349357Y-100236671D01*
X164347555Y-100200000D01*
X164352620Y-100096903D01*
X164367766Y-99994799D01*
X164392846Y-99894671D01*
X164427620Y-99797484D01*
X164471753Y-99704173D01*
X164524819Y-99615638D01*
X164586308Y-99532730D01*
X164655627Y-99456248D01*
X164732109Y-99386929D01*
X164815017Y-99325440D01*
X164903553Y-99272374D01*
X164996864Y-99228241D01*
X165094051Y-99193467D01*
X165194179Y-99168386D01*
X165296283Y-99153240D01*
X165399380Y-99148175D01*
X165472140Y-99148175D01*
X169327860Y-99148175D01*
X169400620Y-99148175D01*
X169503717Y-99153240D01*
G37*
G36*
X166222373Y-99902701D02*
G01*
X166328676Y-99974734D01*
X166384459Y-100045748D01*
X166417928Y-100130732D01*
X166429085Y-100229686D01*
X166418025Y-100328446D01*
X166384847Y-100412848D01*
X166329549Y-100482893D01*
X166223901Y-100553616D01*
X166106029Y-100577190D01*
X165987939Y-100552961D01*
X165881636Y-100480273D01*
X165825853Y-100409162D01*
X165792383Y-100325051D01*
X165781226Y-100227940D01*
X165792286Y-100130829D01*
X165825465Y-100046718D01*
X165880763Y-99975607D01*
X165986411Y-99902919D01*
X166104283Y-99878690D01*
X166222373Y-99902701D01*
G37*
G36*
X168975991Y-100301283D02*
G01*
X169017028Y-100406931D01*
X168974244Y-100510833D01*
X168866850Y-100557981D01*
X168756836Y-100510833D01*
X168711434Y-100406057D01*
X168753344Y-100300409D01*
X168865104Y-100252388D01*
X168975991Y-100301283D01*
G37*
G36*
X167977136Y-100226194D02*
G01*
X168007695Y-100290805D01*
X167941338Y-100346685D01*
X167721310Y-100346685D01*
X167777190Y-100248022D01*
X167889823Y-100201746D01*
X167977136Y-100226194D01*
G37*
%TO.C,kibuzzard-65D4DF4E*%
G36*
X158373059Y-98938436D02*
G01*
X158373059Y-99586471D01*
X158373059Y-101416829D01*
X158373059Y-101557811D01*
X158373059Y-101630571D01*
X143226941Y-101630571D01*
X143226941Y-101557811D01*
X143226941Y-101396627D01*
X143609952Y-101396627D01*
X143621739Y-101486559D01*
X143657101Y-101532834D01*
X143703376Y-101549424D01*
X143763622Y-101552043D01*
X144732791Y-101552043D01*
X144823596Y-101541566D01*
X144872054Y-101495290D01*
X144888207Y-101398373D01*
X145811681Y-101398373D01*
X145811681Y-101399956D01*
X145823294Y-101488559D01*
X145858133Y-101534151D01*
X145903724Y-101550495D01*
X145963080Y-101553075D01*
X146917926Y-101553075D01*
X147007389Y-101542753D01*
X147055131Y-101497161D01*
X147071045Y-101401676D01*
X148012858Y-101401676D01*
X148012858Y-101403188D01*
X148024302Y-101490501D01*
X148058634Y-101535428D01*
X148103562Y-101551535D01*
X148162053Y-101554078D01*
X149102993Y-101554078D01*
X149191153Y-101543905D01*
X149238200Y-101498978D01*
X149253883Y-101404883D01*
X150213509Y-101404883D01*
X150213509Y-101406327D01*
X150224789Y-101492387D01*
X150258627Y-101536669D01*
X150302910Y-101552544D01*
X150360562Y-101555051D01*
X151287996Y-101555051D01*
X151374891Y-101545025D01*
X151421262Y-101500742D01*
X151436719Y-101407998D01*
X152413655Y-101407998D01*
X152413655Y-101409378D01*
X152424775Y-101494219D01*
X152458135Y-101537875D01*
X152501791Y-101553526D01*
X152558626Y-101555997D01*
X153472937Y-101555997D01*
X153558602Y-101546112D01*
X153604317Y-101502456D01*
X153619556Y-101411025D01*
X154613317Y-101411025D01*
X154613317Y-101412343D01*
X154624282Y-101496001D01*
X154657176Y-101539048D01*
X154700223Y-101554480D01*
X154756266Y-101556916D01*
X155657818Y-101556916D01*
X155742288Y-101547170D01*
X155787365Y-101504123D01*
X155802391Y-101413968D01*
X156812515Y-101413968D01*
X156812515Y-101415227D01*
X156823329Y-101497733D01*
X156855771Y-101540188D01*
X156898225Y-101555407D01*
X156953497Y-101557811D01*
X157842642Y-101557811D01*
X157925950Y-101548198D01*
X157970407Y-101505744D01*
X157985226Y-101416829D01*
X157974412Y-101334323D01*
X157941970Y-101291868D01*
X157899516Y-101276648D01*
X157844244Y-101274245D01*
X157663211Y-101274245D01*
X157663211Y-101073987D01*
X157651819Y-100979999D01*
X157617641Y-100888148D01*
X157560679Y-100798432D01*
X157502404Y-100738755D01*
X157426907Y-100691094D01*
X157337792Y-100659854D01*
X157238664Y-100649440D01*
X157139336Y-100659854D01*
X157049620Y-100691094D01*
X156973522Y-100738755D01*
X156915047Y-100798432D01*
X156858085Y-100887970D01*
X156823907Y-100979287D01*
X156812515Y-101072385D01*
X156812515Y-101413968D01*
X155802391Y-101413968D01*
X155791426Y-101330310D01*
X155758532Y-101287263D01*
X155715485Y-101271831D01*
X155659442Y-101269394D01*
X155475883Y-101269394D01*
X155475883Y-101066342D01*
X155464332Y-100971043D01*
X155429677Y-100877909D01*
X155371920Y-100786942D01*
X155312832Y-100726432D01*
X155236281Y-100678106D01*
X155145923Y-100646430D01*
X155045412Y-100635871D01*
X154944698Y-100646430D01*
X154853731Y-100678106D01*
X154776571Y-100726432D01*
X154717280Y-100786942D01*
X154659522Y-100877729D01*
X154624868Y-100970321D01*
X154613317Y-101064718D01*
X154613317Y-101411025D01*
X153619556Y-101411025D01*
X153608436Y-101326184D01*
X153575076Y-101282528D01*
X153531419Y-101266877D01*
X153474584Y-101264406D01*
X153288427Y-101264406D01*
X153288427Y-101058480D01*
X153276712Y-100961833D01*
X153241568Y-100867381D01*
X153182993Y-100775127D01*
X153123069Y-100713761D01*
X153045435Y-100664750D01*
X152953798Y-100632626D01*
X152851865Y-100621918D01*
X152749725Y-100632626D01*
X152657471Y-100664750D01*
X152579219Y-100713761D01*
X152519089Y-100775127D01*
X152460514Y-100867198D01*
X152425370Y-100961100D01*
X152413655Y-101056833D01*
X152413655Y-101407998D01*
X151436719Y-101407998D01*
X151425440Y-101321939D01*
X151391601Y-101277656D01*
X151347318Y-101261781D01*
X151289667Y-101259275D01*
X151100838Y-101259275D01*
X151100838Y-101050393D01*
X151088955Y-100952358D01*
X151053306Y-100856551D01*
X150993891Y-100762972D01*
X150933106Y-100700725D01*
X150854358Y-100651012D01*
X150761405Y-100618426D01*
X150658009Y-100607564D01*
X150554404Y-100618426D01*
X150460825Y-100651012D01*
X150381450Y-100700725D01*
X150320456Y-100762972D01*
X150261041Y-100856365D01*
X150225392Y-100951615D01*
X150213509Y-101048722D01*
X150213509Y-101404883D01*
X149253883Y-101404883D01*
X149242439Y-101317571D01*
X149208107Y-101272643D01*
X149163179Y-101256537D01*
X149104688Y-101253994D01*
X148913110Y-101253994D01*
X148913110Y-101042070D01*
X148901054Y-100942608D01*
X148864885Y-100845405D01*
X148804605Y-100750464D01*
X148742935Y-100687310D01*
X148663040Y-100636873D01*
X148568734Y-100603812D01*
X148463832Y-100592792D01*
X148358718Y-100603812D01*
X148263776Y-100636873D01*
X148183245Y-100687310D01*
X148121363Y-100750464D01*
X148061083Y-100845217D01*
X148024914Y-100941854D01*
X148012858Y-101040375D01*
X148012858Y-101401676D01*
X147071045Y-101401676D01*
X147059432Y-101313074D01*
X147024593Y-101267482D01*
X146979001Y-101251138D01*
X146919646Y-101248557D01*
X146725236Y-101248557D01*
X146725236Y-101033502D01*
X146713002Y-100932569D01*
X146676299Y-100833930D01*
X146615128Y-100737585D01*
X146552546Y-100673499D01*
X146471471Y-100622316D01*
X146375771Y-100588767D01*
X146269319Y-100577584D01*
X146162651Y-100588767D01*
X146066306Y-100622316D01*
X145984585Y-100673499D01*
X145921789Y-100737585D01*
X145860618Y-100833739D01*
X145823915Y-100931804D01*
X145811681Y-101031781D01*
X145811681Y-101398373D01*
X144888207Y-101398373D01*
X144876420Y-101308441D01*
X144841058Y-101262166D01*
X144794782Y-101245576D01*
X144734537Y-101242957D01*
X144537211Y-101242957D01*
X144537211Y-101024676D01*
X144524793Y-100922229D01*
X144487539Y-100822111D01*
X144425451Y-100724321D01*
X144361931Y-100659273D01*
X144279639Y-100607322D01*
X144182504Y-100573270D01*
X144074454Y-100561919D01*
X143966187Y-100573270D01*
X143868397Y-100607322D01*
X143785450Y-100659273D01*
X143721712Y-100724321D01*
X143659623Y-100821917D01*
X143622370Y-100921453D01*
X143609952Y-101022929D01*
X143609952Y-101396627D01*
X143226941Y-101396627D01*
X143226941Y-100292997D01*
X143608206Y-100292997D01*
X143619993Y-100382929D01*
X143655354Y-100429204D01*
X143700757Y-100445794D01*
X143761876Y-100448413D01*
X144731044Y-100448413D01*
X144821849Y-100437936D01*
X144871617Y-100391660D01*
X144885144Y-100312636D01*
X145809960Y-100312636D01*
X145821573Y-100401239D01*
X145856412Y-100446830D01*
X145901144Y-100463175D01*
X145961359Y-100465755D01*
X146916205Y-100465755D01*
X147005668Y-100455433D01*
X147054701Y-100409841D01*
X147068076Y-100331703D01*
X148011163Y-100331703D01*
X148022607Y-100419015D01*
X148056938Y-100463943D01*
X148101019Y-100480049D01*
X148160357Y-100482592D01*
X149101298Y-100482592D01*
X149189458Y-100472420D01*
X149237776Y-100427492D01*
X149251003Y-100350222D01*
X150211838Y-100350222D01*
X150223118Y-100436281D01*
X150256956Y-100480564D01*
X150300404Y-100496439D01*
X150358891Y-100498946D01*
X151286325Y-100498946D01*
X151373219Y-100488919D01*
X151420844Y-100444637D01*
X151436719Y-100351893D01*
X151436719Y-99949776D01*
X152413655Y-99949776D01*
X152436718Y-100028028D01*
X152497672Y-100083216D01*
X153418572Y-100528016D01*
X153502590Y-100556022D01*
X153558602Y-100532134D01*
X153608024Y-100460472D01*
X153636030Y-100372336D01*
X153620379Y-100319619D01*
X153589902Y-100289966D01*
X153542128Y-100264431D01*
X153364208Y-100178766D01*
X153364208Y-99973108D01*
X154613317Y-99973108D01*
X154636059Y-100050268D01*
X154696162Y-100104686D01*
X155604212Y-100543279D01*
X155687057Y-100570894D01*
X155742288Y-100547340D01*
X155791020Y-100476678D01*
X155818635Y-100389772D01*
X155803203Y-100337790D01*
X155773152Y-100308551D01*
X155726043Y-100283372D01*
X155550606Y-100198902D01*
X155550606Y-99995798D01*
X156812515Y-99995798D01*
X156834944Y-100071896D01*
X156894220Y-100125565D01*
X157789774Y-100558123D01*
X157871479Y-100585358D01*
X157925950Y-100562128D01*
X157974012Y-100492438D01*
X158001247Y-100406727D01*
X157986027Y-100355461D01*
X157956389Y-100326624D01*
X157909929Y-100301792D01*
X157736906Y-100218485D01*
X157736906Y-99774713D01*
X157909929Y-99691406D01*
X157957991Y-99666574D01*
X157988430Y-99637737D01*
X158002849Y-99586471D01*
X157975614Y-99500760D01*
X157926350Y-99431070D01*
X157871479Y-99407840D01*
X157789774Y-99435075D01*
X157535587Y-99558069D01*
X156895822Y-99867633D01*
X156833342Y-99920501D01*
X156812515Y-99995798D01*
X155550606Y-99995798D01*
X155550606Y-99748939D01*
X155726043Y-99664469D01*
X155774776Y-99639290D01*
X155805640Y-99610051D01*
X155820260Y-99558069D01*
X155792645Y-99471163D01*
X155742694Y-99400501D01*
X155687057Y-99376947D01*
X155604212Y-99404562D01*
X155347320Y-99528864D01*
X154697786Y-99843155D01*
X154634434Y-99896761D01*
X154613317Y-99973108D01*
X153364208Y-99973108D01*
X153364208Y-99722434D01*
X153542128Y-99636769D01*
X153591550Y-99611235D01*
X153622850Y-99581581D01*
X153637677Y-99528864D01*
X153609671Y-99440728D01*
X153559013Y-99369066D01*
X153502590Y-99345179D01*
X153418572Y-99373184D01*
X152499320Y-99817984D01*
X152435071Y-99872348D01*
X152423991Y-99912406D01*
X152413655Y-99949776D01*
X151436719Y-99949776D01*
X151436719Y-99912406D01*
X151424187Y-99811865D01*
X151386588Y-99721906D01*
X151323923Y-99642531D01*
X151242692Y-99580424D01*
X151149391Y-99542268D01*
X151044022Y-99528064D01*
X150950258Y-99539019D01*
X150862806Y-99571883D01*
X150781667Y-99626656D01*
X150685164Y-99579031D01*
X150579469Y-99563156D01*
X150482920Y-99575225D01*
X150396025Y-99611431D01*
X150318785Y-99671775D01*
X150259370Y-99746415D01*
X150223721Y-99832196D01*
X150216939Y-99887511D01*
X150211838Y-99929117D01*
X150211838Y-100350222D01*
X149251003Y-100350222D01*
X149253883Y-100333398D01*
X149253883Y-99887511D01*
X149241167Y-99785505D01*
X149203021Y-99694237D01*
X149139444Y-99613706D01*
X149057029Y-99550694D01*
X148962370Y-99511982D01*
X148855466Y-99497572D01*
X148760336Y-99508686D01*
X148671611Y-99542028D01*
X148589290Y-99597599D01*
X148491382Y-99549281D01*
X148384148Y-99533175D01*
X148286193Y-99545419D01*
X148198032Y-99582153D01*
X148119668Y-99643375D01*
X148059387Y-99719102D01*
X148023219Y-99806132D01*
X148016384Y-99861880D01*
X148011163Y-99904465D01*
X148011163Y-100331703D01*
X147068076Y-100331703D01*
X147071045Y-100314356D01*
X147071045Y-99861880D01*
X147058142Y-99758366D01*
X147019432Y-99665749D01*
X146954915Y-99584028D01*
X146871283Y-99520085D01*
X146775224Y-99480801D01*
X146666741Y-99466178D01*
X146570205Y-99477456D01*
X146480168Y-99511291D01*
X146396631Y-99567684D01*
X146297276Y-99518651D01*
X146188458Y-99502307D01*
X146089054Y-99514732D01*
X145999591Y-99552009D01*
X145920069Y-99614136D01*
X145858897Y-99690982D01*
X145822194Y-99779298D01*
X145815306Y-99835479D01*
X145809960Y-99879084D01*
X145809960Y-100312636D01*
X144885144Y-100312636D01*
X144888207Y-100294743D01*
X144888207Y-99835479D01*
X144875110Y-99730413D01*
X144835819Y-99636407D01*
X144770335Y-99553460D01*
X144685448Y-99488558D01*
X144587949Y-99448685D01*
X144477838Y-99433842D01*
X144379854Y-99445290D01*
X144288467Y-99479632D01*
X144203677Y-99536871D01*
X144102831Y-99487103D01*
X143992381Y-99470513D01*
X143891486Y-99483125D01*
X143800681Y-99520960D01*
X143719966Y-99584019D01*
X143657877Y-99662019D01*
X143620623Y-99751659D01*
X143608206Y-99852942D01*
X143608206Y-100292997D01*
X143226941Y-100292997D01*
X143226941Y-98910840D01*
X143608206Y-98910840D01*
X143653608Y-99009503D01*
X143657101Y-99014742D01*
X143915546Y-99301127D01*
X144018574Y-99363992D01*
X144126842Y-99308985D01*
X144187961Y-99203337D01*
X144133827Y-99081099D01*
X144112872Y-99058398D01*
X144736283Y-99058398D01*
X144800021Y-99055779D01*
X144848043Y-99039189D01*
X144882095Y-98992477D01*
X144887473Y-98950905D01*
X145809960Y-98950905D01*
X145854692Y-99048110D01*
X145858133Y-99053271D01*
X146112758Y-99335424D01*
X146214264Y-99397360D01*
X146320932Y-99343166D01*
X146381147Y-99239079D01*
X146327814Y-99118648D01*
X146307168Y-99096282D01*
X146921367Y-99096282D01*
X146984163Y-99093702D01*
X147031475Y-99077357D01*
X147065024Y-99031336D01*
X147070396Y-98989803D01*
X148011163Y-98989803D01*
X148055243Y-99085592D01*
X148058634Y-99090678D01*
X148309551Y-99368722D01*
X148409579Y-99429756D01*
X148514693Y-99376351D01*
X148574032Y-99273780D01*
X148521475Y-99155103D01*
X148501130Y-99133063D01*
X149106384Y-99133063D01*
X149168266Y-99130520D01*
X149214889Y-99114414D01*
X149247949Y-99069062D01*
X149253314Y-99027584D01*
X150211838Y-99027584D01*
X150255285Y-99121998D01*
X150258627Y-99127012D01*
X150505943Y-99401064D01*
X150604535Y-99461222D01*
X150708141Y-99408584D01*
X150766627Y-99307485D01*
X150714825Y-99190512D01*
X150694772Y-99168788D01*
X151291338Y-99168788D01*
X151352331Y-99166281D01*
X151398285Y-99150406D01*
X151430871Y-99105706D01*
X151441733Y-99021735D01*
X151430453Y-98935676D01*
X151396614Y-98891393D01*
X151352331Y-98875518D01*
X151294680Y-98873012D01*
X150363904Y-98873012D01*
X150275338Y-98881367D01*
X150239410Y-98904762D01*
X150220193Y-98948209D01*
X150216440Y-98983869D01*
X150211838Y-99027584D01*
X149253314Y-99027584D01*
X149258969Y-98983869D01*
X149247525Y-98896556D01*
X149213193Y-98851629D01*
X149174559Y-98837778D01*
X152388944Y-98837778D01*
X152400659Y-98941015D01*
X152430694Y-99021735D01*
X152435803Y-99035466D01*
X152494378Y-99121131D01*
X152570890Y-99188858D01*
X152659850Y-99229494D01*
X152761257Y-99243039D01*
X152875752Y-99215857D01*
X152947414Y-99172201D01*
X152973773Y-99144195D01*
X153005073Y-99178791D01*
X153099799Y-99245510D01*
X153234063Y-99279282D01*
X153349930Y-99264364D01*
X153449324Y-99219610D01*
X153532243Y-99145019D01*
X153594478Y-99051574D01*
X153631820Y-98950259D01*
X153636325Y-98910739D01*
X154593824Y-98910739D01*
X154606097Y-99016687D01*
X154642917Y-99111444D01*
X154704284Y-99195012D01*
X154783881Y-99259989D01*
X154875390Y-99298975D01*
X154978811Y-99311970D01*
X155105312Y-99283340D01*
X155218413Y-99197448D01*
X155277523Y-99116137D01*
X155312990Y-99024899D01*
X155324812Y-98923734D01*
X155297197Y-98801902D01*
X155319939Y-98810025D01*
X155376793Y-98842107D01*
X155440146Y-98899368D01*
X155495376Y-98996020D01*
X155518118Y-99125162D01*
X155527864Y-99219378D01*
X155570911Y-99265674D01*
X155661067Y-99281106D01*
X155743506Y-99269735D01*
X155789396Y-99235622D01*
X155805640Y-99147904D01*
X155805640Y-99138157D01*
X155792645Y-98994295D01*
X155777318Y-98944043D01*
X156810913Y-98944043D01*
X156852567Y-99034559D01*
X156855771Y-99039366D01*
X156944924Y-99138157D01*
X157092876Y-99302104D01*
X157187398Y-99359778D01*
X157286726Y-99309313D01*
X157342798Y-99212389D01*
X157293134Y-99100244D01*
X157273909Y-99079417D01*
X157845846Y-99079417D01*
X157904322Y-99077014D01*
X157948379Y-99061795D01*
X157979619Y-99018939D01*
X157990032Y-98938436D01*
X157979218Y-98855929D01*
X157946776Y-98813475D01*
X157904322Y-98798255D01*
X157849051Y-98795852D01*
X156956701Y-98795852D01*
X156871791Y-98803862D01*
X156837347Y-98826291D01*
X156818923Y-98867945D01*
X156810913Y-98944043D01*
X155777318Y-98944043D01*
X155753659Y-98866473D01*
X155688682Y-98754693D01*
X155597714Y-98658954D01*
X155510451Y-98595796D01*
X155415000Y-98546674D01*
X155311362Y-98511586D01*
X155199537Y-98490534D01*
X155079525Y-98483516D01*
X154945330Y-98495429D01*
X154828642Y-98531166D01*
X154729463Y-98590728D01*
X154654108Y-98673934D01*
X154608895Y-98780605D01*
X154601892Y-98841072D01*
X154593824Y-98910739D01*
X153636325Y-98910739D01*
X153644267Y-98841072D01*
X153631728Y-98731886D01*
X153594112Y-98630571D01*
X153531419Y-98537126D01*
X153448225Y-98462535D01*
X153349107Y-98417781D01*
X153234063Y-98402862D01*
X153165284Y-98412129D01*
X153097328Y-98439929D01*
X153007544Y-98499236D01*
X152973773Y-98536302D01*
X152947414Y-98511591D01*
X152869986Y-98462993D01*
X152769494Y-98439105D01*
X152665159Y-98452285D01*
X152574002Y-98491822D01*
X152496025Y-98557719D01*
X152436535Y-98641553D01*
X152400842Y-98734906D01*
X152388944Y-98837778D01*
X149174559Y-98837778D01*
X149168266Y-98835522D01*
X149109775Y-98832979D01*
X148165443Y-98832979D01*
X148075588Y-98841456D01*
X148039137Y-98865192D01*
X148019640Y-98909272D01*
X148015891Y-98944883D01*
X148011163Y-98989803D01*
X147070396Y-98989803D01*
X147076206Y-98944883D01*
X147064593Y-98856280D01*
X147029754Y-98810689D01*
X146984163Y-98794345D01*
X146924807Y-98791764D01*
X145966520Y-98791764D01*
X145875337Y-98800366D01*
X145838347Y-98824452D01*
X145818562Y-98869184D01*
X145814821Y-98904728D01*
X145809960Y-98950905D01*
X144887473Y-98950905D01*
X144893446Y-98904728D01*
X144881658Y-98814796D01*
X144846297Y-98768521D01*
X144800021Y-98751931D01*
X144739776Y-98749312D01*
X143767114Y-98749312D01*
X143674563Y-98758043D01*
X143637019Y-98782491D01*
X143616937Y-98827893D01*
X143608206Y-98910840D01*
X143226941Y-98910840D01*
X143226941Y-98165191D01*
X143590743Y-98165191D01*
X143606750Y-98296548D01*
X143654772Y-98410054D01*
X143734809Y-98505710D01*
X143835024Y-98577985D01*
X143943583Y-98621351D01*
X144060484Y-98635806D01*
X144149543Y-98627074D01*
X144199311Y-98579489D01*
X144215901Y-98482136D01*
X144205423Y-98393077D01*
X144173991Y-98345928D01*
X144130334Y-98329339D01*
X144072708Y-98326719D01*
X144062231Y-98326719D01*
X144022067Y-98319734D01*
X143940866Y-98273459D01*
X143899829Y-98176542D01*
X143915546Y-98089229D01*
X143949597Y-98042954D01*
X143996746Y-98015887D01*
X144041276Y-98003663D01*
X144117674Y-98020034D01*
X144189707Y-98069148D01*
X144255846Y-98141399D01*
X144314564Y-98227183D01*
X144370007Y-98319734D01*
X144426324Y-98412286D01*
X144488752Y-98498070D01*
X144562531Y-98570321D01*
X144645696Y-98619435D01*
X144736283Y-98635806D01*
X144846297Y-98590403D01*
X144893446Y-98482136D01*
X144893446Y-98203372D01*
X145792756Y-98203372D01*
X145798777Y-98288749D01*
X145816842Y-98365954D01*
X145870176Y-98479503D01*
X145938133Y-98550902D01*
X145992327Y-98588752D01*
X146109317Y-98628322D01*
X146170823Y-98606816D01*
X146224587Y-98542300D01*
X146255555Y-98447675D01*
X146234049Y-98382298D01*
X146169533Y-98334126D01*
X146148887Y-98323803D01*
X146107597Y-98279072D01*
X146086952Y-98181867D01*
X146119640Y-98086382D01*
X146188458Y-98051973D01*
X146238781Y-98084662D01*
X146255555Y-98182727D01*
X146264157Y-98272190D01*
X146311039Y-98319932D01*
X146406954Y-98335846D01*
X146495127Y-98324233D01*
X146539428Y-98289394D01*
X146556633Y-98244663D01*
X146560073Y-98166383D01*
X146595343Y-98066597D01*
X146677064Y-98024446D01*
X146760505Y-98067457D01*
X146788247Y-98122511D01*
X146797495Y-98201652D01*
X146787172Y-98273910D01*
X146704591Y-98368535D01*
X146615128Y-98420148D01*
X146597923Y-98511332D01*
X146622870Y-98637784D01*
X146697709Y-98679935D01*
X146790613Y-98661010D01*
X146807817Y-98657569D01*
X146852549Y-98638644D01*
X146920936Y-98596063D01*
X146974700Y-98547461D01*
X147015314Y-98487120D01*
X148006077Y-98487120D01*
X148024726Y-98545611D01*
X148063720Y-98576128D01*
X148123059Y-98593930D01*
X148691014Y-98734647D01*
X148758829Y-98739733D01*
X148831731Y-98731256D01*
X148880050Y-98685057D01*
X148896156Y-98590539D01*
X148896156Y-98545485D01*
X150210167Y-98545485D01*
X150226042Y-98613163D01*
X150261969Y-98656610D01*
X150307088Y-98680841D01*
X150342180Y-98692538D01*
X150411529Y-98702146D01*
X150599522Y-98727630D01*
X150790440Y-98752696D01*
X150868562Y-98761051D01*
X150909502Y-98742669D01*
X150960469Y-98664966D01*
X150992219Y-98559689D01*
X150953785Y-98468617D01*
X150923706Y-98388406D01*
X150956292Y-98299005D01*
X151044858Y-98259735D01*
X151132588Y-98295663D01*
X151164338Y-98405952D01*
X151129246Y-98510393D01*
X151075772Y-98622354D01*
X151130917Y-98719275D01*
X151239535Y-98781104D01*
X151339798Y-98717604D01*
X151351496Y-98704235D01*
X151383246Y-98662459D01*
X151426879Y-98575564D01*
X151453059Y-98481985D01*
X151461785Y-98381722D01*
X151447953Y-98269019D01*
X151437849Y-98244742D01*
X156794892Y-98244742D01*
X156805906Y-98348676D01*
X156817943Y-98381722D01*
X156838949Y-98439393D01*
X156888213Y-98514089D01*
X156947889Y-98569961D01*
X157024989Y-98614218D01*
X157126520Y-98654069D01*
X157251881Y-98682306D01*
X157400473Y-98691718D01*
X157512795Y-98686555D01*
X157616929Y-98671069D01*
X157712875Y-98645258D01*
X157793379Y-98610613D01*
X157861867Y-98567558D01*
X157919341Y-98511085D01*
X157966802Y-98436188D01*
X157998643Y-98345872D01*
X158009257Y-98243140D01*
X157998844Y-98140808D01*
X157967603Y-98051693D01*
X157920342Y-97978198D01*
X157861867Y-97922727D01*
X157769448Y-97868056D01*
X157662010Y-97829006D01*
X157539552Y-97805576D01*
X157402075Y-97797766D01*
X157296160Y-97803106D01*
X157194162Y-97819127D01*
X157096080Y-97845828D01*
X157015176Y-97879271D01*
X156945486Y-97921926D01*
X156886610Y-97977998D01*
X156838148Y-98051693D01*
X156805706Y-98141208D01*
X156794892Y-98244742D01*
X151437849Y-98244742D01*
X151406455Y-98169313D01*
X151337292Y-98082604D01*
X151248912Y-98015762D01*
X151149763Y-97975656D01*
X151039844Y-97962288D01*
X150930483Y-97976399D01*
X150929541Y-97976808D01*
X150833005Y-98018732D01*
X150747410Y-98089288D01*
X150681032Y-98177482D01*
X150641206Y-98272732D01*
X150627930Y-98375038D01*
X150631272Y-98433525D01*
X150504272Y-98416814D01*
X150504272Y-98124380D01*
X150501766Y-98070071D01*
X150485891Y-98029130D01*
X150444532Y-97997798D01*
X150363904Y-97987354D01*
X150275338Y-97998633D01*
X150230219Y-98032472D01*
X150214344Y-98075919D01*
X150211838Y-98134406D01*
X150211838Y-98291485D01*
X150210167Y-98545485D01*
X148896156Y-98545485D01*
X148896156Y-98131089D01*
X149102993Y-98131089D01*
X149191153Y-98120916D01*
X149225061Y-98098876D01*
X149245406Y-98054796D01*
X149253883Y-97976808D01*
X149243710Y-97894582D01*
X149202173Y-97845416D01*
X149104688Y-97829309D01*
X148162053Y-97829309D01*
X148102714Y-97831853D01*
X148057786Y-97847959D01*
X148022183Y-97893734D01*
X148011163Y-97979351D01*
X148020488Y-98065816D01*
X148053548Y-98112439D01*
X148095932Y-98128545D01*
X148153576Y-98131089D01*
X148616417Y-98131089D01*
X148616417Y-98203372D01*
X148616417Y-98407437D01*
X148202742Y-98304018D01*
X148197656Y-98302323D01*
X148126449Y-98290455D01*
X148061177Y-98320124D01*
X148017945Y-98409132D01*
X148006077Y-98487120D01*
X147015314Y-98487120D01*
X147041606Y-98448057D01*
X147081750Y-98333361D01*
X147095131Y-98203372D01*
X147081846Y-98072427D01*
X147041989Y-97957158D01*
X146975561Y-97857563D01*
X146888678Y-97781099D01*
X146787459Y-97735220D01*
X146671902Y-97719928D01*
X146584160Y-97734121D01*
X146506740Y-97776702D01*
X146450825Y-97830896D01*
X146413836Y-97881649D01*
X146401793Y-97881649D01*
X146347790Y-97807097D01*
X146275244Y-97762365D01*
X146184157Y-97747455D01*
X146087143Y-97761027D01*
X146002126Y-97799352D01*
X145996819Y-97801744D01*
X145913187Y-97869606D01*
X145846281Y-97960981D01*
X145806137Y-98072236D01*
X145792756Y-98203372D01*
X144893446Y-98203372D01*
X144893446Y-97799352D01*
X144872491Y-97691084D01*
X144827088Y-97653540D01*
X144738902Y-97642189D01*
X144649844Y-97652667D01*
X144599202Y-97693704D01*
X144582613Y-97795859D01*
X144582613Y-98115423D01*
X144573882Y-98115423D01*
X144556419Y-98071767D01*
X144497483Y-97963499D01*
X144401003Y-97841262D01*
X144338138Y-97784509D01*
X144257811Y-97736487D01*
X144166132Y-97703745D01*
X144069216Y-97692831D01*
X143949209Y-97707383D01*
X143838322Y-97751039D01*
X143736555Y-97823799D01*
X143655548Y-97919940D01*
X143606944Y-98033737D01*
X143590743Y-98165191D01*
X143226941Y-98165191D01*
X143226941Y-97642189D01*
X143226941Y-97569429D01*
X158373059Y-97569429D01*
X158373059Y-97642189D01*
X158373059Y-98243140D01*
X158373059Y-98938436D01*
G37*
G36*
X144549434Y-99770432D02*
G01*
X144579121Y-99852942D01*
X144579121Y-100139327D01*
X143917292Y-100139327D01*
X143917292Y-99894852D01*
X143934754Y-99808413D01*
X143995873Y-99779599D01*
X144058738Y-99784838D01*
X144095409Y-99868658D01*
X144119857Y-99976053D01*
X144220266Y-100008358D01*
X144320676Y-99976926D01*
X144345123Y-99882628D01*
X144359093Y-99784838D01*
X144394018Y-99752533D01*
X144460376Y-99742928D01*
X144549434Y-99770432D01*
G37*
G36*
X146737279Y-99797793D02*
G01*
X146766527Y-99879084D01*
X146766527Y-100161237D01*
X146114479Y-100161237D01*
X146114479Y-99920375D01*
X146131683Y-99835213D01*
X146191899Y-99806825D01*
X146253835Y-99811987D01*
X146289964Y-99894568D01*
X146314050Y-100000375D01*
X146412976Y-100032204D01*
X146511901Y-100001236D01*
X146535987Y-99908332D01*
X146549751Y-99811987D01*
X146584160Y-99780159D01*
X146649536Y-99770696D01*
X146737279Y-99797793D01*
G37*
G36*
X148924977Y-99824358D02*
G01*
X148953799Y-99904465D01*
X148953799Y-100182508D01*
X148311247Y-100182508D01*
X148311247Y-99945154D01*
X148328201Y-99861232D01*
X148387539Y-99833258D01*
X148448573Y-99838345D01*
X148484176Y-99919723D01*
X148507912Y-100023990D01*
X148605397Y-100055354D01*
X148702881Y-100024837D01*
X148726617Y-99933286D01*
X148740180Y-99838345D01*
X148774088Y-99806980D01*
X148838513Y-99797655D01*
X148924977Y-99824358D01*
G37*
G36*
X151112535Y-99850160D02*
G01*
X151140943Y-99929117D01*
X151140943Y-100203169D01*
X150507614Y-100203169D01*
X150507614Y-99969222D01*
X150524325Y-99886505D01*
X150582812Y-99858933D01*
X150642969Y-99863946D01*
X150678062Y-99944156D01*
X150701456Y-100046926D01*
X150797542Y-100077841D01*
X150893627Y-100047762D01*
X150917022Y-99957525D01*
X150930391Y-99863946D01*
X150963812Y-99833031D01*
X151027312Y-99823841D01*
X151112535Y-99850160D01*
G37*
G36*
X157547462Y-98091645D02*
G01*
X157645588Y-98122584D01*
X157704464Y-98174151D01*
X157724090Y-98246344D01*
X157703914Y-98317135D01*
X157643386Y-98367700D01*
X157542506Y-98398039D01*
X157401274Y-98408152D01*
X157260042Y-98397939D01*
X157159162Y-98367300D01*
X157098634Y-98316234D01*
X157078458Y-98244742D01*
X157098584Y-98173250D01*
X157158961Y-98122184D01*
X157259591Y-98091544D01*
X157400473Y-98081331D01*
X157410085Y-98081331D01*
X157547462Y-98091645D01*
G37*
G36*
X144189707Y-100919901D02*
G01*
X144228124Y-101022929D01*
X144228124Y-101242957D01*
X143919038Y-101242957D01*
X143919038Y-101024676D01*
X143958329Y-100919901D01*
X144074454Y-100869259D01*
X144189707Y-100919901D01*
G37*
G36*
X146382868Y-100930275D02*
G01*
X146420718Y-101031781D01*
X146420718Y-101248557D01*
X146116199Y-101248557D01*
X146116199Y-101033502D01*
X146154909Y-100930275D01*
X146269319Y-100880382D01*
X146382868Y-100930275D01*
G37*
G36*
X148575727Y-100940347D02*
G01*
X148613026Y-101040375D01*
X148613026Y-101253994D01*
X148312942Y-101253994D01*
X148312942Y-101042070D01*
X148351088Y-100940347D01*
X148463832Y-100891181D01*
X148575727Y-100940347D01*
G37*
G36*
X150768298Y-100950130D02*
G01*
X150805062Y-101048722D01*
X150805062Y-101259275D01*
X150509285Y-101259275D01*
X150509285Y-101050393D01*
X150546884Y-100950130D01*
X150658009Y-100901669D01*
X150768298Y-100950130D01*
G37*
G36*
X152960593Y-100959636D02*
G01*
X152996836Y-101056833D01*
X152996836Y-101264406D01*
X152705246Y-101264406D01*
X152705246Y-101058480D01*
X152742312Y-100959636D01*
X152851865Y-100911861D01*
X152960593Y-100959636D01*
G37*
G36*
X155152624Y-100968877D02*
G01*
X155188361Y-101064718D01*
X155188361Y-101269394D01*
X154900839Y-101269394D01*
X154900839Y-101066342D01*
X154937388Y-100968877D01*
X155045412Y-100921769D01*
X155152624Y-100968877D01*
G37*
G36*
X157344400Y-100977863D02*
G01*
X157379646Y-101072385D01*
X157379646Y-101274245D01*
X157096080Y-101274245D01*
X157096080Y-101073987D01*
X157132127Y-100977863D01*
X157238664Y-100931403D01*
X157344400Y-100977863D01*
G37*
G36*
X153326317Y-98730696D02*
G01*
X153365855Y-98839425D01*
X153326317Y-98949801D01*
X153240652Y-98987692D01*
X153155811Y-98949801D01*
X153117097Y-98840249D01*
X153156635Y-98731520D01*
X153241476Y-98694453D01*
X153326317Y-98730696D01*
G37*
G36*
X155041351Y-98812461D02*
G01*
X155071403Y-98909114D01*
X155038914Y-99000894D01*
X154969064Y-99029321D01*
X154887437Y-98998051D01*
X154860228Y-98904241D01*
X154897590Y-98800278D01*
X154934139Y-98783222D01*
X154981248Y-98779161D01*
X155041351Y-98812461D01*
G37*
G36*
X153120392Y-100060153D02*
G01*
X152894697Y-99951424D01*
X153120392Y-99841048D01*
X153120392Y-100060153D01*
G37*
G36*
X155310192Y-100081944D02*
G01*
X155087647Y-99974733D01*
X155310192Y-99865897D01*
X155310192Y-100081944D01*
G37*
G36*
X157499801Y-100103136D02*
G01*
X157280318Y-99997400D01*
X157499801Y-99890062D01*
X157499801Y-100103136D01*
G37*
G36*
X152822211Y-98757878D02*
G01*
X152851865Y-98838601D01*
X152822211Y-98920972D01*
X152758786Y-98949801D01*
X152697008Y-98923443D01*
X152669003Y-98841896D01*
X152697832Y-98758702D01*
X152759610Y-98730696D01*
X152822211Y-98757878D01*
G37*
%TO.C,kibuzzard-65D4DA09*%
G36*
X138830798Y-102155668D02*
G01*
X138748116Y-102155668D01*
X138170104Y-102155668D01*
X137467808Y-102155668D01*
X136548093Y-102155668D01*
X135003732Y-102155668D01*
X134851884Y-102155668D01*
X134769202Y-102155668D01*
X134769202Y-101583507D01*
X134851884Y-101583507D01*
X134862237Y-101673235D01*
X134907964Y-101721119D01*
X135003732Y-101737080D01*
X135138324Y-101690490D01*
X135154717Y-101644764D01*
X135157305Y-101585232D01*
X135157305Y-101581781D01*
X135942428Y-101581781D01*
X135952781Y-101671510D01*
X135998508Y-101720688D01*
X136094276Y-101737080D01*
X136548093Y-101737080D01*
X136699726Y-101707962D01*
X136826769Y-101620606D01*
X136890901Y-101536725D01*
X136930301Y-101440383D01*
X136944968Y-101331577D01*
X136919517Y-101188789D01*
X136843161Y-101060667D01*
X136892339Y-100961017D01*
X136904844Y-100877760D01*
X137013990Y-100877760D01*
X137068345Y-100984743D01*
X137172740Y-101045137D01*
X137293528Y-100991645D01*
X137315960Y-100970939D01*
X137315960Y-101586958D01*
X137318549Y-101649940D01*
X137334941Y-101697393D01*
X137467808Y-101742257D01*
X137602401Y-101695667D01*
X137618793Y-101649940D01*
X137621382Y-101590409D01*
X137621382Y-100877760D01*
X137716286Y-100877760D01*
X137770641Y-100984743D01*
X137875036Y-101045137D01*
X137995824Y-100991645D01*
X138018257Y-100970939D01*
X138018257Y-101586958D01*
X138020845Y-101649940D01*
X138037237Y-101697393D01*
X138170104Y-101742257D01*
X138304697Y-101695667D01*
X138321089Y-101649940D01*
X138323678Y-101590409D01*
X138323678Y-100629281D01*
X138315050Y-100537827D01*
X138290892Y-100500728D01*
X138262075Y-100487982D01*
X138246028Y-100480885D01*
X138164065Y-100472257D01*
X138066572Y-100517121D01*
X138061395Y-100520572D01*
X137778406Y-100775952D01*
X137716286Y-100877760D01*
X137621382Y-100877760D01*
X137621382Y-100629281D01*
X137612754Y-100537827D01*
X137588596Y-100500728D01*
X137543732Y-100480885D01*
X137503292Y-100476628D01*
X137461769Y-100472257D01*
X137364276Y-100517121D01*
X137359099Y-100520572D01*
X137076110Y-100775952D01*
X137013990Y-100877760D01*
X136904844Y-100877760D01*
X136908732Y-100851876D01*
X136880692Y-100706068D01*
X136796572Y-100582692D01*
X136676646Y-100499865D01*
X136571423Y-100479941D01*
X136530838Y-100472257D01*
X136096001Y-100472257D01*
X135961409Y-100518846D01*
X135945016Y-100563711D01*
X135942428Y-100624105D01*
X135942428Y-101581781D01*
X135157305Y-101581781D01*
X135157305Y-101390246D01*
X135372998Y-101390246D01*
X135474230Y-101377975D01*
X135573161Y-101341164D01*
X135669792Y-101279811D01*
X135734068Y-101217044D01*
X135785403Y-101135728D01*
X135819051Y-101039745D01*
X135830267Y-100932977D01*
X135819051Y-100825993D01*
X135785403Y-100729363D01*
X135734068Y-100647399D01*
X135669792Y-100584417D01*
X135573353Y-100523064D01*
X135474997Y-100486253D01*
X135374724Y-100473982D01*
X135006651Y-100473982D01*
X135005458Y-100473982D01*
X134870865Y-100520572D01*
X134854473Y-100566299D01*
X134851884Y-100625830D01*
X134851884Y-101583507D01*
X134769202Y-101583507D01*
X134769202Y-99100986D01*
X134852796Y-99100986D01*
X134863286Y-99191900D01*
X134909618Y-99240416D01*
X135006651Y-99256589D01*
X135143022Y-99209383D01*
X135159631Y-99163052D01*
X135162254Y-99102734D01*
X135162254Y-99099237D01*
X135957752Y-99099237D01*
X135968242Y-99190151D01*
X136014574Y-99239979D01*
X136111607Y-99256589D01*
X136571423Y-99256589D01*
X136676615Y-99243476D01*
X136770734Y-99204138D01*
X136853781Y-99138575D01*
X136918761Y-99053586D01*
X136958682Y-98955970D01*
X136973543Y-98845727D01*
X136947754Y-98701051D01*
X136870390Y-98571236D01*
X136920218Y-98470269D01*
X136932888Y-98385911D01*
X137043476Y-98385911D01*
X137098549Y-98494309D01*
X137204324Y-98555501D01*
X137326709Y-98501302D01*
X137349437Y-98480322D01*
X137349437Y-99104482D01*
X137352060Y-99168297D01*
X137368669Y-99216377D01*
X137503292Y-99261834D01*
X137639663Y-99214628D01*
X137656272Y-99168297D01*
X137658895Y-99107979D01*
X137658895Y-98618442D01*
X137772538Y-98618442D01*
X137778171Y-98741020D01*
X137795072Y-98854663D01*
X137823240Y-98959369D01*
X137861048Y-99047224D01*
X137908035Y-99121966D01*
X137969664Y-99184688D01*
X138051399Y-99236483D01*
X138149962Y-99271231D01*
X138262075Y-99282814D01*
X138373751Y-99271450D01*
X138471003Y-99237357D01*
X138551208Y-99185781D01*
X138611745Y-99121966D01*
X138671407Y-99021108D01*
X138714023Y-98903859D01*
X138739593Y-98770220D01*
X138748116Y-98620190D01*
X138742288Y-98504605D01*
X138724804Y-98393293D01*
X138695665Y-98286255D01*
X138659169Y-98197964D01*
X138612619Y-98121911D01*
X138551427Y-98057659D01*
X138471003Y-98004771D01*
X138373314Y-97969367D01*
X138260327Y-97957566D01*
X138146903Y-97969586D01*
X138047902Y-98005646D01*
X137966386Y-98059407D01*
X137940145Y-98087435D01*
X137905412Y-98124533D01*
X137857114Y-98208673D01*
X137813624Y-98319474D01*
X137782809Y-98456282D01*
X137772538Y-98618442D01*
X137658895Y-98618442D01*
X137658895Y-98134149D01*
X137650153Y-98041487D01*
X137625676Y-98003897D01*
X137580219Y-97983791D01*
X137497173Y-97975050D01*
X137398391Y-98020507D01*
X137393146Y-98024003D01*
X137106417Y-98282759D01*
X137043476Y-98385911D01*
X136932888Y-98385911D01*
X136936827Y-98359686D01*
X136908417Y-98211951D01*
X136823185Y-98086944D01*
X136701674Y-98003023D01*
X136595376Y-97982896D01*
X136553939Y-97975050D01*
X136113355Y-97975050D01*
X135976984Y-98022255D01*
X135960375Y-98067712D01*
X135957752Y-98128904D01*
X135957752Y-99099237D01*
X135162254Y-99099237D01*
X135162254Y-98905171D01*
X135380798Y-98905171D01*
X135483367Y-98892738D01*
X135583606Y-98855440D01*
X135681513Y-98793276D01*
X135746639Y-98729680D01*
X135798653Y-98647289D01*
X135832745Y-98550037D01*
X135844110Y-98441858D01*
X135832745Y-98333461D01*
X135798653Y-98235553D01*
X135746639Y-98152507D01*
X135681513Y-98088692D01*
X135583800Y-98026529D01*
X135484144Y-97989231D01*
X135382546Y-97976798D01*
X135009648Y-97976798D01*
X135008399Y-97976798D01*
X134872028Y-98024003D01*
X134855419Y-98070334D01*
X134852796Y-98130652D01*
X134852796Y-99100986D01*
X134769202Y-99100986D01*
X134769202Y-96618410D01*
X134853733Y-96618410D01*
X134864364Y-96710541D01*
X134911315Y-96759708D01*
X135009648Y-96776096D01*
X135100894Y-96764137D01*
X135147846Y-96728259D01*
X135164677Y-96681307D01*
X135167335Y-96620181D01*
X135167335Y-96616638D01*
X135973487Y-96616638D01*
X135984118Y-96708769D01*
X136031070Y-96759265D01*
X136129403Y-96776096D01*
X136595376Y-96776096D01*
X136701978Y-96762808D01*
X136797357Y-96722944D01*
X136881516Y-96656502D01*
X136907931Y-96621953D01*
X137091470Y-96621953D01*
X137137536Y-96733574D01*
X137247385Y-96781412D01*
X137940145Y-96781412D01*
X138049994Y-96760151D01*
X138088087Y-96714085D01*
X138099604Y-96624611D01*
X138088973Y-96534251D01*
X138047337Y-96482870D01*
X137943688Y-96466038D01*
X137619456Y-96466038D01*
X137619456Y-96457179D01*
X137663750Y-96439461D01*
X137773599Y-96379664D01*
X137897623Y-96281774D01*
X137955205Y-96217991D01*
X138003928Y-96136490D01*
X138037149Y-96043472D01*
X138048222Y-95945139D01*
X138033458Y-95823380D01*
X137989164Y-95710873D01*
X137915340Y-95607618D01*
X137817795Y-95525428D01*
X137702335Y-95476114D01*
X137577150Y-95460686D01*
X137568960Y-95459676D01*
X137435684Y-95475917D01*
X137320520Y-95524641D01*
X137223467Y-95605847D01*
X137150135Y-95707526D01*
X137106136Y-95817671D01*
X137091470Y-95936281D01*
X137100329Y-96026641D01*
X137148610Y-96077136D01*
X137247385Y-96093968D01*
X137385583Y-96051445D01*
X137402415Y-96007151D01*
X137405072Y-95948683D01*
X137405072Y-95938052D01*
X137412159Y-95897302D01*
X137459111Y-95814915D01*
X137557444Y-95773278D01*
X137646032Y-95789224D01*
X137692984Y-95823774D01*
X137720446Y-95871611D01*
X137732849Y-95916791D01*
X137716238Y-95994306D01*
X137666407Y-96067391D01*
X137593101Y-96134497D01*
X137506063Y-96194072D01*
X137412159Y-96250326D01*
X137318256Y-96307465D01*
X137231218Y-96370806D01*
X137157911Y-96445663D01*
X137108080Y-96530043D01*
X137091470Y-96621953D01*
X136907931Y-96621953D01*
X136947367Y-96570375D01*
X136987822Y-96471452D01*
X137002882Y-96359732D01*
X136976748Y-96213119D01*
X136898348Y-96081565D01*
X136948843Y-95979246D01*
X136965675Y-95867182D01*
X136936884Y-95717468D01*
X136850510Y-95590787D01*
X136727373Y-95505742D01*
X136619981Y-95485407D01*
X136577659Y-95477394D01*
X136131174Y-95477394D01*
X136039929Y-95489353D01*
X135992977Y-95525231D01*
X135976145Y-95571297D01*
X135973487Y-95633309D01*
X135973487Y-96616638D01*
X135167335Y-96616638D01*
X135167335Y-96419972D01*
X135388806Y-96419972D01*
X135492749Y-96407373D01*
X135594330Y-96369575D01*
X135693549Y-96306579D01*
X135759547Y-96242131D01*
X135812257Y-96158637D01*
X135846806Y-96060083D01*
X135858323Y-95950455D01*
X135846806Y-95840605D01*
X135812257Y-95741387D01*
X135759547Y-95657228D01*
X135693549Y-95592558D01*
X135594527Y-95529562D01*
X135493536Y-95491765D01*
X135390577Y-95479166D01*
X135012727Y-95479166D01*
X135011420Y-95479166D01*
X134920174Y-95491125D01*
X134873222Y-95527003D01*
X134856391Y-95573955D01*
X134853733Y-95635081D01*
X134853733Y-96618410D01*
X134769202Y-96618410D01*
X134769202Y-94135776D01*
X134854695Y-94135776D01*
X134865470Y-94229159D01*
X134913059Y-94278992D01*
X135012727Y-94295604D01*
X135105211Y-94283482D01*
X135152800Y-94247117D01*
X135169860Y-94199528D01*
X135172554Y-94137572D01*
X135172554Y-94133980D01*
X135989650Y-94133980D01*
X136000425Y-94227363D01*
X136048014Y-94278543D01*
X136147681Y-94295604D01*
X136619981Y-94295604D01*
X136728029Y-94282135D01*
X136824704Y-94241729D01*
X136910005Y-94174386D01*
X136976749Y-94087090D01*
X137017754Y-93986823D01*
X137033018Y-93873587D01*
X137006530Y-93724984D01*
X136927065Y-93591644D01*
X136978246Y-93487936D01*
X136991260Y-93401288D01*
X137104851Y-93401288D01*
X137161419Y-93512629D01*
X137270066Y-93575482D01*
X137395773Y-93519812D01*
X137419118Y-93498262D01*
X137419118Y-94139368D01*
X137421812Y-94204915D01*
X137438872Y-94254300D01*
X137577150Y-94300991D01*
X137669634Y-94288869D01*
X137717223Y-94252504D01*
X137734284Y-94204915D01*
X137736977Y-94142959D01*
X137736977Y-93142691D01*
X137727998Y-93047513D01*
X137702857Y-93008903D01*
X137664758Y-92992051D01*
X137656166Y-92988251D01*
X137570864Y-92979272D01*
X137469401Y-93025963D01*
X137464013Y-93029554D01*
X137169500Y-93295335D01*
X137128117Y-93363157D01*
X137104851Y-93401288D01*
X136991260Y-93401288D01*
X136995306Y-93374351D01*
X136966124Y-93222604D01*
X136878578Y-93094204D01*
X136753769Y-93008005D01*
X136645262Y-92987459D01*
X136602023Y-92979272D01*
X136149477Y-92979272D01*
X136056993Y-92991393D01*
X136009404Y-93027759D01*
X135992344Y-93074450D01*
X135989650Y-93137303D01*
X135989650Y-94133980D01*
X135172554Y-94133980D01*
X135172554Y-93934645D01*
X135397031Y-93934645D01*
X135502385Y-93921875D01*
X135605346Y-93883564D01*
X135705911Y-93819713D01*
X135772805Y-93754390D01*
X135826231Y-93669762D01*
X135861249Y-93569870D01*
X135872922Y-93458754D01*
X135861249Y-93347414D01*
X135826231Y-93246848D01*
X135772805Y-93161547D01*
X135705911Y-93096000D01*
X135605545Y-93032148D01*
X135503184Y-92993838D01*
X135398827Y-92981067D01*
X135015890Y-92981067D01*
X135014523Y-92981067D01*
X134922038Y-92993189D01*
X134874449Y-93029554D01*
X134857389Y-93077144D01*
X134854695Y-93139099D01*
X134854695Y-94135776D01*
X134769202Y-94135776D01*
X134769202Y-91653083D01*
X134855684Y-91653083D01*
X134866607Y-91747751D01*
X134914851Y-91798270D01*
X135015890Y-91815110D01*
X135109647Y-91802822D01*
X135157891Y-91765956D01*
X135175186Y-91717712D01*
X135177917Y-91654904D01*
X135177917Y-91651263D01*
X136006257Y-91651263D01*
X136017180Y-91745930D01*
X136065424Y-91797815D01*
X136166463Y-91815110D01*
X136645262Y-91815110D01*
X136754797Y-91801456D01*
X136852802Y-91760494D01*
X136939277Y-91692225D01*
X137006940Y-91603727D01*
X137048509Y-91502081D01*
X137063983Y-91387286D01*
X137037131Y-91236638D01*
X136985866Y-91150618D01*
X137155010Y-91150618D01*
X137160876Y-91278257D01*
X137178474Y-91396591D01*
X137207805Y-91505621D01*
X137247174Y-91597102D01*
X137296101Y-91674930D01*
X137360274Y-91740241D01*
X137445384Y-91794174D01*
X137548016Y-91830357D01*
X137664758Y-91842418D01*
X137781044Y-91830585D01*
X137882311Y-91795084D01*
X137965827Y-91741379D01*
X138028863Y-91674930D01*
X138090989Y-91569908D01*
X138135364Y-91447819D01*
X138161989Y-91308662D01*
X138170864Y-91152438D01*
X138164796Y-91032081D01*
X138146590Y-90916174D01*
X138116248Y-90804717D01*
X138078245Y-90712781D01*
X138029773Y-90633588D01*
X137966055Y-90566683D01*
X137882311Y-90511612D01*
X137780589Y-90474747D01*
X137743735Y-90470897D01*
X137662937Y-90462458D01*
X137544830Y-90474974D01*
X137441743Y-90512523D01*
X137356861Y-90568504D01*
X137293370Y-90636319D01*
X137243078Y-90723931D01*
X137197792Y-90839307D01*
X137165705Y-90981764D01*
X137155010Y-91150618D01*
X136985866Y-91150618D01*
X136956572Y-91101463D01*
X137008457Y-90996328D01*
X137025752Y-90881180D01*
X137012604Y-90775994D01*
X136973159Y-90681326D01*
X136907418Y-90597177D01*
X136780891Y-90509792D01*
X136627057Y-90480664D01*
X136168284Y-90480664D01*
X136074527Y-90492952D01*
X136026283Y-90529818D01*
X136008988Y-90577151D01*
X136006257Y-90640870D01*
X136006257Y-91651263D01*
X135177917Y-91651263D01*
X135177917Y-91449184D01*
X135405483Y-91449184D01*
X135512287Y-91436238D01*
X135616664Y-91397400D01*
X135718614Y-91332670D01*
X135786428Y-91266449D01*
X135840589Y-91180656D01*
X135876089Y-91079389D01*
X135887923Y-90966744D01*
X135876089Y-90853872D01*
X135840589Y-90751922D01*
X135786428Y-90665447D01*
X135718614Y-90598998D01*
X135616866Y-90534268D01*
X135513096Y-90495430D01*
X135407303Y-90482484D01*
X135019142Y-90482484D01*
X135017711Y-90482484D01*
X134923953Y-90494773D01*
X134875709Y-90531638D01*
X134858414Y-90579882D01*
X134855684Y-90642690D01*
X134855684Y-91653083D01*
X134769202Y-91653083D01*
X134769202Y-89170328D01*
X134856700Y-89170328D01*
X134867775Y-89266317D01*
X134916692Y-89317541D01*
X135019142Y-89334616D01*
X135114207Y-89322156D01*
X135163124Y-89284776D01*
X135180660Y-89235859D01*
X135182065Y-89203555D01*
X135977179Y-89203555D01*
X136003945Y-89266317D01*
X136084243Y-89321695D01*
X136183001Y-89353075D01*
X136242070Y-89335539D01*
X136275297Y-89301389D01*
X136303909Y-89247857D01*
X136399897Y-89048497D01*
X136911220Y-89048497D01*
X137007208Y-89247857D01*
X137035820Y-89303235D01*
X137069047Y-89338308D01*
X137128117Y-89354921D01*
X137226874Y-89323540D01*
X137307172Y-89266778D01*
X137333938Y-89203555D01*
X137302557Y-89109413D01*
X137161304Y-88817490D01*
X136837204Y-88147683D01*
X137389316Y-88147683D01*
X137400392Y-88239979D01*
X137444694Y-88293511D01*
X137551758Y-88311971D01*
X137972630Y-88311971D01*
X137932019Y-88395961D01*
X137887256Y-88461953D01*
X137834185Y-88539943D01*
X137776961Y-88627855D01*
X137719737Y-88723613D01*
X137666667Y-88829985D01*
X137621903Y-88949740D01*
X137591445Y-89074571D01*
X137581293Y-89196171D01*
X137584062Y-89258010D01*
X137601598Y-89299543D01*
X137650515Y-89329078D01*
X137743735Y-89336462D01*
X137836954Y-89329078D01*
X137885871Y-89300466D01*
X137904331Y-89259856D01*
X137908022Y-89199863D01*
X137926071Y-89081313D01*
X137980219Y-88939792D01*
X138070464Y-88775299D01*
X138138533Y-88666851D01*
X138206140Y-88559325D01*
X138268671Y-88451569D01*
X138321511Y-88342429D01*
X138357506Y-88241595D01*
X138369505Y-88158758D01*
X138358429Y-88055386D01*
X138309512Y-88002777D01*
X138207063Y-87985241D01*
X137935398Y-87985241D01*
X137542528Y-87985241D01*
X137435464Y-88007392D01*
X137400392Y-88055386D01*
X137389316Y-88147683D01*
X136837204Y-88147683D01*
X136804156Y-88079383D01*
X136743240Y-88007392D01*
X136656482Y-87983395D01*
X136568800Y-88009238D01*
X136506961Y-88077538D01*
X136008560Y-89109413D01*
X135977179Y-89203555D01*
X135182065Y-89203555D01*
X135183429Y-89172174D01*
X135183429Y-88963584D01*
X135414171Y-88963584D01*
X135522465Y-88950457D01*
X135628299Y-88911078D01*
X135731671Y-88845445D01*
X135800432Y-88778299D01*
X135855348Y-88691309D01*
X135891344Y-88588629D01*
X135903342Y-88474413D01*
X135891344Y-88359965D01*
X135855348Y-88256593D01*
X135800432Y-88168911D01*
X135731671Y-88101535D01*
X135628504Y-88035902D01*
X135523286Y-87996522D01*
X135416017Y-87983395D01*
X135022485Y-87983395D01*
X135020987Y-87983395D01*
X134925922Y-87995855D01*
X134877005Y-88033235D01*
X134859469Y-88082152D01*
X134856700Y-88145837D01*
X134856700Y-89170328D01*
X134769202Y-89170328D01*
X134769202Y-86687509D01*
X134857745Y-86687509D01*
X134868977Y-86784855D01*
X134918586Y-86836805D01*
X135022485Y-86854121D01*
X135118896Y-86841485D01*
X135168505Y-86803576D01*
X135186290Y-86753966D01*
X135187714Y-86721205D01*
X135994080Y-86721205D01*
X136021225Y-86784855D01*
X136102659Y-86841017D01*
X136202814Y-86872842D01*
X136262719Y-86855057D01*
X136296416Y-86820424D01*
X136325433Y-86766135D01*
X136422780Y-86563953D01*
X136941338Y-86563953D01*
X137038685Y-86766135D01*
X137067702Y-86822296D01*
X137101399Y-86857865D01*
X137161304Y-86874714D01*
X137261459Y-86842889D01*
X137342893Y-86785323D01*
X137370038Y-86721205D01*
X137338213Y-86625731D01*
X137195445Y-86330676D01*
X137190563Y-86320586D01*
X137444920Y-86320586D01*
X137458649Y-86475239D01*
X137499834Y-86609714D01*
X137568476Y-86724014D01*
X137664158Y-86810856D01*
X137786466Y-86862961D01*
X137935398Y-86880330D01*
X138057601Y-86866185D01*
X138167116Y-86823752D01*
X138263943Y-86753030D01*
X138339345Y-86661300D01*
X138384586Y-86555841D01*
X138399667Y-86436654D01*
X138385002Y-86337747D01*
X138341009Y-86245704D01*
X138267687Y-86160526D01*
X138173772Y-86092404D01*
X138068002Y-86051531D01*
X137950374Y-86037907D01*
X137811842Y-86069731D01*
X137821203Y-86043523D01*
X137855836Y-85978001D01*
X137922293Y-85904991D01*
X138035553Y-85841341D01*
X138184381Y-85815132D01*
X138292960Y-85803900D01*
X138330401Y-85779563D01*
X138352865Y-85730890D01*
X138362226Y-85644776D01*
X138350993Y-85554917D01*
X138307000Y-85501564D01*
X138203101Y-85483779D01*
X138068276Y-85493364D01*
X137945357Y-85522119D01*
X137917985Y-85533935D01*
X137834344Y-85570043D01*
X137735238Y-85637138D01*
X137648038Y-85723402D01*
X137574916Y-85823968D01*
X137518043Y-85933970D01*
X137477419Y-86053407D01*
X137453045Y-86182279D01*
X137444920Y-86320586D01*
X137190563Y-86320586D01*
X136832759Y-85581126D01*
X136770982Y-85508116D01*
X136682995Y-85483779D01*
X136594073Y-85509988D01*
X136531359Y-85579254D01*
X136025905Y-86625731D01*
X135994080Y-86721205D01*
X135187714Y-86721205D01*
X135189098Y-86689381D01*
X135189098Y-86477839D01*
X135423104Y-86477839D01*
X135532931Y-86464526D01*
X135640262Y-86424589D01*
X135745097Y-86358027D01*
X135814831Y-86289932D01*
X135870525Y-86201711D01*
X135907030Y-86097578D01*
X135919198Y-85981745D01*
X135907030Y-85865678D01*
X135870525Y-85760843D01*
X135814831Y-85671920D01*
X135745097Y-85603590D01*
X135640470Y-85537029D01*
X135533763Y-85497092D01*
X135424976Y-85483779D01*
X135025925Y-85483779D01*
X135024357Y-85483779D01*
X134927946Y-85496416D01*
X134878337Y-85534325D01*
X134860553Y-85583934D01*
X134857745Y-85648520D01*
X134857745Y-86687509D01*
X134769202Y-86687509D01*
X134769202Y-84204621D01*
X134858819Y-84204621D01*
X134870213Y-84303365D01*
X134920534Y-84356060D01*
X135025925Y-84373626D01*
X135123719Y-84360808D01*
X135174041Y-84322355D01*
X135192080Y-84272033D01*
X135193525Y-84238802D01*
X136011466Y-84238802D01*
X136039000Y-84303365D01*
X136121604Y-84360333D01*
X136223196Y-84392615D01*
X136283961Y-84374575D01*
X136318142Y-84339445D01*
X136347575Y-84284376D01*
X136446319Y-84079292D01*
X136972321Y-84079292D01*
X137071065Y-84284376D01*
X137100499Y-84341344D01*
X137134679Y-84377423D01*
X137195445Y-84394514D01*
X137297037Y-84362232D01*
X137379640Y-84303840D01*
X137407175Y-84238802D01*
X137377425Y-84149553D01*
X137464142Y-84149553D01*
X137536301Y-84263488D01*
X137551493Y-84276780D01*
X137598966Y-84312860D01*
X137697710Y-84362443D01*
X137804050Y-84392193D01*
X137917985Y-84402109D01*
X138046057Y-84386391D01*
X138159359Y-84339234D01*
X138257892Y-84260640D01*
X138333849Y-84160208D01*
X138379423Y-84047538D01*
X138394615Y-83922631D01*
X138378580Y-83798357D01*
X138370150Y-83778947D01*
X138330473Y-83687587D01*
X138250297Y-83590320D01*
X138150076Y-83514890D01*
X138041837Y-83469632D01*
X137925581Y-83454547D01*
X137859118Y-83458344D01*
X137878108Y-83314026D01*
X138210419Y-83314026D01*
X138272134Y-83311178D01*
X138318658Y-83293138D01*
X138354263Y-83246140D01*
X138366131Y-83154517D01*
X138353313Y-83053874D01*
X138314860Y-83002603D01*
X138265488Y-82984563D01*
X138199026Y-82981715D01*
X138020527Y-82981715D01*
X137731891Y-82979816D01*
X137654984Y-82997855D01*
X137605612Y-83038682D01*
X137578078Y-83089953D01*
X137564785Y-83129831D01*
X137553867Y-83208636D01*
X137524908Y-83422265D01*
X137496424Y-83639217D01*
X137486929Y-83727992D01*
X137507818Y-83774515D01*
X137596118Y-83832432D01*
X137715750Y-83868512D01*
X137819241Y-83824837D01*
X137910389Y-83790656D01*
X138011982Y-83827685D01*
X138056606Y-83928328D01*
X138015780Y-84028021D01*
X137890451Y-84064101D01*
X137771768Y-84024224D01*
X137644540Y-83963458D01*
X137534403Y-84026123D01*
X137464142Y-84149553D01*
X137377425Y-84149553D01*
X137374893Y-84141957D01*
X137230579Y-83843709D01*
X136862184Y-83082358D01*
X136799519Y-83008300D01*
X136710270Y-82983614D01*
X136620071Y-83010198D01*
X136556457Y-83080459D01*
X136043748Y-84141957D01*
X136011466Y-84238802D01*
X135193525Y-84238802D01*
X135194929Y-84206520D01*
X135194929Y-83991942D01*
X135432294Y-83991942D01*
X135543698Y-83978438D01*
X135652569Y-83937928D01*
X135758909Y-83870411D01*
X135829644Y-83801337D01*
X135886137Y-83711851D01*
X135923166Y-83606223D01*
X135935509Y-83488727D01*
X135923166Y-83370994D01*
X135886137Y-83264654D01*
X135829644Y-83174455D01*
X135758909Y-83105145D01*
X135652780Y-83037627D01*
X135544542Y-82997117D01*
X135434193Y-82983614D01*
X135029464Y-82983614D01*
X135027824Y-82983614D01*
X134930029Y-82996431D01*
X134879708Y-83034885D01*
X134861668Y-83085206D01*
X134858819Y-83150719D01*
X134858819Y-84204621D01*
X134769202Y-84204621D01*
X134769202Y-81721664D01*
X134859926Y-81721664D01*
X134871485Y-81821846D01*
X134922539Y-81875308D01*
X135029464Y-81893129D01*
X135128683Y-81880125D01*
X135179737Y-81841112D01*
X135198040Y-81790057D01*
X135199506Y-81756342D01*
X136029358Y-81756342D01*
X136057294Y-81821846D01*
X136141100Y-81879643D01*
X136244172Y-81912395D01*
X136305822Y-81894092D01*
X136340501Y-81858451D01*
X136370362Y-81802580D01*
X136470545Y-81594510D01*
X137004207Y-81594510D01*
X137104389Y-81802580D01*
X137134251Y-81860377D01*
X137168929Y-81896982D01*
X137230579Y-81914321D01*
X137333651Y-81881570D01*
X137417457Y-81822327D01*
X137445393Y-81756342D01*
X137412641Y-81658087D01*
X137266753Y-81356584D01*
X137254165Y-81330568D01*
X137503190Y-81330568D01*
X137512823Y-81413411D01*
X137565322Y-81468319D01*
X137672729Y-81486621D01*
X138194832Y-81486621D01*
X138194832Y-81721664D01*
X138206391Y-81821846D01*
X138231437Y-81860377D01*
X138281528Y-81883496D01*
X138370150Y-81893129D01*
X138463589Y-81881570D01*
X138519460Y-81834369D01*
X138537762Y-81723590D01*
X138537762Y-80652413D01*
X138534872Y-80584983D01*
X138516570Y-80533929D01*
X138464552Y-80493470D01*
X138367260Y-80480948D01*
X138269005Y-80491544D01*
X138216024Y-80529112D01*
X138197721Y-80577277D01*
X138194832Y-80642780D01*
X138194832Y-81168736D01*
X138104491Y-81168736D01*
X137880799Y-81168736D01*
X137998321Y-80698651D01*
X138000247Y-80692871D01*
X138013733Y-80611955D01*
X137980018Y-80537782D01*
X137878873Y-80488654D01*
X137790250Y-80475168D01*
X137723783Y-80496360D01*
X137689105Y-80540672D01*
X137668876Y-80608102D01*
X137508970Y-81253505D01*
X137503190Y-81330568D01*
X137254165Y-81330568D01*
X136892465Y-80583056D01*
X136828888Y-80507920D01*
X136738339Y-80482874D01*
X136646826Y-80509846D01*
X136582286Y-80581130D01*
X136062110Y-81658087D01*
X136029358Y-81756342D01*
X135199506Y-81756342D01*
X135200930Y-81723590D01*
X135200930Y-81505887D01*
X135441752Y-81505887D01*
X135554778Y-81492187D01*
X135665235Y-81451087D01*
X135773123Y-81382586D01*
X135844888Y-81312507D01*
X135902204Y-81221717D01*
X135939772Y-81114551D01*
X135952295Y-80995344D01*
X135939772Y-80875896D01*
X135902204Y-80768008D01*
X135844888Y-80676495D01*
X135773123Y-80606175D01*
X135665449Y-80537675D01*
X135555634Y-80496574D01*
X135443679Y-80482874D01*
X135033109Y-80482874D01*
X135031391Y-80482874D01*
X134932172Y-80495879D01*
X134881118Y-80534892D01*
X134862815Y-80585946D01*
X134859926Y-80652413D01*
X134859926Y-81721664D01*
X134769202Y-81721664D01*
X134769202Y-79238633D01*
X134861064Y-79238633D01*
X134872795Y-79340295D01*
X134924604Y-79394548D01*
X135033109Y-79412632D01*
X135133794Y-79399435D01*
X135185603Y-79359846D01*
X135204176Y-79308037D01*
X135205663Y-79273823D01*
X136047779Y-79273823D01*
X136076128Y-79340295D01*
X136161172Y-79398947D01*
X136265767Y-79432182D01*
X136328329Y-79413609D01*
X136363520Y-79377441D01*
X136393823Y-79320745D01*
X136495486Y-79109599D01*
X137037034Y-79109599D01*
X137138697Y-79320745D01*
X137169000Y-79379396D01*
X137204191Y-79416542D01*
X137266753Y-79434137D01*
X137371348Y-79400902D01*
X137456392Y-79340784D01*
X137484741Y-79273823D01*
X137451505Y-79174116D01*
X137361636Y-78988386D01*
X137562943Y-78988386D01*
X137584448Y-79093959D01*
X137588358Y-79113509D01*
X137609864Y-79164341D01*
X137658251Y-79242054D01*
X137713481Y-79303149D01*
X137826440Y-79379179D01*
X137956776Y-79424797D01*
X138104491Y-79440003D01*
X138253292Y-79424905D01*
X138384280Y-79379613D01*
X138497456Y-79304127D01*
X138584347Y-79205397D01*
X138636482Y-79090375D01*
X138653860Y-78959060D01*
X138637731Y-78859353D01*
X138589343Y-78771376D01*
X138527759Y-78707837D01*
X138470085Y-78665803D01*
X138470085Y-78652118D01*
X138554804Y-78590751D01*
X138605635Y-78508313D01*
X138622579Y-78404804D01*
X138607156Y-78294561D01*
X138560887Y-78191921D01*
X138555159Y-78184863D01*
X138483771Y-78096884D01*
X138379936Y-78020854D01*
X138253509Y-77975236D01*
X138104491Y-77960030D01*
X138007472Y-77966873D01*
X137919739Y-77987401D01*
X137790706Y-78048008D01*
X137709571Y-78125232D01*
X137666560Y-78186816D01*
X137621594Y-78319759D01*
X137646032Y-78389652D01*
X137719346Y-78450748D01*
X137826874Y-78485939D01*
X137901166Y-78461500D01*
X137955907Y-78388186D01*
X137967638Y-78364726D01*
X138018469Y-78317804D01*
X138128929Y-78294344D01*
X138237435Y-78331490D01*
X138276536Y-78409692D01*
X138239390Y-78466877D01*
X138127952Y-78485939D01*
X138026289Y-78495714D01*
X137972037Y-78548989D01*
X137953952Y-78657983D01*
X137967149Y-78758179D01*
X138006739Y-78808522D01*
X138057570Y-78828072D01*
X138146525Y-78831982D01*
X138259918Y-78872061D01*
X138307816Y-78964926D01*
X138258940Y-79059746D01*
X138196378Y-79091271D01*
X138106446Y-79101779D01*
X138024334Y-79090049D01*
X137916806Y-78996206D01*
X137858155Y-78894544D01*
X137754537Y-78874993D01*
X137610841Y-78903342D01*
X137562943Y-78988386D01*
X137361636Y-78988386D01*
X137304011Y-78869295D01*
X136923641Y-78083198D01*
X136859125Y-78006951D01*
X136767237Y-77981536D01*
X136674373Y-78008907D01*
X136608878Y-78081243D01*
X136081015Y-79174116D01*
X136047779Y-79273823D01*
X135205663Y-79273823D01*
X135207108Y-79240588D01*
X135207108Y-79019667D01*
X135451489Y-79019667D01*
X135566186Y-79005764D01*
X135678275Y-78964057D01*
X135787758Y-78894544D01*
X135860583Y-78823429D01*
X135918746Y-78731297D01*
X135956870Y-78622548D01*
X135969577Y-78501579D01*
X135956870Y-78380366D01*
X135918746Y-78270883D01*
X135860583Y-78178018D01*
X135787758Y-78106659D01*
X135678492Y-78037146D01*
X135567054Y-77995438D01*
X135453444Y-77981536D01*
X135036862Y-77981536D01*
X135035064Y-77981536D01*
X134934379Y-77994732D01*
X134882570Y-78034322D01*
X134863997Y-78086131D01*
X134861064Y-78153580D01*
X134861064Y-79238633D01*
X134769202Y-79238633D01*
X134769202Y-76755524D01*
X134862237Y-76755524D01*
X134874144Y-76858712D01*
X134926730Y-76913778D01*
X135036862Y-76932134D01*
X135139058Y-76918739D01*
X135191644Y-76878556D01*
X135210495Y-76825970D01*
X135212005Y-76791243D01*
X136066753Y-76791243D01*
X136095527Y-76858712D01*
X136181847Y-76918243D01*
X136288011Y-76951978D01*
X136351511Y-76933126D01*
X136387230Y-76896415D01*
X136417987Y-76838868D01*
X136521175Y-76624556D01*
X137070847Y-76624556D01*
X137174034Y-76838868D01*
X137204792Y-76898399D01*
X137240511Y-76936103D01*
X137304011Y-76953962D01*
X137410175Y-76920228D01*
X137496495Y-76859208D01*
X137525269Y-76791243D01*
X137514685Y-76759493D01*
X137604644Y-76759493D01*
X137656237Y-76884509D01*
X137779269Y-76938087D01*
X138555159Y-76938087D01*
X138678191Y-76914274D01*
X138720855Y-76862681D01*
X138733753Y-76762470D01*
X138721847Y-76661267D01*
X138675214Y-76603720D01*
X138559128Y-76584868D01*
X138195987Y-76584868D01*
X138195987Y-76574946D01*
X138245597Y-76555103D01*
X138368628Y-76488130D01*
X138507534Y-76378493D01*
X138572027Y-76307056D01*
X138626597Y-76215774D01*
X138663804Y-76111595D01*
X138676206Y-76001462D01*
X138659670Y-75865091D01*
X138610060Y-75739083D01*
X138527378Y-75623439D01*
X138418127Y-75531386D01*
X138288812Y-75476154D01*
X138139433Y-75457743D01*
X137990164Y-75475933D01*
X137861179Y-75530504D01*
X137752480Y-75621454D01*
X137670349Y-75735335D01*
X137621070Y-75858697D01*
X137604644Y-75991540D01*
X137614566Y-76092743D01*
X137668640Y-76149298D01*
X137779269Y-76168149D01*
X137880472Y-76156243D01*
X137934050Y-76120524D01*
X137952902Y-76070915D01*
X137955878Y-76005431D01*
X137955878Y-75993524D01*
X137963816Y-75947884D01*
X138016402Y-75855610D01*
X138126534Y-75808978D01*
X138225753Y-75826837D01*
X138278339Y-75865532D01*
X138309097Y-75919110D01*
X138322987Y-75969712D01*
X138304384Y-76056528D01*
X138248573Y-76138384D01*
X138166470Y-76213542D01*
X138068987Y-76280267D01*
X137963816Y-76343271D01*
X137858644Y-76407267D01*
X137761161Y-76478208D01*
X137679058Y-76562048D01*
X137623247Y-76656554D01*
X137604644Y-76759493D01*
X137514685Y-76759493D01*
X137491534Y-76690040D01*
X136955753Y-75582759D01*
X136890269Y-75505368D01*
X136797003Y-75479571D01*
X136702745Y-75507353D01*
X136636269Y-75580774D01*
X136100487Y-76690040D01*
X136066753Y-76791243D01*
X135212005Y-76791243D01*
X135213472Y-76757509D01*
X135213472Y-76533274D01*
X135461519Y-76533274D01*
X135577935Y-76519163D01*
X135691706Y-76476830D01*
X135802831Y-76406274D01*
X135876749Y-76334093D01*
X135935784Y-76240579D01*
X135974480Y-76130198D01*
X135987378Y-76007415D01*
X135974480Y-75884384D01*
X135935784Y-75773259D01*
X135876749Y-75679001D01*
X135802831Y-75606571D01*
X135691927Y-75536016D01*
X135578817Y-75493682D01*
X135463503Y-75479571D01*
X135038847Y-75479571D01*
X134936652Y-75492966D01*
X134884066Y-75533149D01*
X134865214Y-75585735D01*
X134862237Y-75654196D01*
X134862237Y-76755524D01*
X134769202Y-76755524D01*
X134769202Y-75044332D01*
X134851884Y-75044332D01*
X138748116Y-75044332D01*
X138830798Y-75044332D01*
X138830798Y-102155668D01*
G37*
G36*
X137744178Y-90807562D02*
G01*
X137802207Y-90876173D01*
X137837025Y-90990525D01*
X137848631Y-91150618D01*
X137848631Y-91161541D01*
X137836911Y-91317651D01*
X137801752Y-91429158D01*
X137743154Y-91496063D01*
X137661116Y-91518364D01*
X137580672Y-91495437D01*
X137523212Y-91426655D01*
X137488735Y-91312019D01*
X137477243Y-91151528D01*
X137488849Y-90991037D01*
X137523667Y-90876401D01*
X137581696Y-90807619D01*
X137662937Y-90784692D01*
X137744178Y-90807562D01*
G37*
G36*
X136673480Y-90821102D02*
G01*
X136703519Y-90884821D01*
X136698057Y-90950360D01*
X136610672Y-90988591D01*
X136498710Y-91014078D01*
X136465030Y-91118758D01*
X136497799Y-91223439D01*
X136596108Y-91248926D01*
X136698057Y-91263490D01*
X136731737Y-91299901D01*
X136741750Y-91369081D01*
X136713077Y-91461928D01*
X136627057Y-91492877D01*
X136328490Y-91492877D01*
X136328490Y-90802897D01*
X136583364Y-90802897D01*
X136673480Y-90821102D01*
G37*
G36*
X136647816Y-93315089D02*
G01*
X136677447Y-93377942D01*
X136672059Y-93442592D01*
X136585860Y-93480304D01*
X136475418Y-93505445D01*
X136442195Y-93608705D01*
X136474520Y-93711964D01*
X136571494Y-93737105D01*
X136672059Y-93751472D01*
X136705282Y-93787388D01*
X136715159Y-93855629D01*
X136686875Y-93947216D01*
X136602023Y-93977744D01*
X136307509Y-93977744D01*
X136307509Y-93297131D01*
X136558923Y-93297131D01*
X136647816Y-93315089D01*
G37*
G36*
X138338347Y-98288987D02*
G01*
X138394075Y-98354878D01*
X138427512Y-98464696D01*
X138438658Y-98618442D01*
X138438658Y-98628932D01*
X138427403Y-98778853D01*
X138393638Y-98885939D01*
X138337363Y-98950191D01*
X138258578Y-98971608D01*
X138181323Y-98949590D01*
X138126141Y-98883535D01*
X138093032Y-98773444D01*
X138081995Y-98619316D01*
X138093141Y-98465188D01*
X138126578Y-98355097D01*
X138182307Y-98289042D01*
X138260327Y-98267024D01*
X138338347Y-98288987D01*
G37*
G36*
X136622839Y-95808714D02*
G01*
X136652073Y-95870725D01*
X136646758Y-95934509D01*
X136561713Y-95971716D01*
X136452749Y-95996521D01*
X136419972Y-96098397D01*
X136451864Y-96200273D01*
X136547539Y-96225078D01*
X136646758Y-96239252D01*
X136679535Y-96274687D01*
X136689280Y-96342014D01*
X136661375Y-96432374D01*
X136577659Y-96462494D01*
X136287090Y-96462494D01*
X136287090Y-95790996D01*
X136535136Y-95790996D01*
X136622839Y-95808714D01*
G37*
G36*
X136598522Y-98301991D02*
G01*
X136627370Y-98363183D01*
X136622125Y-98426123D01*
X136538204Y-98462839D01*
X136430680Y-98487315D01*
X136398336Y-98587845D01*
X136429806Y-98688376D01*
X136524217Y-98712852D01*
X136622125Y-98726839D01*
X136654469Y-98761806D01*
X136664085Y-98828243D01*
X136636548Y-98917409D01*
X136553939Y-98947131D01*
X136267210Y-98947131D01*
X136267210Y-98284507D01*
X136511979Y-98284507D01*
X136598522Y-98301991D01*
G37*
G36*
X136574839Y-100794933D02*
G01*
X136603311Y-100855327D01*
X136598134Y-100917447D01*
X136515308Y-100953683D01*
X136409187Y-100977841D01*
X136377265Y-101077060D01*
X136408324Y-101176279D01*
X136501504Y-101200436D01*
X136598134Y-101214240D01*
X136630057Y-101248751D01*
X136639547Y-101314322D01*
X136612370Y-101402325D01*
X136530838Y-101431659D01*
X136247849Y-101431659D01*
X136247849Y-100777678D01*
X136489425Y-100777678D01*
X136574839Y-100794933D01*
G37*
G36*
X135580581Y-75875454D02*
G01*
X135638128Y-76007415D01*
X135580581Y-76138384D01*
X135463503Y-76182040D01*
X135213472Y-76182040D01*
X135213472Y-75830806D01*
X135461519Y-75830806D01*
X135580581Y-75875454D01*
G37*
G36*
X135568792Y-78371568D02*
G01*
X135625489Y-78501579D01*
X135568792Y-78630612D01*
X135453444Y-78673623D01*
X135207108Y-78673623D01*
X135207108Y-78327580D01*
X135451489Y-78327580D01*
X135568792Y-78371568D01*
G37*
G36*
X135557347Y-80867227D02*
G01*
X135613217Y-80995344D01*
X135557347Y-81122498D01*
X135443679Y-81164883D01*
X135200930Y-81164883D01*
X135200930Y-80823879D01*
X135441752Y-80823879D01*
X135557347Y-80867227D01*
G37*
G36*
X135546230Y-83362449D02*
G01*
X135601298Y-83488727D01*
X135546230Y-83614056D01*
X135434193Y-83655832D01*
X135194929Y-83655832D01*
X135194929Y-83319723D01*
X135432294Y-83319723D01*
X135546230Y-83362449D01*
G37*
G36*
X135535427Y-85857254D02*
G01*
X135589717Y-85981745D01*
X135535427Y-86105300D01*
X135424976Y-86146486D01*
X135189098Y-86146486D01*
X135189098Y-85815132D01*
X135423104Y-85815132D01*
X135535427Y-85857254D01*
G37*
G36*
X135524926Y-88351658D02*
G01*
X135578458Y-88474413D01*
X135524926Y-88596244D01*
X135416017Y-88636854D01*
X135183429Y-88636854D01*
X135183429Y-88310125D01*
X135414171Y-88310125D01*
X135524926Y-88351658D01*
G37*
G36*
X135514715Y-90845679D02*
G01*
X135567510Y-90966744D01*
X135514715Y-91086899D01*
X135407303Y-91126951D01*
X135177917Y-91126951D01*
X135177917Y-90804717D01*
X135405483Y-90804717D01*
X135514715Y-90845679D01*
G37*
G36*
X135504780Y-93339332D02*
G01*
X135556859Y-93458754D01*
X135504780Y-93577278D01*
X135398827Y-93616786D01*
X135172554Y-93616786D01*
X135172554Y-93298927D01*
X135397031Y-93298927D01*
X135504780Y-93339332D01*
G37*
G36*
X135495111Y-95832632D02*
G01*
X135546493Y-95950455D01*
X135495111Y-96067391D01*
X135390577Y-96106370D01*
X135167335Y-96106370D01*
X135167335Y-95792768D01*
X135388806Y-95792768D01*
X135495111Y-95832632D01*
G37*
G36*
X135485698Y-98325593D02*
G01*
X135536400Y-98441858D01*
X135485698Y-98557249D01*
X135382546Y-98595713D01*
X135162254Y-98595713D01*
X135162254Y-98286255D01*
X135380798Y-98286255D01*
X135485698Y-98325593D01*
G37*
G36*
X135476531Y-100818228D02*
G01*
X135526572Y-100932977D01*
X135476531Y-101046863D01*
X135374724Y-101084825D01*
X135157305Y-101084825D01*
X135157305Y-100779404D01*
X135372998Y-100779404D01*
X135476531Y-100818228D01*
G37*
G36*
X136927972Y-76330868D02*
G01*
X136664050Y-76330868D01*
X136795019Y-76059009D01*
X136927972Y-76330868D01*
G37*
G36*
X138039297Y-86367388D02*
G01*
X138072058Y-86447886D01*
X138036021Y-86541957D01*
X137927910Y-86573313D01*
X137808098Y-86530256D01*
X137790314Y-86489071D01*
X137785634Y-86434782D01*
X137824011Y-86364580D01*
X137934462Y-86329947D01*
X138039297Y-86367388D01*
G37*
G36*
X136896271Y-78820252D02*
G01*
X136636249Y-78820252D01*
X136765282Y-78552410D01*
X136896271Y-78820252D01*
G37*
G36*
X136865493Y-81309376D02*
G01*
X136609258Y-81309376D01*
X136736412Y-81045435D01*
X136865493Y-81309376D01*
G37*
G36*
X136835599Y-83798252D02*
G01*
X136583042Y-83798252D01*
X136708371Y-83538099D01*
X136835599Y-83798252D01*
G37*
G36*
X136806551Y-86286889D02*
G01*
X136557568Y-86286889D01*
X136681123Y-86030418D01*
X136806551Y-86286889D01*
G37*
G36*
X136778313Y-88775299D02*
G01*
X136532804Y-88775299D01*
X136654636Y-88522407D01*
X136778313Y-88775299D01*
G37*
%TO.C,kibuzzard-65D4D9DA*%
G36*
X154106741Y-66288826D02*
G01*
X154106741Y-67025229D01*
X154106741Y-69105182D01*
X154106741Y-69265388D01*
X154106741Y-69348071D01*
X136893259Y-69348071D01*
X136893259Y-69265388D01*
X136893259Y-69082225D01*
X137330483Y-69082225D01*
X137343877Y-69184421D01*
X137384061Y-69237006D01*
X137436647Y-69255858D01*
X137505108Y-69258835D01*
X138606436Y-69258835D01*
X138709623Y-69246928D01*
X138764690Y-69194342D01*
X138783045Y-69084210D01*
X139832447Y-69084210D01*
X139832447Y-69086008D01*
X139845644Y-69186693D01*
X139885234Y-69238502D01*
X139937043Y-69257075D01*
X140004492Y-69260008D01*
X141089544Y-69260008D01*
X141191207Y-69248277D01*
X141245459Y-69196469D01*
X141263543Y-69087963D01*
X142333786Y-69087963D01*
X142333786Y-69089681D01*
X142346790Y-69188900D01*
X142385803Y-69239954D01*
X142436858Y-69258257D01*
X142503325Y-69261146D01*
X143572575Y-69261146D01*
X143672757Y-69249587D01*
X143726220Y-69198533D01*
X143744041Y-69091608D01*
X144834525Y-69091608D01*
X144834525Y-69093248D01*
X144847343Y-69191043D01*
X144885796Y-69241364D01*
X144936118Y-69259404D01*
X145001630Y-69262253D01*
X146055533Y-69262253D01*
X146154277Y-69250859D01*
X146206972Y-69200538D01*
X146224537Y-69095147D01*
X147334691Y-69095147D01*
X147334691Y-69096715D01*
X147347327Y-69193126D01*
X147385236Y-69242735D01*
X147434845Y-69260519D01*
X147499431Y-69263328D01*
X148538420Y-69263328D01*
X148635767Y-69252095D01*
X148687716Y-69202486D01*
X148705033Y-69098587D01*
X149834307Y-69098587D01*
X149834307Y-69100085D01*
X149846767Y-69195150D01*
X149884147Y-69244067D01*
X149933064Y-69261603D01*
X149996748Y-69264372D01*
X151021240Y-69264372D01*
X151117228Y-69253297D01*
X151168453Y-69204380D01*
X151185528Y-69101931D01*
X152333396Y-69101931D01*
X152333396Y-69103362D01*
X152345684Y-69197119D01*
X152382550Y-69245363D01*
X152430794Y-69262658D01*
X152493602Y-69265388D01*
X153503995Y-69265388D01*
X153598662Y-69254465D01*
X153649182Y-69206221D01*
X153666022Y-69105182D01*
X153653733Y-69011425D01*
X153616867Y-68963181D01*
X153568623Y-68945886D01*
X153505815Y-68943155D01*
X153300096Y-68943155D01*
X153300096Y-68715589D01*
X153287150Y-68608785D01*
X153248312Y-68504408D01*
X153183582Y-68402458D01*
X153117360Y-68334644D01*
X153031568Y-68280483D01*
X152930301Y-68244983D01*
X152817656Y-68233149D01*
X152704783Y-68244983D01*
X152602834Y-68280483D01*
X152516359Y-68334644D01*
X152449909Y-68402458D01*
X152385179Y-68504206D01*
X152346342Y-68607976D01*
X152333396Y-68713769D01*
X152333396Y-69101931D01*
X151185528Y-69101931D01*
X151173068Y-69006865D01*
X151135687Y-68957948D01*
X151086770Y-68940412D01*
X151023086Y-68937643D01*
X150814496Y-68937643D01*
X150814496Y-68706901D01*
X150801369Y-68598607D01*
X150761989Y-68492774D01*
X150696356Y-68389401D01*
X150629210Y-68320641D01*
X150542221Y-68265724D01*
X150439541Y-68229728D01*
X150325324Y-68217730D01*
X150210876Y-68229728D01*
X150107504Y-68265724D01*
X150019823Y-68320641D01*
X149952446Y-68389401D01*
X149886813Y-68492568D01*
X149847433Y-68597786D01*
X149834307Y-68705056D01*
X149834307Y-69098587D01*
X148705033Y-69098587D01*
X148692396Y-69002176D01*
X148654487Y-68952567D01*
X148604878Y-68934782D01*
X148540292Y-68931974D01*
X148328750Y-68931974D01*
X148328750Y-68697968D01*
X148315438Y-68588141D01*
X148275501Y-68480810D01*
X148208939Y-68375975D01*
X148140843Y-68306241D01*
X148052623Y-68250547D01*
X147948490Y-68214042D01*
X147832657Y-68201874D01*
X147716589Y-68214042D01*
X147611754Y-68250547D01*
X147522832Y-68306241D01*
X147454502Y-68375975D01*
X147387940Y-68480602D01*
X147348003Y-68587309D01*
X147334691Y-68696096D01*
X147334691Y-69095147D01*
X146224537Y-69095147D01*
X146211719Y-68997353D01*
X146173266Y-68947031D01*
X146122945Y-68928992D01*
X146057432Y-68926143D01*
X145842853Y-68926143D01*
X145842853Y-68688778D01*
X145829350Y-68577374D01*
X145788840Y-68468503D01*
X145721322Y-68362163D01*
X145652249Y-68291428D01*
X145562762Y-68234935D01*
X145457135Y-68197906D01*
X145339639Y-68185563D01*
X145221905Y-68197906D01*
X145115566Y-68234935D01*
X145025367Y-68291428D01*
X144956056Y-68362163D01*
X144888539Y-68468292D01*
X144848029Y-68576530D01*
X144834525Y-68686879D01*
X144834525Y-69091608D01*
X143744041Y-69091608D01*
X143731036Y-68992389D01*
X143692023Y-68941335D01*
X143640969Y-68923032D01*
X143574502Y-68920142D01*
X143356799Y-68920142D01*
X143356799Y-68679320D01*
X143343098Y-68566294D01*
X143301998Y-68455837D01*
X143233498Y-68347949D01*
X143163418Y-68276184D01*
X143072628Y-68218868D01*
X142965462Y-68181300D01*
X142846255Y-68168777D01*
X142726808Y-68181300D01*
X142618919Y-68218868D01*
X142527407Y-68276184D01*
X142457087Y-68347949D01*
X142388586Y-68455623D01*
X142347486Y-68565438D01*
X142333786Y-68677393D01*
X142333786Y-69087963D01*
X141263543Y-69087963D01*
X141250347Y-68987278D01*
X141210757Y-68935469D01*
X141158948Y-68916896D01*
X141091499Y-68913964D01*
X140870579Y-68913964D01*
X140870579Y-68669583D01*
X140856676Y-68554887D01*
X140814968Y-68442797D01*
X140745455Y-68333314D01*
X140674340Y-68260489D01*
X140582209Y-68202326D01*
X140473459Y-68164202D01*
X140352490Y-68151495D01*
X140231277Y-68164202D01*
X140121795Y-68202326D01*
X140028930Y-68260489D01*
X139957571Y-68333314D01*
X139888058Y-68442580D01*
X139846350Y-68554018D01*
X139832447Y-68667628D01*
X139832447Y-69084210D01*
X138783045Y-69084210D01*
X138769651Y-68982014D01*
X138729467Y-68929428D01*
X138676881Y-68910577D01*
X138608420Y-68907600D01*
X138384186Y-68907600D01*
X138384186Y-68659553D01*
X138370075Y-68543137D01*
X138327742Y-68429366D01*
X138257186Y-68318241D01*
X138185004Y-68244323D01*
X138091491Y-68185288D01*
X137981110Y-68146592D01*
X137858327Y-68133694D01*
X137735295Y-68146592D01*
X137624170Y-68185288D01*
X137529913Y-68244323D01*
X137457483Y-68318241D01*
X137386927Y-68429145D01*
X137344594Y-68542255D01*
X137330483Y-68657569D01*
X137330483Y-69082225D01*
X136893259Y-69082225D01*
X136893259Y-67828100D01*
X137328498Y-67828100D01*
X137341893Y-67930296D01*
X137382077Y-67982881D01*
X137433670Y-68001733D01*
X137503123Y-68004710D01*
X138604452Y-68004710D01*
X138707639Y-67992803D01*
X138764194Y-67940217D01*
X138779565Y-67850417D01*
X139830492Y-67850417D01*
X139843689Y-67951102D01*
X139883279Y-68002911D01*
X139934110Y-68021484D01*
X140002537Y-68024416D01*
X141087589Y-68024416D01*
X141189252Y-68012686D01*
X141244970Y-67960877D01*
X141260169Y-67872084D01*
X142331859Y-67872084D01*
X142344864Y-67971303D01*
X142383877Y-68022357D01*
X142433968Y-68040660D01*
X142501398Y-68043549D01*
X143570649Y-68043549D01*
X143670831Y-68031990D01*
X143725738Y-67980936D01*
X143740768Y-67893129D01*
X144832626Y-67893129D01*
X144845444Y-67990923D01*
X144883897Y-68041245D01*
X144933269Y-68059285D01*
X144999731Y-68062133D01*
X146053634Y-68062133D01*
X146152378Y-68050739D01*
X146206497Y-68000418D01*
X146221362Y-67913578D01*
X147332819Y-67913578D01*
X147345455Y-68009989D01*
X147383364Y-68059598D01*
X147432037Y-68077383D01*
X147497559Y-68080191D01*
X148536548Y-68080191D01*
X148633895Y-68068958D01*
X148687248Y-68019349D01*
X148701951Y-67933457D01*
X149832461Y-67933457D01*
X149844921Y-68028522D01*
X149882301Y-68077439D01*
X149930295Y-68094976D01*
X149994903Y-68097744D01*
X151019394Y-68097744D01*
X151115382Y-68086669D01*
X151167991Y-68037752D01*
X151185528Y-67935303D01*
X151185528Y-67490374D01*
X152333396Y-67490374D01*
X152358883Y-67576849D01*
X152426242Y-67637837D01*
X153443917Y-68129379D01*
X153536764Y-68160328D01*
X153598662Y-68133931D01*
X153653278Y-68054738D01*
X153684227Y-67957339D01*
X153666932Y-67899083D01*
X153633252Y-67866313D01*
X153580457Y-67838095D01*
X153383840Y-67743427D01*
X153383840Y-67239141D01*
X153580457Y-67144474D01*
X153635073Y-67116256D01*
X153669663Y-67083486D01*
X153686048Y-67025229D01*
X153655099Y-66927831D01*
X153599117Y-66848638D01*
X153536764Y-66822241D01*
X153443917Y-66853190D01*
X152428063Y-67344732D01*
X152357062Y-67404809D01*
X152344612Y-67449823D01*
X152333396Y-67490374D01*
X151185528Y-67490374D01*
X151185528Y-67449823D01*
X151171683Y-67338759D01*
X151130150Y-67239387D01*
X151060927Y-67151705D01*
X150971195Y-67083098D01*
X150868130Y-67040949D01*
X150751734Y-67025259D01*
X150598983Y-67052486D01*
X150461923Y-67134169D01*
X150355320Y-67081560D01*
X150238565Y-67064024D01*
X150131912Y-67077355D01*
X150035923Y-67117350D01*
X149950600Y-67184009D01*
X149884967Y-67266461D01*
X149845587Y-67361218D01*
X149838000Y-67423100D01*
X149832461Y-67468282D01*
X149832461Y-67933457D01*
X148701951Y-67933457D01*
X148705033Y-67915450D01*
X148705033Y-67423100D01*
X148690992Y-67310465D01*
X148648871Y-67209687D01*
X148578669Y-67120764D01*
X148487667Y-67051186D01*
X148383144Y-67008441D01*
X148265100Y-66992529D01*
X148160058Y-67004801D01*
X148062087Y-67041618D01*
X147971188Y-67102980D01*
X147863077Y-67049626D01*
X147744670Y-67031842D01*
X147636507Y-67045362D01*
X147539160Y-67085923D01*
X147452630Y-67153525D01*
X147386068Y-67237143D01*
X147346131Y-67333242D01*
X147338484Y-67395611D01*
X147332819Y-67441821D01*
X147332819Y-67913578D01*
X146221362Y-67913578D01*
X146224537Y-67895028D01*
X146224537Y-67395611D01*
X146210295Y-67281359D01*
X146167569Y-67179134D01*
X146096360Y-67088935D01*
X146004051Y-67018358D01*
X145898028Y-66974999D01*
X145778290Y-66958858D01*
X145671739Y-66971307D01*
X145572362Y-67008652D01*
X145480159Y-67070895D01*
X145370496Y-67016776D01*
X145250389Y-66998736D01*
X145140674Y-67012450D01*
X145041930Y-67053594D01*
X144954157Y-67122166D01*
X144886640Y-67206984D01*
X144846130Y-67304463D01*
X144838423Y-67367321D01*
X144832626Y-67414600D01*
X144832626Y-67893129D01*
X143740768Y-67893129D01*
X143744041Y-67874011D01*
X143744041Y-67367321D01*
X143729591Y-67251405D01*
X143686243Y-67147691D01*
X143613997Y-67056178D01*
X143520344Y-66984574D01*
X143412776Y-66940584D01*
X143291295Y-66924208D01*
X143183193Y-66936838D01*
X143082368Y-66974727D01*
X142988822Y-67037876D01*
X142877562Y-66982968D01*
X142755706Y-66964666D01*
X142644393Y-66978580D01*
X142544211Y-67020323D01*
X142455160Y-67089893D01*
X142386660Y-67175947D01*
X142345559Y-67274845D01*
X142337792Y-67338194D01*
X142331859Y-67386586D01*
X142331859Y-67872084D01*
X141260169Y-67872084D01*
X141263543Y-67852372D01*
X141263543Y-67338194D01*
X141248881Y-67220565D01*
X141204892Y-67115319D01*
X141131578Y-67022454D01*
X141036541Y-66949791D01*
X140927384Y-66905151D01*
X140804107Y-66888533D01*
X140694407Y-66901349D01*
X140592093Y-66939799D01*
X140497164Y-67003881D01*
X140384260Y-66948162D01*
X140260603Y-66929589D01*
X140147645Y-66943709D01*
X140045982Y-66986068D01*
X139955615Y-67056667D01*
X139886103Y-67143993D01*
X139844395Y-67244352D01*
X139836568Y-67308194D01*
X139830492Y-67357745D01*
X139830492Y-67850417D01*
X138779565Y-67850417D01*
X138783045Y-67830085D01*
X138783045Y-67308194D01*
X138768163Y-67188801D01*
X138723514Y-67081975D01*
X138649100Y-66987717D01*
X138552637Y-66913965D01*
X138441843Y-66868655D01*
X138316717Y-66851788D01*
X138205372Y-66864796D01*
X138101523Y-66903822D01*
X138005170Y-66968866D01*
X137890573Y-66912311D01*
X137765061Y-66893460D01*
X137650408Y-66907791D01*
X137547221Y-66950786D01*
X137455498Y-67022444D01*
X137384943Y-67111079D01*
X137342610Y-67212944D01*
X137328498Y-67328038D01*
X137328498Y-67828100D01*
X136893259Y-67828100D01*
X136893259Y-66262428D01*
X137306670Y-66262428D01*
X137321663Y-66391854D01*
X137366643Y-66507609D01*
X137441608Y-66609694D01*
X137538842Y-66689069D01*
X137650629Y-66736694D01*
X137776967Y-66752569D01*
X137881808Y-66737025D01*
X137979373Y-66690392D01*
X138069663Y-66612671D01*
X138141872Y-66513342D01*
X138185197Y-66401886D01*
X138199639Y-66278303D01*
X138165905Y-66129475D01*
X138193686Y-66139397D01*
X138263139Y-66178588D01*
X138340530Y-66248538D01*
X138407998Y-66366608D01*
X138435780Y-66524366D01*
X138447686Y-66639460D01*
X138500272Y-66696014D01*
X138610405Y-66714866D01*
X138711112Y-66700975D01*
X138767170Y-66659303D01*
X138787014Y-66552147D01*
X138787014Y-66540241D01*
X138776854Y-66398080D01*
X138746374Y-66268461D01*
X138745665Y-66266827D01*
X139803122Y-66266827D01*
X139817024Y-66389344D01*
X139858732Y-66501433D01*
X139885267Y-66540241D01*
X139928245Y-66603096D01*
X140019046Y-66683470D01*
X140124619Y-66731694D01*
X140244963Y-66747769D01*
X140380839Y-66715511D01*
X140465883Y-66663702D01*
X140497164Y-66630466D01*
X140534310Y-66671522D01*
X140646725Y-66750702D01*
X140725172Y-66780761D01*
X140806062Y-66790780D01*
X140943567Y-66773076D01*
X141061522Y-66719964D01*
X141159926Y-66631444D01*
X141233783Y-66520549D01*
X141278098Y-66400314D01*
X141292869Y-66270737D01*
X142335712Y-66270737D01*
X142335712Y-66687239D01*
X142358831Y-66798980D01*
X142408922Y-66835585D01*
X142505251Y-66847145D01*
X142601580Y-66835585D01*
X142657451Y-66789347D01*
X142676717Y-66677606D01*
X142676717Y-66238346D01*
X142764376Y-66280731D01*
X142833251Y-66327450D01*
X142914649Y-66382839D01*
X143006402Y-66442563D01*
X143106343Y-66502287D01*
X143217362Y-66557676D01*
X143342349Y-66604396D01*
X143472634Y-66636184D01*
X143599547Y-66646781D01*
X143664088Y-66643891D01*
X143707436Y-66625588D01*
X143738261Y-66574534D01*
X143745967Y-66477242D01*
X143738261Y-66379950D01*
X143708399Y-66328895D01*
X143666014Y-66309629D01*
X143603400Y-66305776D01*
X143479671Y-66286939D01*
X143331967Y-66230426D01*
X143160288Y-66136237D01*
X143094345Y-66094848D01*
X144834525Y-66094848D01*
X144844248Y-66231609D01*
X144873415Y-66356292D01*
X144922028Y-66468898D01*
X144927676Y-66477242D01*
X144990085Y-66569427D01*
X145077587Y-66657879D01*
X145179597Y-66732051D01*
X145291178Y-66789740D01*
X145412330Y-66830947D01*
X145543051Y-66855671D01*
X145683344Y-66863912D01*
X145840216Y-66849987D01*
X145976622Y-66808211D01*
X146092562Y-66738583D01*
X146169614Y-66653687D01*
X147330947Y-66653687D01*
X147348731Y-66729505D01*
X147388980Y-66778179D01*
X147439526Y-66805323D01*
X147478839Y-66818428D01*
X147556529Y-66829192D01*
X147767135Y-66857741D01*
X147981017Y-66885822D01*
X148068535Y-66895182D01*
X148114400Y-66874589D01*
X148171498Y-66787539D01*
X148207067Y-66669600D01*
X148164010Y-66567573D01*
X148130313Y-66477714D01*
X148166818Y-66377560D01*
X148266037Y-66333566D01*
X148364319Y-66373815D01*
X148399888Y-66497371D01*
X148360575Y-66614374D01*
X148300669Y-66739802D01*
X148362447Y-66848381D01*
X148484131Y-66917646D01*
X148596454Y-66846509D01*
X148609558Y-66831532D01*
X148645127Y-66784731D01*
X148694008Y-66687384D01*
X148723337Y-66582549D01*
X148733113Y-66470226D01*
X148727150Y-66421640D01*
X149814001Y-66421640D01*
X149817428Y-66470226D01*
X149820462Y-66513244D01*
X149839844Y-66596080D01*
X149897068Y-66717912D01*
X149969983Y-66794518D01*
X150028129Y-66835128D01*
X150153653Y-66877585D01*
X150219645Y-66854510D01*
X150277330Y-66785288D01*
X150310557Y-66683762D01*
X150287483Y-66613617D01*
X150218260Y-66561931D01*
X150196109Y-66550855D01*
X150151807Y-66502861D01*
X150129655Y-66398566D01*
X150164728Y-66296117D01*
X150238565Y-66259198D01*
X150292559Y-66294271D01*
X150310557Y-66399489D01*
X150319786Y-66495477D01*
X150370088Y-66546702D01*
X150472998Y-66563776D01*
X150567602Y-66551316D01*
X150615135Y-66513936D01*
X150633594Y-66465942D01*
X150637286Y-66381952D01*
X150675128Y-66274888D01*
X150762810Y-66229663D01*
X150852337Y-66275811D01*
X150892025Y-66419794D01*
X150880949Y-66497323D01*
X150792344Y-66598849D01*
X150696356Y-66654227D01*
X150677897Y-66752061D01*
X150704663Y-66887737D01*
X150784961Y-66932962D01*
X150884641Y-66912657D01*
X150903100Y-66908965D01*
X150951094Y-66888660D01*
X151024470Y-66842973D01*
X151082155Y-66790826D01*
X151153942Y-66684172D01*
X151197013Y-66561110D01*
X151211371Y-66421640D01*
X151198542Y-66295198D01*
X152331575Y-66295198D01*
X152378909Y-66398058D01*
X152382550Y-66403519D01*
X152398903Y-66421640D01*
X152651988Y-66702086D01*
X152759399Y-66767625D01*
X152872272Y-66710278D01*
X152935990Y-66600136D01*
X152879554Y-66472699D01*
X152857707Y-66449032D01*
X153507636Y-66449032D01*
X153574085Y-66446302D01*
X153624150Y-66429007D01*
X153659650Y-66380307D01*
X153671483Y-66288826D01*
X153659195Y-66195069D01*
X153622329Y-66146825D01*
X153574085Y-66129530D01*
X153511277Y-66126799D01*
X152497243Y-66126799D01*
X152400755Y-66135902D01*
X152361614Y-66161389D01*
X152340678Y-66208723D01*
X152331575Y-66295198D01*
X151198542Y-66295198D01*
X151197116Y-66281144D01*
X151154352Y-66157467D01*
X151083078Y-66050608D01*
X150989859Y-65968566D01*
X150881257Y-65919342D01*
X150757272Y-65902933D01*
X150663129Y-65918162D01*
X150580062Y-65963849D01*
X150520070Y-66021996D01*
X150480382Y-66076451D01*
X150467461Y-66076451D01*
X150373088Y-65968464D01*
X150233951Y-65932468D01*
X150129861Y-65947031D01*
X150032949Y-65990718D01*
X149943217Y-66063529D01*
X149871430Y-66161569D01*
X149828359Y-66280939D01*
X149814001Y-66421640D01*
X148727150Y-66421640D01*
X148717617Y-66343967D01*
X148671128Y-66232267D01*
X148593646Y-66135129D01*
X148494635Y-66060247D01*
X148383560Y-66015317D01*
X148260420Y-66000341D01*
X148137905Y-66016149D01*
X148028702Y-66063575D01*
X147932811Y-66142617D01*
X147858449Y-66241420D01*
X147813832Y-66348127D01*
X147798960Y-66462738D01*
X147802704Y-66528260D01*
X147660428Y-66509539D01*
X147660428Y-66181930D01*
X147657620Y-66121088D01*
X147639835Y-66075223D01*
X147503175Y-66028422D01*
X147403957Y-66041058D01*
X147353411Y-66078967D01*
X147335627Y-66127641D01*
X147332819Y-66193162D01*
X147332819Y-66366394D01*
X147332819Y-66369135D01*
X147330947Y-66653687D01*
X146169614Y-66653687D01*
X146180651Y-66641527D01*
X146233504Y-66517464D01*
X146251122Y-66366394D01*
X146236775Y-66242437D01*
X146193732Y-66131350D01*
X146121995Y-66033133D01*
X146028948Y-65956649D01*
X145921975Y-65910758D01*
X145801077Y-65895461D01*
X145700751Y-65910336D01*
X145607387Y-65954961D01*
X145520986Y-66029335D01*
X145451886Y-66124598D01*
X145410426Y-66231887D01*
X145396606Y-66351203D01*
X145428888Y-66491723D01*
X145402303Y-66482229D01*
X145335841Y-66447099D01*
X145261783Y-66379687D01*
X145197219Y-66264802D01*
X145170635Y-66113838D01*
X145159241Y-66003700D01*
X145134555Y-65965722D01*
X145085183Y-65942934D01*
X144997833Y-65933440D01*
X144906684Y-65944833D01*
X144852565Y-65989458D01*
X144834525Y-66094848D01*
X143094345Y-66094848D01*
X143047101Y-66065195D01*
X142934878Y-65994634D01*
X142822414Y-65929371D01*
X142708505Y-65874223D01*
X142603266Y-65836655D01*
X142516811Y-65824132D01*
X142408922Y-65835691D01*
X142354015Y-65886746D01*
X142335712Y-65993671D01*
X142335712Y-66270737D01*
X141292869Y-66270737D01*
X141277989Y-66141161D01*
X141233349Y-66020925D01*
X141158948Y-65910031D01*
X141060218Y-65821510D01*
X140946085Y-65769976D01*
X152329755Y-65769976D01*
X152347050Y-65843707D01*
X152386191Y-65891041D01*
X152435345Y-65917438D01*
X152473576Y-65930182D01*
X152549128Y-65940650D01*
X152753937Y-65968413D01*
X152961933Y-65995721D01*
X153047042Y-66004824D01*
X153091645Y-65984798D01*
X153147171Y-65900143D01*
X153181761Y-65785450D01*
X153139889Y-65686231D01*
X153107120Y-65598846D01*
X153142620Y-65501448D01*
X153239108Y-65458665D01*
X153334686Y-65497807D01*
X153369276Y-65617962D01*
X153331045Y-65731745D01*
X153272788Y-65853720D01*
X153332865Y-65959310D01*
X153451199Y-66026670D01*
X153560431Y-65957490D01*
X153573175Y-65942926D01*
X153607765Y-65897413D01*
X153671938Y-65752681D01*
X153693330Y-65591564D01*
X153678260Y-65468779D01*
X153633050Y-65360155D01*
X153557700Y-65265690D01*
X153461415Y-65192868D01*
X153353397Y-65149176D01*
X153233646Y-65134612D01*
X153114503Y-65149985D01*
X153008306Y-65196105D01*
X152915054Y-65272972D01*
X152842739Y-65369055D01*
X152799349Y-65472825D01*
X152784886Y-65584282D01*
X152788527Y-65648000D01*
X152650167Y-65629795D01*
X152650167Y-65311203D01*
X152647437Y-65252036D01*
X152630142Y-65207433D01*
X152497243Y-65161919D01*
X152400755Y-65174208D01*
X152351601Y-65211074D01*
X152334306Y-65258407D01*
X152331575Y-65322126D01*
X152331575Y-65493255D01*
X152329755Y-65769976D01*
X140946085Y-65769976D01*
X140942590Y-65768398D01*
X140806062Y-65750694D01*
X140724439Y-65761691D01*
X140643793Y-65794683D01*
X140537243Y-65865065D01*
X140497164Y-65909053D01*
X140465883Y-65879727D01*
X140373996Y-65822053D01*
X140254738Y-65793705D01*
X140130918Y-65809346D01*
X140022739Y-65856267D01*
X139930200Y-65934469D01*
X139859601Y-66033959D01*
X139817241Y-66144745D01*
X139803122Y-66266827D01*
X138745665Y-66266827D01*
X138695574Y-66151383D01*
X138624454Y-66046846D01*
X138533014Y-65954850D01*
X138426413Y-65877698D01*
X138309812Y-65817690D01*
X138183208Y-65774828D01*
X138046604Y-65749110D01*
X137899998Y-65740538D01*
X137736067Y-65755090D01*
X137593523Y-65798746D01*
X137472366Y-65871506D01*
X137380313Y-65973151D01*
X137325081Y-66103458D01*
X137306670Y-66262428D01*
X136893259Y-66262428D01*
X136893259Y-65134612D01*
X136893259Y-65051929D01*
X154106741Y-65051929D01*
X154106741Y-65134612D01*
X154106741Y-65591564D01*
X154106741Y-66288826D01*
G37*
G36*
X138398077Y-67234276D02*
G01*
X138431811Y-67328038D01*
X138431811Y-67653475D01*
X137679733Y-67653475D01*
X137679733Y-67375663D01*
X137699577Y-67277436D01*
X137769030Y-67244694D01*
X137840467Y-67250647D01*
X137882139Y-67345897D01*
X137909920Y-67467936D01*
X138024022Y-67504647D01*
X138138123Y-67468928D01*
X138165905Y-67361772D01*
X138181780Y-67250647D01*
X138221467Y-67213936D01*
X138296873Y-67203022D01*
X138398077Y-67234276D01*
G37*
G36*
X140884264Y-67265369D02*
G01*
X140917500Y-67357745D01*
X140917500Y-67678373D01*
X140176536Y-67678373D01*
X140176536Y-67404666D01*
X140196087Y-67307891D01*
X140264513Y-67275633D01*
X140334895Y-67281498D01*
X140375951Y-67375340D01*
X140403322Y-67495576D01*
X140515737Y-67531744D01*
X140628152Y-67496553D01*
X140655523Y-67390981D01*
X140671164Y-67281498D01*
X140710265Y-67245329D01*
X140784556Y-67234577D01*
X140884264Y-67265369D01*
G37*
G36*
X143370285Y-67295556D02*
G01*
X143403036Y-67386586D01*
X143403036Y-67702545D01*
X142672863Y-67702545D01*
X142672863Y-67432824D01*
X142692129Y-67337459D01*
X142759559Y-67305670D01*
X142828916Y-67311450D01*
X142869374Y-67403926D01*
X142896346Y-67522410D01*
X143007125Y-67558052D01*
X143117903Y-67523373D01*
X143144875Y-67419338D01*
X143160288Y-67311450D01*
X143198819Y-67275808D01*
X143272029Y-67265212D01*
X143370285Y-67295556D01*
G37*
G36*
X145856146Y-67324876D02*
G01*
X145888428Y-67414600D01*
X145888428Y-67726024D01*
X145168736Y-67726024D01*
X145168736Y-67460174D01*
X145187725Y-67366178D01*
X145254187Y-67334845D01*
X145322548Y-67340542D01*
X145362426Y-67431690D01*
X145389011Y-67548474D01*
X145498199Y-67583604D01*
X145607387Y-67549424D01*
X145633972Y-67446882D01*
X145649163Y-67340542D01*
X145687142Y-67305412D01*
X145759301Y-67294968D01*
X145856146Y-67324876D01*
G37*
G36*
X148341855Y-67353367D02*
G01*
X148373680Y-67441821D01*
X148373680Y-67748838D01*
X147664172Y-67748838D01*
X147664172Y-67486750D01*
X147682892Y-67394084D01*
X147748414Y-67363195D01*
X147815808Y-67368811D01*
X147855121Y-67458669D01*
X147881330Y-67573801D01*
X147988973Y-67608434D01*
X148096616Y-67574737D01*
X148122825Y-67473646D01*
X148137801Y-67368811D01*
X148175242Y-67334178D01*
X148246380Y-67323882D01*
X148341855Y-67353367D01*
G37*
G36*
X150827417Y-67381062D02*
G01*
X150858798Y-67468282D01*
X150858798Y-67771015D01*
X150159190Y-67771015D01*
X150159190Y-67512585D01*
X150177650Y-67421211D01*
X150242257Y-67390753D01*
X150308711Y-67396291D01*
X150347475Y-67484896D01*
X150373318Y-67598420D01*
X150479459Y-67632570D01*
X150585600Y-67599343D01*
X150611443Y-67499663D01*
X150626211Y-67396291D01*
X150663129Y-67362141D01*
X150733275Y-67351989D01*
X150827417Y-67381062D01*
G37*
G36*
X137989295Y-68540491D02*
G01*
X138032952Y-68657569D01*
X138032952Y-68907600D01*
X137681717Y-68907600D01*
X137681717Y-68659553D01*
X137726366Y-68540491D01*
X137858327Y-68482944D01*
X137989295Y-68540491D01*
G37*
G36*
X140481524Y-68552280D02*
G01*
X140524535Y-68667628D01*
X140524535Y-68913964D01*
X140178491Y-68913964D01*
X140178491Y-68669583D01*
X140222480Y-68552280D01*
X140352490Y-68495583D01*
X140481524Y-68552280D01*
G37*
G36*
X142973410Y-68563725D02*
G01*
X143015794Y-68677393D01*
X143015794Y-68920142D01*
X142674790Y-68920142D01*
X142674790Y-68679320D01*
X142718138Y-68563725D01*
X142846255Y-68507855D01*
X142973410Y-68563725D01*
G37*
G36*
X145464968Y-68574842D02*
G01*
X145506744Y-68686879D01*
X145506744Y-68926143D01*
X145170635Y-68926143D01*
X145170635Y-68688778D01*
X145213360Y-68574842D01*
X145339639Y-68519774D01*
X145464968Y-68574842D01*
G37*
G36*
X147956212Y-68585645D02*
G01*
X147997397Y-68696096D01*
X147997397Y-68931974D01*
X147666044Y-68931974D01*
X147666044Y-68697968D01*
X147708165Y-68585645D01*
X147832657Y-68531355D01*
X147956212Y-68585645D01*
G37*
G36*
X150447155Y-68596146D02*
G01*
X150487766Y-68705056D01*
X150487766Y-68937643D01*
X150161036Y-68937643D01*
X150161036Y-68706901D01*
X150202570Y-68596146D01*
X150325324Y-68542614D01*
X150447155Y-68596146D01*
G37*
G36*
X152937811Y-68606358D02*
G01*
X152977862Y-68713769D01*
X152977862Y-68943155D01*
X152655629Y-68943155D01*
X152655629Y-68715589D01*
X152696591Y-68606358D01*
X152817656Y-68553562D01*
X152937811Y-68606358D01*
G37*
G36*
X140915545Y-66139749D02*
G01*
X140962466Y-66268782D01*
X140915545Y-66399771D01*
X140813882Y-66444737D01*
X140713197Y-66399771D01*
X140667253Y-66269760D01*
X140714175Y-66140727D01*
X140814860Y-66096738D01*
X140915545Y-66139749D01*
G37*
G36*
X137853366Y-66142374D02*
G01*
X137890077Y-66260444D01*
X137850389Y-66372561D01*
X137765061Y-66407288D01*
X137665346Y-66369088D01*
X137632108Y-66254491D01*
X137677748Y-66127491D01*
X137722397Y-66106655D01*
X137779944Y-66101694D01*
X137853366Y-66142374D01*
G37*
G36*
X145907892Y-66264327D02*
G01*
X145939699Y-66373990D01*
X145896023Y-66495521D01*
X145854247Y-66513561D01*
X145799178Y-66518308D01*
X145727969Y-66479380D01*
X145692839Y-66367344D01*
X145730817Y-66261004D01*
X145812471Y-66227773D01*
X145907892Y-66264327D01*
G37*
G36*
X153114402Y-67612349D02*
G01*
X152864990Y-67492195D01*
X153114402Y-67370219D01*
X153114402Y-67612349D01*
G37*
G36*
X140317300Y-66172007D02*
G01*
X140352490Y-66267805D01*
X140317300Y-66365557D01*
X140242030Y-66399771D01*
X140168716Y-66368490D01*
X140135480Y-66271715D01*
X140169693Y-66172985D01*
X140243008Y-66139749D01*
X140317300Y-66172007D01*
G37*
%TO.C,kibuzzard-65D4D9AC*%
G36*
X171220324Y-81063710D02*
G01*
X171140949Y-81063710D01*
X169964163Y-81063710D01*
X168768828Y-81063710D01*
X167735698Y-81063710D01*
X166535991Y-81063710D01*
X165859051Y-81063710D01*
X165779676Y-81063710D01*
X165779676Y-79483077D01*
X165859051Y-79483077D01*
X165885633Y-79568138D01*
X166374731Y-80560510D01*
X166434096Y-80623419D01*
X166518270Y-80647342D01*
X166535991Y-80647342D01*
X166618393Y-80623419D01*
X166677758Y-80560510D01*
X166774267Y-80364694D01*
X167264321Y-80364694D01*
X167310396Y-80466589D01*
X167326344Y-80486082D01*
X167377735Y-80540131D01*
X167457479Y-80595952D01*
X167577982Y-80646456D01*
X167654625Y-80661741D01*
X167735698Y-80666835D01*
X167842220Y-80656400D01*
X167944411Y-80625093D01*
X168042270Y-80572915D01*
X168109610Y-80515100D01*
X168162772Y-80437349D01*
X168189316Y-80364694D01*
X168297451Y-80364694D01*
X168343526Y-80466589D01*
X168359475Y-80486082D01*
X168410865Y-80540131D01*
X168490610Y-80595952D01*
X168611112Y-80646456D01*
X168687755Y-80661741D01*
X168768828Y-80666835D01*
X168875351Y-80656400D01*
X168977541Y-80625093D01*
X169075400Y-80572915D01*
X169142740Y-80515100D01*
X169195903Y-80437349D01*
X169230458Y-80342764D01*
X169241977Y-80234445D01*
X169230680Y-80128341D01*
X169196789Y-80040401D01*
X169146063Y-79973283D01*
X169084261Y-79929645D01*
X168937177Y-79875596D01*
X168790093Y-79842812D01*
X168677565Y-79802054D01*
X168632377Y-79723196D01*
X168670477Y-79646996D01*
X168766170Y-79619528D01*
X168860977Y-79642566D01*
X168888444Y-79665603D01*
X168908824Y-79683324D01*
X169000972Y-79718766D01*
X169063882Y-79696615D01*
X169125019Y-79630161D01*
X169167549Y-79532696D01*
X169112614Y-79445863D01*
X169068312Y-79412194D01*
X168946924Y-79356373D01*
X168854553Y-79335772D01*
X168783423Y-79330968D01*
X168752879Y-79328905D01*
X168628734Y-79341802D01*
X168523295Y-79380493D01*
X168436561Y-79444977D01*
X168372076Y-79526789D01*
X168333386Y-79617461D01*
X168320489Y-79716994D01*
X168331786Y-79822212D01*
X168365677Y-79911038D01*
X168416403Y-79980814D01*
X168478205Y-80028882D01*
X168548203Y-80063659D01*
X168623517Y-80093563D01*
X168768828Y-80133435D01*
X168881356Y-80173308D01*
X168926544Y-80241533D01*
X168885343Y-80342542D01*
X168761740Y-80376212D01*
X168676679Y-80348745D01*
X168605796Y-80291152D01*
X168526938Y-80224698D01*
X168467572Y-80202547D01*
X168373651Y-80245077D01*
X168297451Y-80364694D01*
X168189316Y-80364694D01*
X168197328Y-80342764D01*
X168208847Y-80234445D01*
X168197550Y-80128341D01*
X168163658Y-80040401D01*
X168112932Y-79973283D01*
X168051131Y-79929645D01*
X167904047Y-79875596D01*
X167756963Y-79842812D01*
X167644435Y-79802054D01*
X167599247Y-79723196D01*
X167637347Y-79646996D01*
X167733040Y-79619528D01*
X167827847Y-79642566D01*
X167855314Y-79665603D01*
X167875693Y-79683324D01*
X167967842Y-79718766D01*
X168030751Y-79696615D01*
X168091889Y-79630161D01*
X168134419Y-79532696D01*
X168079484Y-79445863D01*
X168035182Y-79412194D01*
X168029510Y-79409586D01*
X167913793Y-79356373D01*
X167821423Y-79335772D01*
X167719749Y-79328905D01*
X167595604Y-79341802D01*
X167490165Y-79380493D01*
X167403431Y-79444977D01*
X167338946Y-79526789D01*
X167300255Y-79617461D01*
X167287358Y-79716994D01*
X167298656Y-79822212D01*
X167332547Y-79911038D01*
X167383273Y-79980814D01*
X167445075Y-80028882D01*
X167515072Y-80063659D01*
X167590386Y-80093563D01*
X167735698Y-80133435D01*
X167848226Y-80173308D01*
X167893414Y-80241533D01*
X167852213Y-80342542D01*
X167728610Y-80376212D01*
X167643549Y-80348745D01*
X167572665Y-80291152D01*
X167493807Y-80224698D01*
X167434442Y-80202547D01*
X167340521Y-80245077D01*
X167264321Y-80364694D01*
X166774267Y-80364694D01*
X167166856Y-79568138D01*
X167193438Y-79483077D01*
X167167299Y-79423712D01*
X167088884Y-79369663D01*
X166984331Y-79339538D01*
X166906358Y-79387384D01*
X166894597Y-79412586D01*
X166881549Y-79440547D01*
X166527131Y-80216724D01*
X166464221Y-80081159D01*
X166406628Y-79956005D01*
X166345491Y-79823319D01*
X166284575Y-79690634D01*
X166227647Y-79565480D01*
X166183123Y-79468015D01*
X166159421Y-79418396D01*
X166130182Y-79371435D01*
X166100056Y-79346626D01*
X166053096Y-79339538D01*
X165963605Y-79369663D01*
X165885190Y-79423712D01*
X165859051Y-79483077D01*
X165779676Y-79483077D01*
X165779676Y-78107916D01*
X165904357Y-78107916D01*
X165907053Y-78170817D01*
X165924126Y-78219341D01*
X165970852Y-78255734D01*
X166060711Y-78267865D01*
X166153265Y-78255734D01*
X166200890Y-78219341D01*
X166217963Y-78172615D01*
X166220659Y-78109714D01*
X166220659Y-77518445D01*
X166270880Y-77583942D01*
X166336476Y-77670206D01*
X166417449Y-77777237D01*
X166513797Y-77905036D01*
X166625521Y-78053602D01*
X166752621Y-78222935D01*
X166797550Y-78257082D01*
X166894597Y-78267865D01*
X166987152Y-78255734D01*
X167034777Y-78219341D01*
X167051850Y-78172615D01*
X167054546Y-78109714D01*
X167054546Y-78106119D01*
X167198319Y-78106119D01*
X167209102Y-78199572D01*
X167256727Y-78249444D01*
X167356470Y-78266067D01*
X167449024Y-78253936D01*
X167496649Y-78217544D01*
X167513722Y-78169919D01*
X167516418Y-78107916D01*
X167516418Y-77904836D01*
X167742862Y-77904836D01*
X167798574Y-77901242D01*
X167868464Y-78066781D01*
X167915190Y-78175210D01*
X167938753Y-78226530D01*
X167972001Y-78261574D01*
X168029510Y-78278648D01*
X168122064Y-78253487D01*
X168205633Y-78201369D01*
X168233489Y-78138468D01*
X168206531Y-78045015D01*
X168177777Y-77979419D01*
X168305376Y-77979419D01*
X168352102Y-78082756D01*
X168368277Y-78102525D01*
X168420395Y-78157339D01*
X168501267Y-78213949D01*
X168623475Y-78265169D01*
X168701202Y-78280669D01*
X168783423Y-78285836D01*
X168891453Y-78275253D01*
X168995090Y-78243503D01*
X169094333Y-78190586D01*
X169162626Y-78131954D01*
X169216541Y-78053103D01*
X169251586Y-77957179D01*
X169263267Y-77847327D01*
X169251810Y-77739721D01*
X169217439Y-77650537D01*
X169165995Y-77582469D01*
X169103319Y-77538214D01*
X169031882Y-77508336D01*
X168954154Y-77483400D01*
X168804989Y-77450152D01*
X168690869Y-77408817D01*
X168645041Y-77328843D01*
X168683680Y-77251565D01*
X168780727Y-77223709D01*
X168876876Y-77247072D01*
X168904732Y-77270435D01*
X168925399Y-77288407D01*
X169018852Y-77324350D01*
X169082652Y-77301886D01*
X169144654Y-77234492D01*
X169187786Y-77135648D01*
X169151402Y-77078138D01*
X169335154Y-77078138D01*
X169344140Y-77153619D01*
X169380083Y-77195853D01*
X169464550Y-77209332D01*
X169809607Y-77209332D01*
X169809607Y-78111511D01*
X169812303Y-78173513D01*
X169828477Y-78220240D01*
X169875204Y-78257082D01*
X169964163Y-78267865D01*
X170054022Y-78257082D01*
X170101647Y-78220240D01*
X170117821Y-78174412D01*
X170120517Y-78113308D01*
X170120517Y-77209332D01*
X170463777Y-77209332D01*
X170555432Y-77193157D01*
X170585984Y-77154518D01*
X170594970Y-77079935D01*
X170585984Y-77004454D01*
X170550041Y-76962221D01*
X170501087Y-76954409D01*
X170465574Y-76948742D01*
X169466347Y-76948742D01*
X169374692Y-76964916D01*
X169344140Y-77003556D01*
X169335154Y-77078138D01*
X169151402Y-77078138D01*
X169133862Y-77050413D01*
X169132074Y-77047586D01*
X169087145Y-77013440D01*
X168964038Y-76956829D01*
X168870361Y-76935937D01*
X168767248Y-76928973D01*
X168641347Y-76942052D01*
X168534415Y-76981291D01*
X168446454Y-77046688D01*
X168381057Y-77129657D01*
X168341818Y-77221612D01*
X168328739Y-77322553D01*
X168340196Y-77429260D01*
X168374567Y-77519343D01*
X168426011Y-77590107D01*
X168488687Y-77638855D01*
X168559675Y-77674125D01*
X168636055Y-77704452D01*
X168783423Y-77744888D01*
X168897543Y-77785324D01*
X168943371Y-77854515D01*
X168901587Y-77956954D01*
X168776234Y-77991100D01*
X168689970Y-77963244D01*
X168618083Y-77904836D01*
X168538109Y-77837442D01*
X168477904Y-77814978D01*
X168382654Y-77858110D01*
X168305376Y-77979419D01*
X168177777Y-77979419D01*
X168134645Y-77881024D01*
X168084324Y-77762860D01*
X168159206Y-77667410D01*
X168204135Y-77555986D01*
X168219112Y-77428586D01*
X168207430Y-77317162D01*
X168172385Y-77216520D01*
X168119369Y-77131155D01*
X168053772Y-77065558D01*
X167953330Y-77001659D01*
X167850891Y-76963319D01*
X167746456Y-76950539D01*
X167721063Y-76950539D01*
X167358267Y-76950539D01*
X167265713Y-76962670D01*
X167218088Y-76999063D01*
X167201015Y-77046688D01*
X167198319Y-77108690D01*
X167198319Y-78106119D01*
X167054546Y-78106119D01*
X167054546Y-77112284D01*
X167043763Y-77020629D01*
X167021298Y-76982888D01*
X166974571Y-76961322D01*
X166891902Y-76952336D01*
X166806536Y-76963119D01*
X166755317Y-77005353D01*
X166738244Y-77105096D01*
X166738244Y-77712539D01*
X166688722Y-77647691D01*
X166625222Y-77563374D01*
X166547744Y-77459587D01*
X166545250Y-77456227D01*
X166456288Y-77336332D01*
X166350854Y-77193606D01*
X166231442Y-77031412D01*
X166190107Y-76984685D01*
X166146076Y-76962221D01*
X166060711Y-76952336D01*
X165972649Y-76963119D01*
X165921430Y-77005353D01*
X165904357Y-77105096D01*
X165904357Y-78107916D01*
X165779676Y-78107916D01*
X165779676Y-75720725D01*
X165905389Y-75720725D01*
X165916327Y-75815519D01*
X165964635Y-75867473D01*
X166065810Y-75884792D01*
X166545250Y-75884792D01*
X166654932Y-75871119D01*
X166753068Y-75830103D01*
X166839659Y-75761741D01*
X166907413Y-75673125D01*
X166949037Y-75571343D01*
X166964532Y-75456394D01*
X166952582Y-75354106D01*
X166916730Y-75258704D01*
X166897587Y-75230347D01*
X167055681Y-75230347D01*
X167067815Y-75364107D01*
X167104217Y-75488296D01*
X167164888Y-75602915D01*
X167249827Y-75707964D01*
X167352084Y-75795694D01*
X167464709Y-75858359D01*
X167587702Y-75895957D01*
X167721063Y-75908490D01*
X167854140Y-75895786D01*
X167976279Y-75857675D01*
X168087480Y-75794156D01*
X168187743Y-75705229D01*
X168270688Y-75598244D01*
X168329934Y-75480549D01*
X168365482Y-75352144D01*
X168375856Y-75230347D01*
X168468480Y-75230347D01*
X168480614Y-75364107D01*
X168517016Y-75488296D01*
X168577687Y-75602915D01*
X168662626Y-75707964D01*
X168764883Y-75795694D01*
X168877508Y-75858359D01*
X169000501Y-75895957D01*
X169133862Y-75908490D01*
X169266939Y-75895786D01*
X169389078Y-75857675D01*
X169500279Y-75794156D01*
X169600542Y-75705229D01*
X169683487Y-75598244D01*
X169742733Y-75480549D01*
X169778281Y-75352144D01*
X169790130Y-75213028D01*
X169777711Y-75074426D01*
X169740455Y-74947559D01*
X169678360Y-74832427D01*
X169591427Y-74729031D01*
X169531562Y-74679811D01*
X169863049Y-74679811D01*
X169872164Y-74756375D01*
X169908623Y-74799215D01*
X169994303Y-74812887D01*
X170344312Y-74812887D01*
X170344312Y-75728016D01*
X170347047Y-75790909D01*
X170363453Y-75838306D01*
X170410850Y-75875677D01*
X170501087Y-75886615D01*
X170592236Y-75875677D01*
X170640544Y-75838306D01*
X170656951Y-75791820D01*
X170659685Y-75729839D01*
X170659685Y-74812887D01*
X171007872Y-74812887D01*
X171100843Y-74796481D01*
X171131834Y-74757287D01*
X171140949Y-74681634D01*
X171131834Y-74605069D01*
X171095374Y-74562229D01*
X171009695Y-74548557D01*
X169996126Y-74548557D01*
X169903154Y-74564964D01*
X169872164Y-74604158D01*
X169863049Y-74679811D01*
X169531562Y-74679811D01*
X169487632Y-74643693D01*
X169385342Y-74588359D01*
X169374950Y-74582738D01*
X169253381Y-74546164D01*
X169122925Y-74533973D01*
X169095939Y-74536751D01*
X168998963Y-74546734D01*
X168878647Y-74585016D01*
X168766990Y-74645630D01*
X168669006Y-74725385D01*
X168586972Y-74825420D01*
X168523169Y-74946875D01*
X168482152Y-75083826D01*
X168468480Y-75230347D01*
X168375856Y-75230347D01*
X168377331Y-75213028D01*
X168364912Y-75074426D01*
X168327655Y-74947559D01*
X168265561Y-74832427D01*
X168232019Y-74792534D01*
X168178628Y-74729031D01*
X168074833Y-74643693D01*
X167990854Y-74598265D01*
X167962151Y-74582738D01*
X167840582Y-74546164D01*
X167710126Y-74533973D01*
X167586164Y-74546734D01*
X167465848Y-74585016D01*
X167354191Y-74645630D01*
X167256207Y-74725385D01*
X167174173Y-74825420D01*
X167110370Y-74946875D01*
X167069353Y-75083826D01*
X167055681Y-75230347D01*
X166897587Y-75230347D01*
X166856977Y-75170189D01*
X166908932Y-75064912D01*
X166926250Y-74949610D01*
X166913084Y-74844283D01*
X166873586Y-74749489D01*
X166807757Y-74665227D01*
X166726331Y-74600410D01*
X166632752Y-74561520D01*
X166586147Y-74555806D01*
X166527020Y-74548557D01*
X166067633Y-74548557D01*
X165973750Y-74560862D01*
X165925441Y-74597777D01*
X165908123Y-74645174D01*
X165905389Y-74708978D01*
X165905389Y-75720725D01*
X165779676Y-75720725D01*
X165779676Y-72821044D01*
X165878708Y-72821044D01*
X165890961Y-72959989D01*
X165927720Y-73088299D01*
X165983437Y-73200195D01*
X166052562Y-73289896D01*
X166133247Y-73362490D01*
X166223642Y-73423061D01*
X166317505Y-73469761D01*
X166408594Y-73500741D01*
X166497833Y-73518080D01*
X166586147Y-73523860D01*
X166675618Y-73516462D01*
X166768324Y-73494267D01*
X166893167Y-73446180D01*
X166956975Y-73407340D01*
X167015235Y-73361102D01*
X167023082Y-73340758D01*
X167162271Y-73340758D01*
X167173368Y-73435083D01*
X167222380Y-73487794D01*
X167325028Y-73505365D01*
X167990854Y-73505365D01*
X168087028Y-73486869D01*
X168118470Y-73446180D01*
X168127718Y-73367576D01*
X168124563Y-73340758D01*
X168247936Y-73340758D01*
X168259033Y-73435083D01*
X168308045Y-73487794D01*
X168410693Y-73505365D01*
X168505943Y-73492880D01*
X168554956Y-73455428D01*
X168572526Y-73407340D01*
X168575300Y-73342607D01*
X168575300Y-72981952D01*
X168982193Y-73446180D01*
X169095939Y-73523860D01*
X169217082Y-73460051D01*
X169291062Y-73349081D01*
X169230028Y-73233486D01*
X169160556Y-73156615D01*
X169070508Y-73062868D01*
X168959884Y-72952244D01*
X168828684Y-72824743D01*
X168902664Y-72754462D01*
X169008087Y-72652045D01*
X169098713Y-72561187D01*
X169174543Y-72481889D01*
X169235577Y-72414151D01*
X169291062Y-72302255D01*
X169217082Y-72191284D01*
X169095014Y-72127476D01*
X168982193Y-72203306D01*
X168898503Y-72300290D01*
X168802790Y-72409990D01*
X168695056Y-72532404D01*
X168575300Y-72667534D01*
X168575300Y-72314277D01*
X168566053Y-72218102D01*
X168515653Y-72166778D01*
X168412543Y-72149670D01*
X168317293Y-72162155D01*
X168268281Y-72199607D01*
X168250710Y-72248619D01*
X168247936Y-72312428D01*
X168247936Y-73340758D01*
X168124563Y-73340758D01*
X168118470Y-73288971D01*
X168081480Y-73245508D01*
X167992703Y-73231636D01*
X167489635Y-73231636D01*
X167489635Y-72314277D01*
X167480388Y-72218102D01*
X167429988Y-72166778D01*
X167326878Y-72149670D01*
X167231628Y-72162155D01*
X167182616Y-72199607D01*
X167165045Y-72248619D01*
X167162271Y-72312428D01*
X167162271Y-73340758D01*
X167023082Y-73340758D01*
X167040203Y-73296369D01*
X166999514Y-73192797D01*
X166935243Y-73115117D01*
X166875596Y-73089224D01*
X166786820Y-73126214D01*
X166753528Y-73150258D01*
X166680472Y-73179850D01*
X166572276Y-73194646D01*
X166452520Y-73174301D01*
X166337388Y-73113267D01*
X166243062Y-72996748D01*
X166215320Y-72917912D01*
X166206072Y-72829367D01*
X166215320Y-72740821D01*
X166243062Y-72661986D01*
X166335538Y-72547316D01*
X166452982Y-72484895D01*
X166572276Y-72464088D01*
X166688795Y-72479809D01*
X166779422Y-72526971D01*
X166873747Y-72567661D01*
X166934781Y-72542692D01*
X167003213Y-72467787D01*
X167042053Y-72365139D01*
X166993965Y-72277287D01*
X166942179Y-72243996D01*
X166897790Y-72218102D01*
X166761851Y-72163542D01*
X166672843Y-72143428D01*
X166585222Y-72136724D01*
X166463360Y-72147821D01*
X166378633Y-72171046D01*
X166341909Y-72181112D01*
X166220868Y-72236598D01*
X166130011Y-72294626D01*
X166049788Y-72365139D01*
X165981587Y-72452066D01*
X165926795Y-72559338D01*
X165890730Y-72683487D01*
X165878708Y-72821044D01*
X165779676Y-72821044D01*
X165779676Y-70822881D01*
X165879391Y-70822881D01*
X165928189Y-70930799D01*
X165945081Y-70951445D01*
X165999509Y-71008688D01*
X166083968Y-71067809D01*
X166211593Y-71121299D01*
X166292767Y-71137487D01*
X166378633Y-71142883D01*
X166491452Y-71131830D01*
X166599684Y-71098673D01*
X166703327Y-71043410D01*
X166774647Y-70982178D01*
X166830953Y-70899831D01*
X166867551Y-70799655D01*
X166879751Y-70684932D01*
X166867786Y-70572556D01*
X166831891Y-70479417D01*
X166778166Y-70408332D01*
X166712711Y-70362115D01*
X166638107Y-70330912D01*
X166556933Y-70304871D01*
X166475759Y-70284460D01*
X166401155Y-70270149D01*
X166281975Y-70226982D01*
X166234115Y-70143462D01*
X166274468Y-70062757D01*
X166375817Y-70033666D01*
X166476229Y-70058065D01*
X166505320Y-70082464D01*
X166526904Y-70101233D01*
X166624500Y-70138770D01*
X166691128Y-70115309D01*
X166755879Y-70044927D01*
X166800923Y-69941701D01*
X166759364Y-69876011D01*
X166954825Y-69876011D01*
X166975470Y-69967977D01*
X167337702Y-71009627D01*
X167350840Y-71037780D01*
X167402453Y-71094085D01*
X167500987Y-71122238D01*
X167604214Y-71079070D01*
X167634243Y-71041533D01*
X167651135Y-71009627D01*
X167660820Y-70980949D01*
X167686870Y-70903923D01*
X167729287Y-70778549D01*
X167788070Y-70604828D01*
X167863219Y-70382760D01*
X168082810Y-71030272D01*
X168136300Y-71091270D01*
X168232019Y-71122238D01*
X168327739Y-71091270D01*
X168377475Y-71041533D01*
X168390613Y-71009627D01*
X168409443Y-70955198D01*
X168876716Y-70955198D01*
X168899239Y-71075317D01*
X168948975Y-71110507D01*
X169041879Y-71122238D01*
X169385342Y-71122238D01*
X169523584Y-71109452D01*
X169651150Y-71071094D01*
X169768043Y-71007163D01*
X169874261Y-70917661D01*
X169962531Y-70810270D01*
X170025582Y-70692674D01*
X170063412Y-70564873D01*
X170076022Y-70426866D01*
X170063118Y-70289387D01*
X170024408Y-70163169D01*
X169959892Y-70048212D01*
X169869569Y-69944516D01*
X169762236Y-69858709D01*
X169646693Y-69797418D01*
X169522938Y-69760644D01*
X169393868Y-69748654D01*
X169390973Y-69748385D01*
X169043756Y-69746509D01*
X168947098Y-69759177D01*
X168897362Y-69797184D01*
X168879532Y-69845982D01*
X168876716Y-69911671D01*
X168876716Y-70955198D01*
X168409443Y-70955198D01*
X168750968Y-69967977D01*
X168773490Y-69876011D01*
X168742053Y-69808445D01*
X168647741Y-69755893D01*
X168559529Y-69737124D01*
X168496655Y-69756831D01*
X168461933Y-69797184D01*
X168437534Y-69860996D01*
X168231081Y-70491617D01*
X168100373Y-70097219D01*
X168015243Y-69840351D01*
X167962692Y-69779353D01*
X167873541Y-69748385D01*
X167795652Y-69761523D01*
X167699933Y-69870381D01*
X167495357Y-70487863D01*
X167288904Y-69860996D01*
X167246675Y-69769031D01*
X167179108Y-69739001D01*
X167080574Y-69757770D01*
X166986262Y-69808914D01*
X166954825Y-69876011D01*
X166759364Y-69876011D01*
X166742741Y-69849735D01*
X166695820Y-69814075D01*
X166588755Y-69764841D01*
X166567256Y-69754954D01*
X166469425Y-69733136D01*
X166361741Y-69725863D01*
X166230257Y-69739523D01*
X166118585Y-69780500D01*
X166026724Y-69848797D01*
X165958427Y-69935445D01*
X165917450Y-70031477D01*
X165903790Y-70136893D01*
X165915755Y-70248331D01*
X165951650Y-70342408D01*
X166005375Y-70416309D01*
X166070830Y-70467218D01*
X166144965Y-70504051D01*
X166224731Y-70535723D01*
X166304497Y-70560826D01*
X166378633Y-70577952D01*
X166497812Y-70620181D01*
X166545672Y-70692440D01*
X166502035Y-70799420D01*
X166371125Y-70835080D01*
X166281037Y-70805989D01*
X166205963Y-70744991D01*
X166122443Y-70674610D01*
X166059569Y-70651149D01*
X165960096Y-70696193D01*
X165899567Y-70767279D01*
X165879391Y-70822881D01*
X165779676Y-70822881D01*
X165779676Y-67489375D01*
X165861045Y-67489375D01*
X165889620Y-67580815D01*
X166415400Y-68647615D01*
X166479218Y-68715242D01*
X166569705Y-68740960D01*
X166588755Y-68740960D01*
X166677338Y-68715242D01*
X166741155Y-68647615D01*
X167041601Y-68038015D01*
X167371710Y-68038015D01*
X167384331Y-68181128D01*
X167422193Y-68313287D01*
X167479581Y-68428540D01*
X167550780Y-68520932D01*
X167633886Y-68595703D01*
X167726993Y-68658092D01*
X167823671Y-68706193D01*
X167917493Y-68738102D01*
X168009409Y-68755961D01*
X168100373Y-68761915D01*
X168192527Y-68754295D01*
X168288015Y-68731435D01*
X168416603Y-68681905D01*
X168482325Y-68641900D01*
X168542333Y-68594275D01*
X168568050Y-68527600D01*
X168526140Y-68420920D01*
X168459941Y-68340910D01*
X168398505Y-68314240D01*
X168307065Y-68352340D01*
X168272775Y-68377105D01*
X168197528Y-68407585D01*
X168086085Y-68422825D01*
X167962736Y-68401870D01*
X167844150Y-68339005D01*
X167746995Y-68218990D01*
X167718420Y-68137789D01*
X167708895Y-68046587D01*
X167709790Y-68038015D01*
X168665205Y-68038015D01*
X168677826Y-68181128D01*
X168715688Y-68313287D01*
X168773076Y-68428540D01*
X168844275Y-68520932D01*
X168927381Y-68595703D01*
X169020488Y-68658092D01*
X169117166Y-68706193D01*
X169210988Y-68738102D01*
X169302904Y-68755961D01*
X169393868Y-68761915D01*
X169486022Y-68754295D01*
X169581510Y-68731435D01*
X169710098Y-68681905D01*
X169775820Y-68641900D01*
X169835828Y-68594275D01*
X169861545Y-68527600D01*
X169819635Y-68420920D01*
X169753436Y-68340910D01*
X169692000Y-68314240D01*
X169600560Y-68352340D01*
X169566270Y-68377105D01*
X169491023Y-68407585D01*
X169379580Y-68422825D01*
X169256231Y-68401870D01*
X169137645Y-68339005D01*
X169040490Y-68218990D01*
X169011915Y-68137789D01*
X169002390Y-68046587D01*
X169011915Y-67955385D01*
X169040490Y-67874185D01*
X169135740Y-67756075D01*
X169256708Y-67691781D01*
X169379580Y-67670350D01*
X169499595Y-67686542D01*
X169592940Y-67735120D01*
X169690095Y-67777030D01*
X169752960Y-67751312D01*
X169823445Y-67674160D01*
X169863450Y-67568432D01*
X169813920Y-67477945D01*
X169760580Y-67443655D01*
X169714860Y-67416985D01*
X169574843Y-67360787D01*
X169483164Y-67340070D01*
X169392915Y-67333165D01*
X169267397Y-67344595D01*
X169142302Y-67378885D01*
X169017630Y-67436035D01*
X168924047Y-67495804D01*
X168841418Y-67568432D01*
X168771171Y-67657967D01*
X168714735Y-67768457D01*
X168677588Y-67896330D01*
X168665205Y-68038015D01*
X167709790Y-68038015D01*
X167718420Y-67955385D01*
X167746995Y-67874185D01*
X167842245Y-67756075D01*
X167963213Y-67691781D01*
X168086085Y-67670350D01*
X168206100Y-67686542D01*
X168299445Y-67735120D01*
X168396600Y-67777030D01*
X168459465Y-67751312D01*
X168529950Y-67674160D01*
X168569955Y-67568432D01*
X168520425Y-67477945D01*
X168467085Y-67443655D01*
X168421365Y-67416985D01*
X168281348Y-67360787D01*
X168189669Y-67340070D01*
X168099420Y-67333165D01*
X167973902Y-67344595D01*
X167848807Y-67378885D01*
X167724135Y-67436035D01*
X167630552Y-67495804D01*
X167547923Y-67568432D01*
X167477676Y-67657967D01*
X167421240Y-67768457D01*
X167384093Y-67896330D01*
X167371710Y-68038015D01*
X167041601Y-68038015D01*
X167266935Y-67580815D01*
X167295510Y-67489375D01*
X167267411Y-67425557D01*
X167183115Y-67367455D01*
X167070720Y-67335070D01*
X166986900Y-67386505D01*
X166960230Y-67443655D01*
X166579230Y-68278045D01*
X166558513Y-68233991D01*
X166511603Y-68132312D01*
X166449690Y-67997771D01*
X166383968Y-67855135D01*
X166318483Y-67712498D01*
X166257285Y-67577957D01*
X166209422Y-67473182D01*
X166183943Y-67419842D01*
X166152510Y-67369360D01*
X166120125Y-67342690D01*
X166069643Y-67335070D01*
X165973440Y-67367455D01*
X165889144Y-67425557D01*
X165861045Y-67489375D01*
X165779676Y-67489375D01*
X165779676Y-66936290D01*
X165859051Y-66936290D01*
X171140949Y-66936290D01*
X171220324Y-66936290D01*
X171220324Y-81063710D01*
G37*
G36*
X167838873Y-74881704D02*
G01*
X167949846Y-74956902D01*
X168028461Y-75073571D01*
X168054666Y-75223055D01*
X168028689Y-75372082D01*
X167950757Y-75487385D01*
X167840468Y-75561215D01*
X167717417Y-75585825D01*
X167594139Y-75560531D01*
X167483166Y-75484650D01*
X167404551Y-75368208D01*
X167378346Y-75221232D01*
X167404323Y-75074255D01*
X167482255Y-74957813D01*
X167592544Y-74881932D01*
X167715594Y-74856638D01*
X167838873Y-74881704D01*
G37*
G36*
X169251672Y-74881704D02*
G01*
X169362645Y-74956902D01*
X169441260Y-75073571D01*
X169467465Y-75223055D01*
X169441488Y-75372082D01*
X169363556Y-75487385D01*
X169253267Y-75561215D01*
X169130216Y-75585825D01*
X169006938Y-75560531D01*
X168895965Y-75484650D01*
X168817350Y-75368208D01*
X168791145Y-75221232D01*
X168817122Y-75074255D01*
X168895054Y-74957813D01*
X169005343Y-74881932D01*
X169128394Y-74856638D01*
X169251672Y-74881704D01*
G37*
G36*
X169522586Y-70106159D02*
G01*
X169637778Y-70182876D01*
X169717309Y-70297598D01*
X169743820Y-70437188D01*
X169716606Y-70576310D01*
X169634963Y-70689624D01*
X169519537Y-70764933D01*
X169390973Y-70790036D01*
X169208918Y-70790036D01*
X169208918Y-70080587D01*
X169389096Y-70080587D01*
X169522586Y-70106159D01*
G37*
G36*
X166573506Y-74889452D02*
G01*
X166603585Y-74953256D01*
X166598116Y-75018882D01*
X166510614Y-75057165D01*
X166398501Y-75082686D01*
X166364776Y-75187507D01*
X166397590Y-75292327D01*
X166496030Y-75317849D01*
X166598116Y-75332433D01*
X166631841Y-75368892D01*
X166641867Y-75438165D01*
X166613155Y-75531136D01*
X166527020Y-75562126D01*
X166228054Y-75562126D01*
X166228054Y-74871222D01*
X166483269Y-74871222D01*
X166573506Y-74889452D01*
G37*
G36*
X167850692Y-77309074D02*
G01*
X167902810Y-77428586D01*
X167850692Y-77547199D01*
X167746456Y-77586737D01*
X167516418Y-77586737D01*
X167516418Y-77268638D01*
X167742862Y-77268638D01*
X167850692Y-77309074D01*
G37*
D11*
%TO.C,J7*%
X151970000Y-62270000D02*
X151970000Y-64930000D01*
X151970000Y-62270000D02*
X136670000Y-62270000D01*
X154570000Y-62270000D02*
X154570000Y-63600000D01*
X136670000Y-62270000D02*
X136670000Y-64930000D01*
X153240000Y-62270000D02*
X154570000Y-62270000D01*
X151970000Y-64930000D02*
X136670000Y-64930000D01*
D10*
%TO.C,SW1*%
X142050000Y-72800000D02*
X143250000Y-72800000D01*
X142050000Y-74800000D02*
X142050000Y-74000000D01*
X143250000Y-76000000D02*
X142050000Y-76000000D01*
X144450000Y-72800000D02*
X145650000Y-72800000D01*
X145650000Y-74000000D02*
X145650000Y-74800000D01*
X145650000Y-76000000D02*
X144450000Y-76000000D01*
%TO.C,SW4*%
X149800000Y-72800000D02*
X151000000Y-72800000D01*
X149800000Y-74800000D02*
X149800000Y-74000000D01*
X151000000Y-76000000D02*
X149800000Y-76000000D01*
X152200000Y-72800000D02*
X153400000Y-72800000D01*
X153400000Y-74000000D02*
X153400000Y-74800000D01*
X153400000Y-76000000D02*
X152200000Y-76000000D01*
D11*
%TO.C,U2*%
X165550000Y-79110000D02*
X159540000Y-79110000D01*
X163300000Y-72290000D02*
X159540000Y-72290000D01*
X159540000Y-79110000D02*
X159540000Y-77850000D01*
X159540000Y-72290000D02*
X159540000Y-73550000D01*
%TO.C,D2*%
X139715000Y-78440000D02*
X139715000Y-80360000D01*
X139715000Y-80360000D02*
X142400000Y-80360000D01*
X142400000Y-78440000D02*
X139715000Y-78440000D01*
%TO.C,D1*%
X139777500Y-82040000D02*
X139777500Y-83960000D01*
X139777500Y-83960000D02*
X142462500Y-83960000D01*
X142462500Y-82040000D02*
X139777500Y-82040000D01*
%TO.C,J4*%
X132070000Y-74370000D02*
X133400000Y-74370000D01*
X132070000Y-75700000D02*
X132070000Y-74370000D01*
X132070000Y-76970000D02*
X132070000Y-102430000D01*
X132070000Y-76970000D02*
X134730000Y-76970000D01*
X132070000Y-102430000D02*
X134730000Y-102430000D01*
X134730000Y-76970000D02*
X134730000Y-102430000D01*
%TO.C,J5*%
X159900000Y-101670000D02*
X159900000Y-103000000D01*
X158570000Y-101670000D02*
X159900000Y-101670000D01*
X157300000Y-101670000D02*
X142000000Y-101670000D01*
X157300000Y-101670000D02*
X157300000Y-104330000D01*
X142000000Y-101670000D02*
X142000000Y-104330000D01*
X157300000Y-104330000D02*
X142000000Y-104330000D01*
%TO.C,J3*%
X162270000Y-104330000D02*
X162270000Y-103000000D01*
X163600000Y-104330000D02*
X162270000Y-104330000D01*
X164870000Y-104330000D02*
X172550000Y-104330000D01*
X164870000Y-104330000D02*
X164870000Y-101670000D01*
X172550000Y-104330000D02*
X172550000Y-101670000D01*
X164870000Y-101670000D02*
X172550000Y-101670000D01*
%TO.C,C5*%
X153188748Y-81065000D02*
X153711252Y-81065000D01*
X153188748Y-82535000D02*
X153711252Y-82535000D01*
%TO.C,C2*%
X158738748Y-95865000D02*
X159261252Y-95865000D01*
X158738748Y-97335000D02*
X159261252Y-97335000D01*
%TO.C,RN1*%
X146400000Y-79120000D02*
X145400000Y-79120000D01*
X146400000Y-82480000D02*
X145400000Y-82480000D01*
%TO.C,C9*%
X163611252Y-70335000D02*
X163088748Y-70335000D01*
X163611252Y-68865000D02*
X163088748Y-68865000D01*
%TO.C,SW2*%
X168250000Y-64145000D02*
X168250000Y-63355000D01*
X167650000Y-62345000D02*
X161950000Y-62345000D01*
X166400000Y-65195000D02*
X164700000Y-65195000D01*
X166200000Y-62345000D02*
X166200000Y-61055000D01*
X166200000Y-61055000D02*
X166000000Y-60845000D01*
X166000000Y-60845000D02*
X165100000Y-60845000D01*
X164900000Y-61055000D02*
X165100000Y-60845000D01*
X164900000Y-61055000D02*
X164900000Y-62345000D01*
X163400000Y-65195000D02*
X163200000Y-65195000D01*
X161350000Y-63355000D02*
X161350000Y-64145000D01*
%TO.C,J2*%
X170870000Y-66320000D02*
X172200000Y-66320000D01*
X170870000Y-67650000D02*
X170870000Y-66320000D01*
X170870000Y-68920000D02*
X170870000Y-81680000D01*
X170870000Y-68920000D02*
X173530000Y-68920000D01*
X170870000Y-81680000D02*
X173530000Y-81680000D01*
X173530000Y-68920000D02*
X173530000Y-81680000D01*
%TO.C,RN2*%
X166650000Y-96200000D02*
X166650000Y-97200000D01*
X170010000Y-96200000D02*
X170010000Y-97200000D01*
%TO.C,C10*%
X163211252Y-81535000D02*
X162688748Y-81535000D01*
X163211252Y-80065000D02*
X162688748Y-80065000D01*
%TO.C,C3*%
X161665000Y-85461252D02*
X161665000Y-84938748D01*
X163135000Y-85461252D02*
X163135000Y-84938748D01*
%TO.C,U1*%
X151530000Y-85790000D02*
X151530000Y-86240000D01*
X151530000Y-86240000D02*
X150240000Y-86240000D01*
X151530000Y-93010000D02*
X151530000Y-92560000D01*
X151980000Y-85790000D02*
X151530000Y-85790000D01*
X151980000Y-93010000D02*
X151530000Y-93010000D01*
X158300000Y-85790000D02*
X158750000Y-85790000D01*
X158300000Y-93010000D02*
X158750000Y-93010000D01*
X158750000Y-85790000D02*
X158750000Y-86240000D01*
X158750000Y-93010000D02*
X158750000Y-92560000D01*
%TO.C,C4*%
X153188748Y-78055000D02*
X153711252Y-78055000D01*
X153188748Y-79525000D02*
X153711252Y-79525000D01*
%TO.C,C7*%
X143665000Y-91261252D02*
X143665000Y-90738748D01*
X145135000Y-91261252D02*
X145135000Y-90738748D01*
%TO.C,C8*%
X146865000Y-87111252D02*
X146865000Y-86588748D01*
X148335000Y-87111252D02*
X148335000Y-86588748D01*
%TO.C,Y1*%
X138400000Y-93750000D02*
X142000000Y-93750000D01*
X142000000Y-93750000D02*
X142000000Y-86500000D01*
X138400000Y-86500000D02*
X138400000Y-93750000D01*
%TO.C,C6*%
X145135000Y-86538748D02*
X145135000Y-87061252D01*
X143665000Y-86538748D02*
X143665000Y-87061252D01*
%TO.C,C1*%
X146865000Y-91141252D02*
X146865000Y-90618748D01*
X148335000Y-91141252D02*
X148335000Y-90618748D01*
%TD*%
M02*
