%TF.GenerationSoftware,KiCad,Pcbnew,7.0.8*%
%TF.CreationDate,2024-02-20T11:28:20-06:00*%
%TF.ProjectId,CH32V103DevBoard,43483332-5631-4303-9344-6576426f6172,rev?*%
%TF.SameCoordinates,Original*%
%TF.FileFunction,Copper,L2,Bot*%
%TF.FilePolarity,Positive*%
%FSLAX46Y46*%
G04 Gerber Fmt 4.6, Leading zero omitted, Abs format (unit mm)*
G04 Created by KiCad (PCBNEW 7.0.8) date 2024-02-20 11:28:20*
%MOMM*%
%LPD*%
G01*
G04 APERTURE LIST*
%TA.AperFunction,ComponentPad*%
%ADD10R,1.700000X1.700000*%
%TD*%
%TA.AperFunction,ComponentPad*%
%ADD11O,1.700000X1.700000*%
%TD*%
%TA.AperFunction,ComponentPad*%
%ADD12O,2.100000X1.000000*%
%TD*%
%TA.AperFunction,ComponentPad*%
%ADD13O,1.800000X1.000000*%
%TD*%
%TA.AperFunction,ViaPad*%
%ADD14C,0.800000*%
%TD*%
%TA.AperFunction,Conductor*%
%ADD15C,0.250000*%
%TD*%
G04 APERTURE END LIST*
D10*
%TO.P,J7,1,Pin_1*%
%TO.N,PA15*%
X153240000Y-63600000D03*
D11*
%TO.P,J7,2,Pin_2*%
%TO.N,PB3*%
X150700000Y-63600000D03*
%TO.P,J7,3,Pin_3*%
%TO.N,PB5*%
X148160000Y-63600000D03*
%TO.P,J7,4,Pin_4*%
%TO.N,PB6*%
X145620000Y-63600000D03*
%TO.P,J7,5,Pin_5*%
%TO.N,PB7*%
X143080000Y-63600000D03*
%TO.P,J7,6,Pin_6*%
%TO.N,PB8*%
X140540000Y-63600000D03*
%TO.P,J7,7,Pin_7*%
%TO.N,PB9*%
X138000000Y-63600000D03*
%TD*%
D10*
%TO.P,J4,1,Pin_1*%
%TO.N,PA2*%
X133400000Y-75700000D03*
D11*
%TO.P,J4,2,Pin_2*%
%TO.N,PA3*%
X133400000Y-78240000D03*
%TO.P,J4,3,Pin_3*%
%TO.N,PA4*%
X133400000Y-80780000D03*
%TO.P,J4,4,Pin_4*%
%TO.N,PA5*%
X133400000Y-83320000D03*
%TO.P,J4,5,Pin_5*%
%TO.N,PA6*%
X133400000Y-85860000D03*
%TO.P,J4,6,Pin_6*%
%TO.N,PA7*%
X133400000Y-88400000D03*
%TO.P,J4,7,Pin_7*%
%TO.N,PB0*%
X133400000Y-90940000D03*
%TO.P,J4,8,Pin_8*%
%TO.N,PB1*%
X133400000Y-93480000D03*
%TO.P,J4,9,Pin_9*%
%TO.N,PB2*%
X133400000Y-96020000D03*
%TO.P,J4,10,Pin_10*%
%TO.N,PB10*%
X133400000Y-98560000D03*
%TO.P,J4,11,Pin_11*%
%TO.N,PB11*%
X133400000Y-101100000D03*
%TD*%
D10*
%TO.P,J5,1,Pin_1*%
%TO.N,PA10*%
X158570000Y-103000000D03*
D11*
%TO.P,J5,2,Pin_2*%
%TO.N,PA9*%
X156030000Y-103000000D03*
%TO.P,J5,3,Pin_3*%
%TO.N,PA8*%
X153490000Y-103000000D03*
%TO.P,J5,4,Pin_4*%
%TO.N,PB15*%
X150950000Y-103000000D03*
%TO.P,J5,5,Pin_5*%
%TO.N,PB14*%
X148410000Y-103000000D03*
%TO.P,J5,6,Pin_6*%
%TO.N,PB13*%
X145870000Y-103000000D03*
%TO.P,J5,7,Pin_7*%
%TO.N,PB12*%
X143330000Y-103000000D03*
%TD*%
D10*
%TO.P,J3,1,Pin_1*%
%TO.N,PB7*%
X163600000Y-103000000D03*
D11*
%TO.P,J3,2,Pin_2*%
%TO.N,PB6*%
X166140000Y-103000000D03*
%TO.P,J3,3,Pin_3*%
%TO.N,VDDA*%
X168680000Y-103000000D03*
%TO.P,J3,4,Pin_4*%
%TO.N,VSSA*%
X171220000Y-103000000D03*
%TD*%
D10*
%TO.P,J2,1,Pin_1*%
%TO.N,VDDA*%
X172200000Y-67650000D03*
D11*
%TO.P,J2,2,Pin_2*%
%TO.N,SWDIO*%
X172200000Y-70190000D03*
%TO.P,J2,3,Pin_3*%
%TO.N,SWCLK*%
X172200000Y-72730000D03*
%TO.P,J2,4,Pin_4*%
%TO.N,BOOT0*%
X172200000Y-75270000D03*
%TO.P,J2,5,Pin_5*%
%TO.N,NRST*%
X172200000Y-77810000D03*
%TO.P,J2,6,Pin_6*%
%TO.N,VSSA*%
X172200000Y-80350000D03*
%TD*%
D12*
%TO.P,J1,S1,SHIELD*%
%TO.N,VSSA*%
X166612500Y-93220000D03*
D13*
X170762500Y-93220000D03*
D12*
X166612500Y-84580000D03*
D13*
X170762500Y-84580000D03*
%TD*%
D14*
%TO.N,VSSA*%
X163500000Y-90000000D03*
X154000000Y-92000000D03*
%TO.N,VDDA*%
X157890000Y-90500000D03*
X148500000Y-81000000D03*
X151500000Y-81500000D03*
%TO.N,VSSA*%
X154500000Y-80500000D03*
X152500000Y-83650000D03*
X160000000Y-98000000D03*
X160012653Y-94487347D03*
X141500000Y-100000000D03*
X137500000Y-101500000D03*
X135000000Y-66500000D03*
X140500000Y-70000000D03*
X134000000Y-72500000D03*
X169000000Y-67500000D03*
X160500000Y-67000000D03*
X169987347Y-80500000D03*
X168000000Y-71500000D03*
X167000000Y-82500000D03*
X161500000Y-73000000D03*
X161500000Y-78000000D03*
X150000000Y-80000000D03*
X148000000Y-84000000D03*
X146000000Y-87500000D03*
X146000000Y-91000000D03*
X157970713Y-87996112D03*
X157000000Y-92000000D03*
%TO.N,PB6*%
X156200000Y-86800000D03*
%TO.N,PB7*%
X155169287Y-86843324D03*
%TO.N,PA15*%
X159400000Y-78900000D03*
%TO.N,PB3*%
X158400000Y-78800000D03*
%TO.N,SWCLK*%
X159000000Y-85100000D03*
X169200000Y-73900000D03*
%TO.N,BOOT0*%
X167548930Y-75525765D03*
X155950032Y-82000000D03*
%TO.N,VUSB*%
X168500000Y-86300000D03*
X167500000Y-90800000D03*
%TO.N,VDDA*%
X166300000Y-74100000D03*
X154000000Y-86650000D03*
X152800000Y-88700000D03*
%TO.N,SWDIO*%
X160900000Y-87400000D03*
%TO.N,PA0*%
X153200000Y-90300000D03*
X150662653Y-84862653D03*
%TO.N,NRST*%
X149374880Y-89550424D03*
X148800000Y-87600000D03*
%TD*%
D15*
%TO.N,VSSA*%
X152000000Y-84150000D02*
X152500000Y-83650000D01*
X152000000Y-88925305D02*
X152000000Y-84150000D01*
X152574695Y-89500000D02*
X152000000Y-88925305D01*
X153425305Y-89500000D02*
X152574695Y-89500000D01*
X154000000Y-90074695D02*
X153425305Y-89500000D01*
X154000000Y-92000000D02*
X154000000Y-90074695D01*
%TO.N,PA0*%
X152388299Y-89950000D02*
X150662653Y-88224354D01*
X152850000Y-89950000D02*
X152388299Y-89950000D01*
X150662653Y-88224354D02*
X150662653Y-84862653D01*
X153200000Y-90300000D02*
X152850000Y-89950000D01*
%TO.N,NRST*%
X148800000Y-85700001D02*
X148800000Y-87600000D01*
X151575001Y-82925000D02*
X148800000Y-85700001D01*
X153925000Y-82925000D02*
X151575001Y-82925000D01*
X159195713Y-88195713D02*
X153925000Y-82925000D01*
X161281862Y-88195713D02*
X159195713Y-88195713D01*
X165722575Y-83755000D02*
X161281862Y-88195713D01*
X168245000Y-83755000D02*
X165722575Y-83755000D01*
X170712347Y-81287653D02*
X168245000Y-83755000D01*
X172200000Y-77810000D02*
X170712347Y-79297653D01*
X170712347Y-79297653D02*
X170712347Y-81287653D01*
%TO.N,VDDA*%
X168680000Y-101290000D02*
X157890000Y-90500000D01*
X168680000Y-103000000D02*
X168680000Y-101290000D01*
X149000000Y-81500000D02*
X148500000Y-81000000D01*
X151500000Y-81500000D02*
X149000000Y-81500000D01*
%TO.N,PB6*%
X156200000Y-86800000D02*
X156200000Y-93060000D01*
%TO.N,PB7*%
X155200000Y-86874037D02*
X155169287Y-86843324D01*
X155200000Y-94600000D02*
X155200000Y-86874037D01*
X163600000Y-103000000D02*
X155200000Y-94600000D01*
%TO.N,PB6*%
X156200000Y-93060000D02*
X166140000Y-103000000D01*
%TO.N,PA15*%
X159400000Y-78900000D02*
X159400000Y-69760000D01*
X159400000Y-69760000D02*
X153240000Y-63600000D01*
%TO.N,PB3*%
X158400000Y-71300000D02*
X150700000Y-63600000D01*
X158400000Y-78800000D02*
X158400000Y-71300000D01*
%TO.N,BOOT0*%
X161374695Y-82000000D02*
X155950032Y-82000000D01*
X167548930Y-75825765D02*
X161374695Y-82000000D01*
X167548930Y-75525765D02*
X167548930Y-75825765D01*
%TO.N,SWCLK*%
X169200000Y-74900000D02*
X159000000Y-85100000D01*
X169200000Y-73900000D02*
X169200000Y-74900000D01*
%TO.N,SWDIO*%
X170350000Y-76586396D02*
X170350000Y-72040000D01*
X160900000Y-87400000D02*
X160900000Y-86036396D01*
X170350000Y-72040000D02*
X172200000Y-70190000D01*
X160900000Y-86036396D02*
X170350000Y-76586396D01*
%TO.N,VUSB*%
X168500000Y-89800000D02*
X168500000Y-86300000D01*
X167500000Y-90800000D02*
X168500000Y-89800000D01*
%TO.N,VDDA*%
X171025000Y-68825000D02*
X172200000Y-67650000D01*
X166700000Y-74100000D02*
X171025000Y-69775000D01*
X166300000Y-74100000D02*
X166700000Y-74100000D01*
X171025000Y-69775000D02*
X171025000Y-68825000D01*
X152800000Y-87850000D02*
X154000000Y-86650000D01*
X152800000Y-88700000D02*
X152800000Y-87850000D01*
%TO.N,NRST*%
X149374880Y-88174880D02*
X149374880Y-89550424D01*
X148800000Y-87600000D02*
X149374880Y-88174880D01*
%TD*%
%TA.AperFunction,Conductor*%
%TO.N,VSSA*%
G36*
X170026663Y-61975450D02*
G01*
X170061716Y-61977171D01*
X170178102Y-61982890D01*
X170371706Y-61993037D01*
X170377514Y-61993618D01*
X170547182Y-62018787D01*
X170722671Y-62046582D01*
X170728014Y-62047673D01*
X170773052Y-62058954D01*
X170897716Y-62090181D01*
X171066382Y-62135376D01*
X171071167Y-62136870D01*
X171218405Y-62189554D01*
X171237317Y-62196321D01*
X171264844Y-62206887D01*
X171399298Y-62258500D01*
X171403564Y-62260325D01*
X171417432Y-62266884D01*
X171563848Y-62336133D01*
X171718030Y-62414693D01*
X171721721Y-62416737D01*
X171874315Y-62508199D01*
X172004014Y-62592426D01*
X172019237Y-62602312D01*
X172022403Y-62604511D01*
X172165658Y-62710756D01*
X172187690Y-62728597D01*
X172299979Y-62819527D01*
X172302552Y-62821733D01*
X172433797Y-62940686D01*
X172435991Y-62942775D01*
X172557223Y-63064007D01*
X172559315Y-63066204D01*
X172678277Y-63197458D01*
X172680477Y-63200026D01*
X172745271Y-63280040D01*
X172789243Y-63334341D01*
X172895487Y-63477595D01*
X172897686Y-63480761D01*
X172948077Y-63558356D01*
X172991802Y-63625688D01*
X173083264Y-63778280D01*
X173085316Y-63781990D01*
X173163866Y-63936151D01*
X173239674Y-64096434D01*
X173241509Y-64100725D01*
X173303678Y-64262682D01*
X173363116Y-64428794D01*
X173364628Y-64433637D01*
X173409828Y-64602326D01*
X173452326Y-64771984D01*
X173453421Y-64777353D01*
X173481219Y-64952864D01*
X173506377Y-65122456D01*
X173506963Y-65128313D01*
X173517122Y-65322158D01*
X173524550Y-65473347D01*
X173524625Y-65476434D01*
X173524062Y-66282043D01*
X173504331Y-66349068D01*
X173451495Y-66394786D01*
X173382329Y-66404681D01*
X173325751Y-66381222D01*
X173292331Y-66356204D01*
X173292328Y-66356202D01*
X173157482Y-66305908D01*
X173157483Y-66305908D01*
X173097883Y-66299501D01*
X173097881Y-66299500D01*
X173097873Y-66299500D01*
X173097864Y-66299500D01*
X171302129Y-66299500D01*
X171302123Y-66299501D01*
X171242516Y-66305908D01*
X171107671Y-66356202D01*
X171107664Y-66356206D01*
X170992455Y-66442452D01*
X170992452Y-66442455D01*
X170906206Y-66557664D01*
X170906202Y-66557671D01*
X170855908Y-66692517D01*
X170849501Y-66752116D01*
X170849500Y-66752135D01*
X170849500Y-68064546D01*
X170829815Y-68131585D01*
X170813181Y-68152227D01*
X170641208Y-68324199D01*
X170628951Y-68334020D01*
X170629134Y-68334241D01*
X170623123Y-68339213D01*
X170575772Y-68389636D01*
X170554889Y-68410519D01*
X170554877Y-68410532D01*
X170550621Y-68416017D01*
X170546837Y-68420447D01*
X170514937Y-68454418D01*
X170514936Y-68454420D01*
X170505284Y-68471976D01*
X170494610Y-68488226D01*
X170482329Y-68504061D01*
X170482324Y-68504068D01*
X170463815Y-68546838D01*
X170461245Y-68552084D01*
X170438803Y-68592906D01*
X170433822Y-68612307D01*
X170427521Y-68630710D01*
X170419562Y-68649102D01*
X170419561Y-68649105D01*
X170412271Y-68695127D01*
X170411087Y-68700846D01*
X170399501Y-68745972D01*
X170399500Y-68745982D01*
X170399500Y-68766016D01*
X170397973Y-68785415D01*
X170394840Y-68805194D01*
X170394840Y-68805195D01*
X170399225Y-68851583D01*
X170399500Y-68857421D01*
X170399500Y-69464546D01*
X170379815Y-69531585D01*
X170363181Y-69552227D01*
X166706556Y-73208851D01*
X166645233Y-73242336D01*
X166586332Y-73239391D01*
X166586159Y-73240207D01*
X166581088Y-73239129D01*
X166580562Y-73239103D01*
X166579805Y-73238857D01*
X166579803Y-73238856D01*
X166579800Y-73238855D01*
X166579799Y-73238855D01*
X166438639Y-73208851D01*
X166394646Y-73199500D01*
X166205354Y-73199500D01*
X166172897Y-73206398D01*
X166020197Y-73238855D01*
X166020192Y-73238857D01*
X165847270Y-73315848D01*
X165847265Y-73315851D01*
X165694129Y-73427111D01*
X165567466Y-73567785D01*
X165472821Y-73731715D01*
X165472818Y-73731722D01*
X165414327Y-73911740D01*
X165414326Y-73911744D01*
X165394540Y-74100000D01*
X165414326Y-74288256D01*
X165414327Y-74288259D01*
X165472818Y-74468277D01*
X165472821Y-74468284D01*
X165567467Y-74632216D01*
X165666782Y-74742516D01*
X165694129Y-74772888D01*
X165847265Y-74884148D01*
X165847270Y-74884151D01*
X166020192Y-74961142D01*
X166020197Y-74961144D01*
X166205354Y-75000500D01*
X166205355Y-75000500D01*
X166394644Y-75000500D01*
X166394646Y-75000500D01*
X166579803Y-74961144D01*
X166579805Y-74961142D01*
X166585987Y-74959135D01*
X166586842Y-74961769D01*
X166643984Y-74954077D01*
X166707276Y-74983671D01*
X166744521Y-75042786D01*
X166743894Y-75112653D01*
X166732624Y-75138648D01*
X166721751Y-75157481D01*
X166721748Y-75157487D01*
X166663953Y-75335364D01*
X166663256Y-75337509D01*
X166649145Y-75471770D01*
X166643470Y-75525765D01*
X166663256Y-75714021D01*
X166663258Y-75714027D01*
X166667444Y-75726911D01*
X166669439Y-75796752D01*
X166637194Y-75852909D01*
X161151923Y-81338181D01*
X161090600Y-81371666D01*
X161064242Y-81374500D01*
X156653780Y-81374500D01*
X156586741Y-81354815D01*
X156561632Y-81333474D01*
X156555905Y-81327114D01*
X156555901Y-81327110D01*
X156402766Y-81215851D01*
X156402761Y-81215848D01*
X156229839Y-81138857D01*
X156229834Y-81138855D01*
X156075752Y-81106105D01*
X156044678Y-81099500D01*
X155855386Y-81099500D01*
X155824312Y-81106105D01*
X155670229Y-81138855D01*
X155670224Y-81138857D01*
X155497302Y-81215848D01*
X155497297Y-81215851D01*
X155344161Y-81327111D01*
X155217498Y-81467785D01*
X155122853Y-81631715D01*
X155122850Y-81631722D01*
X155071923Y-81788460D01*
X155064358Y-81811744D01*
X155044572Y-82000000D01*
X155064358Y-82188256D01*
X155064359Y-82188259D01*
X155122850Y-82368277D01*
X155122853Y-82368284D01*
X155217499Y-82532216D01*
X155316503Y-82642171D01*
X155344161Y-82672888D01*
X155497297Y-82784148D01*
X155497302Y-82784151D01*
X155670224Y-82861142D01*
X155670229Y-82861144D01*
X155855386Y-82900500D01*
X155855387Y-82900500D01*
X156044676Y-82900500D01*
X156044678Y-82900500D01*
X156229835Y-82861144D01*
X156402762Y-82784151D01*
X156555903Y-82672888D01*
X156558820Y-82669647D01*
X156561632Y-82666526D01*
X156621119Y-82629879D01*
X156653780Y-82625500D01*
X160290547Y-82625500D01*
X160357586Y-82645185D01*
X160403341Y-82697989D01*
X160413285Y-82767147D01*
X160384260Y-82830703D01*
X160378228Y-82837181D01*
X159052228Y-84163181D01*
X158990905Y-84196666D01*
X158964547Y-84199500D01*
X158905354Y-84199500D01*
X158872897Y-84206398D01*
X158720197Y-84238855D01*
X158720192Y-84238857D01*
X158547270Y-84315848D01*
X158547265Y-84315851D01*
X158394129Y-84427111D01*
X158267466Y-84567785D01*
X158172821Y-84731715D01*
X158172818Y-84731722D01*
X158129648Y-84864588D01*
X158114326Y-84911744D01*
X158094540Y-85100000D01*
X158114326Y-85288256D01*
X158114327Y-85288259D01*
X158172818Y-85468277D01*
X158172821Y-85468284D01*
X158267467Y-85632216D01*
X158383344Y-85760910D01*
X158394129Y-85772888D01*
X158547265Y-85884148D01*
X158547270Y-85884151D01*
X158720192Y-85961142D01*
X158720197Y-85961144D01*
X158905354Y-86000500D01*
X158905355Y-86000500D01*
X159094644Y-86000500D01*
X159094646Y-86000500D01*
X159279803Y-85961144D01*
X159452730Y-85884151D01*
X159605871Y-85772888D01*
X159732533Y-85632216D01*
X159827179Y-85468284D01*
X159885674Y-85288256D01*
X159903321Y-85120345D01*
X159929905Y-85055732D01*
X159938952Y-85045636D01*
X169512821Y-75471768D01*
X169574142Y-75438285D01*
X169643834Y-75443269D01*
X169699767Y-75485141D01*
X169724184Y-75550605D01*
X169724500Y-75559451D01*
X169724500Y-76275942D01*
X169704815Y-76342981D01*
X169688181Y-76363623D01*
X160516208Y-85535595D01*
X160503951Y-85545416D01*
X160504134Y-85545637D01*
X160498123Y-85550609D01*
X160450772Y-85601032D01*
X160429889Y-85621915D01*
X160429877Y-85621928D01*
X160425621Y-85627413D01*
X160421837Y-85631843D01*
X160389937Y-85665814D01*
X160389936Y-85665816D01*
X160380284Y-85683372D01*
X160369610Y-85699622D01*
X160357329Y-85715457D01*
X160357324Y-85715464D01*
X160338815Y-85758234D01*
X160336245Y-85763480D01*
X160313803Y-85804302D01*
X160308822Y-85823703D01*
X160302521Y-85842106D01*
X160294562Y-85860498D01*
X160294561Y-85860501D01*
X160287271Y-85906523D01*
X160286087Y-85912242D01*
X160274501Y-85957368D01*
X160274500Y-85957378D01*
X160274500Y-85977412D01*
X160272973Y-85996811D01*
X160269958Y-86015849D01*
X160269840Y-86016592D01*
X160272825Y-86048169D01*
X160274225Y-86062979D01*
X160274500Y-86068817D01*
X160274500Y-86701312D01*
X160254815Y-86768351D01*
X160242650Y-86784284D01*
X160167466Y-86867784D01*
X160072821Y-87031715D01*
X160072818Y-87031722D01*
X160014327Y-87211740D01*
X160014326Y-87211744D01*
X160001664Y-87332216D01*
X159994540Y-87400000D01*
X159998035Y-87433252D01*
X159985465Y-87501982D01*
X159937733Y-87553005D01*
X159874714Y-87570213D01*
X159506165Y-87570213D01*
X159439126Y-87550528D01*
X159418484Y-87533894D01*
X156930217Y-85045627D01*
X154425803Y-82541212D01*
X154415980Y-82528950D01*
X154415759Y-82529134D01*
X154410786Y-82523123D01*
X154392159Y-82505631D01*
X154360364Y-82475773D01*
X154349919Y-82465328D01*
X154339475Y-82454883D01*
X154333986Y-82450625D01*
X154329561Y-82446847D01*
X154295582Y-82414938D01*
X154295580Y-82414936D01*
X154295577Y-82414935D01*
X154278029Y-82405288D01*
X154261763Y-82394604D01*
X154245933Y-82382325D01*
X154203168Y-82363818D01*
X154197922Y-82361248D01*
X154157093Y-82338803D01*
X154157092Y-82338802D01*
X154137693Y-82333822D01*
X154119281Y-82327518D01*
X154100898Y-82319562D01*
X154100892Y-82319560D01*
X154054874Y-82312272D01*
X154049152Y-82311087D01*
X154004021Y-82299500D01*
X154004019Y-82299500D01*
X153983984Y-82299500D01*
X153964586Y-82297973D01*
X153957162Y-82296797D01*
X153944805Y-82294840D01*
X153944804Y-82294840D01*
X153898416Y-82299225D01*
X153892578Y-82299500D01*
X152270378Y-82299500D01*
X152203339Y-82279815D01*
X152157584Y-82227011D01*
X152147640Y-82157853D01*
X152176665Y-82094297D01*
X152178228Y-82092528D01*
X152204141Y-82063748D01*
X152232533Y-82032216D01*
X152327179Y-81868284D01*
X152385674Y-81688256D01*
X152405460Y-81500000D01*
X152385674Y-81311744D01*
X152327179Y-81131716D01*
X152232533Y-80967784D01*
X152105871Y-80827112D01*
X152105870Y-80827111D01*
X151952734Y-80715851D01*
X151952729Y-80715848D01*
X151779807Y-80638857D01*
X151779802Y-80638855D01*
X151634001Y-80607865D01*
X151594646Y-80599500D01*
X151405354Y-80599500D01*
X151372897Y-80606398D01*
X151220197Y-80638855D01*
X151220192Y-80638857D01*
X151047270Y-80715848D01*
X151047265Y-80715851D01*
X150894130Y-80827110D01*
X150894126Y-80827114D01*
X150888400Y-80833474D01*
X150828913Y-80870121D01*
X150796252Y-80874500D01*
X149496156Y-80874500D01*
X149429117Y-80854815D01*
X149383362Y-80802011D01*
X149378225Y-80788818D01*
X149327181Y-80631722D01*
X149327180Y-80631721D01*
X149327179Y-80631716D01*
X149232533Y-80467784D01*
X149105871Y-80327112D01*
X149105870Y-80327111D01*
X148952734Y-80215851D01*
X148952729Y-80215848D01*
X148779807Y-80138857D01*
X148779802Y-80138855D01*
X148634001Y-80107865D01*
X148594646Y-80099500D01*
X148405354Y-80099500D01*
X148392788Y-80102171D01*
X148220197Y-80138855D01*
X148220192Y-80138857D01*
X148047270Y-80215848D01*
X148047265Y-80215851D01*
X147894129Y-80327111D01*
X147767466Y-80467785D01*
X147672821Y-80631715D01*
X147672818Y-80631722D01*
X147624640Y-80780000D01*
X147614326Y-80811744D01*
X147594540Y-81000000D01*
X147614326Y-81188256D01*
X147614327Y-81188259D01*
X147672818Y-81368277D01*
X147672821Y-81368284D01*
X147767467Y-81532216D01*
X147857063Y-81631722D01*
X147894129Y-81672888D01*
X148047265Y-81784148D01*
X148047270Y-81784151D01*
X148220192Y-81861142D01*
X148220197Y-81861144D01*
X148405354Y-81900500D01*
X148463652Y-81900500D01*
X148530691Y-81920185D01*
X148548534Y-81934106D01*
X148564650Y-81949240D01*
X148585529Y-81970119D01*
X148591004Y-81974366D01*
X148595446Y-81978160D01*
X148629415Y-82010060D01*
X148629417Y-82010061D01*
X148629418Y-82010062D01*
X148646976Y-82019714D01*
X148663237Y-82030396D01*
X148679064Y-82042673D01*
X148721823Y-82061176D01*
X148727073Y-82063748D01*
X148767904Y-82086195D01*
X148767908Y-82086197D01*
X148767912Y-82086198D01*
X148787311Y-82091179D01*
X148805722Y-82097483D01*
X148824097Y-82105435D01*
X148824100Y-82105435D01*
X148824105Y-82105438D01*
X148870149Y-82112729D01*
X148875832Y-82113906D01*
X148920981Y-82125500D01*
X148941016Y-82125500D01*
X148960413Y-82127026D01*
X148980196Y-82130160D01*
X149026584Y-82125775D01*
X149032422Y-82125500D01*
X150796252Y-82125500D01*
X150863291Y-82145185D01*
X150888400Y-82166526D01*
X150894126Y-82172885D01*
X150894130Y-82172889D01*
X151047265Y-82284148D01*
X151047267Y-82284149D01*
X151047270Y-82284151D01*
X151071278Y-82294840D01*
X151077879Y-82297779D01*
X151131115Y-82343030D01*
X151151436Y-82409879D01*
X151132390Y-82477103D01*
X151122984Y-82490100D01*
X151113711Y-82501310D01*
X151109778Y-82505631D01*
X148416208Y-85199200D01*
X148403951Y-85209021D01*
X148404134Y-85209242D01*
X148398123Y-85214214D01*
X148350772Y-85264637D01*
X148329889Y-85285520D01*
X148329877Y-85285533D01*
X148325621Y-85291018D01*
X148321837Y-85295448D01*
X148289937Y-85329419D01*
X148289936Y-85329421D01*
X148280284Y-85346977D01*
X148269610Y-85363227D01*
X148257329Y-85379062D01*
X148257324Y-85379069D01*
X148238815Y-85421839D01*
X148236245Y-85427085D01*
X148213803Y-85467907D01*
X148208822Y-85487308D01*
X148202521Y-85505711D01*
X148194562Y-85524103D01*
X148194561Y-85524106D01*
X148187271Y-85570128D01*
X148186087Y-85575847D01*
X148174501Y-85620973D01*
X148174500Y-85620983D01*
X148174500Y-85641017D01*
X148172973Y-85660416D01*
X148169840Y-85680195D01*
X148169840Y-85680196D01*
X148174225Y-85726584D01*
X148174500Y-85732422D01*
X148174500Y-86901312D01*
X148154815Y-86968351D01*
X148142650Y-86984284D01*
X148067466Y-87067784D01*
X147972821Y-87231715D01*
X147972818Y-87231722D01*
X147918142Y-87400000D01*
X147914326Y-87411744D01*
X147894540Y-87600000D01*
X147914326Y-87788256D01*
X147914327Y-87788259D01*
X147972818Y-87968277D01*
X147972821Y-87968284D01*
X148067467Y-88132216D01*
X148097005Y-88165021D01*
X148194129Y-88272888D01*
X148347265Y-88384148D01*
X148347270Y-88384151D01*
X148520191Y-88461142D01*
X148520193Y-88461142D01*
X148520197Y-88461144D01*
X148651165Y-88488981D01*
X148712642Y-88522171D01*
X148746419Y-88583334D01*
X148749380Y-88610270D01*
X148749380Y-88851736D01*
X148729695Y-88918775D01*
X148717530Y-88934708D01*
X148642346Y-89018208D01*
X148547701Y-89182139D01*
X148547698Y-89182146D01*
X148513767Y-89286576D01*
X148489206Y-89362168D01*
X148469420Y-89550424D01*
X148489206Y-89738680D01*
X148489207Y-89738683D01*
X148547698Y-89918701D01*
X148547701Y-89918708D01*
X148642347Y-90082640D01*
X148752851Y-90205367D01*
X148769009Y-90223312D01*
X148922145Y-90334572D01*
X148922150Y-90334575D01*
X149095072Y-90411566D01*
X149095077Y-90411568D01*
X149280234Y-90450924D01*
X149280235Y-90450924D01*
X149469524Y-90450924D01*
X149469526Y-90450924D01*
X149654683Y-90411568D01*
X149827610Y-90334575D01*
X149980751Y-90223312D01*
X150107413Y-90082640D01*
X150202059Y-89918708D01*
X150260554Y-89738680D01*
X150280340Y-89550424D01*
X150260554Y-89362168D01*
X150202059Y-89182140D01*
X150107413Y-89018208D01*
X150032230Y-88934708D01*
X150002000Y-88871716D01*
X150000380Y-88851736D01*
X150000380Y-88751783D01*
X150020065Y-88684744D01*
X150072869Y-88638989D01*
X150142027Y-88629045D01*
X150203419Y-88656239D01*
X150238962Y-88685642D01*
X150243285Y-88689576D01*
X151887496Y-90333788D01*
X151897321Y-90346051D01*
X151897542Y-90345869D01*
X151902513Y-90351878D01*
X151928516Y-90376295D01*
X151952934Y-90399226D01*
X151973828Y-90420120D01*
X151979310Y-90424373D01*
X151983742Y-90428157D01*
X152017717Y-90460062D01*
X152035275Y-90469714D01*
X152051532Y-90480393D01*
X152067363Y-90492673D01*
X152084295Y-90500000D01*
X152110132Y-90511182D01*
X152115376Y-90513750D01*
X152156207Y-90536197D01*
X152168822Y-90539435D01*
X152175604Y-90541177D01*
X152194018Y-90547481D01*
X152212403Y-90555438D01*
X152258440Y-90562729D01*
X152264129Y-90563907D01*
X152279338Y-90567812D01*
X152279692Y-90567903D01*
X152339727Y-90603645D01*
X152366775Y-90649682D01*
X152372816Y-90668272D01*
X152372821Y-90668284D01*
X152467467Y-90832216D01*
X152594129Y-90972888D01*
X152747265Y-91084148D01*
X152747270Y-91084151D01*
X152920192Y-91161142D01*
X152920197Y-91161144D01*
X153105354Y-91200500D01*
X153105355Y-91200500D01*
X153294644Y-91200500D01*
X153294646Y-91200500D01*
X153479803Y-91161144D01*
X153652730Y-91084151D01*
X153805871Y-90972888D01*
X153932533Y-90832216D01*
X154027179Y-90668284D01*
X154085674Y-90488256D01*
X154105460Y-90300000D01*
X154085674Y-90111744D01*
X154027179Y-89931716D01*
X153932533Y-89767784D01*
X153805871Y-89627112D01*
X153800214Y-89623002D01*
X153652734Y-89515851D01*
X153652729Y-89515848D01*
X153540542Y-89465899D01*
X153487305Y-89420649D01*
X153466984Y-89353800D01*
X153486029Y-89286576D01*
X153498824Y-89269653D01*
X153532533Y-89232216D01*
X153627179Y-89068284D01*
X153685674Y-88888256D01*
X153705460Y-88700000D01*
X153685674Y-88511744D01*
X153627179Y-88331716D01*
X153532533Y-88167784D01*
X153528715Y-88162529D01*
X153529750Y-88161776D01*
X153502519Y-88105033D01*
X153511144Y-88035698D01*
X153537215Y-87997374D01*
X153947772Y-87586819D01*
X154009095Y-87553334D01*
X154035453Y-87550500D01*
X154094644Y-87550500D01*
X154094646Y-87550500D01*
X154279803Y-87511144D01*
X154396694Y-87459099D01*
X154465943Y-87449815D01*
X154529220Y-87479443D01*
X154539260Y-87489384D01*
X154542632Y-87493129D01*
X154572875Y-87556111D01*
X154574500Y-87576120D01*
X154574500Y-94517255D01*
X154572775Y-94532872D01*
X154573061Y-94532899D01*
X154572326Y-94540665D01*
X154574500Y-94609814D01*
X154574500Y-94639343D01*
X154574501Y-94639360D01*
X154575368Y-94646231D01*
X154575826Y-94652050D01*
X154577290Y-94698624D01*
X154577291Y-94698627D01*
X154582880Y-94717867D01*
X154586824Y-94736911D01*
X154588478Y-94750000D01*
X154589336Y-94756791D01*
X154606490Y-94800119D01*
X154608382Y-94805647D01*
X154621381Y-94850388D01*
X154631580Y-94867634D01*
X154640138Y-94885103D01*
X154647514Y-94903732D01*
X154674898Y-94941423D01*
X154678106Y-94946307D01*
X154701827Y-94986416D01*
X154701833Y-94986424D01*
X154715990Y-95000580D01*
X154728628Y-95015376D01*
X154740405Y-95031586D01*
X154740406Y-95031587D01*
X154776309Y-95061288D01*
X154780620Y-95065210D01*
X160540189Y-100824780D01*
X162213181Y-102497772D01*
X162246666Y-102559095D01*
X162249500Y-102585453D01*
X162249500Y-103897870D01*
X162249501Y-103897876D01*
X162255908Y-103957483D01*
X162306202Y-104092328D01*
X162306206Y-104092335D01*
X162392452Y-104207544D01*
X162392455Y-104207547D01*
X162507664Y-104293793D01*
X162507671Y-104293797D01*
X162642517Y-104344091D01*
X162642516Y-104344091D01*
X162649444Y-104344835D01*
X162702127Y-104350500D01*
X164497872Y-104350499D01*
X164557483Y-104344091D01*
X164692331Y-104293796D01*
X164807546Y-104207546D01*
X164893796Y-104092331D01*
X164942810Y-103960916D01*
X164984681Y-103904984D01*
X165050145Y-103880566D01*
X165118418Y-103895417D01*
X165146673Y-103916569D01*
X165268599Y-104038495D01*
X165351907Y-104096828D01*
X165462165Y-104174032D01*
X165462167Y-104174033D01*
X165462170Y-104174035D01*
X165676337Y-104273903D01*
X165676343Y-104273904D01*
X165676344Y-104273905D01*
X165731285Y-104288626D01*
X165904592Y-104335063D01*
X166081034Y-104350500D01*
X166139999Y-104355659D01*
X166140000Y-104355659D01*
X166140001Y-104355659D01*
X166198966Y-104350500D01*
X166375408Y-104335063D01*
X166603663Y-104273903D01*
X166817830Y-104174035D01*
X167011401Y-104038495D01*
X167178495Y-103871401D01*
X167308425Y-103685842D01*
X167363002Y-103642217D01*
X167432500Y-103635023D01*
X167494855Y-103666546D01*
X167511575Y-103685842D01*
X167641500Y-103871395D01*
X167641505Y-103871401D01*
X167808599Y-104038495D01*
X167891907Y-104096828D01*
X168002165Y-104174032D01*
X168002167Y-104174033D01*
X168002170Y-104174035D01*
X168216337Y-104273903D01*
X168216343Y-104273904D01*
X168216344Y-104273905D01*
X168271285Y-104288626D01*
X168444592Y-104335063D01*
X168621034Y-104350500D01*
X168679999Y-104355659D01*
X168680000Y-104355659D01*
X168680001Y-104355659D01*
X168738966Y-104350500D01*
X168915408Y-104335063D01*
X169143663Y-104273903D01*
X169357830Y-104174035D01*
X169551401Y-104038495D01*
X169718495Y-103871401D01*
X169848730Y-103685405D01*
X169903307Y-103641781D01*
X169972805Y-103634587D01*
X170035160Y-103666110D01*
X170051879Y-103685405D01*
X170181890Y-103871078D01*
X170348917Y-104038105D01*
X170542421Y-104173600D01*
X170756507Y-104273429D01*
X170756516Y-104273433D01*
X170970000Y-104330634D01*
X170970000Y-103435501D01*
X171077685Y-103484680D01*
X171184237Y-103500000D01*
X171255763Y-103500000D01*
X171362315Y-103484680D01*
X171470000Y-103435501D01*
X171470000Y-104330633D01*
X171683483Y-104273433D01*
X171683487Y-104273431D01*
X171715123Y-104258679D01*
X171784201Y-104248186D01*
X171847985Y-104276704D01*
X171886226Y-104335179D01*
X171886782Y-104405047D01*
X171849477Y-104464124D01*
X171831279Y-104477419D01*
X171696720Y-104558070D01*
X171692993Y-104560133D01*
X171538470Y-104638868D01*
X171378542Y-104714507D01*
X171374251Y-104716343D01*
X171211888Y-104778669D01*
X171046157Y-104837968D01*
X171041315Y-104839480D01*
X170872216Y-104884791D01*
X170702941Y-104927192D01*
X170697572Y-104928287D01*
X170521682Y-104956145D01*
X170352438Y-104981250D01*
X170346582Y-104981836D01*
X170152438Y-104992011D01*
X170001513Y-104999425D01*
X169998470Y-104999500D01*
X134501530Y-104999500D01*
X134498488Y-104999425D01*
X134347561Y-104992011D01*
X134153416Y-104981836D01*
X134147560Y-104981250D01*
X133978317Y-104956145D01*
X133802426Y-104928287D01*
X133797057Y-104927192D01*
X133627783Y-104884791D01*
X133458683Y-104839480D01*
X133453841Y-104837968D01*
X133288111Y-104778669D01*
X133125747Y-104716343D01*
X133121456Y-104714507D01*
X132961529Y-104638868D01*
X132807006Y-104560133D01*
X132803278Y-104558070D01*
X132651028Y-104466816D01*
X132505740Y-104372465D01*
X132502584Y-104370274D01*
X132428082Y-104315019D01*
X132359657Y-104264271D01*
X132225027Y-104155250D01*
X132222408Y-104153005D01*
X132096069Y-104038498D01*
X132091476Y-104034335D01*
X132089278Y-104032242D01*
X131967756Y-103910720D01*
X131965657Y-103908516D01*
X131959884Y-103902147D01*
X131846991Y-103777588D01*
X131844758Y-103774983D01*
X131765882Y-103677579D01*
X131735728Y-103640342D01*
X131696730Y-103587760D01*
X131629716Y-103497402D01*
X131627533Y-103494258D01*
X131607659Y-103463655D01*
X131533180Y-103348965D01*
X131441928Y-103196720D01*
X131439864Y-103192992D01*
X131361131Y-103038470D01*
X131342936Y-103000000D01*
X141974341Y-103000000D01*
X141994936Y-103235403D01*
X141994938Y-103235413D01*
X142056094Y-103463655D01*
X142056096Y-103463659D01*
X142056097Y-103463663D01*
X142136004Y-103635023D01*
X142155965Y-103677830D01*
X142155967Y-103677834D01*
X142225818Y-103777591D01*
X142291505Y-103871401D01*
X142458599Y-104038495D01*
X142541907Y-104096828D01*
X142652165Y-104174032D01*
X142652167Y-104174033D01*
X142652170Y-104174035D01*
X142866337Y-104273903D01*
X142866343Y-104273904D01*
X142866344Y-104273905D01*
X142921285Y-104288626D01*
X143094592Y-104335063D01*
X143271034Y-104350500D01*
X143329999Y-104355659D01*
X143330000Y-104355659D01*
X143330001Y-104355659D01*
X143388966Y-104350500D01*
X143565408Y-104335063D01*
X143793663Y-104273903D01*
X144007830Y-104174035D01*
X144201401Y-104038495D01*
X144368495Y-103871401D01*
X144498425Y-103685842D01*
X144553002Y-103642217D01*
X144622500Y-103635023D01*
X144684855Y-103666546D01*
X144701575Y-103685842D01*
X144831500Y-103871395D01*
X144831505Y-103871401D01*
X144998599Y-104038495D01*
X145081907Y-104096828D01*
X145192165Y-104174032D01*
X145192167Y-104174033D01*
X145192170Y-104174035D01*
X145406337Y-104273903D01*
X145406343Y-104273904D01*
X145406344Y-104273905D01*
X145461285Y-104288626D01*
X145634592Y-104335063D01*
X145811034Y-104350500D01*
X145869999Y-104355659D01*
X145870000Y-104355659D01*
X145870001Y-104355659D01*
X145928966Y-104350500D01*
X146105408Y-104335063D01*
X146333663Y-104273903D01*
X146547830Y-104174035D01*
X146741401Y-104038495D01*
X146908495Y-103871401D01*
X147038425Y-103685842D01*
X147093002Y-103642217D01*
X147162500Y-103635023D01*
X147224855Y-103666546D01*
X147241575Y-103685842D01*
X147371500Y-103871395D01*
X147371505Y-103871401D01*
X147538599Y-104038495D01*
X147621907Y-104096828D01*
X147732165Y-104174032D01*
X147732167Y-104174033D01*
X147732170Y-104174035D01*
X147946337Y-104273903D01*
X147946343Y-104273904D01*
X147946344Y-104273905D01*
X148001285Y-104288626D01*
X148174592Y-104335063D01*
X148351034Y-104350500D01*
X148409999Y-104355659D01*
X148410000Y-104355659D01*
X148410001Y-104355659D01*
X148468966Y-104350500D01*
X148645408Y-104335063D01*
X148873663Y-104273903D01*
X149087830Y-104174035D01*
X149281401Y-104038495D01*
X149448495Y-103871401D01*
X149578425Y-103685842D01*
X149633002Y-103642217D01*
X149702500Y-103635023D01*
X149764855Y-103666546D01*
X149781575Y-103685842D01*
X149911500Y-103871395D01*
X149911505Y-103871401D01*
X150078599Y-104038495D01*
X150161907Y-104096828D01*
X150272165Y-104174032D01*
X150272167Y-104174033D01*
X150272170Y-104174035D01*
X150486337Y-104273903D01*
X150486343Y-104273904D01*
X150486344Y-104273905D01*
X150541285Y-104288626D01*
X150714592Y-104335063D01*
X150891034Y-104350500D01*
X150949999Y-104355659D01*
X150950000Y-104355659D01*
X150950001Y-104355659D01*
X151008966Y-104350500D01*
X151185408Y-104335063D01*
X151413663Y-104273903D01*
X151627830Y-104174035D01*
X151821401Y-104038495D01*
X151988495Y-103871401D01*
X152118425Y-103685842D01*
X152173002Y-103642217D01*
X152242500Y-103635023D01*
X152304855Y-103666546D01*
X152321575Y-103685842D01*
X152451500Y-103871395D01*
X152451505Y-103871401D01*
X152618599Y-104038495D01*
X152701907Y-104096828D01*
X152812165Y-104174032D01*
X152812167Y-104174033D01*
X152812170Y-104174035D01*
X153026337Y-104273903D01*
X153026343Y-104273904D01*
X153026344Y-104273905D01*
X153081285Y-104288626D01*
X153254592Y-104335063D01*
X153431034Y-104350500D01*
X153489999Y-104355659D01*
X153490000Y-104355659D01*
X153490001Y-104355659D01*
X153548966Y-104350500D01*
X153725408Y-104335063D01*
X153953663Y-104273903D01*
X154167830Y-104174035D01*
X154361401Y-104038495D01*
X154528495Y-103871401D01*
X154658425Y-103685842D01*
X154713002Y-103642217D01*
X154782500Y-103635023D01*
X154844855Y-103666546D01*
X154861575Y-103685842D01*
X154991500Y-103871395D01*
X154991505Y-103871401D01*
X155158599Y-104038495D01*
X155241907Y-104096828D01*
X155352165Y-104174032D01*
X155352167Y-104174033D01*
X155352170Y-104174035D01*
X155566337Y-104273903D01*
X155566343Y-104273904D01*
X155566344Y-104273905D01*
X155621285Y-104288626D01*
X155794592Y-104335063D01*
X155971034Y-104350500D01*
X156029999Y-104355659D01*
X156030000Y-104355659D01*
X156030001Y-104355659D01*
X156088966Y-104350500D01*
X156265408Y-104335063D01*
X156493663Y-104273903D01*
X156707830Y-104174035D01*
X156901401Y-104038495D01*
X157023329Y-103916566D01*
X157084648Y-103883084D01*
X157154340Y-103888068D01*
X157210274Y-103929939D01*
X157227189Y-103960917D01*
X157276202Y-104092328D01*
X157276206Y-104092335D01*
X157362452Y-104207544D01*
X157362455Y-104207547D01*
X157477664Y-104293793D01*
X157477671Y-104293797D01*
X157612517Y-104344091D01*
X157612516Y-104344091D01*
X157619444Y-104344835D01*
X157672127Y-104350500D01*
X159467872Y-104350499D01*
X159527483Y-104344091D01*
X159662331Y-104293796D01*
X159777546Y-104207546D01*
X159863796Y-104092331D01*
X159914091Y-103957483D01*
X159920500Y-103897873D01*
X159920499Y-102102128D01*
X159914091Y-102042517D01*
X159912810Y-102039083D01*
X159863797Y-101907671D01*
X159863793Y-101907664D01*
X159777547Y-101792455D01*
X159777544Y-101792452D01*
X159662335Y-101706206D01*
X159662328Y-101706202D01*
X159527482Y-101655908D01*
X159527483Y-101655908D01*
X159467883Y-101649501D01*
X159467881Y-101649500D01*
X159467873Y-101649500D01*
X159467864Y-101649500D01*
X157672129Y-101649500D01*
X157672123Y-101649501D01*
X157612516Y-101655908D01*
X157477671Y-101706202D01*
X157477664Y-101706206D01*
X157362455Y-101792452D01*
X157362452Y-101792455D01*
X157276206Y-101907664D01*
X157276203Y-101907669D01*
X157227189Y-102039083D01*
X157185317Y-102095016D01*
X157119853Y-102119433D01*
X157051580Y-102104581D01*
X157023326Y-102083430D01*
X156901402Y-101961506D01*
X156901395Y-101961501D01*
X156707834Y-101825967D01*
X156707830Y-101825965D01*
X156655500Y-101801563D01*
X156493663Y-101726097D01*
X156493659Y-101726096D01*
X156493655Y-101726094D01*
X156265413Y-101664938D01*
X156265403Y-101664936D01*
X156030001Y-101644341D01*
X156029999Y-101644341D01*
X155794596Y-101664936D01*
X155794586Y-101664938D01*
X155566344Y-101726094D01*
X155566335Y-101726098D01*
X155352171Y-101825964D01*
X155352169Y-101825965D01*
X155158597Y-101961505D01*
X154991505Y-102128597D01*
X154861575Y-102314158D01*
X154806998Y-102357783D01*
X154737500Y-102364977D01*
X154675145Y-102333454D01*
X154658425Y-102314158D01*
X154528494Y-102128597D01*
X154361402Y-101961506D01*
X154361395Y-101961501D01*
X154167834Y-101825967D01*
X154167830Y-101825965D01*
X154115500Y-101801563D01*
X153953663Y-101726097D01*
X153953659Y-101726096D01*
X153953655Y-101726094D01*
X153725413Y-101664938D01*
X153725403Y-101664936D01*
X153490001Y-101644341D01*
X153489999Y-101644341D01*
X153254596Y-101664936D01*
X153254586Y-101664938D01*
X153026344Y-101726094D01*
X153026335Y-101726098D01*
X152812171Y-101825964D01*
X152812169Y-101825965D01*
X152618597Y-101961505D01*
X152451505Y-102128597D01*
X152321575Y-102314158D01*
X152266998Y-102357783D01*
X152197500Y-102364977D01*
X152135145Y-102333454D01*
X152118425Y-102314158D01*
X151988494Y-102128597D01*
X151821402Y-101961506D01*
X151821395Y-101961501D01*
X151627834Y-101825967D01*
X151627830Y-101825965D01*
X151575500Y-101801563D01*
X151413663Y-101726097D01*
X151413659Y-101726096D01*
X151413655Y-101726094D01*
X151185413Y-101664938D01*
X151185403Y-101664936D01*
X150950001Y-101644341D01*
X150949999Y-101644341D01*
X150714596Y-101664936D01*
X150714586Y-101664938D01*
X150486344Y-101726094D01*
X150486335Y-101726098D01*
X150272171Y-101825964D01*
X150272169Y-101825965D01*
X150078597Y-101961505D01*
X149911505Y-102128597D01*
X149781575Y-102314158D01*
X149726998Y-102357783D01*
X149657500Y-102364977D01*
X149595145Y-102333454D01*
X149578425Y-102314158D01*
X149448494Y-102128597D01*
X149281402Y-101961506D01*
X149281395Y-101961501D01*
X149087834Y-101825967D01*
X149087830Y-101825965D01*
X149035500Y-101801563D01*
X148873663Y-101726097D01*
X148873659Y-101726096D01*
X148873655Y-101726094D01*
X148645413Y-101664938D01*
X148645403Y-101664936D01*
X148410001Y-101644341D01*
X148409999Y-101644341D01*
X148174596Y-101664936D01*
X148174586Y-101664938D01*
X147946344Y-101726094D01*
X147946335Y-101726098D01*
X147732171Y-101825964D01*
X147732169Y-101825965D01*
X147538597Y-101961505D01*
X147371505Y-102128597D01*
X147241575Y-102314158D01*
X147186998Y-102357783D01*
X147117500Y-102364977D01*
X147055145Y-102333454D01*
X147038425Y-102314158D01*
X146908494Y-102128597D01*
X146741402Y-101961506D01*
X146741395Y-101961501D01*
X146547834Y-101825967D01*
X146547830Y-101825965D01*
X146495500Y-101801563D01*
X146333663Y-101726097D01*
X146333659Y-101726096D01*
X146333655Y-101726094D01*
X146105413Y-101664938D01*
X146105403Y-101664936D01*
X145870001Y-101644341D01*
X145869999Y-101644341D01*
X145634596Y-101664936D01*
X145634586Y-101664938D01*
X145406344Y-101726094D01*
X145406335Y-101726098D01*
X145192171Y-101825964D01*
X145192169Y-101825965D01*
X144998597Y-101961505D01*
X144831505Y-102128597D01*
X144701575Y-102314158D01*
X144646998Y-102357783D01*
X144577500Y-102364977D01*
X144515145Y-102333454D01*
X144498425Y-102314158D01*
X144368494Y-102128597D01*
X144201402Y-101961506D01*
X144201395Y-101961501D01*
X144007834Y-101825967D01*
X144007830Y-101825965D01*
X143955500Y-101801563D01*
X143793663Y-101726097D01*
X143793659Y-101726096D01*
X143793655Y-101726094D01*
X143565413Y-101664938D01*
X143565403Y-101664936D01*
X143330001Y-101644341D01*
X143329999Y-101644341D01*
X143094596Y-101664936D01*
X143094586Y-101664938D01*
X142866344Y-101726094D01*
X142866335Y-101726098D01*
X142652171Y-101825964D01*
X142652169Y-101825965D01*
X142458597Y-101961505D01*
X142291505Y-102128597D01*
X142155965Y-102322169D01*
X142155964Y-102322171D01*
X142056098Y-102536335D01*
X142056094Y-102536344D01*
X141994938Y-102764586D01*
X141994936Y-102764596D01*
X141974341Y-102999999D01*
X141974341Y-103000000D01*
X131342936Y-103000000D01*
X131285491Y-102878543D01*
X131283665Y-102874274D01*
X131221330Y-102711888D01*
X131162025Y-102546141D01*
X131160518Y-102541315D01*
X131115208Y-102372216D01*
X131072800Y-102202912D01*
X131071718Y-102197607D01*
X131043854Y-102021682D01*
X131018745Y-101852409D01*
X131018164Y-101846607D01*
X131007989Y-101652438D01*
X131002912Y-101549090D01*
X131000575Y-101501513D01*
X131000500Y-101498471D01*
X131000500Y-101100000D01*
X132044341Y-101100000D01*
X132064936Y-101335403D01*
X132064938Y-101335413D01*
X132126094Y-101563655D01*
X132126096Y-101563659D01*
X132126097Y-101563663D01*
X132201842Y-101726098D01*
X132225965Y-101777830D01*
X132225967Y-101777834D01*
X132274123Y-101846607D01*
X132361505Y-101971401D01*
X132528599Y-102138495D01*
X132612970Y-102197572D01*
X132722165Y-102274032D01*
X132722167Y-102274033D01*
X132722170Y-102274035D01*
X132936337Y-102373903D01*
X133164592Y-102435063D01*
X133352918Y-102451539D01*
X133399999Y-102455659D01*
X133400000Y-102455659D01*
X133400001Y-102455659D01*
X133439234Y-102452226D01*
X133635408Y-102435063D01*
X133863663Y-102373903D01*
X134077830Y-102274035D01*
X134271401Y-102138495D01*
X134438495Y-101971401D01*
X134574035Y-101777830D01*
X134673903Y-101563663D01*
X134735063Y-101335408D01*
X134755659Y-101100000D01*
X134735063Y-100864592D01*
X134673903Y-100636337D01*
X134574035Y-100422171D01*
X134438495Y-100228599D01*
X134438494Y-100228597D01*
X134271402Y-100061506D01*
X134271396Y-100061501D01*
X134085842Y-99931575D01*
X134042217Y-99876998D01*
X134035023Y-99807500D01*
X134066546Y-99745145D01*
X134085842Y-99728425D01*
X134108026Y-99712891D01*
X134271401Y-99598495D01*
X134438495Y-99431401D01*
X134574035Y-99237830D01*
X134673903Y-99023663D01*
X134735063Y-98795408D01*
X134755659Y-98560000D01*
X134735063Y-98324592D01*
X134673903Y-98096337D01*
X134574035Y-97882171D01*
X134438495Y-97688599D01*
X134438494Y-97688597D01*
X134271402Y-97521506D01*
X134271396Y-97521501D01*
X134085842Y-97391575D01*
X134042217Y-97336998D01*
X134035023Y-97267500D01*
X134066546Y-97205145D01*
X134085842Y-97188425D01*
X134108026Y-97172891D01*
X134271401Y-97058495D01*
X134438495Y-96891401D01*
X134574035Y-96697830D01*
X134673903Y-96483663D01*
X134735063Y-96255408D01*
X134755659Y-96020000D01*
X134735063Y-95784592D01*
X134673903Y-95556337D01*
X134574035Y-95342171D01*
X134438495Y-95148599D01*
X134438494Y-95148597D01*
X134271402Y-94981506D01*
X134271396Y-94981501D01*
X134085842Y-94851575D01*
X134042217Y-94796998D01*
X134035023Y-94727500D01*
X134066546Y-94665145D01*
X134085842Y-94648425D01*
X134239736Y-94540667D01*
X134271401Y-94518495D01*
X134438495Y-94351401D01*
X134574035Y-94157830D01*
X134673903Y-93943663D01*
X134735063Y-93715408D01*
X134755659Y-93480000D01*
X134735063Y-93244592D01*
X134673903Y-93016337D01*
X134574035Y-92802171D01*
X134573152Y-92800909D01*
X134438494Y-92608597D01*
X134271402Y-92441506D01*
X134271396Y-92441501D01*
X134085842Y-92311575D01*
X134042217Y-92256998D01*
X134035023Y-92187500D01*
X134066546Y-92125145D01*
X134085842Y-92108425D01*
X134171356Y-92048547D01*
X134271401Y-91978495D01*
X134438495Y-91811401D01*
X134574035Y-91617830D01*
X134673903Y-91403663D01*
X134735063Y-91175408D01*
X134755659Y-90940000D01*
X134735063Y-90704592D01*
X134678280Y-90492672D01*
X134673905Y-90476344D01*
X134673904Y-90476343D01*
X134673903Y-90476337D01*
X134574035Y-90262171D01*
X134555254Y-90235348D01*
X134438494Y-90068597D01*
X134271402Y-89901506D01*
X134271396Y-89901501D01*
X134085842Y-89771575D01*
X134042217Y-89716998D01*
X134035023Y-89647500D01*
X134066546Y-89585145D01*
X134085842Y-89568425D01*
X134160928Y-89515849D01*
X134271401Y-89438495D01*
X134438495Y-89271401D01*
X134574035Y-89077830D01*
X134673903Y-88863663D01*
X134735063Y-88635408D01*
X134755659Y-88400000D01*
X134754009Y-88381146D01*
X134735106Y-88165083D01*
X134735063Y-88164592D01*
X134673903Y-87936337D01*
X134574035Y-87722171D01*
X134568656Y-87714488D01*
X134438494Y-87528597D01*
X134271402Y-87361506D01*
X134271396Y-87361501D01*
X134085842Y-87231575D01*
X134042217Y-87176998D01*
X134035023Y-87107500D01*
X134066546Y-87045145D01*
X134085842Y-87028425D01*
X134199398Y-86948912D01*
X134271401Y-86898495D01*
X134438495Y-86731401D01*
X134574035Y-86537830D01*
X134673903Y-86323663D01*
X134735063Y-86095408D01*
X134755659Y-85860000D01*
X134755638Y-85859765D01*
X134749434Y-85788855D01*
X134735063Y-85624592D01*
X134680736Y-85421839D01*
X134673905Y-85396344D01*
X134673904Y-85396343D01*
X134673903Y-85396337D01*
X134574035Y-85182171D01*
X134524688Y-85111695D01*
X134438494Y-84988597D01*
X134271402Y-84821506D01*
X134271396Y-84821501D01*
X134085842Y-84691575D01*
X134042217Y-84636998D01*
X134035023Y-84567500D01*
X134066546Y-84505145D01*
X134085842Y-84488425D01*
X134108026Y-84472891D01*
X134271401Y-84358495D01*
X134438495Y-84191401D01*
X134574035Y-83997830D01*
X134673903Y-83783663D01*
X134735063Y-83555408D01*
X134755659Y-83320000D01*
X134735063Y-83084592D01*
X134675191Y-82861144D01*
X134673905Y-82856344D01*
X134673904Y-82856343D01*
X134673903Y-82856337D01*
X134574035Y-82642171D01*
X134494758Y-82528950D01*
X134438494Y-82448597D01*
X134271402Y-82281506D01*
X134271396Y-82281501D01*
X134085842Y-82151575D01*
X134042217Y-82096998D01*
X134035023Y-82027500D01*
X134066546Y-81965145D01*
X134085842Y-81948425D01*
X134210492Y-81861144D01*
X134271401Y-81818495D01*
X134438495Y-81651401D01*
X134574035Y-81457830D01*
X134673903Y-81243663D01*
X134735063Y-81015408D01*
X134755659Y-80780000D01*
X134735063Y-80544592D01*
X134673903Y-80316337D01*
X134574035Y-80102171D01*
X134438495Y-79908599D01*
X134438494Y-79908597D01*
X134271402Y-79741506D01*
X134271396Y-79741501D01*
X134085842Y-79611575D01*
X134042217Y-79556998D01*
X134035023Y-79487500D01*
X134066546Y-79425145D01*
X134085842Y-79408425D01*
X134108026Y-79392891D01*
X134271401Y-79278495D01*
X134438495Y-79111401D01*
X134574035Y-78917830D01*
X134673903Y-78703663D01*
X134735063Y-78475408D01*
X134755659Y-78240000D01*
X134735063Y-78004592D01*
X134673903Y-77776337D01*
X134574035Y-77562171D01*
X134536139Y-77508050D01*
X134438496Y-77368600D01*
X134416231Y-77346335D01*
X134316567Y-77246671D01*
X134283084Y-77185351D01*
X134288068Y-77115659D01*
X134329939Y-77059725D01*
X134360915Y-77042810D01*
X134492331Y-76993796D01*
X134607546Y-76907546D01*
X134693796Y-76792331D01*
X134744091Y-76657483D01*
X134750500Y-76597873D01*
X134750499Y-74802128D01*
X134744091Y-74742517D01*
X134743754Y-74741614D01*
X134693797Y-74607671D01*
X134693793Y-74607664D01*
X134607547Y-74492455D01*
X134607544Y-74492452D01*
X134492335Y-74406206D01*
X134492328Y-74406202D01*
X134357482Y-74355908D01*
X134357483Y-74355908D01*
X134297883Y-74349501D01*
X134297881Y-74349500D01*
X134297873Y-74349500D01*
X134297864Y-74349500D01*
X132502129Y-74349500D01*
X132502123Y-74349501D01*
X132442516Y-74355908D01*
X132307671Y-74406202D01*
X132307664Y-74406206D01*
X132192455Y-74492452D01*
X132192452Y-74492455D01*
X132106206Y-74607664D01*
X132106202Y-74607671D01*
X132055908Y-74742517D01*
X132049501Y-74802116D01*
X132049501Y-74802123D01*
X132049500Y-74802135D01*
X132049500Y-76597870D01*
X132049501Y-76597876D01*
X132055908Y-76657483D01*
X132106202Y-76792328D01*
X132106206Y-76792335D01*
X132192452Y-76907544D01*
X132192455Y-76907547D01*
X132307664Y-76993793D01*
X132307671Y-76993797D01*
X132439081Y-77042810D01*
X132495015Y-77084681D01*
X132519432Y-77150145D01*
X132504580Y-77218418D01*
X132483430Y-77246673D01*
X132361503Y-77368600D01*
X132225965Y-77562169D01*
X132225964Y-77562171D01*
X132126098Y-77776335D01*
X132126094Y-77776344D01*
X132064938Y-78004586D01*
X132064936Y-78004596D01*
X132044341Y-78239999D01*
X132044341Y-78240000D01*
X132064936Y-78475403D01*
X132064938Y-78475413D01*
X132126094Y-78703655D01*
X132126096Y-78703659D01*
X132126097Y-78703663D01*
X132213441Y-78890972D01*
X132225965Y-78917830D01*
X132225967Y-78917834D01*
X132361501Y-79111395D01*
X132361506Y-79111402D01*
X132528597Y-79278493D01*
X132528603Y-79278498D01*
X132714158Y-79408425D01*
X132757783Y-79463002D01*
X132764977Y-79532500D01*
X132733454Y-79594855D01*
X132714158Y-79611575D01*
X132528597Y-79741505D01*
X132361505Y-79908597D01*
X132225965Y-80102169D01*
X132225964Y-80102171D01*
X132126098Y-80316335D01*
X132126094Y-80316344D01*
X132064938Y-80544586D01*
X132064936Y-80544596D01*
X132044341Y-80779999D01*
X132044341Y-80780000D01*
X132064936Y-81015403D01*
X132064938Y-81015413D01*
X132126094Y-81243655D01*
X132126096Y-81243659D01*
X132126097Y-81243663D01*
X132193452Y-81388105D01*
X132225965Y-81457830D01*
X132225967Y-81457834D01*
X132297905Y-81560571D01*
X132347721Y-81631716D01*
X132361501Y-81651395D01*
X132361506Y-81651402D01*
X132528597Y-81818493D01*
X132528603Y-81818498D01*
X132714158Y-81948425D01*
X132757783Y-82003002D01*
X132764977Y-82072500D01*
X132733454Y-82134855D01*
X132714158Y-82151575D01*
X132528597Y-82281505D01*
X132361505Y-82448597D01*
X132225965Y-82642169D01*
X132225964Y-82642171D01*
X132126098Y-82856335D01*
X132126094Y-82856344D01*
X132064938Y-83084586D01*
X132064936Y-83084596D01*
X132044341Y-83319999D01*
X132044341Y-83320000D01*
X132064936Y-83555403D01*
X132064938Y-83555413D01*
X132126094Y-83783655D01*
X132126096Y-83783659D01*
X132126097Y-83783663D01*
X132210531Y-83964732D01*
X132225965Y-83997830D01*
X132225967Y-83997834D01*
X132323652Y-84137342D01*
X132360359Y-84189765D01*
X132361501Y-84191395D01*
X132361506Y-84191402D01*
X132528597Y-84358493D01*
X132528603Y-84358498D01*
X132714158Y-84488425D01*
X132757783Y-84543002D01*
X132764977Y-84612500D01*
X132733454Y-84674855D01*
X132714158Y-84691575D01*
X132528597Y-84821505D01*
X132361505Y-84988597D01*
X132225965Y-85182169D01*
X132225964Y-85182171D01*
X132134153Y-85379062D01*
X132126783Y-85394867D01*
X132126098Y-85396335D01*
X132126094Y-85396344D01*
X132064938Y-85624586D01*
X132064936Y-85624596D01*
X132044341Y-85859999D01*
X132044341Y-85860000D01*
X132064936Y-86095403D01*
X132064938Y-86095413D01*
X132126094Y-86323655D01*
X132126096Y-86323659D01*
X132126097Y-86323663D01*
X132195974Y-86473515D01*
X132225965Y-86537830D01*
X132225967Y-86537834D01*
X132361501Y-86731395D01*
X132361506Y-86731402D01*
X132528597Y-86898493D01*
X132528603Y-86898498D01*
X132714158Y-87028425D01*
X132757783Y-87083002D01*
X132764977Y-87152500D01*
X132733454Y-87214855D01*
X132714158Y-87231575D01*
X132528597Y-87361505D01*
X132361505Y-87528597D01*
X132225965Y-87722169D01*
X132225964Y-87722171D01*
X132126098Y-87936335D01*
X132126094Y-87936344D01*
X132064938Y-88164586D01*
X132064936Y-88164596D01*
X132044341Y-88399999D01*
X132044341Y-88400000D01*
X132064936Y-88635403D01*
X132064938Y-88635413D01*
X132126094Y-88863655D01*
X132126096Y-88863659D01*
X132126097Y-88863663D01*
X132159226Y-88934708D01*
X132225965Y-89077830D01*
X132225967Y-89077834D01*
X132361501Y-89271395D01*
X132361506Y-89271402D01*
X132528597Y-89438493D01*
X132528603Y-89438498D01*
X132714158Y-89568425D01*
X132757783Y-89623002D01*
X132764977Y-89692500D01*
X132733454Y-89754855D01*
X132714158Y-89771575D01*
X132528597Y-89901505D01*
X132361505Y-90068597D01*
X132225965Y-90262169D01*
X132225964Y-90262171D01*
X132126098Y-90476335D01*
X132126094Y-90476344D01*
X132064938Y-90704586D01*
X132064936Y-90704596D01*
X132044341Y-90939999D01*
X132044341Y-90940000D01*
X132064936Y-91175403D01*
X132064938Y-91175413D01*
X132126094Y-91403655D01*
X132126096Y-91403659D01*
X132126097Y-91403663D01*
X132170911Y-91499766D01*
X132225965Y-91617830D01*
X132225967Y-91617834D01*
X132361501Y-91811395D01*
X132361506Y-91811402D01*
X132528597Y-91978493D01*
X132528603Y-91978498D01*
X132714158Y-92108425D01*
X132757783Y-92163002D01*
X132764977Y-92232500D01*
X132733454Y-92294855D01*
X132714158Y-92311575D01*
X132528597Y-92441505D01*
X132361505Y-92608597D01*
X132225965Y-92802169D01*
X132225964Y-92802171D01*
X132126098Y-93016335D01*
X132126094Y-93016344D01*
X132064938Y-93244586D01*
X132064936Y-93244596D01*
X132044341Y-93479999D01*
X132044341Y-93480000D01*
X132064936Y-93715403D01*
X132064938Y-93715413D01*
X132126094Y-93943655D01*
X132126096Y-93943659D01*
X132126097Y-93943663D01*
X132144286Y-93982669D01*
X132225965Y-94157830D01*
X132225967Y-94157834D01*
X132318194Y-94289547D01*
X132354158Y-94340909D01*
X132361501Y-94351395D01*
X132361506Y-94351402D01*
X132528597Y-94518493D01*
X132528603Y-94518498D01*
X132714158Y-94648425D01*
X132757783Y-94703002D01*
X132764977Y-94772500D01*
X132733454Y-94834855D01*
X132714158Y-94851575D01*
X132528597Y-94981505D01*
X132361505Y-95148597D01*
X132225965Y-95342169D01*
X132225964Y-95342171D01*
X132126098Y-95556335D01*
X132126094Y-95556344D01*
X132064938Y-95784586D01*
X132064936Y-95784596D01*
X132044341Y-96019999D01*
X132044341Y-96020000D01*
X132064936Y-96255403D01*
X132064938Y-96255413D01*
X132126094Y-96483655D01*
X132126096Y-96483659D01*
X132126097Y-96483663D01*
X132225965Y-96697830D01*
X132225967Y-96697834D01*
X132361501Y-96891395D01*
X132361506Y-96891402D01*
X132528597Y-97058493D01*
X132528603Y-97058498D01*
X132714158Y-97188425D01*
X132757783Y-97243002D01*
X132764977Y-97312500D01*
X132733454Y-97374855D01*
X132714158Y-97391575D01*
X132528597Y-97521505D01*
X132361505Y-97688597D01*
X132225965Y-97882169D01*
X132225964Y-97882171D01*
X132126098Y-98096335D01*
X132126094Y-98096344D01*
X132064938Y-98324586D01*
X132064936Y-98324596D01*
X132044341Y-98559999D01*
X132044341Y-98560000D01*
X132064936Y-98795403D01*
X132064938Y-98795413D01*
X132126094Y-99023655D01*
X132126096Y-99023659D01*
X132126097Y-99023663D01*
X132225965Y-99237830D01*
X132225967Y-99237834D01*
X132361501Y-99431395D01*
X132361506Y-99431402D01*
X132528597Y-99598493D01*
X132528603Y-99598498D01*
X132714158Y-99728425D01*
X132757783Y-99783002D01*
X132764977Y-99852500D01*
X132733454Y-99914855D01*
X132714158Y-99931575D01*
X132528597Y-100061505D01*
X132361505Y-100228597D01*
X132225965Y-100422169D01*
X132225964Y-100422171D01*
X132126098Y-100636335D01*
X132126094Y-100636344D01*
X132064938Y-100864586D01*
X132064936Y-100864596D01*
X132044341Y-101099999D01*
X132044341Y-101100000D01*
X131000500Y-101100000D01*
X131000500Y-65501528D01*
X131000575Y-65498486D01*
X131003058Y-65447916D01*
X131007995Y-65347421D01*
X131018164Y-65153388D01*
X131018744Y-65147594D01*
X131043858Y-64978287D01*
X131071717Y-64802396D01*
X131072801Y-64797083D01*
X131115210Y-64627776D01*
X131160529Y-64458644D01*
X131162013Y-64453891D01*
X131221338Y-64288089D01*
X131283668Y-64125717D01*
X131285492Y-64121455D01*
X131361145Y-63961499D01*
X131439877Y-63806982D01*
X131441915Y-63803299D01*
X131533192Y-63651013D01*
X131566321Y-63600000D01*
X136644341Y-63600000D01*
X136664936Y-63835403D01*
X136664938Y-63835413D01*
X136726094Y-64063655D01*
X136726096Y-64063659D01*
X136726097Y-64063663D01*
X136806004Y-64235023D01*
X136825965Y-64277830D01*
X136825967Y-64277834D01*
X136931671Y-64428794D01*
X136961505Y-64471401D01*
X137128599Y-64638495D01*
X137225384Y-64706265D01*
X137322165Y-64774032D01*
X137322167Y-64774033D01*
X137322170Y-64774035D01*
X137536337Y-64873903D01*
X137764592Y-64935063D01*
X137944634Y-64950815D01*
X137999999Y-64955659D01*
X138000000Y-64955659D01*
X138000001Y-64955659D01*
X138055366Y-64950815D01*
X138235408Y-64935063D01*
X138463663Y-64873903D01*
X138677830Y-64774035D01*
X138871401Y-64638495D01*
X139038495Y-64471401D01*
X139168425Y-64285842D01*
X139223002Y-64242217D01*
X139292500Y-64235023D01*
X139354855Y-64266546D01*
X139371575Y-64285842D01*
X139501500Y-64471395D01*
X139501505Y-64471401D01*
X139668599Y-64638495D01*
X139765384Y-64706265D01*
X139862165Y-64774032D01*
X139862167Y-64774033D01*
X139862170Y-64774035D01*
X140076337Y-64873903D01*
X140304592Y-64935063D01*
X140484634Y-64950815D01*
X140539999Y-64955659D01*
X140540000Y-64955659D01*
X140540001Y-64955659D01*
X140595366Y-64950815D01*
X140775408Y-64935063D01*
X141003663Y-64873903D01*
X141217830Y-64774035D01*
X141411401Y-64638495D01*
X141578495Y-64471401D01*
X141708425Y-64285842D01*
X141763002Y-64242217D01*
X141832500Y-64235023D01*
X141894855Y-64266546D01*
X141911575Y-64285842D01*
X142041500Y-64471395D01*
X142041505Y-64471401D01*
X142208599Y-64638495D01*
X142305384Y-64706265D01*
X142402165Y-64774032D01*
X142402167Y-64774033D01*
X142402170Y-64774035D01*
X142616337Y-64873903D01*
X142844592Y-64935063D01*
X143024634Y-64950815D01*
X143079999Y-64955659D01*
X143080000Y-64955659D01*
X143080001Y-64955659D01*
X143135366Y-64950815D01*
X143315408Y-64935063D01*
X143543663Y-64873903D01*
X143757830Y-64774035D01*
X143951401Y-64638495D01*
X144118495Y-64471401D01*
X144248425Y-64285842D01*
X144303002Y-64242217D01*
X144372500Y-64235023D01*
X144434855Y-64266546D01*
X144451575Y-64285842D01*
X144581500Y-64471395D01*
X144581505Y-64471401D01*
X144748599Y-64638495D01*
X144845384Y-64706265D01*
X144942165Y-64774032D01*
X144942167Y-64774033D01*
X144942170Y-64774035D01*
X145156337Y-64873903D01*
X145384592Y-64935063D01*
X145564634Y-64950815D01*
X145619999Y-64955659D01*
X145620000Y-64955659D01*
X145620001Y-64955659D01*
X145675366Y-64950815D01*
X145855408Y-64935063D01*
X146083663Y-64873903D01*
X146297830Y-64774035D01*
X146491401Y-64638495D01*
X146658495Y-64471401D01*
X146788425Y-64285842D01*
X146843002Y-64242217D01*
X146912500Y-64235023D01*
X146974855Y-64266546D01*
X146991575Y-64285842D01*
X147121500Y-64471395D01*
X147121505Y-64471401D01*
X147288599Y-64638495D01*
X147385384Y-64706265D01*
X147482165Y-64774032D01*
X147482167Y-64774033D01*
X147482170Y-64774035D01*
X147696337Y-64873903D01*
X147924592Y-64935063D01*
X148104634Y-64950815D01*
X148159999Y-64955659D01*
X148160000Y-64955659D01*
X148160001Y-64955659D01*
X148215366Y-64950815D01*
X148395408Y-64935063D01*
X148623663Y-64873903D01*
X148837830Y-64774035D01*
X149031401Y-64638495D01*
X149198495Y-64471401D01*
X149328425Y-64285842D01*
X149383002Y-64242217D01*
X149452500Y-64235023D01*
X149514855Y-64266546D01*
X149531575Y-64285842D01*
X149661500Y-64471395D01*
X149661505Y-64471401D01*
X149828599Y-64638495D01*
X149925384Y-64706265D01*
X150022165Y-64774032D01*
X150022167Y-64774033D01*
X150022170Y-64774035D01*
X150236337Y-64873903D01*
X150464592Y-64935063D01*
X150644634Y-64950815D01*
X150699999Y-64955659D01*
X150700000Y-64955659D01*
X150700001Y-64955659D01*
X150755366Y-64950815D01*
X150935408Y-64935063D01*
X151035873Y-64908143D01*
X151105722Y-64909806D01*
X151155647Y-64940237D01*
X157738181Y-71522771D01*
X157771666Y-71584094D01*
X157774500Y-71610452D01*
X157774500Y-78101312D01*
X157754815Y-78168351D01*
X157742650Y-78184284D01*
X157667466Y-78267784D01*
X157572821Y-78431715D01*
X157572818Y-78431722D01*
X157529694Y-78564446D01*
X157514326Y-78611744D01*
X157494540Y-78800000D01*
X157514326Y-78988256D01*
X157514327Y-78988259D01*
X157572818Y-79168277D01*
X157572821Y-79168284D01*
X157667467Y-79332216D01*
X157751141Y-79425145D01*
X157794129Y-79472888D01*
X157947265Y-79584148D01*
X157947270Y-79584151D01*
X158120192Y-79661142D01*
X158120197Y-79661144D01*
X158305354Y-79700500D01*
X158305355Y-79700500D01*
X158494644Y-79700500D01*
X158494646Y-79700500D01*
X158679803Y-79661144D01*
X158760604Y-79625167D01*
X158829853Y-79615882D01*
X158883925Y-79638129D01*
X158947265Y-79684148D01*
X158947270Y-79684151D01*
X159120192Y-79761142D01*
X159120197Y-79761144D01*
X159305354Y-79800500D01*
X159305355Y-79800500D01*
X159494644Y-79800500D01*
X159494646Y-79800500D01*
X159679803Y-79761144D01*
X159852730Y-79684151D01*
X160005871Y-79572888D01*
X160132533Y-79432216D01*
X160227179Y-79268284D01*
X160285674Y-79088256D01*
X160305460Y-78900000D01*
X160285674Y-78711744D01*
X160227179Y-78531716D01*
X160132533Y-78367784D01*
X160057350Y-78284284D01*
X160027120Y-78221292D01*
X160025500Y-78201312D01*
X160025500Y-69842742D01*
X160027224Y-69827122D01*
X160026939Y-69827095D01*
X160027673Y-69819333D01*
X160025500Y-69750172D01*
X160025500Y-69720656D01*
X160025500Y-69720650D01*
X160024631Y-69713779D01*
X160024173Y-69707952D01*
X160022710Y-69661373D01*
X160017119Y-69642130D01*
X160013173Y-69623078D01*
X160010664Y-69603208D01*
X159993504Y-69559867D01*
X159991624Y-69554379D01*
X159978618Y-69509610D01*
X159968422Y-69492370D01*
X159959861Y-69474894D01*
X159952487Y-69456270D01*
X159952486Y-69456268D01*
X159925079Y-69418545D01*
X159921888Y-69413686D01*
X159898172Y-69373583D01*
X159898165Y-69373574D01*
X159884006Y-69359415D01*
X159871368Y-69344619D01*
X159860895Y-69330204D01*
X159859594Y-69328413D01*
X159823688Y-69298709D01*
X159819376Y-69294786D01*
X154626818Y-64102227D01*
X154593333Y-64040904D01*
X154590499Y-64014546D01*
X154590499Y-63830056D01*
X162599500Y-63830056D01*
X162604501Y-63850347D01*
X162640210Y-63995226D01*
X162719263Y-64145849D01*
X162719266Y-64145852D01*
X162832071Y-64273183D01*
X162922318Y-64335476D01*
X162972068Y-64369817D01*
X162972069Y-64369817D01*
X162972070Y-64369818D01*
X163131128Y-64430140D01*
X163207028Y-64439356D01*
X163257626Y-64445500D01*
X163257628Y-64445500D01*
X163342374Y-64445500D01*
X163384538Y-64440380D01*
X163468872Y-64430140D01*
X163627930Y-64369818D01*
X163767929Y-64273183D01*
X163880734Y-64145852D01*
X163886075Y-64135677D01*
X163923875Y-64063655D01*
X163959790Y-63995225D01*
X164000500Y-63830056D01*
X165599500Y-63830056D01*
X165604501Y-63850347D01*
X165640210Y-63995226D01*
X165719263Y-64145849D01*
X165719266Y-64145852D01*
X165832071Y-64273183D01*
X165922318Y-64335476D01*
X165972068Y-64369817D01*
X165972069Y-64369817D01*
X165972070Y-64369818D01*
X166131128Y-64430140D01*
X166207028Y-64439356D01*
X166257626Y-64445500D01*
X166257628Y-64445500D01*
X166342374Y-64445500D01*
X166384538Y-64440380D01*
X166468872Y-64430140D01*
X166627930Y-64369818D01*
X166767929Y-64273183D01*
X166880734Y-64145852D01*
X166886075Y-64135677D01*
X166923875Y-64063655D01*
X166959790Y-63995225D01*
X167000500Y-63830056D01*
X167000500Y-63659944D01*
X166959790Y-63494775D01*
X166903288Y-63387120D01*
X166880736Y-63344150D01*
X166823939Y-63280040D01*
X166767929Y-63216817D01*
X166718177Y-63182475D01*
X166627931Y-63120182D01*
X166468874Y-63059860D01*
X166468868Y-63059859D01*
X166342374Y-63044500D01*
X166342372Y-63044500D01*
X166257628Y-63044500D01*
X166257626Y-63044500D01*
X166131131Y-63059859D01*
X166131125Y-63059860D01*
X165972068Y-63120182D01*
X165832072Y-63216816D01*
X165719263Y-63344150D01*
X165640210Y-63494773D01*
X165625173Y-63555782D01*
X165599500Y-63659944D01*
X165599500Y-63830056D01*
X164000500Y-63830056D01*
X164000500Y-63659944D01*
X163959790Y-63494775D01*
X163903288Y-63387120D01*
X163880736Y-63344150D01*
X163823939Y-63280040D01*
X163767929Y-63216817D01*
X163718177Y-63182475D01*
X163627931Y-63120182D01*
X163468874Y-63059860D01*
X163468868Y-63059859D01*
X163342374Y-63044500D01*
X163342372Y-63044500D01*
X163257628Y-63044500D01*
X163257626Y-63044500D01*
X163131131Y-63059859D01*
X163131125Y-63059860D01*
X162972068Y-63120182D01*
X162832072Y-63216816D01*
X162719263Y-63344150D01*
X162640210Y-63494773D01*
X162625173Y-63555782D01*
X162599500Y-63659944D01*
X162599500Y-63830056D01*
X154590499Y-63830056D01*
X154590499Y-62702129D01*
X154590498Y-62702123D01*
X154588655Y-62684981D01*
X154584091Y-62642517D01*
X154582810Y-62639083D01*
X154533797Y-62507671D01*
X154533793Y-62507664D01*
X154447547Y-62392455D01*
X154447544Y-62392452D01*
X154332335Y-62306206D01*
X154332328Y-62306202D01*
X154197482Y-62255908D01*
X154197483Y-62255908D01*
X154137883Y-62249501D01*
X154137881Y-62249500D01*
X154137873Y-62249500D01*
X154137864Y-62249500D01*
X152342129Y-62249500D01*
X152342123Y-62249501D01*
X152282516Y-62255908D01*
X152147671Y-62306202D01*
X152147664Y-62306206D01*
X152032455Y-62392452D01*
X152032452Y-62392455D01*
X151946206Y-62507664D01*
X151946203Y-62507669D01*
X151897189Y-62639083D01*
X151855317Y-62695016D01*
X151789853Y-62719433D01*
X151721580Y-62704581D01*
X151693326Y-62683430D01*
X151571402Y-62561506D01*
X151571395Y-62561501D01*
X151377834Y-62425967D01*
X151377830Y-62425965D01*
X151351564Y-62413717D01*
X151163663Y-62326097D01*
X151163659Y-62326096D01*
X151163655Y-62326094D01*
X150935413Y-62264938D01*
X150935403Y-62264936D01*
X150700001Y-62244341D01*
X150699999Y-62244341D01*
X150464596Y-62264936D01*
X150464586Y-62264938D01*
X150236344Y-62326094D01*
X150236335Y-62326098D01*
X150022171Y-62425964D01*
X150022169Y-62425965D01*
X149828597Y-62561505D01*
X149661505Y-62728597D01*
X149531575Y-62914158D01*
X149476998Y-62957783D01*
X149407500Y-62964977D01*
X149345145Y-62933454D01*
X149328425Y-62914158D01*
X149198494Y-62728597D01*
X149031402Y-62561506D01*
X149031395Y-62561501D01*
X148837834Y-62425967D01*
X148837830Y-62425965D01*
X148811564Y-62413717D01*
X148623663Y-62326097D01*
X148623659Y-62326096D01*
X148623655Y-62326094D01*
X148395413Y-62264938D01*
X148395403Y-62264936D01*
X148160001Y-62244341D01*
X148159999Y-62244341D01*
X147924596Y-62264936D01*
X147924586Y-62264938D01*
X147696344Y-62326094D01*
X147696335Y-62326098D01*
X147482171Y-62425964D01*
X147482169Y-62425965D01*
X147288597Y-62561505D01*
X147121505Y-62728597D01*
X146991575Y-62914158D01*
X146936998Y-62957783D01*
X146867500Y-62964977D01*
X146805145Y-62933454D01*
X146788425Y-62914158D01*
X146658494Y-62728597D01*
X146491402Y-62561506D01*
X146491395Y-62561501D01*
X146297834Y-62425967D01*
X146297830Y-62425965D01*
X146271564Y-62413717D01*
X146083663Y-62326097D01*
X146083659Y-62326096D01*
X146083655Y-62326094D01*
X145855413Y-62264938D01*
X145855403Y-62264936D01*
X145620001Y-62244341D01*
X145619999Y-62244341D01*
X145384596Y-62264936D01*
X145384586Y-62264938D01*
X145156344Y-62326094D01*
X145156335Y-62326098D01*
X144942171Y-62425964D01*
X144942169Y-62425965D01*
X144748597Y-62561505D01*
X144581505Y-62728597D01*
X144451575Y-62914158D01*
X144396998Y-62957783D01*
X144327500Y-62964977D01*
X144265145Y-62933454D01*
X144248425Y-62914158D01*
X144118494Y-62728597D01*
X143951402Y-62561506D01*
X143951395Y-62561501D01*
X143757834Y-62425967D01*
X143757830Y-62425965D01*
X143731564Y-62413717D01*
X143543663Y-62326097D01*
X143543659Y-62326096D01*
X143543655Y-62326094D01*
X143315413Y-62264938D01*
X143315403Y-62264936D01*
X143080001Y-62244341D01*
X143079999Y-62244341D01*
X142844596Y-62264936D01*
X142844586Y-62264938D01*
X142616344Y-62326094D01*
X142616335Y-62326098D01*
X142402171Y-62425964D01*
X142402169Y-62425965D01*
X142208597Y-62561505D01*
X142041505Y-62728597D01*
X141911575Y-62914158D01*
X141856998Y-62957783D01*
X141787500Y-62964977D01*
X141725145Y-62933454D01*
X141708425Y-62914158D01*
X141578494Y-62728597D01*
X141411402Y-62561506D01*
X141411395Y-62561501D01*
X141217834Y-62425967D01*
X141217830Y-62425965D01*
X141191564Y-62413717D01*
X141003663Y-62326097D01*
X141003659Y-62326096D01*
X141003655Y-62326094D01*
X140775413Y-62264938D01*
X140775403Y-62264936D01*
X140540001Y-62244341D01*
X140539999Y-62244341D01*
X140304596Y-62264936D01*
X140304586Y-62264938D01*
X140076344Y-62326094D01*
X140076335Y-62326098D01*
X139862171Y-62425964D01*
X139862169Y-62425965D01*
X139668597Y-62561505D01*
X139501505Y-62728597D01*
X139371575Y-62914158D01*
X139316998Y-62957783D01*
X139247500Y-62964977D01*
X139185145Y-62933454D01*
X139168425Y-62914158D01*
X139038494Y-62728597D01*
X138871402Y-62561506D01*
X138871395Y-62561501D01*
X138677834Y-62425967D01*
X138677830Y-62425965D01*
X138651564Y-62413717D01*
X138463663Y-62326097D01*
X138463659Y-62326096D01*
X138463655Y-62326094D01*
X138235413Y-62264938D01*
X138235403Y-62264936D01*
X138013644Y-62245534D01*
X138004684Y-62242029D01*
X137985956Y-62245569D01*
X137764596Y-62264936D01*
X137764586Y-62264938D01*
X137536344Y-62326094D01*
X137536335Y-62326098D01*
X137322171Y-62425964D01*
X137322169Y-62425965D01*
X137128597Y-62561505D01*
X136961505Y-62728597D01*
X136825965Y-62922169D01*
X136825964Y-62922171D01*
X136726098Y-63136335D01*
X136726094Y-63136344D01*
X136664938Y-63364586D01*
X136664936Y-63364596D01*
X136644341Y-63599999D01*
X136644341Y-63600000D01*
X131566321Y-63600000D01*
X131627560Y-63505701D01*
X131629724Y-63502586D01*
X131735718Y-63359670D01*
X131844785Y-63224983D01*
X131846970Y-63222434D01*
X131965703Y-63091433D01*
X131967717Y-63089318D01*
X132089318Y-62967717D01*
X132091433Y-62965703D01*
X132222434Y-62846970D01*
X132224983Y-62844785D01*
X132359656Y-62735728D01*
X132502586Y-62629724D01*
X132505701Y-62627560D01*
X132651013Y-62533192D01*
X132803299Y-62441915D01*
X132806982Y-62439877D01*
X132961499Y-62361145D01*
X133121462Y-62285488D01*
X133125717Y-62283668D01*
X133288089Y-62221338D01*
X133453891Y-62162013D01*
X133458644Y-62160529D01*
X133627776Y-62115210D01*
X133797083Y-62072801D01*
X133802396Y-62071717D01*
X133978287Y-62043858D01*
X134147594Y-62018744D01*
X134153388Y-62018164D01*
X134347421Y-62007995D01*
X134445332Y-62003185D01*
X134498487Y-62000575D01*
X134501529Y-62000500D01*
X134551479Y-62000500D01*
X134551804Y-62000462D01*
X137975062Y-61998041D01*
X137994016Y-62003592D01*
X138000020Y-62000437D01*
X138024356Y-61998006D01*
X170023579Y-61975375D01*
X170026663Y-61975450D01*
G37*
%TD.AperFunction*%
%TA.AperFunction,Conductor*%
G36*
X172450000Y-81680633D02*
G01*
X172663483Y-81623433D01*
X172663492Y-81623429D01*
X172877578Y-81523600D01*
X173071082Y-81388105D01*
X173238105Y-81221082D01*
X173288068Y-81149729D01*
X173342645Y-81106105D01*
X173412144Y-81098912D01*
X173474498Y-81130434D01*
X173509912Y-81190664D01*
X173513643Y-81220939D01*
X173499500Y-101498498D01*
X173499425Y-101501497D01*
X173492011Y-101652438D01*
X173481836Y-101846582D01*
X173481250Y-101852438D01*
X173456145Y-102021682D01*
X173428287Y-102197572D01*
X173427192Y-102202941D01*
X173384791Y-102372216D01*
X173339480Y-102541315D01*
X173337968Y-102546157D01*
X173278669Y-102711888D01*
X173216343Y-102874251D01*
X173214507Y-102878542D01*
X173138868Y-103038470D01*
X173060133Y-103192992D01*
X173058070Y-103196720D01*
X172966816Y-103348971D01*
X172872465Y-103494258D01*
X172870266Y-103497425D01*
X172764271Y-103640342D01*
X172655249Y-103774971D01*
X172653005Y-103777591D01*
X172534341Y-103908516D01*
X172532242Y-103910720D01*
X172527444Y-103915518D01*
X172466121Y-103949003D01*
X172396429Y-103944019D01*
X172340496Y-103902147D01*
X172316079Y-103836683D01*
X172330931Y-103768410D01*
X172338189Y-103756712D01*
X172393599Y-103677579D01*
X172493429Y-103463492D01*
X172493432Y-103463486D01*
X172550636Y-103250000D01*
X171653686Y-103250000D01*
X171679493Y-103209844D01*
X171720000Y-103071889D01*
X171720000Y-102928111D01*
X171679493Y-102790156D01*
X171653686Y-102750000D01*
X172550636Y-102750000D01*
X172550635Y-102749999D01*
X172493432Y-102536513D01*
X172493429Y-102536507D01*
X172393600Y-102322422D01*
X172393599Y-102322420D01*
X172258113Y-102128926D01*
X172258108Y-102128920D01*
X172091082Y-101961894D01*
X171897578Y-101826399D01*
X171683492Y-101726570D01*
X171683486Y-101726567D01*
X171470000Y-101669364D01*
X171470000Y-102564498D01*
X171362315Y-102515320D01*
X171255763Y-102500000D01*
X171184237Y-102500000D01*
X171077685Y-102515320D01*
X170970000Y-102564498D01*
X170970000Y-101669364D01*
X170969999Y-101669364D01*
X170756513Y-101726567D01*
X170756507Y-101726570D01*
X170542422Y-101826399D01*
X170542420Y-101826400D01*
X170348926Y-101961886D01*
X170348920Y-101961891D01*
X170181891Y-102128920D01*
X170181890Y-102128922D01*
X170051880Y-102314595D01*
X169997303Y-102358219D01*
X169927804Y-102365412D01*
X169865450Y-102333890D01*
X169848730Y-102314594D01*
X169718494Y-102128597D01*
X169551402Y-101961506D01*
X169551401Y-101961505D01*
X169382174Y-101843011D01*
X169358376Y-101826347D01*
X169314751Y-101771770D01*
X169305500Y-101724772D01*
X169305500Y-101372737D01*
X169307224Y-101357123D01*
X169306938Y-101357096D01*
X169307672Y-101349333D01*
X169307234Y-101335408D01*
X169305500Y-101280203D01*
X169305500Y-101250650D01*
X169304629Y-101243759D01*
X169304172Y-101237945D01*
X169302709Y-101191373D01*
X169297121Y-101172139D01*
X169293174Y-101153081D01*
X169290664Y-101133208D01*
X169273507Y-101089875D01*
X169271614Y-101084346D01*
X169258618Y-101039614D01*
X169258617Y-101039610D01*
X169248420Y-101022368D01*
X169239863Y-101004902D01*
X169232486Y-100986268D01*
X169205083Y-100948550D01*
X169201900Y-100943705D01*
X169178170Y-100903579D01*
X169178165Y-100903573D01*
X169164005Y-100889413D01*
X169151370Y-100874620D01*
X169139593Y-100858412D01*
X169103693Y-100828713D01*
X169099381Y-100824790D01*
X158828960Y-90554369D01*
X158795475Y-90493046D01*
X158793323Y-90479668D01*
X158775674Y-90311744D01*
X158717179Y-90131716D01*
X158622533Y-89967784D01*
X158495871Y-89827112D01*
X158495870Y-89827111D01*
X158342734Y-89715851D01*
X158342729Y-89715848D01*
X158169807Y-89638857D01*
X158169802Y-89638855D01*
X158024001Y-89607865D01*
X157984646Y-89599500D01*
X157795354Y-89599500D01*
X157762897Y-89606398D01*
X157610197Y-89638855D01*
X157610192Y-89638857D01*
X157437270Y-89715848D01*
X157437265Y-89715851D01*
X157284129Y-89827111D01*
X157157466Y-89967785D01*
X157062821Y-90131715D01*
X157062775Y-90131820D01*
X157062732Y-90131870D01*
X157059572Y-90137344D01*
X157058570Y-90136765D01*
X157017519Y-90185052D01*
X156950668Y-90205367D01*
X156883446Y-90186315D01*
X156837196Y-90133945D01*
X156825500Y-90081373D01*
X156825500Y-87498687D01*
X156845185Y-87431648D01*
X156857350Y-87415715D01*
X156875891Y-87395122D01*
X156932533Y-87332216D01*
X157027179Y-87168284D01*
X157027552Y-87167134D01*
X157027948Y-87166554D01*
X157029825Y-87162341D01*
X157030594Y-87162683D01*
X157066979Y-87109457D01*
X157131334Y-87082249D01*
X157200182Y-87094153D01*
X157233167Y-87117757D01*
X157986557Y-87871148D01*
X158694910Y-88579501D01*
X158704735Y-88591764D01*
X158704956Y-88591582D01*
X158709927Y-88597591D01*
X158730756Y-88617150D01*
X158760348Y-88644939D01*
X158781242Y-88665833D01*
X158786724Y-88670086D01*
X158791156Y-88673870D01*
X158825131Y-88705775D01*
X158842689Y-88715427D01*
X158858946Y-88726106D01*
X158874777Y-88738386D01*
X158894450Y-88746899D01*
X158917546Y-88756895D01*
X158922790Y-88759463D01*
X158963621Y-88781910D01*
X158976236Y-88785148D01*
X158983018Y-88786890D01*
X159001432Y-88793194D01*
X159019817Y-88801151D01*
X159065870Y-88808445D01*
X159071539Y-88809619D01*
X159116694Y-88821213D01*
X159136729Y-88821213D01*
X159156126Y-88822739D01*
X159175909Y-88825873D01*
X159222297Y-88821488D01*
X159228135Y-88821213D01*
X161199119Y-88821213D01*
X161214739Y-88822937D01*
X161214766Y-88822652D01*
X161222522Y-88823384D01*
X161222529Y-88823386D01*
X161291676Y-88821213D01*
X161321212Y-88821213D01*
X161328090Y-88820343D01*
X161333903Y-88819885D01*
X161380489Y-88818422D01*
X161399731Y-88812830D01*
X161418774Y-88808887D01*
X161438654Y-88806377D01*
X161481984Y-88789220D01*
X161487508Y-88787330D01*
X161491258Y-88786240D01*
X161532252Y-88774331D01*
X161549491Y-88764135D01*
X161566965Y-88755575D01*
X161585589Y-88748201D01*
X161585589Y-88748200D01*
X161585594Y-88748199D01*
X161623311Y-88720795D01*
X161628167Y-88717605D01*
X161668282Y-88693883D01*
X161682451Y-88679712D01*
X161697241Y-88667081D01*
X161713449Y-88655307D01*
X161743161Y-88619389D01*
X161747074Y-88615089D01*
X165128621Y-85233542D01*
X165189941Y-85200060D01*
X165259633Y-85205044D01*
X165306173Y-85235794D01*
X165407764Y-85342668D01*
X165407766Y-85342669D01*
X165574695Y-85458856D01*
X165761592Y-85539059D01*
X165960810Y-85580000D01*
X166482116Y-85580000D01*
X166549155Y-85599685D01*
X166594910Y-85652489D01*
X166604854Y-85721647D01*
X166596677Y-85751453D01*
X166551813Y-85859763D01*
X166551812Y-85859765D01*
X166532034Y-86009999D01*
X166532034Y-86010000D01*
X166551812Y-86160234D01*
X166551813Y-86160236D01*
X166607835Y-86295486D01*
X166609802Y-86300233D01*
X166702049Y-86420451D01*
X166822267Y-86512698D01*
X166962264Y-86570687D01*
X167074780Y-86585500D01*
X167074787Y-86585500D01*
X167150213Y-86585500D01*
X167150220Y-86585500D01*
X167262736Y-86570687D01*
X167402733Y-86512698D01*
X167439257Y-86484671D01*
X167504426Y-86459477D01*
X167572871Y-86473515D01*
X167622861Y-86522329D01*
X167632675Y-86544729D01*
X167672818Y-86668277D01*
X167672821Y-86668284D01*
X167767467Y-86832216D01*
X167790353Y-86857633D01*
X167842650Y-86915715D01*
X167872880Y-86978706D01*
X167874500Y-86998687D01*
X167874500Y-89489547D01*
X167854815Y-89556586D01*
X167838181Y-89577228D01*
X167552228Y-89863181D01*
X167490905Y-89896666D01*
X167464547Y-89899500D01*
X167405354Y-89899500D01*
X167372897Y-89906398D01*
X167220197Y-89938855D01*
X167220192Y-89938857D01*
X167047270Y-90015848D01*
X167047265Y-90015851D01*
X166894129Y-90127111D01*
X166767466Y-90267785D01*
X166672821Y-90431715D01*
X166672818Y-90431722D01*
X166614327Y-90611740D01*
X166614326Y-90611744D01*
X166594540Y-90800000D01*
X166614326Y-90988256D01*
X166614327Y-90988259D01*
X166672818Y-91168277D01*
X166672821Y-91168284D01*
X166713546Y-91238822D01*
X166730019Y-91306723D01*
X166707166Y-91372750D01*
X166704535Y-91376308D01*
X166609802Y-91499766D01*
X166609800Y-91499769D01*
X166551813Y-91639763D01*
X166551812Y-91639765D01*
X166532034Y-91789999D01*
X166532034Y-91790000D01*
X166551812Y-91940234D01*
X166551813Y-91940236D01*
X166596677Y-92048547D01*
X166604146Y-92118017D01*
X166572871Y-92180496D01*
X166512782Y-92216148D01*
X166482116Y-92220000D01*
X166011787Y-92220000D01*
X165860161Y-92235418D01*
X165666118Y-92296299D01*
X165666108Y-92296304D01*
X165488284Y-92395005D01*
X165488283Y-92395005D01*
X165333969Y-92527478D01*
X165333968Y-92527479D01*
X165209481Y-92688304D01*
X165119911Y-92870906D01*
X165094254Y-92970000D01*
X165896389Y-92970000D01*
X165856890Y-92994457D01*
X165789299Y-93083962D01*
X165758605Y-93191840D01*
X165768954Y-93303521D01*
X165818948Y-93403922D01*
X165891431Y-93470000D01*
X165089134Y-93470000D01*
X165089431Y-93471946D01*
X165089433Y-93471952D01*
X165160062Y-93662657D01*
X165160065Y-93662664D01*
X165267649Y-93835267D01*
X165407764Y-93982668D01*
X165407766Y-93982669D01*
X165574695Y-94098856D01*
X165761592Y-94179059D01*
X165960810Y-94220000D01*
X166362500Y-94220000D01*
X166362500Y-93520000D01*
X166862500Y-93520000D01*
X166862500Y-94220000D01*
X167213213Y-94220000D01*
X167364838Y-94204581D01*
X167558881Y-94143700D01*
X167558891Y-94143695D01*
X167736715Y-94044994D01*
X167736716Y-94044994D01*
X167891030Y-93912521D01*
X167891031Y-93912520D01*
X168015518Y-93751695D01*
X168105088Y-93569093D01*
X168130746Y-93470000D01*
X169389134Y-93470000D01*
X169389431Y-93471946D01*
X169389433Y-93471952D01*
X169460062Y-93662657D01*
X169460065Y-93662664D01*
X169567649Y-93835267D01*
X169707764Y-93982668D01*
X169707766Y-93982669D01*
X169874695Y-94098856D01*
X170061592Y-94179059D01*
X170260810Y-94220000D01*
X170512500Y-94220000D01*
X170512500Y-93520000D01*
X171012500Y-93520000D01*
X171012500Y-94220000D01*
X171213213Y-94220000D01*
X171364838Y-94204581D01*
X171558881Y-94143700D01*
X171558891Y-94143695D01*
X171736715Y-94044994D01*
X171736716Y-94044994D01*
X171891030Y-93912521D01*
X171891031Y-93912520D01*
X172015518Y-93751695D01*
X172105088Y-93569093D01*
X172130746Y-93470000D01*
X171328611Y-93470000D01*
X171368110Y-93445543D01*
X171435701Y-93356038D01*
X171466395Y-93248160D01*
X171456046Y-93136479D01*
X171406052Y-93036078D01*
X171333569Y-92970000D01*
X172135866Y-92970000D01*
X172135568Y-92968053D01*
X172135566Y-92968047D01*
X172064937Y-92777342D01*
X172064934Y-92777335D01*
X171957350Y-92604732D01*
X171817235Y-92457331D01*
X171817233Y-92457330D01*
X171650304Y-92341143D01*
X171463407Y-92260940D01*
X171264190Y-92220000D01*
X171012500Y-92220000D01*
X171012500Y-92920000D01*
X170512500Y-92920000D01*
X170512500Y-92220000D01*
X170311787Y-92220000D01*
X170160161Y-92235418D01*
X169966118Y-92296299D01*
X169966108Y-92296304D01*
X169788284Y-92395005D01*
X169788283Y-92395005D01*
X169633969Y-92527478D01*
X169633968Y-92527479D01*
X169509481Y-92688304D01*
X169419911Y-92870906D01*
X169394254Y-92970000D01*
X170196389Y-92970000D01*
X170156890Y-92994457D01*
X170089299Y-93083962D01*
X170058605Y-93191840D01*
X170068954Y-93303521D01*
X170118948Y-93403922D01*
X170191431Y-93470000D01*
X169389134Y-93470000D01*
X168130746Y-93470000D01*
X167328611Y-93470000D01*
X167368110Y-93445543D01*
X167435701Y-93356038D01*
X167466395Y-93248160D01*
X167456046Y-93136479D01*
X167406052Y-93036078D01*
X167333569Y-92970000D01*
X168135866Y-92970000D01*
X168135568Y-92968053D01*
X168135566Y-92968047D01*
X168064937Y-92777342D01*
X168064934Y-92777335D01*
X167957350Y-92604732D01*
X167817235Y-92457331D01*
X167817233Y-92457330D01*
X167650302Y-92341142D01*
X167650301Y-92341141D01*
X167619855Y-92328076D01*
X167566012Y-92283549D01*
X167544789Y-92216981D01*
X167562925Y-92149506D01*
X167570381Y-92138639D01*
X167580736Y-92125145D01*
X167615198Y-92080233D01*
X167673187Y-91940236D01*
X167692966Y-91790000D01*
X167692966Y-91789999D01*
X167692966Y-91781872D01*
X167695884Y-91781872D01*
X167704483Y-91726707D01*
X167750859Y-91674448D01*
X167778356Y-91661613D01*
X167779787Y-91661147D01*
X167779803Y-91661144D01*
X167952730Y-91584151D01*
X168105871Y-91472888D01*
X168232533Y-91332216D01*
X168327179Y-91168284D01*
X168385674Y-90988256D01*
X168403321Y-90820345D01*
X168429905Y-90755732D01*
X168438952Y-90745636D01*
X168883786Y-90300802D01*
X168896048Y-90290980D01*
X168895865Y-90290759D01*
X168901867Y-90285792D01*
X168901877Y-90285786D01*
X168949241Y-90235348D01*
X168970120Y-90214470D01*
X168974373Y-90208986D01*
X168978150Y-90204563D01*
X169010062Y-90170582D01*
X169019714Y-90153023D01*
X169030389Y-90136772D01*
X169042674Y-90120936D01*
X169061186Y-90078152D01*
X169063742Y-90072935D01*
X169086197Y-90032092D01*
X169091180Y-90012680D01*
X169097477Y-89994291D01*
X169105438Y-89975895D01*
X169112729Y-89929853D01*
X169113908Y-89924162D01*
X169125500Y-89879019D01*
X169125500Y-89858983D01*
X169127027Y-89839582D01*
X169130160Y-89819804D01*
X169125775Y-89773415D01*
X169125500Y-89767577D01*
X169125500Y-86998687D01*
X169145185Y-86931648D01*
X169157350Y-86915715D01*
X169175891Y-86895122D01*
X169232533Y-86832216D01*
X169327179Y-86668284D01*
X169385674Y-86488256D01*
X169405460Y-86300000D01*
X169385674Y-86111744D01*
X169327179Y-85931716D01*
X169232533Y-85767784D01*
X169105871Y-85627112D01*
X169102403Y-85624592D01*
X168952734Y-85515851D01*
X168952729Y-85515848D01*
X168779807Y-85438857D01*
X168779802Y-85438855D01*
X168634001Y-85407865D01*
X168594646Y-85399500D01*
X168405354Y-85399500D01*
X168372897Y-85406398D01*
X168220197Y-85438855D01*
X168220192Y-85438857D01*
X168047270Y-85515848D01*
X168047265Y-85515851D01*
X167894129Y-85627111D01*
X167804913Y-85726196D01*
X167745426Y-85762845D01*
X167675569Y-85761514D01*
X167617521Y-85722628D01*
X167614404Y-85718732D01*
X167569659Y-85660420D01*
X167544466Y-85595253D01*
X167558504Y-85526808D01*
X167607318Y-85476818D01*
X167607859Y-85476516D01*
X167736711Y-85404997D01*
X167736716Y-85404994D01*
X167891030Y-85272521D01*
X167891031Y-85272520D01*
X168015518Y-85111695D01*
X168105088Y-84929093D01*
X168130746Y-84830000D01*
X169389134Y-84830000D01*
X169389431Y-84831946D01*
X169389433Y-84831952D01*
X169460062Y-85022657D01*
X169460065Y-85022664D01*
X169567649Y-85195267D01*
X169707764Y-85342668D01*
X169707766Y-85342669D01*
X169874695Y-85458856D01*
X170061592Y-85539059D01*
X170260810Y-85580000D01*
X170512500Y-85580000D01*
X170512500Y-84880000D01*
X171012500Y-84880000D01*
X171012500Y-85580000D01*
X171213213Y-85580000D01*
X171364838Y-85564581D01*
X171558881Y-85503700D01*
X171558891Y-85503695D01*
X171736715Y-85404994D01*
X171736716Y-85404994D01*
X171891030Y-85272521D01*
X171891031Y-85272520D01*
X172015518Y-85111695D01*
X172105088Y-84929093D01*
X172130746Y-84830000D01*
X171328611Y-84830000D01*
X171368110Y-84805543D01*
X171435701Y-84716038D01*
X171466395Y-84608160D01*
X171456046Y-84496479D01*
X171406052Y-84396078D01*
X171333569Y-84330000D01*
X172135866Y-84330000D01*
X172135568Y-84328053D01*
X172135566Y-84328047D01*
X172064937Y-84137342D01*
X172064934Y-84137335D01*
X171957350Y-83964732D01*
X171817235Y-83817331D01*
X171817233Y-83817330D01*
X171650304Y-83701143D01*
X171463407Y-83620940D01*
X171264190Y-83580000D01*
X171012500Y-83580000D01*
X171012500Y-84280000D01*
X170512500Y-84280000D01*
X170512500Y-83580000D01*
X170311787Y-83580000D01*
X170160161Y-83595418D01*
X169966118Y-83656299D01*
X169966108Y-83656304D01*
X169788284Y-83755005D01*
X169788283Y-83755005D01*
X169633969Y-83887478D01*
X169633968Y-83887479D01*
X169509481Y-84048304D01*
X169419911Y-84230906D01*
X169394254Y-84330000D01*
X170196389Y-84330000D01*
X170156890Y-84354457D01*
X170089299Y-84443962D01*
X170058605Y-84551840D01*
X170068954Y-84663521D01*
X170118948Y-84763922D01*
X170191431Y-84830000D01*
X169389134Y-84830000D01*
X168130746Y-84830000D01*
X167328611Y-84830000D01*
X167368110Y-84805543D01*
X167435701Y-84716038D01*
X167466395Y-84608160D01*
X167456046Y-84496479D01*
X167406052Y-84396078D01*
X167388964Y-84380500D01*
X168162257Y-84380500D01*
X168177877Y-84382224D01*
X168177904Y-84381939D01*
X168185660Y-84382671D01*
X168185667Y-84382673D01*
X168254814Y-84380500D01*
X168284350Y-84380500D01*
X168291228Y-84379630D01*
X168297041Y-84379172D01*
X168343627Y-84377709D01*
X168362869Y-84372117D01*
X168381912Y-84368174D01*
X168401792Y-84365664D01*
X168445122Y-84348507D01*
X168450646Y-84346617D01*
X168454396Y-84345527D01*
X168495390Y-84333618D01*
X168512629Y-84323422D01*
X168530103Y-84314862D01*
X168548727Y-84307488D01*
X168548727Y-84307487D01*
X168548732Y-84307486D01*
X168586449Y-84280082D01*
X168591305Y-84276892D01*
X168631420Y-84253170D01*
X168645589Y-84238999D01*
X168660379Y-84226368D01*
X168676587Y-84214594D01*
X168706299Y-84178676D01*
X168710212Y-84174376D01*
X171096133Y-81788455D01*
X171108395Y-81778633D01*
X171108212Y-81778412D01*
X171114214Y-81773445D01*
X171114224Y-81773439D01*
X171161588Y-81723001D01*
X171182467Y-81702123D01*
X171186720Y-81696639D01*
X171190497Y-81692216D01*
X171222409Y-81658235D01*
X171232061Y-81640676D01*
X171242736Y-81624425D01*
X171255021Y-81608589D01*
X171273530Y-81565813D01*
X171276093Y-81560580D01*
X171292664Y-81530439D01*
X171342210Y-81481179D01*
X171410525Y-81466524D01*
X171472447Y-81488608D01*
X171522414Y-81523595D01*
X171522420Y-81523599D01*
X171736507Y-81623429D01*
X171736516Y-81623433D01*
X171950000Y-81680634D01*
X171950000Y-80785501D01*
X172057685Y-80834680D01*
X172164237Y-80850000D01*
X172235763Y-80850000D01*
X172342315Y-80834680D01*
X172450000Y-80785501D01*
X172450000Y-81680633D01*
G37*
%TD.AperFunction*%
%TA.AperFunction,Conductor*%
G36*
X157030703Y-90824913D02*
G01*
X157058946Y-90863017D01*
X157059572Y-90862656D01*
X157062717Y-90868104D01*
X157062778Y-90868186D01*
X157062820Y-90868282D01*
X157062821Y-90868284D01*
X157157467Y-91032216D01*
X157204227Y-91084148D01*
X157284129Y-91172888D01*
X157437265Y-91284148D01*
X157437270Y-91284151D01*
X157610192Y-91361142D01*
X157610197Y-91361144D01*
X157795354Y-91400500D01*
X157854548Y-91400500D01*
X157921587Y-91420185D01*
X157942229Y-91436819D01*
X168018181Y-101512771D01*
X168051666Y-101574094D01*
X168054500Y-101600452D01*
X168054500Y-101724773D01*
X168034815Y-101791812D01*
X168001623Y-101826348D01*
X167808597Y-101961505D01*
X167641505Y-102128597D01*
X167511575Y-102314158D01*
X167456998Y-102357783D01*
X167387500Y-102364977D01*
X167325145Y-102333454D01*
X167308425Y-102314158D01*
X167178494Y-102128597D01*
X167011402Y-101961506D01*
X167011395Y-101961501D01*
X166817834Y-101825967D01*
X166817830Y-101825965D01*
X166765500Y-101801563D01*
X166603663Y-101726097D01*
X166603659Y-101726096D01*
X166603655Y-101726094D01*
X166375413Y-101664938D01*
X166375403Y-101664936D01*
X166140001Y-101644341D01*
X166139999Y-101644341D01*
X165904596Y-101664936D01*
X165904586Y-101664938D01*
X165804126Y-101691856D01*
X165734276Y-101690193D01*
X165684352Y-101659762D01*
X156861819Y-92837228D01*
X156828334Y-92775905D01*
X156825500Y-92749547D01*
X156825500Y-90918626D01*
X156845185Y-90851587D01*
X156897989Y-90805832D01*
X156967147Y-90795888D01*
X157030703Y-90824913D01*
G37*
%TD.AperFunction*%
%TA.AperFunction,Conductor*%
G36*
X156030703Y-93775739D02*
G01*
X156037181Y-93781771D01*
X163693228Y-101437819D01*
X163726713Y-101499142D01*
X163721729Y-101568834D01*
X163679857Y-101624767D01*
X163614393Y-101649184D01*
X163605547Y-101649500D01*
X163185452Y-101649500D01*
X163118413Y-101629815D01*
X163097771Y-101613181D01*
X155861819Y-94377228D01*
X155828334Y-94315905D01*
X155825500Y-94289547D01*
X155825500Y-93869452D01*
X155845185Y-93802413D01*
X155897989Y-93756658D01*
X155967147Y-93746714D01*
X156030703Y-93775739D01*
G37*
%TD.AperFunction*%
%TA.AperFunction,Conductor*%
G36*
X153681587Y-83570185D02*
G01*
X153702229Y-83586819D01*
X155885386Y-85769977D01*
X155918871Y-85831300D01*
X155913887Y-85900992D01*
X155872015Y-85956925D01*
X155848142Y-85970937D01*
X155747270Y-86015849D01*
X155720621Y-86035210D01*
X155654814Y-86058688D01*
X155597302Y-86048169D01*
X155449094Y-85982181D01*
X155449089Y-85982179D01*
X155303288Y-85951189D01*
X155263933Y-85942824D01*
X155074641Y-85942824D01*
X155042184Y-85949722D01*
X154889484Y-85982179D01*
X154889479Y-85982181D01*
X154772592Y-86034224D01*
X154703342Y-86043509D01*
X154640065Y-86013881D01*
X154630016Y-86003928D01*
X154605871Y-85977112D01*
X154581067Y-85959091D01*
X154452734Y-85865851D01*
X154452729Y-85865848D01*
X154279807Y-85788857D01*
X154279802Y-85788855D01*
X154134001Y-85757865D01*
X154094646Y-85749500D01*
X153905354Y-85749500D01*
X153896166Y-85751453D01*
X153720197Y-85788855D01*
X153720192Y-85788857D01*
X153547270Y-85865848D01*
X153547265Y-85865851D01*
X153394129Y-85977111D01*
X153267466Y-86117785D01*
X153172821Y-86281715D01*
X153172818Y-86281722D01*
X153114327Y-86461740D01*
X153114326Y-86461744D01*
X153106329Y-86537834D01*
X153096679Y-86629649D01*
X153070094Y-86694263D01*
X153061039Y-86704368D01*
X152416208Y-87349199D01*
X152403951Y-87359020D01*
X152404134Y-87359241D01*
X152398123Y-87364213D01*
X152350772Y-87414636D01*
X152329889Y-87435519D01*
X152329877Y-87435532D01*
X152325621Y-87441017D01*
X152321837Y-87445447D01*
X152289937Y-87479418D01*
X152289936Y-87479420D01*
X152280284Y-87496976D01*
X152269610Y-87513226D01*
X152257329Y-87529061D01*
X152257324Y-87529068D01*
X152238815Y-87571838D01*
X152236245Y-87577084D01*
X152213803Y-87617906D01*
X152208822Y-87637307D01*
X152202521Y-87655710D01*
X152194562Y-87674102D01*
X152194561Y-87674105D01*
X152187271Y-87720127D01*
X152186087Y-87725846D01*
X152174501Y-87770972D01*
X152174500Y-87770982D01*
X152174500Y-87791016D01*
X152172973Y-87810415D01*
X152169840Y-87830194D01*
X152169840Y-87830195D01*
X152174225Y-87876583D01*
X152174500Y-87882421D01*
X152174500Y-88001312D01*
X152154815Y-88068351D01*
X152142650Y-88084284D01*
X152067466Y-88167784D01*
X151972821Y-88331715D01*
X151972817Y-88331725D01*
X151957310Y-88379449D01*
X151917872Y-88437124D01*
X151853513Y-88464321D01*
X151784667Y-88452406D01*
X151751699Y-88428810D01*
X151596373Y-88273484D01*
X151324472Y-88001582D01*
X151290987Y-87940259D01*
X151288153Y-87913901D01*
X151288153Y-85561340D01*
X151307838Y-85494301D01*
X151320003Y-85478368D01*
X151346164Y-85449313D01*
X151395186Y-85394869D01*
X151489832Y-85230937D01*
X151548327Y-85050909D01*
X151568113Y-84862653D01*
X151548327Y-84674397D01*
X151489832Y-84494369D01*
X151395186Y-84330437D01*
X151312342Y-84238430D01*
X151282113Y-84175440D01*
X151290738Y-84106105D01*
X151316809Y-84067781D01*
X151797773Y-83586819D01*
X151859096Y-83553334D01*
X151885454Y-83550500D01*
X153614548Y-83550500D01*
X153681587Y-83570185D01*
G37*
%TD.AperFunction*%
%TA.AperFunction,Conductor*%
G36*
X171180703Y-76161045D02*
G01*
X171187181Y-76167077D01*
X171328597Y-76308493D01*
X171328603Y-76308498D01*
X171514158Y-76438425D01*
X171557783Y-76493002D01*
X171564977Y-76562500D01*
X171533454Y-76624855D01*
X171514158Y-76641575D01*
X171328597Y-76771505D01*
X171161508Y-76938594D01*
X171122504Y-76994298D01*
X171067926Y-77037923D01*
X171022282Y-77042646D01*
X171033891Y-77068620D01*
X171023396Y-77137679D01*
X170926098Y-77346335D01*
X170926094Y-77346344D01*
X170864938Y-77574586D01*
X170864936Y-77574596D01*
X170844341Y-77809999D01*
X170844341Y-77810000D01*
X170864936Y-78045403D01*
X170864938Y-78045413D01*
X170891856Y-78145872D01*
X170890193Y-78215722D01*
X170859762Y-78265646D01*
X170328555Y-78796852D01*
X170316298Y-78806673D01*
X170316481Y-78806894D01*
X170310470Y-78811866D01*
X170263119Y-78862289D01*
X170242236Y-78883172D01*
X170242224Y-78883185D01*
X170237968Y-78888670D01*
X170234184Y-78893100D01*
X170202284Y-78927071D01*
X170202283Y-78927073D01*
X170192631Y-78944629D01*
X170181957Y-78960879D01*
X170169676Y-78976714D01*
X170169671Y-78976721D01*
X170151162Y-79019491D01*
X170148592Y-79024737D01*
X170126150Y-79065559D01*
X170121169Y-79084960D01*
X170114868Y-79103363D01*
X170106909Y-79121755D01*
X170106908Y-79121758D01*
X170099618Y-79167780D01*
X170098434Y-79173499D01*
X170086848Y-79218625D01*
X170086847Y-79218635D01*
X170086847Y-79238669D01*
X170085320Y-79258068D01*
X170082187Y-79277847D01*
X170082187Y-79277848D01*
X170086572Y-79324236D01*
X170086847Y-79330074D01*
X170086847Y-80977200D01*
X170067162Y-81044239D01*
X170050528Y-81064881D01*
X168022228Y-83093181D01*
X167960905Y-83126666D01*
X167934547Y-83129500D01*
X165805318Y-83129500D01*
X165789697Y-83127775D01*
X165789670Y-83128061D01*
X165781908Y-83127326D01*
X165712747Y-83129500D01*
X165683224Y-83129500D01*
X165676353Y-83130367D01*
X165670534Y-83130825D01*
X165623949Y-83132289D01*
X165623943Y-83132290D01*
X165604701Y-83137880D01*
X165585662Y-83141823D01*
X165565792Y-83144334D01*
X165565778Y-83144337D01*
X165522458Y-83161488D01*
X165516933Y-83163380D01*
X165472188Y-83176380D01*
X165472185Y-83176381D01*
X165454941Y-83186579D01*
X165437480Y-83195133D01*
X165418849Y-83202510D01*
X165418837Y-83202517D01*
X165381145Y-83229902D01*
X165376262Y-83233109D01*
X165336155Y-83256829D01*
X165321989Y-83270995D01*
X165307199Y-83283627D01*
X165290989Y-83295404D01*
X165290986Y-83295407D01*
X165261285Y-83331309D01*
X165257352Y-83335631D01*
X161768834Y-86824148D01*
X161707511Y-86857633D01*
X161637819Y-86852649D01*
X161589002Y-86819438D01*
X161557349Y-86784283D01*
X161527120Y-86721291D01*
X161525500Y-86701312D01*
X161525500Y-86346848D01*
X161545185Y-86279809D01*
X161561819Y-86259167D01*
X166140353Y-81680633D01*
X170733788Y-77087197D01*
X170746042Y-77077382D01*
X170745859Y-77077160D01*
X170751866Y-77072188D01*
X170751877Y-77072182D01*
X170784048Y-77037923D01*
X170799227Y-77021760D01*
X170822877Y-76998111D01*
X170824165Y-76999399D01*
X170877043Y-76966018D01*
X170908249Y-76966270D01*
X170900660Y-76953363D01*
X170903431Y-76883548D01*
X170907124Y-76873936D01*
X170911177Y-76864569D01*
X170913743Y-76859329D01*
X170936197Y-76818488D01*
X170941180Y-76799076D01*
X170947481Y-76780676D01*
X170955437Y-76762292D01*
X170962729Y-76716248D01*
X170963906Y-76710567D01*
X170975500Y-76665415D01*
X170975500Y-76645379D01*
X170977027Y-76625978D01*
X170977205Y-76624855D01*
X170980160Y-76606200D01*
X170975775Y-76559811D01*
X170975500Y-76553973D01*
X170975500Y-76254758D01*
X170995185Y-76187719D01*
X171047989Y-76141964D01*
X171117147Y-76132020D01*
X171180703Y-76161045D01*
G37*
%TD.AperFunction*%
%TD*%
M02*
