%TF.GenerationSoftware,KiCad,Pcbnew,7.0.8*%
%TF.CreationDate,2024-02-20T11:28:20-06:00*%
%TF.ProjectId,CH32V103DevBoard,43483332-5631-4303-9344-6576426f6172,rev?*%
%TF.SameCoordinates,Original*%
%TF.FileFunction,Paste,Top*%
%TF.FilePolarity,Positive*%
%FSLAX46Y46*%
G04 Gerber Fmt 4.6, Leading zero omitted, Abs format (unit mm)*
G04 Created by KiCad (PCBNEW 7.0.8) date 2024-02-20 11:28:20*
%MOMM*%
%LPD*%
G01*
G04 APERTURE LIST*
G04 Aperture macros list*
%AMRoundRect*
0 Rectangle with rounded corners*
0 $1 Rounding radius*
0 $2 $3 $4 $5 $6 $7 $8 $9 X,Y pos of 4 corners*
0 Add a 4 corners polygon primitive as box body*
4,1,4,$2,$3,$4,$5,$6,$7,$8,$9,$2,$3,0*
0 Add four circle primitives for the rounded corners*
1,1,$1+$1,$2,$3*
1,1,$1+$1,$4,$5*
1,1,$1+$1,$6,$7*
1,1,$1+$1,$8,$9*
0 Add four rect primitives between the rounded corners*
20,1,$1+$1,$2,$3,$4,$5,0*
20,1,$1+$1,$4,$5,$6,$7,0*
20,1,$1+$1,$6,$7,$8,$9,0*
20,1,$1+$1,$8,$9,$2,$3,0*%
G04 Aperture macros list end*
%ADD10R,1.000000X0.500000*%
%ADD11R,1.500000X0.800000*%
%ADD12R,2.000000X1.500000*%
%ADD13R,2.000000X3.800000*%
%ADD14RoundRect,0.243750X-0.243750X-0.456250X0.243750X-0.456250X0.243750X0.456250X-0.243750X0.456250X0*%
%ADD15RoundRect,0.250000X-0.250000X-0.475000X0.250000X-0.475000X0.250000X0.475000X-0.250000X0.475000X0*%
%ADD16R,0.800000X0.500000*%
%ADD17R,0.800000X0.400000*%
%ADD18RoundRect,0.250000X0.250000X0.475000X-0.250000X0.475000X-0.250000X-0.475000X0.250000X-0.475000X0*%
%ADD19R,1.000000X0.800000*%
%ADD20R,0.700000X1.500000*%
%ADD21R,0.640000X0.700000*%
%ADD22R,0.500000X0.700000*%
%ADD23RoundRect,0.250000X0.475000X-0.250000X0.475000X0.250000X-0.475000X0.250000X-0.475000X-0.250000X0*%
%ADD24R,1.400000X0.250000*%
%ADD25RoundRect,0.075000X-0.662500X-0.075000X0.662500X-0.075000X0.662500X0.075000X-0.662500X0.075000X0*%
%ADD26RoundRect,0.075000X-0.075000X-0.662500X0.075000X-0.662500X0.075000X0.662500X-0.075000X0.662500X0*%
%ADD27R,2.400000X3.500000*%
%ADD28RoundRect,0.250000X-0.475000X0.250000X-0.475000X-0.250000X0.475000X-0.250000X0.475000X0.250000X0*%
G04 APERTURE END LIST*
D10*
%TO.C,SW1*%
X143850000Y-72800000D03*
X143850000Y-76000000D03*
D11*
X142100000Y-73400000D03*
X145600000Y-73400000D03*
X142100000Y-75400000D03*
X145600000Y-75400000D03*
%TD*%
D10*
%TO.C,SW4*%
X151600000Y-72800000D03*
X151600000Y-76000000D03*
D11*
X149850000Y-73400000D03*
X153350000Y-73400000D03*
X149850000Y-75400000D03*
X153350000Y-75400000D03*
%TD*%
D12*
%TO.C,U2*%
X164600000Y-78000000D03*
X164600000Y-75700000D03*
D13*
X158300000Y-75700000D03*
D12*
X164600000Y-73400000D03*
%TD*%
D14*
%TO.C,D2*%
X140462500Y-79400000D03*
X142337500Y-79400000D03*
%TD*%
%TO.C,D1*%
X140525000Y-83000000D03*
X142400000Y-83000000D03*
%TD*%
D15*
%TO.C,C5*%
X152500000Y-81800000D03*
X154400000Y-81800000D03*
%TD*%
%TO.C,C2*%
X158050000Y-96600000D03*
X159950000Y-96600000D03*
%TD*%
D16*
%TO.C,RN1*%
X145000000Y-79600000D03*
D17*
X145000000Y-80400000D03*
X145000000Y-81200000D03*
D16*
X145000000Y-82000000D03*
X146800000Y-82000000D03*
D17*
X146800000Y-81200000D03*
X146800000Y-80400000D03*
D16*
X146800000Y-79600000D03*
%TD*%
D18*
%TO.C,C9*%
X164300000Y-69600000D03*
X162400000Y-69600000D03*
%TD*%
D19*
%TO.C,SW2*%
X168450000Y-64855000D03*
X168450000Y-62645000D03*
X161150000Y-64855000D03*
X161150000Y-62645000D03*
D20*
X167050000Y-65505000D03*
X164050000Y-65505000D03*
X162550000Y-65505000D03*
%TD*%
D21*
%TO.C,RN2*%
X167060000Y-97400000D03*
D22*
X167930000Y-97400000D03*
X168730000Y-97400000D03*
D21*
X169600000Y-97400000D03*
X169600000Y-96000000D03*
D22*
X168730000Y-96000000D03*
X167930000Y-96000000D03*
D21*
X167060000Y-96000000D03*
%TD*%
D18*
%TO.C,C10*%
X163900000Y-80800000D03*
X162000000Y-80800000D03*
%TD*%
D23*
%TO.C,C3*%
X162400000Y-86150000D03*
X162400000Y-84250000D03*
%TD*%
D24*
%TO.C,J1*%
X165912500Y-92225000D03*
X165912500Y-91425000D03*
X165912500Y-90150000D03*
X165912500Y-89150000D03*
X165912500Y-88650000D03*
X165912500Y-90650000D03*
X165912500Y-86375000D03*
X165912500Y-85575000D03*
X165912500Y-85825000D03*
X165912500Y-86625000D03*
X165912500Y-87150000D03*
X165912500Y-88150000D03*
X165912500Y-89650000D03*
X165912500Y-87650000D03*
X165912500Y-91175000D03*
X165912500Y-91975000D03*
%TD*%
D25*
%TO.C,U1*%
X150977500Y-86650000D03*
X150977500Y-87150000D03*
X150977500Y-87650000D03*
X150977500Y-88150000D03*
X150977500Y-88650000D03*
X150977500Y-89150000D03*
X150977500Y-89650000D03*
X150977500Y-90150000D03*
X150977500Y-90650000D03*
X150977500Y-91150000D03*
X150977500Y-91650000D03*
X150977500Y-92150000D03*
D26*
X152390000Y-93562500D03*
X152890000Y-93562500D03*
X153390000Y-93562500D03*
X153890000Y-93562500D03*
X154390000Y-93562500D03*
X154890000Y-93562500D03*
X155390000Y-93562500D03*
X155890000Y-93562500D03*
X156390000Y-93562500D03*
X156890000Y-93562500D03*
X157390000Y-93562500D03*
X157890000Y-93562500D03*
D25*
X159302500Y-92150000D03*
X159302500Y-91650000D03*
X159302500Y-91150000D03*
X159302500Y-90650000D03*
X159302500Y-90150000D03*
X159302500Y-89650000D03*
X159302500Y-89150000D03*
X159302500Y-88650000D03*
X159302500Y-88150000D03*
X159302500Y-87650000D03*
X159302500Y-87150000D03*
X159302500Y-86650000D03*
D26*
X157890000Y-85237500D03*
X157390000Y-85237500D03*
X156890000Y-85237500D03*
X156390000Y-85237500D03*
X155890000Y-85237500D03*
X155390000Y-85237500D03*
X154890000Y-85237500D03*
X154390000Y-85237500D03*
X153890000Y-85237500D03*
X153390000Y-85237500D03*
X152890000Y-85237500D03*
X152390000Y-85237500D03*
%TD*%
D15*
%TO.C,C4*%
X152500000Y-78790000D03*
X154400000Y-78790000D03*
%TD*%
D23*
%TO.C,C7*%
X144400000Y-91950000D03*
X144400000Y-90050000D03*
%TD*%
%TO.C,C8*%
X147600000Y-87800000D03*
X147600000Y-85900000D03*
%TD*%
D27*
%TO.C,Y1*%
X140200000Y-91800000D03*
X140200000Y-86600000D03*
%TD*%
D28*
%TO.C,C6*%
X144400000Y-85850000D03*
X144400000Y-87750000D03*
%TD*%
D23*
%TO.C,C1*%
X147600000Y-91830000D03*
X147600000Y-89930000D03*
%TD*%
M02*
