%TF.GenerationSoftware,KiCad,Pcbnew,7.0.8*%
%TF.CreationDate,2024-02-20T11:28:20-06:00*%
%TF.ProjectId,CH32V103DevBoard,43483332-5631-4303-9344-6576426f6172,rev?*%
%TF.SameCoordinates,Original*%
%TF.FileFunction,Copper,L1,Top*%
%TF.FilePolarity,Positive*%
%FSLAX46Y46*%
G04 Gerber Fmt 4.6, Leading zero omitted, Abs format (unit mm)*
G04 Created by KiCad (PCBNEW 7.0.8) date 2024-02-20 11:28:20*
%MOMM*%
%LPD*%
G01*
G04 APERTURE LIST*
G04 Aperture macros list*
%AMRoundRect*
0 Rectangle with rounded corners*
0 $1 Rounding radius*
0 $2 $3 $4 $5 $6 $7 $8 $9 X,Y pos of 4 corners*
0 Add a 4 corners polygon primitive as box body*
4,1,4,$2,$3,$4,$5,$6,$7,$8,$9,$2,$3,0*
0 Add four circle primitives for the rounded corners*
1,1,$1+$1,$2,$3*
1,1,$1+$1,$4,$5*
1,1,$1+$1,$6,$7*
1,1,$1+$1,$8,$9*
0 Add four rect primitives between the rounded corners*
20,1,$1+$1,$2,$3,$4,$5,0*
20,1,$1+$1,$4,$5,$6,$7,0*
20,1,$1+$1,$6,$7,$8,$9,0*
20,1,$1+$1,$8,$9,$2,$3,0*%
G04 Aperture macros list end*
%TA.AperFunction,ComponentPad*%
%ADD10R,1.700000X1.700000*%
%TD*%
%TA.AperFunction,ComponentPad*%
%ADD11O,1.700000X1.700000*%
%TD*%
%TA.AperFunction,SMDPad,CuDef*%
%ADD12R,1.000000X0.500000*%
%TD*%
%TA.AperFunction,SMDPad,CuDef*%
%ADD13R,1.500000X0.800000*%
%TD*%
%TA.AperFunction,SMDPad,CuDef*%
%ADD14R,2.000000X1.500000*%
%TD*%
%TA.AperFunction,SMDPad,CuDef*%
%ADD15R,2.000000X3.800000*%
%TD*%
%TA.AperFunction,SMDPad,CuDef*%
%ADD16RoundRect,0.243750X-0.243750X-0.456250X0.243750X-0.456250X0.243750X0.456250X-0.243750X0.456250X0*%
%TD*%
%TA.AperFunction,SMDPad,CuDef*%
%ADD17RoundRect,0.250000X-0.250000X-0.475000X0.250000X-0.475000X0.250000X0.475000X-0.250000X0.475000X0*%
%TD*%
%TA.AperFunction,SMDPad,CuDef*%
%ADD18R,0.800000X0.500000*%
%TD*%
%TA.AperFunction,SMDPad,CuDef*%
%ADD19R,0.800000X0.400000*%
%TD*%
%TA.AperFunction,SMDPad,CuDef*%
%ADD20RoundRect,0.250000X0.250000X0.475000X-0.250000X0.475000X-0.250000X-0.475000X0.250000X-0.475000X0*%
%TD*%
%TA.AperFunction,SMDPad,CuDef*%
%ADD21R,1.000000X0.800000*%
%TD*%
%TA.AperFunction,SMDPad,CuDef*%
%ADD22R,0.700000X1.500000*%
%TD*%
%TA.AperFunction,SMDPad,CuDef*%
%ADD23R,0.640000X0.700000*%
%TD*%
%TA.AperFunction,SMDPad,CuDef*%
%ADD24R,0.500000X0.700000*%
%TD*%
%TA.AperFunction,SMDPad,CuDef*%
%ADD25RoundRect,0.250000X0.475000X-0.250000X0.475000X0.250000X-0.475000X0.250000X-0.475000X-0.250000X0*%
%TD*%
%TA.AperFunction,SMDPad,CuDef*%
%ADD26R,1.400000X0.250000*%
%TD*%
%TA.AperFunction,ComponentPad*%
%ADD27O,2.100000X1.000000*%
%TD*%
%TA.AperFunction,ComponentPad*%
%ADD28O,1.800000X1.000000*%
%TD*%
%TA.AperFunction,SMDPad,CuDef*%
%ADD29RoundRect,0.075000X-0.662500X-0.075000X0.662500X-0.075000X0.662500X0.075000X-0.662500X0.075000X0*%
%TD*%
%TA.AperFunction,SMDPad,CuDef*%
%ADD30RoundRect,0.075000X-0.075000X-0.662500X0.075000X-0.662500X0.075000X0.662500X-0.075000X0.662500X0*%
%TD*%
%TA.AperFunction,SMDPad,CuDef*%
%ADD31R,2.400000X3.500000*%
%TD*%
%TA.AperFunction,SMDPad,CuDef*%
%ADD32RoundRect,0.250000X-0.475000X0.250000X-0.475000X-0.250000X0.475000X-0.250000X0.475000X0.250000X0*%
%TD*%
%TA.AperFunction,ViaPad*%
%ADD33C,0.800000*%
%TD*%
%TA.AperFunction,Conductor*%
%ADD34C,0.250000*%
%TD*%
%TA.AperFunction,Conductor*%
%ADD35C,0.300000*%
%TD*%
G04 APERTURE END LIST*
D10*
%TO.P,J7,1,Pin_1*%
%TO.N,PA15*%
X153240000Y-63600000D03*
D11*
%TO.P,J7,2,Pin_2*%
%TO.N,PB3*%
X150700000Y-63600000D03*
%TO.P,J7,3,Pin_3*%
%TO.N,PB5*%
X148160000Y-63600000D03*
%TO.P,J7,4,Pin_4*%
%TO.N,PB6*%
X145620000Y-63600000D03*
%TO.P,J7,5,Pin_5*%
%TO.N,PB7*%
X143080000Y-63600000D03*
%TO.P,J7,6,Pin_6*%
%TO.N,PB8*%
X140540000Y-63600000D03*
%TO.P,J7,7,Pin_7*%
%TO.N,PB9*%
X138000000Y-63600000D03*
%TD*%
D12*
%TO.P,SW1,*%
%TO.N,*%
X143850000Y-72800000D03*
X143850000Y-76000000D03*
D13*
%TO.P,SW1,1,1*%
%TO.N,VSSA*%
X142100000Y-73400000D03*
%TO.P,SW1,2,2*%
X145600000Y-73400000D03*
%TO.P,SW1,3,K*%
%TO.N,NRST*%
X142100000Y-75400000D03*
%TO.P,SW1,4,A*%
X145600000Y-75400000D03*
%TD*%
D12*
%TO.P,SW4,*%
%TO.N,*%
X151600000Y-72800000D03*
X151600000Y-76000000D03*
D13*
%TO.P,SW4,1,1*%
%TO.N,VSSA*%
X149850000Y-73400000D03*
%TO.P,SW4,2,2*%
X153350000Y-73400000D03*
%TO.P,SW4,3,K*%
%TO.N,PA1*%
X149850000Y-75400000D03*
%TO.P,SW4,4,A*%
X153350000Y-75400000D03*
%TD*%
D14*
%TO.P,U2,1,GND*%
%TO.N,VSSA*%
X164600000Y-78000000D03*
%TO.P,U2,2,VO*%
%TO.N,VDDA*%
X164600000Y-75700000D03*
D15*
X158300000Y-75700000D03*
D14*
%TO.P,U2,3,VI*%
%TO.N,Net-(SW2-B)*%
X164600000Y-73400000D03*
%TD*%
D16*
%TO.P,D2,1,K*%
%TO.N,VSSA*%
X140462500Y-79400000D03*
%TO.P,D2,2,A*%
%TO.N,Net-(D2-A)*%
X142337500Y-79400000D03*
%TD*%
%TO.P,D1,1,K*%
%TO.N,VSSA*%
X140525000Y-83000000D03*
%TO.P,D1,2,A*%
%TO.N,Net-(D1-A)*%
X142400000Y-83000000D03*
%TD*%
D10*
%TO.P,J4,1,Pin_1*%
%TO.N,PA2*%
X133400000Y-75700000D03*
D11*
%TO.P,J4,2,Pin_2*%
%TO.N,PA3*%
X133400000Y-78240000D03*
%TO.P,J4,3,Pin_3*%
%TO.N,PA4*%
X133400000Y-80780000D03*
%TO.P,J4,4,Pin_4*%
%TO.N,PA5*%
X133400000Y-83320000D03*
%TO.P,J4,5,Pin_5*%
%TO.N,PA6*%
X133400000Y-85860000D03*
%TO.P,J4,6,Pin_6*%
%TO.N,PA7*%
X133400000Y-88400000D03*
%TO.P,J4,7,Pin_7*%
%TO.N,PB0*%
X133400000Y-90940000D03*
%TO.P,J4,8,Pin_8*%
%TO.N,PB1*%
X133400000Y-93480000D03*
%TO.P,J4,9,Pin_9*%
%TO.N,PB2*%
X133400000Y-96020000D03*
%TO.P,J4,10,Pin_10*%
%TO.N,PB10*%
X133400000Y-98560000D03*
%TO.P,J4,11,Pin_11*%
%TO.N,PB11*%
X133400000Y-101100000D03*
%TD*%
D10*
%TO.P,J5,1,Pin_1*%
%TO.N,PA10*%
X158570000Y-103000000D03*
D11*
%TO.P,J5,2,Pin_2*%
%TO.N,PA9*%
X156030000Y-103000000D03*
%TO.P,J5,3,Pin_3*%
%TO.N,PA8*%
X153490000Y-103000000D03*
%TO.P,J5,4,Pin_4*%
%TO.N,PB15*%
X150950000Y-103000000D03*
%TO.P,J5,5,Pin_5*%
%TO.N,PB14*%
X148410000Y-103000000D03*
%TO.P,J5,6,Pin_6*%
%TO.N,PB13*%
X145870000Y-103000000D03*
%TO.P,J5,7,Pin_7*%
%TO.N,PB12*%
X143330000Y-103000000D03*
%TD*%
D10*
%TO.P,J3,1,Pin_1*%
%TO.N,PB7*%
X163600000Y-103000000D03*
D11*
%TO.P,J3,2,Pin_2*%
%TO.N,PB6*%
X166140000Y-103000000D03*
%TO.P,J3,3,Pin_3*%
%TO.N,VDDA*%
X168680000Y-103000000D03*
%TO.P,J3,4,Pin_4*%
%TO.N,VSSA*%
X171220000Y-103000000D03*
%TD*%
D17*
%TO.P,C5,1*%
%TO.N,VDDA*%
X152500000Y-81800000D03*
%TO.P,C5,2*%
%TO.N,VSSA*%
X154400000Y-81800000D03*
%TD*%
%TO.P,C2,1*%
%TO.N,VDDA*%
X158050000Y-96600000D03*
%TO.P,C2,2*%
%TO.N,VSSA*%
X159950000Y-96600000D03*
%TD*%
D18*
%TO.P,RN1,1,R1.1*%
%TO.N,Net-(D2-A)*%
X145000000Y-79600000D03*
D19*
%TO.P,RN1,2,R2.1*%
X145000000Y-80400000D03*
%TO.P,RN1,3,R3.1*%
%TO.N,Net-(D1-A)*%
X145000000Y-81200000D03*
D18*
%TO.P,RN1,4,R4.1*%
X145000000Y-82000000D03*
%TO.P,RN1,5,R4.2*%
%TO.N,PA0*%
X146800000Y-82000000D03*
D19*
%TO.P,RN1,6,R3.2*%
X146800000Y-81200000D03*
%TO.P,RN1,7,R2.2*%
%TO.N,VDDA*%
X146800000Y-80400000D03*
D18*
%TO.P,RN1,8,R1.2*%
X146800000Y-79600000D03*
%TD*%
D20*
%TO.P,C9,1*%
%TO.N,Net-(SW2-B)*%
X164300000Y-69600000D03*
%TO.P,C9,2*%
%TO.N,VSSA*%
X162400000Y-69600000D03*
%TD*%
D21*
%TO.P,SW2,*%
%TO.N,*%
X168450000Y-64855000D03*
X168450000Y-62645000D03*
X161150000Y-64855000D03*
X161150000Y-62645000D03*
D22*
%TO.P,SW2,1,A*%
%TO.N,VUSB*%
X167050000Y-65505000D03*
%TO.P,SW2,2,B*%
%TO.N,Net-(SW2-B)*%
X164050000Y-65505000D03*
%TO.P,SW2,3,C*%
%TO.N,unconnected-(SW2-C-Pad3)*%
X162550000Y-65505000D03*
%TD*%
D10*
%TO.P,J2,1,Pin_1*%
%TO.N,VDDA*%
X172200000Y-67650000D03*
D11*
%TO.P,J2,2,Pin_2*%
%TO.N,SWDIO*%
X172200000Y-70190000D03*
%TO.P,J2,3,Pin_3*%
%TO.N,SWCLK*%
X172200000Y-72730000D03*
%TO.P,J2,4,Pin_4*%
%TO.N,BOOT0*%
X172200000Y-75270000D03*
%TO.P,J2,5,Pin_5*%
%TO.N,NRST*%
X172200000Y-77810000D03*
%TO.P,J2,6,Pin_6*%
%TO.N,VSSA*%
X172200000Y-80350000D03*
%TD*%
D23*
%TO.P,RN2,1,R1.1*%
%TO.N,unconnected-(RN2-R1.1-Pad1)*%
X167060000Y-97400000D03*
D24*
%TO.P,RN2,2,R2.1*%
%TO.N,unconnected-(RN2-R2.1-Pad2)*%
X167930000Y-97400000D03*
%TO.P,RN2,3,R3.1*%
%TO.N,VSSA*%
X168730000Y-97400000D03*
D23*
%TO.P,RN2,4,R4.1*%
X169600000Y-97400000D03*
%TO.P,RN2,5,R4.2*%
%TO.N,Net-(J1-CC2)*%
X169600000Y-96000000D03*
D24*
%TO.P,RN2,6,R3.2*%
%TO.N,Net-(J1-CC1)*%
X168730000Y-96000000D03*
%TO.P,RN2,7,R2.2*%
%TO.N,unconnected-(RN2-R2.2-Pad7)*%
X167930000Y-96000000D03*
D23*
%TO.P,RN2,8,R1.2*%
%TO.N,unconnected-(RN2-R1.2-Pad8)*%
X167060000Y-96000000D03*
%TD*%
D20*
%TO.P,C10,1*%
%TO.N,VDDA*%
X163900000Y-80800000D03*
%TO.P,C10,2*%
%TO.N,VSSA*%
X162000000Y-80800000D03*
%TD*%
D25*
%TO.P,C3,1*%
%TO.N,VDDA*%
X162400000Y-86150000D03*
%TO.P,C3,2*%
%TO.N,VSSA*%
X162400000Y-84250000D03*
%TD*%
D26*
%TO.P,J1,A1,GND*%
%TO.N,VSSA*%
X165912500Y-92225000D03*
%TO.P,J1,A4,VBUS*%
%TO.N,VUSB*%
X165912500Y-91425000D03*
%TO.P,J1,A5,CC1*%
%TO.N,Net-(J1-CC1)*%
X165912500Y-90150000D03*
%TO.P,J1,A6,D+*%
%TO.N,D+*%
X165912500Y-89150000D03*
%TO.P,J1,A7,D-*%
%TO.N,D-*%
X165912500Y-88650000D03*
%TO.P,J1,A8,SBU1*%
%TO.N,unconnected-(J1-SBU1-PadA8)*%
X165912500Y-90650000D03*
%TO.P,J1,A9,VBUS*%
%TO.N,VUSB*%
X165912500Y-86375000D03*
%TO.P,J1,A12,GND*%
%TO.N,VSSA*%
X165912500Y-85575000D03*
%TO.P,J1,B1,GND*%
X165912500Y-85825000D03*
%TO.P,J1,B4,VBUS*%
%TO.N,VUSB*%
X165912500Y-86625000D03*
%TO.P,J1,B5,CC2*%
%TO.N,Net-(J1-CC2)*%
X165912500Y-87150000D03*
%TO.P,J1,B6,D+*%
%TO.N,D+*%
X165912500Y-88150000D03*
%TO.P,J1,B7,D-*%
%TO.N,D-*%
X165912500Y-89650000D03*
%TO.P,J1,B8,SBU2*%
%TO.N,unconnected-(J1-SBU2-PadB8)*%
X165912500Y-87650000D03*
%TO.P,J1,B9,VBUS*%
%TO.N,VUSB*%
X165912500Y-91175000D03*
%TO.P,J1,B12,GND*%
%TO.N,VSSA*%
X165912500Y-91975000D03*
D27*
%TO.P,J1,S1,SHIELD*%
X166612500Y-93220000D03*
D28*
X170762500Y-93220000D03*
D27*
X166612500Y-84580000D03*
D28*
X170762500Y-84580000D03*
%TD*%
D29*
%TO.P,U1,1,VBatt*%
%TO.N,VBatt*%
X150977500Y-86650000D03*
%TO.P,U1,2,PC13*%
%TO.N,PC13*%
X150977500Y-87150000D03*
%TO.P,U1,3,PC14*%
%TO.N,PC14*%
X150977500Y-87650000D03*
%TO.P,U1,4,PC15*%
%TO.N,PC15*%
X150977500Y-88150000D03*
%TO.P,U1,5,OSC_IN/PD0*%
%TO.N,Net-(U1-OSC_IN{slash}PD0)*%
X150977500Y-88650000D03*
%TO.P,U1,6,OSC_OUT/PD1*%
%TO.N,Net-(U1-OSC_OUT{slash}PD1)*%
X150977500Y-89150000D03*
%TO.P,U1,7,NRST*%
%TO.N,NRST*%
X150977500Y-89650000D03*
%TO.P,U1,8,VSSA*%
%TO.N,VSSA*%
X150977500Y-90150000D03*
%TO.P,U1,9,VDDA*%
%TO.N,VDDA*%
X150977500Y-90650000D03*
%TO.P,U1,10,PA0*%
%TO.N,PA0*%
X150977500Y-91150000D03*
%TO.P,U1,11,PA1*%
%TO.N,PA1*%
X150977500Y-91650000D03*
%TO.P,U1,12,PA2*%
%TO.N,PA2*%
X150977500Y-92150000D03*
D30*
%TO.P,U1,13,PA3*%
%TO.N,PA3*%
X152390000Y-93562500D03*
%TO.P,U1,14,PA4*%
%TO.N,PA4*%
X152890000Y-93562500D03*
%TO.P,U1,15,PA5*%
%TO.N,PA5*%
X153390000Y-93562500D03*
%TO.P,U1,16,PA6*%
%TO.N,PA6*%
X153890000Y-93562500D03*
%TO.P,U1,17,PA7*%
%TO.N,PA7*%
X154390000Y-93562500D03*
%TO.P,U1,18,PB0*%
%TO.N,PB0*%
X154890000Y-93562500D03*
%TO.P,U1,19,PB1*%
%TO.N,PB1*%
X155390000Y-93562500D03*
%TO.P,U1,20,PB2/Boot1*%
%TO.N,PB2*%
X155890000Y-93562500D03*
%TO.P,U1,21,PB10*%
%TO.N,PB10*%
X156390000Y-93562500D03*
%TO.P,U1,22,PB11*%
%TO.N,PB11*%
X156890000Y-93562500D03*
%TO.P,U1,23,VSS_1*%
%TO.N,VSSA*%
X157390000Y-93562500D03*
%TO.P,U1,24,VDD_1*%
%TO.N,VDDA*%
X157890000Y-93562500D03*
D29*
%TO.P,U1,25,PB12*%
%TO.N,PB12*%
X159302500Y-92150000D03*
%TO.P,U1,26,PB13*%
%TO.N,PB13*%
X159302500Y-91650000D03*
%TO.P,U1,27,PB14*%
%TO.N,PB14*%
X159302500Y-91150000D03*
%TO.P,U1,28,PB15*%
%TO.N,PB15*%
X159302500Y-90650000D03*
%TO.P,U1,29,PA8*%
%TO.N,PA8*%
X159302500Y-90150000D03*
%TO.P,U1,30,PA9*%
%TO.N,PA9*%
X159302500Y-89650000D03*
%TO.P,U1,31,PA10*%
%TO.N,PA10*%
X159302500Y-89150000D03*
%TO.P,U1,32,PA11/USBHDM*%
%TO.N,D-*%
X159302500Y-88650000D03*
%TO.P,U1,33,PA12/USBHDP*%
%TO.N,D+*%
X159302500Y-88150000D03*
%TO.P,U1,34,SWDIO*%
%TO.N,SWDIO*%
X159302500Y-87650000D03*
%TO.P,U1,35,VSS_2*%
%TO.N,VSSA*%
X159302500Y-87150000D03*
%TO.P,U1,36,VDD_2*%
%TO.N,VDDA*%
X159302500Y-86650000D03*
D30*
%TO.P,U1,37,SWCLK*%
%TO.N,SWCLK*%
X157890000Y-85237500D03*
%TO.P,U1,38,PA15*%
%TO.N,PA15*%
X157390000Y-85237500D03*
%TO.P,U1,39,PB3*%
%TO.N,PB3*%
X156890000Y-85237500D03*
%TO.P,U1,40,PB4*%
%TO.N,PB4*%
X156390000Y-85237500D03*
%TO.P,U1,41,PB5*%
%TO.N,PB5*%
X155890000Y-85237500D03*
%TO.P,U1,42,PB6*%
%TO.N,PB6*%
X155390000Y-85237500D03*
%TO.P,U1,43,PB7*%
%TO.N,PB7*%
X154890000Y-85237500D03*
%TO.P,U1,44,BOOT0*%
%TO.N,BOOT0*%
X154390000Y-85237500D03*
%TO.P,U1,45,PB8*%
%TO.N,PB8*%
X153890000Y-85237500D03*
%TO.P,U1,46,PB9*%
%TO.N,PB9*%
X153390000Y-85237500D03*
%TO.P,U1,47,VSS_3*%
%TO.N,VSSA*%
X152890000Y-85237500D03*
%TO.P,U1,48,VDD_3*%
%TO.N,VDDA*%
X152390000Y-85237500D03*
%TD*%
D17*
%TO.P,C4,1*%
%TO.N,VDDA*%
X152500000Y-78790000D03*
%TO.P,C4,2*%
%TO.N,VSSA*%
X154400000Y-78790000D03*
%TD*%
D25*
%TO.P,C7,1*%
%TO.N,VSSA*%
X144400000Y-91950000D03*
%TO.P,C7,2*%
%TO.N,Net-(U1-OSC_OUT{slash}PD1)*%
X144400000Y-90050000D03*
%TD*%
%TO.P,C8,1*%
%TO.N,NRST*%
X147600000Y-87800000D03*
%TO.P,C8,2*%
%TO.N,VSSA*%
X147600000Y-85900000D03*
%TD*%
D31*
%TO.P,Y1,1,1*%
%TO.N,Net-(U1-OSC_OUT{slash}PD1)*%
X140200000Y-91800000D03*
%TO.P,Y1,2,2*%
%TO.N,Net-(U1-OSC_IN{slash}PD0)*%
X140200000Y-86600000D03*
%TD*%
D32*
%TO.P,C6,1*%
%TO.N,VSSA*%
X144400000Y-85850000D03*
%TO.P,C6,2*%
%TO.N,Net-(U1-OSC_IN{slash}PD0)*%
X144400000Y-87750000D03*
%TD*%
D25*
%TO.P,C1,1*%
%TO.N,VDDA*%
X147600000Y-91830000D03*
%TO.P,C1,2*%
%TO.N,VSSA*%
X147600000Y-89930000D03*
%TD*%
D33*
%TO.N,VSSA*%
X163500000Y-90000000D03*
X154000000Y-92000000D03*
%TO.N,VDDA*%
X157890000Y-90500000D03*
X148500000Y-81000000D03*
X151500000Y-81500000D03*
%TO.N,VSSA*%
X154500000Y-80500000D03*
X152500000Y-83650000D03*
X160000000Y-98000000D03*
X160012653Y-94487347D03*
X141500000Y-100000000D03*
X137500000Y-101500000D03*
X135000000Y-66500000D03*
X140500000Y-70000000D03*
X134000000Y-72500000D03*
X169000000Y-67500000D03*
X160500000Y-67000000D03*
X169987347Y-80500000D03*
X168000000Y-71500000D03*
X167000000Y-82500000D03*
X161500000Y-73000000D03*
X161500000Y-78000000D03*
X150000000Y-80000000D03*
X148000000Y-84000000D03*
X146000000Y-87500000D03*
X146000000Y-91000000D03*
X157970713Y-87996112D03*
X157000000Y-92000000D03*
%TO.N,PB6*%
X156200000Y-86800000D03*
%TO.N,PB7*%
X155169287Y-86843324D03*
%TO.N,PA15*%
X159400000Y-78900000D03*
%TO.N,PB3*%
X158400000Y-78800000D03*
%TO.N,SWCLK*%
X159000000Y-85100000D03*
X169200000Y-73900000D03*
%TO.N,BOOT0*%
X167548930Y-75525765D03*
X155950032Y-82000000D03*
%TO.N,VUSB*%
X168500000Y-86300000D03*
X167500000Y-90800000D03*
%TO.N,VDDA*%
X166300000Y-74100000D03*
X154000000Y-86650000D03*
X152800000Y-88700000D03*
%TO.N,SWDIO*%
X160900000Y-87400000D03*
%TO.N,PA0*%
X153200000Y-90300000D03*
X150662653Y-84862653D03*
%TO.N,NRST*%
X149374880Y-89550424D03*
X148800000Y-87600000D03*
%TD*%
D34*
%TO.N,Net-(D1-A)*%
X143400000Y-82000000D02*
X142400000Y-83000000D01*
X145000000Y-82000000D02*
X143400000Y-82000000D01*
%TO.N,PA1*%
X151325000Y-84499695D02*
X151387653Y-84562348D01*
X150775000Y-82775000D02*
X151325000Y-83325000D01*
X150775000Y-78034620D02*
X150775000Y-82775000D01*
X153350000Y-75459620D02*
X150775000Y-78034620D01*
X153350000Y-75400000D02*
X153350000Y-75459620D01*
X152875305Y-91650000D02*
X150977500Y-91650000D01*
%TO.N,VDDA*%
X151775000Y-82525000D02*
X152500000Y-81800000D01*
X151775000Y-84313299D02*
X151775000Y-82525000D01*
X152390000Y-84928299D02*
X151775000Y-84313299D01*
X152390000Y-85237500D02*
X152390000Y-84928299D01*
%TO.N,PA1*%
X151387653Y-84562348D02*
X151387653Y-85756967D01*
%TO.N,PA0*%
X150662653Y-83562653D02*
X150662653Y-84862653D01*
X149100000Y-82000000D02*
X150662653Y-83562653D01*
X146800000Y-82000000D02*
X149100000Y-82000000D01*
%TO.N,PA1*%
X153925000Y-88294314D02*
X153925000Y-90600305D01*
%TO.N,VSSA*%
X152890000Y-84040000D02*
X152500000Y-83650000D01*
%TO.N,PA1*%
X151325000Y-83325000D02*
X151325000Y-84499695D01*
X153925000Y-90600305D02*
X152875305Y-91650000D01*
%TO.N,VSSA*%
X152890000Y-85237500D02*
X152890000Y-84040000D01*
%TO.N,PA1*%
X151387653Y-85756967D02*
X153925000Y-88294314D01*
%TO.N,VDDA*%
X147900000Y-80400000D02*
X146800000Y-80400000D01*
X148500000Y-81000000D02*
X147900000Y-80400000D01*
X151800000Y-81800000D02*
X151500000Y-81500000D01*
X152500000Y-81800000D02*
X151800000Y-81800000D01*
%TO.N,PA0*%
X146800000Y-81200000D02*
X146800000Y-82000000D01*
%TO.N,VDDA*%
X157890000Y-88940704D02*
X157000000Y-88050704D01*
X157000000Y-88050704D02*
X157000000Y-87568324D01*
X157890000Y-93562500D02*
X157890000Y-88940704D01*
%TO.N,VSSA*%
X157970713Y-87678601D02*
X157970713Y-87996112D01*
X158499314Y-87150000D02*
X157970713Y-87678601D01*
X159302500Y-87150000D02*
X158499314Y-87150000D01*
X157390000Y-92390000D02*
X157000000Y-92000000D01*
X157390000Y-93562500D02*
X157390000Y-92390000D01*
%TO.N,PB6*%
X155700000Y-86300000D02*
X156200000Y-86800000D01*
X155649314Y-86300000D02*
X155700000Y-86300000D01*
X155390000Y-86040686D02*
X155649314Y-86300000D01*
X155390000Y-85237500D02*
X155390000Y-86040686D01*
%TO.N,VDDA*%
X154000000Y-86699342D02*
X154000000Y-86650000D01*
X158000000Y-86650000D02*
X157081676Y-87568324D01*
%TO.N,PB7*%
X154890000Y-86564037D02*
X155169287Y-86843324D01*
X154890000Y-85237500D02*
X154890000Y-86564037D01*
%TO.N,VDDA*%
X157081676Y-87568324D02*
X154868982Y-87568324D01*
X154868982Y-87568324D02*
X154000000Y-86699342D01*
%TO.N,PB9*%
X145400000Y-71300000D02*
X137980000Y-63880000D01*
X152859620Y-71300000D02*
X145400000Y-71300000D01*
X154425000Y-75934620D02*
X154425000Y-72865380D01*
X137980000Y-63880000D02*
X137980000Y-63800000D01*
X153390000Y-76969620D02*
X154425000Y-75934620D01*
X154425000Y-72865380D02*
X152859620Y-71300000D01*
X153390000Y-85237500D02*
X153390000Y-76969620D01*
%TO.N,PA15*%
X159400000Y-82424314D02*
X159400000Y-78900000D01*
X157390000Y-85237500D02*
X157390000Y-84434314D01*
X157390000Y-84434314D02*
X159400000Y-82424314D01*
%TO.N,PB3*%
X158400000Y-82787918D02*
X158400000Y-78800000D01*
X156890000Y-84297918D02*
X158400000Y-82787918D01*
X156890000Y-85237500D02*
X156890000Y-84297918D01*
%TO.N,PB8*%
X153890000Y-85237500D02*
X153890000Y-83848174D01*
X147520000Y-70800000D02*
X140520000Y-63800000D01*
%TO.N,PB5*%
X157600000Y-82683758D02*
X157600000Y-78359620D01*
%TO.N,PB8*%
X154900000Y-77751826D02*
X154900000Y-72703984D01*
X153890000Y-83848174D02*
X155225000Y-82513174D01*
X155225000Y-82513174D02*
X155225000Y-78076826D01*
X152996016Y-70800000D02*
X147520000Y-70800000D01*
X155225000Y-78076826D02*
X154900000Y-77751826D01*
X154900000Y-72703984D02*
X152996016Y-70800000D01*
%TO.N,BOOT0*%
X154390000Y-85237500D02*
X154390000Y-83984570D01*
X154390000Y-83984570D02*
X155950032Y-82424538D01*
X155950032Y-82424538D02*
X155950032Y-82000000D01*
%TO.N,PB7*%
X154890000Y-85237500D02*
X154890000Y-84120966D01*
X154890000Y-84120966D02*
X156675032Y-82335934D01*
X153132412Y-70300000D02*
X149560000Y-70300000D01*
X156675032Y-82335934D02*
X156675032Y-78707444D01*
X156675032Y-78707444D02*
X155400000Y-77432412D01*
X155400000Y-77432412D02*
X155400000Y-72567588D01*
X155400000Y-72567588D02*
X153132412Y-70300000D01*
X149560000Y-70300000D02*
X143060000Y-63800000D01*
%TO.N,PB6*%
X155390000Y-85237500D02*
X155390000Y-84257362D01*
X155390000Y-84257362D02*
X157125032Y-82522330D01*
X157125032Y-82522330D02*
X157125032Y-78521048D01*
X157125032Y-78521048D02*
X155850000Y-77246016D01*
%TO.N,PB5*%
X155890000Y-85237500D02*
X155890000Y-84393758D01*
%TO.N,PB6*%
X155850000Y-77246016D02*
X155850000Y-72381192D01*
X155850000Y-72381192D02*
X153268808Y-69800000D01*
X153268808Y-69800000D02*
X151600000Y-69800000D01*
X151600000Y-69800000D02*
X145600000Y-63800000D01*
%TO.N,PB5*%
X155890000Y-84393758D02*
X157600000Y-82683758D01*
X157600000Y-78359620D02*
X156300000Y-77059620D01*
X156300000Y-77059620D02*
X156300000Y-71900000D01*
X156300000Y-71900000D02*
X153500000Y-69100000D01*
X153500000Y-69100000D02*
X153440000Y-69100000D01*
X153440000Y-69100000D02*
X148140000Y-63800000D01*
%TO.N,BOOT0*%
X172070000Y-75400000D02*
X167674695Y-75400000D01*
X167674695Y-75400000D02*
X167548930Y-75525765D01*
X172200000Y-75270000D02*
X172070000Y-75400000D01*
%TO.N,SWCLK*%
X159000000Y-85100000D02*
X158027500Y-85100000D01*
%TO.N,VUSB*%
X167050000Y-74999390D02*
X167050000Y-65505000D01*
X166823930Y-75826070D02*
X166823930Y-75225460D01*
X168000000Y-77002140D02*
X166823930Y-75826070D01*
X168000000Y-85900000D02*
X168000000Y-77002140D01*
%TO.N,SWCLK*%
X158027500Y-85100000D02*
X157890000Y-85237500D01*
X170370000Y-72730000D02*
X169200000Y-73900000D01*
X172200000Y-72730000D02*
X170370000Y-72730000D01*
%TO.N,VUSB*%
X166823930Y-75225460D02*
X167050000Y-74999390D01*
X168400000Y-86300000D02*
X168000000Y-85900000D01*
X168500000Y-86300000D02*
X168400000Y-86300000D01*
X168000000Y-86112449D02*
X168000000Y-85900000D01*
X167112551Y-90800000D02*
X167500000Y-90800000D01*
%TO.N,Net-(J1-CC1)*%
X167800305Y-90075000D02*
X167199695Y-90075000D01*
X168730000Y-91004695D02*
X167800305Y-90075000D01*
%TO.N,VUSB*%
X165912500Y-91175000D02*
X166737551Y-91175000D01*
X166737551Y-91175000D02*
X167112551Y-90800000D01*
%TO.N,Net-(J1-CC1)*%
X167199695Y-90075000D02*
X167124695Y-90150000D01*
X167124695Y-90150000D02*
X165912500Y-90150000D01*
X168730000Y-96000000D02*
X168730000Y-91004695D01*
%TO.N,VUSB*%
X165912500Y-91425000D02*
X165912500Y-91175000D01*
%TO.N,VDDA*%
X164700000Y-75700000D02*
X166300000Y-74100000D01*
X164600000Y-75700000D02*
X164700000Y-75700000D01*
%TO.N,Net-(U1-OSC_OUT{slash}PD1)*%
X142650000Y-91800000D02*
X144400000Y-90050000D01*
X140200000Y-91800000D02*
X142650000Y-91800000D01*
%TO.N,Net-(U1-OSC_IN{slash}PD0)*%
X143250000Y-86600000D02*
X144400000Y-87750000D01*
X140200000Y-86600000D02*
X143250000Y-86600000D01*
%TO.N,VDDA*%
X154000000Y-86650000D02*
X152917082Y-86650000D01*
X151780686Y-90650000D02*
X152800000Y-89630686D01*
X150977500Y-90650000D02*
X151780686Y-90650000D01*
X152800000Y-89630686D02*
X152800000Y-88700000D01*
%TO.N,PA0*%
X150977500Y-91150000D02*
X152350000Y-91150000D01*
X152350000Y-91150000D02*
X153200000Y-90300000D01*
%TO.N,VDDA*%
X159302500Y-86650000D02*
X158000000Y-86650000D01*
X152390000Y-86122918D02*
X152390000Y-85237500D01*
X152917082Y-86650000D02*
X152390000Y-86122918D01*
X163900000Y-84650000D02*
X162400000Y-86150000D01*
X163900000Y-80800000D02*
X163900000Y-84650000D01*
X163275000Y-80175000D02*
X163275000Y-77025000D01*
X163900000Y-80800000D02*
X163275000Y-80175000D01*
X163275000Y-77025000D02*
X164600000Y-75700000D01*
X164600000Y-75700000D02*
X158300000Y-75700000D01*
%TO.N,Net-(SW2-B)*%
X164300000Y-69600000D02*
X164300000Y-73100000D01*
X164300000Y-73100000D02*
X164600000Y-73400000D01*
X164050000Y-69350000D02*
X164300000Y-69600000D01*
X164050000Y-65505000D02*
X164050000Y-69350000D01*
%TO.N,VUSB*%
X167402449Y-86710000D02*
X168000000Y-86112449D01*
X166822551Y-86710000D02*
X167402449Y-86710000D01*
X166737551Y-86625000D02*
X166822551Y-86710000D01*
X165912500Y-86625000D02*
X166737551Y-86625000D01*
%TO.N,Net-(J1-CC2)*%
X167360000Y-87160000D02*
X165922500Y-87160000D01*
X169542589Y-89342589D02*
X167360000Y-87160000D01*
X165922500Y-87160000D02*
X165912500Y-87150000D01*
X169542589Y-95942589D02*
X169542589Y-89342589D01*
X169600000Y-96000000D02*
X169542589Y-95942589D01*
%TO.N,VUSB*%
X165912500Y-86625000D02*
X165912500Y-86375000D01*
%TO.N,SWDIO*%
X159302500Y-87650000D02*
X160650000Y-87650000D01*
X160650000Y-87650000D02*
X160900000Y-87400000D01*
D35*
%TO.N,D+*%
X161235661Y-88125000D02*
X161210661Y-88150000D01*
X161210661Y-88150000D02*
X159302500Y-88150000D01*
X165887500Y-88125000D02*
X161235661Y-88125000D01*
X165912500Y-88150000D02*
X165887500Y-88125000D01*
D34*
%TO.N,VSSA*%
X165912500Y-92520000D02*
X166612500Y-93220000D01*
X165912500Y-91975000D02*
X165912500Y-92520000D01*
X165912500Y-85280000D02*
X166612500Y-84580000D01*
X165912500Y-85825000D02*
X165912500Y-85280000D01*
D35*
%TO.N,D+*%
X167100000Y-88782476D02*
X166732476Y-89150000D01*
X167100000Y-88517524D02*
X167100000Y-88782476D01*
X166732476Y-89150000D02*
X165912500Y-89150000D01*
%TO.N,D-*%
X165912500Y-88650000D02*
X164025000Y-88650000D01*
X164025000Y-88650000D02*
X164000000Y-88675000D01*
%TO.N,D+*%
X166732476Y-88150000D02*
X167100000Y-88517524D01*
X165912500Y-88150000D02*
X166732476Y-88150000D01*
%TO.N,D-*%
X165092524Y-89650000D02*
X164117524Y-88675000D01*
X165912500Y-89650000D02*
X165092524Y-89650000D01*
X164000000Y-88675000D02*
X160624421Y-88675000D01*
X164117524Y-88675000D02*
X164000000Y-88675000D01*
X160599421Y-88650000D02*
X159302500Y-88650000D01*
X160624421Y-88675000D02*
X160599421Y-88650000D01*
D34*
%TO.N,PA10*%
X160950000Y-89150000D02*
X159302500Y-89150000D01*
X164000000Y-92200000D02*
X160950000Y-89150000D01*
X160000000Y-103000000D02*
X164000000Y-99000000D01*
X158570000Y-103000000D02*
X160000000Y-103000000D01*
X164000000Y-99000000D02*
X164000000Y-92200000D01*
%TO.N,PA9*%
X163400000Y-92400000D02*
X160650000Y-89650000D01*
X161200000Y-101000000D02*
X163400000Y-98800000D01*
X156600000Y-101000000D02*
X161200000Y-101000000D01*
X156030000Y-103000000D02*
X156030000Y-101570000D01*
X156030000Y-101570000D02*
X156600000Y-101000000D01*
X163400000Y-98800000D02*
X163400000Y-92400000D01*
X160650000Y-89650000D02*
X159302500Y-89650000D01*
%TO.N,PA8*%
X160514874Y-90150000D02*
X159302500Y-90150000D01*
X161715000Y-91350126D02*
X160514874Y-90150000D01*
X161715000Y-91515000D02*
X161715000Y-91350126D01*
X162800000Y-92600000D02*
X161715000Y-91515000D01*
X161013604Y-100550000D02*
X162800000Y-98763604D01*
X155940000Y-100550000D02*
X161013604Y-100550000D01*
X153490000Y-103000000D02*
X155940000Y-100550000D01*
%TO.N,PB15*%
X160213604Y-90650000D02*
X159302500Y-90650000D01*
X160503478Y-90775000D02*
X160338604Y-90775000D01*
X161265000Y-91536522D02*
X160503478Y-90775000D01*
X162350000Y-92877208D02*
X161265000Y-91792208D01*
X162350000Y-98577208D02*
X162350000Y-92877208D01*
X160827208Y-100100000D02*
X162350000Y-98577208D01*
X154263604Y-100100000D02*
X160827208Y-100100000D01*
X151363604Y-103000000D02*
X154263604Y-100100000D01*
X150950000Y-103000000D02*
X151363604Y-103000000D01*
%TO.N,PA8*%
X162800000Y-98763604D02*
X162800000Y-92600000D01*
%TO.N,PB15*%
X160338604Y-90775000D02*
X160213604Y-90650000D01*
%TO.N,PB14*%
X159327500Y-91175000D02*
X159302500Y-91150000D01*
X160180686Y-91225000D02*
X160130686Y-91175000D01*
X160317082Y-91225000D02*
X160180686Y-91225000D01*
%TO.N,PB15*%
X161265000Y-91792208D02*
X161265000Y-91536522D01*
%TO.N,PB14*%
X160815000Y-91722918D02*
X160317082Y-91225000D01*
X161800000Y-92963604D02*
X160815000Y-91978604D01*
X160640812Y-99650000D02*
X161800000Y-98490812D01*
X161800000Y-98490812D02*
X161800000Y-92963604D01*
X151760000Y-99650000D02*
X160640812Y-99650000D01*
X148410000Y-103000000D02*
X151760000Y-99650000D01*
X160815000Y-91978604D02*
X160815000Y-91722918D01*
X160130686Y-91175000D02*
X159327500Y-91175000D01*
%TO.N,PB13*%
X159327500Y-91675000D02*
X159302500Y-91650000D01*
X160130686Y-91675000D02*
X159327500Y-91675000D01*
X160365000Y-91909314D02*
X160130686Y-91675000D01*
X160365000Y-92165000D02*
X160365000Y-91909314D01*
X161350000Y-93150000D02*
X160365000Y-92165000D01*
X161350000Y-98304416D02*
X161350000Y-93150000D01*
X160454416Y-99200000D02*
X161350000Y-98304416D01*
X149670000Y-99200000D02*
X160454416Y-99200000D01*
X145870000Y-103000000D02*
X149670000Y-99200000D01*
%TO.N,PA2*%
X150977500Y-92150000D02*
X149327500Y-93800000D01*
%TO.N,PA6*%
X142280204Y-95675000D02*
X138119796Y-95675000D01*
X135850000Y-88310000D02*
X133400000Y-85860000D01*
%TO.N,PA7*%
X146461624Y-96050000D02*
X153114874Y-96050000D01*
%TO.N,PB12*%
X159125000Y-92327500D02*
X159302500Y-92150000D01*
%TO.N,PA2*%
X138675000Y-93684620D02*
X138675000Y-78875000D01*
%TO.N,PA6*%
X152928478Y-95600000D02*
X146275228Y-95600000D01*
%TO.N,PA2*%
X149327500Y-93800000D02*
X141609620Y-93800000D01*
%TO.N,PA7*%
X136425000Y-94616600D02*
X137933400Y-96125000D01*
%TO.N,PA2*%
X141609620Y-93800000D02*
X141534620Y-93875000D01*
%TO.N,PA3*%
X137250000Y-89704416D02*
X138225000Y-90679416D01*
%TO.N,PA4*%
X141907412Y-94775000D02*
X138492588Y-94775000D01*
%TO.N,PA2*%
X138675000Y-78875000D02*
X135500000Y-75700000D01*
X141534620Y-93875000D02*
X138865380Y-93875000D01*
%TO.N,PA7*%
X137933400Y-96125000D02*
X142466600Y-96125000D01*
%TO.N,PA6*%
X136875000Y-94430204D02*
X136875000Y-91238604D01*
%TO.N,PA2*%
X138865380Y-93875000D02*
X138675000Y-93684620D01*
%TO.N,PA3*%
X137250000Y-82090000D02*
X137250000Y-89704416D01*
%TO.N,PA2*%
X135500000Y-75700000D02*
X133400000Y-75700000D01*
%TO.N,PA3*%
X133400000Y-78240000D02*
X137250000Y-82090000D01*
%TO.N,PA5*%
X146038832Y-95200000D02*
X146088832Y-95150000D01*
%TO.N,PA3*%
X138225000Y-90679416D02*
X138225000Y-93871016D01*
X138225000Y-93871016D02*
X138678984Y-94325000D01*
X138678984Y-94325000D02*
X141721016Y-94325000D01*
X141721016Y-94325000D02*
X141746016Y-94300000D01*
X141746016Y-94300000D02*
X145666040Y-94300000D01*
X145666040Y-94300000D02*
X145716040Y-94250000D01*
%TO.N,PB0*%
X142652996Y-96575000D02*
X137747004Y-96575000D01*
%TO.N,PA3*%
X145716040Y-94250000D02*
X151702500Y-94250000D01*
%TO.N,PB2*%
X153674062Y-97400000D02*
X147020812Y-97400000D01*
%TO.N,PB1*%
X153487666Y-96950000D02*
X146834416Y-96950000D01*
%TO.N,PB11*%
X147293604Y-98400000D02*
X136100000Y-98400000D01*
%TO.N,PA3*%
X151702500Y-94250000D02*
X152390000Y-93562500D01*
%TO.N,PA4*%
X152890000Y-93562500D02*
X152890000Y-94365686D01*
X145902436Y-94700000D02*
X145852436Y-94750000D01*
%TO.N,PB10*%
X147107208Y-97950000D02*
X147207208Y-97850000D01*
%TO.N,PA4*%
X152890000Y-94365686D02*
X152555686Y-94700000D01*
X152555686Y-94700000D02*
X145902436Y-94700000D01*
%TO.N,PA5*%
X136300000Y-86220000D02*
X136300000Y-90027208D01*
%TO.N,PB2*%
X147020812Y-97400000D02*
X146920812Y-97500000D01*
%TO.N,PA4*%
X145852436Y-94750000D02*
X141932412Y-94750000D01*
%TO.N,PA7*%
X142466600Y-96125000D02*
X142491600Y-96100000D01*
%TO.N,PB1*%
X146759416Y-97025000D02*
X136945000Y-97025000D01*
%TO.N,PA4*%
X141932412Y-94750000D02*
X141907412Y-94775000D01*
%TO.N,PB2*%
X146920812Y-97500000D02*
X134880000Y-97500000D01*
%TO.N,PA4*%
X138492588Y-94775000D02*
X137775000Y-94057412D01*
X137775000Y-94057412D02*
X137775000Y-90865812D01*
%TO.N,PB0*%
X154890000Y-93562500D02*
X154890000Y-94911270D01*
%TO.N,PA6*%
X135850000Y-90213604D02*
X135850000Y-88310000D01*
%TO.N,PA4*%
X137775000Y-90865812D02*
X136800000Y-89890812D01*
X136800000Y-89890812D02*
X136800000Y-84180000D01*
X136800000Y-84180000D02*
X133400000Y-80780000D01*
%TO.N,PA6*%
X146225228Y-95650000D02*
X142305204Y-95650000D01*
%TO.N,PA5*%
X133400000Y-83320000D02*
X136300000Y-86220000D01*
X136300000Y-90027208D02*
X137325000Y-91052208D01*
X137325000Y-91052208D02*
X137325000Y-94243808D01*
%TO.N,PA7*%
X154390000Y-94774874D02*
X154390000Y-93562500D01*
%TO.N,PA5*%
X137325000Y-94243808D02*
X138306192Y-95225000D01*
X138306192Y-95225000D02*
X142093808Y-95225000D01*
X142093808Y-95225000D02*
X142118808Y-95200000D01*
X142118808Y-95200000D02*
X146038832Y-95200000D01*
%TO.N,PB1*%
X155390000Y-93562500D02*
X155390000Y-95047666D01*
%TO.N,PA5*%
X146088832Y-95150000D02*
X152742082Y-95150000D01*
X152742082Y-95150000D02*
X153390000Y-94502082D01*
%TO.N,PB10*%
X133400000Y-98560000D02*
X134010000Y-97950000D01*
%TO.N,PA5*%
X153390000Y-94502082D02*
X153390000Y-93562500D01*
%TO.N,PA6*%
X153890000Y-93562500D02*
X153890000Y-94638478D01*
%TO.N,PA7*%
X146411624Y-96100000D02*
X146461624Y-96050000D01*
%TO.N,PA6*%
X153890000Y-94638478D02*
X152928478Y-95600000D01*
X146275228Y-95600000D02*
X146225228Y-95650000D01*
X142305204Y-95650000D02*
X142280204Y-95675000D01*
%TO.N,PB0*%
X154890000Y-94911270D02*
X153301270Y-96500000D01*
%TO.N,PA6*%
X138119796Y-95675000D02*
X136875000Y-94430204D01*
%TO.N,PB2*%
X155890000Y-93562500D02*
X155890000Y-95184062D01*
%TO.N,PB0*%
X135800000Y-93340000D02*
X133400000Y-90940000D01*
%TO.N,PA6*%
X136875000Y-91238604D02*
X135850000Y-90213604D01*
%TO.N,PA7*%
X133400000Y-88400000D02*
X136425000Y-91425000D01*
X136425000Y-91425000D02*
X136425000Y-94616600D01*
X142491600Y-96100000D02*
X146411624Y-96100000D01*
%TO.N,PB0*%
X137747004Y-96575000D02*
X135800000Y-94627996D01*
%TO.N,PA7*%
X153114874Y-96050000D02*
X154390000Y-94774874D01*
%TO.N,PB0*%
X153301270Y-96500000D02*
X146648020Y-96500000D01*
X146648020Y-96500000D02*
X146598020Y-96550000D01*
%TO.N,PB12*%
X157450000Y-98750000D02*
X159125000Y-97075000D01*
%TO.N,PB0*%
X146598020Y-96550000D02*
X142677996Y-96550000D01*
X142677996Y-96550000D02*
X142652996Y-96575000D01*
%TO.N,PB11*%
X147393604Y-98300000D02*
X147293604Y-98400000D01*
%TO.N,PB0*%
X135800000Y-94627996D02*
X135800000Y-93340000D01*
%TO.N,PB1*%
X155390000Y-95047666D02*
X153487666Y-96950000D01*
X146834416Y-96950000D02*
X146759416Y-97025000D01*
X136945000Y-97025000D02*
X133400000Y-93480000D01*
%TO.N,PB2*%
X155890000Y-95184062D02*
X153674062Y-97400000D01*
X134880000Y-97500000D02*
X133400000Y-96020000D01*
%TO.N,PB10*%
X134010000Y-97950000D02*
X147107208Y-97950000D01*
X147207208Y-97850000D02*
X153860458Y-97850000D01*
X153860458Y-97850000D02*
X156390000Y-95320458D01*
X156390000Y-95320458D02*
X156390000Y-93562500D01*
%TO.N,PB11*%
X156890000Y-93562500D02*
X156890000Y-95510000D01*
X156890000Y-95510000D02*
X154100000Y-98300000D01*
X154100000Y-98300000D02*
X147393604Y-98300000D01*
X136100000Y-98400000D02*
X133400000Y-101100000D01*
%TO.N,PB12*%
X143330000Y-103000000D02*
X147580000Y-98750000D01*
X147580000Y-98750000D02*
X157450000Y-98750000D01*
X159125000Y-97075000D02*
X159125000Y-92327500D01*
%TO.N,VDDA*%
X157890000Y-96440000D02*
X158050000Y-96600000D01*
X157890000Y-93562500D02*
X157890000Y-96440000D01*
%TO.N,Net-(D1-A)*%
X145000000Y-81200000D02*
X145000000Y-82000000D01*
%TO.N,Net-(D2-A)*%
X145000000Y-79600000D02*
X142200000Y-79600000D01*
X145000000Y-80400000D02*
X145000000Y-79600000D01*
%TO.N,VDDA*%
X146800000Y-80400000D02*
X146800000Y-79600000D01*
%TO.N,PA1*%
X149850000Y-75400000D02*
X153350000Y-75400000D01*
%TO.N,NRST*%
X145600000Y-75400000D02*
X142100000Y-75400000D01*
X145950000Y-75750000D02*
X145600000Y-75400000D01*
X147600000Y-87511826D02*
X145950000Y-85861826D01*
X147600000Y-87800000D02*
X147600000Y-87511826D01*
X145950000Y-85861826D02*
X145950000Y-75750000D01*
%TO.N,VDDA*%
X159302500Y-86650000D02*
X162160000Y-86650000D01*
X148687086Y-91830000D02*
X147600000Y-91830000D01*
X150977500Y-90650000D02*
X150963313Y-90664187D01*
X150963313Y-90664187D02*
X149852899Y-90664187D01*
X149852899Y-90664187D02*
X148687086Y-91830000D01*
X162160000Y-86650000D02*
X162670000Y-86140000D01*
X152500000Y-81800000D02*
X152500000Y-78790000D01*
%TO.N,VSSA*%
X149666503Y-90214187D02*
X149811118Y-90214187D01*
X149555690Y-90325000D02*
X149666503Y-90214187D01*
X149811118Y-90214187D02*
X149875305Y-90150000D01*
X147600000Y-89930000D02*
X147995000Y-90325000D01*
X147995000Y-90325000D02*
X149555690Y-90325000D01*
X149875305Y-90150000D02*
X150977500Y-90150000D01*
%TO.N,Net-(U1-OSC_IN{slash}PD0)*%
X145300000Y-88650000D02*
X144400000Y-87750000D01*
X150136157Y-88650000D02*
X149861581Y-88375424D01*
X148888179Y-88375424D02*
X148613603Y-88650000D01*
X148613603Y-88650000D02*
X145300000Y-88650000D01*
X150977500Y-88650000D02*
X150136157Y-88650000D01*
X149861581Y-88375424D02*
X148888179Y-88375424D01*
%TO.N,Net-(U1-OSC_OUT{slash}PD1)*%
X149999761Y-89150000D02*
X149675185Y-88825424D01*
X150977500Y-89150000D02*
X149999761Y-89150000D01*
X148794999Y-89105000D02*
X145345000Y-89105000D01*
X149074575Y-88825424D02*
X148794999Y-89105000D01*
X145345000Y-89105000D02*
X144400000Y-90050000D01*
X149675185Y-88825424D02*
X149074575Y-88825424D01*
%TO.N,NRST*%
X147800000Y-87600000D02*
X147600000Y-87800000D01*
X149474456Y-89650000D02*
X149374880Y-89550424D01*
X148800000Y-87600000D02*
X147800000Y-87600000D01*
X150977500Y-89650000D02*
X149474456Y-89650000D01*
%TD*%
%TA.AperFunction,Conductor*%
%TO.N,VSSA*%
G36*
X170026663Y-61975450D02*
G01*
X170061111Y-61977142D01*
X170178102Y-61982890D01*
X170371706Y-61993037D01*
X170377514Y-61993618D01*
X170547182Y-62018787D01*
X170722671Y-62046582D01*
X170728014Y-62047673D01*
X170773052Y-62058954D01*
X170897716Y-62090181D01*
X171066382Y-62135376D01*
X171071167Y-62136870D01*
X171218405Y-62189554D01*
X171237317Y-62196321D01*
X171239438Y-62197135D01*
X171399298Y-62258500D01*
X171403564Y-62260325D01*
X171417432Y-62266884D01*
X171563848Y-62336133D01*
X171718030Y-62414693D01*
X171721721Y-62416737D01*
X171874315Y-62508199D01*
X172004014Y-62592426D01*
X172019237Y-62602312D01*
X172022403Y-62604511D01*
X172165658Y-62710756D01*
X172187690Y-62728597D01*
X172299979Y-62819527D01*
X172302552Y-62821733D01*
X172433797Y-62940686D01*
X172435991Y-62942775D01*
X172557223Y-63064007D01*
X172559315Y-63066204D01*
X172678277Y-63197458D01*
X172680477Y-63200026D01*
X172745271Y-63280040D01*
X172789243Y-63334341D01*
X172895487Y-63477595D01*
X172897686Y-63480761D01*
X172939727Y-63545498D01*
X172991802Y-63625688D01*
X173083264Y-63778280D01*
X173085316Y-63781990D01*
X173163866Y-63936151D01*
X173239674Y-64096434D01*
X173241509Y-64100725D01*
X173303678Y-64262682D01*
X173363116Y-64428794D01*
X173364628Y-64433637D01*
X173409828Y-64602326D01*
X173452326Y-64771984D01*
X173453421Y-64777353D01*
X173481219Y-64952864D01*
X173506377Y-65122456D01*
X173506963Y-65128313D01*
X173517122Y-65322158D01*
X173524550Y-65473347D01*
X173524625Y-65476434D01*
X173524062Y-66282043D01*
X173504331Y-66349068D01*
X173451495Y-66394786D01*
X173382329Y-66404681D01*
X173325751Y-66381222D01*
X173292331Y-66356204D01*
X173292328Y-66356202D01*
X173157482Y-66305908D01*
X173157483Y-66305908D01*
X173097883Y-66299501D01*
X173097881Y-66299500D01*
X173097873Y-66299500D01*
X173097864Y-66299500D01*
X171302129Y-66299500D01*
X171302123Y-66299501D01*
X171242516Y-66305908D01*
X171107671Y-66356202D01*
X171107664Y-66356206D01*
X170992455Y-66442452D01*
X170992452Y-66442455D01*
X170906206Y-66557664D01*
X170906202Y-66557671D01*
X170855908Y-66692517D01*
X170849501Y-66752116D01*
X170849500Y-66752135D01*
X170849500Y-68547870D01*
X170849501Y-68547876D01*
X170855908Y-68607483D01*
X170906202Y-68742328D01*
X170906206Y-68742335D01*
X170992452Y-68857544D01*
X170992455Y-68857547D01*
X171107664Y-68943793D01*
X171107671Y-68943797D01*
X171239081Y-68992810D01*
X171295015Y-69034681D01*
X171319432Y-69100145D01*
X171304580Y-69168418D01*
X171283430Y-69196673D01*
X171161503Y-69318600D01*
X171025965Y-69512169D01*
X171025964Y-69512171D01*
X170926098Y-69726335D01*
X170926094Y-69726344D01*
X170864938Y-69954586D01*
X170864936Y-69954596D01*
X170844341Y-70189999D01*
X170844341Y-70190000D01*
X170864936Y-70425403D01*
X170864938Y-70425413D01*
X170926094Y-70653655D01*
X170926096Y-70653659D01*
X170926097Y-70653663D01*
X170975383Y-70759356D01*
X171025965Y-70867830D01*
X171025967Y-70867834D01*
X171091327Y-70961177D01*
X171161501Y-71061396D01*
X171161506Y-71061402D01*
X171328597Y-71228493D01*
X171328603Y-71228498D01*
X171514158Y-71358425D01*
X171557783Y-71413002D01*
X171564977Y-71482500D01*
X171533454Y-71544855D01*
X171514158Y-71561575D01*
X171328597Y-71691505D01*
X171161505Y-71858597D01*
X171026348Y-72051623D01*
X170971771Y-72095248D01*
X170924773Y-72104500D01*
X170452743Y-72104500D01*
X170437122Y-72102775D01*
X170437096Y-72103061D01*
X170429334Y-72102327D01*
X170429333Y-72102327D01*
X170360186Y-72104500D01*
X170330649Y-72104500D01*
X170323766Y-72105369D01*
X170317949Y-72105826D01*
X170271373Y-72107290D01*
X170252129Y-72112881D01*
X170233079Y-72116825D01*
X170213211Y-72119334D01*
X170169884Y-72136488D01*
X170164358Y-72138379D01*
X170119614Y-72151379D01*
X170119610Y-72151381D01*
X170102366Y-72161579D01*
X170084905Y-72170133D01*
X170066274Y-72177510D01*
X170066262Y-72177517D01*
X170028570Y-72204902D01*
X170023687Y-72208109D01*
X169983580Y-72231829D01*
X169969414Y-72245995D01*
X169954624Y-72258627D01*
X169938414Y-72270404D01*
X169938411Y-72270407D01*
X169908710Y-72306309D01*
X169904777Y-72310631D01*
X169252228Y-72963181D01*
X169190905Y-72996666D01*
X169164547Y-72999500D01*
X169105354Y-72999500D01*
X169072897Y-73006398D01*
X168920197Y-73038855D01*
X168920192Y-73038857D01*
X168747270Y-73115848D01*
X168747265Y-73115851D01*
X168594129Y-73227111D01*
X168467466Y-73367785D01*
X168372821Y-73531715D01*
X168372818Y-73531722D01*
X168320573Y-73692517D01*
X168314326Y-73711744D01*
X168294540Y-73900000D01*
X168314326Y-74088256D01*
X168314327Y-74088259D01*
X168372818Y-74268277D01*
X168372821Y-74268284D01*
X168467467Y-74432216D01*
X168581238Y-74558571D01*
X168589303Y-74567528D01*
X168619533Y-74630519D01*
X168610908Y-74699854D01*
X168566167Y-74753520D01*
X168499514Y-74774478D01*
X168497153Y-74774500D01*
X168087214Y-74774500D01*
X168020175Y-74754815D01*
X168014329Y-74750818D01*
X168001664Y-74741616D01*
X168001659Y-74741613D01*
X167828737Y-74664622D01*
X167828732Y-74664620D01*
X167773719Y-74652927D01*
X167712237Y-74619734D01*
X167678461Y-74558571D01*
X167675500Y-74531637D01*
X167675500Y-66736034D01*
X167695185Y-66668995D01*
X167725185Y-66636770D01*
X167757546Y-66612546D01*
X167843796Y-66497331D01*
X167894091Y-66362483D01*
X167900500Y-66302873D01*
X167900499Y-65879498D01*
X167920183Y-65812460D01*
X167972987Y-65766705D01*
X168024494Y-65755499D01*
X168997872Y-65755499D01*
X169057483Y-65749091D01*
X169192331Y-65698796D01*
X169307546Y-65612546D01*
X169393796Y-65497331D01*
X169444091Y-65362483D01*
X169450500Y-65302873D01*
X169450499Y-64407128D01*
X169444091Y-64347517D01*
X169430546Y-64311202D01*
X169393797Y-64212671D01*
X169393793Y-64212664D01*
X169307547Y-64097455D01*
X169307544Y-64097452D01*
X169192335Y-64011206D01*
X169192328Y-64011202D01*
X169057482Y-63960908D01*
X169057483Y-63960908D01*
X168997883Y-63954501D01*
X168997881Y-63954500D01*
X168997873Y-63954500D01*
X168997864Y-63954500D01*
X167902129Y-63954500D01*
X167902123Y-63954501D01*
X167842516Y-63960908D01*
X167707671Y-64011202D01*
X167707664Y-64011206D01*
X167592456Y-64097452D01*
X167592455Y-64097453D01*
X167592454Y-64097454D01*
X167529155Y-64182011D01*
X167512087Y-64204811D01*
X167456153Y-64246682D01*
X167412820Y-64254500D01*
X167028833Y-64254500D01*
X166961794Y-64234815D01*
X166916039Y-64182011D01*
X166906095Y-64112853D01*
X166919037Y-64072874D01*
X166951403Y-64011204D01*
X166959790Y-63995225D01*
X167000500Y-63830056D01*
X167000500Y-63659944D01*
X166959790Y-63494775D01*
X166959789Y-63494773D01*
X166880736Y-63344150D01*
X166830402Y-63287335D01*
X166767929Y-63216817D01*
X166674726Y-63152483D01*
X166627931Y-63120182D01*
X166468874Y-63059860D01*
X166468868Y-63059859D01*
X166342374Y-63044500D01*
X166342372Y-63044500D01*
X166257628Y-63044500D01*
X166257626Y-63044500D01*
X166131131Y-63059859D01*
X166131125Y-63059860D01*
X165972068Y-63120182D01*
X165832072Y-63216816D01*
X165719263Y-63344150D01*
X165640210Y-63494773D01*
X165625173Y-63555782D01*
X165599500Y-63659944D01*
X165599500Y-63830056D01*
X165604501Y-63850347D01*
X165640210Y-63995226D01*
X165719263Y-64145849D01*
X165748026Y-64178316D01*
X165832071Y-64273183D01*
X165922318Y-64335476D01*
X165972068Y-64369817D01*
X165972069Y-64369817D01*
X165972070Y-64369818D01*
X166131128Y-64430140D01*
X166131130Y-64430140D01*
X166138412Y-64431935D01*
X166137618Y-64435153D01*
X166188101Y-64456835D01*
X166227203Y-64514738D01*
X166228792Y-64584590D01*
X166225234Y-64595701D01*
X166205908Y-64647517D01*
X166201090Y-64692335D01*
X166199501Y-64707123D01*
X166199500Y-64707135D01*
X166199500Y-66302870D01*
X166199501Y-66302876D01*
X166205908Y-66362483D01*
X166256202Y-66497328D01*
X166256203Y-66497329D01*
X166256204Y-66497331D01*
X166342452Y-66612543D01*
X166342451Y-66612543D01*
X166342452Y-66612544D01*
X166342454Y-66612546D01*
X166374812Y-66636769D01*
X166416681Y-66692700D01*
X166424500Y-66736034D01*
X166424500Y-73075500D01*
X166404815Y-73142539D01*
X166352011Y-73188294D01*
X166300500Y-73199500D01*
X166224499Y-73199500D01*
X166157460Y-73179815D01*
X166111705Y-73127011D01*
X166100499Y-73075500D01*
X166100499Y-72602129D01*
X166100498Y-72602123D01*
X166100497Y-72602116D01*
X166094091Y-72542517D01*
X166078233Y-72500000D01*
X166043797Y-72407671D01*
X166043793Y-72407664D01*
X165957547Y-72292455D01*
X165957544Y-72292452D01*
X165842335Y-72206206D01*
X165842328Y-72206202D01*
X165707482Y-72155908D01*
X165707483Y-72155908D01*
X165647883Y-72149501D01*
X165647881Y-72149500D01*
X165647873Y-72149500D01*
X165647865Y-72149500D01*
X165049500Y-72149500D01*
X164982461Y-72129815D01*
X164936706Y-72077011D01*
X164925500Y-72025500D01*
X164925500Y-70794377D01*
X164945185Y-70727338D01*
X164984406Y-70688837D01*
X165018656Y-70667712D01*
X165142712Y-70543656D01*
X165234814Y-70394334D01*
X165289999Y-70227797D01*
X165300500Y-70125009D01*
X165300499Y-69074992D01*
X165292889Y-69000499D01*
X165289999Y-68972203D01*
X165289998Y-68972200D01*
X165280586Y-68943796D01*
X165234814Y-68805666D01*
X165142712Y-68656344D01*
X165018656Y-68532288D01*
X164869334Y-68440186D01*
X164808301Y-68419961D01*
X164760495Y-68404120D01*
X164703050Y-68364347D01*
X164676228Y-68299831D01*
X164675500Y-68286414D01*
X164675500Y-66736034D01*
X164695185Y-66668995D01*
X164725185Y-66636770D01*
X164757546Y-66612546D01*
X164843796Y-66497331D01*
X164894091Y-66362483D01*
X164900500Y-66302873D01*
X164900499Y-64707128D01*
X164894091Y-64647517D01*
X164890725Y-64638493D01*
X164843797Y-64512671D01*
X164843793Y-64512664D01*
X164757547Y-64397455D01*
X164757544Y-64397452D01*
X164642335Y-64311206D01*
X164642328Y-64311202D01*
X164507482Y-64260908D01*
X164507483Y-64260908D01*
X164447883Y-64254501D01*
X164447881Y-64254500D01*
X164447873Y-64254500D01*
X164447865Y-64254500D01*
X164028833Y-64254500D01*
X163961794Y-64234815D01*
X163916039Y-64182011D01*
X163906095Y-64112853D01*
X163919037Y-64072874D01*
X163951403Y-64011204D01*
X163959790Y-63995225D01*
X164000500Y-63830056D01*
X164000500Y-63659944D01*
X163959790Y-63494775D01*
X163959789Y-63494773D01*
X163880736Y-63344150D01*
X163830402Y-63287335D01*
X163767929Y-63216817D01*
X163674726Y-63152483D01*
X163627931Y-63120182D01*
X163468874Y-63059860D01*
X163468868Y-63059859D01*
X163342374Y-63044500D01*
X163342372Y-63044500D01*
X163257628Y-63044500D01*
X163257626Y-63044500D01*
X163131131Y-63059859D01*
X163131125Y-63059860D01*
X162972068Y-63120182D01*
X162832072Y-63216816D01*
X162719263Y-63344150D01*
X162640210Y-63494773D01*
X162625173Y-63555782D01*
X162599500Y-63659944D01*
X162599500Y-63830056D01*
X162604501Y-63850347D01*
X162640210Y-63995226D01*
X162680963Y-64072874D01*
X162694689Y-64141382D01*
X162669196Y-64206436D01*
X162612581Y-64247380D01*
X162571167Y-64254500D01*
X162187181Y-64254500D01*
X162120142Y-64234815D01*
X162087915Y-64204812D01*
X162025513Y-64121455D01*
X162007546Y-64097454D01*
X162007544Y-64097453D01*
X162007544Y-64097452D01*
X161892335Y-64011206D01*
X161892328Y-64011202D01*
X161757482Y-63960908D01*
X161757483Y-63960908D01*
X161697883Y-63954501D01*
X161697881Y-63954500D01*
X161697873Y-63954500D01*
X161697864Y-63954500D01*
X160602129Y-63954500D01*
X160602123Y-63954501D01*
X160542516Y-63960908D01*
X160407671Y-64011202D01*
X160407664Y-64011206D01*
X160292455Y-64097452D01*
X160292452Y-64097455D01*
X160206206Y-64212664D01*
X160206202Y-64212671D01*
X160155908Y-64347517D01*
X160153511Y-64369817D01*
X160149501Y-64407123D01*
X160149500Y-64407135D01*
X160149500Y-65302870D01*
X160149501Y-65302876D01*
X160155908Y-65362483D01*
X160206202Y-65497328D01*
X160206206Y-65497335D01*
X160292452Y-65612544D01*
X160292455Y-65612547D01*
X160407664Y-65698793D01*
X160407671Y-65698797D01*
X160542517Y-65749091D01*
X160542516Y-65749091D01*
X160549444Y-65749835D01*
X160602127Y-65755500D01*
X161575500Y-65755499D01*
X161642539Y-65775183D01*
X161688294Y-65827987D01*
X161699500Y-65879499D01*
X161699500Y-66302870D01*
X161699501Y-66302876D01*
X161705908Y-66362483D01*
X161756202Y-66497328D01*
X161756206Y-66497335D01*
X161842452Y-66612544D01*
X161842455Y-66612547D01*
X161957664Y-66698793D01*
X161957671Y-66698797D01*
X162092517Y-66749091D01*
X162092516Y-66749091D01*
X162099444Y-66749835D01*
X162152127Y-66755500D01*
X162947872Y-66755499D01*
X163007483Y-66749091D01*
X163142331Y-66698796D01*
X163225690Y-66636393D01*
X163291152Y-66611976D01*
X163359425Y-66626827D01*
X163374268Y-66636362D01*
X163374774Y-66636740D01*
X163416665Y-66692656D01*
X163424500Y-66736034D01*
X163424500Y-68539477D01*
X163404815Y-68606516D01*
X163352011Y-68652271D01*
X163282853Y-68662215D01*
X163219297Y-68633190D01*
X163212819Y-68627158D01*
X163118345Y-68532684D01*
X162969124Y-68440643D01*
X162969119Y-68440641D01*
X162802697Y-68385494D01*
X162802690Y-68385493D01*
X162699986Y-68375000D01*
X162650000Y-68375000D01*
X162650000Y-70824999D01*
X162699972Y-70824999D01*
X162699986Y-70824998D01*
X162802697Y-70814505D01*
X162969119Y-70759358D01*
X162969124Y-70759356D01*
X163118345Y-70667315D01*
X163242318Y-70543342D01*
X163244165Y-70540348D01*
X163245969Y-70538724D01*
X163246798Y-70537677D01*
X163246976Y-70537818D01*
X163296110Y-70493621D01*
X163365073Y-70482396D01*
X163429156Y-70510236D01*
X163455243Y-70540341D01*
X163457288Y-70543656D01*
X163457289Y-70543657D01*
X163581345Y-70667713D01*
X163615594Y-70688837D01*
X163662320Y-70740784D01*
X163674500Y-70794377D01*
X163674500Y-72025500D01*
X163654815Y-72092539D01*
X163602011Y-72138294D01*
X163555389Y-72148450D01*
X163555423Y-72149099D01*
X163555429Y-72149146D01*
X163555426Y-72149146D01*
X163555436Y-72149324D01*
X163552123Y-72149501D01*
X163492516Y-72155908D01*
X163357671Y-72206202D01*
X163357664Y-72206206D01*
X163242455Y-72292452D01*
X163242452Y-72292455D01*
X163156206Y-72407664D01*
X163156202Y-72407671D01*
X163105908Y-72542517D01*
X163099501Y-72602116D01*
X163099501Y-72602123D01*
X163099500Y-72602135D01*
X163099500Y-74197870D01*
X163099501Y-74197876D01*
X163105908Y-74257483D01*
X163156202Y-74392328D01*
X163156203Y-74392330D01*
X163218606Y-74475689D01*
X163243023Y-74541153D01*
X163228172Y-74609426D01*
X163218606Y-74624311D01*
X163156203Y-74707669D01*
X163156202Y-74707671D01*
X163105908Y-74842517D01*
X163099501Y-74902116D01*
X163099500Y-74902135D01*
X163099500Y-74950500D01*
X163079815Y-75017539D01*
X163027011Y-75063294D01*
X162975500Y-75074500D01*
X159924499Y-75074500D01*
X159857460Y-75054815D01*
X159811705Y-75002011D01*
X159800499Y-74950500D01*
X159800499Y-73752129D01*
X159800498Y-73752123D01*
X159794091Y-73692516D01*
X159743797Y-73557671D01*
X159743793Y-73557664D01*
X159657547Y-73442455D01*
X159657544Y-73442452D01*
X159542335Y-73356206D01*
X159542328Y-73356202D01*
X159407482Y-73305908D01*
X159407483Y-73305908D01*
X159347883Y-73299501D01*
X159347881Y-73299500D01*
X159347873Y-73299500D01*
X159347864Y-73299500D01*
X157252129Y-73299500D01*
X157252123Y-73299501D01*
X157192516Y-73305908D01*
X157092833Y-73343088D01*
X157023141Y-73348072D01*
X156961818Y-73314586D01*
X156928334Y-73253263D01*
X156925500Y-73226906D01*
X156925500Y-71982742D01*
X156927224Y-71967122D01*
X156926939Y-71967096D01*
X156927671Y-71959340D01*
X156927673Y-71959333D01*
X156925500Y-71890185D01*
X156925500Y-71860650D01*
X156924631Y-71853772D01*
X156924172Y-71847943D01*
X156924006Y-71842674D01*
X156922709Y-71801373D01*
X156917122Y-71782144D01*
X156913174Y-71763084D01*
X156911426Y-71749241D01*
X156910664Y-71743208D01*
X156910663Y-71743206D01*
X156910663Y-71743204D01*
X156893512Y-71699887D01*
X156891619Y-71694358D01*
X156878618Y-71649609D01*
X156878616Y-71649606D01*
X156868423Y-71632371D01*
X156859861Y-71614894D01*
X156852487Y-71596270D01*
X156852486Y-71596268D01*
X156825079Y-71558545D01*
X156821888Y-71553686D01*
X156798172Y-71513583D01*
X156798165Y-71513574D01*
X156784006Y-71499415D01*
X156771368Y-71484619D01*
X156759594Y-71468413D01*
X156749424Y-71460000D01*
X156723688Y-71438709D01*
X156719376Y-71434786D01*
X155134591Y-69850000D01*
X161400001Y-69850000D01*
X161400001Y-70124986D01*
X161410494Y-70227697D01*
X161465641Y-70394119D01*
X161465643Y-70394124D01*
X161557684Y-70543345D01*
X161681654Y-70667315D01*
X161830875Y-70759356D01*
X161830880Y-70759358D01*
X161997302Y-70814505D01*
X161997309Y-70814506D01*
X162100019Y-70824999D01*
X162149999Y-70824998D01*
X162150000Y-70824998D01*
X162150000Y-69850000D01*
X161400001Y-69850000D01*
X155134591Y-69850000D01*
X154634591Y-69350000D01*
X161400000Y-69350000D01*
X162150000Y-69350000D01*
X162150000Y-68375000D01*
X162149999Y-68374999D01*
X162100029Y-68375000D01*
X162100011Y-68375001D01*
X161997302Y-68385494D01*
X161830880Y-68440641D01*
X161830875Y-68440643D01*
X161681654Y-68532684D01*
X161557684Y-68656654D01*
X161465643Y-68805875D01*
X161465641Y-68805880D01*
X161410494Y-68972302D01*
X161410493Y-68972309D01*
X161400000Y-69075013D01*
X161400000Y-69350000D01*
X154634591Y-69350000D01*
X154000803Y-68716212D01*
X153990980Y-68703950D01*
X153990759Y-68704134D01*
X153985786Y-68698123D01*
X153951193Y-68665638D01*
X153935364Y-68650773D01*
X153924919Y-68640328D01*
X153914475Y-68629883D01*
X153908986Y-68625625D01*
X153904561Y-68621847D01*
X153870582Y-68589938D01*
X153870580Y-68589936D01*
X153870577Y-68589935D01*
X153853029Y-68580288D01*
X153836763Y-68569604D01*
X153820933Y-68557325D01*
X153778164Y-68538817D01*
X153772929Y-68536252D01*
X153765717Y-68532288D01*
X153761547Y-68529995D01*
X153733606Y-68509016D01*
X150371319Y-65146728D01*
X150337834Y-65085405D01*
X150342818Y-65015713D01*
X150384690Y-64959780D01*
X150450154Y-64935363D01*
X150469803Y-64935518D01*
X150641034Y-64950500D01*
X150699999Y-64955659D01*
X150700000Y-64955659D01*
X150700001Y-64955659D01*
X150758966Y-64950500D01*
X150935408Y-64935063D01*
X151163663Y-64873903D01*
X151377830Y-64774035D01*
X151571401Y-64638495D01*
X151693329Y-64516566D01*
X151754648Y-64483084D01*
X151824340Y-64488068D01*
X151880274Y-64529939D01*
X151897189Y-64560917D01*
X151946202Y-64692328D01*
X151946206Y-64692335D01*
X152032452Y-64807544D01*
X152032455Y-64807547D01*
X152147664Y-64893793D01*
X152147671Y-64893797D01*
X152282517Y-64944091D01*
X152282516Y-64944091D01*
X152289444Y-64944835D01*
X152342127Y-64950500D01*
X154137872Y-64950499D01*
X154197483Y-64944091D01*
X154332331Y-64893796D01*
X154447546Y-64807546D01*
X154533796Y-64692331D01*
X154584091Y-64557483D01*
X154590500Y-64497873D01*
X154590499Y-62702128D01*
X154584091Y-62642517D01*
X154582810Y-62639083D01*
X154533797Y-62507671D01*
X154533793Y-62507664D01*
X154447547Y-62392455D01*
X154447544Y-62392452D01*
X154332335Y-62306206D01*
X154332328Y-62306202D01*
X154197482Y-62255908D01*
X154197483Y-62255908D01*
X154137883Y-62249501D01*
X154137881Y-62249500D01*
X154137873Y-62249500D01*
X154137864Y-62249500D01*
X152342129Y-62249500D01*
X152342123Y-62249501D01*
X152282516Y-62255908D01*
X152147671Y-62306202D01*
X152147664Y-62306206D01*
X152032455Y-62392452D01*
X152032452Y-62392455D01*
X151946206Y-62507664D01*
X151946203Y-62507669D01*
X151897189Y-62639083D01*
X151855317Y-62695016D01*
X151789853Y-62719433D01*
X151721580Y-62704581D01*
X151693326Y-62683430D01*
X151571402Y-62561506D01*
X151571395Y-62561501D01*
X151377834Y-62425967D01*
X151377830Y-62425965D01*
X151351564Y-62413717D01*
X151163663Y-62326097D01*
X151163659Y-62326096D01*
X151163655Y-62326094D01*
X150935413Y-62264938D01*
X150935403Y-62264936D01*
X150700001Y-62244341D01*
X150699999Y-62244341D01*
X150464596Y-62264936D01*
X150464586Y-62264938D01*
X150236344Y-62326094D01*
X150236335Y-62326098D01*
X150022171Y-62425964D01*
X150022169Y-62425965D01*
X149828597Y-62561505D01*
X149661505Y-62728597D01*
X149531575Y-62914158D01*
X149476998Y-62957783D01*
X149407500Y-62964977D01*
X149345145Y-62933454D01*
X149328425Y-62914158D01*
X149198494Y-62728597D01*
X149031402Y-62561506D01*
X149031395Y-62561501D01*
X148837834Y-62425967D01*
X148837830Y-62425965D01*
X148811564Y-62413717D01*
X148623663Y-62326097D01*
X148623659Y-62326096D01*
X148623655Y-62326094D01*
X148395413Y-62264938D01*
X148395403Y-62264936D01*
X148160001Y-62244341D01*
X148159999Y-62244341D01*
X147924596Y-62264936D01*
X147924586Y-62264938D01*
X147696344Y-62326094D01*
X147696335Y-62326098D01*
X147482171Y-62425964D01*
X147482169Y-62425965D01*
X147288597Y-62561505D01*
X147121505Y-62728597D01*
X146991575Y-62914158D01*
X146936998Y-62957783D01*
X146867500Y-62964977D01*
X146805145Y-62933454D01*
X146788425Y-62914158D01*
X146658494Y-62728597D01*
X146491402Y-62561506D01*
X146491395Y-62561501D01*
X146297834Y-62425967D01*
X146297830Y-62425965D01*
X146271564Y-62413717D01*
X146083663Y-62326097D01*
X146083659Y-62326096D01*
X146083655Y-62326094D01*
X145855413Y-62264938D01*
X145855403Y-62264936D01*
X145620001Y-62244341D01*
X145619999Y-62244341D01*
X145384596Y-62264936D01*
X145384586Y-62264938D01*
X145156344Y-62326094D01*
X145156335Y-62326098D01*
X144942171Y-62425964D01*
X144942169Y-62425965D01*
X144748597Y-62561505D01*
X144581505Y-62728597D01*
X144451575Y-62914158D01*
X144396998Y-62957783D01*
X144327500Y-62964977D01*
X144265145Y-62933454D01*
X144248425Y-62914158D01*
X144118494Y-62728597D01*
X143951402Y-62561506D01*
X143951395Y-62561501D01*
X143757834Y-62425967D01*
X143757830Y-62425965D01*
X143731564Y-62413717D01*
X143543663Y-62326097D01*
X143543659Y-62326096D01*
X143543655Y-62326094D01*
X143315413Y-62264938D01*
X143315403Y-62264936D01*
X143080001Y-62244341D01*
X143079999Y-62244341D01*
X142844596Y-62264936D01*
X142844586Y-62264938D01*
X142616344Y-62326094D01*
X142616335Y-62326098D01*
X142402171Y-62425964D01*
X142402169Y-62425965D01*
X142208597Y-62561505D01*
X142041505Y-62728597D01*
X141911575Y-62914158D01*
X141856998Y-62957783D01*
X141787500Y-62964977D01*
X141725145Y-62933454D01*
X141708425Y-62914158D01*
X141578494Y-62728597D01*
X141411402Y-62561506D01*
X141411395Y-62561501D01*
X141217834Y-62425967D01*
X141217830Y-62425965D01*
X141191564Y-62413717D01*
X141003663Y-62326097D01*
X141003659Y-62326096D01*
X141003655Y-62326094D01*
X140775413Y-62264938D01*
X140775403Y-62264936D01*
X140540001Y-62244341D01*
X140539999Y-62244341D01*
X140304596Y-62264936D01*
X140304586Y-62264938D01*
X140076344Y-62326094D01*
X140076335Y-62326098D01*
X139862171Y-62425964D01*
X139862169Y-62425965D01*
X139668597Y-62561505D01*
X139501505Y-62728597D01*
X139371575Y-62914158D01*
X139316998Y-62957783D01*
X139247500Y-62964977D01*
X139185145Y-62933454D01*
X139168425Y-62914158D01*
X139038494Y-62728597D01*
X138871402Y-62561506D01*
X138871395Y-62561501D01*
X138677834Y-62425967D01*
X138677830Y-62425965D01*
X138651564Y-62413717D01*
X138463663Y-62326097D01*
X138463659Y-62326096D01*
X138463655Y-62326094D01*
X138235413Y-62264938D01*
X138235403Y-62264936D01*
X138013643Y-62245534D01*
X138004683Y-62242029D01*
X137985957Y-62245569D01*
X137764596Y-62264936D01*
X137764586Y-62264938D01*
X137536344Y-62326094D01*
X137536335Y-62326098D01*
X137322171Y-62425964D01*
X137322169Y-62425965D01*
X137128597Y-62561505D01*
X136961505Y-62728597D01*
X136825965Y-62922169D01*
X136825964Y-62922171D01*
X136726098Y-63136335D01*
X136726094Y-63136344D01*
X136664938Y-63364586D01*
X136664936Y-63364596D01*
X136644341Y-63599999D01*
X136644341Y-63600000D01*
X136664936Y-63835403D01*
X136664938Y-63835413D01*
X136726094Y-64063655D01*
X136726096Y-64063659D01*
X136726097Y-64063663D01*
X136817145Y-64258916D01*
X136825965Y-64277830D01*
X136825967Y-64277834D01*
X136916501Y-64407129D01*
X136961505Y-64471401D01*
X137128599Y-64638495D01*
X137225384Y-64706265D01*
X137322165Y-64774032D01*
X137322167Y-64774033D01*
X137322170Y-64774035D01*
X137536337Y-64873903D01*
X137764592Y-64935063D01*
X137941034Y-64950500D01*
X137999999Y-64955659D01*
X137999999Y-64955658D01*
X138000000Y-64955659D01*
X138099705Y-64946935D01*
X138168202Y-64960701D01*
X138198192Y-64982782D01*
X144899194Y-71683784D01*
X144909019Y-71696048D01*
X144909240Y-71695866D01*
X144914210Y-71701873D01*
X144914213Y-71701876D01*
X144914214Y-71701877D01*
X144964651Y-71749241D01*
X144985530Y-71770120D01*
X144991004Y-71774366D01*
X144995442Y-71778156D01*
X145029418Y-71810062D01*
X145029422Y-71810064D01*
X145046973Y-71819713D01*
X145063231Y-71830392D01*
X145079064Y-71842674D01*
X145091241Y-71847943D01*
X145121837Y-71861183D01*
X145127081Y-71863752D01*
X145167908Y-71886197D01*
X145187312Y-71891179D01*
X145205710Y-71897478D01*
X145224105Y-71905438D01*
X145270129Y-71912726D01*
X145275832Y-71913907D01*
X145320981Y-71925500D01*
X145341016Y-71925500D01*
X145360413Y-71927026D01*
X145380196Y-71930160D01*
X145426584Y-71925775D01*
X145432422Y-71925500D01*
X150726502Y-71925500D01*
X150793541Y-71945185D01*
X150839296Y-71997989D01*
X150849240Y-72067147D01*
X150820215Y-72130703D01*
X150800816Y-72148764D01*
X150742454Y-72192454D01*
X150742453Y-72192455D01*
X150742452Y-72192456D01*
X150656206Y-72307664D01*
X150656202Y-72307671D01*
X150614556Y-72419333D01*
X150572685Y-72475267D01*
X150507221Y-72499684D01*
X150498374Y-72500000D01*
X149303554Y-72500000D01*
X149850000Y-73046447D01*
X150958709Y-74155157D01*
X150958710Y-74155156D01*
X151043350Y-74042093D01*
X151093597Y-73907376D01*
X151093598Y-73907372D01*
X151099999Y-73847844D01*
X151100000Y-73847827D01*
X151100000Y-73674499D01*
X151119685Y-73607460D01*
X151172489Y-73561705D01*
X151223996Y-73550499D01*
X151976000Y-73550499D01*
X152043039Y-73570184D01*
X152088794Y-73622988D01*
X152100000Y-73674499D01*
X152100000Y-73847844D01*
X152106401Y-73907372D01*
X152106403Y-73907379D01*
X152156645Y-74042086D01*
X152156647Y-74042088D01*
X152241289Y-74155157D01*
X153262319Y-73134128D01*
X153323642Y-73100643D01*
X153393334Y-73105627D01*
X153437681Y-73134128D01*
X153615872Y-73312319D01*
X153649357Y-73373642D01*
X153644373Y-73443334D01*
X153615872Y-73487681D01*
X152803553Y-74300000D01*
X152815171Y-74328047D01*
X152822640Y-74397517D01*
X152791365Y-74459996D01*
X152731276Y-74495648D01*
X152700611Y-74499500D01*
X152552130Y-74499500D01*
X152552123Y-74499501D01*
X152492516Y-74505908D01*
X152357671Y-74556202D01*
X152357664Y-74556206D01*
X152242456Y-74642452D01*
X152242455Y-74642453D01*
X152242454Y-74642454D01*
X152193633Y-74707671D01*
X152180802Y-74724811D01*
X152124868Y-74766682D01*
X152081535Y-74774500D01*
X151118465Y-74774500D01*
X151051426Y-74754815D01*
X151019198Y-74724811D01*
X151006367Y-74707671D01*
X150957546Y-74642454D01*
X150927196Y-74619734D01*
X150842335Y-74556206D01*
X150842328Y-74556202D01*
X150707482Y-74505908D01*
X150707483Y-74505908D01*
X150647883Y-74499501D01*
X150647881Y-74499500D01*
X150647873Y-74499500D01*
X150647865Y-74499500D01*
X150499389Y-74499500D01*
X150432350Y-74479815D01*
X150386595Y-74427011D01*
X150376651Y-74357853D01*
X150384828Y-74328047D01*
X150396445Y-74299999D01*
X149850001Y-73753553D01*
X149849999Y-73753553D01*
X149303553Y-74300000D01*
X149315171Y-74328047D01*
X149322640Y-74397517D01*
X149291365Y-74459996D01*
X149231276Y-74495648D01*
X149200611Y-74499500D01*
X149052130Y-74499500D01*
X149052123Y-74499501D01*
X148992516Y-74505908D01*
X148857671Y-74556202D01*
X148857664Y-74556206D01*
X148742455Y-74642452D01*
X148742452Y-74642455D01*
X148656206Y-74757664D01*
X148656202Y-74757671D01*
X148605908Y-74892517D01*
X148599675Y-74950500D01*
X148599501Y-74952123D01*
X148599500Y-74952135D01*
X148599500Y-75847870D01*
X148599501Y-75847876D01*
X148605908Y-75907483D01*
X148656202Y-76042328D01*
X148656206Y-76042335D01*
X148742452Y-76157544D01*
X148742455Y-76157547D01*
X148857664Y-76243793D01*
X148857671Y-76243797D01*
X148992517Y-76294091D01*
X148992516Y-76294091D01*
X148999444Y-76294835D01*
X149052127Y-76300500D01*
X150498559Y-76300499D01*
X150565598Y-76320184D01*
X150611353Y-76372987D01*
X150614741Y-76381165D01*
X150656203Y-76492330D01*
X150656206Y-76492335D01*
X150742452Y-76607544D01*
X150742455Y-76607547D01*
X150857664Y-76693793D01*
X150857673Y-76693798D01*
X150948967Y-76727848D01*
X151004901Y-76769718D01*
X151029319Y-76835183D01*
X151014468Y-76903456D01*
X150993316Y-76931711D01*
X150391208Y-77533819D01*
X150378951Y-77543640D01*
X150379134Y-77543861D01*
X150373123Y-77548833D01*
X150325772Y-77599256D01*
X150304889Y-77620139D01*
X150304877Y-77620152D01*
X150300621Y-77625637D01*
X150296837Y-77630067D01*
X150264937Y-77664038D01*
X150264936Y-77664040D01*
X150255284Y-77681596D01*
X150244610Y-77697846D01*
X150232329Y-77713681D01*
X150232324Y-77713688D01*
X150213815Y-77756458D01*
X150211245Y-77761704D01*
X150188803Y-77802526D01*
X150183822Y-77821927D01*
X150177521Y-77840330D01*
X150169562Y-77858722D01*
X150169561Y-77858725D01*
X150162271Y-77904747D01*
X150161087Y-77910466D01*
X150149501Y-77955592D01*
X150149500Y-77955602D01*
X150149500Y-77975636D01*
X150147973Y-77995033D01*
X150144840Y-78014816D01*
X150146073Y-78027858D01*
X150149225Y-78061203D01*
X150149500Y-78067041D01*
X150149500Y-81865547D01*
X150129815Y-81932586D01*
X150077011Y-81978341D01*
X150007853Y-81988285D01*
X149944297Y-81959260D01*
X149937819Y-81953228D01*
X149600803Y-81616212D01*
X149590980Y-81603950D01*
X149590759Y-81604134D01*
X149585786Y-81598123D01*
X149581748Y-81594331D01*
X149535364Y-81550773D01*
X149524919Y-81540328D01*
X149514475Y-81529883D01*
X149508986Y-81525625D01*
X149504561Y-81521847D01*
X149470582Y-81489938D01*
X149470580Y-81489936D01*
X149470577Y-81489935D01*
X149453029Y-81480288D01*
X149436763Y-81469604D01*
X149421589Y-81457834D01*
X149420936Y-81457327D01*
X149420935Y-81457326D01*
X149420932Y-81457324D01*
X149420931Y-81457323D01*
X149416918Y-81455587D01*
X149414273Y-81453385D01*
X149414219Y-81453354D01*
X149414224Y-81453345D01*
X149363212Y-81410895D01*
X149342194Y-81344261D01*
X149348237Y-81303473D01*
X149385674Y-81188256D01*
X149405460Y-81000000D01*
X149385674Y-80811744D01*
X149327179Y-80631716D01*
X149232533Y-80467784D01*
X149105871Y-80327112D01*
X149097463Y-80321003D01*
X148952734Y-80215851D01*
X148952729Y-80215848D01*
X148779807Y-80138857D01*
X148779802Y-80138855D01*
X148634001Y-80107865D01*
X148594646Y-80099500D01*
X148594645Y-80099500D01*
X148535453Y-80099500D01*
X148468414Y-80079815D01*
X148447772Y-80063181D01*
X148400803Y-80016212D01*
X148390980Y-80003950D01*
X148390759Y-80004134D01*
X148385786Y-79998123D01*
X148371148Y-79984377D01*
X148335364Y-79950773D01*
X148324919Y-79940328D01*
X148314475Y-79929883D01*
X148308986Y-79925625D01*
X148304561Y-79921847D01*
X148270582Y-79889938D01*
X148270580Y-79889936D01*
X148270577Y-79889935D01*
X148253029Y-79880288D01*
X148236763Y-79869604D01*
X148231240Y-79865320D01*
X148220936Y-79857327D01*
X148220935Y-79857326D01*
X148220933Y-79857325D01*
X148178168Y-79838818D01*
X148172922Y-79836248D01*
X148132093Y-79813803D01*
X148132092Y-79813802D01*
X148112693Y-79808822D01*
X148094281Y-79802518D01*
X148075898Y-79794562D01*
X148075892Y-79794560D01*
X148029874Y-79787272D01*
X148024152Y-79786087D01*
X147979021Y-79774500D01*
X147979019Y-79774500D01*
X147958984Y-79774500D01*
X147939586Y-79772973D01*
X147932162Y-79771797D01*
X147919805Y-79769840D01*
X147919804Y-79769840D01*
X147873416Y-79774225D01*
X147867578Y-79774500D01*
X147824500Y-79774500D01*
X147757461Y-79754815D01*
X147711706Y-79702011D01*
X147700500Y-79650500D01*
X147700499Y-79302130D01*
X147700498Y-79302123D01*
X147697958Y-79278495D01*
X147694091Y-79242517D01*
X147675754Y-79193354D01*
X147643797Y-79107671D01*
X147643793Y-79107664D01*
X147557547Y-78992455D01*
X147557544Y-78992452D01*
X147442335Y-78906206D01*
X147442328Y-78906202D01*
X147307482Y-78855908D01*
X147307483Y-78855908D01*
X147247883Y-78849501D01*
X147247881Y-78849500D01*
X147247873Y-78849500D01*
X147247865Y-78849500D01*
X146699500Y-78849500D01*
X146632461Y-78829815D01*
X146586706Y-78777011D01*
X146575500Y-78725500D01*
X146575500Y-76318464D01*
X146595185Y-76251425D01*
X146625187Y-76219199D01*
X146707546Y-76157546D01*
X146793796Y-76042331D01*
X146844091Y-75907483D01*
X146850500Y-75847873D01*
X146850499Y-74952128D01*
X146844091Y-74892517D01*
X146825442Y-74842517D01*
X146793797Y-74757671D01*
X146793793Y-74757664D01*
X146707547Y-74642455D01*
X146707544Y-74642452D01*
X146592335Y-74556206D01*
X146592328Y-74556202D01*
X146457482Y-74505908D01*
X146457483Y-74505908D01*
X146397883Y-74499501D01*
X146397881Y-74499500D01*
X146397873Y-74499500D01*
X146397865Y-74499500D01*
X146249389Y-74499500D01*
X146182350Y-74479815D01*
X146136595Y-74427011D01*
X146126651Y-74357853D01*
X146134828Y-74328047D01*
X146146445Y-74299999D01*
X145600001Y-73753553D01*
X145599999Y-73753553D01*
X145053553Y-74300000D01*
X145065171Y-74328047D01*
X145072640Y-74397517D01*
X145041365Y-74459996D01*
X144981276Y-74495648D01*
X144950611Y-74499500D01*
X144802130Y-74499500D01*
X144802123Y-74499501D01*
X144742516Y-74505908D01*
X144607671Y-74556202D01*
X144607664Y-74556206D01*
X144492456Y-74642452D01*
X144492455Y-74642453D01*
X144492454Y-74642454D01*
X144443633Y-74707671D01*
X144430802Y-74724811D01*
X144374868Y-74766682D01*
X144331535Y-74774500D01*
X143368465Y-74774500D01*
X143301426Y-74754815D01*
X143269198Y-74724811D01*
X143256367Y-74707671D01*
X143207546Y-74642454D01*
X143177196Y-74619734D01*
X143092335Y-74556206D01*
X143092328Y-74556202D01*
X142957482Y-74505908D01*
X142957483Y-74505908D01*
X142897883Y-74499501D01*
X142897881Y-74499500D01*
X142897873Y-74499500D01*
X142897865Y-74499500D01*
X142749389Y-74499500D01*
X142682350Y-74479815D01*
X142636595Y-74427011D01*
X142626651Y-74357853D01*
X142634828Y-74328047D01*
X142646445Y-74299999D01*
X142100001Y-73753553D01*
X142099999Y-73753553D01*
X141553553Y-74300000D01*
X141565171Y-74328047D01*
X141572640Y-74397517D01*
X141541365Y-74459996D01*
X141481276Y-74495648D01*
X141450611Y-74499500D01*
X141302130Y-74499500D01*
X141302123Y-74499501D01*
X141242516Y-74505908D01*
X141107671Y-74556202D01*
X141107664Y-74556206D01*
X140992455Y-74642452D01*
X140992452Y-74642455D01*
X140906206Y-74757664D01*
X140906202Y-74757671D01*
X140855908Y-74892517D01*
X140849675Y-74950500D01*
X140849501Y-74952123D01*
X140849500Y-74952135D01*
X140849500Y-75847870D01*
X140849501Y-75847876D01*
X140855908Y-75907483D01*
X140906202Y-76042328D01*
X140906206Y-76042335D01*
X140992452Y-76157544D01*
X140992455Y-76157547D01*
X141107664Y-76243793D01*
X141107671Y-76243797D01*
X141242517Y-76294091D01*
X141242516Y-76294091D01*
X141249444Y-76294835D01*
X141302127Y-76300500D01*
X142748559Y-76300499D01*
X142815598Y-76320184D01*
X142861353Y-76372987D01*
X142864741Y-76381165D01*
X142906203Y-76492330D01*
X142906206Y-76492335D01*
X142992452Y-76607544D01*
X142992455Y-76607547D01*
X143107664Y-76693793D01*
X143107671Y-76693797D01*
X143242517Y-76744091D01*
X143242516Y-76744091D01*
X143249444Y-76744835D01*
X143302127Y-76750500D01*
X144397872Y-76750499D01*
X144457483Y-76744091D01*
X144592331Y-76693796D01*
X144707546Y-76607546D01*
X144793796Y-76492331D01*
X144835258Y-76381166D01*
X144877129Y-76325232D01*
X144942593Y-76300815D01*
X144951440Y-76300499D01*
X145200500Y-76300499D01*
X145267539Y-76320184D01*
X145313294Y-76372988D01*
X145324500Y-76424499D01*
X145324500Y-78725500D01*
X145304815Y-78792539D01*
X145252011Y-78838294D01*
X145200500Y-78849500D01*
X144552129Y-78849500D01*
X144552123Y-78849501D01*
X144492516Y-78855908D01*
X144357671Y-78906202D01*
X144357668Y-78906204D01*
X144299476Y-78949767D01*
X144234011Y-78974184D01*
X144225165Y-78974500D01*
X143445686Y-78974500D01*
X143378647Y-78954815D01*
X143332892Y-78902011D01*
X143322328Y-78863102D01*
X143318927Y-78829815D01*
X143315087Y-78792225D01*
X143260362Y-78627075D01*
X143260358Y-78627069D01*
X143260357Y-78627066D01*
X143169028Y-78479000D01*
X143169025Y-78478996D01*
X143046003Y-78355974D01*
X143045999Y-78355971D01*
X142897933Y-78264642D01*
X142897927Y-78264639D01*
X142897925Y-78264638D01*
X142853750Y-78250000D01*
X142732776Y-78209913D01*
X142630855Y-78199500D01*
X142630848Y-78199500D01*
X142044152Y-78199500D01*
X142044144Y-78199500D01*
X141942223Y-78209913D01*
X141777077Y-78264637D01*
X141777066Y-78264642D01*
X141629000Y-78355971D01*
X141628996Y-78355974D01*
X141505974Y-78478996D01*
X141505967Y-78479005D01*
X141505234Y-78480194D01*
X141504519Y-78480836D01*
X141501493Y-78484664D01*
X141500838Y-78484146D01*
X141453280Y-78526911D01*
X141384316Y-78538123D01*
X141320238Y-78510271D01*
X141298238Y-78484877D01*
X141298112Y-78484977D01*
X141295885Y-78482161D01*
X141294163Y-78480173D01*
X141293630Y-78479309D01*
X141170691Y-78356370D01*
X141022714Y-78265096D01*
X141022709Y-78265094D01*
X140857673Y-78210407D01*
X140755815Y-78200000D01*
X140712500Y-78200000D01*
X140712500Y-80600000D01*
X140755803Y-80600000D01*
X140755815Y-80599999D01*
X140857673Y-80589592D01*
X141022709Y-80534905D01*
X141022714Y-80534903D01*
X141170691Y-80443629D01*
X141293628Y-80320692D01*
X141294159Y-80319832D01*
X141294680Y-80319363D01*
X141298112Y-80315023D01*
X141298853Y-80315608D01*
X141346101Y-80273102D01*
X141415063Y-80261872D01*
X141479148Y-80289708D01*
X141501413Y-80315398D01*
X141501493Y-80315336D01*
X141502890Y-80317103D01*
X141505238Y-80319812D01*
X141505968Y-80320995D01*
X141505974Y-80321003D01*
X141628996Y-80444025D01*
X141629000Y-80444028D01*
X141777066Y-80535357D01*
X141777069Y-80535358D01*
X141777075Y-80535362D01*
X141942225Y-80590087D01*
X142044152Y-80600500D01*
X142044157Y-80600500D01*
X142630843Y-80600500D01*
X142630848Y-80600500D01*
X142732775Y-80590087D01*
X142897925Y-80535362D01*
X143046003Y-80444026D01*
X143169026Y-80321003D01*
X143191602Y-80284402D01*
X143243550Y-80237678D01*
X143297140Y-80225500D01*
X143975500Y-80225500D01*
X144042539Y-80245185D01*
X144088294Y-80297989D01*
X144099500Y-80349500D01*
X144099500Y-80647869D01*
X144099501Y-80647876D01*
X144105908Y-80707482D01*
X144124253Y-80756666D01*
X144129237Y-80826358D01*
X144124253Y-80843331D01*
X144105910Y-80892511D01*
X144105909Y-80892515D01*
X144105909Y-80892517D01*
X144099500Y-80952127D01*
X144099500Y-81149729D01*
X144099501Y-81250500D01*
X144079817Y-81317539D01*
X144027013Y-81363294D01*
X143975501Y-81374500D01*
X143482743Y-81374500D01*
X143467122Y-81372775D01*
X143467095Y-81373061D01*
X143459333Y-81372326D01*
X143390172Y-81374500D01*
X143360649Y-81374500D01*
X143353778Y-81375367D01*
X143347959Y-81375825D01*
X143301374Y-81377289D01*
X143301368Y-81377290D01*
X143282126Y-81382880D01*
X143263087Y-81386823D01*
X143243217Y-81389334D01*
X143243203Y-81389337D01*
X143199883Y-81406488D01*
X143194358Y-81408380D01*
X143149613Y-81421380D01*
X143149610Y-81421381D01*
X143132366Y-81431579D01*
X143114905Y-81440133D01*
X143096274Y-81447510D01*
X143096262Y-81447517D01*
X143058570Y-81474902D01*
X143053687Y-81478109D01*
X143013580Y-81501829D01*
X142999414Y-81515995D01*
X142984624Y-81528627D01*
X142968414Y-81540404D01*
X142968411Y-81540407D01*
X142938710Y-81576309D01*
X142934777Y-81580631D01*
X142752228Y-81763181D01*
X142690905Y-81796666D01*
X142664547Y-81799500D01*
X142106644Y-81799500D01*
X142004723Y-81809913D01*
X141839577Y-81864637D01*
X141839566Y-81864642D01*
X141691500Y-81955971D01*
X141691496Y-81955974D01*
X141568474Y-82078996D01*
X141568467Y-82079005D01*
X141567734Y-82080194D01*
X141567019Y-82080836D01*
X141563993Y-82084664D01*
X141563338Y-82084146D01*
X141515780Y-82126911D01*
X141446816Y-82138123D01*
X141382738Y-82110271D01*
X141360738Y-82084877D01*
X141360612Y-82084977D01*
X141358385Y-82082161D01*
X141356663Y-82080173D01*
X141356130Y-82079309D01*
X141233191Y-81956370D01*
X141085214Y-81865096D01*
X141085209Y-81865094D01*
X140920173Y-81810407D01*
X140818315Y-81800000D01*
X140775000Y-81800000D01*
X140775000Y-83126000D01*
X140755315Y-83193039D01*
X140702511Y-83238794D01*
X140651000Y-83250000D01*
X140399000Y-83250000D01*
X140331961Y-83230315D01*
X140286206Y-83177511D01*
X140275000Y-83126000D01*
X140275000Y-81800000D01*
X140231684Y-81800000D01*
X140129826Y-81810407D01*
X139964790Y-81865094D01*
X139964785Y-81865096D01*
X139816808Y-81956370D01*
X139693870Y-82079308D01*
X139602596Y-82227285D01*
X139602594Y-82227290D01*
X139547907Y-82392325D01*
X139547858Y-82392806D01*
X139547744Y-82393083D01*
X139546490Y-82398945D01*
X139545444Y-82398721D01*
X139521461Y-82457498D01*
X139464279Y-82497648D01*
X139394468Y-82500510D01*
X139334192Y-82465176D01*
X139302588Y-82402862D01*
X139300500Y-82380202D01*
X139300500Y-80218085D01*
X139320185Y-80151046D01*
X139372989Y-80105291D01*
X139442147Y-80095347D01*
X139505703Y-80124372D01*
X139534408Y-80167398D01*
X139537045Y-80166169D01*
X139540096Y-80172714D01*
X139631370Y-80320691D01*
X139754308Y-80443629D01*
X139902285Y-80534903D01*
X139902290Y-80534905D01*
X140067326Y-80589592D01*
X140169184Y-80599999D01*
X140169197Y-80600000D01*
X140212500Y-80600000D01*
X140212500Y-78200000D01*
X140169184Y-78200000D01*
X140067326Y-78210407D01*
X139902290Y-78265094D01*
X139902285Y-78265096D01*
X139754308Y-78356370D01*
X139631370Y-78479308D01*
X139540096Y-78627285D01*
X139540095Y-78627288D01*
X139515127Y-78702636D01*
X139475353Y-78760081D01*
X139410837Y-78786903D01*
X139342062Y-78774587D01*
X139290862Y-78727044D01*
X139282129Y-78709278D01*
X139268512Y-78674887D01*
X139266619Y-78669358D01*
X139253618Y-78624609D01*
X139253616Y-78624606D01*
X139243423Y-78607371D01*
X139234861Y-78589894D01*
X139227487Y-78571270D01*
X139227486Y-78571268D01*
X139200079Y-78533545D01*
X139196888Y-78528686D01*
X139195838Y-78526911D01*
X139173170Y-78488580D01*
X139173168Y-78488578D01*
X139173165Y-78488574D01*
X139159006Y-78474415D01*
X139146368Y-78459619D01*
X139134594Y-78443413D01*
X139098688Y-78413709D01*
X139094376Y-78409786D01*
X136000803Y-75316212D01*
X135990980Y-75303950D01*
X135990759Y-75304134D01*
X135985786Y-75298123D01*
X135955838Y-75270000D01*
X135935364Y-75250773D01*
X135924919Y-75240328D01*
X135914475Y-75229883D01*
X135908986Y-75225625D01*
X135904561Y-75221847D01*
X135870582Y-75189938D01*
X135870580Y-75189936D01*
X135870577Y-75189935D01*
X135853029Y-75180288D01*
X135836763Y-75169604D01*
X135820933Y-75157325D01*
X135778168Y-75138818D01*
X135772922Y-75136248D01*
X135732093Y-75113803D01*
X135732092Y-75113802D01*
X135712693Y-75108822D01*
X135694281Y-75102518D01*
X135675898Y-75094562D01*
X135675892Y-75094560D01*
X135629874Y-75087272D01*
X135624152Y-75086087D01*
X135579021Y-75074500D01*
X135579019Y-75074500D01*
X135558984Y-75074500D01*
X135539586Y-75072973D01*
X135532162Y-75071797D01*
X135519805Y-75069840D01*
X135519804Y-75069840D01*
X135473416Y-75074225D01*
X135467578Y-75074500D01*
X134874499Y-75074500D01*
X134807460Y-75054815D01*
X134761705Y-75002011D01*
X134750499Y-74950500D01*
X134750499Y-74802129D01*
X134750498Y-74802123D01*
X134750497Y-74802116D01*
X134744091Y-74742517D01*
X134743754Y-74741614D01*
X134693797Y-74607671D01*
X134693793Y-74607664D01*
X134607547Y-74492455D01*
X134607544Y-74492452D01*
X134492335Y-74406206D01*
X134492328Y-74406202D01*
X134357482Y-74355908D01*
X134357483Y-74355908D01*
X134297883Y-74349501D01*
X134297881Y-74349500D01*
X134297873Y-74349500D01*
X134297864Y-74349500D01*
X132502129Y-74349500D01*
X132502123Y-74349501D01*
X132442516Y-74355908D01*
X132307671Y-74406202D01*
X132307664Y-74406206D01*
X132192455Y-74492452D01*
X132192452Y-74492455D01*
X132106206Y-74607664D01*
X132106202Y-74607671D01*
X132055908Y-74742517D01*
X132052470Y-74774500D01*
X132049501Y-74802123D01*
X132049500Y-74802135D01*
X132049500Y-76597870D01*
X132049501Y-76597876D01*
X132055908Y-76657483D01*
X132106202Y-76792328D01*
X132106206Y-76792335D01*
X132192452Y-76907544D01*
X132192455Y-76907547D01*
X132307664Y-76993793D01*
X132307671Y-76993797D01*
X132439081Y-77042810D01*
X132495015Y-77084681D01*
X132519432Y-77150145D01*
X132504580Y-77218418D01*
X132483430Y-77246673D01*
X132361503Y-77368600D01*
X132225965Y-77562169D01*
X132225964Y-77562171D01*
X132126098Y-77776335D01*
X132126094Y-77776344D01*
X132064938Y-78004586D01*
X132064936Y-78004596D01*
X132044341Y-78239999D01*
X132044341Y-78240000D01*
X132064936Y-78475403D01*
X132064938Y-78475413D01*
X132126094Y-78703655D01*
X132126096Y-78703659D01*
X132126097Y-78703663D01*
X132193635Y-78848498D01*
X132225965Y-78917830D01*
X132225967Y-78917834D01*
X132278216Y-78992452D01*
X132358888Y-79107664D01*
X132361501Y-79111395D01*
X132361506Y-79111402D01*
X132528597Y-79278493D01*
X132528603Y-79278498D01*
X132714158Y-79408425D01*
X132757783Y-79463002D01*
X132764977Y-79532500D01*
X132733454Y-79594855D01*
X132714158Y-79611575D01*
X132528597Y-79741505D01*
X132361505Y-79908597D01*
X132225965Y-80102169D01*
X132225964Y-80102171D01*
X132126098Y-80316335D01*
X132126094Y-80316344D01*
X132064938Y-80544586D01*
X132064936Y-80544596D01*
X132044341Y-80779999D01*
X132044341Y-80780000D01*
X132064936Y-81015403D01*
X132064938Y-81015413D01*
X132126094Y-81243655D01*
X132126096Y-81243659D01*
X132126097Y-81243663D01*
X132192854Y-81386823D01*
X132225965Y-81457830D01*
X132225967Y-81457834D01*
X132361501Y-81651395D01*
X132361506Y-81651402D01*
X132528597Y-81818493D01*
X132528603Y-81818498D01*
X132714158Y-81948425D01*
X132757783Y-82003002D01*
X132764977Y-82072500D01*
X132733454Y-82134855D01*
X132714158Y-82151575D01*
X132528597Y-82281505D01*
X132361505Y-82448597D01*
X132225965Y-82642169D01*
X132225964Y-82642171D01*
X132126098Y-82856335D01*
X132126094Y-82856344D01*
X132064938Y-83084586D01*
X132064936Y-83084596D01*
X132044341Y-83319999D01*
X132044341Y-83320000D01*
X132064936Y-83555403D01*
X132064938Y-83555413D01*
X132126094Y-83783655D01*
X132126096Y-83783659D01*
X132126097Y-83783663D01*
X132189995Y-83920692D01*
X132225965Y-83997830D01*
X132225967Y-83997834D01*
X132361501Y-84191395D01*
X132361506Y-84191402D01*
X132528597Y-84358493D01*
X132528603Y-84358498D01*
X132714158Y-84488425D01*
X132757783Y-84543002D01*
X132764977Y-84612500D01*
X132733454Y-84674855D01*
X132714158Y-84691575D01*
X132528597Y-84821505D01*
X132361505Y-84988597D01*
X132225965Y-85182169D01*
X132225964Y-85182171D01*
X132151123Y-85342668D01*
X132126783Y-85394867D01*
X132126098Y-85396335D01*
X132126094Y-85396344D01*
X132064938Y-85624586D01*
X132064936Y-85624596D01*
X132044341Y-85859999D01*
X132044341Y-85860000D01*
X132064936Y-86095403D01*
X132064938Y-86095413D01*
X132126094Y-86323655D01*
X132126096Y-86323659D01*
X132126097Y-86323663D01*
X132210234Y-86504094D01*
X132225965Y-86537830D01*
X132225967Y-86537834D01*
X132239985Y-86557853D01*
X132353698Y-86720252D01*
X132361501Y-86731395D01*
X132361506Y-86731402D01*
X132528597Y-86898493D01*
X132528603Y-86898498D01*
X132714158Y-87028425D01*
X132757783Y-87083002D01*
X132764977Y-87152500D01*
X132733454Y-87214855D01*
X132714158Y-87231575D01*
X132528597Y-87361505D01*
X132361505Y-87528597D01*
X132225965Y-87722169D01*
X132225964Y-87722171D01*
X132126098Y-87936335D01*
X132126094Y-87936344D01*
X132064938Y-88164586D01*
X132064936Y-88164596D01*
X132044341Y-88399999D01*
X132044341Y-88400000D01*
X132064936Y-88635403D01*
X132064938Y-88635413D01*
X132126094Y-88863655D01*
X132126096Y-88863659D01*
X132126097Y-88863663D01*
X132212755Y-89049501D01*
X132225965Y-89077830D01*
X132225967Y-89077834D01*
X132361501Y-89271395D01*
X132361506Y-89271402D01*
X132528597Y-89438493D01*
X132528603Y-89438498D01*
X132714158Y-89568425D01*
X132757783Y-89623002D01*
X132764977Y-89692500D01*
X132733454Y-89754855D01*
X132714158Y-89771575D01*
X132528597Y-89901505D01*
X132361505Y-90068597D01*
X132225965Y-90262169D01*
X132225964Y-90262171D01*
X132126098Y-90476335D01*
X132126094Y-90476344D01*
X132064938Y-90704586D01*
X132064936Y-90704596D01*
X132044341Y-90939999D01*
X132044341Y-90940000D01*
X132064936Y-91175403D01*
X132064938Y-91175413D01*
X132126094Y-91403655D01*
X132126096Y-91403659D01*
X132126097Y-91403663D01*
X132158842Y-91473884D01*
X132225965Y-91617830D01*
X132225967Y-91617834D01*
X132361501Y-91811395D01*
X132361506Y-91811402D01*
X132528597Y-91978493D01*
X132528603Y-91978498D01*
X132714158Y-92108425D01*
X132757783Y-92163002D01*
X132764977Y-92232500D01*
X132733454Y-92294855D01*
X132714158Y-92311575D01*
X132528597Y-92441505D01*
X132361505Y-92608597D01*
X132225965Y-92802169D01*
X132225964Y-92802171D01*
X132126098Y-93016335D01*
X132126094Y-93016344D01*
X132064938Y-93244586D01*
X132064936Y-93244596D01*
X132044341Y-93479999D01*
X132044341Y-93480000D01*
X132064936Y-93715403D01*
X132064938Y-93715413D01*
X132126094Y-93943655D01*
X132126096Y-93943659D01*
X132126097Y-93943663D01*
X132144286Y-93982669D01*
X132225965Y-94157830D01*
X132225967Y-94157834D01*
X132361501Y-94351395D01*
X132361506Y-94351402D01*
X132528597Y-94518493D01*
X132528603Y-94518498D01*
X132714158Y-94648425D01*
X132757783Y-94703002D01*
X132764977Y-94772500D01*
X132733454Y-94834855D01*
X132714158Y-94851575D01*
X132528597Y-94981505D01*
X132361505Y-95148597D01*
X132225965Y-95342169D01*
X132225964Y-95342171D01*
X132126098Y-95556335D01*
X132126094Y-95556344D01*
X132064938Y-95784586D01*
X132064936Y-95784596D01*
X132044341Y-96019999D01*
X132044341Y-96020000D01*
X132064936Y-96255403D01*
X132064938Y-96255413D01*
X132126094Y-96483655D01*
X132126096Y-96483659D01*
X132126097Y-96483663D01*
X132192518Y-96626103D01*
X132225965Y-96697830D01*
X132225967Y-96697834D01*
X132361501Y-96891395D01*
X132361506Y-96891402D01*
X132528597Y-97058493D01*
X132528603Y-97058498D01*
X132714158Y-97188425D01*
X132757783Y-97243002D01*
X132764977Y-97312500D01*
X132733454Y-97374855D01*
X132714158Y-97391575D01*
X132528597Y-97521505D01*
X132361505Y-97688597D01*
X132225965Y-97882169D01*
X132225964Y-97882171D01*
X132126098Y-98096335D01*
X132126094Y-98096344D01*
X132064938Y-98324586D01*
X132064936Y-98324596D01*
X132044341Y-98559999D01*
X132044341Y-98560000D01*
X132064936Y-98795403D01*
X132064938Y-98795413D01*
X132126094Y-99023655D01*
X132126096Y-99023659D01*
X132126097Y-99023663D01*
X132193005Y-99167147D01*
X132225965Y-99237830D01*
X132225967Y-99237834D01*
X132284157Y-99320937D01*
X132349650Y-99414471D01*
X132361501Y-99431395D01*
X132361506Y-99431402D01*
X132528597Y-99598493D01*
X132528603Y-99598498D01*
X132714158Y-99728425D01*
X132757783Y-99783002D01*
X132764977Y-99852500D01*
X132733454Y-99914855D01*
X132714158Y-99931575D01*
X132528597Y-100061505D01*
X132361505Y-100228597D01*
X132225965Y-100422169D01*
X132225964Y-100422171D01*
X132126098Y-100636335D01*
X132126094Y-100636344D01*
X132064938Y-100864586D01*
X132064936Y-100864596D01*
X132044341Y-101099999D01*
X132044341Y-101100000D01*
X132064936Y-101335403D01*
X132064938Y-101335413D01*
X132126094Y-101563655D01*
X132126096Y-101563659D01*
X132126097Y-101563663D01*
X132201842Y-101726098D01*
X132225965Y-101777830D01*
X132225967Y-101777834D01*
X132304831Y-101890462D01*
X132361505Y-101971401D01*
X132528599Y-102138495D01*
X132612970Y-102197572D01*
X132722165Y-102274032D01*
X132722167Y-102274033D01*
X132722170Y-102274035D01*
X132936337Y-102373903D01*
X133164592Y-102435063D01*
X133352918Y-102451539D01*
X133399999Y-102455659D01*
X133400000Y-102455659D01*
X133400001Y-102455659D01*
X133439234Y-102452226D01*
X133635408Y-102435063D01*
X133863663Y-102373903D01*
X134077830Y-102274035D01*
X134271401Y-102138495D01*
X134438495Y-101971401D01*
X134574035Y-101777830D01*
X134673903Y-101563663D01*
X134735063Y-101335408D01*
X134755659Y-101100000D01*
X134735063Y-100864592D01*
X134708143Y-100764125D01*
X134709806Y-100694276D01*
X134740235Y-100644353D01*
X136322771Y-99061819D01*
X136384094Y-99028334D01*
X136410452Y-99025500D01*
X146120548Y-99025500D01*
X146187587Y-99045185D01*
X146233342Y-99097989D01*
X146243286Y-99167147D01*
X146214261Y-99230703D01*
X146208229Y-99237181D01*
X143785646Y-101659761D01*
X143724323Y-101693246D01*
X143665873Y-101691855D01*
X143565408Y-101664937D01*
X143330001Y-101644341D01*
X143329999Y-101644341D01*
X143094596Y-101664936D01*
X143094586Y-101664938D01*
X142866344Y-101726094D01*
X142866335Y-101726098D01*
X142652171Y-101825964D01*
X142652169Y-101825965D01*
X142458597Y-101961505D01*
X142291505Y-102128597D01*
X142155965Y-102322169D01*
X142155964Y-102322171D01*
X142056098Y-102536335D01*
X142056094Y-102536344D01*
X141994938Y-102764586D01*
X141994936Y-102764596D01*
X141974341Y-102999999D01*
X141974341Y-103000000D01*
X141994936Y-103235403D01*
X141994938Y-103235413D01*
X142056094Y-103463655D01*
X142056096Y-103463659D01*
X142056097Y-103463663D01*
X142136004Y-103635023D01*
X142155965Y-103677830D01*
X142155967Y-103677834D01*
X142225818Y-103777591D01*
X142291505Y-103871401D01*
X142458599Y-104038495D01*
X142541907Y-104096828D01*
X142652165Y-104174032D01*
X142652167Y-104174033D01*
X142652170Y-104174035D01*
X142866337Y-104273903D01*
X142866343Y-104273904D01*
X142866344Y-104273905D01*
X142921285Y-104288626D01*
X143094592Y-104335063D01*
X143271034Y-104350500D01*
X143329999Y-104355659D01*
X143330000Y-104355659D01*
X143330001Y-104355659D01*
X143388966Y-104350500D01*
X143565408Y-104335063D01*
X143793663Y-104273903D01*
X144007830Y-104174035D01*
X144201401Y-104038495D01*
X144368495Y-103871401D01*
X144498425Y-103685842D01*
X144553002Y-103642217D01*
X144622500Y-103635023D01*
X144684855Y-103666546D01*
X144701575Y-103685842D01*
X144831500Y-103871395D01*
X144831505Y-103871401D01*
X144998599Y-104038495D01*
X145081907Y-104096828D01*
X145192165Y-104174032D01*
X145192167Y-104174033D01*
X145192170Y-104174035D01*
X145406337Y-104273903D01*
X145406343Y-104273904D01*
X145406344Y-104273905D01*
X145461285Y-104288626D01*
X145634592Y-104335063D01*
X145811034Y-104350500D01*
X145869999Y-104355659D01*
X145870000Y-104355659D01*
X145870001Y-104355659D01*
X145928966Y-104350500D01*
X146105408Y-104335063D01*
X146333663Y-104273903D01*
X146547830Y-104174035D01*
X146741401Y-104038495D01*
X146908495Y-103871401D01*
X147038425Y-103685842D01*
X147093002Y-103642217D01*
X147162500Y-103635023D01*
X147224855Y-103666546D01*
X147241575Y-103685842D01*
X147371500Y-103871395D01*
X147371505Y-103871401D01*
X147538599Y-104038495D01*
X147621907Y-104096828D01*
X147732165Y-104174032D01*
X147732167Y-104174033D01*
X147732170Y-104174035D01*
X147946337Y-104273903D01*
X147946343Y-104273904D01*
X147946344Y-104273905D01*
X148001285Y-104288626D01*
X148174592Y-104335063D01*
X148351034Y-104350500D01*
X148409999Y-104355659D01*
X148410000Y-104355659D01*
X148410001Y-104355659D01*
X148468966Y-104350500D01*
X148645408Y-104335063D01*
X148873663Y-104273903D01*
X149087830Y-104174035D01*
X149281401Y-104038495D01*
X149448495Y-103871401D01*
X149578425Y-103685842D01*
X149633002Y-103642217D01*
X149702500Y-103635023D01*
X149764855Y-103666546D01*
X149781575Y-103685842D01*
X149911500Y-103871395D01*
X149911505Y-103871401D01*
X150078599Y-104038495D01*
X150161907Y-104096828D01*
X150272165Y-104174032D01*
X150272167Y-104174033D01*
X150272170Y-104174035D01*
X150486337Y-104273903D01*
X150486343Y-104273904D01*
X150486344Y-104273905D01*
X150541285Y-104288626D01*
X150714592Y-104335063D01*
X150891034Y-104350500D01*
X150949999Y-104355659D01*
X150950000Y-104355659D01*
X150950001Y-104355659D01*
X151008966Y-104350500D01*
X151185408Y-104335063D01*
X151413663Y-104273903D01*
X151627830Y-104174035D01*
X151821401Y-104038495D01*
X151988495Y-103871401D01*
X152118425Y-103685842D01*
X152173002Y-103642217D01*
X152242500Y-103635023D01*
X152304855Y-103666546D01*
X152321575Y-103685842D01*
X152451500Y-103871395D01*
X152451505Y-103871401D01*
X152618599Y-104038495D01*
X152701907Y-104096828D01*
X152812165Y-104174032D01*
X152812167Y-104174033D01*
X152812170Y-104174035D01*
X153026337Y-104273903D01*
X153026343Y-104273904D01*
X153026344Y-104273905D01*
X153081285Y-104288626D01*
X153254592Y-104335063D01*
X153431034Y-104350500D01*
X153489999Y-104355659D01*
X153490000Y-104355659D01*
X153490001Y-104355659D01*
X153548966Y-104350500D01*
X153725408Y-104335063D01*
X153953663Y-104273903D01*
X154167830Y-104174035D01*
X154361401Y-104038495D01*
X154528495Y-103871401D01*
X154658425Y-103685842D01*
X154713002Y-103642217D01*
X154782500Y-103635023D01*
X154844855Y-103666546D01*
X154861575Y-103685842D01*
X154991500Y-103871395D01*
X154991505Y-103871401D01*
X155158599Y-104038495D01*
X155241907Y-104096828D01*
X155352165Y-104174032D01*
X155352167Y-104174033D01*
X155352170Y-104174035D01*
X155566337Y-104273903D01*
X155566343Y-104273904D01*
X155566344Y-104273905D01*
X155621285Y-104288626D01*
X155794592Y-104335063D01*
X155971034Y-104350500D01*
X156029999Y-104355659D01*
X156030000Y-104355659D01*
X156030001Y-104355659D01*
X156088966Y-104350500D01*
X156265408Y-104335063D01*
X156493663Y-104273903D01*
X156707830Y-104174035D01*
X156901401Y-104038495D01*
X157023329Y-103916566D01*
X157084648Y-103883084D01*
X157154340Y-103888068D01*
X157210274Y-103929939D01*
X157227189Y-103960917D01*
X157276202Y-104092328D01*
X157276206Y-104092335D01*
X157362452Y-104207544D01*
X157362455Y-104207547D01*
X157477664Y-104293793D01*
X157477671Y-104293797D01*
X157612517Y-104344091D01*
X157612516Y-104344091D01*
X157619444Y-104344835D01*
X157672127Y-104350500D01*
X159467872Y-104350499D01*
X159527483Y-104344091D01*
X159662331Y-104293796D01*
X159777546Y-104207546D01*
X159863796Y-104092331D01*
X159914091Y-103957483D01*
X159920500Y-103897873D01*
X159920500Y-103749421D01*
X159940185Y-103682382D01*
X159992989Y-103636627D01*
X160036711Y-103625666D01*
X160039346Y-103625500D01*
X160039350Y-103625500D01*
X160046228Y-103624630D01*
X160052041Y-103624172D01*
X160098627Y-103622709D01*
X160117869Y-103617117D01*
X160136912Y-103613174D01*
X160156792Y-103610664D01*
X160200122Y-103593507D01*
X160205646Y-103591617D01*
X160209396Y-103590527D01*
X160250390Y-103578618D01*
X160267629Y-103568422D01*
X160285103Y-103559862D01*
X160303727Y-103552488D01*
X160303727Y-103552487D01*
X160303732Y-103552486D01*
X160341449Y-103525082D01*
X160346305Y-103521892D01*
X160386420Y-103498170D01*
X160400589Y-103483999D01*
X160415379Y-103471368D01*
X160431587Y-103459594D01*
X160461299Y-103423676D01*
X160465212Y-103419376D01*
X162099013Y-101785575D01*
X162160336Y-101752091D01*
X162230028Y-101757075D01*
X162285961Y-101798947D01*
X162310378Y-101864411D01*
X162302876Y-101916590D01*
X162255908Y-102042517D01*
X162249501Y-102102116D01*
X162249500Y-102102135D01*
X162249500Y-103897870D01*
X162249501Y-103897876D01*
X162255908Y-103957483D01*
X162306202Y-104092328D01*
X162306206Y-104092335D01*
X162392452Y-104207544D01*
X162392455Y-104207547D01*
X162507664Y-104293793D01*
X162507671Y-104293797D01*
X162642517Y-104344091D01*
X162642516Y-104344091D01*
X162649444Y-104344835D01*
X162702127Y-104350500D01*
X164497872Y-104350499D01*
X164557483Y-104344091D01*
X164692331Y-104293796D01*
X164807546Y-104207546D01*
X164893796Y-104092331D01*
X164942810Y-103960916D01*
X164984681Y-103904984D01*
X165050145Y-103880566D01*
X165118418Y-103895417D01*
X165146673Y-103916569D01*
X165268599Y-104038495D01*
X165351907Y-104096828D01*
X165462165Y-104174032D01*
X165462167Y-104174033D01*
X165462170Y-104174035D01*
X165676337Y-104273903D01*
X165676343Y-104273904D01*
X165676344Y-104273905D01*
X165731285Y-104288626D01*
X165904592Y-104335063D01*
X166081034Y-104350500D01*
X166139999Y-104355659D01*
X166140000Y-104355659D01*
X166140001Y-104355659D01*
X166198966Y-104350500D01*
X166375408Y-104335063D01*
X166603663Y-104273903D01*
X166817830Y-104174035D01*
X167011401Y-104038495D01*
X167178495Y-103871401D01*
X167308425Y-103685842D01*
X167363002Y-103642217D01*
X167432500Y-103635023D01*
X167494855Y-103666546D01*
X167511575Y-103685842D01*
X167641500Y-103871395D01*
X167641505Y-103871401D01*
X167808599Y-104038495D01*
X167891907Y-104096828D01*
X168002165Y-104174032D01*
X168002167Y-104174033D01*
X168002170Y-104174035D01*
X168216337Y-104273903D01*
X168216343Y-104273904D01*
X168216344Y-104273905D01*
X168271285Y-104288626D01*
X168444592Y-104335063D01*
X168621034Y-104350500D01*
X168679999Y-104355659D01*
X168680000Y-104355659D01*
X168680001Y-104355659D01*
X168738966Y-104350500D01*
X168915408Y-104335063D01*
X169143663Y-104273903D01*
X169357830Y-104174035D01*
X169551401Y-104038495D01*
X169718495Y-103871401D01*
X169848730Y-103685405D01*
X169903307Y-103641781D01*
X169972805Y-103634587D01*
X170035160Y-103666110D01*
X170051879Y-103685405D01*
X170181890Y-103871078D01*
X170348917Y-104038105D01*
X170542421Y-104173600D01*
X170756507Y-104273429D01*
X170756516Y-104273433D01*
X170970000Y-104330634D01*
X170970000Y-103435501D01*
X171077685Y-103484680D01*
X171184237Y-103500000D01*
X171255763Y-103500000D01*
X171362315Y-103484680D01*
X171470000Y-103435501D01*
X171470000Y-104330633D01*
X171683483Y-104273433D01*
X171683487Y-104273431D01*
X171715123Y-104258679D01*
X171784201Y-104248186D01*
X171847985Y-104276704D01*
X171886226Y-104335179D01*
X171886782Y-104405047D01*
X171849477Y-104464124D01*
X171831279Y-104477419D01*
X171696720Y-104558070D01*
X171692993Y-104560133D01*
X171538470Y-104638868D01*
X171378542Y-104714507D01*
X171374251Y-104716343D01*
X171211888Y-104778669D01*
X171046157Y-104837968D01*
X171041315Y-104839480D01*
X170872216Y-104884791D01*
X170702941Y-104927192D01*
X170697572Y-104928287D01*
X170521682Y-104956145D01*
X170352438Y-104981250D01*
X170346582Y-104981836D01*
X170152438Y-104992011D01*
X170001513Y-104999425D01*
X169998470Y-104999500D01*
X134501530Y-104999500D01*
X134498488Y-104999425D01*
X134347561Y-104992011D01*
X134153416Y-104981836D01*
X134147560Y-104981250D01*
X133978317Y-104956145D01*
X133802426Y-104928287D01*
X133797057Y-104927192D01*
X133627783Y-104884791D01*
X133458683Y-104839480D01*
X133453841Y-104837968D01*
X133288111Y-104778669D01*
X133125747Y-104716343D01*
X133121456Y-104714507D01*
X132961529Y-104638868D01*
X132807006Y-104560133D01*
X132803278Y-104558070D01*
X132651028Y-104466816D01*
X132505740Y-104372465D01*
X132502584Y-104370274D01*
X132428082Y-104315019D01*
X132359657Y-104264271D01*
X132225027Y-104155250D01*
X132222408Y-104153005D01*
X132096069Y-104038498D01*
X132091476Y-104034335D01*
X132089278Y-104032242D01*
X131967756Y-103910720D01*
X131965657Y-103908516D01*
X131959884Y-103902147D01*
X131846991Y-103777588D01*
X131844758Y-103774983D01*
X131765882Y-103677579D01*
X131735728Y-103640342D01*
X131713717Y-103610664D01*
X131629716Y-103497402D01*
X131627533Y-103494258D01*
X131612666Y-103471365D01*
X131533180Y-103348965D01*
X131441928Y-103196720D01*
X131439864Y-103192992D01*
X131361131Y-103038470D01*
X131285491Y-102878543D01*
X131283665Y-102874274D01*
X131221330Y-102711888D01*
X131162025Y-102546141D01*
X131160518Y-102541315D01*
X131115208Y-102372216D01*
X131072800Y-102202912D01*
X131071718Y-102197607D01*
X131043854Y-102021682D01*
X131018745Y-101852409D01*
X131018164Y-101846607D01*
X131007989Y-101652438D01*
X131002630Y-101543360D01*
X131000575Y-101501513D01*
X131000500Y-101498471D01*
X131000500Y-73847844D01*
X140850000Y-73847844D01*
X140856401Y-73907372D01*
X140856403Y-73907379D01*
X140906645Y-74042086D01*
X140906647Y-74042088D01*
X140991289Y-74155157D01*
X140991290Y-74155157D01*
X141746447Y-73400000D01*
X141746447Y-73399999D01*
X140991289Y-72644841D01*
X140991288Y-72644842D01*
X140906646Y-72757910D01*
X140906645Y-72757913D01*
X140856403Y-72892620D01*
X140856401Y-72892627D01*
X140850000Y-72952155D01*
X140850000Y-73847844D01*
X131000500Y-73847844D01*
X131000500Y-72500000D01*
X141553554Y-72500000D01*
X142100000Y-73046447D01*
X143208709Y-74155157D01*
X143208710Y-74155156D01*
X143293350Y-74042093D01*
X143343597Y-73907376D01*
X143343598Y-73907372D01*
X143349999Y-73847844D01*
X143350000Y-73847827D01*
X143350000Y-73674499D01*
X143369685Y-73607460D01*
X143422489Y-73561705D01*
X143473996Y-73550499D01*
X144226000Y-73550499D01*
X144293039Y-73570184D01*
X144338794Y-73622988D01*
X144350000Y-73674499D01*
X144350000Y-73847844D01*
X144356401Y-73907372D01*
X144356403Y-73907379D01*
X144406645Y-74042086D01*
X144406647Y-74042088D01*
X144491289Y-74155157D01*
X145246446Y-73400001D01*
X145953553Y-73400001D01*
X146708709Y-74155157D01*
X146708710Y-74155156D01*
X146793350Y-74042093D01*
X146843597Y-73907376D01*
X146843598Y-73907372D01*
X146849999Y-73847844D01*
X148600000Y-73847844D01*
X148606401Y-73907372D01*
X148606403Y-73907379D01*
X148656645Y-74042086D01*
X148656647Y-74042088D01*
X148741289Y-74155157D01*
X148741290Y-74155157D01*
X149496447Y-73400000D01*
X149496447Y-73399999D01*
X148741289Y-72644841D01*
X148741288Y-72644842D01*
X148656646Y-72757910D01*
X148656645Y-72757913D01*
X148606403Y-72892620D01*
X148606401Y-72892627D01*
X148600000Y-72952155D01*
X148600000Y-73847844D01*
X146849999Y-73847844D01*
X146850000Y-73847827D01*
X146850000Y-72952172D01*
X146849999Y-72952155D01*
X146843598Y-72892627D01*
X146843596Y-72892620D01*
X146793354Y-72757913D01*
X146793353Y-72757911D01*
X146708709Y-72644841D01*
X145953553Y-73399999D01*
X145953553Y-73400001D01*
X145246446Y-73400001D01*
X145600000Y-73046447D01*
X146146446Y-72500000D01*
X144951626Y-72500000D01*
X144884587Y-72480315D01*
X144838832Y-72427511D01*
X144835444Y-72419333D01*
X144793797Y-72307671D01*
X144793793Y-72307664D01*
X144707547Y-72192455D01*
X144707544Y-72192452D01*
X144592335Y-72106206D01*
X144592328Y-72106202D01*
X144457482Y-72055908D01*
X144457483Y-72055908D01*
X144397883Y-72049501D01*
X144397881Y-72049500D01*
X144397873Y-72049500D01*
X144397864Y-72049500D01*
X143302129Y-72049500D01*
X143302123Y-72049501D01*
X143242516Y-72055908D01*
X143107671Y-72106202D01*
X143107664Y-72106206D01*
X142992455Y-72192452D01*
X142992452Y-72192455D01*
X142906206Y-72307664D01*
X142906202Y-72307671D01*
X142864556Y-72419333D01*
X142822685Y-72475267D01*
X142757221Y-72499684D01*
X142748374Y-72500000D01*
X141553554Y-72500000D01*
X131000500Y-72500000D01*
X131000500Y-65501528D01*
X131000575Y-65498486D01*
X131003058Y-65447916D01*
X131007995Y-65347421D01*
X131018164Y-65153388D01*
X131018744Y-65147594D01*
X131043858Y-64978287D01*
X131071717Y-64802396D01*
X131072801Y-64797083D01*
X131115210Y-64627776D01*
X131160529Y-64458644D01*
X131162013Y-64453891D01*
X131221338Y-64288089D01*
X131283668Y-64125717D01*
X131285492Y-64121455D01*
X131361145Y-63961499D01*
X131439877Y-63806982D01*
X131441915Y-63803299D01*
X131533192Y-63651013D01*
X131627560Y-63505701D01*
X131629724Y-63502586D01*
X131735718Y-63359670D01*
X131844785Y-63224983D01*
X131846970Y-63222434D01*
X131965703Y-63091433D01*
X131967717Y-63089318D01*
X132089318Y-62967717D01*
X132091433Y-62965703D01*
X132222434Y-62846970D01*
X132224983Y-62844785D01*
X132359656Y-62735728D01*
X132502586Y-62629724D01*
X132505701Y-62627560D01*
X132651013Y-62533192D01*
X132803299Y-62441915D01*
X132806982Y-62439877D01*
X132961499Y-62361145D01*
X133121462Y-62285488D01*
X133125717Y-62283668D01*
X133288089Y-62221338D01*
X133453891Y-62162013D01*
X133458644Y-62160529D01*
X133627776Y-62115210D01*
X133797083Y-62072801D01*
X133802396Y-62071717D01*
X133978287Y-62043858D01*
X134147594Y-62018744D01*
X134153388Y-62018164D01*
X134347421Y-62007995D01*
X134445332Y-62003185D01*
X134498487Y-62000575D01*
X134501529Y-62000500D01*
X134551479Y-62000500D01*
X134551804Y-62000462D01*
X137975062Y-61998041D01*
X137994016Y-62003592D01*
X138000019Y-62000437D01*
X138024356Y-61998006D01*
X160035750Y-61982438D01*
X160102803Y-62002075D01*
X160148595Y-62054847D01*
X160158587Y-62123998D01*
X160156517Y-62134940D01*
X160155909Y-62137514D01*
X160149501Y-62197116D01*
X160149501Y-62197123D01*
X160149500Y-62197135D01*
X160149500Y-63092870D01*
X160149501Y-63092876D01*
X160155908Y-63152483D01*
X160206202Y-63287328D01*
X160206206Y-63287335D01*
X160292452Y-63402544D01*
X160292455Y-63402547D01*
X160407664Y-63488793D01*
X160407671Y-63488797D01*
X160542517Y-63539091D01*
X160542516Y-63539091D01*
X160549444Y-63539835D01*
X160602127Y-63545500D01*
X161697872Y-63545499D01*
X161757483Y-63539091D01*
X161892331Y-63488796D01*
X162007546Y-63402546D01*
X162093796Y-63287331D01*
X162144091Y-63152483D01*
X162150500Y-63092873D01*
X162150499Y-62197128D01*
X162144091Y-62137517D01*
X162144090Y-62137513D01*
X162143114Y-62133380D01*
X162143291Y-62130074D01*
X162143262Y-62129804D01*
X162143305Y-62129799D01*
X162146853Y-62063611D01*
X162187719Y-62006938D01*
X162252737Y-61981357D01*
X162263693Y-61980863D01*
X167336993Y-61977275D01*
X167404047Y-61996912D01*
X167449839Y-62049684D01*
X167459831Y-62118835D01*
X167457062Y-62129815D01*
X167457693Y-62129965D01*
X167455908Y-62137516D01*
X167449501Y-62197116D01*
X167449501Y-62197123D01*
X167449500Y-62197135D01*
X167449500Y-63092870D01*
X167449501Y-63092876D01*
X167455908Y-63152483D01*
X167506202Y-63287328D01*
X167506206Y-63287335D01*
X167592452Y-63402544D01*
X167592455Y-63402547D01*
X167707664Y-63488793D01*
X167707671Y-63488797D01*
X167842517Y-63539091D01*
X167842516Y-63539091D01*
X167849444Y-63539835D01*
X167902127Y-63545500D01*
X168997872Y-63545499D01*
X169057483Y-63539091D01*
X169192331Y-63488796D01*
X169307546Y-63402546D01*
X169393796Y-63287331D01*
X169444091Y-63152483D01*
X169450500Y-63092873D01*
X169450499Y-62197128D01*
X169444091Y-62137517D01*
X169444090Y-62137513D01*
X169444090Y-62137512D01*
X169442308Y-62129969D01*
X169445171Y-62129292D01*
X169441157Y-62073375D01*
X169474625Y-62012042D01*
X169535939Y-61978541D01*
X169562234Y-61975700D01*
X170023579Y-61975375D01*
X170026663Y-61975450D01*
G37*
%TD.AperFunction*%
%TA.AperFunction,Conductor*%
G36*
X171082839Y-76045185D02*
G01*
X171117374Y-76078376D01*
X171161505Y-76141401D01*
X171328597Y-76308493D01*
X171328603Y-76308498D01*
X171514158Y-76438425D01*
X171557783Y-76493002D01*
X171564977Y-76562500D01*
X171533454Y-76624855D01*
X171514158Y-76641575D01*
X171328597Y-76771505D01*
X171161505Y-76938597D01*
X171025965Y-77132169D01*
X171025964Y-77132171D01*
X170926098Y-77346335D01*
X170926094Y-77346344D01*
X170864938Y-77574586D01*
X170864936Y-77574596D01*
X170844341Y-77809999D01*
X170844341Y-77810000D01*
X170864936Y-78045403D01*
X170864938Y-78045413D01*
X170926094Y-78273655D01*
X170926096Y-78273659D01*
X170926097Y-78273663D01*
X171024247Y-78484146D01*
X171025965Y-78487830D01*
X171025967Y-78487834D01*
X171123615Y-78627288D01*
X171153072Y-78669358D01*
X171161501Y-78681395D01*
X171161506Y-78681402D01*
X171328597Y-78848493D01*
X171328603Y-78848498D01*
X171349460Y-78863102D01*
X171508101Y-78974184D01*
X171514594Y-78978730D01*
X171558219Y-79033307D01*
X171565413Y-79102805D01*
X171533890Y-79165160D01*
X171514595Y-79181880D01*
X171328922Y-79311890D01*
X171328920Y-79311891D01*
X171161891Y-79478920D01*
X171161886Y-79478926D01*
X171026400Y-79672420D01*
X171026399Y-79672422D01*
X170926570Y-79886507D01*
X170926567Y-79886513D01*
X170869364Y-80099999D01*
X170869364Y-80100000D01*
X171766314Y-80100000D01*
X171740507Y-80140156D01*
X171700000Y-80278111D01*
X171700000Y-80421889D01*
X171740507Y-80559844D01*
X171766314Y-80600000D01*
X170869364Y-80600000D01*
X170926567Y-80813486D01*
X170926570Y-80813492D01*
X171026399Y-81027578D01*
X171161894Y-81221082D01*
X171328917Y-81388105D01*
X171522421Y-81523600D01*
X171736507Y-81623429D01*
X171736516Y-81623433D01*
X171950000Y-81680634D01*
X171950000Y-80785501D01*
X172057685Y-80834680D01*
X172164237Y-80850000D01*
X172235763Y-80850000D01*
X172342315Y-80834680D01*
X172450000Y-80785501D01*
X172450000Y-81680633D01*
X172663483Y-81623433D01*
X172663492Y-81623429D01*
X172877578Y-81523600D01*
X173071082Y-81388105D01*
X173238105Y-81221082D01*
X173288068Y-81149729D01*
X173342645Y-81106105D01*
X173412144Y-81098912D01*
X173474498Y-81130434D01*
X173509912Y-81190664D01*
X173513643Y-81220939D01*
X173499500Y-101498498D01*
X173499425Y-101501497D01*
X173492011Y-101652438D01*
X173481836Y-101846582D01*
X173481250Y-101852438D01*
X173456145Y-102021682D01*
X173428287Y-102197572D01*
X173427192Y-102202941D01*
X173384791Y-102372216D01*
X173339480Y-102541315D01*
X173337968Y-102546157D01*
X173278669Y-102711888D01*
X173216343Y-102874251D01*
X173214507Y-102878542D01*
X173138868Y-103038470D01*
X173060133Y-103192992D01*
X173058070Y-103196720D01*
X172966816Y-103348971D01*
X172872465Y-103494258D01*
X172870266Y-103497425D01*
X172764271Y-103640342D01*
X172655249Y-103774971D01*
X172653005Y-103777591D01*
X172534341Y-103908516D01*
X172532242Y-103910720D01*
X172527444Y-103915518D01*
X172466121Y-103949003D01*
X172396429Y-103944019D01*
X172340496Y-103902147D01*
X172316079Y-103836683D01*
X172330931Y-103768410D01*
X172338189Y-103756712D01*
X172393599Y-103677579D01*
X172493429Y-103463492D01*
X172493432Y-103463486D01*
X172550636Y-103250000D01*
X171653686Y-103250000D01*
X171679493Y-103209844D01*
X171720000Y-103071889D01*
X171720000Y-102928111D01*
X171679493Y-102790156D01*
X171653686Y-102750000D01*
X172550636Y-102750000D01*
X172550635Y-102749999D01*
X172493432Y-102536513D01*
X172493429Y-102536507D01*
X172393600Y-102322422D01*
X172393599Y-102322420D01*
X172258113Y-102128926D01*
X172258108Y-102128920D01*
X172091082Y-101961894D01*
X171897578Y-101826399D01*
X171683492Y-101726570D01*
X171683486Y-101726567D01*
X171470000Y-101669364D01*
X171470000Y-102564498D01*
X171362315Y-102515320D01*
X171255763Y-102500000D01*
X171184237Y-102500000D01*
X171077685Y-102515320D01*
X170970000Y-102564498D01*
X170970000Y-101669364D01*
X170969999Y-101669364D01*
X170756513Y-101726567D01*
X170756507Y-101726570D01*
X170542422Y-101826399D01*
X170542420Y-101826400D01*
X170348926Y-101961886D01*
X170348920Y-101961891D01*
X170181891Y-102128920D01*
X170181890Y-102128922D01*
X170051880Y-102314595D01*
X169997303Y-102358219D01*
X169927804Y-102365412D01*
X169865450Y-102333890D01*
X169848730Y-102314594D01*
X169718494Y-102128597D01*
X169551402Y-101961506D01*
X169551395Y-101961501D01*
X169357834Y-101825967D01*
X169357830Y-101825965D01*
X169315174Y-101806074D01*
X169143663Y-101726097D01*
X169143659Y-101726096D01*
X169143655Y-101726094D01*
X168915413Y-101664938D01*
X168915403Y-101664936D01*
X168680001Y-101644341D01*
X168679999Y-101644341D01*
X168444596Y-101664936D01*
X168444586Y-101664938D01*
X168216344Y-101726094D01*
X168216335Y-101726098D01*
X168002171Y-101825964D01*
X168002169Y-101825965D01*
X167808597Y-101961505D01*
X167641505Y-102128597D01*
X167511575Y-102314158D01*
X167456998Y-102357783D01*
X167387500Y-102364977D01*
X167325145Y-102333454D01*
X167308425Y-102314158D01*
X167178494Y-102128597D01*
X167011402Y-101961506D01*
X167011395Y-101961501D01*
X166817834Y-101825967D01*
X166817830Y-101825965D01*
X166775174Y-101806074D01*
X166603663Y-101726097D01*
X166603659Y-101726096D01*
X166603655Y-101726094D01*
X166375413Y-101664938D01*
X166375403Y-101664936D01*
X166140001Y-101644341D01*
X166139999Y-101644341D01*
X165904596Y-101664936D01*
X165904586Y-101664938D01*
X165676344Y-101726094D01*
X165676335Y-101726098D01*
X165462171Y-101825964D01*
X165462169Y-101825965D01*
X165268600Y-101961503D01*
X165146673Y-102083430D01*
X165085350Y-102116914D01*
X165015658Y-102111930D01*
X164959725Y-102070058D01*
X164942810Y-102039081D01*
X164893797Y-101907671D01*
X164893793Y-101907664D01*
X164807547Y-101792455D01*
X164807544Y-101792452D01*
X164692335Y-101706206D01*
X164692328Y-101706202D01*
X164557482Y-101655908D01*
X164557483Y-101655908D01*
X164497883Y-101649501D01*
X164497881Y-101649500D01*
X164497873Y-101649500D01*
X164497864Y-101649500D01*
X162702129Y-101649500D01*
X162702123Y-101649501D01*
X162642516Y-101655908D01*
X162516590Y-101702876D01*
X162446898Y-101707860D01*
X162385575Y-101674375D01*
X162352091Y-101613051D01*
X162357076Y-101543360D01*
X162385576Y-101499013D01*
X162401562Y-101483027D01*
X164383788Y-99500801D01*
X164396042Y-99490986D01*
X164395859Y-99490764D01*
X164401866Y-99485792D01*
X164401877Y-99485786D01*
X164432775Y-99452882D01*
X164449227Y-99435364D01*
X164459671Y-99424918D01*
X164470120Y-99414471D01*
X164474379Y-99408978D01*
X164478152Y-99404561D01*
X164510062Y-99370582D01*
X164519713Y-99353024D01*
X164530396Y-99336761D01*
X164542673Y-99320936D01*
X164561185Y-99278153D01*
X164563738Y-99272941D01*
X164586197Y-99232092D01*
X164591180Y-99212680D01*
X164597481Y-99194280D01*
X164605437Y-99175896D01*
X164612729Y-99129852D01*
X164613906Y-99124171D01*
X164625500Y-99079019D01*
X164625500Y-99058983D01*
X164627027Y-99039582D01*
X164630160Y-99019804D01*
X164625775Y-98973415D01*
X164625500Y-98967577D01*
X164625500Y-92772757D01*
X164645185Y-92705718D01*
X164697989Y-92659963D01*
X164767147Y-92650019D01*
X164830703Y-92679044D01*
X164848768Y-92698447D01*
X164855314Y-92707191D01*
X164970406Y-92793350D01*
X164970415Y-92793355D01*
X165020331Y-92811972D01*
X165076265Y-92853842D01*
X165100683Y-92919306D01*
X165097041Y-92959235D01*
X165094254Y-92970000D01*
X165896389Y-92970000D01*
X165856890Y-92994457D01*
X165789299Y-93083962D01*
X165758605Y-93191840D01*
X165768954Y-93303521D01*
X165818948Y-93403922D01*
X165891431Y-93470000D01*
X165089134Y-93470000D01*
X165089431Y-93471946D01*
X165089433Y-93471952D01*
X165160062Y-93662657D01*
X165160065Y-93662664D01*
X165267649Y-93835267D01*
X165407764Y-93982668D01*
X165407766Y-93982669D01*
X165574695Y-94098856D01*
X165761592Y-94179059D01*
X165960810Y-94220000D01*
X166362500Y-94220000D01*
X166362500Y-93520000D01*
X166862500Y-93520000D01*
X166862500Y-94220000D01*
X167213213Y-94220000D01*
X167364838Y-94204581D01*
X167558881Y-94143700D01*
X167558891Y-94143695D01*
X167736715Y-94044994D01*
X167736716Y-94044994D01*
X167895803Y-93908424D01*
X167896677Y-93909442D01*
X167951069Y-93877921D01*
X168020865Y-93881132D01*
X168077845Y-93921567D01*
X168103919Y-93986390D01*
X168104500Y-93998378D01*
X168104500Y-95025500D01*
X168084815Y-95092539D01*
X168032011Y-95138294D01*
X167980500Y-95149500D01*
X167632130Y-95149500D01*
X167632123Y-95149501D01*
X167572520Y-95155908D01*
X167564974Y-95157692D01*
X167564628Y-95156230D01*
X167503622Y-95160584D01*
X167488600Y-95156172D01*
X167487482Y-95155908D01*
X167427882Y-95149501D01*
X167427873Y-95149500D01*
X167427863Y-95149500D01*
X166692129Y-95149500D01*
X166692123Y-95149501D01*
X166632516Y-95155908D01*
X166497671Y-95206202D01*
X166497664Y-95206206D01*
X166382455Y-95292452D01*
X166382452Y-95292455D01*
X166296206Y-95407664D01*
X166296202Y-95407671D01*
X166245908Y-95542517D01*
X166244422Y-95556344D01*
X166239501Y-95602123D01*
X166239500Y-95602135D01*
X166239500Y-96397870D01*
X166239501Y-96397876D01*
X166245908Y-96457483D01*
X166296202Y-96592328D01*
X166296203Y-96592330D01*
X166321176Y-96625690D01*
X166345592Y-96691155D01*
X166330740Y-96759428D01*
X166321176Y-96774310D01*
X166296203Y-96807669D01*
X166296202Y-96807671D01*
X166245908Y-96942517D01*
X166239501Y-97002116D01*
X166239500Y-97002135D01*
X166239500Y-97797870D01*
X166239501Y-97797876D01*
X166245908Y-97857483D01*
X166296202Y-97992328D01*
X166296206Y-97992335D01*
X166382452Y-98107544D01*
X166382455Y-98107547D01*
X166497664Y-98193793D01*
X166497671Y-98193797D01*
X166542618Y-98210561D01*
X166632517Y-98244091D01*
X166692127Y-98250500D01*
X167427872Y-98250499D01*
X167487483Y-98244091D01*
X167487485Y-98244090D01*
X167487487Y-98244090D01*
X167495031Y-98242308D01*
X167495377Y-98243775D01*
X167556342Y-98239408D01*
X167571378Y-98243822D01*
X167572511Y-98244089D01*
X167572517Y-98244091D01*
X167632127Y-98250500D01*
X168227872Y-98250499D01*
X168287483Y-98244091D01*
X168287489Y-98244088D01*
X168295025Y-98242308D01*
X168295321Y-98243561D01*
X168357063Y-98239142D01*
X168370655Y-98243132D01*
X168372627Y-98243598D01*
X168432155Y-98249999D01*
X168432172Y-98250000D01*
X168480000Y-98250000D01*
X168480000Y-98212694D01*
X168499685Y-98145655D01*
X168529690Y-98113426D01*
X168537546Y-98107546D01*
X168623796Y-97992331D01*
X168674091Y-97857483D01*
X168680500Y-97797873D01*
X168680500Y-97650000D01*
X168980000Y-97650000D01*
X168980000Y-98250000D01*
X169027828Y-98250000D01*
X169027844Y-98249999D01*
X169087377Y-98243597D01*
X169094933Y-98241813D01*
X169095272Y-98243250D01*
X169156342Y-98238874D01*
X169171633Y-98243364D01*
X169172622Y-98243597D01*
X169232155Y-98249999D01*
X169232172Y-98250000D01*
X169350000Y-98250000D01*
X169350000Y-97650000D01*
X169850000Y-97650000D01*
X169850000Y-98250000D01*
X169967828Y-98250000D01*
X169967844Y-98249999D01*
X170027372Y-98243598D01*
X170027379Y-98243596D01*
X170162086Y-98193354D01*
X170162093Y-98193350D01*
X170277187Y-98107190D01*
X170277190Y-98107187D01*
X170363350Y-97992093D01*
X170363354Y-97992086D01*
X170413596Y-97857379D01*
X170413598Y-97857372D01*
X170419999Y-97797844D01*
X170420000Y-97797827D01*
X170420000Y-97650000D01*
X169850000Y-97650000D01*
X169350000Y-97650000D01*
X168980000Y-97650000D01*
X168680500Y-97650000D01*
X168680499Y-97273998D01*
X168700183Y-97206961D01*
X168752987Y-97161206D01*
X168804499Y-97150000D01*
X170420000Y-97150000D01*
X170420000Y-97002172D01*
X170419999Y-97002155D01*
X170413598Y-96942627D01*
X170413596Y-96942620D01*
X170363354Y-96807913D01*
X170363352Y-96807910D01*
X170338512Y-96774728D01*
X170314094Y-96709264D01*
X170328945Y-96640990D01*
X170338505Y-96626114D01*
X170363796Y-96592331D01*
X170414091Y-96457483D01*
X170420500Y-96397873D01*
X170420499Y-95602128D01*
X170414091Y-95542517D01*
X170386254Y-95467883D01*
X170363797Y-95407671D01*
X170363793Y-95407664D01*
X170277548Y-95292457D01*
X170277546Y-95292454D01*
X170277542Y-95292451D01*
X170217777Y-95247710D01*
X170175907Y-95191776D01*
X170168089Y-95148444D01*
X170168089Y-94344000D01*
X170187774Y-94276961D01*
X170240578Y-94231206D01*
X170292089Y-94220000D01*
X170512500Y-94220000D01*
X170512500Y-93520000D01*
X171012500Y-93520000D01*
X171012500Y-94220000D01*
X171213213Y-94220000D01*
X171364838Y-94204581D01*
X171558881Y-94143700D01*
X171558891Y-94143695D01*
X171736715Y-94044994D01*
X171736716Y-94044994D01*
X171891030Y-93912521D01*
X171891031Y-93912520D01*
X172015518Y-93751695D01*
X172105088Y-93569093D01*
X172130746Y-93470000D01*
X171328611Y-93470000D01*
X171368110Y-93445543D01*
X171435701Y-93356038D01*
X171466395Y-93248160D01*
X171456046Y-93136479D01*
X171406052Y-93036078D01*
X171333569Y-92970000D01*
X172135866Y-92970000D01*
X172135568Y-92968053D01*
X172135566Y-92968047D01*
X172064937Y-92777342D01*
X172064934Y-92777335D01*
X171957350Y-92604732D01*
X171817235Y-92457331D01*
X171817233Y-92457330D01*
X171650304Y-92341143D01*
X171463407Y-92260940D01*
X171264190Y-92220000D01*
X171012500Y-92220000D01*
X171012500Y-92920000D01*
X170512500Y-92920000D01*
X170512500Y-92220000D01*
X170311777Y-92220000D01*
X170304628Y-92220727D01*
X170235942Y-92207923D01*
X170185082Y-92160016D01*
X170168089Y-92097363D01*
X170168089Y-89425331D01*
X170169813Y-89409711D01*
X170169528Y-89409685D01*
X170170260Y-89401929D01*
X170170262Y-89401922D01*
X170168089Y-89332774D01*
X170168089Y-89303239D01*
X170167220Y-89296361D01*
X170166761Y-89290532D01*
X170165298Y-89243961D01*
X170159711Y-89224733D01*
X170155763Y-89205673D01*
X170155730Y-89205409D01*
X170153253Y-89185797D01*
X170153252Y-89185795D01*
X170153252Y-89185793D01*
X170136101Y-89142476D01*
X170134208Y-89136947D01*
X170121207Y-89092198D01*
X170121205Y-89092195D01*
X170111012Y-89074960D01*
X170102450Y-89057483D01*
X170095076Y-89038859D01*
X170095075Y-89038857D01*
X170067668Y-89001134D01*
X170064477Y-88996275D01*
X170040761Y-88956172D01*
X170040754Y-88956163D01*
X170026595Y-88942004D01*
X170013957Y-88927208D01*
X170006852Y-88917429D01*
X170002183Y-88911002D01*
X169997901Y-88907460D01*
X169966277Y-88881298D01*
X169961965Y-88877375D01*
X168496772Y-87412181D01*
X168463287Y-87350858D01*
X168468271Y-87281166D01*
X168510143Y-87225233D01*
X168575607Y-87200816D01*
X168584453Y-87200500D01*
X168594644Y-87200500D01*
X168594646Y-87200500D01*
X168779803Y-87161144D01*
X168952730Y-87084151D01*
X169105871Y-86972888D01*
X169232533Y-86832216D01*
X169327179Y-86668284D01*
X169385674Y-86488256D01*
X169405460Y-86300000D01*
X169385674Y-86111744D01*
X169327179Y-85931716D01*
X169232533Y-85767784D01*
X169105871Y-85627112D01*
X169102403Y-85624592D01*
X168952734Y-85515851D01*
X168952729Y-85515848D01*
X168779807Y-85438857D01*
X168779803Y-85438856D01*
X168723718Y-85426934D01*
X168662236Y-85393741D01*
X168628460Y-85332577D01*
X168625500Y-85305644D01*
X168625500Y-84830000D01*
X169389134Y-84830000D01*
X169389431Y-84831946D01*
X169389433Y-84831952D01*
X169460062Y-85022657D01*
X169460065Y-85022664D01*
X169567649Y-85195267D01*
X169707764Y-85342668D01*
X169707766Y-85342669D01*
X169874695Y-85458856D01*
X170061592Y-85539059D01*
X170260810Y-85580000D01*
X170512500Y-85580000D01*
X170512500Y-84880000D01*
X171012500Y-84880000D01*
X171012500Y-85580000D01*
X171213213Y-85580000D01*
X171364838Y-85564581D01*
X171558881Y-85503700D01*
X171558891Y-85503695D01*
X171736715Y-85404994D01*
X171736716Y-85404994D01*
X171891030Y-85272521D01*
X171891031Y-85272520D01*
X172015518Y-85111695D01*
X172105088Y-84929093D01*
X172130746Y-84830000D01*
X171328611Y-84830000D01*
X171368110Y-84805543D01*
X171435701Y-84716038D01*
X171466395Y-84608160D01*
X171456046Y-84496479D01*
X171406052Y-84396078D01*
X171333569Y-84330000D01*
X172135866Y-84330000D01*
X172135568Y-84328053D01*
X172135566Y-84328047D01*
X172064937Y-84137342D01*
X172064934Y-84137335D01*
X171957350Y-83964732D01*
X171817235Y-83817331D01*
X171817233Y-83817330D01*
X171650304Y-83701143D01*
X171463407Y-83620940D01*
X171264190Y-83580000D01*
X171012500Y-83580000D01*
X171012500Y-84280000D01*
X170512500Y-84280000D01*
X170512500Y-83580000D01*
X170311787Y-83580000D01*
X170160161Y-83595418D01*
X169966118Y-83656299D01*
X169966108Y-83656304D01*
X169788284Y-83755005D01*
X169788283Y-83755005D01*
X169633969Y-83887478D01*
X169633968Y-83887479D01*
X169509481Y-84048304D01*
X169419911Y-84230906D01*
X169394254Y-84330000D01*
X170196389Y-84330000D01*
X170156890Y-84354457D01*
X170089299Y-84443962D01*
X170058605Y-84551840D01*
X170068954Y-84663521D01*
X170118948Y-84763922D01*
X170191431Y-84830000D01*
X169389134Y-84830000D01*
X168625500Y-84830000D01*
X168625500Y-77084878D01*
X168627224Y-77069264D01*
X168626938Y-77069237D01*
X168627672Y-77061474D01*
X168625500Y-76992343D01*
X168625500Y-76962791D01*
X168625500Y-76962790D01*
X168624629Y-76955899D01*
X168624172Y-76950085D01*
X168623375Y-76924727D01*
X168622709Y-76903513D01*
X168622692Y-76903456D01*
X168617122Y-76884284D01*
X168613174Y-76865224D01*
X168611138Y-76849104D01*
X168610664Y-76845348D01*
X168593507Y-76802015D01*
X168591619Y-76796499D01*
X168578619Y-76751752D01*
X168577877Y-76750498D01*
X168568418Y-76734503D01*
X168559860Y-76717034D01*
X168552486Y-76698408D01*
X168552483Y-76698404D01*
X168552483Y-76698403D01*
X168525098Y-76660711D01*
X168521890Y-76655827D01*
X168498172Y-76615722D01*
X168498163Y-76615711D01*
X168484005Y-76601553D01*
X168471370Y-76586760D01*
X168459593Y-76570552D01*
X168423693Y-76540853D01*
X168419381Y-76536930D01*
X168203090Y-76320639D01*
X168169605Y-76259316D01*
X168174589Y-76189624D01*
X168198621Y-76149986D01*
X168206351Y-76141401D01*
X168273767Y-76066527D01*
X168333254Y-76029879D01*
X168365917Y-76025500D01*
X171015800Y-76025500D01*
X171082839Y-76045185D01*
G37*
%TD.AperFunction*%
%TA.AperFunction,Conductor*%
G36*
X160111148Y-92806077D02*
G01*
X160145981Y-92830571D01*
X160688181Y-93372771D01*
X160721666Y-93434094D01*
X160724500Y-93460452D01*
X160724500Y-95345145D01*
X160704815Y-95412184D01*
X160652011Y-95457939D01*
X160582853Y-95467883D01*
X160535406Y-95450685D01*
X160519131Y-95440647D01*
X160519119Y-95440641D01*
X160352697Y-95385494D01*
X160352690Y-95385493D01*
X160249986Y-95375000D01*
X160200000Y-95375000D01*
X160200000Y-97824999D01*
X160249972Y-97824999D01*
X160249986Y-97824998D01*
X160352697Y-97814505D01*
X160519119Y-97759358D01*
X160519126Y-97759355D01*
X160535402Y-97749316D01*
X160602794Y-97730875D01*
X160669458Y-97751797D01*
X160714228Y-97805438D01*
X160724500Y-97854854D01*
X160724500Y-97993963D01*
X160704815Y-98061002D01*
X160688181Y-98081644D01*
X160231644Y-98538181D01*
X160170321Y-98571666D01*
X160143963Y-98574500D01*
X158809451Y-98574500D01*
X158742412Y-98554815D01*
X158696657Y-98502011D01*
X158686713Y-98432853D01*
X158715738Y-98369297D01*
X158721759Y-98362830D01*
X159285001Y-97799587D01*
X159346320Y-97766105D01*
X159411682Y-97769565D01*
X159547302Y-97814505D01*
X159547309Y-97814506D01*
X159650019Y-97824999D01*
X159699999Y-97824998D01*
X159700000Y-97824998D01*
X159700000Y-97359025D01*
X159708709Y-97313374D01*
X159711193Y-97307098D01*
X159711197Y-97307092D01*
X159716180Y-97287680D01*
X159722477Y-97269291D01*
X159730438Y-97250895D01*
X159737729Y-97204853D01*
X159738908Y-97199162D01*
X159750500Y-97154019D01*
X159750500Y-97133983D01*
X159752027Y-97114582D01*
X159755160Y-97094804D01*
X159750775Y-97048415D01*
X159750500Y-97042577D01*
X159750500Y-92924500D01*
X159770185Y-92857461D01*
X159822989Y-92811706D01*
X159874500Y-92800500D01*
X160002714Y-92800500D01*
X160002720Y-92800500D01*
X160042113Y-92795313D01*
X160111148Y-92806077D01*
G37*
%TD.AperFunction*%
%TA.AperFunction,Conductor*%
G36*
X147793039Y-89750185D02*
G01*
X147838794Y-89802989D01*
X147850000Y-89854500D01*
X147850000Y-90056000D01*
X147830315Y-90123039D01*
X147777511Y-90168794D01*
X147726000Y-90180000D01*
X146375001Y-90180000D01*
X146375001Y-90229986D01*
X146385494Y-90332697D01*
X146440641Y-90499119D01*
X146440643Y-90499124D01*
X146532684Y-90648345D01*
X146656655Y-90772316D01*
X146656659Y-90772319D01*
X146659656Y-90774168D01*
X146661279Y-90775972D01*
X146662323Y-90776798D01*
X146662181Y-90776976D01*
X146706381Y-90826116D01*
X146717602Y-90895079D01*
X146689759Y-90959161D01*
X146659661Y-90985241D01*
X146656349Y-90987283D01*
X146656343Y-90987288D01*
X146532289Y-91111342D01*
X146440187Y-91260663D01*
X146440186Y-91260666D01*
X146385001Y-91427203D01*
X146385001Y-91427204D01*
X146385000Y-91427204D01*
X146374500Y-91529983D01*
X146374500Y-92130001D01*
X146374501Y-92130019D01*
X146385000Y-92232796D01*
X146385001Y-92232799D01*
X146440185Y-92399331D01*
X146440187Y-92399336D01*
X146463237Y-92436706D01*
X146532288Y-92548656D01*
X146656344Y-92672712D01*
X146805666Y-92764814D01*
X146972203Y-92819999D01*
X147074991Y-92830500D01*
X148125008Y-92830499D01*
X148125016Y-92830498D01*
X148125019Y-92830498D01*
X148181302Y-92824748D01*
X148227797Y-92819999D01*
X148394334Y-92764814D01*
X148543656Y-92672712D01*
X148667712Y-92548656D01*
X148690727Y-92511341D01*
X148742674Y-92464617D01*
X148778320Y-92455938D01*
X148778002Y-92453931D01*
X148785703Y-92452710D01*
X148785705Y-92452709D01*
X148785713Y-92452709D01*
X148804955Y-92447117D01*
X148823998Y-92443174D01*
X148843878Y-92440664D01*
X148887208Y-92423507D01*
X148892732Y-92421617D01*
X148896482Y-92420527D01*
X148937476Y-92408618D01*
X148954715Y-92398422D01*
X148972189Y-92389862D01*
X148990813Y-92382488D01*
X148990813Y-92382487D01*
X148990818Y-92382486D01*
X149028535Y-92355082D01*
X149033391Y-92351892D01*
X149073506Y-92328170D01*
X149087675Y-92313999D01*
X149102465Y-92301368D01*
X149118673Y-92289594D01*
X149148385Y-92253676D01*
X149152298Y-92249376D01*
X149538071Y-91863604D01*
X149599393Y-91830120D01*
X149669085Y-91835104D01*
X149725018Y-91876976D01*
X149749435Y-91942440D01*
X149748690Y-91967471D01*
X149739501Y-92037269D01*
X149739500Y-92037286D01*
X149739500Y-92262727D01*
X149750934Y-92349570D01*
X149754313Y-92375236D01*
X149755713Y-92378617D01*
X149755809Y-92378847D01*
X149756162Y-92382138D01*
X149756417Y-92383087D01*
X149756268Y-92383126D01*
X149763276Y-92448317D01*
X149732000Y-92510795D01*
X149728928Y-92513979D01*
X149104728Y-93138181D01*
X149043405Y-93171666D01*
X149017047Y-93174500D01*
X145086956Y-93174500D01*
X145019917Y-93154815D01*
X144974162Y-93102011D01*
X144964218Y-93032853D01*
X144993243Y-92969297D01*
X145047952Y-92932794D01*
X145194119Y-92884358D01*
X145194124Y-92884356D01*
X145343345Y-92792315D01*
X145467315Y-92668345D01*
X145559356Y-92519124D01*
X145559358Y-92519119D01*
X145614505Y-92352697D01*
X145614506Y-92352690D01*
X145624999Y-92249986D01*
X145625000Y-92249973D01*
X145625000Y-92200000D01*
X144274000Y-92200000D01*
X144206961Y-92180315D01*
X144161206Y-92127511D01*
X144150000Y-92076000D01*
X144150000Y-91824000D01*
X144169685Y-91756961D01*
X144222489Y-91711206D01*
X144274000Y-91700000D01*
X145624999Y-91700000D01*
X145624999Y-91650028D01*
X145624998Y-91650013D01*
X145614505Y-91547302D01*
X145559358Y-91380880D01*
X145559356Y-91380875D01*
X145467315Y-91231654D01*
X145343344Y-91107683D01*
X145343341Y-91107681D01*
X145340339Y-91105829D01*
X145338713Y-91104021D01*
X145337677Y-91103202D01*
X145337817Y-91103024D01*
X145293617Y-91053880D01*
X145282397Y-90984917D01*
X145310243Y-90920836D01*
X145340344Y-90894754D01*
X145343656Y-90892712D01*
X145467712Y-90768656D01*
X145559814Y-90619334D01*
X145614999Y-90452797D01*
X145625500Y-90350009D01*
X145625499Y-89854499D01*
X145645183Y-89787461D01*
X145697987Y-89741706D01*
X145749499Y-89730500D01*
X147726000Y-89730500D01*
X147793039Y-89750185D01*
G37*
%TD.AperFunction*%
%TA.AperFunction,Conductor*%
G36*
X154694311Y-88173955D02*
G01*
X154735692Y-88180509D01*
X154739101Y-88181049D01*
X154744821Y-88182233D01*
X154789963Y-88193824D01*
X154809998Y-88193824D01*
X154829396Y-88195350D01*
X154849176Y-88198483D01*
X154849177Y-88198484D01*
X154849177Y-88198483D01*
X154849178Y-88198484D01*
X154895566Y-88194099D01*
X154901404Y-88193824D01*
X156297115Y-88193824D01*
X156364154Y-88213509D01*
X156409909Y-88266313D01*
X156416191Y-88283229D01*
X156421380Y-88301091D01*
X156431580Y-88318338D01*
X156440138Y-88335807D01*
X156447514Y-88354436D01*
X156474898Y-88392127D01*
X156478106Y-88397011D01*
X156501827Y-88437120D01*
X156501833Y-88437128D01*
X156515990Y-88451284D01*
X156528628Y-88466080D01*
X156540405Y-88482290D01*
X156540406Y-88482291D01*
X156576309Y-88511992D01*
X156580620Y-88515914D01*
X156908131Y-88843425D01*
X157228181Y-89163475D01*
X157261666Y-89224798D01*
X157264500Y-89251156D01*
X157264500Y-89801312D01*
X157244815Y-89868351D01*
X157232650Y-89884284D01*
X157157466Y-89967784D01*
X157062821Y-90131715D01*
X157062818Y-90131722D01*
X157004327Y-90311740D01*
X157004326Y-90311744D01*
X156984540Y-90500000D01*
X157004326Y-90688256D01*
X157004327Y-90688259D01*
X157062818Y-90868277D01*
X157062821Y-90868284D01*
X157157467Y-91032216D01*
X157176974Y-91053880D01*
X157232650Y-91115715D01*
X157262880Y-91178706D01*
X157264500Y-91198687D01*
X157264500Y-92217708D01*
X157244815Y-92284747D01*
X157192011Y-92330502D01*
X157122853Y-92340446D01*
X157121077Y-92340082D01*
X157002727Y-92324500D01*
X157002720Y-92324500D01*
X156777280Y-92324500D01*
X156777272Y-92324500D01*
X156690393Y-92335938D01*
X156664764Y-92339313D01*
X156664762Y-92339313D01*
X156656708Y-92340374D01*
X156656316Y-92337399D01*
X156623684Y-92337399D01*
X156623292Y-92340374D01*
X156615237Y-92339313D01*
X156615236Y-92339313D01*
X156586271Y-92335499D01*
X156502727Y-92324500D01*
X156502720Y-92324500D01*
X156277280Y-92324500D01*
X156277272Y-92324500D01*
X156190393Y-92335938D01*
X156164764Y-92339313D01*
X156164762Y-92339313D01*
X156156708Y-92340374D01*
X156156316Y-92337399D01*
X156123684Y-92337399D01*
X156123292Y-92340374D01*
X156115237Y-92339313D01*
X156115236Y-92339313D01*
X156086271Y-92335499D01*
X156002727Y-92324500D01*
X156002720Y-92324500D01*
X155777280Y-92324500D01*
X155777272Y-92324500D01*
X155690393Y-92335938D01*
X155664764Y-92339313D01*
X155664762Y-92339313D01*
X155656708Y-92340374D01*
X155656316Y-92337399D01*
X155623684Y-92337399D01*
X155623292Y-92340374D01*
X155615237Y-92339313D01*
X155615236Y-92339313D01*
X155586271Y-92335499D01*
X155502727Y-92324500D01*
X155502720Y-92324500D01*
X155277280Y-92324500D01*
X155277272Y-92324500D01*
X155190393Y-92335938D01*
X155164764Y-92339313D01*
X155164762Y-92339313D01*
X155156708Y-92340374D01*
X155156316Y-92337399D01*
X155123684Y-92337399D01*
X155123292Y-92340374D01*
X155115237Y-92339313D01*
X155115236Y-92339313D01*
X155086271Y-92335499D01*
X155002727Y-92324500D01*
X155002720Y-92324500D01*
X154777280Y-92324500D01*
X154777272Y-92324500D01*
X154690393Y-92335938D01*
X154664764Y-92339313D01*
X154664762Y-92339313D01*
X154656708Y-92340374D01*
X154656316Y-92337399D01*
X154623684Y-92337399D01*
X154623292Y-92340374D01*
X154615237Y-92339313D01*
X154615236Y-92339313D01*
X154586271Y-92335499D01*
X154502727Y-92324500D01*
X154502720Y-92324500D01*
X154277280Y-92324500D01*
X154277272Y-92324500D01*
X154190393Y-92335938D01*
X154164764Y-92339313D01*
X154164762Y-92339313D01*
X154156708Y-92340374D01*
X154156316Y-92337399D01*
X154123684Y-92337399D01*
X154123292Y-92340374D01*
X154115237Y-92339313D01*
X154115236Y-92339313D01*
X154086271Y-92335499D01*
X154002727Y-92324500D01*
X154002720Y-92324500D01*
X153777280Y-92324500D01*
X153777272Y-92324500D01*
X153690393Y-92335938D01*
X153664764Y-92339313D01*
X153664762Y-92339313D01*
X153656708Y-92340374D01*
X153656316Y-92337399D01*
X153623684Y-92337399D01*
X153623292Y-92340374D01*
X153615237Y-92339313D01*
X153615236Y-92339313D01*
X153586271Y-92335499D01*
X153502727Y-92324500D01*
X153502720Y-92324500D01*
X153391229Y-92324500D01*
X153324190Y-92304815D01*
X153278435Y-92252011D01*
X153268491Y-92182853D01*
X153297516Y-92119297D01*
X153306346Y-92110107D01*
X153306887Y-92109596D01*
X153306892Y-92109594D01*
X153336604Y-92073676D01*
X153340517Y-92069376D01*
X154308787Y-91101107D01*
X154321042Y-91091291D01*
X154320859Y-91091069D01*
X154326866Y-91086097D01*
X154326877Y-91086091D01*
X154360300Y-91050499D01*
X154374227Y-91035669D01*
X154384671Y-91025223D01*
X154395120Y-91014776D01*
X154399379Y-91009283D01*
X154403152Y-91004866D01*
X154435062Y-90970887D01*
X154444715Y-90953325D01*
X154455389Y-90937075D01*
X154467673Y-90921241D01*
X154486180Y-90878472D01*
X154488749Y-90873229D01*
X154500458Y-90851930D01*
X154511197Y-90832397D01*
X154516177Y-90812996D01*
X154522478Y-90794593D01*
X154530438Y-90776201D01*
X154537730Y-90730154D01*
X154538911Y-90724457D01*
X154542201Y-90711644D01*
X154550500Y-90679324D01*
X154550500Y-90659288D01*
X154552027Y-90639887D01*
X154555160Y-90620109D01*
X154550775Y-90573720D01*
X154550500Y-90567882D01*
X154550500Y-88377056D01*
X154552224Y-88361436D01*
X154551939Y-88361409D01*
X154552671Y-88353654D01*
X154552673Y-88353647D01*
X154550997Y-88300324D01*
X154568566Y-88232703D01*
X154619907Y-88185312D01*
X154688719Y-88173200D01*
X154694311Y-88173955D01*
G37*
%TD.AperFunction*%
%TA.AperFunction,Conductor*%
G36*
X163863755Y-89345185D02*
G01*
X163884397Y-89361819D01*
X164572088Y-90049510D01*
X164582159Y-90062080D01*
X164582346Y-90061926D01*
X164587320Y-90067937D01*
X164587322Y-90067940D01*
X164602976Y-90082640D01*
X164639767Y-90117190D01*
X164661489Y-90138911D01*
X164663994Y-90140854D01*
X164704904Y-90197494D01*
X164712000Y-90238837D01*
X164712000Y-90322869D01*
X164712001Y-90322879D01*
X164718867Y-90386751D01*
X164718867Y-90413257D01*
X164718409Y-90417516D01*
X164718409Y-90417517D01*
X164712000Y-90477127D01*
X164712000Y-90477132D01*
X164712000Y-90477133D01*
X164712000Y-90822869D01*
X164712001Y-90822876D01*
X164718408Y-90882482D01*
X164718763Y-90883981D01*
X164718763Y-90885777D01*
X164719238Y-90890196D01*
X164718763Y-90890247D01*
X164718764Y-90934754D01*
X164719238Y-90934805D01*
X164718764Y-90939204D01*
X164718765Y-90941009D01*
X164718408Y-90942516D01*
X164712001Y-91002116D01*
X164712000Y-91002135D01*
X164712000Y-91597869D01*
X164712001Y-91597876D01*
X164718409Y-91657487D01*
X164720192Y-91665031D01*
X164718938Y-91665327D01*
X164723356Y-91727069D01*
X164719364Y-91740664D01*
X164718902Y-91742621D01*
X164718191Y-91749235D01*
X164691448Y-91813784D01*
X164634052Y-91853628D01*
X164564227Y-91856117D01*
X164504141Y-91820460D01*
X164498969Y-91814377D01*
X164484005Y-91799413D01*
X164471370Y-91784620D01*
X164459593Y-91768412D01*
X164423693Y-91738713D01*
X164419381Y-91734790D01*
X162221772Y-89537181D01*
X162188287Y-89475858D01*
X162193271Y-89406166D01*
X162235143Y-89350233D01*
X162300607Y-89325816D01*
X162309453Y-89325500D01*
X163796716Y-89325500D01*
X163863755Y-89345185D01*
G37*
%TD.AperFunction*%
%TA.AperFunction,Conductor*%
G36*
X148952877Y-90348255D02*
G01*
X148990680Y-90365087D01*
X149017334Y-90376954D01*
X149070571Y-90422204D01*
X149090892Y-90489053D01*
X149071847Y-90556277D01*
X149054580Y-90577914D01*
X148907481Y-90725014D01*
X148846158Y-90758499D01*
X148776466Y-90753515D01*
X148720532Y-90711644D01*
X148696115Y-90646179D01*
X148710967Y-90577906D01*
X148714261Y-90572236D01*
X148759353Y-90499130D01*
X148759356Y-90499122D01*
X148784735Y-90422533D01*
X148824507Y-90365087D01*
X148889023Y-90338263D01*
X148952877Y-90348255D01*
G37*
%TD.AperFunction*%
%TA.AperFunction,Conductor*%
G36*
X157983997Y-87653104D02*
G01*
X158039931Y-87694975D01*
X158063710Y-87758729D01*
X158063970Y-87758695D01*
X158064118Y-87759824D01*
X158064348Y-87760439D01*
X158064398Y-87761170D01*
X158064499Y-87762716D01*
X158064500Y-87762720D01*
X158074523Y-87838856D01*
X158080374Y-87883292D01*
X158077399Y-87883683D01*
X158077399Y-87916318D01*
X158080374Y-87916710D01*
X158079313Y-87924762D01*
X158079313Y-87924764D01*
X158077566Y-87938032D01*
X158074828Y-87958828D01*
X158046560Y-88022724D01*
X157988234Y-88061194D01*
X157918369Y-88062024D01*
X157864208Y-88030321D01*
X157771919Y-87938032D01*
X157738434Y-87876709D01*
X157743418Y-87807017D01*
X157771916Y-87762672D01*
X157852986Y-87681602D01*
X157914305Y-87648120D01*
X157983997Y-87653104D01*
G37*
%TD.AperFunction*%
%TA.AperFunction,Conductor*%
G36*
X145686188Y-86483312D02*
G01*
X145694413Y-86490830D01*
X146042604Y-86839021D01*
X146384625Y-87181042D01*
X146418110Y-87242365D01*
X146414650Y-87307727D01*
X146385001Y-87397201D01*
X146374500Y-87499983D01*
X146374500Y-87499991D01*
X146374500Y-87761170D01*
X146374501Y-87900500D01*
X146354817Y-87967539D01*
X146302013Y-88013294D01*
X146250501Y-88024500D01*
X145749500Y-88024500D01*
X145682461Y-88004815D01*
X145636706Y-87952011D01*
X145625500Y-87900500D01*
X145625499Y-87449998D01*
X145625498Y-87449980D01*
X145614999Y-87347203D01*
X145614998Y-87347200D01*
X145601918Y-87307727D01*
X145559814Y-87180666D01*
X145467712Y-87031344D01*
X145343656Y-86907288D01*
X145340342Y-86905243D01*
X145338546Y-86903248D01*
X145337989Y-86902807D01*
X145338064Y-86902711D01*
X145293618Y-86853297D01*
X145282397Y-86784334D01*
X145310240Y-86720252D01*
X145340348Y-86694165D01*
X145343342Y-86692318D01*
X145467317Y-86568343D01*
X145501196Y-86513417D01*
X145553144Y-86466692D01*
X145622106Y-86455469D01*
X145686188Y-86483312D01*
G37*
%TD.AperFunction*%
%TA.AperFunction,Conductor*%
G36*
X166305701Y-76190547D02*
G01*
X166322479Y-76208261D01*
X166325759Y-76212489D01*
X166339920Y-76226650D01*
X166352558Y-76241446D01*
X166364335Y-76257656D01*
X166364336Y-76257657D01*
X166400239Y-76287358D01*
X166404550Y-76291280D01*
X166882988Y-76769718D01*
X167338181Y-77224911D01*
X167371666Y-77286234D01*
X167374500Y-77312592D01*
X167374500Y-83456000D01*
X167354815Y-83523039D01*
X167302011Y-83568794D01*
X167250500Y-83580000D01*
X166862500Y-83580000D01*
X166862500Y-84280000D01*
X166362500Y-84280000D01*
X166362500Y-83580000D01*
X166011787Y-83580000D01*
X165860161Y-83595418D01*
X165666118Y-83656299D01*
X165666108Y-83656304D01*
X165488284Y-83755005D01*
X165488283Y-83755005D01*
X165333969Y-83887478D01*
X165333968Y-83887479D01*
X165209481Y-84048304D01*
X165119911Y-84230906D01*
X165094254Y-84330000D01*
X165896389Y-84330000D01*
X165856890Y-84354457D01*
X165789299Y-84443962D01*
X165758605Y-84551840D01*
X165768954Y-84663521D01*
X165818948Y-84763922D01*
X165891431Y-84830000D01*
X165089134Y-84830000D01*
X165089431Y-84831946D01*
X165091008Y-84838034D01*
X165089422Y-84838444D01*
X165093694Y-84900120D01*
X165060071Y-84961368D01*
X165015922Y-84989671D01*
X164970415Y-85006644D01*
X164970406Y-85006649D01*
X164855312Y-85092809D01*
X164855309Y-85092812D01*
X164769149Y-85207906D01*
X164769145Y-85207913D01*
X164718903Y-85342620D01*
X164718901Y-85342627D01*
X164712500Y-85402155D01*
X164712500Y-85450000D01*
X165913500Y-85450000D01*
X165980539Y-85469685D01*
X166026294Y-85522489D01*
X166037500Y-85574000D01*
X166037500Y-85623955D01*
X166017815Y-85690994D01*
X165965011Y-85736749D01*
X165921288Y-85747710D01*
X165911748Y-85748310D01*
X165894766Y-85749378D01*
X165890896Y-85749500D01*
X165164629Y-85749500D01*
X165164623Y-85749501D01*
X165105016Y-85755908D01*
X164970171Y-85806202D01*
X164970164Y-85806206D01*
X164854956Y-85892451D01*
X164854954Y-85892454D01*
X164849071Y-85900312D01*
X164793139Y-85942182D01*
X164749806Y-85950000D01*
X164712500Y-85950000D01*
X164712500Y-85997844D01*
X164718901Y-86057372D01*
X164720687Y-86064930D01*
X164719042Y-86065318D01*
X164723351Y-86125656D01*
X164718443Y-86142371D01*
X164718408Y-86142520D01*
X164712001Y-86202116D01*
X164712000Y-86202135D01*
X164712000Y-86797869D01*
X164712001Y-86797876D01*
X164718408Y-86857482D01*
X164718763Y-86858981D01*
X164718763Y-86860777D01*
X164719238Y-86865196D01*
X164718763Y-86865247D01*
X164718764Y-86909754D01*
X164719238Y-86909805D01*
X164718764Y-86914205D01*
X164718765Y-86916009D01*
X164718408Y-86917516D01*
X164712001Y-86977117D01*
X164712000Y-86977136D01*
X164712000Y-87322869D01*
X164712001Y-87322879D01*
X164713546Y-87337248D01*
X164701139Y-87406007D01*
X164653527Y-87457143D01*
X164590256Y-87474500D01*
X162435328Y-87474500D01*
X162368289Y-87454815D01*
X162322534Y-87402011D01*
X162312590Y-87332853D01*
X162341615Y-87269297D01*
X162400393Y-87231523D01*
X162400733Y-87231424D01*
X162405041Y-87230171D01*
X162410390Y-87228618D01*
X162427629Y-87218422D01*
X162445103Y-87209862D01*
X162463729Y-87202487D01*
X162463728Y-87202487D01*
X162463732Y-87202486D01*
X162501435Y-87175091D01*
X162506304Y-87171893D01*
X162513287Y-87167763D01*
X162576403Y-87150499D01*
X162925002Y-87150499D01*
X162925008Y-87150499D01*
X163027797Y-87139999D01*
X163194334Y-87084814D01*
X163343656Y-86992712D01*
X163467712Y-86868656D01*
X163559814Y-86719334D01*
X163614999Y-86552797D01*
X163625500Y-86450009D01*
X163625499Y-85860451D01*
X163645183Y-85793413D01*
X163661813Y-85772776D01*
X164283788Y-85150801D01*
X164296042Y-85140986D01*
X164295859Y-85140764D01*
X164301866Y-85135792D01*
X164301877Y-85135786D01*
X164342698Y-85092316D01*
X164349227Y-85085364D01*
X164359671Y-85074918D01*
X164370120Y-85064471D01*
X164374379Y-85058978D01*
X164378152Y-85054561D01*
X164410062Y-85020582D01*
X164419713Y-85003024D01*
X164430396Y-84986761D01*
X164442673Y-84970936D01*
X164461185Y-84928153D01*
X164463738Y-84922941D01*
X164486197Y-84882092D01*
X164491180Y-84862680D01*
X164497481Y-84844280D01*
X164505437Y-84825896D01*
X164512729Y-84779852D01*
X164513906Y-84774171D01*
X164525500Y-84729019D01*
X164525500Y-84708983D01*
X164527027Y-84689582D01*
X164527600Y-84685965D01*
X164530160Y-84669804D01*
X164525775Y-84623415D01*
X164525500Y-84617577D01*
X164525500Y-81994377D01*
X164545185Y-81927338D01*
X164584406Y-81888837D01*
X164618654Y-81867713D01*
X164618653Y-81867713D01*
X164618656Y-81867712D01*
X164742712Y-81743656D01*
X164834814Y-81594334D01*
X164889999Y-81427797D01*
X164900500Y-81325009D01*
X164900499Y-80274992D01*
X164895303Y-80224130D01*
X164889999Y-80172203D01*
X164889998Y-80172200D01*
X164888407Y-80167398D01*
X164834814Y-80005666D01*
X164742712Y-79856344D01*
X164618656Y-79732288D01*
X164486056Y-79650500D01*
X164469336Y-79640187D01*
X164469331Y-79640185D01*
X164403268Y-79618294D01*
X164302797Y-79585001D01*
X164302795Y-79585000D01*
X164200016Y-79574500D01*
X164200009Y-79574500D01*
X164024500Y-79574500D01*
X163957461Y-79554815D01*
X163911706Y-79502011D01*
X163900500Y-79450500D01*
X163900500Y-79374000D01*
X163920185Y-79306961D01*
X163972989Y-79261206D01*
X164024500Y-79250000D01*
X164350000Y-79250000D01*
X164350000Y-78250000D01*
X164850000Y-78250000D01*
X164850000Y-79250000D01*
X165647828Y-79250000D01*
X165647844Y-79249999D01*
X165707372Y-79243598D01*
X165707379Y-79243596D01*
X165842086Y-79193354D01*
X165842093Y-79193350D01*
X165957187Y-79107190D01*
X165957190Y-79107187D01*
X166043350Y-78992093D01*
X166043354Y-78992086D01*
X166093596Y-78857379D01*
X166093598Y-78857372D01*
X166099999Y-78797844D01*
X166100000Y-78797827D01*
X166100000Y-78250000D01*
X164850000Y-78250000D01*
X164350000Y-78250000D01*
X164350000Y-77874000D01*
X164369685Y-77806961D01*
X164422489Y-77761206D01*
X164474000Y-77750000D01*
X166100000Y-77750000D01*
X166100000Y-77202172D01*
X166099999Y-77202155D01*
X166093598Y-77142627D01*
X166093596Y-77142620D01*
X166043354Y-77007913D01*
X166043352Y-77007910D01*
X165981082Y-76924727D01*
X165956665Y-76859262D01*
X165971517Y-76790989D01*
X165981083Y-76776104D01*
X166043796Y-76692331D01*
X166094091Y-76557483D01*
X166100500Y-76497873D01*
X166100499Y-76284258D01*
X166120183Y-76217221D01*
X166172987Y-76171466D01*
X166242145Y-76161522D01*
X166305701Y-76190547D01*
G37*
%TD.AperFunction*%
%TA.AperFunction,Conductor*%
G36*
X148856587Y-82645185D02*
G01*
X148877229Y-82661819D01*
X150000834Y-83785424D01*
X150034319Y-83846747D01*
X150037153Y-83873105D01*
X150037153Y-84163965D01*
X150017468Y-84231004D01*
X150005303Y-84246937D01*
X149930119Y-84330437D01*
X149835474Y-84494368D01*
X149835471Y-84494375D01*
X149780513Y-84663521D01*
X149776979Y-84674397D01*
X149757193Y-84862653D01*
X149776979Y-85050909D01*
X149776980Y-85050912D01*
X149835471Y-85230930D01*
X149835474Y-85230937D01*
X149930120Y-85394869D01*
X150032492Y-85508564D01*
X150056782Y-85535541D01*
X150209918Y-85646801D01*
X150209923Y-85646804D01*
X150382845Y-85723795D01*
X150382850Y-85723797D01*
X150525934Y-85754210D01*
X150587416Y-85787402D01*
X150621192Y-85848565D01*
X150616540Y-85918280D01*
X150574936Y-85974412D01*
X150509588Y-85999141D01*
X150500153Y-85999500D01*
X150277272Y-85999500D01*
X150164764Y-86014313D01*
X150164763Y-86014313D01*
X150024770Y-86072300D01*
X150024767Y-86072301D01*
X150024767Y-86072302D01*
X149904549Y-86164549D01*
X149827452Y-86265024D01*
X149812300Y-86284770D01*
X149754313Y-86424763D01*
X149754313Y-86424764D01*
X149739500Y-86537272D01*
X149739500Y-86762727D01*
X149748649Y-86832214D01*
X149752409Y-86860777D01*
X149755374Y-86883292D01*
X149752399Y-86883683D01*
X149752399Y-86916316D01*
X149755374Y-86916708D01*
X149744703Y-86997756D01*
X149716436Y-87061653D01*
X149658111Y-87100123D01*
X149588246Y-87100954D01*
X149529614Y-87064542D01*
X149405870Y-86927111D01*
X149252734Y-86815851D01*
X149252729Y-86815848D01*
X149079807Y-86738857D01*
X149079802Y-86738855D01*
X148934001Y-86707865D01*
X148894646Y-86699500D01*
X148839434Y-86699500D01*
X148772395Y-86679815D01*
X148726640Y-86627011D01*
X148716696Y-86557853D01*
X148733896Y-86510403D01*
X148759353Y-86469130D01*
X148759358Y-86469119D01*
X148814505Y-86302697D01*
X148814506Y-86302690D01*
X148824999Y-86199986D01*
X148825000Y-86199973D01*
X148825000Y-86150000D01*
X147474000Y-86150000D01*
X147406961Y-86130315D01*
X147361206Y-86077511D01*
X147350000Y-86026000D01*
X147350000Y-84900000D01*
X147850000Y-84900000D01*
X147850000Y-85650000D01*
X148824999Y-85650000D01*
X148824999Y-85600028D01*
X148824998Y-85600013D01*
X148814505Y-85497302D01*
X148759358Y-85330880D01*
X148759356Y-85330875D01*
X148667315Y-85181654D01*
X148543345Y-85057684D01*
X148394124Y-84965643D01*
X148394119Y-84965641D01*
X148227697Y-84910494D01*
X148227690Y-84910493D01*
X148124986Y-84900000D01*
X147850000Y-84900000D01*
X147350000Y-84900000D01*
X147075029Y-84900000D01*
X147075012Y-84900001D01*
X146972302Y-84910494D01*
X146805880Y-84965641D01*
X146805866Y-84965648D01*
X146764595Y-84991104D01*
X146697203Y-85009544D01*
X146630540Y-84988621D01*
X146585771Y-84934978D01*
X146575500Y-84885565D01*
X146575500Y-82874499D01*
X146595185Y-82807460D01*
X146647989Y-82761705D01*
X146699500Y-82750499D01*
X147247871Y-82750499D01*
X147247872Y-82750499D01*
X147307483Y-82744091D01*
X147442331Y-82693796D01*
X147500524Y-82650233D01*
X147565989Y-82625816D01*
X147574835Y-82625500D01*
X148789548Y-82625500D01*
X148856587Y-82645185D01*
G37*
%TD.AperFunction*%
%TA.AperFunction,Conductor*%
G36*
X144292204Y-82645185D02*
G01*
X144299476Y-82650233D01*
X144357668Y-82693795D01*
X144357671Y-82693797D01*
X144380960Y-82702483D01*
X144492517Y-82744091D01*
X144552127Y-82750500D01*
X145200500Y-82750499D01*
X145267539Y-82770183D01*
X145313294Y-82822987D01*
X145324500Y-82874499D01*
X145324500Y-84787125D01*
X145304815Y-84854164D01*
X145252011Y-84899919D01*
X145182853Y-84909863D01*
X145161496Y-84904831D01*
X145027697Y-84860494D01*
X145027690Y-84860493D01*
X144924986Y-84850000D01*
X144650000Y-84850000D01*
X144650000Y-85976000D01*
X144630315Y-86043039D01*
X144577511Y-86088794D01*
X144526000Y-86100000D01*
X143670723Y-86100000D01*
X143610991Y-86084665D01*
X143603032Y-86080290D01*
X143586763Y-86069604D01*
X143581238Y-86065318D01*
X143570936Y-86057327D01*
X143570935Y-86057326D01*
X143570933Y-86057325D01*
X143528168Y-86038818D01*
X143522922Y-86036248D01*
X143482093Y-86013803D01*
X143482092Y-86013802D01*
X143462693Y-86008822D01*
X143444281Y-86002518D01*
X143425898Y-85994562D01*
X143425892Y-85994560D01*
X143379874Y-85987272D01*
X143374152Y-85986087D01*
X143329021Y-85974500D01*
X143329019Y-85974500D01*
X143308984Y-85974500D01*
X143289586Y-85972973D01*
X143282162Y-85971797D01*
X143269805Y-85969840D01*
X143269804Y-85969840D01*
X143223416Y-85974225D01*
X143217578Y-85974500D01*
X142024499Y-85974500D01*
X141957460Y-85954815D01*
X141911705Y-85902011D01*
X141900499Y-85850500D01*
X141900499Y-85600000D01*
X143175000Y-85600000D01*
X144150000Y-85600000D01*
X144150000Y-84850000D01*
X143875029Y-84850000D01*
X143875012Y-84850001D01*
X143772302Y-84860494D01*
X143605880Y-84915641D01*
X143605875Y-84915643D01*
X143456654Y-85007684D01*
X143332684Y-85131654D01*
X143240643Y-85280875D01*
X143240641Y-85280880D01*
X143185494Y-85447302D01*
X143185493Y-85447309D01*
X143175000Y-85550013D01*
X143175000Y-85600000D01*
X141900499Y-85600000D01*
X141900499Y-84802129D01*
X141900498Y-84802123D01*
X141898107Y-84779883D01*
X141894091Y-84742517D01*
X141890062Y-84731716D01*
X141843797Y-84607671D01*
X141843793Y-84607664D01*
X141757547Y-84492455D01*
X141757544Y-84492452D01*
X141642335Y-84406206D01*
X141642328Y-84406202D01*
X141507482Y-84355908D01*
X141507483Y-84355908D01*
X141447883Y-84349501D01*
X141447881Y-84349500D01*
X141447873Y-84349500D01*
X141447865Y-84349500D01*
X141174536Y-84349500D01*
X141107497Y-84329815D01*
X141061742Y-84277011D01*
X141051798Y-84207853D01*
X141080823Y-84144297D01*
X141109439Y-84119961D01*
X141233191Y-84043629D01*
X141356128Y-83920692D01*
X141356659Y-83919832D01*
X141357180Y-83919363D01*
X141360612Y-83915023D01*
X141361353Y-83915608D01*
X141408601Y-83873102D01*
X141477563Y-83861872D01*
X141541648Y-83889708D01*
X141563913Y-83915398D01*
X141563993Y-83915336D01*
X141565390Y-83917103D01*
X141567738Y-83919812D01*
X141568468Y-83920995D01*
X141568474Y-83921003D01*
X141691496Y-84044025D01*
X141691500Y-84044028D01*
X141839566Y-84135357D01*
X141839569Y-84135358D01*
X141839575Y-84135362D01*
X142004725Y-84190087D01*
X142106652Y-84200500D01*
X142106657Y-84200500D01*
X142693343Y-84200500D01*
X142693348Y-84200500D01*
X142795275Y-84190087D01*
X142960425Y-84135362D01*
X143108503Y-84044026D01*
X143231526Y-83921003D01*
X143322862Y-83772925D01*
X143377587Y-83607775D01*
X143388000Y-83505848D01*
X143388000Y-82947952D01*
X143407685Y-82880913D01*
X143424319Y-82860271D01*
X143622771Y-82661819D01*
X143684094Y-82628334D01*
X143710452Y-82625500D01*
X144225165Y-82625500D01*
X144292204Y-82645185D01*
G37*
%TD.AperFunction*%
%TA.AperFunction,Conductor*%
G36*
X162854306Y-76345185D02*
G01*
X162900061Y-76397989D01*
X162910005Y-76467147D01*
X162880980Y-76530703D01*
X162877658Y-76534385D01*
X162825772Y-76589636D01*
X162804889Y-76610519D01*
X162804877Y-76610532D01*
X162800621Y-76616017D01*
X162796837Y-76620447D01*
X162764937Y-76654418D01*
X162764936Y-76654420D01*
X162755284Y-76671976D01*
X162744610Y-76688226D01*
X162732329Y-76704061D01*
X162732324Y-76704068D01*
X162713815Y-76746838D01*
X162711245Y-76752084D01*
X162688803Y-76792906D01*
X162683822Y-76812307D01*
X162677521Y-76830710D01*
X162669562Y-76849102D01*
X162669561Y-76849105D01*
X162662271Y-76895127D01*
X162661087Y-76900846D01*
X162649501Y-76945972D01*
X162649500Y-76945982D01*
X162649500Y-76966016D01*
X162647973Y-76985415D01*
X162644840Y-77005194D01*
X162644840Y-77005195D01*
X162649225Y-77051583D01*
X162649500Y-77057421D01*
X162649500Y-79495556D01*
X162629815Y-79562595D01*
X162577011Y-79608350D01*
X162507853Y-79618294D01*
X162486497Y-79613262D01*
X162402701Y-79585495D01*
X162402690Y-79585493D01*
X162299986Y-79575000D01*
X162250000Y-79575000D01*
X162250000Y-82024999D01*
X162299972Y-82024999D01*
X162299986Y-82024998D01*
X162402697Y-82014505D01*
X162569119Y-81959358D01*
X162569124Y-81959356D01*
X162718345Y-81867315D01*
X162842318Y-81743342D01*
X162844165Y-81740348D01*
X162845969Y-81738724D01*
X162846798Y-81737677D01*
X162846976Y-81737818D01*
X162896110Y-81693621D01*
X162965073Y-81682396D01*
X163029156Y-81710236D01*
X163055243Y-81740341D01*
X163057288Y-81743656D01*
X163057289Y-81743657D01*
X163181345Y-81867713D01*
X163215594Y-81888837D01*
X163262320Y-81940784D01*
X163274500Y-81994377D01*
X163274500Y-83170556D01*
X163254815Y-83237595D01*
X163202011Y-83283350D01*
X163132853Y-83293294D01*
X163111497Y-83288262D01*
X163027701Y-83260495D01*
X163027690Y-83260493D01*
X162924986Y-83250000D01*
X162650000Y-83250000D01*
X162650000Y-84376000D01*
X162630315Y-84443039D01*
X162577511Y-84488794D01*
X162526000Y-84500000D01*
X161175001Y-84500000D01*
X161175001Y-84549986D01*
X161185494Y-84652697D01*
X161240641Y-84819119D01*
X161240643Y-84819124D01*
X161332684Y-84968345D01*
X161456655Y-85092316D01*
X161456659Y-85092319D01*
X161459656Y-85094168D01*
X161461279Y-85095972D01*
X161462323Y-85096798D01*
X161462181Y-85096976D01*
X161506381Y-85146116D01*
X161517602Y-85215079D01*
X161489759Y-85279161D01*
X161459661Y-85305241D01*
X161456349Y-85307283D01*
X161456343Y-85307288D01*
X161332289Y-85431342D01*
X161240187Y-85580663D01*
X161240185Y-85580668D01*
X161224795Y-85627112D01*
X161185001Y-85747203D01*
X161185001Y-85747204D01*
X161185000Y-85747204D01*
X161174500Y-85849983D01*
X161174500Y-85900500D01*
X161154815Y-85967539D01*
X161102011Y-86013294D01*
X161050500Y-86024500D01*
X160164495Y-86024500D01*
X160123128Y-86016271D01*
X160123090Y-86016417D01*
X160120873Y-86015823D01*
X160117042Y-86015061D01*
X160115237Y-86014313D01*
X160002727Y-85999500D01*
X160002720Y-85999500D01*
X159675599Y-85999500D01*
X159608560Y-85979815D01*
X159562805Y-85927011D01*
X159552861Y-85857853D01*
X159581886Y-85794297D01*
X159602713Y-85775183D01*
X159603954Y-85774280D01*
X159605871Y-85772888D01*
X159732533Y-85632216D01*
X159827179Y-85468284D01*
X159885674Y-85288256D01*
X159905460Y-85100000D01*
X159885674Y-84911744D01*
X159827179Y-84731716D01*
X159732533Y-84567784D01*
X159605871Y-84427112D01*
X159605870Y-84427111D01*
X159452734Y-84315851D01*
X159452729Y-84315848D01*
X159279807Y-84238857D01*
X159279802Y-84238855D01*
X159133944Y-84207853D01*
X159094646Y-84199500D01*
X158905354Y-84199500D01*
X158811990Y-84219344D01*
X158742324Y-84214028D01*
X158686591Y-84171890D01*
X158662486Y-84106310D01*
X158677663Y-84038109D01*
X158698526Y-84010377D01*
X158708903Y-84000000D01*
X161175000Y-84000000D01*
X162150000Y-84000000D01*
X162150000Y-83250000D01*
X161875029Y-83250000D01*
X161875012Y-83250001D01*
X161772302Y-83260494D01*
X161605880Y-83315641D01*
X161605875Y-83315643D01*
X161456654Y-83407684D01*
X161332684Y-83531654D01*
X161240643Y-83680875D01*
X161240641Y-83680880D01*
X161185494Y-83847302D01*
X161185493Y-83847309D01*
X161175000Y-83950013D01*
X161175000Y-84000000D01*
X158708903Y-84000000D01*
X159783788Y-82925115D01*
X159796042Y-82915300D01*
X159795859Y-82915078D01*
X159801866Y-82910106D01*
X159801877Y-82910100D01*
X159835308Y-82874499D01*
X159849227Y-82859678D01*
X159859671Y-82849232D01*
X159870120Y-82838785D01*
X159874379Y-82833292D01*
X159878152Y-82828875D01*
X159910062Y-82794896D01*
X159919713Y-82777338D01*
X159930396Y-82761075D01*
X159942673Y-82745250D01*
X159961185Y-82702467D01*
X159963738Y-82697255D01*
X159986197Y-82656406D01*
X159991180Y-82636994D01*
X159997481Y-82618594D01*
X160005437Y-82600210D01*
X160012729Y-82554166D01*
X160013906Y-82548485D01*
X160025500Y-82503333D01*
X160025500Y-82483297D01*
X160027027Y-82463896D01*
X160030160Y-82444118D01*
X160025775Y-82397729D01*
X160025500Y-82391891D01*
X160025500Y-81050000D01*
X161000001Y-81050000D01*
X161000001Y-81324986D01*
X161010494Y-81427697D01*
X161065641Y-81594119D01*
X161065643Y-81594124D01*
X161157684Y-81743345D01*
X161281654Y-81867315D01*
X161430875Y-81959356D01*
X161430880Y-81959358D01*
X161597302Y-82014505D01*
X161597309Y-82014506D01*
X161700019Y-82024999D01*
X161749999Y-82024998D01*
X161750000Y-82024998D01*
X161750000Y-81050000D01*
X161000001Y-81050000D01*
X160025500Y-81050000D01*
X160025500Y-80550000D01*
X161000000Y-80550000D01*
X161750000Y-80550000D01*
X161750000Y-79575000D01*
X161749999Y-79574999D01*
X161700029Y-79575000D01*
X161700011Y-79575001D01*
X161597302Y-79585494D01*
X161430880Y-79640641D01*
X161430875Y-79640643D01*
X161281654Y-79732684D01*
X161157684Y-79856654D01*
X161065643Y-80005875D01*
X161065641Y-80005880D01*
X161010494Y-80172302D01*
X161010493Y-80172309D01*
X161000000Y-80275013D01*
X161000000Y-80550000D01*
X160025500Y-80550000D01*
X160025500Y-79598687D01*
X160045185Y-79531648D01*
X160057350Y-79515715D01*
X160075891Y-79495122D01*
X160132533Y-79432216D01*
X160227179Y-79268284D01*
X160285674Y-79088256D01*
X160305460Y-78900000D01*
X160285674Y-78711744D01*
X160227179Y-78531716D01*
X160132533Y-78367784D01*
X160005871Y-78227112D01*
X159989170Y-78214978D01*
X159852734Y-78115851D01*
X159852732Y-78115850D01*
X159847512Y-78113526D01*
X159807300Y-78095622D01*
X159759405Y-78074297D01*
X159706169Y-78029046D01*
X159685848Y-77962197D01*
X159704894Y-77894973D01*
X159710566Y-77886719D01*
X159743796Y-77842331D01*
X159794091Y-77707483D01*
X159800500Y-77647873D01*
X159800500Y-76449500D01*
X159820185Y-76382461D01*
X159872989Y-76336706D01*
X159924500Y-76325500D01*
X162787267Y-76325500D01*
X162854306Y-76345185D01*
G37*
%TD.AperFunction*%
%TA.AperFunction,Conductor*%
G36*
X152707539Y-83045184D02*
G01*
X152753294Y-83097988D01*
X152764500Y-83149499D01*
X152764500Y-83892708D01*
X152744815Y-83959747D01*
X152692011Y-84005502D01*
X152622853Y-84015446D01*
X152621077Y-84015082D01*
X152508314Y-84000236D01*
X152444418Y-83971969D01*
X152405947Y-83913644D01*
X152400500Y-83877297D01*
X152400500Y-83149499D01*
X152420185Y-83082460D01*
X152472989Y-83036705D01*
X152524500Y-83025499D01*
X152640500Y-83025499D01*
X152707539Y-83045184D01*
G37*
%TD.AperFunction*%
%TA.AperFunction,Conductor*%
G36*
X154542539Y-78559685D02*
G01*
X154588294Y-78612489D01*
X154599500Y-78664000D01*
X154599500Y-81926000D01*
X154579815Y-81993039D01*
X154527011Y-82038794D01*
X154475500Y-82050000D01*
X154274000Y-82050000D01*
X154206961Y-82030315D01*
X154161206Y-81977511D01*
X154150000Y-81926000D01*
X154150000Y-80575000D01*
X154149999Y-80574999D01*
X154139502Y-80575000D01*
X154072462Y-80555317D01*
X154026706Y-80502513D01*
X154015500Y-80451000D01*
X154015500Y-80138999D01*
X154035185Y-80071960D01*
X154087989Y-80026205D01*
X154139498Y-80014999D01*
X154149999Y-80014998D01*
X154150000Y-80014998D01*
X154150000Y-78664000D01*
X154169685Y-78596961D01*
X154222489Y-78551206D01*
X154274000Y-78540000D01*
X154475500Y-78540000D01*
X154542539Y-78559685D01*
G37*
%TD.AperFunction*%
%TD*%
M02*
