M48
; DRILL file {KiCad 7.0.8} date Tue Feb 20 11:28:24 2024
; FORMAT={-:-/ absolute / inch / decimal}
; #@! TF.CreationDate,2024-02-20T11:28:24-06:00
; #@! TF.GenerationSoftware,Kicad,Pcbnew,7.0.8
; #@! TF.FileFunction,MixedPlating,1,2
FMAT,2
INCH
; #@! TA.AperFunction,Plated,PTH,ViaDrill
T1C0.0157
; #@! TA.AperFunction,Plated,PTH,ComponentDrill
T2C0.0236
; #@! TA.AperFunction,Plated,PTH,ComponentDrill
T3C0.0394
; #@! TA.AperFunction,NonPlated,NPTH,ComponentDrill
T4C0.0256
; #@! TA.AperFunction,NonPlated,NPTH,ComponentDrill
T5C0.0354
%
G90
G05
T1
X5.2756Y-2.8543
X5.315Y-2.6181
X5.4134Y-3.9961
X5.5315Y-2.7559
X5.5709Y-3.937
X5.748Y-3.4449
X5.748Y-3.5827
X5.8268Y-3.3071
X5.8465Y-3.189
X5.8583Y-3.4488
X5.8809Y-3.5256
X5.9055Y-3.1496
X5.9316Y-3.341
X5.9646Y-3.2087
X6.0039Y-3.2933
X6.0157Y-3.4921
X6.0315Y-3.5551
X6.063Y-3.4114
X6.063Y-3.622
X6.0827Y-3.1693
X6.109Y-3.419
X6.1398Y-3.2283
X6.1496Y-3.4173
X6.1811Y-3.622
X6.2161Y-3.563
X6.2193Y-3.4644
X6.2362Y-3.1024
X6.2598Y-3.3504
X6.2756Y-3.1063
X6.2992Y-3.8583
X6.2997Y-3.72
X6.3189Y-2.6378
X6.3346Y-3.4409
X6.3583Y-2.874
X6.3583Y-3.0709
X6.437Y-3.5433
X6.5472Y-2.9173
X6.5748Y-3.248
X6.5945Y-3.5748
X6.5964Y-2.9735
X6.6142Y-2.815
X6.6339Y-3.3976
X6.6535Y-2.6575
X6.6614Y-2.9094
X6.6924Y-3.1693
T3
X5.252Y-2.9803
X5.252Y-3.0803
X5.252Y-3.1803
X5.252Y-3.2803
X5.252Y-3.3803
X5.252Y-3.4803
X5.252Y-3.5803
X5.252Y-3.6803
X5.252Y-3.7803
X5.252Y-3.8803
X5.252Y-3.9803
X5.4331Y-2.5039
X5.5331Y-2.5039
X5.6331Y-2.5039
X5.6429Y-4.0551
X5.7331Y-2.5039
X5.7429Y-4.0551
X5.8331Y-2.5039
X5.8429Y-4.0551
X5.9331Y-2.5039
X5.9429Y-4.0551
X6.0331Y-2.5039
X6.0429Y-4.0551
X6.1429Y-4.0551
X6.2429Y-4.0551
X6.4409Y-4.0551
X6.5409Y-4.0551
X6.6409Y-4.0551
X6.7409Y-4.0551
X6.7795Y-2.6634
X6.7795Y-2.7634
X6.7795Y-2.8634
X6.7795Y-2.9634
X6.7795Y-3.0634
X6.7795Y-3.1634
T4
X6.5792Y-3.3862
X6.5792Y-3.6138
T5
X6.4291Y-2.5096
X6.5472Y-2.5096
T2
G00X6.5379Y-3.3299
M15
G01X6.5812Y-3.3299
M16
G05
G00X6.5379Y-3.6701
M15
G01X6.5812Y-3.6701
M16
G05
G00X6.7072Y-3.3299
M15
G01X6.7387Y-3.3299
M16
G05
G00X6.7072Y-3.6701
M15
G01X6.7387Y-3.6701
M16
G05
T0
M30
