%TF.GenerationSoftware,KiCad,Pcbnew,(6.0.11)*%
%TF.CreationDate,2023-02-12T12:57:38-06:00*%
%TF.ProjectId,DisplayMin,44697370-6c61-4794-9d69-6e2e6b696361,rev?*%
%TF.SameCoordinates,Original*%
%TF.FileFunction,Paste,Top*%
%TF.FilePolarity,Positive*%
%FSLAX46Y46*%
G04 Gerber Fmt 4.6, Leading zero omitted, Abs format (unit mm)*
G04 Created by KiCad (PCBNEW (6.0.11)) date 2023-02-12 12:57:38*
%MOMM*%
%LPD*%
G01*
G04 APERTURE LIST*
G04 Aperture macros list*
%AMRoundRect*
0 Rectangle with rounded corners*
0 $1 Rounding radius*
0 $2 $3 $4 $5 $6 $7 $8 $9 X,Y pos of 4 corners*
0 Add a 4 corners polygon primitive as box body*
4,1,4,$2,$3,$4,$5,$6,$7,$8,$9,$2,$3,0*
0 Add four circle primitives for the rounded corners*
1,1,$1+$1,$2,$3*
1,1,$1+$1,$4,$5*
1,1,$1+$1,$6,$7*
1,1,$1+$1,$8,$9*
0 Add four rect primitives between the rounded corners*
20,1,$1+$1,$2,$3,$4,$5,0*
20,1,$1+$1,$4,$5,$6,$7,0*
20,1,$1+$1,$6,$7,$8,$9,0*
20,1,$1+$1,$8,$9,$2,$3,0*%
G04 Aperture macros list end*
%ADD10R,0.400000X0.900000*%
%ADD11R,8.000000X7.000000*%
%ADD12R,1.000000X0.400000*%
%ADD13RoundRect,0.150000X-0.512500X-0.150000X0.512500X-0.150000X0.512500X0.150000X-0.512500X0.150000X0*%
%ADD14R,2.750000X1.000000*%
%ADD15R,0.900000X0.800000*%
%ADD16R,1.250000X0.900000*%
%ADD17RoundRect,0.250000X0.262500X0.450000X-0.262500X0.450000X-0.262500X-0.450000X0.262500X-0.450000X0*%
%ADD18RoundRect,0.250000X-0.262500X-0.450000X0.262500X-0.450000X0.262500X0.450000X-0.262500X0.450000X0*%
%ADD19RoundRect,0.243750X-0.243750X-0.456250X0.243750X-0.456250X0.243750X0.456250X-0.243750X0.456250X0*%
%ADD20RoundRect,0.243750X0.243750X0.456250X-0.243750X0.456250X-0.243750X-0.456250X0.243750X-0.456250X0*%
%ADD21RoundRect,0.250000X0.250000X0.475000X-0.250000X0.475000X-0.250000X-0.475000X0.250000X-0.475000X0*%
%ADD22RoundRect,0.250000X-0.250000X-0.475000X0.250000X-0.475000X0.250000X0.475000X-0.250000X0.475000X0*%
G04 APERTURE END LIST*
D10*
%TO.C,RN1*%
X149000000Y-100550000D03*
X149800000Y-100550000D03*
X150600000Y-100550000D03*
X151400000Y-100550000D03*
X151400000Y-102250000D03*
X150600000Y-102250000D03*
X149800000Y-102250000D03*
X149000000Y-102250000D03*
%TD*%
D11*
%TO.C,BT1*%
X165950000Y-88650000D03*
X165950000Y-74350000D03*
X99450000Y-74350000D03*
X99450000Y-88650000D03*
%TD*%
D12*
%TO.C,U2*%
X169800000Y-112350000D03*
X169800000Y-111700000D03*
X169800000Y-111050000D03*
X169800000Y-110400000D03*
X169800000Y-109750000D03*
X169800000Y-109100000D03*
X169800000Y-108450000D03*
X169800000Y-107800000D03*
X169800000Y-107150000D03*
X169800000Y-106500000D03*
X175600000Y-106500000D03*
X175600000Y-107150000D03*
X175600000Y-107800000D03*
X175600000Y-108450000D03*
X175600000Y-109100000D03*
X175600000Y-109750000D03*
X175600000Y-110400000D03*
X175600000Y-111050000D03*
X175600000Y-111700000D03*
X175600000Y-112350000D03*
%TD*%
D13*
%TO.C,U1*%
X114537500Y-112450000D03*
X114537500Y-113400000D03*
X114537500Y-114350000D03*
X112262500Y-114350000D03*
X112262500Y-113400000D03*
X112262500Y-112450000D03*
%TD*%
D14*
%TO.C,SW2*%
X163680000Y-108000000D03*
X157920000Y-108000000D03*
X163680000Y-112000000D03*
X157920000Y-112000000D03*
%TD*%
D15*
%TO.C,SW1*%
X97275000Y-106395000D03*
X94975000Y-106405000D03*
X94975000Y-114005000D03*
X97275000Y-114005000D03*
D16*
X98250000Y-107955000D03*
X98250000Y-110955000D03*
X98250000Y-112455000D03*
%TD*%
D17*
%TO.C,R2*%
X166487500Y-101900000D03*
X168312500Y-101900000D03*
%TD*%
D18*
%TO.C,R1*%
X113012500Y-104000000D03*
X111187500Y-104000000D03*
%TD*%
D19*
%TO.C,D2*%
X163137500Y-101900000D03*
X161262500Y-101900000D03*
%TD*%
D20*
%TO.C,D1*%
X117837500Y-104000000D03*
X115962500Y-104000000D03*
%TD*%
D21*
%TO.C,C4*%
X176350000Y-103425000D03*
X178250000Y-103425000D03*
%TD*%
D22*
%TO.C,C3*%
X108300000Y-110100000D03*
X106400000Y-110100000D03*
%TD*%
%TO.C,C2*%
X121450000Y-110100000D03*
X119550000Y-110100000D03*
%TD*%
D21*
%TO.C,C1*%
X119550000Y-113500000D03*
X121450000Y-113500000D03*
%TD*%
M02*
