M48
; DRILL file {KiCad (6.0.11)} date Sun 12 Feb 2023 12:55:56 PM CST
; FORMAT={-:-/ absolute / inch / decimal}
; #@! TF.CreationDate,2023-02-12T12:55:56-06:00
; #@! TF.GenerationSoftware,Kicad,Pcbnew,(6.0.11)
; #@! TF.FileFunction,Plated,1,2,PTH
FMAT,2
INCH
; #@! TA.AperFunction,Plated,PTH,ViaDrill
T1C0.0157
; #@! TA.AperFunction,Plated,PTH,ComponentDrill
T2C0.0394
; #@! TA.AperFunction,Plated,PTH,ComponentDrill
T3C0.0591
%
G90
G05
T1
X4.0354Y-4.5866
X4.0945Y-4.3307
X4.2913Y-4.4094
X4.3071Y-4.2362
X4.3622Y-4.1693
X4.5276Y-4.252
X5.1772Y-4.1339
X5.8661Y-4.0787
X5.8819Y-4.1693
X6.1417Y-4.0157
X6.2598Y-4.5669
X6.3189Y-4.2323
X6.3189Y-4.3504
X6.4764Y-4.0551
X6.5315Y-4.2992
X6.5787Y-4.3465
X6.5827Y-4.2992
X6.626Y-4.3465
X6.7756Y-4.0394
X6.8307Y-4.0748
X6.8898Y-4.5472
X6.9882Y-3.937
T2
X5.1654Y-4.0197
X5.2654Y-4.0197
X5.3654Y-4.0197
X5.4654Y-4.0197
X6.4283Y-4.7057
X6.5283Y-4.7057
X6.6283Y-4.7057
X6.7283Y-4.7057
X6.9203Y-3.5827
X7.0203Y-3.5827
X7.1203Y-3.5827
X7.3425Y-3.9339
X7.3425Y-4.0339
X7.3425Y-4.1339
X7.3425Y-4.2339
X7.3425Y-4.3339
X7.3425Y-4.4339
X7.3425Y-4.5339
X7.3425Y-4.6339
T3
X5.1713Y-4.3008
X5.4213Y-4.2008
T0
M30
