%TF.GenerationSoftware,KiCad,Pcbnew,(6.0.11)*%
%TF.CreationDate,2023-02-12T12:57:37-06:00*%
%TF.ProjectId,DisplayMin,44697370-6c61-4794-9d69-6e2e6b696361,rev?*%
%TF.SameCoordinates,Original*%
%TF.FileFunction,Copper,L1,Top*%
%TF.FilePolarity,Positive*%
%FSLAX46Y46*%
G04 Gerber Fmt 4.6, Leading zero omitted, Abs format (unit mm)*
G04 Created by KiCad (PCBNEW (6.0.11)) date 2023-02-12 12:57:37*
%MOMM*%
%LPD*%
G01*
G04 APERTURE LIST*
G04 Aperture macros list*
%AMRoundRect*
0 Rectangle with rounded corners*
0 $1 Rounding radius*
0 $2 $3 $4 $5 $6 $7 $8 $9 X,Y pos of 4 corners*
0 Add a 4 corners polygon primitive as box body*
4,1,4,$2,$3,$4,$5,$6,$7,$8,$9,$2,$3,0*
0 Add four circle primitives for the rounded corners*
1,1,$1+$1,$2,$3*
1,1,$1+$1,$4,$5*
1,1,$1+$1,$6,$7*
1,1,$1+$1,$8,$9*
0 Add four rect primitives between the rounded corners*
20,1,$1+$1,$2,$3,$4,$5,0*
20,1,$1+$1,$4,$5,$6,$7,0*
20,1,$1+$1,$6,$7,$8,$9,0*
20,1,$1+$1,$8,$9,$2,$3,0*%
G04 Aperture macros list end*
%TA.AperFunction,SMDPad,CuDef*%
%ADD10R,0.400000X0.900000*%
%TD*%
%TA.AperFunction,SMDPad,CuDef*%
%ADD11R,8.000000X7.000000*%
%TD*%
%TA.AperFunction,SMDPad,CuDef*%
%ADD12R,1.000000X0.400000*%
%TD*%
%TA.AperFunction,SMDPad,CuDef*%
%ADD13RoundRect,0.150000X-0.512500X-0.150000X0.512500X-0.150000X0.512500X0.150000X-0.512500X0.150000X0*%
%TD*%
%TA.AperFunction,ComponentPad*%
%ADD14C,2.200000*%
%TD*%
%TA.AperFunction,SMDPad,CuDef*%
%ADD15R,2.750000X1.000000*%
%TD*%
%TA.AperFunction,SMDPad,CuDef*%
%ADD16R,0.900000X0.800000*%
%TD*%
%TA.AperFunction,SMDPad,CuDef*%
%ADD17R,1.250000X0.900000*%
%TD*%
%TA.AperFunction,SMDPad,CuDef*%
%ADD18RoundRect,0.250000X0.262500X0.450000X-0.262500X0.450000X-0.262500X-0.450000X0.262500X-0.450000X0*%
%TD*%
%TA.AperFunction,SMDPad,CuDef*%
%ADD19RoundRect,0.250000X-0.262500X-0.450000X0.262500X-0.450000X0.262500X0.450000X-0.262500X0.450000X0*%
%TD*%
%TA.AperFunction,ComponentPad*%
%ADD20O,1.700000X1.700000*%
%TD*%
%TA.AperFunction,ComponentPad*%
%ADD21R,1.700000X1.700000*%
%TD*%
%TA.AperFunction,SMDPad,CuDef*%
%ADD22RoundRect,0.243750X-0.243750X-0.456250X0.243750X-0.456250X0.243750X0.456250X-0.243750X0.456250X0*%
%TD*%
%TA.AperFunction,SMDPad,CuDef*%
%ADD23RoundRect,0.243750X0.243750X0.456250X-0.243750X0.456250X-0.243750X-0.456250X0.243750X-0.456250X0*%
%TD*%
%TA.AperFunction,SMDPad,CuDef*%
%ADD24RoundRect,0.250000X0.250000X0.475000X-0.250000X0.475000X-0.250000X-0.475000X0.250000X-0.475000X0*%
%TD*%
%TA.AperFunction,SMDPad,CuDef*%
%ADD25RoundRect,0.250000X-0.250000X-0.475000X0.250000X-0.475000X0.250000X0.475000X-0.250000X0.475000X0*%
%TD*%
%TA.AperFunction,ViaPad*%
%ADD26C,0.800000*%
%TD*%
%TA.AperFunction,Conductor*%
%ADD27C,0.250000*%
%TD*%
G04 APERTURE END LIST*
D10*
%TO.P,RN1,8,R1.2*%
%TO.N,VCC*%
X149000000Y-100550000D03*
%TO.P,RN1,7,R2.2*%
X149800000Y-100550000D03*
%TO.P,RN1,6,R3.2*%
X150600000Y-100550000D03*
%TO.P,RN1,5,R4.2*%
X151400000Y-100550000D03*
%TO.P,RN1,4,R4.1*%
%TO.N,unconnected-(RN1-Pad4)*%
X151400000Y-102250000D03*
%TO.P,RN1,3,R3.1*%
%TO.N,unconnected-(RN1-Pad3)*%
X150600000Y-102250000D03*
%TO.P,RN1,2,R2.1*%
%TO.N,SDA*%
X149800000Y-102250000D03*
%TO.P,RN1,1,R1.1*%
%TO.N,SCL*%
X149000000Y-102250000D03*
%TD*%
D11*
%TO.P,BT1,3*%
%TO.N,N/C*%
X165950000Y-88650000D03*
X165950000Y-74350000D03*
%TO.P,BT1,2,-*%
%TO.N,VSS*%
X99450000Y-74350000D03*
%TO.P,BT1,1,+*%
%TO.N,Net-(BT1-Pad1)*%
X99450000Y-88650000D03*
%TD*%
D12*
%TO.P,U2,20,PD3*%
%TO.N,Net-(SW2-Pad1)*%
X169800000Y-112350000D03*
%TO.P,U2,19,PD2*%
%TO.N,Net-(SW3-Pad1)*%
X169800000Y-111700000D03*
%TO.P,U2,18,SWIO*%
%TO.N,SWIO*%
X169800000Y-111050000D03*
%TO.P,U2,17,PC7*%
%TO.N,Net-(R2-Pad1)*%
X169800000Y-110400000D03*
%TO.P,U2,16,PC6*%
%TO.N,Net-(J3-Pad1)*%
X169800000Y-109750000D03*
%TO.P,U2,15,PC5*%
%TO.N,Net-(J3-Pad2)*%
X169800000Y-109100000D03*
%TO.P,U2,14,PC4*%
%TO.N,Net-(J3-Pad3)*%
X169800000Y-108450000D03*
%TO.P,U2,13,PC3*%
%TO.N,Net-(J3-Pad4)*%
X169800000Y-107800000D03*
%TO.P,U2,12,PC2*%
%TO.N,SCL*%
X169800000Y-107150000D03*
%TO.P,U2,11,PC1*%
%TO.N,SDA*%
X169800000Y-106500000D03*
%TO.P,U2,10,PC0*%
%TO.N,Net-(J1-Pad8)*%
X175600000Y-106500000D03*
%TO.P,U2,9,VCC*%
%TO.N,VCC*%
X175600000Y-107150000D03*
%TO.P,U2,8,PD0*%
%TO.N,Net-(J1-Pad7)*%
X175600000Y-107800000D03*
%TO.P,U2,7,VSS*%
%TO.N,VSS*%
X175600000Y-108450000D03*
%TO.P,U2,6,PA2*%
%TO.N,Net-(J1-Pad6)*%
X175600000Y-109100000D03*
%TO.P,U2,5,PA1*%
%TO.N,Net-(J1-Pad5)*%
X175600000Y-109750000D03*
%TO.P,U2,4,PD7*%
%TO.N,Net-(J1-Pad4)*%
X175600000Y-110400000D03*
%TO.P,U2,3,PD6*%
%TO.N,Net-(J1-Pad3)*%
X175600000Y-111050000D03*
%TO.P,U2,2,PD5*%
%TO.N,Net-(J1-Pad2)*%
X175600000Y-111700000D03*
%TO.P,U2,1,PD4*%
%TO.N,Net-(J1-Pad1)*%
X175600000Y-112350000D03*
%TD*%
D13*
%TO.P,U1,6,C+*%
%TO.N,Net-(C2-Pad1)*%
X114537500Y-112450000D03*
%TO.P,U1,5,Vin*%
%TO.N,Net-(BT1-Pad1)*%
X114537500Y-113400000D03*
%TO.P,U1,4,C-*%
%TO.N,Net-(C2-Pad2)*%
X114537500Y-114350000D03*
%TO.P,U1,3,En*%
%TO.N,Net-(U1-Pad3)*%
X112262500Y-114350000D03*
%TO.P,U1,2,VSS*%
%TO.N,VSS*%
X112262500Y-113400000D03*
%TO.P,U1,1,Vout*%
%TO.N,VCC*%
X112262500Y-112450000D03*
%TD*%
D14*
%TO.P,SW3,2,2*%
%TO.N,VSS*%
X131350000Y-109240000D03*
%TO.P,SW3,1,1*%
%TO.N,Net-(SW3-Pad1)*%
X137700000Y-106700000D03*
%TD*%
D15*
%TO.P,SW2,2,2*%
%TO.N,VSS*%
X163680000Y-108000000D03*
X157920000Y-108000000D03*
%TO.P,SW2,1,1*%
%TO.N,Net-(SW2-Pad1)*%
X163680000Y-112000000D03*
X157920000Y-112000000D03*
%TD*%
D16*
%TO.P,SW1,4*%
%TO.N,N/C*%
X97275000Y-106395000D03*
X94975000Y-106405000D03*
X94975000Y-114005000D03*
X97275000Y-114005000D03*
D17*
%TO.P,SW1,3,C*%
%TO.N,unconnected-(SW1-Pad3)*%
X98250000Y-107955000D03*
%TO.P,SW1,2,B*%
%TO.N,Net-(BT1-Pad1)*%
X98250000Y-110955000D03*
%TO.P,SW1,1,A*%
%TO.N,Net-(U1-Pad3)*%
X98250000Y-112455000D03*
%TD*%
D18*
%TO.P,R2,2*%
%TO.N,Net-(D2-Pad2)*%
X166487500Y-101900000D03*
%TO.P,R2,1*%
%TO.N,Net-(R2-Pad1)*%
X168312500Y-101900000D03*
%TD*%
D19*
%TO.P,R1,2*%
%TO.N,Net-(D1-Pad2)*%
X113012500Y-104000000D03*
%TO.P,R1,1*%
%TO.N,VCC*%
X111187500Y-104000000D03*
%TD*%
D20*
%TO.P,J4,3,Pin_3*%
%TO.N,VSS*%
X180855000Y-91000000D03*
%TO.P,J4,2,Pin_2*%
%TO.N,VCC*%
X178315000Y-91000000D03*
D21*
%TO.P,J4,1,Pin_1*%
%TO.N,SWIO*%
X175775000Y-91000000D03*
%TD*%
D20*
%TO.P,J3,4,Pin_4*%
%TO.N,Net-(J3-Pad4)*%
X163280000Y-119525000D03*
%TO.P,J3,3,Pin_3*%
%TO.N,Net-(J3-Pad3)*%
X165820000Y-119525000D03*
%TO.P,J3,2,Pin_2*%
%TO.N,Net-(J3-Pad2)*%
X168360000Y-119525000D03*
D21*
%TO.P,J3,1,Pin_1*%
%TO.N,Net-(J3-Pad1)*%
X170900000Y-119525000D03*
%TD*%
%TO.P,J2,1,Pin_1*%
%TO.N,VSS*%
X131200000Y-102100000D03*
D20*
%TO.P,J2,2,Pin_2*%
%TO.N,VCC*%
X133740000Y-102100000D03*
%TO.P,J2,3,Pin_3*%
%TO.N,SCL*%
X136280000Y-102100000D03*
%TO.P,J2,4,Pin_4*%
%TO.N,SDA*%
X138820000Y-102100000D03*
%TD*%
%TO.P,J1,8,Pin_8*%
%TO.N,Net-(J1-Pad8)*%
X186500000Y-99920000D03*
%TO.P,J1,7,Pin_7*%
%TO.N,Net-(J1-Pad7)*%
X186500000Y-102460000D03*
%TO.P,J1,6,Pin_6*%
%TO.N,Net-(J1-Pad6)*%
X186500000Y-105000000D03*
%TO.P,J1,5,Pin_5*%
%TO.N,Net-(J1-Pad5)*%
X186500000Y-107540000D03*
%TO.P,J1,4,Pin_4*%
%TO.N,Net-(J1-Pad4)*%
X186500000Y-110080000D03*
%TO.P,J1,3,Pin_3*%
%TO.N,Net-(J1-Pad3)*%
X186500000Y-112620000D03*
%TO.P,J1,2,Pin_2*%
%TO.N,Net-(J1-Pad2)*%
X186500000Y-115160000D03*
D21*
%TO.P,J1,1,Pin_1*%
%TO.N,Net-(J1-Pad1)*%
X186500000Y-117700000D03*
%TD*%
D22*
%TO.P,D2,2,A*%
%TO.N,Net-(D2-Pad2)*%
X163137500Y-101900000D03*
%TO.P,D2,1,K*%
%TO.N,VSS*%
X161262500Y-101900000D03*
%TD*%
D23*
%TO.P,D1,1,K*%
%TO.N,VSS*%
X117837500Y-104000000D03*
%TO.P,D1,2,A*%
%TO.N,Net-(D1-Pad2)*%
X115962500Y-104000000D03*
%TD*%
D24*
%TO.P,C4,2*%
%TO.N,VCC*%
X176350000Y-103425000D03*
%TO.P,C4,1*%
%TO.N,VSS*%
X178250000Y-103425000D03*
%TD*%
D25*
%TO.P,C3,2*%
%TO.N,VCC*%
X108300000Y-110100000D03*
%TO.P,C3,1*%
%TO.N,VSS*%
X106400000Y-110100000D03*
%TD*%
%TO.P,C2,2*%
%TO.N,Net-(C2-Pad2)*%
X121450000Y-110100000D03*
%TO.P,C2,1*%
%TO.N,Net-(C2-Pad1)*%
X119550000Y-110100000D03*
%TD*%
D24*
%TO.P,C1,2*%
%TO.N,Net-(BT1-Pad1)*%
X119550000Y-113500000D03*
%TO.P,C1,1*%
%TO.N,VSS*%
X121450000Y-113500000D03*
%TD*%
D26*
%TO.N,VSS*%
X177500000Y-100000000D03*
X173500000Y-103500000D03*
X175000000Y-115500000D03*
X159000000Y-116000000D03*
X160500000Y-110500000D03*
X160500000Y-107500000D03*
X164500000Y-103000000D03*
X156000000Y-102000000D03*
X131500000Y-105000000D03*
X115000000Y-108000000D03*
X102500000Y-116500000D03*
X104000000Y-110000000D03*
X109000000Y-112000000D03*
%TO.N,SWIO*%
X172100000Y-102600000D03*
%TO.N,Net-(J3-Pad4)*%
X165900000Y-109200000D03*
%TO.N,Net-(J3-Pad3)*%
X167200000Y-109200000D03*
%TO.N,Net-(J3-Pad2)*%
X167100000Y-110400000D03*
%TO.N,Net-(J3-Pad1)*%
X168300000Y-110400000D03*
%TO.N,SCL*%
X149400000Y-105900000D03*
X149000000Y-103600000D03*
%TO.N,VCC*%
X109400000Y-107600000D03*
X110800000Y-105900000D03*
%TD*%
D27*
%TO.N,VSS*%
X174450000Y-108450000D02*
X173500000Y-107500000D01*
X175600000Y-108450000D02*
X174450000Y-108450000D01*
X173500000Y-107500000D02*
X173500000Y-103500000D01*
%TO.N,Net-(J1-Pad1)*%
X175600000Y-112350000D02*
X181150000Y-112350000D01*
X181150000Y-112350000D02*
X186500000Y-117700000D01*
%TO.N,Net-(J1-Pad2)*%
X175600000Y-111700000D02*
X183040000Y-111700000D01*
X183040000Y-111700000D02*
X186500000Y-115160000D01*
%TO.N,Net-(J1-Pad3)*%
X175600000Y-111050000D02*
X184930000Y-111050000D01*
X184930000Y-111050000D02*
X186500000Y-112620000D01*
%TO.N,Net-(J1-Pad4)*%
X175600000Y-110400000D02*
X186180000Y-110400000D01*
X186180000Y-110400000D02*
X186500000Y-110080000D01*
%TO.N,Net-(J1-Pad5)*%
X175600000Y-109750000D02*
X180750000Y-109750000D01*
X182960000Y-107540000D02*
X186500000Y-107540000D01*
X180750000Y-109750000D02*
X182960000Y-107540000D01*
%TO.N,Net-(J1-Pad6)*%
X175600000Y-109100000D02*
X179100000Y-109100000D01*
X179100000Y-109100000D02*
X183200000Y-105000000D01*
X183200000Y-105000000D02*
X186500000Y-105000000D01*
%TO.N,Net-(J1-Pad7)*%
X175600000Y-107800000D02*
X177860000Y-107800000D01*
X177860000Y-107800000D02*
X183200000Y-102460000D01*
X183200000Y-102460000D02*
X186500000Y-102460000D01*
%TO.N,Net-(J1-Pad8)*%
X175600000Y-106500000D02*
X176713173Y-106500000D01*
X176713173Y-106500000D02*
X183293173Y-99920000D01*
X183293173Y-99920000D02*
X186500000Y-99920000D01*
%TO.N,SWIO*%
X169800000Y-111050000D02*
X170850000Y-111050000D01*
X170850000Y-111050000D02*
X172100000Y-109800000D01*
X172100000Y-109800000D02*
X172100000Y-102600000D01*
%TO.N,Net-(J3-Pad4)*%
X167300000Y-107800000D02*
X165900000Y-109200000D01*
X169800000Y-107800000D02*
X167300000Y-107800000D01*
%TO.N,Net-(J3-Pad3)*%
X167950000Y-108450000D02*
X167200000Y-109200000D01*
X169800000Y-108450000D02*
X167950000Y-108450000D01*
%TO.N,Net-(J3-Pad2)*%
X168400000Y-109100000D02*
X167100000Y-110400000D01*
X169800000Y-109100000D02*
X168400000Y-109100000D01*
%TO.N,Net-(J3-Pad1)*%
X168950000Y-109750000D02*
X168300000Y-110400000D01*
X169800000Y-109750000D02*
X168950000Y-109750000D01*
%TO.N,Net-(D2-Pad2)*%
X166487500Y-101900000D02*
X163137500Y-101900000D01*
%TO.N,Net-(R2-Pad1)*%
X170800000Y-110400000D02*
X171600000Y-109600000D01*
X169800000Y-110400000D02*
X170800000Y-110400000D01*
X171600000Y-105187500D02*
X168312500Y-101900000D01*
X171600000Y-109600000D02*
X171600000Y-105187500D01*
%TO.N,Net-(SW2-Pad1)*%
X163680000Y-112000000D02*
X157920000Y-112000000D01*
X163680000Y-112000000D02*
X164030000Y-112350000D01*
X164030000Y-112350000D02*
X169800000Y-112350000D01*
%TO.N,Net-(SW3-Pad1)*%
X163725000Y-108825000D02*
X166600000Y-111700000D01*
X139825000Y-108825000D02*
X163725000Y-108825000D01*
X137700000Y-106700000D02*
X139825000Y-108825000D01*
X166600000Y-111700000D02*
X169800000Y-111700000D01*
%TO.N,VCC*%
X116287500Y-98900000D02*
X133100000Y-98900000D01*
X133100000Y-98900000D02*
X142100000Y-98900000D01*
X133740000Y-102100000D02*
X133740000Y-99540000D01*
X133740000Y-99540000D02*
X133100000Y-98900000D01*
X142100000Y-98900000D02*
X148700000Y-98900000D01*
X148700000Y-98900000D02*
X171825000Y-98900000D01*
X149000000Y-100550000D02*
X149000000Y-99200000D01*
X149000000Y-99200000D02*
X148700000Y-98900000D01*
X151400000Y-100550000D02*
X149000000Y-100550000D01*
%TO.N,SCL*%
X149000000Y-102250000D02*
X149000000Y-103600000D01*
X139030000Y-104850000D02*
X150450000Y-104850000D01*
X150450000Y-104850000D02*
X166013604Y-104850000D01*
X149400000Y-105900000D02*
X150450000Y-104850000D01*
%TO.N,SDA*%
X166200000Y-104400000D02*
X150100000Y-104400000D01*
X150100000Y-104400000D02*
X141120000Y-104400000D01*
X149800000Y-102250000D02*
X149800000Y-104100000D01*
X149800000Y-104100000D02*
X150100000Y-104400000D01*
%TO.N,SCL*%
X136280000Y-102100000D02*
X139030000Y-104850000D01*
X166013604Y-104850000D02*
X168313604Y-107150000D01*
X168313604Y-107150000D02*
X169800000Y-107150000D01*
%TO.N,SDA*%
X169800000Y-106500000D02*
X168300000Y-106500000D01*
X168300000Y-106500000D02*
X166200000Y-104400000D01*
X141120000Y-104400000D02*
X138820000Y-102100000D01*
%TO.N,VCC*%
X175600000Y-107150000D02*
X174850000Y-107150000D01*
X174850000Y-107150000D02*
X174300000Y-106600000D01*
X174300000Y-105475000D02*
X176350000Y-103425000D01*
X174300000Y-106600000D02*
X174300000Y-105475000D01*
X171825000Y-98900000D02*
X172300000Y-98900000D01*
X172300000Y-98900000D02*
X178315000Y-92885000D01*
X178315000Y-92885000D02*
X178315000Y-91000000D01*
X111187500Y-104000000D02*
X116287500Y-98900000D01*
X171825000Y-98900000D02*
X176350000Y-103425000D01*
%TO.N,Net-(U1-Pad3)*%
X98250000Y-112455000D02*
X107555000Y-112455000D01*
X107555000Y-112455000D02*
X109450000Y-114350000D01*
X109450000Y-114350000D02*
X112262500Y-114350000D01*
%TO.N,Net-(BT1-Pad1)*%
X99450000Y-96050000D02*
X106700000Y-103300000D01*
X106700000Y-103300000D02*
X113400000Y-110000000D01*
X98250000Y-110955000D02*
X99045000Y-110955000D01*
X99045000Y-110955000D02*
X106700000Y-103300000D01*
%TO.N,VCC*%
X112262500Y-112450000D02*
X110650000Y-112450000D01*
X110650000Y-112450000D02*
X108300000Y-110100000D01*
X111187500Y-104000000D02*
X111187500Y-105512500D01*
X111187500Y-105512500D02*
X110800000Y-105900000D01*
X109400000Y-107600000D02*
X108300000Y-108700000D01*
X108300000Y-108700000D02*
X108300000Y-110100000D01*
%TO.N,Net-(D1-Pad2)*%
X113012500Y-104000000D02*
X115962500Y-104000000D01*
%TO.N,Net-(C2-Pad2)*%
X114537500Y-114350000D02*
X114737500Y-114550000D01*
X114737500Y-114550000D02*
X120038173Y-114550000D01*
X120625000Y-110925000D02*
X121450000Y-110100000D01*
X120038173Y-114550000D02*
X120625000Y-113963173D01*
X120625000Y-113963173D02*
X120625000Y-110925000D01*
%TO.N,Net-(C2-Pad1)*%
X114537500Y-112450000D02*
X117200000Y-112450000D01*
X117200000Y-112450000D02*
X119550000Y-110100000D01*
%TO.N,Net-(BT1-Pad1)*%
X114537500Y-113400000D02*
X119450000Y-113400000D01*
X119450000Y-113400000D02*
X119550000Y-113500000D01*
X99450000Y-88650000D02*
X99450000Y-96050000D01*
X113400000Y-110000000D02*
X113400000Y-112646751D01*
X113400000Y-112646751D02*
X114153249Y-113400000D01*
X114153249Y-113400000D02*
X114537500Y-113400000D01*
%TO.N,*%
X165950000Y-74350000D02*
X165950000Y-88650000D01*
%TD*%
%TA.AperFunction,Conductor*%
%TO.N,VSS*%
G36*
X132853527Y-99553502D02*
G01*
X132874501Y-99570405D01*
X133069595Y-99765499D01*
X133103621Y-99827811D01*
X133106500Y-99854594D01*
X133106500Y-100821692D01*
X133086498Y-100889813D01*
X133038683Y-100933453D01*
X133013607Y-100946507D01*
X133009474Y-100949610D01*
X133009471Y-100949612D01*
X132863880Y-101058925D01*
X132834965Y-101080635D01*
X132831393Y-101084373D01*
X132753898Y-101165466D01*
X132692374Y-101200895D01*
X132621462Y-101197438D01*
X132563676Y-101156192D01*
X132544823Y-101122644D01*
X132503324Y-101011946D01*
X132494786Y-100996351D01*
X132418285Y-100894276D01*
X132405724Y-100881715D01*
X132303649Y-100805214D01*
X132288054Y-100796676D01*
X132167606Y-100751522D01*
X132152351Y-100747895D01*
X132101486Y-100742369D01*
X132094672Y-100742000D01*
X131472115Y-100742000D01*
X131456876Y-100746475D01*
X131455671Y-100747865D01*
X131454000Y-100755548D01*
X131454000Y-103439884D01*
X131458475Y-103455123D01*
X131459865Y-103456328D01*
X131467548Y-103457999D01*
X132094669Y-103457999D01*
X132101490Y-103457629D01*
X132152352Y-103452105D01*
X132167604Y-103448479D01*
X132288054Y-103403324D01*
X132303649Y-103394786D01*
X132405724Y-103318285D01*
X132418285Y-103305724D01*
X132494786Y-103203649D01*
X132503324Y-103188054D01*
X132544225Y-103078952D01*
X132586867Y-103022188D01*
X132653428Y-102997488D01*
X132722777Y-103012696D01*
X132757444Y-103040684D01*
X132782865Y-103070031D01*
X132782869Y-103070035D01*
X132786250Y-103073938D01*
X132958126Y-103216632D01*
X133151000Y-103329338D01*
X133155825Y-103331180D01*
X133155826Y-103331181D01*
X133195937Y-103346498D01*
X133359692Y-103409030D01*
X133364760Y-103410061D01*
X133364763Y-103410062D01*
X133472012Y-103431882D01*
X133578597Y-103453567D01*
X133583772Y-103453757D01*
X133583774Y-103453757D01*
X133796673Y-103461564D01*
X133796677Y-103461564D01*
X133801837Y-103461753D01*
X133806957Y-103461097D01*
X133806959Y-103461097D01*
X134018288Y-103434025D01*
X134018289Y-103434025D01*
X134023416Y-103433368D01*
X134034539Y-103430031D01*
X134232429Y-103370661D01*
X134232434Y-103370659D01*
X134237384Y-103369174D01*
X134437994Y-103270896D01*
X134619860Y-103141173D01*
X134632576Y-103128502D01*
X134723701Y-103037694D01*
X134778096Y-102983489D01*
X134799821Y-102953256D01*
X134908453Y-102802077D01*
X134909776Y-102803028D01*
X134956645Y-102759857D01*
X135026580Y-102747625D01*
X135092026Y-102775144D01*
X135119875Y-102806994D01*
X135179987Y-102905088D01*
X135326250Y-103073938D01*
X135498126Y-103216632D01*
X135691000Y-103329338D01*
X135695825Y-103331180D01*
X135695826Y-103331181D01*
X135735937Y-103346498D01*
X135899692Y-103409030D01*
X135904760Y-103410061D01*
X135904763Y-103410062D01*
X136012012Y-103431882D01*
X136118597Y-103453567D01*
X136123772Y-103453757D01*
X136123774Y-103453757D01*
X136336673Y-103461564D01*
X136336677Y-103461564D01*
X136341837Y-103461753D01*
X136346957Y-103461097D01*
X136346959Y-103461097D01*
X136558288Y-103434025D01*
X136558289Y-103434025D01*
X136563416Y-103433368D01*
X136568367Y-103431883D01*
X136568370Y-103431882D01*
X136609829Y-103419444D01*
X136680825Y-103419028D01*
X136735131Y-103451035D01*
X138212980Y-104928884D01*
X138247006Y-104991196D01*
X138241941Y-105062011D01*
X138199394Y-105118847D01*
X138132874Y-105143658D01*
X138094471Y-105140498D01*
X137957216Y-105107546D01*
X137957210Y-105107545D01*
X137952403Y-105106391D01*
X137700000Y-105086526D01*
X137447597Y-105106391D01*
X137442790Y-105107545D01*
X137442784Y-105107546D01*
X137296520Y-105142661D01*
X137201409Y-105165495D01*
X137196838Y-105167388D01*
X137196836Y-105167389D01*
X136972072Y-105260489D01*
X136972068Y-105260491D01*
X136967498Y-105262384D01*
X136751624Y-105394672D01*
X136559102Y-105559102D01*
X136394672Y-105751624D01*
X136262384Y-105967498D01*
X136260491Y-105972068D01*
X136260489Y-105972072D01*
X136167389Y-106196836D01*
X136165495Y-106201409D01*
X136147280Y-106277279D01*
X136108949Y-106436944D01*
X136106391Y-106447597D01*
X136086526Y-106700000D01*
X136106391Y-106952403D01*
X136107545Y-106957210D01*
X136107546Y-106957216D01*
X136135413Y-107073288D01*
X136165495Y-107198591D01*
X136167388Y-107203162D01*
X136167389Y-107203164D01*
X136255812Y-107416635D01*
X136262384Y-107432502D01*
X136394672Y-107648376D01*
X136559102Y-107840898D01*
X136751624Y-108005328D01*
X136967498Y-108137616D01*
X136972068Y-108139509D01*
X136972072Y-108139511D01*
X137196836Y-108232611D01*
X137201409Y-108234505D01*
X137278568Y-108253029D01*
X137442784Y-108292454D01*
X137442790Y-108292455D01*
X137447597Y-108293609D01*
X137700000Y-108313474D01*
X137952403Y-108293609D01*
X137957210Y-108292455D01*
X137957216Y-108292454D01*
X138121432Y-108253029D01*
X138198591Y-108234505D01*
X138204917Y-108231885D01*
X138219812Y-108225715D01*
X138290402Y-108218126D01*
X138357124Y-108253028D01*
X139321359Y-109217264D01*
X139328888Y-109225538D01*
X139333000Y-109232018D01*
X139338777Y-109237443D01*
X139382651Y-109278643D01*
X139385493Y-109281398D01*
X139405230Y-109301135D01*
X139408427Y-109303615D01*
X139417447Y-109311318D01*
X139449679Y-109341586D01*
X139456625Y-109345405D01*
X139456628Y-109345407D01*
X139467434Y-109351348D01*
X139483953Y-109362199D01*
X139499959Y-109374614D01*
X139507228Y-109377759D01*
X139507232Y-109377762D01*
X139540537Y-109392174D01*
X139551187Y-109397391D01*
X139589940Y-109418695D01*
X139597615Y-109420666D01*
X139597616Y-109420666D01*
X139609562Y-109423733D01*
X139628267Y-109430137D01*
X139646855Y-109438181D01*
X139654678Y-109439420D01*
X139654688Y-109439423D01*
X139690524Y-109445099D01*
X139702144Y-109447505D01*
X139737289Y-109456528D01*
X139744970Y-109458500D01*
X139765224Y-109458500D01*
X139784934Y-109460051D01*
X139804943Y-109463220D01*
X139812835Y-109462474D01*
X139848961Y-109459059D01*
X139860819Y-109458500D01*
X163410406Y-109458500D01*
X163478527Y-109478502D01*
X163499501Y-109495405D01*
X164780500Y-110776405D01*
X164814526Y-110838717D01*
X164809461Y-110909533D01*
X164766914Y-110966368D01*
X164700394Y-110991179D01*
X164691405Y-110991500D01*
X162256866Y-110991500D01*
X162194684Y-110998255D01*
X162058295Y-111049385D01*
X161941739Y-111136739D01*
X161854385Y-111253295D01*
X161851233Y-111261703D01*
X161851231Y-111261707D01*
X161842599Y-111284731D01*
X161799957Y-111341495D01*
X161733395Y-111366194D01*
X161724618Y-111366500D01*
X159875382Y-111366500D01*
X159807261Y-111346498D01*
X159760768Y-111292842D01*
X159757401Y-111284731D01*
X159748769Y-111261707D01*
X159748767Y-111261703D01*
X159745615Y-111253295D01*
X159658261Y-111136739D01*
X159541705Y-111049385D01*
X159405316Y-110998255D01*
X159343134Y-110991500D01*
X156496866Y-110991500D01*
X156434684Y-110998255D01*
X156298295Y-111049385D01*
X156181739Y-111136739D01*
X156094385Y-111253295D01*
X156043255Y-111389684D01*
X156036500Y-111451866D01*
X156036500Y-112548134D01*
X156043255Y-112610316D01*
X156094385Y-112746705D01*
X156181739Y-112863261D01*
X156298295Y-112950615D01*
X156434684Y-113001745D01*
X156496866Y-113008500D01*
X159343134Y-113008500D01*
X159405316Y-113001745D01*
X159541705Y-112950615D01*
X159658261Y-112863261D01*
X159745615Y-112746705D01*
X159748769Y-112738293D01*
X159757401Y-112715269D01*
X159800043Y-112658505D01*
X159866605Y-112633806D01*
X159875382Y-112633500D01*
X161724618Y-112633500D01*
X161792739Y-112653502D01*
X161839232Y-112707158D01*
X161842599Y-112715269D01*
X161851231Y-112738293D01*
X161854385Y-112746705D01*
X161941739Y-112863261D01*
X162058295Y-112950615D01*
X162194684Y-113001745D01*
X162256866Y-113008500D01*
X165103134Y-113008500D01*
X165165316Y-113001745D01*
X165192596Y-112991518D01*
X165236826Y-112983500D01*
X168992450Y-112983500D01*
X169050158Y-112998264D01*
X169053295Y-113000615D01*
X169189684Y-113051745D01*
X169251866Y-113058500D01*
X170348134Y-113058500D01*
X170410316Y-113051745D01*
X170546705Y-113000615D01*
X170663261Y-112913261D01*
X170750615Y-112796705D01*
X170801745Y-112660316D01*
X170808500Y-112598134D01*
X170808500Y-112101866D01*
X170801745Y-112039684D01*
X170804174Y-112039420D01*
X170804174Y-112010580D01*
X170801745Y-112010316D01*
X170808131Y-111951531D01*
X170808500Y-111948134D01*
X170808500Y-111807219D01*
X170828502Y-111739098D01*
X170882158Y-111692605D01*
X170930541Y-111681281D01*
X170940542Y-111680967D01*
X170941970Y-111680922D01*
X170949889Y-111680673D01*
X170969343Y-111675021D01*
X170988700Y-111671013D01*
X171000930Y-111669468D01*
X171000931Y-111669468D01*
X171008797Y-111668474D01*
X171016168Y-111665555D01*
X171016170Y-111665555D01*
X171049912Y-111652196D01*
X171061142Y-111648351D01*
X171095983Y-111638229D01*
X171095984Y-111638229D01*
X171103593Y-111636018D01*
X171110412Y-111631985D01*
X171110417Y-111631983D01*
X171121028Y-111625707D01*
X171138776Y-111617012D01*
X171157617Y-111609552D01*
X171193387Y-111583564D01*
X171203307Y-111577048D01*
X171234535Y-111558580D01*
X171234538Y-111558578D01*
X171241362Y-111554542D01*
X171255683Y-111540221D01*
X171270717Y-111527380D01*
X171280694Y-111520131D01*
X171287107Y-111515472D01*
X171315298Y-111481395D01*
X171323288Y-111472616D01*
X172492253Y-110303652D01*
X172500539Y-110296112D01*
X172507018Y-110292000D01*
X172553644Y-110242348D01*
X172556398Y-110239507D01*
X172576135Y-110219770D01*
X172578615Y-110216573D01*
X172586320Y-110207551D01*
X172611159Y-110181100D01*
X172616586Y-110175321D01*
X172620405Y-110168375D01*
X172620407Y-110168372D01*
X172626348Y-110157566D01*
X172637199Y-110141047D01*
X172644758Y-110131301D01*
X172649614Y-110125041D01*
X172652759Y-110117772D01*
X172652762Y-110117768D01*
X172667174Y-110084463D01*
X172672391Y-110073813D01*
X172693695Y-110035060D01*
X172698733Y-110015437D01*
X172705137Y-109996734D01*
X172710033Y-109985420D01*
X172710033Y-109985419D01*
X172713181Y-109978145D01*
X172714420Y-109970322D01*
X172714423Y-109970312D01*
X172720099Y-109934476D01*
X172722505Y-109922856D01*
X172731528Y-109887711D01*
X172731528Y-109887710D01*
X172733500Y-109880030D01*
X172733500Y-109859776D01*
X172735051Y-109840065D01*
X172736980Y-109827886D01*
X172736980Y-109827885D01*
X172738220Y-109820057D01*
X172734059Y-109776038D01*
X172733500Y-109764181D01*
X172733500Y-103302524D01*
X172753502Y-103234403D01*
X172765858Y-103218221D01*
X172839040Y-103136944D01*
X172925531Y-102987137D01*
X172931223Y-102977279D01*
X172931224Y-102977278D01*
X172934527Y-102971556D01*
X172993542Y-102789928D01*
X172994696Y-102778954D01*
X173012814Y-102606565D01*
X173013504Y-102600000D01*
X173001122Y-102482193D01*
X172994232Y-102416635D01*
X172994232Y-102416633D01*
X172993542Y-102410072D01*
X172934527Y-102228444D01*
X172839040Y-102063056D01*
X172808010Y-102028593D01*
X172715675Y-101926045D01*
X172715674Y-101926044D01*
X172711253Y-101921134D01*
X172599768Y-101840135D01*
X172562094Y-101812763D01*
X172562093Y-101812762D01*
X172556752Y-101808882D01*
X172550724Y-101806198D01*
X172550722Y-101806197D01*
X172388319Y-101733891D01*
X172388318Y-101733891D01*
X172382288Y-101731206D01*
X172288887Y-101711353D01*
X172201944Y-101692872D01*
X172201939Y-101692872D01*
X172195487Y-101691500D01*
X172004513Y-101691500D01*
X171998061Y-101692872D01*
X171998056Y-101692872D01*
X171911113Y-101711353D01*
X171817712Y-101731206D01*
X171811682Y-101733891D01*
X171811681Y-101733891D01*
X171649278Y-101806197D01*
X171649276Y-101806198D01*
X171643248Y-101808882D01*
X171637907Y-101812762D01*
X171637906Y-101812763D01*
X171600232Y-101840135D01*
X171488747Y-101921134D01*
X171484326Y-101926044D01*
X171484325Y-101926045D01*
X171391991Y-102028593D01*
X171360960Y-102063056D01*
X171265473Y-102228444D01*
X171206458Y-102410072D01*
X171205768Y-102416633D01*
X171205768Y-102416635D01*
X171198878Y-102482193D01*
X171186496Y-102600000D01*
X171187186Y-102606565D01*
X171205305Y-102778954D01*
X171206458Y-102789928D01*
X171265473Y-102971556D01*
X171268776Y-102977278D01*
X171268777Y-102977279D01*
X171274469Y-102987137D01*
X171360960Y-103136944D01*
X171434137Y-103218215D01*
X171464853Y-103282221D01*
X171466500Y-103302524D01*
X171466500Y-103853906D01*
X171446498Y-103922027D01*
X171392842Y-103968520D01*
X171322568Y-103978624D01*
X171257988Y-103949130D01*
X171251405Y-103943001D01*
X170398289Y-103089884D01*
X169370405Y-102062000D01*
X169336379Y-101999688D01*
X169333500Y-101972905D01*
X169333500Y-101399600D01*
X169332602Y-101390942D01*
X169323238Y-101300692D01*
X169323237Y-101300688D01*
X169322526Y-101293834D01*
X169319159Y-101283740D01*
X169268868Y-101133002D01*
X169266550Y-101126054D01*
X169173478Y-100975652D01*
X169048303Y-100850695D01*
X169042072Y-100846854D01*
X168903968Y-100761725D01*
X168903966Y-100761724D01*
X168897738Y-100757885D01*
X168785592Y-100720688D01*
X168736389Y-100704368D01*
X168736387Y-100704368D01*
X168729861Y-100702203D01*
X168723025Y-100701503D01*
X168723022Y-100701502D01*
X168679969Y-100697091D01*
X168625400Y-100691500D01*
X167999600Y-100691500D01*
X167996354Y-100691837D01*
X167996350Y-100691837D01*
X167900692Y-100701762D01*
X167900688Y-100701763D01*
X167893834Y-100702474D01*
X167887298Y-100704655D01*
X167887296Y-100704655D01*
X167774254Y-100742369D01*
X167726054Y-100758450D01*
X167575652Y-100851522D01*
X167493496Y-100933822D01*
X167489216Y-100938109D01*
X167426934Y-100972188D01*
X167356114Y-100967185D01*
X167311025Y-100938264D01*
X167228483Y-100855866D01*
X167223303Y-100850695D01*
X167217072Y-100846854D01*
X167078968Y-100761725D01*
X167078966Y-100761724D01*
X167072738Y-100757885D01*
X166960592Y-100720688D01*
X166911389Y-100704368D01*
X166911387Y-100704368D01*
X166904861Y-100702203D01*
X166898025Y-100701503D01*
X166898022Y-100701502D01*
X166854969Y-100697091D01*
X166800400Y-100691500D01*
X166174600Y-100691500D01*
X166171354Y-100691837D01*
X166171350Y-100691837D01*
X166075692Y-100701762D01*
X166075688Y-100701763D01*
X166068834Y-100702474D01*
X166062298Y-100704655D01*
X166062296Y-100704655D01*
X165949254Y-100742369D01*
X165901054Y-100758450D01*
X165750652Y-100851522D01*
X165745479Y-100856704D01*
X165712428Y-100889813D01*
X165625695Y-100976697D01*
X165621855Y-100982927D01*
X165621854Y-100982928D01*
X165543331Y-101110316D01*
X165532885Y-101127262D01*
X165515337Y-101180168D01*
X165474906Y-101238527D01*
X165409342Y-101265764D01*
X165395744Y-101266500D01*
X164205944Y-101266500D01*
X164137823Y-101246498D01*
X164091330Y-101192842D01*
X164086421Y-101180377D01*
X164069422Y-101129427D01*
X164069421Y-101129425D01*
X164067102Y-101122474D01*
X163974797Y-100973311D01*
X163850653Y-100849383D01*
X163701329Y-100757339D01*
X163694380Y-100755034D01*
X163541366Y-100704281D01*
X163541364Y-100704281D01*
X163534835Y-100702115D01*
X163431231Y-100691500D01*
X163139766Y-100691500D01*
X162843770Y-100691501D01*
X162738871Y-100702384D01*
X162732340Y-100704563D01*
X162732335Y-100704564D01*
X162614731Y-100743800D01*
X162572474Y-100757898D01*
X162423311Y-100850203D01*
X162299383Y-100974347D01*
X162297386Y-100977587D01*
X162240648Y-101017814D01*
X162169725Y-101021047D01*
X162108313Y-100985422D01*
X162100934Y-100976922D01*
X162094218Y-100968448D01*
X161980521Y-100854949D01*
X161969110Y-100845937D01*
X161832346Y-100761635D01*
X161819168Y-100755491D01*
X161666260Y-100704773D01*
X161652894Y-100701907D01*
X161559399Y-100692328D01*
X161552984Y-100692000D01*
X161534615Y-100692000D01*
X161519376Y-100696475D01*
X161518171Y-100697865D01*
X161516500Y-100705548D01*
X161516500Y-103089884D01*
X161520975Y-103105123D01*
X161522365Y-103106328D01*
X161530048Y-103107999D01*
X161552933Y-103107999D01*
X161559452Y-103107662D01*
X161654170Y-103097834D01*
X161667564Y-103094942D01*
X161820365Y-103043964D01*
X161833543Y-103037790D01*
X161970149Y-102953256D01*
X161981550Y-102944220D01*
X162095051Y-102830521D01*
X162100794Y-102823249D01*
X162158711Y-102782186D01*
X162229634Y-102778954D01*
X162291046Y-102814579D01*
X162296840Y-102821254D01*
X162300203Y-102826689D01*
X162424347Y-102950617D01*
X162430577Y-102954457D01*
X162430578Y-102954458D01*
X162434066Y-102956608D01*
X162573671Y-103042661D01*
X162580619Y-103044966D01*
X162580620Y-103044966D01*
X162733634Y-103095719D01*
X162733636Y-103095719D01*
X162740165Y-103097885D01*
X162843769Y-103108500D01*
X163135234Y-103108500D01*
X163431230Y-103108499D01*
X163536129Y-103097616D01*
X163542660Y-103095437D01*
X163542665Y-103095436D01*
X163695578Y-103044420D01*
X163702526Y-103042102D01*
X163851689Y-102949797D01*
X163975617Y-102825653D01*
X163980261Y-102818120D01*
X164038603Y-102723470D01*
X164067661Y-102676329D01*
X164086401Y-102619831D01*
X164126833Y-102561472D01*
X164192397Y-102534236D01*
X164205994Y-102533500D01*
X165395803Y-102533500D01*
X165463924Y-102553502D01*
X165510417Y-102607158D01*
X165515326Y-102619623D01*
X165515465Y-102620038D01*
X165533450Y-102673946D01*
X165537301Y-102680170D01*
X165537302Y-102680171D01*
X165598431Y-102778954D01*
X165626522Y-102824348D01*
X165631704Y-102829521D01*
X165660131Y-102857898D01*
X165751697Y-102949305D01*
X165757927Y-102953145D01*
X165757928Y-102953146D01*
X165895246Y-103037790D01*
X165902262Y-103042115D01*
X165965398Y-103063056D01*
X166063611Y-103095632D01*
X166063613Y-103095632D01*
X166070139Y-103097797D01*
X166076975Y-103098497D01*
X166076978Y-103098498D01*
X166120031Y-103102909D01*
X166174600Y-103108500D01*
X166800400Y-103108500D01*
X166803646Y-103108163D01*
X166803650Y-103108163D01*
X166899308Y-103098238D01*
X166899312Y-103098237D01*
X166906166Y-103097526D01*
X166912702Y-103095345D01*
X166912704Y-103095345D01*
X167065077Y-103044509D01*
X167073946Y-103041550D01*
X167224348Y-102948478D01*
X167310784Y-102861891D01*
X167373066Y-102827812D01*
X167443886Y-102832815D01*
X167488975Y-102861736D01*
X167511824Y-102884545D01*
X167576697Y-102949305D01*
X167582927Y-102953145D01*
X167582928Y-102953146D01*
X167720246Y-103037790D01*
X167727262Y-103042115D01*
X167790398Y-103063056D01*
X167888611Y-103095632D01*
X167888613Y-103095632D01*
X167895139Y-103097797D01*
X167901975Y-103098497D01*
X167901978Y-103098498D01*
X167945031Y-103102909D01*
X167999600Y-103108500D01*
X168572906Y-103108500D01*
X168641027Y-103128502D01*
X168662001Y-103145405D01*
X170929595Y-105413000D01*
X170963621Y-105475312D01*
X170966500Y-105502095D01*
X170966500Y-105963131D01*
X170946498Y-106031252D01*
X170892842Y-106077745D01*
X170822568Y-106087849D01*
X170757988Y-106058355D01*
X170739674Y-106038696D01*
X170668643Y-105943920D01*
X170668642Y-105943919D01*
X170663261Y-105936739D01*
X170546705Y-105849385D01*
X170410316Y-105798255D01*
X170348134Y-105791500D01*
X169251866Y-105791500D01*
X169189684Y-105798255D01*
X169053295Y-105849385D01*
X169050158Y-105851736D01*
X168992450Y-105866500D01*
X168614595Y-105866500D01*
X168546474Y-105846498D01*
X168525500Y-105829595D01*
X166703652Y-104007747D01*
X166696112Y-103999461D01*
X166692000Y-103992982D01*
X166642348Y-103946356D01*
X166639507Y-103943602D01*
X166619770Y-103923865D01*
X166616573Y-103921385D01*
X166607551Y-103913680D01*
X166581100Y-103888841D01*
X166575321Y-103883414D01*
X166568375Y-103879595D01*
X166568372Y-103879593D01*
X166557566Y-103873652D01*
X166541047Y-103862801D01*
X166540583Y-103862441D01*
X166525041Y-103850386D01*
X166517772Y-103847241D01*
X166517768Y-103847238D01*
X166484463Y-103832826D01*
X166473813Y-103827609D01*
X166435060Y-103806305D01*
X166415437Y-103801267D01*
X166396734Y-103794863D01*
X166385420Y-103789967D01*
X166385419Y-103789967D01*
X166378145Y-103786819D01*
X166370322Y-103785580D01*
X166370312Y-103785577D01*
X166334476Y-103779901D01*
X166322856Y-103777495D01*
X166287711Y-103768472D01*
X166287710Y-103768472D01*
X166280030Y-103766500D01*
X166259776Y-103766500D01*
X166240065Y-103764949D01*
X166227886Y-103763020D01*
X166220057Y-103761780D01*
X166212165Y-103762526D01*
X166176039Y-103765941D01*
X166164181Y-103766500D01*
X150559500Y-103766500D01*
X150491379Y-103746498D01*
X150444886Y-103692842D01*
X150433500Y-103640500D01*
X150433500Y-103334500D01*
X150453502Y-103266379D01*
X150507158Y-103219886D01*
X150559500Y-103208500D01*
X150848134Y-103208500D01*
X150851531Y-103208131D01*
X150902466Y-103202598D01*
X150902468Y-103202598D01*
X150910316Y-103201745D01*
X150917709Y-103198973D01*
X150917711Y-103198973D01*
X150955771Y-103184705D01*
X151026578Y-103179522D01*
X151044229Y-103184705D01*
X151082289Y-103198973D01*
X151082291Y-103198973D01*
X151089684Y-103201745D01*
X151097532Y-103202598D01*
X151097534Y-103202598D01*
X151148469Y-103208131D01*
X151151866Y-103208500D01*
X151648134Y-103208500D01*
X151710316Y-103201745D01*
X151846705Y-103150615D01*
X151963261Y-103063261D01*
X152050615Y-102946705D01*
X152101745Y-102810316D01*
X152108500Y-102748134D01*
X152108500Y-102402933D01*
X160267001Y-102402933D01*
X160267338Y-102409452D01*
X160277166Y-102504170D01*
X160280058Y-102517564D01*
X160331036Y-102670365D01*
X160337210Y-102683543D01*
X160421744Y-102820149D01*
X160430780Y-102831550D01*
X160544479Y-102945051D01*
X160555890Y-102954063D01*
X160692654Y-103038365D01*
X160705832Y-103044509D01*
X160858740Y-103095227D01*
X160872106Y-103098093D01*
X160965601Y-103107672D01*
X160972016Y-103108000D01*
X160990385Y-103108000D01*
X161005624Y-103103525D01*
X161006829Y-103102135D01*
X161008500Y-103094452D01*
X161008500Y-102172115D01*
X161004025Y-102156876D01*
X161002635Y-102155671D01*
X160994952Y-102154000D01*
X160285116Y-102154000D01*
X160269877Y-102158475D01*
X160268672Y-102159865D01*
X160267001Y-102167548D01*
X160267001Y-102402933D01*
X152108500Y-102402933D01*
X152108500Y-101751866D01*
X152101745Y-101689684D01*
X152078578Y-101627885D01*
X160267000Y-101627885D01*
X160271475Y-101643124D01*
X160272865Y-101644329D01*
X160280548Y-101646000D01*
X160990385Y-101646000D01*
X161005624Y-101641525D01*
X161006829Y-101640135D01*
X161008500Y-101632452D01*
X161008500Y-100710116D01*
X161004025Y-100694877D01*
X161002635Y-100693672D01*
X160994952Y-100692001D01*
X160972067Y-100692001D01*
X160965548Y-100692338D01*
X160870830Y-100702166D01*
X160857436Y-100705058D01*
X160704635Y-100756036D01*
X160691457Y-100762210D01*
X160554851Y-100846744D01*
X160543450Y-100855780D01*
X160429949Y-100969479D01*
X160420937Y-100980890D01*
X160336635Y-101117654D01*
X160330491Y-101130832D01*
X160279773Y-101283740D01*
X160276907Y-101297106D01*
X160267328Y-101390601D01*
X160267000Y-101397016D01*
X160267000Y-101627885D01*
X152078578Y-101627885D01*
X152050615Y-101553295D01*
X151992360Y-101475565D01*
X151967512Y-101409058D01*
X151982565Y-101339676D01*
X151992360Y-101324435D01*
X152045229Y-101253892D01*
X152045230Y-101253890D01*
X152050615Y-101246705D01*
X152101745Y-101110316D01*
X152108500Y-101048134D01*
X152108500Y-100051866D01*
X152101745Y-99989684D01*
X152050615Y-99853295D01*
X151963261Y-99736739D01*
X151965803Y-99734834D01*
X151939292Y-99686283D01*
X151944357Y-99615468D01*
X151986904Y-99558632D01*
X152053424Y-99533821D01*
X152062413Y-99533500D01*
X171510406Y-99533500D01*
X171578527Y-99553502D01*
X171599501Y-99570405D01*
X175304595Y-103275499D01*
X175338621Y-103337811D01*
X175341500Y-103364594D01*
X175341500Y-103485406D01*
X175321498Y-103553527D01*
X175304595Y-103574501D01*
X174594095Y-104285000D01*
X173907747Y-104971348D01*
X173899461Y-104978888D01*
X173892982Y-104983000D01*
X173887557Y-104988777D01*
X173846357Y-105032651D01*
X173843602Y-105035493D01*
X173823865Y-105055230D01*
X173821385Y-105058427D01*
X173813682Y-105067447D01*
X173783414Y-105099679D01*
X173779595Y-105106625D01*
X173779593Y-105106628D01*
X173773652Y-105117434D01*
X173762801Y-105133953D01*
X173750386Y-105149959D01*
X173747241Y-105157228D01*
X173747238Y-105157232D01*
X173732826Y-105190537D01*
X173727609Y-105201187D01*
X173706305Y-105239940D01*
X173704334Y-105247615D01*
X173704334Y-105247616D01*
X173701267Y-105259562D01*
X173694863Y-105278266D01*
X173686819Y-105296855D01*
X173685580Y-105304678D01*
X173685577Y-105304688D01*
X173679901Y-105340524D01*
X173677495Y-105352144D01*
X173670055Y-105381123D01*
X173666500Y-105394970D01*
X173666500Y-105415224D01*
X173664949Y-105434934D01*
X173661780Y-105454943D01*
X173662526Y-105462835D01*
X173665941Y-105498961D01*
X173666500Y-105510819D01*
X173666500Y-106521233D01*
X173665973Y-106532416D01*
X173664298Y-106539909D01*
X173664547Y-106547835D01*
X173664547Y-106547836D01*
X173666438Y-106607986D01*
X173666500Y-106611945D01*
X173666500Y-106639856D01*
X173666997Y-106643790D01*
X173666997Y-106643791D01*
X173667005Y-106643856D01*
X173667938Y-106655693D01*
X173669327Y-106699889D01*
X173674978Y-106719339D01*
X173678987Y-106738700D01*
X173681526Y-106758797D01*
X173684445Y-106766168D01*
X173684445Y-106766170D01*
X173697804Y-106799912D01*
X173701649Y-106811142D01*
X173713982Y-106853593D01*
X173718015Y-106860412D01*
X173718017Y-106860417D01*
X173724293Y-106871028D01*
X173732988Y-106888776D01*
X173740448Y-106907617D01*
X173745110Y-106914033D01*
X173745110Y-106914034D01*
X173766436Y-106943387D01*
X173772952Y-106953307D01*
X173782435Y-106969341D01*
X173795458Y-106991362D01*
X173809779Y-107005683D01*
X173822619Y-107020716D01*
X173834528Y-107037107D01*
X173856416Y-107055214D01*
X173868605Y-107065298D01*
X173877384Y-107073288D01*
X174346343Y-107542247D01*
X174353887Y-107550537D01*
X174358000Y-107557018D01*
X174363777Y-107562443D01*
X174407667Y-107603658D01*
X174410509Y-107606413D01*
X174430230Y-107626134D01*
X174433425Y-107628612D01*
X174442447Y-107636318D01*
X174474679Y-107666586D01*
X174481628Y-107670406D01*
X174492432Y-107676346D01*
X174508956Y-107687199D01*
X174524959Y-107699613D01*
X174530283Y-107701917D01*
X174578092Y-107753120D01*
X174591500Y-107809680D01*
X174591500Y-108048134D01*
X174591869Y-108051531D01*
X174598255Y-108110316D01*
X174596116Y-108110548D01*
X174596166Y-108139512D01*
X174598748Y-108139793D01*
X174592369Y-108198514D01*
X174592000Y-108205328D01*
X174592000Y-108231885D01*
X174596475Y-108247124D01*
X174597865Y-108248329D01*
X174614991Y-108252054D01*
X174677303Y-108286078D01*
X174689035Y-108299610D01*
X174731357Y-108356080D01*
X174736739Y-108363261D01*
X174737974Y-108364187D01*
X174770208Y-108423217D01*
X174765143Y-108494032D01*
X174738586Y-108535355D01*
X174736739Y-108536739D01*
X174731358Y-108543919D01*
X174688758Y-108600760D01*
X174631899Y-108643275D01*
X174623430Y-108646091D01*
X174594877Y-108654475D01*
X174593672Y-108655865D01*
X174592001Y-108663548D01*
X174592001Y-108694669D01*
X174592371Y-108701490D01*
X174598748Y-108760207D01*
X174596002Y-108760505D01*
X174596060Y-108789446D01*
X174598255Y-108789684D01*
X174591500Y-108851866D01*
X174591500Y-109348134D01*
X174591869Y-109351531D01*
X174598255Y-109410316D01*
X174595826Y-109410580D01*
X174595826Y-109439420D01*
X174598255Y-109439684D01*
X174591500Y-109501866D01*
X174591500Y-109998134D01*
X174591869Y-110001531D01*
X174598255Y-110060316D01*
X174595826Y-110060580D01*
X174595826Y-110089420D01*
X174598255Y-110089684D01*
X174591500Y-110151866D01*
X174591500Y-110648134D01*
X174591869Y-110651531D01*
X174598255Y-110710316D01*
X174595826Y-110710580D01*
X174595826Y-110739420D01*
X174598255Y-110739684D01*
X174591500Y-110801866D01*
X174591500Y-111298134D01*
X174591869Y-111301531D01*
X174598255Y-111360316D01*
X174595826Y-111360580D01*
X174595826Y-111389420D01*
X174598255Y-111389684D01*
X174591500Y-111451866D01*
X174591500Y-111948134D01*
X174591869Y-111951531D01*
X174598255Y-112010316D01*
X174595826Y-112010580D01*
X174595826Y-112039420D01*
X174598255Y-112039684D01*
X174591500Y-112101866D01*
X174591500Y-112598134D01*
X174598255Y-112660316D01*
X174649385Y-112796705D01*
X174736739Y-112913261D01*
X174853295Y-113000615D01*
X174989684Y-113051745D01*
X175051866Y-113058500D01*
X176148134Y-113058500D01*
X176210316Y-113051745D01*
X176346705Y-113000615D01*
X176349842Y-112998264D01*
X176407550Y-112983500D01*
X180835406Y-112983500D01*
X180903527Y-113003502D01*
X180924501Y-113020405D01*
X185104595Y-117200499D01*
X185138621Y-117262811D01*
X185141500Y-117289594D01*
X185141500Y-118598134D01*
X185148255Y-118660316D01*
X185199385Y-118796705D01*
X185204771Y-118803892D01*
X185209079Y-118811760D01*
X185206238Y-118813315D01*
X185225528Y-118864921D01*
X185210487Y-118934306D01*
X185160321Y-118984544D01*
X185099856Y-119000000D01*
X172384500Y-119000000D01*
X172316379Y-118979998D01*
X172269886Y-118926342D01*
X172258500Y-118874000D01*
X172258500Y-118626866D01*
X172251745Y-118564684D01*
X172200615Y-118428295D01*
X172113261Y-118311739D01*
X171996705Y-118224385D01*
X171860316Y-118173255D01*
X171798134Y-118166500D01*
X170001866Y-118166500D01*
X169939684Y-118173255D01*
X169803295Y-118224385D01*
X169686739Y-118311739D01*
X169599385Y-118428295D01*
X169596233Y-118436703D01*
X169554919Y-118546907D01*
X169512277Y-118603671D01*
X169445716Y-118628371D01*
X169376367Y-118613163D01*
X169343743Y-118587476D01*
X169293151Y-118531875D01*
X169293142Y-118531866D01*
X169289670Y-118528051D01*
X169285619Y-118524852D01*
X169285615Y-118524848D01*
X169118414Y-118392800D01*
X169118410Y-118392798D01*
X169114359Y-118389598D01*
X168918789Y-118281638D01*
X168913920Y-118279914D01*
X168913916Y-118279912D01*
X168713087Y-118208795D01*
X168713083Y-118208794D01*
X168708212Y-118207069D01*
X168703119Y-118206162D01*
X168703116Y-118206161D01*
X168493373Y-118168800D01*
X168493367Y-118168799D01*
X168488284Y-118167894D01*
X168414452Y-118166992D01*
X168270081Y-118165228D01*
X168270079Y-118165228D01*
X168264911Y-118165165D01*
X168044091Y-118198955D01*
X167831756Y-118268357D01*
X167633607Y-118371507D01*
X167629474Y-118374610D01*
X167629471Y-118374612D01*
X167459100Y-118502530D01*
X167454965Y-118505635D01*
X167415525Y-118546907D01*
X167314656Y-118652460D01*
X167300629Y-118667138D01*
X167193201Y-118824621D01*
X167138293Y-118869621D01*
X167067768Y-118877792D01*
X167004021Y-118846538D01*
X166983324Y-118822054D01*
X166902822Y-118697617D01*
X166902820Y-118697614D01*
X166900014Y-118693277D01*
X166749670Y-118528051D01*
X166745619Y-118524852D01*
X166745615Y-118524848D01*
X166578414Y-118392800D01*
X166578410Y-118392798D01*
X166574359Y-118389598D01*
X166378789Y-118281638D01*
X166373920Y-118279914D01*
X166373916Y-118279912D01*
X166173087Y-118208795D01*
X166173083Y-118208794D01*
X166168212Y-118207069D01*
X166163119Y-118206162D01*
X166163116Y-118206161D01*
X165953373Y-118168800D01*
X165953367Y-118168799D01*
X165948284Y-118167894D01*
X165874452Y-118166992D01*
X165730081Y-118165228D01*
X165730079Y-118165228D01*
X165724911Y-118165165D01*
X165504091Y-118198955D01*
X165291756Y-118268357D01*
X165093607Y-118371507D01*
X165089474Y-118374610D01*
X165089471Y-118374612D01*
X164919100Y-118502530D01*
X164914965Y-118505635D01*
X164875525Y-118546907D01*
X164774656Y-118652460D01*
X164760629Y-118667138D01*
X164653201Y-118824621D01*
X164598293Y-118869621D01*
X164527768Y-118877792D01*
X164464021Y-118846538D01*
X164443324Y-118822054D01*
X164362822Y-118697617D01*
X164362820Y-118697614D01*
X164360014Y-118693277D01*
X164209670Y-118528051D01*
X164205619Y-118524852D01*
X164205615Y-118524848D01*
X164038414Y-118392800D01*
X164038410Y-118392798D01*
X164034359Y-118389598D01*
X163838789Y-118281638D01*
X163833920Y-118279914D01*
X163833916Y-118279912D01*
X163633087Y-118208795D01*
X163633083Y-118208794D01*
X163628212Y-118207069D01*
X163623119Y-118206162D01*
X163623116Y-118206161D01*
X163413373Y-118168800D01*
X163413367Y-118168799D01*
X163408284Y-118167894D01*
X163334452Y-118166992D01*
X163190081Y-118165228D01*
X163190079Y-118165228D01*
X163184911Y-118165165D01*
X162964091Y-118198955D01*
X162751756Y-118268357D01*
X162553607Y-118371507D01*
X162549474Y-118374610D01*
X162549471Y-118374612D01*
X162379100Y-118502530D01*
X162374965Y-118505635D01*
X162335525Y-118546907D01*
X162234656Y-118652460D01*
X162220629Y-118667138D01*
X162094743Y-118851680D01*
X162092567Y-118856367D01*
X162092564Y-118856373D01*
X162059757Y-118927050D01*
X162012933Y-118980417D01*
X161945469Y-119000000D01*
X96626000Y-119000000D01*
X96557879Y-118979998D01*
X96511386Y-118926342D01*
X96500000Y-118874000D01*
X96500000Y-115008062D01*
X96520002Y-114939941D01*
X96573658Y-114893448D01*
X96643932Y-114883344D01*
X96670229Y-114890080D01*
X96707282Y-114903971D01*
X96707288Y-114903973D01*
X96714684Y-114906745D01*
X96776866Y-114913500D01*
X97773134Y-114913500D01*
X97835316Y-114906745D01*
X97971705Y-114855615D01*
X98088261Y-114768261D01*
X98175615Y-114651705D01*
X98226745Y-114515316D01*
X98233500Y-114453134D01*
X98233500Y-113556866D01*
X98233091Y-113553100D01*
X98233106Y-113553014D01*
X98232947Y-113550072D01*
X98233641Y-113550034D01*
X98245624Y-113483218D01*
X98293948Y-113431205D01*
X98358355Y-113413500D01*
X98923134Y-113413500D01*
X98985316Y-113406745D01*
X99121705Y-113355615D01*
X99238261Y-113268261D01*
X99325615Y-113151705D01*
X99325861Y-113151049D01*
X99373175Y-113103843D01*
X99433433Y-113088500D01*
X107240406Y-113088500D01*
X107308527Y-113108502D01*
X107329501Y-113125405D01*
X108946343Y-114742247D01*
X108953887Y-114750537D01*
X108958000Y-114757018D01*
X108963777Y-114762443D01*
X109007667Y-114803658D01*
X109010509Y-114806413D01*
X109030231Y-114826135D01*
X109033373Y-114828572D01*
X109033433Y-114828619D01*
X109042445Y-114836317D01*
X109062996Y-114855615D01*
X109074679Y-114866586D01*
X109081622Y-114870403D01*
X109092431Y-114876345D01*
X109108953Y-114887198D01*
X109124959Y-114899614D01*
X109132237Y-114902764D01*
X109132238Y-114902764D01*
X109165537Y-114917174D01*
X109176187Y-114922391D01*
X109214940Y-114943695D01*
X109222615Y-114945666D01*
X109222616Y-114945666D01*
X109234562Y-114948733D01*
X109253267Y-114955137D01*
X109271855Y-114963181D01*
X109279678Y-114964420D01*
X109279688Y-114964423D01*
X109315524Y-114970099D01*
X109327144Y-114972505D01*
X109361771Y-114981395D01*
X109369970Y-114983500D01*
X109390224Y-114983500D01*
X109409934Y-114985051D01*
X109429943Y-114988220D01*
X109437835Y-114987474D01*
X109473961Y-114984059D01*
X109485819Y-114983500D01*
X111250050Y-114983500D01*
X111318171Y-115003502D01*
X111331271Y-115014059D01*
X111331325Y-115013989D01*
X111337584Y-115018844D01*
X111343193Y-115024453D01*
X111350017Y-115028489D01*
X111350020Y-115028491D01*
X111400898Y-115058580D01*
X111486399Y-115109145D01*
X111494010Y-115111356D01*
X111494012Y-115111357D01*
X111526031Y-115120659D01*
X111646169Y-115155562D01*
X111652574Y-115156066D01*
X111652579Y-115156067D01*
X111681042Y-115158307D01*
X111681050Y-115158307D01*
X111683498Y-115158500D01*
X112841502Y-115158500D01*
X112843950Y-115158307D01*
X112843958Y-115158307D01*
X112872421Y-115156067D01*
X112872426Y-115156066D01*
X112878831Y-115155562D01*
X112998969Y-115120659D01*
X113030988Y-115111357D01*
X113030990Y-115111356D01*
X113038601Y-115109145D01*
X113124102Y-115058580D01*
X113174980Y-115028491D01*
X113174983Y-115028489D01*
X113181807Y-115024453D01*
X113299453Y-114906807D01*
X113301706Y-114902998D01*
X113357996Y-114862345D01*
X113428888Y-114858494D01*
X113490609Y-114893582D01*
X113497276Y-114901276D01*
X113500547Y-114906807D01*
X113618193Y-115024453D01*
X113625017Y-115028489D01*
X113625020Y-115028491D01*
X113675898Y-115058580D01*
X113761399Y-115109145D01*
X113769010Y-115111356D01*
X113769012Y-115111357D01*
X113801031Y-115120659D01*
X113921169Y-115155562D01*
X113927574Y-115156066D01*
X113927579Y-115156067D01*
X113956042Y-115158307D01*
X113956050Y-115158307D01*
X113958498Y-115158500D01*
X114528870Y-115158500D01*
X114558176Y-115162671D01*
X114559355Y-115163181D01*
X114567183Y-115164421D01*
X114567190Y-115164423D01*
X114603024Y-115170099D01*
X114614644Y-115172505D01*
X114646459Y-115180673D01*
X114657470Y-115183500D01*
X114677724Y-115183500D01*
X114697434Y-115185051D01*
X114717443Y-115188220D01*
X114725335Y-115187474D01*
X114744080Y-115185702D01*
X114761462Y-115184059D01*
X114773319Y-115183500D01*
X119959406Y-115183500D01*
X119970589Y-115184027D01*
X119978082Y-115185702D01*
X119986008Y-115185453D01*
X119986009Y-115185453D01*
X120046159Y-115183562D01*
X120050118Y-115183500D01*
X120078029Y-115183500D01*
X120081964Y-115183003D01*
X120082029Y-115182995D01*
X120093866Y-115182062D01*
X120126124Y-115181048D01*
X120130143Y-115180922D01*
X120138062Y-115180673D01*
X120157516Y-115175021D01*
X120176873Y-115171013D01*
X120189103Y-115169468D01*
X120189104Y-115169468D01*
X120196970Y-115168474D01*
X120204341Y-115165555D01*
X120204343Y-115165555D01*
X120238085Y-115152196D01*
X120249315Y-115148351D01*
X120284156Y-115138229D01*
X120284157Y-115138229D01*
X120291766Y-115136018D01*
X120298585Y-115131985D01*
X120298590Y-115131983D01*
X120309201Y-115125707D01*
X120326949Y-115117012D01*
X120345790Y-115109552D01*
X120381560Y-115083564D01*
X120391480Y-115077048D01*
X120422708Y-115058580D01*
X120422711Y-115058578D01*
X120429535Y-115054542D01*
X120443856Y-115040221D01*
X120458890Y-115027380D01*
X120468867Y-115020131D01*
X120475280Y-115015472D01*
X120503471Y-114981395D01*
X120511461Y-114972616D01*
X120777404Y-114706673D01*
X120839716Y-114672647D01*
X120906166Y-114676175D01*
X121038707Y-114720137D01*
X121052086Y-114723005D01*
X121146438Y-114732672D01*
X121152854Y-114733000D01*
X121177885Y-114733000D01*
X121193124Y-114728525D01*
X121194329Y-114727135D01*
X121196000Y-114719452D01*
X121196000Y-114714884D01*
X121704000Y-114714884D01*
X121708475Y-114730123D01*
X121709865Y-114731328D01*
X121717548Y-114732999D01*
X121747095Y-114732999D01*
X121753614Y-114732662D01*
X121849206Y-114722743D01*
X121862600Y-114719851D01*
X122016784Y-114668412D01*
X122029962Y-114662239D01*
X122167807Y-114576937D01*
X122179208Y-114567901D01*
X122293739Y-114453171D01*
X122302751Y-114441760D01*
X122387816Y-114303757D01*
X122393963Y-114290576D01*
X122445138Y-114136290D01*
X122448005Y-114122914D01*
X122457672Y-114028562D01*
X122458000Y-114022146D01*
X122458000Y-113772115D01*
X122453525Y-113756876D01*
X122452135Y-113755671D01*
X122444452Y-113754000D01*
X121722115Y-113754000D01*
X121706876Y-113758475D01*
X121705671Y-113759865D01*
X121704000Y-113767548D01*
X121704000Y-114714884D01*
X121196000Y-114714884D01*
X121196000Y-114271866D01*
X121211584Y-114211167D01*
X121218695Y-114198233D01*
X121223733Y-114178610D01*
X121230137Y-114159907D01*
X121235033Y-114148593D01*
X121235033Y-114148592D01*
X121238181Y-114141318D01*
X121239420Y-114133495D01*
X121239423Y-114133485D01*
X121245099Y-114097649D01*
X121247505Y-114086029D01*
X121256528Y-114050884D01*
X121256528Y-114050883D01*
X121258500Y-114043203D01*
X121258500Y-114022949D01*
X121260051Y-114003238D01*
X121261980Y-113991059D01*
X121263220Y-113983230D01*
X121259059Y-113939211D01*
X121258500Y-113927354D01*
X121258500Y-113227885D01*
X121704000Y-113227885D01*
X121708475Y-113243124D01*
X121709865Y-113244329D01*
X121717548Y-113246000D01*
X122439884Y-113246000D01*
X122455123Y-113241525D01*
X122456328Y-113240135D01*
X122457999Y-113232452D01*
X122457999Y-112977905D01*
X122457662Y-112971386D01*
X122447743Y-112875794D01*
X122444851Y-112862400D01*
X122393412Y-112708216D01*
X122387239Y-112695038D01*
X122301937Y-112557193D01*
X122292901Y-112545792D01*
X122178171Y-112431261D01*
X122166760Y-112422249D01*
X122028757Y-112337184D01*
X122015576Y-112331037D01*
X121861290Y-112279862D01*
X121847914Y-112276995D01*
X121753562Y-112267328D01*
X121747145Y-112267000D01*
X121722115Y-112267000D01*
X121706876Y-112271475D01*
X121705671Y-112272865D01*
X121704000Y-112280548D01*
X121704000Y-113227885D01*
X121258500Y-113227885D01*
X121258500Y-111715774D01*
X128718102Y-111715774D01*
X128718302Y-111721103D01*
X128718302Y-111721105D01*
X128721320Y-111801498D01*
X128726751Y-111946158D01*
X128727846Y-111951377D01*
X128732329Y-111972745D01*
X128774093Y-112171791D01*
X128776051Y-112176750D01*
X128776052Y-112176752D01*
X128852137Y-112369409D01*
X128858776Y-112386221D01*
X128861543Y-112390780D01*
X128861544Y-112390783D01*
X128926883Y-112498458D01*
X128978377Y-112583317D01*
X128981874Y-112587347D01*
X129119978Y-112746498D01*
X129129477Y-112757445D01*
X129167104Y-112788297D01*
X129303627Y-112900240D01*
X129303633Y-112900244D01*
X129307755Y-112903624D01*
X129312391Y-112906263D01*
X129312394Y-112906265D01*
X129418363Y-112966586D01*
X129508114Y-113017675D01*
X129724825Y-113096337D01*
X129730074Y-113097286D01*
X129730077Y-113097287D01*
X129947608Y-113136623D01*
X129947615Y-113136624D01*
X129951692Y-113137361D01*
X129969414Y-113138197D01*
X129974356Y-113138430D01*
X129974363Y-113138430D01*
X129975844Y-113138500D01*
X130137890Y-113138500D01*
X130204809Y-113132822D01*
X130304409Y-113124371D01*
X130304413Y-113124370D01*
X130309720Y-113123920D01*
X130314875Y-113122582D01*
X130314881Y-113122581D01*
X130527703Y-113067343D01*
X130527707Y-113067342D01*
X130532872Y-113066001D01*
X130537738Y-113063809D01*
X130537741Y-113063808D01*
X130689981Y-112995229D01*
X130743075Y-112971312D01*
X130934319Y-112842559D01*
X130974854Y-112803891D01*
X131034458Y-112747031D01*
X131101135Y-112683424D01*
X131113153Y-112667272D01*
X131235568Y-112502740D01*
X131238754Y-112498458D01*
X131271363Y-112434322D01*
X131320750Y-112337184D01*
X131343240Y-112292949D01*
X131346817Y-112281431D01*
X131410024Y-112077871D01*
X131411607Y-112072773D01*
X131421250Y-112000016D01*
X131429493Y-111937821D01*
X132651500Y-111937821D01*
X132691060Y-112250975D01*
X132769557Y-112556702D01*
X132771010Y-112560371D01*
X132771010Y-112560372D01*
X132881279Y-112838878D01*
X132885753Y-112850179D01*
X132887659Y-112853647D01*
X132887660Y-112853648D01*
X133026409Y-113106029D01*
X133037816Y-113126779D01*
X133144518Y-113273642D01*
X133206365Y-113358767D01*
X133223346Y-113382140D01*
X133439418Y-113612233D01*
X133682625Y-113813432D01*
X133949131Y-113982562D01*
X133952710Y-113984246D01*
X133952717Y-113984250D01*
X134231144Y-114115267D01*
X134231148Y-114115269D01*
X134234734Y-114116956D01*
X134534928Y-114214495D01*
X134844980Y-114273641D01*
X135081162Y-114288500D01*
X135238838Y-114288500D01*
X135475020Y-114273641D01*
X135785072Y-114214495D01*
X136085266Y-114116956D01*
X136088852Y-114115269D01*
X136088856Y-114115267D01*
X136367283Y-113984250D01*
X136367290Y-113984246D01*
X136370869Y-113982562D01*
X136637375Y-113813432D01*
X136880582Y-113612233D01*
X137096654Y-113382140D01*
X137113636Y-113358767D01*
X137175482Y-113273642D01*
X137282184Y-113126779D01*
X137293592Y-113106029D01*
X137432340Y-112853648D01*
X137432341Y-112853647D01*
X137434247Y-112850179D01*
X137438722Y-112838878D01*
X137548990Y-112560372D01*
X137548990Y-112560371D01*
X137550443Y-112556702D01*
X137628940Y-112250975D01*
X137668500Y-111937821D01*
X137668500Y-111715774D01*
X138878102Y-111715774D01*
X138878302Y-111721103D01*
X138878302Y-111721105D01*
X138881320Y-111801498D01*
X138886751Y-111946158D01*
X138887846Y-111951377D01*
X138892329Y-111972745D01*
X138934093Y-112171791D01*
X138936051Y-112176750D01*
X138936052Y-112176752D01*
X139012137Y-112369409D01*
X139018776Y-112386221D01*
X139021543Y-112390780D01*
X139021544Y-112390783D01*
X139086883Y-112498458D01*
X139138377Y-112583317D01*
X139141874Y-112587347D01*
X139279978Y-112746498D01*
X139289477Y-112757445D01*
X139327104Y-112788297D01*
X139463627Y-112900240D01*
X139463633Y-112900244D01*
X139467755Y-112903624D01*
X139472391Y-112906263D01*
X139472394Y-112906265D01*
X139578363Y-112966586D01*
X139668114Y-113017675D01*
X139884825Y-113096337D01*
X139890074Y-113097286D01*
X139890077Y-113097287D01*
X140107608Y-113136623D01*
X140107615Y-113136624D01*
X140111692Y-113137361D01*
X140129414Y-113138197D01*
X140134356Y-113138430D01*
X140134363Y-113138430D01*
X140135844Y-113138500D01*
X140297890Y-113138500D01*
X140364809Y-113132822D01*
X140464409Y-113124371D01*
X140464413Y-113124370D01*
X140469720Y-113123920D01*
X140474875Y-113122582D01*
X140474881Y-113122581D01*
X140687703Y-113067343D01*
X140687707Y-113067342D01*
X140692872Y-113066001D01*
X140697738Y-113063809D01*
X140697741Y-113063808D01*
X140849981Y-112995229D01*
X140903075Y-112971312D01*
X141094319Y-112842559D01*
X141134854Y-112803891D01*
X141194458Y-112747031D01*
X141261135Y-112683424D01*
X141273153Y-112667272D01*
X141395568Y-112502740D01*
X141398754Y-112498458D01*
X141431363Y-112434322D01*
X141480750Y-112337184D01*
X141503240Y-112292949D01*
X141506817Y-112281431D01*
X141570024Y-112077871D01*
X141571607Y-112072773D01*
X141581250Y-112000016D01*
X141601198Y-111849511D01*
X141601198Y-111849506D01*
X141601898Y-111844226D01*
X141593249Y-111613842D01*
X141545907Y-111388209D01*
X141543948Y-111383248D01*
X141463185Y-111178744D01*
X141463184Y-111178742D01*
X141461224Y-111173779D01*
X141458406Y-111169134D01*
X141344390Y-110981243D01*
X141341623Y-110976683D01*
X141287117Y-110913870D01*
X141194023Y-110806588D01*
X141194021Y-110806586D01*
X141190523Y-110802555D01*
X141114355Y-110740101D01*
X141016373Y-110659760D01*
X141016367Y-110659756D01*
X141012245Y-110656376D01*
X141007609Y-110653737D01*
X141007606Y-110653735D01*
X140816529Y-110544968D01*
X140811886Y-110542325D01*
X140595175Y-110463663D01*
X140589926Y-110462714D01*
X140589923Y-110462713D01*
X140372392Y-110423377D01*
X140372385Y-110423376D01*
X140368308Y-110422639D01*
X140350586Y-110421803D01*
X140345644Y-110421570D01*
X140345637Y-110421570D01*
X140344156Y-110421500D01*
X140182110Y-110421500D01*
X140115191Y-110427178D01*
X140015591Y-110435629D01*
X140015587Y-110435630D01*
X140010280Y-110436080D01*
X140005125Y-110437418D01*
X140005119Y-110437419D01*
X139792297Y-110492657D01*
X139792293Y-110492658D01*
X139787128Y-110493999D01*
X139782262Y-110496191D01*
X139782259Y-110496192D01*
X139674287Y-110544830D01*
X139576925Y-110588688D01*
X139385681Y-110717441D01*
X139381824Y-110721120D01*
X139381822Y-110721122D01*
X139365818Y-110736389D01*
X139218865Y-110876576D01*
X139081246Y-111061542D01*
X138976760Y-111267051D01*
X138975178Y-111272145D01*
X138975177Y-111272148D01*
X138937110Y-111394743D01*
X138908393Y-111487227D01*
X138907692Y-111492516D01*
X138879049Y-111708632D01*
X138878102Y-111715774D01*
X137668500Y-111715774D01*
X137668500Y-111622179D01*
X137628940Y-111309025D01*
X137550443Y-111003298D01*
X137539905Y-110976683D01*
X137435702Y-110713495D01*
X137435700Y-110713490D01*
X137434247Y-110709821D01*
X137367653Y-110588688D01*
X137284093Y-110436693D01*
X137284091Y-110436690D01*
X137282184Y-110433221D01*
X137096654Y-110177860D01*
X136908401Y-109977391D01*
X136883297Y-109950658D01*
X136883296Y-109950657D01*
X136880582Y-109947767D01*
X136876405Y-109944311D01*
X136665850Y-109770125D01*
X136637375Y-109746568D01*
X136370869Y-109577438D01*
X136367290Y-109575754D01*
X136367283Y-109575750D01*
X136088856Y-109444733D01*
X136088852Y-109444731D01*
X136085266Y-109443044D01*
X136074113Y-109439420D01*
X135836451Y-109362199D01*
X135785072Y-109345505D01*
X135475020Y-109286359D01*
X135238838Y-109271500D01*
X135081162Y-109271500D01*
X134844980Y-109286359D01*
X134534928Y-109345505D01*
X134483549Y-109362199D01*
X134245888Y-109439420D01*
X134234734Y-109443044D01*
X134231148Y-109444731D01*
X134231144Y-109444733D01*
X133952717Y-109575750D01*
X133952710Y-109575754D01*
X133949131Y-109577438D01*
X133682625Y-109746568D01*
X133654150Y-109770125D01*
X133443596Y-109944311D01*
X133439418Y-109947767D01*
X133436704Y-109950657D01*
X133436703Y-109950658D01*
X133411599Y-109977391D01*
X133223346Y-110177860D01*
X133037816Y-110433221D01*
X133035909Y-110436690D01*
X133035907Y-110436693D01*
X132952347Y-110588688D01*
X132885753Y-110709821D01*
X132884300Y-110713490D01*
X132884298Y-110713495D01*
X132780095Y-110976683D01*
X132769557Y-111003298D01*
X132691060Y-111309025D01*
X132651500Y-111622179D01*
X132651500Y-111937821D01*
X131429493Y-111937821D01*
X131441198Y-111849511D01*
X131441198Y-111849506D01*
X131441898Y-111844226D01*
X131433249Y-111613842D01*
X131385907Y-111388209D01*
X131383948Y-111383248D01*
X131303185Y-111178744D01*
X131303184Y-111178742D01*
X131301224Y-111173779D01*
X131298456Y-111169217D01*
X131298453Y-111169211D01*
X131221943Y-111043126D01*
X131203704Y-110974512D01*
X131225456Y-110906930D01*
X131280292Y-110861836D01*
X131339553Y-110852150D01*
X131345065Y-110852584D01*
X131354930Y-110852584D01*
X131597390Y-110833502D01*
X131607137Y-110831959D01*
X131843624Y-110775183D01*
X131853009Y-110772134D01*
X132077700Y-110679064D01*
X132086494Y-110674583D01*
X132281167Y-110555287D01*
X132290627Y-110544830D01*
X132286844Y-110536054D01*
X130991922Y-109241132D01*
X131714408Y-109241132D01*
X131714539Y-109242965D01*
X131718790Y-109249580D01*
X132643010Y-110173800D01*
X132655390Y-110180560D01*
X132663040Y-110174833D01*
X132784583Y-109976494D01*
X132789064Y-109967700D01*
X132882134Y-109743009D01*
X132885183Y-109733624D01*
X132941959Y-109497137D01*
X132943502Y-109487390D01*
X132962584Y-109244930D01*
X132962584Y-109235070D01*
X132943502Y-108992610D01*
X132941959Y-108982863D01*
X132885183Y-108746376D01*
X132882134Y-108736991D01*
X132789064Y-108512300D01*
X132784583Y-108503506D01*
X132665287Y-108308833D01*
X132654830Y-108299373D01*
X132646054Y-108303156D01*
X131722022Y-109227188D01*
X131714408Y-109241132D01*
X130991922Y-109241132D01*
X130056990Y-108306200D01*
X130044610Y-108299440D01*
X130036960Y-108305167D01*
X129915417Y-108503506D01*
X129910936Y-108512300D01*
X129817866Y-108736991D01*
X129814817Y-108746376D01*
X129758041Y-108982863D01*
X129756498Y-108992610D01*
X129737416Y-109235070D01*
X129737416Y-109244930D01*
X129756498Y-109487390D01*
X129758041Y-109497137D01*
X129814817Y-109733624D01*
X129817866Y-109743009D01*
X129910936Y-109967700D01*
X129915417Y-109976494D01*
X130042496Y-110183867D01*
X130048294Y-110191847D01*
X130070017Y-110217282D01*
X130099048Y-110282072D01*
X130088443Y-110352272D01*
X130041568Y-110405594D01*
X129984860Y-110424661D01*
X129937663Y-110428665D01*
X129855591Y-110435629D01*
X129855587Y-110435630D01*
X129850280Y-110436080D01*
X129845125Y-110437418D01*
X129845119Y-110437419D01*
X129632297Y-110492657D01*
X129632293Y-110492658D01*
X129627128Y-110493999D01*
X129622262Y-110496191D01*
X129622259Y-110496192D01*
X129514287Y-110544830D01*
X129416925Y-110588688D01*
X129225681Y-110717441D01*
X129221824Y-110721120D01*
X129221822Y-110721122D01*
X129205818Y-110736389D01*
X129058865Y-110876576D01*
X128921246Y-111061542D01*
X128816760Y-111267051D01*
X128815178Y-111272145D01*
X128815177Y-111272148D01*
X128777110Y-111394743D01*
X128748393Y-111487227D01*
X128747692Y-111492516D01*
X128719049Y-111708632D01*
X128718102Y-111715774D01*
X121258500Y-111715774D01*
X121258500Y-111459500D01*
X121278502Y-111391379D01*
X121332158Y-111344886D01*
X121384500Y-111333500D01*
X121750400Y-111333500D01*
X121753646Y-111333163D01*
X121753650Y-111333163D01*
X121849308Y-111323238D01*
X121849312Y-111323237D01*
X121856166Y-111322526D01*
X121862702Y-111320345D01*
X121862704Y-111320345D01*
X122007167Y-111272148D01*
X122023946Y-111266550D01*
X122174348Y-111173478D01*
X122299305Y-111048303D01*
X122341214Y-110980315D01*
X122388275Y-110903968D01*
X122388276Y-110903966D01*
X122392115Y-110897738D01*
X122432359Y-110776405D01*
X122445632Y-110736389D01*
X122445632Y-110736387D01*
X122447797Y-110729861D01*
X122448693Y-110721122D01*
X122455597Y-110653735D01*
X122458500Y-110625400D01*
X122458500Y-109574600D01*
X122457951Y-109569306D01*
X122448238Y-109475692D01*
X122448237Y-109475688D01*
X122447526Y-109468834D01*
X122445240Y-109461980D01*
X122393868Y-109308002D01*
X122391550Y-109301054D01*
X122298478Y-109150652D01*
X122173303Y-109025695D01*
X122143372Y-109007245D01*
X122028968Y-108936725D01*
X122028966Y-108936724D01*
X122022738Y-108932885D01*
X121939291Y-108905207D01*
X121861389Y-108879368D01*
X121861387Y-108879368D01*
X121854861Y-108877203D01*
X121848025Y-108876503D01*
X121848022Y-108876502D01*
X121804969Y-108872091D01*
X121750400Y-108866500D01*
X121149600Y-108866500D01*
X121146354Y-108866837D01*
X121146350Y-108866837D01*
X121050692Y-108876762D01*
X121050688Y-108876763D01*
X121043834Y-108877474D01*
X121037298Y-108879655D01*
X121037296Y-108879655D01*
X120905194Y-108923728D01*
X120876054Y-108933450D01*
X120725652Y-109026522D01*
X120600695Y-109151697D01*
X120598094Y-109155916D01*
X120540970Y-109196417D01*
X120470047Y-109199649D01*
X120408635Y-109164024D01*
X120402078Y-109156470D01*
X120398478Y-109150652D01*
X120273303Y-109025695D01*
X120243372Y-109007245D01*
X120128968Y-108936725D01*
X120128966Y-108936724D01*
X120122738Y-108932885D01*
X120039291Y-108905207D01*
X119961389Y-108879368D01*
X119961387Y-108879368D01*
X119954861Y-108877203D01*
X119948025Y-108876503D01*
X119948022Y-108876502D01*
X119904969Y-108872091D01*
X119850400Y-108866500D01*
X119249600Y-108866500D01*
X119246354Y-108866837D01*
X119246350Y-108866837D01*
X119150692Y-108876762D01*
X119150688Y-108876763D01*
X119143834Y-108877474D01*
X119137298Y-108879655D01*
X119137296Y-108879655D01*
X119005194Y-108923728D01*
X118976054Y-108933450D01*
X118825652Y-109026522D01*
X118700695Y-109151697D01*
X118696855Y-109157927D01*
X118696854Y-109157928D01*
X118660286Y-109217253D01*
X118607885Y-109302262D01*
X118604881Y-109311320D01*
X118556718Y-109456528D01*
X118552203Y-109470139D01*
X118541500Y-109574600D01*
X118541500Y-110160406D01*
X118521498Y-110228527D01*
X118504595Y-110249501D01*
X116974500Y-111779595D01*
X116912188Y-111813621D01*
X116885405Y-111816500D01*
X115549950Y-111816500D01*
X115481829Y-111796498D01*
X115468729Y-111785941D01*
X115468675Y-111786011D01*
X115462415Y-111781155D01*
X115456807Y-111775547D01*
X115449983Y-111771511D01*
X115449980Y-111771509D01*
X115320427Y-111694892D01*
X115320428Y-111694892D01*
X115313601Y-111690855D01*
X115305990Y-111688644D01*
X115305988Y-111688643D01*
X115245304Y-111671013D01*
X115153831Y-111644438D01*
X115147426Y-111643934D01*
X115147421Y-111643933D01*
X115118958Y-111641693D01*
X115118950Y-111641693D01*
X115116502Y-111641500D01*
X114159500Y-111641500D01*
X114091379Y-111621498D01*
X114044886Y-111567842D01*
X114033500Y-111515500D01*
X114033500Y-110078767D01*
X114034027Y-110067584D01*
X114035702Y-110060091D01*
X114035134Y-110042001D01*
X114033562Y-109992001D01*
X114033500Y-109988043D01*
X114033500Y-109960144D01*
X114032996Y-109956153D01*
X114032063Y-109944311D01*
X114030923Y-109908036D01*
X114030674Y-109900111D01*
X114028462Y-109892497D01*
X114028461Y-109892492D01*
X114025023Y-109880659D01*
X114021012Y-109861295D01*
X114019467Y-109849064D01*
X114018474Y-109841203D01*
X114015557Y-109833836D01*
X114015556Y-109833831D01*
X114002198Y-109800092D01*
X113998354Y-109788865D01*
X113991856Y-109766500D01*
X113986018Y-109746407D01*
X113975707Y-109728972D01*
X113967012Y-109711224D01*
X113959552Y-109692383D01*
X113933564Y-109656613D01*
X113927048Y-109646693D01*
X113908580Y-109615465D01*
X113908578Y-109615462D01*
X113904542Y-109608638D01*
X113890221Y-109594317D01*
X113877380Y-109579283D01*
X113865472Y-109562893D01*
X113831395Y-109534702D01*
X113822616Y-109526712D01*
X112231075Y-107935170D01*
X130409373Y-107935170D01*
X130413156Y-107943946D01*
X131337188Y-108867978D01*
X131351132Y-108875592D01*
X131352965Y-108875461D01*
X131359580Y-108871210D01*
X132283800Y-107946990D01*
X132290560Y-107934610D01*
X132284833Y-107926960D01*
X132086494Y-107805417D01*
X132077700Y-107800936D01*
X131853009Y-107707866D01*
X131843624Y-107704817D01*
X131607137Y-107648041D01*
X131597390Y-107646498D01*
X131354930Y-107627416D01*
X131345070Y-107627416D01*
X131102610Y-107646498D01*
X131092863Y-107648041D01*
X130856376Y-107704817D01*
X130846991Y-107707866D01*
X130622300Y-107800936D01*
X130613506Y-107805417D01*
X130418833Y-107924713D01*
X130409373Y-107935170D01*
X112231075Y-107935170D01*
X111199753Y-106903848D01*
X111165727Y-106841536D01*
X111170792Y-106770720D01*
X111213339Y-106713885D01*
X111237596Y-106699647D01*
X111243775Y-106696896D01*
X111256752Y-106691118D01*
X111274256Y-106678401D01*
X111365724Y-106611945D01*
X111411253Y-106578866D01*
X111415675Y-106573955D01*
X111534621Y-106441852D01*
X111534622Y-106441851D01*
X111539040Y-106436944D01*
X111634527Y-106271556D01*
X111693542Y-106089928D01*
X111694823Y-106077745D01*
X111713504Y-105900000D01*
X111715798Y-105900241D01*
X111730361Y-105847008D01*
X111732255Y-105843806D01*
X111737114Y-105837541D01*
X111754674Y-105796963D01*
X111759891Y-105786313D01*
X111781195Y-105747560D01*
X111786233Y-105727937D01*
X111792637Y-105709234D01*
X111797533Y-105697920D01*
X111797533Y-105697919D01*
X111800681Y-105690645D01*
X111801920Y-105682822D01*
X111801923Y-105682812D01*
X111807599Y-105646976D01*
X111810005Y-105635356D01*
X111819028Y-105600211D01*
X111819028Y-105600210D01*
X111821000Y-105592530D01*
X111821000Y-105572276D01*
X111822551Y-105552565D01*
X111824480Y-105540386D01*
X111825720Y-105532557D01*
X111821559Y-105488538D01*
X111821000Y-105476681D01*
X111821000Y-105182634D01*
X111841002Y-105114513D01*
X111880697Y-105075490D01*
X111908284Y-105058419D01*
X111924348Y-105048478D01*
X112010784Y-104961891D01*
X112073066Y-104927812D01*
X112143886Y-104932815D01*
X112188975Y-104961736D01*
X112223444Y-104996145D01*
X112276697Y-105049305D01*
X112282927Y-105053145D01*
X112282928Y-105053146D01*
X112420246Y-105137790D01*
X112427262Y-105142115D01*
X112472839Y-105157232D01*
X112588611Y-105195632D01*
X112588613Y-105195632D01*
X112595139Y-105197797D01*
X112601975Y-105198497D01*
X112601978Y-105198498D01*
X112645031Y-105202909D01*
X112699600Y-105208500D01*
X113325400Y-105208500D01*
X113328646Y-105208163D01*
X113328650Y-105208163D01*
X113424308Y-105198238D01*
X113424312Y-105198237D01*
X113431166Y-105197526D01*
X113437702Y-105195345D01*
X113437704Y-105195345D01*
X113590077Y-105144509D01*
X113598946Y-105141550D01*
X113749348Y-105048478D01*
X113874305Y-104923303D01*
X113967115Y-104772738D01*
X113984663Y-104719832D01*
X114025094Y-104661473D01*
X114090658Y-104634236D01*
X114104256Y-104633500D01*
X114894056Y-104633500D01*
X114962177Y-104653502D01*
X115008670Y-104707158D01*
X115013579Y-104719623D01*
X115030578Y-104770573D01*
X115032898Y-104777526D01*
X115125203Y-104926689D01*
X115130385Y-104931862D01*
X115160311Y-104961736D01*
X115249347Y-105050617D01*
X115255577Y-105054457D01*
X115255578Y-105054458D01*
X115276654Y-105067449D01*
X115398671Y-105142661D01*
X115405619Y-105144966D01*
X115405620Y-105144966D01*
X115558634Y-105195719D01*
X115558636Y-105195719D01*
X115565165Y-105197885D01*
X115668769Y-105208500D01*
X115960234Y-105208500D01*
X116256230Y-105208499D01*
X116361129Y-105197616D01*
X116367660Y-105195437D01*
X116367665Y-105195436D01*
X116520578Y-105144420D01*
X116527526Y-105142102D01*
X116676689Y-105049797D01*
X116800617Y-104925653D01*
X116802614Y-104922413D01*
X116859352Y-104882186D01*
X116930275Y-104878953D01*
X116991687Y-104914578D01*
X116999066Y-104923078D01*
X117005782Y-104931552D01*
X117119479Y-105045051D01*
X117130890Y-105054063D01*
X117267654Y-105138365D01*
X117280832Y-105144509D01*
X117433740Y-105195227D01*
X117447106Y-105198093D01*
X117540601Y-105207672D01*
X117547016Y-105208000D01*
X117565385Y-105208000D01*
X117580624Y-105203525D01*
X117581829Y-105202135D01*
X117583500Y-105194452D01*
X117583500Y-105189884D01*
X118091500Y-105189884D01*
X118095975Y-105205123D01*
X118097365Y-105206328D01*
X118105048Y-105207999D01*
X118127933Y-105207999D01*
X118134452Y-105207662D01*
X118229170Y-105197834D01*
X118242564Y-105194942D01*
X118395365Y-105143964D01*
X118408543Y-105137790D01*
X118545149Y-105053256D01*
X118556550Y-105044220D01*
X118670051Y-104930521D01*
X118679063Y-104919110D01*
X118763365Y-104782346D01*
X118769509Y-104769168D01*
X118820227Y-104616260D01*
X118823093Y-104602894D01*
X118832672Y-104509399D01*
X118833000Y-104502984D01*
X118833000Y-104272115D01*
X118828525Y-104256876D01*
X118827135Y-104255671D01*
X118819452Y-104254000D01*
X118109615Y-104254000D01*
X118094376Y-104258475D01*
X118093171Y-104259865D01*
X118091500Y-104267548D01*
X118091500Y-105189884D01*
X117583500Y-105189884D01*
X117583500Y-103727885D01*
X118091500Y-103727885D01*
X118095975Y-103743124D01*
X118097365Y-103744329D01*
X118105048Y-103746000D01*
X118814884Y-103746000D01*
X118830123Y-103741525D01*
X118831328Y-103740135D01*
X118832999Y-103732452D01*
X118832999Y-103497067D01*
X118832662Y-103490548D01*
X118822834Y-103395830D01*
X118819942Y-103382436D01*
X118768964Y-103229635D01*
X118762790Y-103216457D01*
X118678256Y-103079851D01*
X118669220Y-103068450D01*
X118595310Y-102994669D01*
X129842001Y-102994669D01*
X129842371Y-103001490D01*
X129847895Y-103052352D01*
X129851521Y-103067604D01*
X129896676Y-103188054D01*
X129905214Y-103203649D01*
X129981715Y-103305724D01*
X129994276Y-103318285D01*
X130096351Y-103394786D01*
X130111946Y-103403324D01*
X130232394Y-103448478D01*
X130247649Y-103452105D01*
X130298514Y-103457631D01*
X130305328Y-103458000D01*
X130927885Y-103458000D01*
X130943124Y-103453525D01*
X130944329Y-103452135D01*
X130946000Y-103444452D01*
X130946000Y-102372115D01*
X130941525Y-102356876D01*
X130940135Y-102355671D01*
X130932452Y-102354000D01*
X129860116Y-102354000D01*
X129844877Y-102358475D01*
X129843672Y-102359865D01*
X129842001Y-102367548D01*
X129842001Y-102994669D01*
X118595310Y-102994669D01*
X118555521Y-102954949D01*
X118544110Y-102945937D01*
X118407346Y-102861635D01*
X118394168Y-102855491D01*
X118241260Y-102804773D01*
X118227894Y-102801907D01*
X118134399Y-102792328D01*
X118127984Y-102792000D01*
X118109615Y-102792000D01*
X118094376Y-102796475D01*
X118093171Y-102797865D01*
X118091500Y-102805548D01*
X118091500Y-103727885D01*
X117583500Y-103727885D01*
X117583500Y-102810116D01*
X117579025Y-102794877D01*
X117577635Y-102793672D01*
X117569952Y-102792001D01*
X117547067Y-102792001D01*
X117540548Y-102792338D01*
X117445830Y-102802166D01*
X117432436Y-102805058D01*
X117279635Y-102856036D01*
X117266457Y-102862210D01*
X117129851Y-102946744D01*
X117118450Y-102955780D01*
X117004949Y-103069479D01*
X116999206Y-103076751D01*
X116941289Y-103117814D01*
X116870366Y-103121046D01*
X116808954Y-103085421D01*
X116803160Y-103078746D01*
X116799797Y-103073311D01*
X116675653Y-102949383D01*
X116667138Y-102944134D01*
X116610123Y-102908990D01*
X116526329Y-102857339D01*
X116449516Y-102831861D01*
X116366366Y-102804281D01*
X116366364Y-102804281D01*
X116359835Y-102802115D01*
X116256231Y-102791500D01*
X115964766Y-102791500D01*
X115668770Y-102791501D01*
X115563871Y-102802384D01*
X115557340Y-102804563D01*
X115557335Y-102804564D01*
X115409189Y-102853990D01*
X115397474Y-102857898D01*
X115248311Y-102950203D01*
X115124383Y-103074347D01*
X115120543Y-103080577D01*
X115120542Y-103080578D01*
X115104670Y-103106328D01*
X115032339Y-103223671D01*
X115028671Y-103234729D01*
X115013599Y-103280169D01*
X114973167Y-103338528D01*
X114907603Y-103365764D01*
X114894006Y-103366500D01*
X114104197Y-103366500D01*
X114036076Y-103346498D01*
X113989583Y-103292842D01*
X113984674Y-103280377D01*
X113968867Y-103232998D01*
X113968866Y-103232996D01*
X113966550Y-103226054D01*
X113960720Y-103216632D01*
X113877332Y-103081880D01*
X113873478Y-103075652D01*
X113839883Y-103042115D01*
X113753483Y-102955866D01*
X113748303Y-102950695D01*
X113742072Y-102946854D01*
X113603968Y-102861725D01*
X113603966Y-102861724D01*
X113597738Y-102857885D01*
X113512054Y-102829465D01*
X113453695Y-102789034D01*
X113426458Y-102723470D01*
X113438992Y-102653588D01*
X113462627Y-102620777D01*
X114255519Y-101827885D01*
X129842000Y-101827885D01*
X129846475Y-101843124D01*
X129847865Y-101844329D01*
X129855548Y-101846000D01*
X130927885Y-101846000D01*
X130943124Y-101841525D01*
X130944329Y-101840135D01*
X130946000Y-101832452D01*
X130946000Y-100760116D01*
X130941525Y-100744877D01*
X130940135Y-100743672D01*
X130932452Y-100742001D01*
X130305331Y-100742001D01*
X130298510Y-100742371D01*
X130247648Y-100747895D01*
X130232396Y-100751521D01*
X130111946Y-100796676D01*
X130096351Y-100805214D01*
X129994276Y-100881715D01*
X129981715Y-100894276D01*
X129905214Y-100996351D01*
X129896676Y-101011946D01*
X129851522Y-101132394D01*
X129847895Y-101147649D01*
X129842369Y-101198514D01*
X129842000Y-101205328D01*
X129842000Y-101827885D01*
X114255519Y-101827885D01*
X116512999Y-99570405D01*
X116575311Y-99536379D01*
X116602094Y-99533500D01*
X132785406Y-99533500D01*
X132853527Y-99553502D01*
G37*
%TD.AperFunction*%
%TA.AperFunction,Conductor*%
G36*
X106744032Y-104256039D02*
G01*
X106789095Y-104285000D01*
X109069441Y-106565346D01*
X109103467Y-106627658D01*
X109098402Y-106698473D01*
X109055855Y-106755309D01*
X109031594Y-106769548D01*
X108949281Y-106806195D01*
X108949274Y-106806199D01*
X108943248Y-106808882D01*
X108937907Y-106812762D01*
X108937906Y-106812763D01*
X108900853Y-106839684D01*
X108788747Y-106921134D01*
X108784326Y-106926044D01*
X108784325Y-106926045D01*
X108672915Y-107049779D01*
X108660960Y-107063056D01*
X108565473Y-107228444D01*
X108506458Y-107410072D01*
X108505768Y-107416633D01*
X108505768Y-107416635D01*
X108489093Y-107575292D01*
X108462080Y-107640949D01*
X108452879Y-107651217D01*
X108179382Y-107924713D01*
X107907742Y-108196353D01*
X107899463Y-108203887D01*
X107892982Y-108208000D01*
X107849226Y-108254596D01*
X107846357Y-108257651D01*
X107843602Y-108260493D01*
X107823865Y-108280230D01*
X107821385Y-108283427D01*
X107813682Y-108292447D01*
X107783414Y-108324679D01*
X107779595Y-108331625D01*
X107779593Y-108331628D01*
X107773652Y-108342434D01*
X107762801Y-108358953D01*
X107750386Y-108374959D01*
X107747241Y-108382228D01*
X107747238Y-108382232D01*
X107732826Y-108415537D01*
X107727609Y-108426187D01*
X107706305Y-108464940D01*
X107704334Y-108472615D01*
X107704334Y-108472616D01*
X107701267Y-108484562D01*
X107694863Y-108503266D01*
X107686819Y-108521855D01*
X107685580Y-108529678D01*
X107685577Y-108529688D01*
X107679901Y-108565524D01*
X107677495Y-108577144D01*
X107666500Y-108619970D01*
X107666500Y-108640224D01*
X107664949Y-108659934D01*
X107661780Y-108679943D01*
X107662526Y-108687835D01*
X107665941Y-108723961D01*
X107666500Y-108735819D01*
X107666500Y-108900101D01*
X107646498Y-108968222D01*
X107606803Y-109007245D01*
X107575652Y-109026522D01*
X107450695Y-109151697D01*
X107447898Y-109156235D01*
X107390647Y-109196824D01*
X107319724Y-109200054D01*
X107258313Y-109164428D01*
X107250938Y-109155932D01*
X107242902Y-109145793D01*
X107128171Y-109031261D01*
X107116760Y-109022249D01*
X106978757Y-108937184D01*
X106965576Y-108931037D01*
X106811290Y-108879862D01*
X106797914Y-108876995D01*
X106703562Y-108867328D01*
X106697145Y-108867000D01*
X106672115Y-108867000D01*
X106656876Y-108871475D01*
X106655671Y-108872865D01*
X106654000Y-108880548D01*
X106654000Y-111314884D01*
X106658475Y-111330123D01*
X106659865Y-111331328D01*
X106667548Y-111332999D01*
X106697095Y-111332999D01*
X106703614Y-111332662D01*
X106799206Y-111322743D01*
X106812600Y-111319851D01*
X106966784Y-111268412D01*
X106979962Y-111262239D01*
X107117807Y-111176937D01*
X107129208Y-111167901D01*
X107243738Y-111053172D01*
X107250794Y-111044238D01*
X107308712Y-111003177D01*
X107379635Y-110999947D01*
X107441046Y-111035574D01*
X107447846Y-111043407D01*
X107451522Y-111049348D01*
X107576697Y-111174305D01*
X107582927Y-111178145D01*
X107582928Y-111178146D01*
X107720288Y-111262816D01*
X107727262Y-111267115D01*
X107774111Y-111282654D01*
X107888611Y-111320632D01*
X107888613Y-111320632D01*
X107895139Y-111322797D01*
X107901975Y-111323497D01*
X107901978Y-111323498D01*
X107945031Y-111327909D01*
X107999600Y-111333500D01*
X108585406Y-111333500D01*
X108653527Y-111353502D01*
X108674501Y-111370405D01*
X109431441Y-112127346D01*
X110146348Y-112842253D01*
X110153888Y-112850539D01*
X110158000Y-112857018D01*
X110163777Y-112862443D01*
X110207651Y-112903643D01*
X110210493Y-112906398D01*
X110230230Y-112926135D01*
X110233427Y-112928615D01*
X110242447Y-112936318D01*
X110274679Y-112966586D01*
X110281625Y-112970405D01*
X110281628Y-112970407D01*
X110292434Y-112976348D01*
X110308953Y-112987199D01*
X110324959Y-112999614D01*
X110332228Y-113002759D01*
X110332232Y-113002762D01*
X110365537Y-113017174D01*
X110376187Y-113022391D01*
X110414940Y-113043695D01*
X110422615Y-113045666D01*
X110422616Y-113045666D01*
X110434562Y-113048733D01*
X110453266Y-113055137D01*
X110461038Y-113058500D01*
X110471855Y-113063181D01*
X110479678Y-113064420D01*
X110479688Y-113064423D01*
X110515524Y-113070099D01*
X110527144Y-113072505D01*
X110562289Y-113081528D01*
X110569970Y-113083500D01*
X110590224Y-113083500D01*
X110609934Y-113085051D01*
X110629943Y-113088220D01*
X110637835Y-113087474D01*
X110673961Y-113084059D01*
X110685819Y-113083500D01*
X110992099Y-113083500D01*
X111060220Y-113103502D01*
X111097903Y-113141078D01*
X111098480Y-113141970D01*
X111107371Y-113146000D01*
X111345158Y-113146000D01*
X111409297Y-113163547D01*
X111486399Y-113209145D01*
X111494010Y-113211356D01*
X111494012Y-113211357D01*
X111546231Y-113226528D01*
X111646169Y-113255562D01*
X111652574Y-113256066D01*
X111652579Y-113256067D01*
X111681042Y-113258307D01*
X111681050Y-113258307D01*
X111683498Y-113258500D01*
X112390500Y-113258500D01*
X112458621Y-113278502D01*
X112505114Y-113332158D01*
X112516500Y-113384500D01*
X112516500Y-113415500D01*
X112496498Y-113483621D01*
X112442842Y-113530114D01*
X112390500Y-113541500D01*
X111683498Y-113541500D01*
X111681050Y-113541693D01*
X111681042Y-113541693D01*
X111652579Y-113543933D01*
X111652574Y-113543934D01*
X111646169Y-113544438D01*
X111591630Y-113560283D01*
X111494012Y-113588643D01*
X111494010Y-113588644D01*
X111486399Y-113590855D01*
X111479572Y-113594892D01*
X111479573Y-113594892D01*
X111409297Y-113636453D01*
X111345158Y-113654000D01*
X111113122Y-113654000D01*
X111097883Y-113658475D01*
X111085285Y-113673013D01*
X111025559Y-113711396D01*
X110990061Y-113716500D01*
X109764594Y-113716500D01*
X109696473Y-113696498D01*
X109675499Y-113679595D01*
X108871699Y-112875794D01*
X108058652Y-112062747D01*
X108051112Y-112054461D01*
X108047000Y-112047982D01*
X108038164Y-112039684D01*
X107997349Y-112001357D01*
X107994507Y-111998602D01*
X107974770Y-111978865D01*
X107971573Y-111976385D01*
X107962551Y-111968680D01*
X107940672Y-111948134D01*
X107930321Y-111938414D01*
X107923375Y-111934595D01*
X107923372Y-111934593D01*
X107912566Y-111928652D01*
X107896047Y-111917801D01*
X107895583Y-111917441D01*
X107880041Y-111905386D01*
X107872772Y-111902241D01*
X107872768Y-111902238D01*
X107839463Y-111887826D01*
X107828813Y-111882609D01*
X107790060Y-111861305D01*
X107770437Y-111856267D01*
X107751734Y-111849863D01*
X107740420Y-111844967D01*
X107740419Y-111844967D01*
X107733145Y-111841819D01*
X107725322Y-111840580D01*
X107725312Y-111840577D01*
X107689476Y-111834901D01*
X107677856Y-111832495D01*
X107642711Y-111823472D01*
X107642710Y-111823472D01*
X107635030Y-111821500D01*
X107614776Y-111821500D01*
X107595065Y-111819949D01*
X107582886Y-111818020D01*
X107575057Y-111816780D01*
X107567165Y-111817526D01*
X107531039Y-111820941D01*
X107519181Y-111821500D01*
X99443760Y-111821500D01*
X99375639Y-111801498D01*
X99329146Y-111747842D01*
X99319042Y-111677568D01*
X99325778Y-111651271D01*
X99371030Y-111530561D01*
X99413671Y-111473796D01*
X99424874Y-111466336D01*
X99429534Y-111463580D01*
X99436362Y-111459542D01*
X99450683Y-111445221D01*
X99465717Y-111432380D01*
X99475694Y-111425131D01*
X99482107Y-111420472D01*
X99510298Y-111386395D01*
X99518288Y-111377616D01*
X100273809Y-110622095D01*
X105392001Y-110622095D01*
X105392338Y-110628614D01*
X105402257Y-110724206D01*
X105405149Y-110737600D01*
X105456588Y-110891784D01*
X105462761Y-110904962D01*
X105548063Y-111042807D01*
X105557099Y-111054208D01*
X105671829Y-111168739D01*
X105683240Y-111177751D01*
X105821243Y-111262816D01*
X105834424Y-111268963D01*
X105988710Y-111320138D01*
X106002086Y-111323005D01*
X106096438Y-111332672D01*
X106102854Y-111333000D01*
X106127885Y-111333000D01*
X106143124Y-111328525D01*
X106144329Y-111327135D01*
X106146000Y-111319452D01*
X106146000Y-110372115D01*
X106141525Y-110356876D01*
X106140135Y-110355671D01*
X106132452Y-110354000D01*
X105410116Y-110354000D01*
X105394877Y-110358475D01*
X105393672Y-110359865D01*
X105392001Y-110367548D01*
X105392001Y-110622095D01*
X100273809Y-110622095D01*
X101068019Y-109827885D01*
X105392000Y-109827885D01*
X105396475Y-109843124D01*
X105397865Y-109844329D01*
X105405548Y-109846000D01*
X106127885Y-109846000D01*
X106143124Y-109841525D01*
X106144329Y-109840135D01*
X106146000Y-109832452D01*
X106146000Y-108885116D01*
X106141525Y-108869877D01*
X106140135Y-108868672D01*
X106132452Y-108867001D01*
X106102905Y-108867001D01*
X106096386Y-108867338D01*
X106000794Y-108877257D01*
X105987400Y-108880149D01*
X105833216Y-108931588D01*
X105820038Y-108937761D01*
X105682193Y-109023063D01*
X105670792Y-109032099D01*
X105556261Y-109146829D01*
X105547249Y-109158240D01*
X105462184Y-109296243D01*
X105456037Y-109309424D01*
X105404862Y-109463710D01*
X105401995Y-109477086D01*
X105392328Y-109571438D01*
X105392000Y-109577855D01*
X105392000Y-109827885D01*
X101068019Y-109827885D01*
X106610905Y-104285000D01*
X106673217Y-104250974D01*
X106744032Y-104256039D01*
G37*
%TD.AperFunction*%
%TA.AperFunction,Conductor*%
G36*
X148474773Y-105503502D02*
G01*
X148521266Y-105557158D01*
X148531370Y-105627432D01*
X148526486Y-105648433D01*
X148506458Y-105710072D01*
X148505768Y-105716633D01*
X148505768Y-105716635D01*
X148496061Y-105808990D01*
X148486496Y-105900000D01*
X148487186Y-105906565D01*
X148505178Y-106077745D01*
X148506458Y-106089928D01*
X148565473Y-106271556D01*
X148660960Y-106436944D01*
X148665378Y-106441851D01*
X148665379Y-106441852D01*
X148784325Y-106573955D01*
X148788747Y-106578866D01*
X148834276Y-106611945D01*
X148925745Y-106678401D01*
X148943248Y-106691118D01*
X148949276Y-106693802D01*
X148949278Y-106693803D01*
X149087424Y-106755309D01*
X149117712Y-106768794D01*
X149211113Y-106788647D01*
X149298056Y-106807128D01*
X149298061Y-106807128D01*
X149304513Y-106808500D01*
X149495487Y-106808500D01*
X149501939Y-106807128D01*
X149501944Y-106807128D01*
X149588888Y-106788647D01*
X149682288Y-106768794D01*
X149712576Y-106755309D01*
X149850722Y-106693803D01*
X149850724Y-106693802D01*
X149856752Y-106691118D01*
X149874256Y-106678401D01*
X149965724Y-106611945D01*
X150011253Y-106578866D01*
X150015675Y-106573955D01*
X150134621Y-106441852D01*
X150134622Y-106441851D01*
X150139040Y-106436944D01*
X150234527Y-106271556D01*
X150293542Y-106089928D01*
X150294823Y-106077745D01*
X150305929Y-105972072D01*
X150310907Y-105924706D01*
X150337920Y-105859050D01*
X150347122Y-105848782D01*
X150675499Y-105520405D01*
X150737811Y-105486379D01*
X150764594Y-105483500D01*
X165699010Y-105483500D01*
X165767131Y-105503502D01*
X165788105Y-105520405D01*
X167232812Y-106965112D01*
X167266838Y-107027424D01*
X167261773Y-107098239D01*
X167219226Y-107155075D01*
X167159511Y-107179213D01*
X167149069Y-107180532D01*
X167149067Y-107180532D01*
X167141203Y-107181526D01*
X167133832Y-107184445D01*
X167133830Y-107184445D01*
X167100088Y-107197804D01*
X167088858Y-107201649D01*
X167054017Y-107211771D01*
X167054016Y-107211771D01*
X167046407Y-107213982D01*
X167039588Y-107218015D01*
X167039583Y-107218017D01*
X167028972Y-107224293D01*
X167011224Y-107232988D01*
X166992383Y-107240448D01*
X166985967Y-107245110D01*
X166985966Y-107245110D01*
X166956613Y-107266436D01*
X166946693Y-107272952D01*
X166915465Y-107291420D01*
X166915462Y-107291422D01*
X166908638Y-107295458D01*
X166894317Y-107309779D01*
X166879284Y-107322619D01*
X166862893Y-107334528D01*
X166857843Y-107340632D01*
X166857838Y-107340637D01*
X166834707Y-107368598D01*
X166826717Y-107377379D01*
X165949499Y-108254596D01*
X165887187Y-108288621D01*
X165860404Y-108291500D01*
X165804513Y-108291500D01*
X165798061Y-108292872D01*
X165798056Y-108292872D01*
X165740215Y-108305167D01*
X165696745Y-108314407D01*
X165625956Y-108309005D01*
X165587502Y-108279932D01*
X165586486Y-108281104D01*
X165557135Y-108255671D01*
X165549452Y-108254000D01*
X164033693Y-108254000D01*
X163972994Y-108238416D01*
X163960060Y-108231305D01*
X163940437Y-108226267D01*
X163921734Y-108219863D01*
X163910420Y-108214967D01*
X163910419Y-108214967D01*
X163903145Y-108211819D01*
X163895322Y-108210580D01*
X163895312Y-108210577D01*
X163859476Y-108204901D01*
X163847856Y-108202495D01*
X163812711Y-108193472D01*
X163812710Y-108193472D01*
X163805030Y-108191500D01*
X163784776Y-108191500D01*
X163765065Y-108189949D01*
X163752886Y-108188020D01*
X163745057Y-108186780D01*
X163737165Y-108187526D01*
X163701039Y-108190941D01*
X163689181Y-108191500D01*
X140139594Y-108191500D01*
X140071473Y-108171498D01*
X140050499Y-108154595D01*
X139623789Y-107727885D01*
X156037000Y-107727885D01*
X156041475Y-107743124D01*
X156042865Y-107744329D01*
X156050548Y-107746000D01*
X157647885Y-107746000D01*
X157663124Y-107741525D01*
X157664329Y-107740135D01*
X157666000Y-107732452D01*
X157666000Y-107727885D01*
X158174000Y-107727885D01*
X158178475Y-107743124D01*
X158179865Y-107744329D01*
X158187548Y-107746000D01*
X159784884Y-107746000D01*
X159800123Y-107741525D01*
X159801328Y-107740135D01*
X159802999Y-107732452D01*
X159802999Y-107727885D01*
X161797000Y-107727885D01*
X161801475Y-107743124D01*
X161802865Y-107744329D01*
X161810548Y-107746000D01*
X163407885Y-107746000D01*
X163423124Y-107741525D01*
X163424329Y-107740135D01*
X163426000Y-107732452D01*
X163426000Y-107727885D01*
X163934000Y-107727885D01*
X163938475Y-107743124D01*
X163939865Y-107744329D01*
X163947548Y-107746000D01*
X165544884Y-107746000D01*
X165560123Y-107741525D01*
X165561328Y-107740135D01*
X165562999Y-107732452D01*
X165562999Y-107455331D01*
X165562629Y-107448510D01*
X165557105Y-107397648D01*
X165553479Y-107382396D01*
X165508324Y-107261946D01*
X165499786Y-107246351D01*
X165423285Y-107144276D01*
X165410724Y-107131715D01*
X165308649Y-107055214D01*
X165293054Y-107046676D01*
X165172606Y-107001522D01*
X165157351Y-106997895D01*
X165106486Y-106992369D01*
X165099672Y-106992000D01*
X163952115Y-106992000D01*
X163936876Y-106996475D01*
X163935671Y-106997865D01*
X163934000Y-107005548D01*
X163934000Y-107727885D01*
X163426000Y-107727885D01*
X163426000Y-107010116D01*
X163421525Y-106994877D01*
X163420135Y-106993672D01*
X163412452Y-106992001D01*
X162260331Y-106992001D01*
X162253510Y-106992371D01*
X162202648Y-106997895D01*
X162187396Y-107001521D01*
X162066946Y-107046676D01*
X162051351Y-107055214D01*
X161949276Y-107131715D01*
X161936715Y-107144276D01*
X161860214Y-107246351D01*
X161851676Y-107261946D01*
X161806522Y-107382394D01*
X161802895Y-107397649D01*
X161797369Y-107448514D01*
X161797000Y-107455328D01*
X161797000Y-107727885D01*
X159802999Y-107727885D01*
X159802999Y-107455331D01*
X159802629Y-107448510D01*
X159797105Y-107397648D01*
X159793479Y-107382396D01*
X159748324Y-107261946D01*
X159739786Y-107246351D01*
X159663285Y-107144276D01*
X159650724Y-107131715D01*
X159548649Y-107055214D01*
X159533054Y-107046676D01*
X159412606Y-107001522D01*
X159397351Y-106997895D01*
X159346486Y-106992369D01*
X159339672Y-106992000D01*
X158192115Y-106992000D01*
X158176876Y-106996475D01*
X158175671Y-106997865D01*
X158174000Y-107005548D01*
X158174000Y-107727885D01*
X157666000Y-107727885D01*
X157666000Y-107010116D01*
X157661525Y-106994877D01*
X157660135Y-106993672D01*
X157652452Y-106992001D01*
X156500331Y-106992001D01*
X156493510Y-106992371D01*
X156442648Y-106997895D01*
X156427396Y-107001521D01*
X156306946Y-107046676D01*
X156291351Y-107055214D01*
X156189276Y-107131715D01*
X156176715Y-107144276D01*
X156100214Y-107246351D01*
X156091676Y-107261946D01*
X156046522Y-107382394D01*
X156042895Y-107397649D01*
X156037369Y-107448514D01*
X156037000Y-107455328D01*
X156037000Y-107727885D01*
X139623789Y-107727885D01*
X139253029Y-107357125D01*
X139219003Y-107294813D01*
X139225715Y-107219812D01*
X139232611Y-107203164D01*
X139232612Y-107203162D01*
X139234505Y-107198591D01*
X139264587Y-107073288D01*
X139292454Y-106957216D01*
X139292455Y-106957210D01*
X139293609Y-106952403D01*
X139313474Y-106700000D01*
X139293609Y-106447597D01*
X139291052Y-106436944D01*
X139252720Y-106277279D01*
X139234505Y-106201409D01*
X139232611Y-106196836D01*
X139139511Y-105972072D01*
X139139509Y-105972068D01*
X139137616Y-105967498D01*
X139005328Y-105751624D01*
X139002121Y-105747869D01*
X139002118Y-105747865D01*
X138955041Y-105692746D01*
X138926010Y-105627956D01*
X138936615Y-105557756D01*
X138983489Y-105504434D01*
X139038993Y-105485474D01*
X139043273Y-105485069D01*
X139053963Y-105484059D01*
X139065819Y-105483500D01*
X148406652Y-105483500D01*
X148474773Y-105503502D01*
G37*
%TD.AperFunction*%
%TA.AperFunction,Conductor*%
G36*
X186942121Y-68020002D02*
G01*
X186988614Y-68073658D01*
X187000000Y-68126000D01*
X187000000Y-98478997D01*
X186979998Y-98547118D01*
X186926342Y-98593611D01*
X186856068Y-98603715D01*
X186848538Y-98602185D01*
X186848212Y-98602069D01*
X186846254Y-98601720D01*
X186846243Y-98601718D01*
X186633373Y-98563800D01*
X186633367Y-98563799D01*
X186628284Y-98562894D01*
X186554452Y-98561992D01*
X186410081Y-98560228D01*
X186410079Y-98560228D01*
X186404911Y-98560165D01*
X186184091Y-98593955D01*
X185971756Y-98663357D01*
X185773607Y-98766507D01*
X185769474Y-98769610D01*
X185769471Y-98769612D01*
X185599100Y-98897530D01*
X185594965Y-98900635D01*
X185591393Y-98904373D01*
X185453753Y-99048405D01*
X185440629Y-99062138D01*
X185437715Y-99066410D01*
X185437714Y-99066411D01*
X185325095Y-99231504D01*
X185270184Y-99276507D01*
X185221007Y-99286500D01*
X183371940Y-99286500D01*
X183360757Y-99285973D01*
X183353264Y-99284298D01*
X183345338Y-99284547D01*
X183345337Y-99284547D01*
X183285187Y-99286438D01*
X183281228Y-99286500D01*
X183253317Y-99286500D01*
X183249383Y-99286997D01*
X183249382Y-99286997D01*
X183249317Y-99287005D01*
X183237480Y-99287938D01*
X183205663Y-99288938D01*
X183201202Y-99289078D01*
X183193283Y-99289327D01*
X183175627Y-99294456D01*
X183173831Y-99294978D01*
X183154479Y-99298986D01*
X183147408Y-99299880D01*
X183134376Y-99301526D01*
X183127007Y-99304443D01*
X183127005Y-99304444D01*
X183093270Y-99317800D01*
X183082042Y-99321645D01*
X183039580Y-99333982D01*
X183032758Y-99338016D01*
X183032752Y-99338019D01*
X183022141Y-99344294D01*
X183004391Y-99352990D01*
X182992929Y-99357528D01*
X182992924Y-99357531D01*
X182985556Y-99360448D01*
X182979141Y-99365109D01*
X182949798Y-99386427D01*
X182939880Y-99392943D01*
X182921192Y-99403995D01*
X182901810Y-99415458D01*
X182887486Y-99429782D01*
X182872454Y-99442621D01*
X182856066Y-99454528D01*
X182834413Y-99480702D01*
X182827885Y-99488593D01*
X182819895Y-99497373D01*
X179458930Y-102858338D01*
X179396618Y-102892364D01*
X179325803Y-102887299D01*
X179268967Y-102844752D01*
X179246675Y-102795843D01*
X179244852Y-102787403D01*
X179193412Y-102633216D01*
X179187239Y-102620038D01*
X179101937Y-102482193D01*
X179092901Y-102470792D01*
X178978171Y-102356261D01*
X178966760Y-102347249D01*
X178828757Y-102262184D01*
X178815576Y-102256037D01*
X178661290Y-102204862D01*
X178647914Y-102201995D01*
X178553562Y-102192328D01*
X178547145Y-102192000D01*
X178522115Y-102192000D01*
X178506876Y-102196475D01*
X178505671Y-102197865D01*
X178504000Y-102205548D01*
X178504000Y-103553000D01*
X178483998Y-103621121D01*
X178430342Y-103667614D01*
X178378000Y-103679000D01*
X178122000Y-103679000D01*
X178053879Y-103658998D01*
X178007386Y-103605342D01*
X177996000Y-103553000D01*
X177996000Y-102210116D01*
X177991525Y-102194877D01*
X177990135Y-102193672D01*
X177982452Y-102192001D01*
X177952905Y-102192001D01*
X177946386Y-102192338D01*
X177850794Y-102202257D01*
X177837400Y-102205149D01*
X177683216Y-102256588D01*
X177670038Y-102262761D01*
X177532193Y-102348063D01*
X177520792Y-102357099D01*
X177406262Y-102471828D01*
X177399206Y-102480762D01*
X177341288Y-102521823D01*
X177270365Y-102525053D01*
X177208954Y-102489426D01*
X177202154Y-102481593D01*
X177198478Y-102475652D01*
X177073303Y-102350695D01*
X176974376Y-102289715D01*
X176928968Y-102261725D01*
X176928966Y-102261724D01*
X176922738Y-102257885D01*
X176816721Y-102222721D01*
X176761389Y-102204368D01*
X176761387Y-102204368D01*
X176754861Y-102202203D01*
X176748025Y-102201503D01*
X176748022Y-102201502D01*
X176704969Y-102197091D01*
X176650400Y-102191500D01*
X176064595Y-102191500D01*
X175996474Y-102171498D01*
X175975500Y-102154595D01*
X173047500Y-99226595D01*
X173013474Y-99164283D01*
X173018539Y-99093468D01*
X173047500Y-99048405D01*
X178707247Y-93388657D01*
X178715537Y-93381113D01*
X178722018Y-93377000D01*
X178768659Y-93327332D01*
X178771413Y-93324491D01*
X178791135Y-93304769D01*
X178793612Y-93301576D01*
X178801317Y-93292555D01*
X178826159Y-93266100D01*
X178831586Y-93260321D01*
X178835407Y-93253371D01*
X178841346Y-93242568D01*
X178852202Y-93226041D01*
X178859757Y-93216302D01*
X178859758Y-93216300D01*
X178864614Y-93210040D01*
X178882174Y-93169460D01*
X178887391Y-93158812D01*
X178904875Y-93127009D01*
X178904876Y-93127007D01*
X178908695Y-93120060D01*
X178913733Y-93100437D01*
X178920137Y-93081734D01*
X178925033Y-93070420D01*
X178925033Y-93070419D01*
X178928181Y-93063145D01*
X178929420Y-93055322D01*
X178929423Y-93055312D01*
X178935099Y-93019476D01*
X178937505Y-93007856D01*
X178946528Y-92972711D01*
X178946528Y-92972710D01*
X178948500Y-92965030D01*
X178948500Y-92944776D01*
X178950051Y-92925065D01*
X178951980Y-92912886D01*
X178953220Y-92905057D01*
X178949059Y-92861038D01*
X178948500Y-92849181D01*
X178948500Y-92280427D01*
X178968502Y-92212306D01*
X179009618Y-92172550D01*
X179012994Y-92170896D01*
X179194860Y-92041173D01*
X179353096Y-91883489D01*
X179483453Y-91702077D01*
X179484640Y-91702930D01*
X179531960Y-91659362D01*
X179601897Y-91647145D01*
X179667338Y-91674678D01*
X179695166Y-91706511D01*
X179752694Y-91800388D01*
X179758777Y-91808699D01*
X179898213Y-91969667D01*
X179905580Y-91976883D01*
X180069434Y-92112916D01*
X180077881Y-92118831D01*
X180261756Y-92226279D01*
X180271042Y-92230729D01*
X180470001Y-92306703D01*
X180479899Y-92309579D01*
X180583250Y-92330606D01*
X180597299Y-92329410D01*
X180601000Y-92319065D01*
X180601000Y-92318517D01*
X181109000Y-92318517D01*
X181113064Y-92332359D01*
X181126478Y-92334393D01*
X181133184Y-92333534D01*
X181143262Y-92331392D01*
X181347255Y-92270191D01*
X181356842Y-92266433D01*
X181548095Y-92172739D01*
X181556945Y-92167464D01*
X181730328Y-92043792D01*
X181738200Y-92037139D01*
X181889052Y-91886812D01*
X181895730Y-91878965D01*
X182020003Y-91706020D01*
X182025313Y-91697183D01*
X182119670Y-91506267D01*
X182123469Y-91496672D01*
X182185377Y-91292910D01*
X182187555Y-91282837D01*
X182188986Y-91271962D01*
X182186775Y-91257778D01*
X182173617Y-91254000D01*
X181127115Y-91254000D01*
X181111876Y-91258475D01*
X181110671Y-91259865D01*
X181109000Y-91267548D01*
X181109000Y-92318517D01*
X180601000Y-92318517D01*
X180601000Y-90727885D01*
X181109000Y-90727885D01*
X181113475Y-90743124D01*
X181114865Y-90744329D01*
X181122548Y-90746000D01*
X182173344Y-90746000D01*
X182186875Y-90742027D01*
X182188180Y-90732947D01*
X182146214Y-90565875D01*
X182142894Y-90556124D01*
X182057972Y-90360814D01*
X182053105Y-90351739D01*
X181937426Y-90172926D01*
X181931136Y-90164757D01*
X181787806Y-90007240D01*
X181780273Y-90000215D01*
X181613139Y-89868222D01*
X181604552Y-89862517D01*
X181418117Y-89759599D01*
X181408705Y-89755369D01*
X181207959Y-89684280D01*
X181197988Y-89681646D01*
X181126837Y-89668972D01*
X181113540Y-89670432D01*
X181109000Y-89684989D01*
X181109000Y-90727885D01*
X180601000Y-90727885D01*
X180601000Y-89683102D01*
X180597082Y-89669758D01*
X180582806Y-89667771D01*
X180544324Y-89673660D01*
X180534288Y-89676051D01*
X180331868Y-89742212D01*
X180322359Y-89746209D01*
X180133463Y-89844542D01*
X180124738Y-89850036D01*
X179954433Y-89977905D01*
X179946726Y-89984748D01*
X179799590Y-90138717D01*
X179793109Y-90146722D01*
X179688498Y-90300074D01*
X179633587Y-90345076D01*
X179563062Y-90353247D01*
X179499315Y-90321993D01*
X179478618Y-90297509D01*
X179397822Y-90172617D01*
X179397820Y-90172614D01*
X179395014Y-90168277D01*
X179244670Y-90003051D01*
X179240619Y-89999852D01*
X179240615Y-89999848D01*
X179073414Y-89867800D01*
X179073410Y-89867798D01*
X179069359Y-89864598D01*
X179033028Y-89844542D01*
X179017136Y-89835769D01*
X178873789Y-89756638D01*
X178868920Y-89754914D01*
X178868916Y-89754912D01*
X178668087Y-89683795D01*
X178668083Y-89683794D01*
X178663212Y-89682069D01*
X178658119Y-89681162D01*
X178658116Y-89681161D01*
X178448373Y-89643800D01*
X178448367Y-89643799D01*
X178443284Y-89642894D01*
X178369452Y-89641992D01*
X178225081Y-89640228D01*
X178225079Y-89640228D01*
X178219911Y-89640165D01*
X177999091Y-89673955D01*
X177786756Y-89743357D01*
X177588607Y-89846507D01*
X177584474Y-89849610D01*
X177584471Y-89849612D01*
X177414100Y-89977530D01*
X177409965Y-89980635D01*
X177353537Y-90039684D01*
X177329283Y-90065064D01*
X177267759Y-90100494D01*
X177196846Y-90097037D01*
X177139060Y-90055791D01*
X177120207Y-90022243D01*
X177078767Y-89911703D01*
X177075615Y-89903295D01*
X176988261Y-89786739D01*
X176871705Y-89699385D01*
X176735316Y-89648255D01*
X176673134Y-89641500D01*
X174876866Y-89641500D01*
X174814684Y-89648255D01*
X174678295Y-89699385D01*
X174561739Y-89786739D01*
X174474385Y-89903295D01*
X174423255Y-90039684D01*
X174416500Y-90101866D01*
X174416500Y-91898134D01*
X174423255Y-91960316D01*
X174474385Y-92096705D01*
X174561739Y-92213261D01*
X174678295Y-92300615D01*
X174814684Y-92351745D01*
X174876866Y-92358500D01*
X176673134Y-92358500D01*
X176735316Y-92351745D01*
X176871705Y-92300615D01*
X176988261Y-92213261D01*
X177075615Y-92096705D01*
X177097799Y-92037529D01*
X177119598Y-91979382D01*
X177162240Y-91922618D01*
X177228802Y-91897918D01*
X177298150Y-91913126D01*
X177332817Y-91941114D01*
X177361250Y-91973938D01*
X177533126Y-92116632D01*
X177537593Y-92119242D01*
X177619070Y-92166853D01*
X177667794Y-92218491D01*
X177681500Y-92275641D01*
X177681500Y-92570406D01*
X177661498Y-92638527D01*
X177644595Y-92659501D01*
X172074500Y-98229595D01*
X172012188Y-98263621D01*
X171985405Y-98266500D01*
X171884776Y-98266500D01*
X171865065Y-98264949D01*
X171856681Y-98263621D01*
X171845057Y-98261780D01*
X171815786Y-98264547D01*
X171801039Y-98265941D01*
X171789181Y-98266500D01*
X148759776Y-98266500D01*
X148740065Y-98264949D01*
X148731681Y-98263621D01*
X148720057Y-98261780D01*
X148690786Y-98264547D01*
X148676039Y-98265941D01*
X148664181Y-98266500D01*
X133159776Y-98266500D01*
X133140065Y-98264949D01*
X133131681Y-98263621D01*
X133120057Y-98261780D01*
X133090786Y-98264547D01*
X133076039Y-98265941D01*
X133064181Y-98266500D01*
X116366267Y-98266500D01*
X116355084Y-98265973D01*
X116347591Y-98264298D01*
X116339665Y-98264547D01*
X116339664Y-98264547D01*
X116279514Y-98266438D01*
X116275555Y-98266500D01*
X116247644Y-98266500D01*
X116243710Y-98266997D01*
X116243709Y-98266997D01*
X116243644Y-98267005D01*
X116231807Y-98267938D01*
X116199990Y-98268938D01*
X116195529Y-98269078D01*
X116187610Y-98269327D01*
X116169954Y-98274456D01*
X116168158Y-98274978D01*
X116148806Y-98278986D01*
X116141735Y-98279880D01*
X116128703Y-98281526D01*
X116121334Y-98284443D01*
X116121332Y-98284444D01*
X116087597Y-98297800D01*
X116076369Y-98301645D01*
X116033907Y-98313982D01*
X116027085Y-98318016D01*
X116027079Y-98318019D01*
X116016468Y-98324294D01*
X115998718Y-98332990D01*
X115987256Y-98337528D01*
X115987251Y-98337531D01*
X115979883Y-98340448D01*
X115973468Y-98345109D01*
X115944125Y-98366427D01*
X115934207Y-98372943D01*
X115915519Y-98383995D01*
X115896137Y-98395458D01*
X115881813Y-98409782D01*
X115866781Y-98422621D01*
X115850393Y-98434528D01*
X115822212Y-98468593D01*
X115814222Y-98477373D01*
X111537000Y-102754595D01*
X111474688Y-102788621D01*
X111447905Y-102791500D01*
X110874600Y-102791500D01*
X110871354Y-102791837D01*
X110871350Y-102791837D01*
X110775692Y-102801762D01*
X110775688Y-102801763D01*
X110768834Y-102802474D01*
X110762298Y-102804655D01*
X110762296Y-102804655D01*
X110677891Y-102832815D01*
X110601054Y-102858450D01*
X110450652Y-102951522D01*
X110325695Y-103076697D01*
X110321855Y-103082927D01*
X110321854Y-103082928D01*
X110237432Y-103219886D01*
X110232885Y-103227262D01*
X110177203Y-103395139D01*
X110176503Y-103401975D01*
X110176502Y-103401978D01*
X110174755Y-103419028D01*
X110166500Y-103499600D01*
X110166500Y-104500400D01*
X110166837Y-104503646D01*
X110166837Y-104503650D01*
X110174488Y-104577384D01*
X110177474Y-104606166D01*
X110179655Y-104612702D01*
X110179655Y-104612704D01*
X110211168Y-104707158D01*
X110233450Y-104773946D01*
X110326522Y-104924348D01*
X110331703Y-104929520D01*
X110336054Y-104933863D01*
X110370135Y-104996145D01*
X110365133Y-105066965D01*
X110321099Y-105124974D01*
X110276700Y-105157232D01*
X110188747Y-105221134D01*
X110184326Y-105226044D01*
X110184325Y-105226045D01*
X110120568Y-105296855D01*
X110060960Y-105363056D01*
X110003153Y-105463181D01*
X109995921Y-105475707D01*
X109944539Y-105524700D01*
X109874825Y-105538136D01*
X109808914Y-105511750D01*
X109797707Y-105501802D01*
X107198720Y-102902815D01*
X107183604Y-102884545D01*
X107183425Y-102884282D01*
X107178972Y-102877729D01*
X107173031Y-102872491D01*
X107173029Y-102872489D01*
X107136834Y-102840579D01*
X107131065Y-102835160D01*
X100120405Y-95824500D01*
X100086379Y-95762188D01*
X100083500Y-95735405D01*
X100083500Y-95502817D01*
X159397514Y-95502817D01*
X159398095Y-95507837D01*
X159398095Y-95507841D01*
X159424426Y-95735405D01*
X159425415Y-95743956D01*
X159426791Y-95748820D01*
X159426792Y-95748823D01*
X159472476Y-95910266D01*
X159491510Y-95977532D01*
X159493644Y-95982108D01*
X159493646Y-95982114D01*
X159591962Y-96192954D01*
X159594099Y-96197536D01*
X159730544Y-96398307D01*
X159897332Y-96574681D01*
X159901358Y-96577759D01*
X159901359Y-96577760D01*
X160086154Y-96719047D01*
X160086158Y-96719050D01*
X160090174Y-96722120D01*
X160304109Y-96836831D01*
X160533631Y-96915862D01*
X160632978Y-96933022D01*
X160768926Y-96956504D01*
X160768932Y-96956505D01*
X160772836Y-96957179D01*
X160776797Y-96957359D01*
X160776798Y-96957359D01*
X160800506Y-96958436D01*
X160800525Y-96958436D01*
X160801925Y-96958500D01*
X160971001Y-96958500D01*
X160973509Y-96958298D01*
X160973514Y-96958298D01*
X161146924Y-96944346D01*
X161146929Y-96944345D01*
X161151965Y-96943940D01*
X161156873Y-96942734D01*
X161156876Y-96942734D01*
X161382792Y-96887244D01*
X161387706Y-96886037D01*
X161392358Y-96884062D01*
X161392362Y-96884061D01*
X161606498Y-96793165D01*
X161611156Y-96791188D01*
X161717037Y-96724511D01*
X161812288Y-96664528D01*
X161812291Y-96664526D01*
X161816567Y-96661833D01*
X161915422Y-96574681D01*
X161994858Y-96504650D01*
X161994861Y-96504647D01*
X161998655Y-96501302D01*
X162010315Y-96487107D01*
X162149526Y-96317628D01*
X162149528Y-96317625D01*
X162152734Y-96313722D01*
X162236767Y-96169339D01*
X162272299Y-96108290D01*
X162272300Y-96108288D01*
X162274841Y-96103922D01*
X162318606Y-95989909D01*
X162360020Y-95882022D01*
X162360021Y-95882018D01*
X162361833Y-95877298D01*
X162411474Y-95639680D01*
X162422486Y-95397183D01*
X162407235Y-95265373D01*
X162395167Y-95161071D01*
X162395166Y-95161067D01*
X162394585Y-95156044D01*
X162355517Y-95017978D01*
X162329866Y-94927331D01*
X162328490Y-94922468D01*
X162326356Y-94917892D01*
X162326354Y-94917886D01*
X162228038Y-94707046D01*
X162228036Y-94707042D01*
X162225901Y-94702464D01*
X162089456Y-94501693D01*
X161922668Y-94325319D01*
X161918641Y-94322240D01*
X161733846Y-94180953D01*
X161733842Y-94180950D01*
X161729826Y-94177880D01*
X161515891Y-94063169D01*
X161286369Y-93984138D01*
X161187022Y-93966978D01*
X161051074Y-93943496D01*
X161051068Y-93943495D01*
X161047164Y-93942821D01*
X161043203Y-93942641D01*
X161043202Y-93942641D01*
X161019494Y-93941564D01*
X161019475Y-93941564D01*
X161018075Y-93941500D01*
X160848999Y-93941500D01*
X160846491Y-93941702D01*
X160846486Y-93941702D01*
X160673076Y-93955654D01*
X160673071Y-93955655D01*
X160668035Y-93956060D01*
X160663127Y-93957266D01*
X160663124Y-93957266D01*
X160547007Y-93985787D01*
X160432294Y-94013963D01*
X160427642Y-94015938D01*
X160427638Y-94015939D01*
X160320252Y-94061522D01*
X160208844Y-94108812D01*
X160204560Y-94111510D01*
X160007712Y-94235472D01*
X160007709Y-94235474D01*
X160003433Y-94238167D01*
X159999639Y-94241512D01*
X159825142Y-94395350D01*
X159825139Y-94395353D01*
X159821345Y-94398698D01*
X159667266Y-94586278D01*
X159545159Y-94796078D01*
X159458167Y-95022702D01*
X159408526Y-95260320D01*
X159397514Y-95502817D01*
X100083500Y-95502817D01*
X100083500Y-92784500D01*
X100103502Y-92716379D01*
X100157158Y-92669886D01*
X100209500Y-92658500D01*
X103498134Y-92658500D01*
X103560316Y-92651745D01*
X103696705Y-92600615D01*
X103813261Y-92513261D01*
X103900615Y-92396705D01*
X103951745Y-92260316D01*
X103958500Y-92198134D01*
X161441500Y-92198134D01*
X161448255Y-92260316D01*
X161499385Y-92396705D01*
X161586739Y-92513261D01*
X161703295Y-92600615D01*
X161839684Y-92651745D01*
X161901866Y-92658500D01*
X169998134Y-92658500D01*
X170060316Y-92651745D01*
X170196705Y-92600615D01*
X170313261Y-92513261D01*
X170400615Y-92396705D01*
X170451745Y-92260316D01*
X170458500Y-92198134D01*
X170458500Y-85101866D01*
X170451745Y-85039684D01*
X170400615Y-84903295D01*
X170313261Y-84786739D01*
X170196705Y-84699385D01*
X170060316Y-84648255D01*
X169998134Y-84641500D01*
X166709500Y-84641500D01*
X166641379Y-84621498D01*
X166594886Y-84567842D01*
X166583500Y-84515500D01*
X166583500Y-78484500D01*
X166603502Y-78416379D01*
X166657158Y-78369886D01*
X166709500Y-78358500D01*
X169998134Y-78358500D01*
X170060316Y-78351745D01*
X170196705Y-78300615D01*
X170313261Y-78213261D01*
X170400615Y-78096705D01*
X170451745Y-77960316D01*
X170458500Y-77898134D01*
X170458500Y-70801866D01*
X170451745Y-70739684D01*
X170400615Y-70603295D01*
X170313261Y-70486739D01*
X170196705Y-70399385D01*
X170060316Y-70348255D01*
X169998134Y-70341500D01*
X161901866Y-70341500D01*
X161839684Y-70348255D01*
X161703295Y-70399385D01*
X161586739Y-70486739D01*
X161499385Y-70603295D01*
X161448255Y-70739684D01*
X161441500Y-70801866D01*
X161441500Y-77898134D01*
X161448255Y-77960316D01*
X161499385Y-78096705D01*
X161586739Y-78213261D01*
X161703295Y-78300615D01*
X161839684Y-78351745D01*
X161901866Y-78358500D01*
X165190500Y-78358500D01*
X165258621Y-78378502D01*
X165305114Y-78432158D01*
X165316500Y-78484500D01*
X165316500Y-84515500D01*
X165296498Y-84583621D01*
X165242842Y-84630114D01*
X165190500Y-84641500D01*
X161901866Y-84641500D01*
X161839684Y-84648255D01*
X161703295Y-84699385D01*
X161586739Y-84786739D01*
X161499385Y-84903295D01*
X161448255Y-85039684D01*
X161441500Y-85101866D01*
X161441500Y-92198134D01*
X103958500Y-92198134D01*
X103958500Y-85101866D01*
X103951745Y-85039684D01*
X103900615Y-84903295D01*
X103813261Y-84786739D01*
X103696705Y-84699385D01*
X103560316Y-84648255D01*
X103498134Y-84641500D01*
X96626000Y-84641500D01*
X96557879Y-84621498D01*
X96511386Y-84567842D01*
X96500000Y-84515500D01*
X96500000Y-78484000D01*
X96520002Y-78415879D01*
X96573658Y-78369386D01*
X96626000Y-78358000D01*
X99177885Y-78358000D01*
X99193124Y-78353525D01*
X99194329Y-78352135D01*
X99196000Y-78344452D01*
X99196000Y-78339885D01*
X99704000Y-78339885D01*
X99708475Y-78355124D01*
X99709865Y-78356329D01*
X99717548Y-78358000D01*
X103494669Y-78357999D01*
X103501490Y-78357629D01*
X103552352Y-78352105D01*
X103567604Y-78348479D01*
X103688054Y-78303324D01*
X103703649Y-78294786D01*
X103805724Y-78218285D01*
X103818285Y-78205724D01*
X103894786Y-78103649D01*
X103903324Y-78088054D01*
X103948478Y-77967606D01*
X103952105Y-77952351D01*
X103957631Y-77901486D01*
X103958000Y-77894672D01*
X103958000Y-74622115D01*
X103953525Y-74606876D01*
X103952135Y-74605671D01*
X103944452Y-74604000D01*
X99722115Y-74604000D01*
X99706876Y-74608475D01*
X99705671Y-74609865D01*
X99704000Y-74617548D01*
X99704000Y-78339885D01*
X99196000Y-78339885D01*
X99196000Y-74077885D01*
X99704000Y-74077885D01*
X99708475Y-74093124D01*
X99709865Y-74094329D01*
X99717548Y-74096000D01*
X103939884Y-74096000D01*
X103955123Y-74091525D01*
X103956328Y-74090135D01*
X103957999Y-74082452D01*
X103957999Y-70805331D01*
X103957629Y-70798510D01*
X103952105Y-70747648D01*
X103948479Y-70732396D01*
X103903324Y-70611946D01*
X103894786Y-70596351D01*
X103818285Y-70494276D01*
X103805724Y-70481715D01*
X103703649Y-70405214D01*
X103688054Y-70396676D01*
X103567606Y-70351522D01*
X103552351Y-70347895D01*
X103501486Y-70342369D01*
X103494672Y-70342000D01*
X99722115Y-70342001D01*
X99706876Y-70346476D01*
X99705671Y-70347866D01*
X99704000Y-70355549D01*
X99704000Y-74077885D01*
X99196000Y-74077885D01*
X99196000Y-70360116D01*
X99191525Y-70344877D01*
X99190135Y-70343672D01*
X99182452Y-70342001D01*
X96626000Y-70342001D01*
X96557879Y-70321999D01*
X96511386Y-70268343D01*
X96500000Y-70216001D01*
X96500000Y-68126000D01*
X96520002Y-68057879D01*
X96573658Y-68011386D01*
X96626000Y-68000000D01*
X186874000Y-68000000D01*
X186942121Y-68020002D01*
G37*
%TD.AperFunction*%
%TD*%
M02*
