%TF.GenerationSoftware,KiCad,Pcbnew,8.0.8*%
%TF.CreationDate,2025-02-15T15:27:07-06:00*%
%TF.ProjectId,Quark006,51756172-6b30-4303-962e-6b696361645f,rev?*%
%TF.SameCoordinates,Original*%
%TF.FileFunction,Legend,Bot*%
%TF.FilePolarity,Positive*%
%FSLAX46Y46*%
G04 Gerber Fmt 4.6, Leading zero omitted, Abs format (unit mm)*
G04 Created by KiCad (PCBNEW 8.0.8) date 2025-02-15 15:27:07*
%MOMM*%
%LPD*%
G01*
G04 APERTURE LIST*
%ADD10C,0.150000*%
%ADD11C,0.120000*%
%ADD12C,0.000000*%
G04 APERTURE END LIST*
D10*
X204301964Y-51876546D02*
X203796888Y-52381622D01*
X203796888Y-52381622D02*
X203729545Y-52516309D01*
X203729545Y-52516309D02*
X203729545Y-52650996D01*
X203729545Y-52650996D02*
X203796888Y-52785683D01*
X203796888Y-52785683D02*
X203864232Y-52853027D01*
X203258140Y-52246935D02*
X203965247Y-51539828D01*
X203965247Y-51539828D02*
X203695873Y-51270454D01*
X203695873Y-51270454D02*
X203594857Y-51236783D01*
X203594857Y-51236783D02*
X203527514Y-51236783D01*
X203527514Y-51236783D02*
X203426499Y-51270454D01*
X203426499Y-51270454D02*
X203325483Y-51371470D01*
X203325483Y-51371470D02*
X203291812Y-51472485D01*
X203291812Y-51472485D02*
X203291812Y-51539828D01*
X203291812Y-51539828D02*
X203325483Y-51640844D01*
X203325483Y-51640844D02*
X203594857Y-51910218D01*
X202180644Y-51169439D02*
X202584705Y-51573500D01*
X202382674Y-51371470D02*
X203089781Y-50664363D01*
X203089781Y-50664363D02*
X203056109Y-50832722D01*
X203056109Y-50832722D02*
X203056109Y-50967409D01*
X203056109Y-50967409D02*
X203089781Y-51068424D01*
D11*
%TO.C,JP1*%
X203397918Y-49622183D02*
X203822183Y-49197918D01*
X204387868Y-51602082D02*
X203397918Y-50612132D01*
X204812132Y-49197918D02*
X205802082Y-50187868D01*
X205802082Y-51177817D02*
X205377817Y-51602082D01*
X203397918Y-50612132D02*
G75*
G02*
X203397917Y-49622182I494974J494975D01*
G01*
X203822183Y-49197918D02*
G75*
G02*
X204812131Y-49197918I494974J-494974D01*
G01*
X205377817Y-51602082D02*
G75*
G02*
X204387868Y-51602082I-494974J494975D01*
G01*
X205802082Y-50187868D02*
G75*
G02*
X205802083Y-51177817I-494975J-494975D01*
G01*
D12*
%TO.C,kibuzzard-67B10245*%
G36*
X208663786Y-73897690D02*
G01*
X208732292Y-73907852D01*
X208799471Y-73924679D01*
X208864678Y-73948011D01*
X208927283Y-73977621D01*
X208986685Y-74013225D01*
X209042311Y-74054480D01*
X209093626Y-74100989D01*
X209140135Y-74152304D01*
X209181390Y-74207930D01*
X209216994Y-74267331D01*
X209246604Y-74329937D01*
X209269936Y-74395144D01*
X209286763Y-74462323D01*
X209296925Y-74530829D01*
X209300323Y-74600000D01*
X209296925Y-74669171D01*
X209286763Y-74737677D01*
X209269936Y-74804856D01*
X209246604Y-74870063D01*
X209216994Y-74932669D01*
X209181390Y-74992070D01*
X209140135Y-75047696D01*
X209093626Y-75099011D01*
X209042311Y-75145520D01*
X208986685Y-75186775D01*
X208927283Y-75222379D01*
X208864678Y-75251989D01*
X208799471Y-75275321D01*
X208732292Y-75292148D01*
X208663786Y-75302310D01*
X208594615Y-75305708D01*
X208258051Y-75305708D01*
X207920409Y-75305708D01*
X206800862Y-75305708D01*
X206185353Y-75305708D01*
X205358212Y-75305708D01*
X204569844Y-75305708D01*
X203750781Y-75305708D01*
X203007647Y-75305708D01*
X202261282Y-75305708D01*
X200949488Y-75305708D01*
X199712009Y-75305708D01*
X198968875Y-75305708D01*
X198117501Y-75305708D01*
X197300054Y-75305708D01*
X196668390Y-75305708D01*
X195799246Y-75305708D01*
X194684545Y-75305708D01*
X194049650Y-75305708D01*
X193270975Y-75305708D01*
X192607001Y-75305708D01*
X192259666Y-75305708D01*
X191923102Y-75305708D01*
X191813409Y-74940065D01*
X192259666Y-74940065D01*
X192277437Y-75028918D01*
X192336403Y-75101616D01*
X192443834Y-75150081D01*
X192517744Y-75163409D01*
X192607001Y-75167851D01*
X192698277Y-75162197D01*
X192775013Y-75145234D01*
X192815142Y-75130695D01*
X193028648Y-75130695D01*
X193130425Y-75157351D01*
X193195450Y-75165226D01*
X193270975Y-75167851D01*
X193379012Y-75160178D01*
X193470490Y-75137157D01*
X193510877Y-75117771D01*
X193834787Y-75117771D01*
X193950296Y-75157351D01*
X194049650Y-75167851D01*
X194120934Y-75162197D01*
X194179698Y-75145234D01*
X194263705Y-75079806D01*
X194308131Y-74975606D01*
X194317824Y-74909774D01*
X194321055Y-74835057D01*
X194321055Y-74721971D01*
X194684545Y-74721971D01*
X194684545Y-75150081D01*
X194883253Y-75150081D01*
X194883253Y-74747819D01*
X194889311Y-74656139D01*
X194907485Y-74594346D01*
X195006031Y-74547496D01*
X195050458Y-74549111D01*
X195096500Y-74553958D01*
X195096500Y-75150081D01*
X195295207Y-75150081D01*
X195295207Y-74768821D01*
X195442219Y-74768821D01*
X195448681Y-74855048D01*
X195468067Y-74932795D01*
X195499165Y-75001252D01*
X195540765Y-75059612D01*
X195592259Y-75106866D01*
X195653043Y-75142003D01*
X195722307Y-75163813D01*
X195799246Y-75171082D01*
X195876185Y-75163813D01*
X195945450Y-75142003D01*
X196006435Y-75106866D01*
X196058535Y-75059612D01*
X196100740Y-75001252D01*
X196132041Y-74932795D01*
X196151427Y-74855048D01*
X196157889Y-74768821D01*
X196151225Y-74683805D01*
X196131233Y-74606462D01*
X196099327Y-74538207D01*
X196056920Y-74480452D01*
X196004618Y-74434006D01*
X195958967Y-74408562D01*
X196270975Y-74408562D01*
X196306516Y-74592730D01*
X196352558Y-74583037D01*
X196406677Y-74574152D01*
X196459989Y-74568498D01*
X196503608Y-74566882D01*
X196585999Y-74570921D01*
X196668390Y-74586268D01*
X196668390Y-75150081D01*
X196868713Y-75150081D01*
X196868713Y-75125848D01*
X197057728Y-75125848D01*
X197176467Y-75158158D01*
X197300054Y-75167851D01*
X197422833Y-75156543D01*
X197476443Y-75130695D01*
X197875175Y-75130695D01*
X197976952Y-75157351D01*
X198041976Y-75165226D01*
X198117501Y-75167851D01*
X198225539Y-75160178D01*
X198317017Y-75137157D01*
X198392744Y-75100808D01*
X198453527Y-75053150D01*
X198499771Y-74994992D01*
X198531879Y-74927141D01*
X198550660Y-74851616D01*
X198556920Y-74770436D01*
X198556137Y-74760743D01*
X198684545Y-74760743D01*
X198685353Y-74801131D01*
X198687776Y-74835057D01*
X199180506Y-74835057D01*
X199165159Y-74901494D01*
X199119117Y-74952181D01*
X199048842Y-74984289D01*
X198960797Y-74994992D01*
X198846904Y-74982068D01*
X198755627Y-74956220D01*
X198728164Y-75125848D01*
X198838018Y-75155735D01*
X198968875Y-75167851D01*
X199060757Y-75161591D01*
X199142542Y-75142811D01*
X199199775Y-75117771D01*
X199489068Y-75117771D01*
X199510878Y-75129079D01*
X199555304Y-75146042D01*
X199622348Y-75161389D01*
X199712009Y-75167851D01*
X199830749Y-75147456D01*
X199912332Y-75086268D01*
X199959585Y-74985905D01*
X199959654Y-74985299D01*
X200308131Y-74985299D01*
X200308131Y-75150081D01*
X200949488Y-75150081D01*
X200949488Y-75127464D01*
X201972106Y-75127464D01*
X202033091Y-75143619D01*
X202106193Y-75156543D01*
X202184545Y-75165024D01*
X202261282Y-75167851D01*
X202370149Y-75156184D01*
X202459810Y-75121181D01*
X202530264Y-75062843D01*
X202580973Y-74984222D01*
X202611398Y-74888368D01*
X202621540Y-74775283D01*
X202620463Y-74760743D01*
X202723317Y-74760743D01*
X202724125Y-74801131D01*
X202726548Y-74835057D01*
X203219278Y-74835057D01*
X203203931Y-74901494D01*
X203157889Y-74952181D01*
X203087614Y-74984289D01*
X202999569Y-74994992D01*
X202885676Y-74982068D01*
X202794400Y-74956220D01*
X202766936Y-75125848D01*
X202876791Y-75155735D01*
X203007647Y-75167851D01*
X203099529Y-75161591D01*
X203181314Y-75142811D01*
X203238547Y-75117771D01*
X203527841Y-75117771D01*
X203549650Y-75129079D01*
X203594076Y-75146042D01*
X203661120Y-75161389D01*
X203750781Y-75167851D01*
X203869521Y-75147456D01*
X203898331Y-75125848D01*
X204327518Y-75125848D01*
X204446257Y-75158158D01*
X204569844Y-75167851D01*
X204692623Y-75156543D01*
X204773038Y-75117771D01*
X205143349Y-75117771D01*
X205258858Y-75157351D01*
X205358212Y-75167851D01*
X205429496Y-75162197D01*
X205488261Y-75145234D01*
X205513152Y-75125848D01*
X205943026Y-75125848D01*
X206061766Y-75158158D01*
X206185353Y-75167851D01*
X206308131Y-75156543D01*
X206398600Y-75112924D01*
X206455143Y-75021648D01*
X206469682Y-74953595D01*
X206474529Y-74867367D01*
X206474529Y-74721971D01*
X206800862Y-74721971D01*
X206800862Y-75150081D01*
X206999569Y-75150081D01*
X206999569Y-74747819D01*
X207005627Y-74656139D01*
X207023802Y-74594346D01*
X207122348Y-74547496D01*
X207166774Y-74549111D01*
X207212816Y-74553958D01*
X207212816Y-75150081D01*
X207411524Y-75150081D01*
X207411524Y-74788207D01*
X207576306Y-74788207D01*
X207580345Y-74871405D01*
X207592461Y-74946527D01*
X207614674Y-75012359D01*
X207649004Y-75067690D01*
X207695854Y-75111914D01*
X207755627Y-75144426D01*
X207829941Y-75164418D01*
X207920409Y-75171082D01*
X208009464Y-75164418D01*
X208082768Y-75144426D01*
X208186968Y-75067690D01*
X208220086Y-75012359D01*
X208241896Y-74946527D01*
X208254012Y-74871405D01*
X208258051Y-74788207D01*
X208258051Y-74150081D01*
X208057728Y-74150081D01*
X208057728Y-74775283D01*
X208051265Y-74881099D01*
X208029456Y-74949758D01*
X207986645Y-74986914D01*
X207917178Y-74998223D01*
X207847711Y-74986914D01*
X207804093Y-74948950D01*
X207781475Y-74879483D01*
X207775013Y-74773667D01*
X207775013Y-74150081D01*
X207576306Y-74150081D01*
X207576306Y-74788207D01*
X207411524Y-74788207D01*
X207411524Y-74415024D01*
X207351952Y-74400889D01*
X207279860Y-74387561D01*
X207198075Y-74377868D01*
X207109424Y-74374637D01*
X207026629Y-74380897D01*
X206959181Y-74399677D01*
X206864674Y-74470759D01*
X206815401Y-74580614D01*
X206804496Y-74647859D01*
X206800862Y-74721971D01*
X206474529Y-74721971D01*
X206474529Y-74555574D01*
X206647388Y-74555574D01*
X206647388Y-74390792D01*
X206474529Y-74390792D01*
X206474529Y-74200162D01*
X206275821Y-74167851D01*
X206275821Y-74390792D01*
X205957566Y-74390792D01*
X205957566Y-74555574D01*
X206275821Y-74555574D01*
X206275821Y-74862520D01*
X206267744Y-74930372D01*
X206245127Y-74970759D01*
X206209585Y-74990145D01*
X206162736Y-74994992D01*
X206111847Y-74993376D01*
X206066613Y-74987722D01*
X206021379Y-74975606D01*
X205970490Y-74954604D01*
X205943026Y-75125848D01*
X205513152Y-75125848D01*
X205572267Y-75079806D01*
X205616694Y-74975606D01*
X205626387Y-74909774D01*
X205629618Y-74835057D01*
X205629618Y-74555574D01*
X205839634Y-74555574D01*
X205839634Y-74390792D01*
X205564997Y-74390792D01*
X205430910Y-74390792D01*
X205430910Y-74860905D01*
X205405870Y-74961874D01*
X205322671Y-74994992D01*
X205256435Y-74987722D01*
X205169198Y-74957835D01*
X205143349Y-75117771D01*
X204773038Y-75117771D01*
X204783091Y-75112924D01*
X204839634Y-75021648D01*
X204854173Y-74953595D01*
X204859020Y-74867367D01*
X204859020Y-74555574D01*
X205031879Y-74555574D01*
X205031879Y-74390792D01*
X204859020Y-74390792D01*
X204859020Y-74200162D01*
X204690120Y-74172698D01*
X205438988Y-74172698D01*
X205476144Y-74264782D01*
X205564997Y-74298708D01*
X205653043Y-74264782D01*
X205689391Y-74172698D01*
X205653043Y-74078998D01*
X205564997Y-74045073D01*
X205476144Y-74078998D01*
X205438988Y-74172698D01*
X204690120Y-74172698D01*
X204660312Y-74167851D01*
X204660312Y-74390792D01*
X204342057Y-74390792D01*
X204342057Y-74555574D01*
X204660312Y-74555574D01*
X204660312Y-74862520D01*
X204652235Y-74930372D01*
X204629618Y-74970759D01*
X204594076Y-74990145D01*
X204547227Y-74994992D01*
X204496338Y-74993376D01*
X204451104Y-74987722D01*
X204405870Y-74975606D01*
X204354981Y-74954604D01*
X204327518Y-75125848D01*
X203898331Y-75125848D01*
X203951104Y-75086268D01*
X203998358Y-74985905D01*
X204014109Y-74847981D01*
X204014109Y-74203393D01*
X204224125Y-74203393D01*
X204224125Y-74038611D01*
X203815401Y-74038611D01*
X203815401Y-74862520D01*
X203784707Y-74967528D01*
X203707162Y-74994992D01*
X203607001Y-74978837D01*
X203553689Y-74957835D01*
X203527841Y-75117771D01*
X203238547Y-75117771D01*
X203252396Y-75111712D01*
X203312170Y-75068498D01*
X203360030Y-75013368D01*
X203395369Y-74946527D01*
X203417178Y-74867771D01*
X203424448Y-74776898D01*
X203416774Y-74682795D01*
X203393753Y-74600808D01*
X203358212Y-74531139D01*
X203312978Y-74473990D01*
X203259262Y-74429362D01*
X203198277Y-74397254D01*
X203132849Y-74377868D01*
X203065805Y-74371405D01*
X202962771Y-74382445D01*
X202877688Y-74415563D01*
X202810555Y-74470759D01*
X202762089Y-74547137D01*
X202733010Y-74643798D01*
X202723317Y-74760743D01*
X202620463Y-74760743D01*
X202613014Y-74660133D01*
X202587435Y-74562395D01*
X202544803Y-74482068D01*
X202485478Y-74422384D01*
X202409819Y-74386573D01*
X202317824Y-74374637D01*
X202238665Y-74383522D01*
X202170813Y-74408562D01*
X202170813Y-74062843D01*
X201972106Y-74028918D01*
X201972106Y-75127464D01*
X200949488Y-75127464D01*
X200949488Y-74150081D01*
X200343673Y-74150081D01*
X200343673Y-74314863D01*
X200750781Y-74314863D01*
X200750781Y-74539418D01*
X200396984Y-74539418D01*
X200396984Y-74704200D01*
X200750781Y-74704200D01*
X200750781Y-74985299D01*
X200308131Y-74985299D01*
X199959654Y-74985299D01*
X199975337Y-74847981D01*
X199975337Y-74203393D01*
X200185353Y-74203393D01*
X200185353Y-74038611D01*
X199776629Y-74038611D01*
X199776629Y-74862520D01*
X199745934Y-74967528D01*
X199668390Y-74994992D01*
X199568228Y-74978837D01*
X199514917Y-74957835D01*
X199489068Y-75117771D01*
X199199775Y-75117771D01*
X199213624Y-75111712D01*
X199273398Y-75068498D01*
X199321257Y-75013368D01*
X199356597Y-74946527D01*
X199378406Y-74867771D01*
X199385676Y-74776898D01*
X199378002Y-74682795D01*
X199354981Y-74600808D01*
X199319440Y-74531139D01*
X199274206Y-74473990D01*
X199220490Y-74429362D01*
X199159505Y-74397254D01*
X199094076Y-74377868D01*
X199027033Y-74371405D01*
X198923999Y-74382445D01*
X198838916Y-74415563D01*
X198771782Y-74470759D01*
X198723317Y-74547137D01*
X198694238Y-74643798D01*
X198684545Y-74760743D01*
X198556137Y-74760743D01*
X198550458Y-74690468D01*
X198531072Y-74615347D01*
X198498358Y-74547294D01*
X198451912Y-74488530D01*
X198391532Y-74440065D01*
X198317017Y-74402908D01*
X198227558Y-74379281D01*
X198122348Y-74371405D01*
X197999569Y-74381099D01*
X197888099Y-74413409D01*
X197931718Y-74573344D01*
X198003608Y-74553150D01*
X198104577Y-74544265D01*
X198223317Y-74561228D01*
X198300054Y-74608078D01*
X198342057Y-74679968D01*
X198354981Y-74770436D01*
X198340240Y-74864136D01*
X198296015Y-74935218D01*
X198216249Y-74980048D01*
X198094884Y-74994992D01*
X197997146Y-74988530D01*
X197904254Y-74967528D01*
X197875175Y-75130695D01*
X197476443Y-75130695D01*
X197513301Y-75112924D01*
X197569844Y-75021648D01*
X197584383Y-74953595D01*
X197589230Y-74867367D01*
X197589230Y-74555574D01*
X197762089Y-74555574D01*
X197762089Y-74390792D01*
X197589230Y-74390792D01*
X197589230Y-74200162D01*
X197390522Y-74167851D01*
X197390522Y-74390792D01*
X197072267Y-74390792D01*
X197072267Y-74555574D01*
X197390522Y-74555574D01*
X197390522Y-74862520D01*
X197382445Y-74930372D01*
X197359828Y-74970759D01*
X197324286Y-74990145D01*
X197277437Y-74994992D01*
X197226548Y-74993376D01*
X197181314Y-74987722D01*
X197136080Y-74975606D01*
X197085191Y-74954604D01*
X197057728Y-75125848D01*
X196868713Y-75125848D01*
X196868713Y-74440872D01*
X196788543Y-74414620D01*
X196706354Y-74394023D01*
X196616088Y-74380695D01*
X196511686Y-74376252D01*
X196465644Y-74377868D01*
X196401831Y-74383522D01*
X196333172Y-74393215D01*
X196270975Y-74408562D01*
X195958967Y-74408562D01*
X195943026Y-74399677D01*
X195873963Y-74378473D01*
X195799246Y-74371405D01*
X195723519Y-74378473D01*
X195654658Y-74399677D01*
X195593673Y-74434006D01*
X195541572Y-74480452D01*
X195499367Y-74538207D01*
X195468067Y-74606462D01*
X195448681Y-74683805D01*
X195442219Y-74768821D01*
X195295207Y-74768821D01*
X195295207Y-74415024D01*
X195235635Y-74400889D01*
X195163543Y-74387561D01*
X195081758Y-74377868D01*
X194993107Y-74374637D01*
X194910312Y-74380897D01*
X194842865Y-74399677D01*
X194748358Y-74470759D01*
X194699085Y-74580614D01*
X194688180Y-74647859D01*
X194684545Y-74721971D01*
X194321055Y-74721971D01*
X194321055Y-74555574D01*
X194531072Y-74555574D01*
X194531072Y-74390792D01*
X194256435Y-74390792D01*
X194122348Y-74390792D01*
X194122348Y-74860905D01*
X194097307Y-74961874D01*
X194014109Y-74994992D01*
X193947873Y-74987722D01*
X193860635Y-74957835D01*
X193834787Y-75117771D01*
X193510877Y-75117771D01*
X193546217Y-75100808D01*
X193607001Y-75053150D01*
X193653244Y-74994992D01*
X193685353Y-74927141D01*
X193704133Y-74851616D01*
X193710393Y-74770436D01*
X193703931Y-74690468D01*
X193684545Y-74615347D01*
X193651831Y-74547294D01*
X193605385Y-74488530D01*
X193545005Y-74440065D01*
X193470490Y-74402908D01*
X193381031Y-74379281D01*
X193275821Y-74371405D01*
X193153043Y-74381099D01*
X193041572Y-74413409D01*
X193085191Y-74573344D01*
X193157081Y-74553150D01*
X193258051Y-74544265D01*
X193376791Y-74561228D01*
X193453527Y-74608078D01*
X193495530Y-74679968D01*
X193508454Y-74770436D01*
X193493713Y-74864136D01*
X193449488Y-74935218D01*
X193369723Y-74980048D01*
X193248358Y-74994992D01*
X193150619Y-74988530D01*
X193057728Y-74967528D01*
X193028648Y-75130695D01*
X192815142Y-75130695D01*
X192886484Y-75104847D01*
X192855789Y-74938449D01*
X192735433Y-74980452D01*
X192605385Y-74999838D01*
X192493915Y-74989338D01*
X192455143Y-74946527D01*
X192467259Y-74910985D01*
X192501185Y-74885945D01*
X192551265Y-74865751D01*
X192610232Y-74846365D01*
X192699085Y-74816478D01*
X192781475Y-74773667D01*
X192842865Y-74708239D01*
X192867097Y-74608885D01*
X192848519Y-74517609D01*
X192790361Y-74441680D01*
X192689391Y-74389984D01*
X192621944Y-74376050D01*
X192542380Y-74371405D01*
X192470692Y-74374233D01*
X192404254Y-74382714D01*
X192293592Y-74415024D01*
X192324286Y-74583037D01*
X192409908Y-74556381D01*
X192540765Y-74537803D01*
X192643349Y-74556381D01*
X192670005Y-74595961D01*
X192657889Y-74627464D01*
X192625579Y-74652504D01*
X192578729Y-74674313D01*
X192521379Y-74694507D01*
X192430910Y-74726817D01*
X192346096Y-74771244D01*
X192283899Y-74839095D01*
X192259666Y-74940065D01*
X191813409Y-74940065D01*
X191583199Y-74172698D01*
X194130425Y-74172698D01*
X194167582Y-74264782D01*
X194256435Y-74298708D01*
X194344480Y-74264782D01*
X194380829Y-74172698D01*
X194344480Y-74078998D01*
X194256435Y-74045073D01*
X194167582Y-74078998D01*
X194130425Y-74172698D01*
X191583199Y-74172698D01*
X191499677Y-73894292D01*
X191923102Y-73894292D01*
X192259666Y-73894292D01*
X208258051Y-73894292D01*
X208594615Y-73894292D01*
X208663786Y-73897690D01*
G37*
G36*
X195867299Y-74559814D02*
G01*
X195916370Y-74606462D01*
X195946055Y-74678554D01*
X195955950Y-74770436D01*
X195946863Y-74862520D01*
X195919602Y-74935218D01*
X195872146Y-74982472D01*
X195802477Y-74998223D01*
X195734424Y-74982472D01*
X195685353Y-74935218D01*
X195655668Y-74862520D01*
X195645773Y-74770436D01*
X195654860Y-74678554D01*
X195682122Y-74606462D01*
X195729577Y-74559814D01*
X195799246Y-74544265D01*
X195867299Y-74559814D01*
G37*
G36*
X202345288Y-74560016D02*
G01*
X202387291Y-74602423D01*
X202411524Y-74671486D01*
X202419602Y-74765590D01*
X202410110Y-74858078D01*
X202381637Y-74931987D01*
X202332162Y-74980452D01*
X202259666Y-74996607D01*
X202214432Y-74994992D01*
X202170813Y-74990145D01*
X202170813Y-74576575D01*
X202222509Y-74554766D01*
X202283899Y-74545880D01*
X202345288Y-74560016D01*
G37*
G36*
X203129618Y-74550727D02*
G01*
X203176467Y-74586268D01*
X203205547Y-74637964D01*
X203219278Y-74697738D01*
X202915563Y-74697738D01*
X202923640Y-74638772D01*
X202949488Y-74587884D01*
X202994723Y-74551535D01*
X203062574Y-74537803D01*
X203129618Y-74550727D01*
G37*
G36*
X199090845Y-74550727D02*
G01*
X199137695Y-74586268D01*
X199166774Y-74637964D01*
X199180506Y-74697738D01*
X198876791Y-74697738D01*
X198884868Y-74638772D01*
X198910716Y-74587884D01*
X198955950Y-74551535D01*
X199023802Y-74537803D01*
X199090845Y-74550727D01*
G37*
%TD*%
M02*
