%TF.GenerationSoftware,KiCad,Pcbnew,8.0.8*%
%TF.CreationDate,2025-02-15T15:27:06-06:00*%
%TF.ProjectId,Quark006,51756172-6b30-4303-962e-6b696361645f,rev?*%
%TF.SameCoordinates,Original*%
%TF.FileFunction,Copper,L1,Top*%
%TF.FilePolarity,Positive*%
%FSLAX46Y46*%
G04 Gerber Fmt 4.6, Leading zero omitted, Abs format (unit mm)*
G04 Created by KiCad (PCBNEW 8.0.8) date 2025-02-15 15:27:06*
%MOMM*%
%LPD*%
G01*
G04 APERTURE LIST*
G04 Aperture macros list*
%AMRoundRect*
0 Rectangle with rounded corners*
0 $1 Rounding radius*
0 $2 $3 $4 $5 $6 $7 $8 $9 X,Y pos of 4 corners*
0 Add a 4 corners polygon primitive as box body*
4,1,4,$2,$3,$4,$5,$6,$7,$8,$9,$2,$3,0*
0 Add four circle primitives for the rounded corners*
1,1,$1+$1,$2,$3*
1,1,$1+$1,$4,$5*
1,1,$1+$1,$6,$7*
1,1,$1+$1,$8,$9*
0 Add four rect primitives between the rounded corners*
20,1,$1+$1,$2,$3,$4,$5,0*
20,1,$1+$1,$4,$5,$6,$7,0*
20,1,$1+$1,$6,$7,$8,$9,0*
20,1,$1+$1,$8,$9,$2,$3,0*%
%AMHorizOval*
0 Thick line with rounded ends*
0 $1 width*
0 $2 $3 position (X,Y) of the first rounded end (center of the circle)*
0 $4 $5 position (X,Y) of the second rounded end (center of the circle)*
0 Add line between two ends*
20,1,$1,$2,$3,$4,$5,0*
0 Add two circle primitives to create the rounded ends*
1,1,$1,$2,$3*
1,1,$1,$4,$5*%
%AMRotRect*
0 Rectangle, with rotation*
0 The origin of the aperture is its center*
0 $1 length*
0 $2 width*
0 $3 Rotation angle, in degrees counterclockwise*
0 Add horizontal line*
21,1,$1,$2,0,0,$3*%
G04 Aperture macros list end*
%TA.AperFunction,ComponentPad*%
%ADD10RotRect,1.700000X1.700000X225.000000*%
%TD*%
%TA.AperFunction,ComponentPad*%
%ADD11HorizOval,1.700000X0.000000X0.000000X0.000000X0.000000X0*%
%TD*%
%TA.AperFunction,SMDPad,CuDef*%
%ADD12RoundRect,0.250000X0.250000X0.475000X-0.250000X0.475000X-0.250000X-0.475000X0.250000X-0.475000X0*%
%TD*%
%TA.AperFunction,ComponentPad*%
%ADD13R,0.850000X0.850000*%
%TD*%
%TA.AperFunction,ComponentPad*%
%ADD14O,0.850000X0.850000*%
%TD*%
%TA.AperFunction,SMDPad,CuDef*%
%ADD15R,0.250000X1.400000*%
%TD*%
%TA.AperFunction,ComponentPad*%
%ADD16O,1.000000X2.100000*%
%TD*%
%TA.AperFunction,ComponentPad*%
%ADD17O,1.000000X1.800000*%
%TD*%
%TA.AperFunction,SMDPad,CuDef*%
%ADD18R,0.812800X0.406400*%
%TD*%
%TA.AperFunction,SMDPad,CuDef*%
%ADD19R,0.406400X0.812800*%
%TD*%
%TA.AperFunction,SMDPad,CuDef*%
%ADD20R,1.193800X1.193800*%
%TD*%
%TA.AperFunction,SMDPad,CuDef*%
%ADD21R,0.812800X0.812800*%
%TD*%
%TA.AperFunction,SMDPad,CuDef*%
%ADD22RoundRect,0.100000X0.100000X-0.637500X0.100000X0.637500X-0.100000X0.637500X-0.100000X-0.637500X0*%
%TD*%
%TA.AperFunction,ComponentPad*%
%ADD23R,1.700000X1.700000*%
%TD*%
%TA.AperFunction,SMDPad,CuDef*%
%ADD24R,1.000000X0.500000*%
%TD*%
%TA.AperFunction,SMDPad,CuDef*%
%ADD25R,1.500000X0.800000*%
%TD*%
%TA.AperFunction,SMDPad,CuDef*%
%ADD26RoundRect,0.250000X-0.262500X-0.450000X0.262500X-0.450000X0.262500X0.450000X-0.262500X0.450000X0*%
%TD*%
%TA.AperFunction,SMDPad,CuDef*%
%ADD27RoundRect,0.375000X0.375000X-0.625000X0.375000X0.625000X-0.375000X0.625000X-0.375000X-0.625000X0*%
%TD*%
%TA.AperFunction,SMDPad,CuDef*%
%ADD28RoundRect,0.500000X1.400000X-0.500000X1.400000X0.500000X-1.400000X0.500000X-1.400000X-0.500000X0*%
%TD*%
%TA.AperFunction,ComponentPad*%
%ADD29C,1.700000*%
%TD*%
%TA.AperFunction,ComponentPad*%
%ADD30O,1.700000X1.700000*%
%TD*%
%TA.AperFunction,SMDPad,CuDef*%
%ADD31RoundRect,0.250000X-0.250000X-0.475000X0.250000X-0.475000X0.250000X0.475000X-0.250000X0.475000X0*%
%TD*%
%TA.AperFunction,SMDPad,CuDef*%
%ADD32RoundRect,0.250000X0.262500X0.450000X-0.262500X0.450000X-0.262500X-0.450000X0.262500X-0.450000X0*%
%TD*%
%TA.AperFunction,SMDPad,CuDef*%
%ADD33RoundRect,0.243750X-0.243750X-0.456250X0.243750X-0.456250X0.243750X0.456250X-0.243750X0.456250X0*%
%TD*%
%TA.AperFunction,SMDPad,CuDef*%
%ADD34R,0.800000X0.500000*%
%TD*%
%TA.AperFunction,SMDPad,CuDef*%
%ADD35R,0.800000X0.400000*%
%TD*%
%TA.AperFunction,ViaPad*%
%ADD36C,0.600000*%
%TD*%
%TA.AperFunction,Conductor*%
%ADD37C,0.200000*%
%TD*%
G04 APERTURE END LIST*
D10*
%TO.P,J12,1,Pin_1*%
%TO.N,VCC*%
X204992102Y-54992102D03*
D11*
%TO.P,J12,2,Pin_2*%
%TO.N,SWIO*%
X203196051Y-53196051D03*
%TO.P,J12,3,Pin_3*%
%TO.N,SWIOa*%
X201400000Y-51400000D03*
%TO.P,J12,4,Pin_4*%
%TO.N,VSS*%
X199603948Y-49603948D03*
%TD*%
D12*
%TO.P,C6,1*%
%TO.N,VCC*%
X209350000Y-74400000D03*
%TO.P,C6,2*%
%TO.N,VSS*%
X207450000Y-74400000D03*
%TD*%
D13*
%TO.P,J10,1,Pin_1*%
%TO.N,Net-(J10-Pin_1)*%
X184200000Y-68000000D03*
D14*
%TO.P,J10,2,Pin_2*%
%TO.N,Net-(J10-Pin_2)*%
X184200000Y-67000000D03*
%TO.P,J10,3,Pin_3*%
%TO.N,Net-(J10-Pin_3)*%
X184200000Y-66000000D03*
%TO.P,J10,4,Pin_4*%
%TO.N,Net-(J10-Pin_4)*%
X184200000Y-65000000D03*
%TO.P,J10,5,Pin_5*%
%TO.N,Net-(J10-Pin_5)*%
X184200000Y-64000000D03*
%TO.P,J10,6,Pin_6*%
%TO.N,Net-(J10-Pin_6)*%
X184200000Y-63000000D03*
%TO.P,J10,7,Pin_7*%
%TO.N,Net-(J10-Pin_7)*%
X184200000Y-62000000D03*
%TO.P,J10,8,Pin_8*%
%TO.N,Net-(J10-Pin_8)*%
X184200000Y-61000000D03*
%TD*%
D15*
%TO.P,J2,A1,GND*%
%TO.N,VSS*%
X215325000Y-54387500D03*
%TO.P,J2,A4,VBUS*%
%TO.N,+5V*%
X214525000Y-54387500D03*
%TO.P,J2,A5,CC1*%
%TO.N,CC1*%
X213250000Y-54387500D03*
%TO.P,J2,A6,D+*%
%TO.N,D2+*%
X212250000Y-54387500D03*
%TO.P,J2,A7,D-*%
%TO.N,D2-*%
X211750000Y-54387500D03*
%TO.P,J2,A8,SBU1*%
%TO.N,unconnected-(J2-SBU1-PadA8)*%
X213750000Y-54387500D03*
%TO.P,J2,A9,VBUS*%
%TO.N,+5V*%
X209475000Y-54387500D03*
%TO.P,J2,A12,GND*%
%TO.N,VSS*%
X208675000Y-54387500D03*
%TO.P,J2,B1,GND*%
X208925000Y-54387500D03*
%TO.P,J2,B4,VBUS*%
%TO.N,+5V*%
X209725000Y-54387500D03*
%TO.P,J2,B5,CC2*%
%TO.N,CC2*%
X210250000Y-54387500D03*
%TO.P,J2,B6,D+*%
%TO.N,D2+*%
X211250000Y-54387500D03*
%TO.P,J2,B7,D-*%
%TO.N,D2-*%
X212750000Y-54387500D03*
%TO.P,J2,B8,SBU2*%
%TO.N,unconnected-(J2-SBU2-PadB8)*%
X210750000Y-54387500D03*
%TO.P,J2,B9,VBUS*%
%TO.N,+5V*%
X214275000Y-54387500D03*
%TO.P,J2,B12,GND*%
%TO.N,VSS*%
X215075000Y-54387500D03*
D16*
%TO.P,J2,S1,SHIELD*%
X216320000Y-53687500D03*
D17*
X216320000Y-49537500D03*
D16*
X207680000Y-53687500D03*
D17*
X207680000Y-49537500D03*
%TD*%
D18*
%TO.P,U1,1,GND*%
%TO.N,VSS*%
X200447700Y-71200001D03*
%TO.P,U1,2,GND*%
X200447700Y-70350000D03*
%TO.P,U1,3,3V3*%
%TO.N,VCC*%
X200447700Y-69499999D03*
%TO.P,U1,4,IO0*%
%TO.N,unconnected-(U1-IO0-Pad4)*%
X200447700Y-68650001D03*
%TO.P,U1,5,IO1*%
%TO.N,unconnected-(U1-IO1-Pad5)*%
X200447700Y-67800000D03*
%TO.P,U1,6,IO2*%
%TO.N,unconnected-(U1-IO2-Pad6)*%
X200447700Y-66949999D03*
%TO.P,U1,7,IO3*%
%TO.N,unconnected-(U1-IO3-Pad7)*%
X200447700Y-66100001D03*
%TO.P,U1,8,IO4*%
%TO.N,unconnected-(U1-IO4-Pad8)*%
X200447700Y-65250000D03*
%TO.P,U1,9,IO5*%
%TO.N,unconnected-(U1-IO5-Pad9)*%
X200447700Y-64399999D03*
%TO.P,U1,10,IO6*%
%TO.N,SWIO*%
X200447700Y-63550001D03*
%TO.P,U1,11,IO7*%
%TO.N,unconnected-(U1-IO7-Pad11)*%
X200447700Y-62700000D03*
%TO.P,U1,12,IO8*%
%TO.N,unconnected-(U1-IO8-Pad12)*%
X200447700Y-61849999D03*
%TO.P,U1,13,IO9*%
%TO.N,unconnected-(U1-IO9-Pad13)*%
X200447700Y-61000001D03*
%TO.P,U1,14,IO10*%
%TO.N,unconnected-(U1-IO10-Pad14)*%
X200447700Y-60150000D03*
%TO.P,U1,15,IO11*%
%TO.N,unconnected-(U1-IO11-Pad15)*%
X200447700Y-59299999D03*
D19*
%TO.P,U1,16,IO12*%
%TO.N,unconnected-(U1-IO12-Pad16)*%
X199400001Y-58252300D03*
%TO.P,U1,17,IO13*%
%TO.N,unconnected-(U1-IO13-Pad17)*%
X198550000Y-58252300D03*
%TO.P,U1,18,IO14*%
%TO.N,unconnected-(U1-IO14-Pad18)*%
X197699999Y-58252300D03*
%TO.P,U1,19,IO15*%
%TO.N,unconnected-(U1-IO15-Pad19)*%
X196850001Y-58252300D03*
%TO.P,U1,20,IO16*%
%TO.N,unconnected-(U1-IO16-Pad20)*%
X196000000Y-58252300D03*
%TO.P,U1,21,IO17*%
%TO.N,unconnected-(U1-IO17-Pad21)*%
X195149999Y-58252300D03*
%TO.P,U1,22,IO18*%
%TO.N,unconnected-(U1-IO18-Pad22)*%
X194300001Y-58252300D03*
%TO.P,U1,23,IO19*%
%TO.N,D-*%
X193450000Y-58252300D03*
%TO.P,U1,24,IO20*%
%TO.N,D+*%
X192599999Y-58252300D03*
%TO.P,U1,25,IO21*%
%TO.N,unconnected-(U1-IO21-Pad25)*%
X191750001Y-58252300D03*
%TO.P,U1,26,IO26*%
%TO.N,unconnected-(U1-IO26-Pad26)*%
X190900000Y-58252300D03*
%TO.P,U1,27,NC*%
%TO.N,unconnected-(U1-NC-Pad27)*%
X190049999Y-58252300D03*
%TO.P,U1,28,IO33*%
%TO.N,unconnected-(U1-IO33-Pad28)*%
X189200001Y-58252300D03*
%TO.P,U1,29,IO34*%
%TO.N,unconnected-(U1-IO34-Pad29)*%
X188350000Y-58252300D03*
%TO.P,U1,30,GND*%
%TO.N,VSS*%
X187499999Y-58252300D03*
D18*
%TO.P,U1,31,IO35*%
%TO.N,unconnected-(U1-IO35-Pad31)*%
X186452300Y-59299999D03*
%TO.P,U1,32,IO36*%
%TO.N,unconnected-(U1-IO36-Pad32)*%
X186452300Y-60150000D03*
%TO.P,U1,33,IO37*%
%TO.N,unconnected-(U1-IO37-Pad33)*%
X186452300Y-61000001D03*
%TO.P,U1,34,IO38*%
%TO.N,Net-(J10-Pin_8)*%
X186452300Y-61849999D03*
%TO.P,U1,35,IO39*%
%TO.N,Net-(J10-Pin_7)*%
X186452300Y-62700000D03*
%TO.P,U1,36,IO40*%
%TO.N,Net-(J10-Pin_6)*%
X186452300Y-63550001D03*
%TO.P,U1,37,IO41*%
%TO.N,Net-(J10-Pin_5)*%
X186452300Y-64399999D03*
%TO.P,U1,38,IO42*%
%TO.N,Net-(J10-Pin_4)*%
X186452300Y-65250000D03*
%TO.P,U1,39,TXD0*%
%TO.N,Net-(J10-Pin_3)*%
X186452300Y-66100001D03*
%TO.P,U1,40,RXD0*%
%TO.N,Net-(J10-Pin_2)*%
X186452300Y-66949999D03*
%TO.P,U1,41,IO45*%
%TO.N,Net-(J10-Pin_1)*%
X186452300Y-67800000D03*
%TO.P,U1,42,GND*%
%TO.N,VSS*%
X186452300Y-68650001D03*
%TO.P,U1,43,GND*%
X186452300Y-69499999D03*
%TO.P,U1,44,IO46*%
%TO.N,unconnected-(U1-IO46-Pad44)*%
X186452300Y-70350000D03*
%TO.P,U1,45,EN*%
%TO.N,Net-(U1-EN)*%
X186452300Y-71200001D03*
D19*
%TO.P,U1,46,GND*%
%TO.N,VSS*%
X187499999Y-72247700D03*
%TO.P,U1,47,GND*%
X188350000Y-72247700D03*
%TO.P,U1,48,GND*%
X189200001Y-72247700D03*
%TO.P,U1,49,GND*%
X190049999Y-72247700D03*
%TO.P,U1,50,GND*%
X190900000Y-72247700D03*
%TO.P,U1,51,GND*%
X191750001Y-72247700D03*
%TO.P,U1,52,GND*%
X192599999Y-72247700D03*
%TO.P,U1,53,GND*%
X193450000Y-72247700D03*
%TO.P,U1,54,GND*%
X194300001Y-72247700D03*
%TO.P,U1,55,GND*%
X195149999Y-72247700D03*
%TO.P,U1,56,GND*%
X196000000Y-72247700D03*
%TO.P,U1,57,GND*%
X196850001Y-72247700D03*
%TO.P,U1,58,GND*%
X197699999Y-72247700D03*
%TO.P,U1,59,GND*%
X198550000Y-72247700D03*
%TO.P,U1,60,GND*%
X199400001Y-72247700D03*
D20*
%TO.P,U1,61,GND*%
X193450000Y-65250000D03*
D21*
%TO.P,U1,62,GND*%
X200447700Y-72247700D03*
%TO.P,U1,63,GND*%
X200447700Y-58252300D03*
%TO.P,U1,64,GND*%
X186452300Y-58252300D03*
%TO.P,U1,65,GND*%
X186452300Y-72247700D03*
D20*
%TO.P,U1,66,GND*%
X195100000Y-66900000D03*
%TO.P,U1,67,GND*%
X193450000Y-66900000D03*
%TO.P,U1,68,GND*%
X191800000Y-66900000D03*
%TO.P,U1,69,GND*%
X195100000Y-65250000D03*
%TO.P,U1,70,GND*%
X191800000Y-65250000D03*
%TO.P,U1,71,GND*%
X195100000Y-63600000D03*
%TO.P,U1,72,GND*%
X193450000Y-63600000D03*
%TO.P,U1,73,GND*%
X191800000Y-63600000D03*
%TD*%
D22*
%TO.P,U2,1,PD4*%
%TO.N,DPU*%
X211675000Y-63862500D03*
%TO.P,U2,2,PD5*%
%TO.N,Button*%
X212325000Y-63862500D03*
%TO.P,U2,3,PD6*%
%TO.N,Net-(J4-Pin_1)*%
X212975000Y-63862500D03*
%TO.P,U2,4,PD7*%
%TO.N,Net-(J4-Pin_2)*%
X213625000Y-63862500D03*
%TO.P,U2,5,PA1*%
%TO.N,Net-(J5-Pin_1)*%
X214275000Y-63862500D03*
%TO.P,U2,6,PA2*%
%TO.N,Net-(J5-Pin_2)*%
X214925000Y-63862500D03*
%TO.P,U2,7,VSS*%
%TO.N,VSS*%
X215575000Y-63862500D03*
%TO.P,U2,8,PD0*%
%TO.N,Net-(J6-Pin_1)*%
X216225000Y-63862500D03*
%TO.P,U2,9,VDD*%
%TO.N,VCC*%
X216875000Y-63862500D03*
%TO.P,U2,10,PC0*%
%TO.N,LED*%
X217525000Y-63862500D03*
%TO.P,U2,11,PC1*%
%TO.N,Net-(J7-Pin_1)*%
X217525000Y-58137500D03*
%TO.P,U2,12,PC2*%
%TO.N,Net-(J3-Pin_1)*%
X216875000Y-58137500D03*
%TO.P,U2,13,PC3*%
%TO.N,Net-(J3-Pin_2)*%
X216225000Y-58137500D03*
%TO.P,U2,14,PC4*%
%TO.N,Net-(J3-Pin_3)*%
X215575000Y-58137500D03*
%TO.P,U2,15,PC5*%
%TO.N,Net-(J3-Pin_4)*%
X214925000Y-58137500D03*
%TO.P,U2,16,PC6*%
%TO.N,Net-(J3-Pin_5)*%
X214275000Y-58137500D03*
%TO.P,U2,17,PC7*%
%TO.N,Net-(J3-Pin_6)*%
X213625000Y-58137500D03*
%TO.P,U2,18,PD1*%
%TO.N,SWIOa*%
X212975000Y-58137500D03*
%TO.P,U2,19,PD2*%
%TO.N,D2+*%
X212325000Y-58137500D03*
%TO.P,U2,20,PD3*%
%TO.N,D2-*%
X211675000Y-58137500D03*
%TD*%
D23*
%TO.P,J8,1,Pin_1*%
%TO.N,VCC*%
X221210000Y-67510000D03*
%TD*%
D24*
%TO.P,SW1,*%
%TO.N,*%
X206600000Y-67400000D03*
X206600000Y-64200000D03*
D25*
%TO.P,SW1,1,A*%
%TO.N,VSS*%
X208350000Y-66800000D03*
X204850000Y-66800000D03*
%TO.P,SW1,2,B*%
%TO.N,Button*%
X208350000Y-64800000D03*
X204850000Y-64800000D03*
%TD*%
D26*
%TO.P,R1,1*%
%TO.N,DPU*%
X207575000Y-58800000D03*
%TO.P,R1,2*%
%TO.N,D2-*%
X209400000Y-58800000D03*
%TD*%
D27*
%TO.P,U3,1,GND*%
%TO.N,VSS*%
X212100000Y-75350000D03*
%TO.P,U3,2,VO*%
%TO.N,VCC*%
X214400000Y-75350000D03*
D28*
X214400000Y-69050000D03*
D27*
%TO.P,U3,3,VI*%
%TO.N,+5V*%
X216700000Y-75350000D03*
%TD*%
D29*
%TO.P,J5,1,Pin_1*%
%TO.N,Net-(J5-Pin_1)*%
X228835000Y-67510000D03*
D30*
%TO.P,J5,2,Pin_2*%
%TO.N,Net-(J5-Pin_2)*%
X226295000Y-67510000D03*
%TD*%
D29*
%TO.P,J3,1,Pin_1*%
%TO.N,Net-(J3-Pin_1)*%
X223750000Y-59910000D03*
D30*
%TO.P,J3,2,Pin_2*%
%TO.N,Net-(J3-Pin_2)*%
X226290000Y-59910000D03*
%TO.P,J3,3,Pin_3*%
%TO.N,Net-(J3-Pin_3)*%
X228830000Y-59910000D03*
%TO.P,J3,4,Pin_4*%
%TO.N,Net-(J3-Pin_4)*%
X231370000Y-59910000D03*
%TO.P,J3,5,Pin_5*%
%TO.N,Net-(J3-Pin_5)*%
X233910000Y-59910000D03*
%TO.P,J3,6,Pin_6*%
%TO.N,Net-(J3-Pin_6)*%
X236450000Y-59910000D03*
%TD*%
D31*
%TO.P,C4,1*%
%TO.N,VSS*%
X186537500Y-74600000D03*
%TO.P,C4,2*%
%TO.N,VCC*%
X188437500Y-74600000D03*
%TD*%
D32*
%TO.P,R3,1*%
%TO.N,VCC*%
X192200000Y-74600000D03*
%TO.P,R3,2*%
%TO.N,Net-(U1-EN)*%
X190375000Y-74600000D03*
%TD*%
D31*
%TO.P,C1,1*%
%TO.N,VSS*%
X207550000Y-62200000D03*
%TO.P,C1,2*%
%TO.N,VCC*%
X209450000Y-62200000D03*
%TD*%
D33*
%TO.P,D1,1,K*%
%TO.N,VSS*%
X203262500Y-58800000D03*
%TO.P,D1,2,A*%
%TO.N,Net-(D1-A)*%
X205137500Y-58800000D03*
%TD*%
D15*
%TO.P,J1,A1,GND*%
%TO.N,VSS*%
X195825000Y-54380000D03*
%TO.P,J1,A4,VBUS*%
%TO.N,+5V*%
X195025000Y-54380000D03*
%TO.P,J1,A5,CC1*%
%TO.N,Net-(J1-CC1)*%
X193750000Y-54380000D03*
%TO.P,J1,A6,D+*%
%TO.N,D+*%
X192750000Y-54380000D03*
%TO.P,J1,A7,D-*%
%TO.N,D-*%
X192250000Y-54380000D03*
%TO.P,J1,A8,SBU1*%
%TO.N,unconnected-(J1-SBU1-PadA8)*%
X194250000Y-54380000D03*
%TO.P,J1,A9,VBUS*%
%TO.N,+5V*%
X189975000Y-54380000D03*
%TO.P,J1,A12,GND*%
%TO.N,VSS*%
X189175000Y-54380000D03*
%TO.P,J1,B1,GND*%
X189425000Y-54380000D03*
%TO.P,J1,B4,VBUS*%
%TO.N,+5V*%
X190225000Y-54380000D03*
%TO.P,J1,B5,CC2*%
%TO.N,Net-(J1-CC2)*%
X190750000Y-54380000D03*
%TO.P,J1,B6,D+*%
%TO.N,D+*%
X191750000Y-54380000D03*
%TO.P,J1,B7,D-*%
%TO.N,D-*%
X193250000Y-54380000D03*
%TO.P,J1,B8,SBU2*%
%TO.N,unconnected-(J1-SBU2-PadB8)*%
X191250000Y-54380000D03*
%TO.P,J1,B9,VBUS*%
%TO.N,+5V*%
X194775000Y-54380000D03*
%TO.P,J1,B12,GND*%
%TO.N,VSS*%
X195575000Y-54380000D03*
D16*
%TO.P,J1,S1,SHIELD*%
X196820000Y-53680000D03*
D17*
X196820000Y-49530000D03*
D16*
X188180000Y-53680000D03*
D17*
X188180000Y-49530000D03*
%TD*%
D26*
%TO.P,R2,1*%
%TO.N,Net-(D1-A)*%
X203287500Y-62200000D03*
%TO.P,R2,2*%
%TO.N,LED*%
X205112500Y-62200000D03*
%TD*%
D29*
%TO.P,J4,1,Pin_1*%
%TO.N,Net-(J4-Pin_1)*%
X233915000Y-67510000D03*
D30*
%TO.P,J4,2,Pin_2*%
%TO.N,Net-(J4-Pin_2)*%
X231375000Y-67510000D03*
%TD*%
D12*
%TO.P,C3,1*%
%TO.N,VSS*%
X205100000Y-74400000D03*
%TO.P,C3,2*%
%TO.N,VCC*%
X203200000Y-74400000D03*
%TD*%
%TO.P,C5,1*%
%TO.N,+5V*%
X209350000Y-71100000D03*
%TO.P,C5,2*%
%TO.N,VSS*%
X207450000Y-71100000D03*
%TD*%
D34*
%TO.P,RN1,1,R1.1*%
%TO.N,VSS*%
X184200000Y-50200000D03*
D35*
%TO.P,RN1,2,R2.1*%
X184200000Y-51000000D03*
%TO.P,RN1,3,R3.1*%
X184200000Y-51800000D03*
D34*
%TO.P,RN1,4,R4.1*%
X184200000Y-52600000D03*
%TO.P,RN1,5,R4.2*%
%TO.N,Net-(J1-CC2)*%
X186000000Y-52600000D03*
D35*
%TO.P,RN1,6,R3.2*%
%TO.N,Net-(J1-CC1)*%
X186000000Y-51800000D03*
%TO.P,RN1,7,R2.2*%
%TO.N,CC2*%
X186000000Y-51000000D03*
D34*
%TO.P,RN1,8,R1.2*%
%TO.N,CC1*%
X186000000Y-50200000D03*
%TD*%
D23*
%TO.P,J9,1,Pin_1*%
%TO.N,VSS*%
X221210000Y-59910000D03*
%TD*%
D29*
%TO.P,J6,1,Pin_1*%
%TO.N,Net-(J6-Pin_1)*%
X223750000Y-67510000D03*
%TD*%
%TO.P,J7,1,Pin_1*%
%TO.N,Net-(J7-Pin_1)*%
X236455000Y-67510000D03*
%TD*%
D12*
%TO.P,C2,1*%
%TO.N,VSS*%
X205050000Y-71000000D03*
%TO.P,C2,2*%
%TO.N,VCC*%
X203150000Y-71000000D03*
%TD*%
D36*
%TO.N,VSS*%
X215600000Y-65200000D03*
X213400000Y-65400000D03*
X203200000Y-68200000D03*
X210000000Y-76200000D03*
X210800000Y-69600000D03*
X212600000Y-72400000D03*
X206200000Y-76000000D03*
X216600000Y-72200000D03*
X214400000Y-60600000D03*
X218400000Y-60200000D03*
%TO.N,VCC*%
X214840000Y-70690000D03*
X211750000Y-66010000D03*
X209450000Y-63079998D03*
X214260000Y-73600000D03*
%TO.N,+5V*%
X190800000Y-55800000D03*
X214400000Y-56400000D03*
X209800000Y-56400000D03*
X211800000Y-67200000D03*
X194400000Y-56000000D03*
%TO.N,D2+*%
X212700000Y-55830000D03*
X211150000Y-55580000D03*
%TO.N,Net-(J4-Pin_1)*%
X214800000Y-61320000D03*
%TO.N,Net-(J4-Pin_2)*%
X214006612Y-62555693D03*
%TO.N,Net-(J5-Pin_2)*%
X215004647Y-65806679D03*
%TO.N,Net-(J5-Pin_1)*%
X215000000Y-62570000D03*
%TO.N,Net-(J6-Pin_1)*%
X216651662Y-65986816D03*
%TO.N,LED*%
X215329143Y-67104327D03*
X206190000Y-61880000D03*
%TO.N,Net-(U1-EN)*%
X189570000Y-73680000D03*
X187370000Y-71260000D03*
%TO.N,SWIO*%
X201950000Y-63540000D03*
%TO.N,SWIOa*%
X212390000Y-59870000D03*
%TO.N,Net-(J7-Pin_1)*%
X218140000Y-59060000D03*
%TD*%
D37*
%TO.N,+5V*%
X194400000Y-56000000D02*
X194894184Y-56494184D01*
X194894184Y-56494184D02*
X209705816Y-56494184D01*
X209705816Y-56494184D02*
X209800000Y-56400000D01*
%TO.N,CC1*%
X186000000Y-50200000D02*
X187200000Y-50200000D01*
X211600000Y-51600000D02*
X213250000Y-53250000D01*
X187200000Y-50200000D02*
X187800000Y-50800000D01*
X200923654Y-50250000D02*
X201876346Y-50250000D01*
X201876346Y-50250000D02*
X203226346Y-51600000D01*
X213250000Y-53250000D02*
X213250000Y-54387500D01*
X187800000Y-50800000D02*
X200373654Y-50800000D01*
X200373654Y-50800000D02*
X200923654Y-50250000D01*
X203226346Y-51600000D02*
X211600000Y-51600000D01*
%TO.N,CC2*%
X210250000Y-53250000D02*
X210250000Y-54387500D01*
X202553949Y-52046051D02*
X209046051Y-52046051D01*
X186200000Y-51200000D02*
X198834314Y-51200000D01*
X209046051Y-52046051D02*
X210250000Y-53250000D01*
X200184314Y-52550000D02*
X202050000Y-52550000D01*
X186000000Y-51000000D02*
X186200000Y-51200000D01*
X198834314Y-51200000D02*
X200184314Y-52550000D01*
X202050000Y-52550000D02*
X202553949Y-52046051D01*
%TO.N,Net-(J1-CC1)*%
X186000000Y-51800000D02*
X192160686Y-51800000D01*
X192160686Y-51800000D02*
X193750000Y-53389314D01*
X193750000Y-53389314D02*
X193750000Y-54380000D01*
%TO.N,Net-(J1-CC2)*%
X186000000Y-52600000D02*
X186600000Y-52600000D01*
X186600000Y-52600000D02*
X187000000Y-52200000D01*
X187000000Y-52200000D02*
X189584594Y-52200000D01*
X189584594Y-52200000D02*
X190750000Y-53365406D01*
X190750000Y-53365406D02*
X190750000Y-54380000D01*
%TO.N,VSS*%
X215620000Y-54387500D02*
X216320000Y-53687500D01*
X215575000Y-65175000D02*
X215600000Y-65200000D01*
X215575000Y-63862500D02*
X215575000Y-65175000D01*
X215075000Y-54387500D02*
X215620000Y-54387500D01*
%TO.N,VCC*%
X213930000Y-66010000D02*
X211750000Y-66010000D01*
X216382423Y-66636816D02*
X216920901Y-66636816D01*
X188437500Y-74600000D02*
X189437500Y-75600000D01*
X203200000Y-71050000D02*
X203150000Y-71000000D01*
X201649999Y-69499999D02*
X200447700Y-69499999D01*
X214840000Y-69490000D02*
X214400000Y-69050000D01*
X214400000Y-66480000D02*
X213930000Y-66010000D01*
X214840000Y-70690000D02*
X214840000Y-69490000D01*
X203150000Y-71000000D02*
X201649999Y-69499999D01*
X214400000Y-69050000D02*
X214400000Y-66480000D01*
X217301662Y-66256055D02*
X217301662Y-65622423D01*
X204740000Y-72860000D02*
X208620000Y-72860000D01*
X191200000Y-75600000D02*
X192200000Y-74600000D01*
X192200000Y-74600000D02*
X203000000Y-74600000D01*
X203200000Y-74400000D02*
X203200000Y-71050000D01*
X208620000Y-72860000D02*
X209350000Y-73590000D01*
X216202286Y-66456679D02*
X216382423Y-66636816D01*
X209450000Y-62200000D02*
X209450000Y-63079998D01*
X202950000Y-71200000D02*
X203150000Y-71000000D01*
X209849938Y-73900062D02*
X212950062Y-73900062D01*
X214376679Y-66456679D02*
X216202286Y-66456679D01*
X214400000Y-73740000D02*
X214260000Y-73600000D01*
X216920901Y-66636816D02*
X217301662Y-66256055D01*
X212950062Y-73900062D02*
X214400000Y-75350000D01*
X209350000Y-74400000D02*
X209849938Y-73900062D01*
X203200000Y-74400000D02*
X204740000Y-72860000D01*
X213930000Y-66010000D02*
X214376679Y-66456679D01*
X217301662Y-65622423D02*
X216875000Y-65195761D01*
X215940000Y-67510000D02*
X214400000Y-69050000D01*
X214400000Y-75350000D02*
X214400000Y-73740000D01*
X189437500Y-75600000D02*
X191200000Y-75600000D01*
X209350000Y-73590000D02*
X209350000Y-74400000D01*
X221210000Y-67510000D02*
X215940000Y-67510000D01*
X216875000Y-65195761D02*
X216875000Y-63862500D01*
X203000000Y-74600000D02*
X203200000Y-74400000D01*
%TO.N,+5V*%
X189975000Y-54975000D02*
X190800000Y-55800000D01*
X194775000Y-55625000D02*
X194775000Y-54380000D01*
X211800000Y-67200000D02*
X209350000Y-69650000D01*
X194400000Y-56000000D02*
X194775000Y-55625000D01*
X213450000Y-71100000D02*
X216700000Y-74350000D01*
X209350000Y-69650000D02*
X209350000Y-71100000D01*
X195025000Y-54380000D02*
X194775000Y-54380000D01*
X216700000Y-74350000D02*
X216700000Y-75350000D01*
X214525000Y-56275000D02*
X214525000Y-54387500D01*
X209475000Y-56075000D02*
X209800000Y-56400000D01*
X189975000Y-54380000D02*
X189975000Y-54975000D01*
X214400000Y-56400000D02*
X214525000Y-56275000D01*
X209475000Y-54387500D02*
X209475000Y-56075000D01*
X209350000Y-71100000D02*
X213450000Y-71100000D01*
%TO.N,Net-(D1-A)*%
X203287500Y-60650000D02*
X205137500Y-58800000D01*
X203287500Y-62200000D02*
X203287500Y-60650000D01*
%TO.N,D+*%
X192685000Y-56240000D02*
X192800000Y-56240000D01*
X192800000Y-58052299D02*
X192800000Y-56240000D01*
X192775000Y-55455001D02*
X192750000Y-55430001D01*
X192750000Y-55430001D02*
X192750000Y-54380000D01*
X192800000Y-55800000D02*
X192775000Y-55775000D01*
X192800000Y-56240000D02*
X192800000Y-55800000D01*
X191750000Y-54380000D02*
X191750000Y-55305000D01*
X192599999Y-58252300D02*
X192800000Y-58052299D01*
X192775000Y-55775000D02*
X192775000Y-55455001D01*
X191750000Y-55305000D02*
X192685000Y-56240000D01*
%TO.N,D-*%
X193175000Y-53380000D02*
X193175000Y-53720000D01*
X193450000Y-58252300D02*
X193250000Y-58052300D01*
X193065000Y-53270000D02*
X193175000Y-53380000D01*
X193225000Y-55602794D02*
X193225000Y-55455001D01*
X192435000Y-53270000D02*
X192550000Y-53270000D01*
X193225000Y-55455001D02*
X193250000Y-55430001D01*
X192250000Y-54380000D02*
X192250000Y-53455000D01*
X192250000Y-53455000D02*
X192435000Y-53270000D01*
X193250000Y-58052300D02*
X193250000Y-55627794D01*
X193250000Y-55430001D02*
X193250000Y-54380000D01*
X192550000Y-53270000D02*
X193065000Y-53270000D01*
X193250000Y-55627794D02*
X193225000Y-55602794D01*
%TO.N,D2-*%
X211750000Y-55437501D02*
X211750000Y-54387500D01*
X211775000Y-55462501D02*
X211750000Y-55437501D01*
X212750000Y-53462500D02*
X212750000Y-54387500D01*
X211750000Y-53462500D02*
X211902500Y-53310000D01*
X211675000Y-57031249D02*
X211775000Y-56931249D01*
X212597500Y-53310000D02*
X212750000Y-53462500D01*
X211750000Y-54387500D02*
X211750000Y-53462500D01*
X211902500Y-53310000D02*
X212597500Y-53310000D01*
X211675000Y-58137500D02*
X211675000Y-57031249D01*
X209400000Y-58800000D02*
X211012500Y-58800000D01*
X211775000Y-56931249D02*
X211775000Y-55462501D01*
X211012500Y-58800000D02*
X211675000Y-58137500D01*
%TO.N,D2+*%
X212225000Y-55462501D02*
X212250000Y-55437501D01*
X212260000Y-56270000D02*
X212700000Y-55830000D01*
X211250000Y-55480000D02*
X211250000Y-54387500D01*
X212225000Y-56270000D02*
X212260000Y-56270000D01*
X212325000Y-58137500D02*
X212325000Y-57031249D01*
X212225000Y-56931249D02*
X212225000Y-56270000D01*
X212225000Y-56270000D02*
X212225000Y-55462501D01*
X212250000Y-55437501D02*
X212250000Y-54387500D01*
X212325000Y-57031249D02*
X212225000Y-56931249D01*
X211150000Y-55580000D02*
X211250000Y-55480000D01*
%TO.N,Net-(J3-Pin_6)*%
X217907249Y-62820000D02*
X217570001Y-62820000D01*
X233490000Y-62870000D02*
X217957249Y-62870000D01*
X236450000Y-59910000D02*
X233490000Y-62870000D01*
X217570001Y-62820000D02*
X213625000Y-58874999D01*
X213625000Y-58874999D02*
X213625000Y-58137500D01*
X217957249Y-62870000D02*
X217907249Y-62820000D01*
%TO.N,Net-(J3-Pin_1)*%
X217256544Y-57100000D02*
X216875000Y-57481544D01*
X218025000Y-57525000D02*
X218025000Y-57331544D01*
X223750000Y-59910000D02*
X222600000Y-58760000D01*
X216875000Y-57481544D02*
X216875000Y-58137500D01*
X219260000Y-58760000D02*
X218025000Y-57525000D01*
X218025000Y-57331544D02*
X217793456Y-57100000D01*
X217793456Y-57100000D02*
X217256544Y-57100000D01*
X222600000Y-58760000D02*
X219260000Y-58760000D01*
%TO.N,Net-(J3-Pin_5)*%
X233910000Y-59910000D02*
X231350000Y-62470000D01*
X231350000Y-62470000D02*
X218122938Y-62470000D01*
X217735687Y-62420000D02*
X214275000Y-58959313D01*
X214275000Y-58959313D02*
X214275000Y-58137500D01*
X218122938Y-62470000D02*
X218072938Y-62420000D01*
X218072938Y-62420000D02*
X217735687Y-62420000D01*
%TO.N,Net-(J3-Pin_4)*%
X218238627Y-62020000D02*
X218070001Y-62020000D01*
X218288627Y-62070000D02*
X218238627Y-62020000D01*
X214925000Y-58874999D02*
X214925000Y-58137500D01*
X218070001Y-62020000D02*
X214925000Y-58874999D01*
X229210000Y-62070000D02*
X218288627Y-62070000D01*
X231370000Y-59910000D02*
X229210000Y-62070000D01*
%TO.N,Net-(J3-Pin_3)*%
X218454316Y-61670000D02*
X218404316Y-61620000D01*
X218404316Y-61620000D02*
X218320001Y-61620000D01*
X215575000Y-58874999D02*
X215575000Y-58137500D01*
X218320001Y-61620000D02*
X215575000Y-58874999D01*
X228830000Y-59910000D02*
X227070000Y-61670000D01*
X227070000Y-61670000D02*
X218454316Y-61670000D01*
%TO.N,Net-(J3-Pin_2)*%
X216225000Y-58874999D02*
X216225000Y-58137500D01*
X218620001Y-61270000D02*
X216225000Y-58874999D01*
X226290000Y-59910000D02*
X224930000Y-61270000D01*
X224930000Y-61270000D02*
X218620001Y-61270000D01*
%TO.N,Net-(J4-Pin_1)*%
X212975000Y-62668066D02*
X212975000Y-63862500D01*
X214800000Y-61320000D02*
X214323066Y-61320000D01*
X214323066Y-61320000D02*
X212975000Y-62668066D01*
%TO.N,Net-(J4-Pin_2)*%
X213625000Y-63862500D02*
X213625000Y-62937305D01*
X213625000Y-62937305D02*
X214006612Y-62555693D01*
%TO.N,Net-(J5-Pin_2)*%
X214925000Y-65727032D02*
X215004647Y-65806679D01*
X214925000Y-63862500D02*
X214925000Y-65727032D01*
%TO.N,Net-(J5-Pin_1)*%
X214275000Y-63206544D02*
X214911544Y-62570000D01*
X214911544Y-62570000D02*
X215000000Y-62570000D01*
X214275000Y-63862500D02*
X214275000Y-63206544D01*
%TO.N,Net-(J6-Pin_1)*%
X216225000Y-63862500D02*
X216225000Y-65560154D01*
X216225000Y-65560154D02*
X216651662Y-65986816D01*
%TO.N,DPU*%
X209775000Y-60975000D02*
X209934744Y-60975000D01*
X207575000Y-58800000D02*
X207600000Y-58800000D01*
X207600000Y-58800000D02*
X209775000Y-60975000D01*
X211675000Y-62715256D02*
X211675000Y-63862500D01*
X209934744Y-60975000D02*
X211675000Y-62715256D01*
%TO.N,LED*%
X217725000Y-66398403D02*
X217019076Y-67104327D01*
X205432500Y-61880000D02*
X205112500Y-62200000D01*
X217525000Y-63862500D02*
X217725000Y-64062500D01*
X217019076Y-67104327D02*
X215329143Y-67104327D01*
X217725000Y-64062500D02*
X217725000Y-66398403D01*
X206190000Y-61880000D02*
X205432500Y-61880000D01*
%TO.N,Net-(U1-EN)*%
X186512299Y-71260000D02*
X186452300Y-71200001D01*
X190375000Y-74600000D02*
X190375000Y-74485000D01*
X187370000Y-71260000D02*
X186512299Y-71260000D01*
X190375000Y-74485000D02*
X189570000Y-73680000D01*
%TO.N,Button*%
X204850000Y-64800000D02*
X208350000Y-64800000D01*
X211564999Y-65360000D02*
X212325000Y-64599999D01*
X212325000Y-64599999D02*
X212325000Y-63862500D01*
X208910000Y-65360000D02*
X211564999Y-65360000D01*
X208350000Y-64800000D02*
X208910000Y-65360000D01*
%TO.N,SWIO*%
X201950000Y-63540000D02*
X200457701Y-63540000D01*
%TO.N,SWIOa*%
X212975000Y-58137500D02*
X212975000Y-59285000D01*
X212975000Y-59285000D02*
X212390000Y-59870000D01*
%TO.N,SWIO*%
X200457701Y-63540000D02*
X200447700Y-63550001D01*
%TO.N,Net-(J7-Pin_1)*%
X218140000Y-58752500D02*
X217525000Y-58137500D01*
X218140000Y-59060000D02*
X218140000Y-58752500D01*
%TO.N,Net-(J10-Pin_7)*%
X186452300Y-62700000D02*
X186249100Y-62700000D01*
X185549100Y-62000000D02*
X184200000Y-62000000D01*
X186249100Y-62700000D02*
X185549100Y-62000000D01*
%TO.N,Net-(J10-Pin_1)*%
X184400000Y-67800000D02*
X184200000Y-68000000D01*
X186452300Y-67800000D02*
X184400000Y-67800000D01*
%TO.N,Net-(J10-Pin_8)*%
X186452300Y-61849999D02*
X186249100Y-61849999D01*
X185399101Y-61000000D02*
X184200000Y-61000000D01*
X186249100Y-61849999D02*
X185399101Y-61000000D01*
%TO.N,Net-(J10-Pin_6)*%
X185699099Y-63000000D02*
X184200000Y-63000000D01*
X186452300Y-63550001D02*
X186249100Y-63550001D01*
X186249100Y-63550001D02*
X185699099Y-63000000D01*
%TO.N,Net-(J10-Pin_4)*%
X184450000Y-65250000D02*
X184200000Y-65000000D01*
X186452300Y-65250000D02*
X184450000Y-65250000D01*
%TO.N,Net-(J10-Pin_3)*%
X186452300Y-66100001D02*
X184300001Y-66100001D01*
X184300001Y-66100001D02*
X184200000Y-66000000D01*
%TO.N,Net-(J10-Pin_2)*%
X186452300Y-66949999D02*
X184250001Y-66949999D01*
X184250001Y-66949999D02*
X184200000Y-67000000D01*
%TO.N,Net-(J10-Pin_5)*%
X185845900Y-64399999D02*
X185445901Y-64000000D01*
X185445901Y-64000000D02*
X184200000Y-64000000D01*
X186452300Y-64399999D02*
X185845900Y-64399999D01*
%TD*%
%TA.AperFunction,Conductor*%
%TO.N,VSS*%
G36*
X215912791Y-47521821D02*
G01*
X215974933Y-47521820D01*
X215982419Y-47522045D01*
X216272482Y-47539589D01*
X216287340Y-47541393D01*
X216569475Y-47593095D01*
X216584008Y-47596677D01*
X216754495Y-47649802D01*
X216857859Y-47682011D01*
X216871860Y-47687321D01*
X217133422Y-47805039D01*
X217146680Y-47811997D01*
X217392150Y-47960389D01*
X217404461Y-47968887D01*
X217630259Y-48145788D01*
X217641467Y-48155718D01*
X217844281Y-48358532D01*
X217854211Y-48369740D01*
X218031108Y-48595532D01*
X218039614Y-48607855D01*
X218188001Y-48853318D01*
X218194960Y-48866577D01*
X218312678Y-49128139D01*
X218317988Y-49142140D01*
X218403321Y-49415988D01*
X218406904Y-49430527D01*
X218458605Y-49712655D01*
X218460410Y-49727520D01*
X218477953Y-50017569D01*
X218478179Y-50025055D01*
X218478179Y-50093527D01*
X218478379Y-50096521D01*
X218495900Y-56653515D01*
X218476394Y-56720606D01*
X218423713Y-56766502D01*
X218354581Y-56776631D01*
X218290948Y-56747776D01*
X218284219Y-56741527D01*
X218162173Y-56619481D01*
X218162172Y-56619480D01*
X218058416Y-56559577D01*
X218058415Y-56559576D01*
X218025239Y-56540422D01*
X217969337Y-56525443D01*
X217872513Y-56499499D01*
X217714399Y-56499499D01*
X217706803Y-56499499D01*
X217706787Y-56499500D01*
X217343214Y-56499500D01*
X217343198Y-56499499D01*
X217335602Y-56499499D01*
X217177487Y-56499499D01*
X217101123Y-56519961D01*
X217024758Y-56540423D01*
X217024753Y-56540426D01*
X216887834Y-56619475D01*
X216887830Y-56619478D01*
X216618546Y-56888761D01*
X216557223Y-56922245D01*
X216487531Y-56917261D01*
X216483428Y-56915646D01*
X216481762Y-56914956D01*
X216481760Y-56914955D01*
X216364361Y-56899500D01*
X216085636Y-56899500D01*
X215968246Y-56914953D01*
X215968234Y-56914957D01*
X215947450Y-56923566D01*
X215877981Y-56931033D01*
X215852550Y-56923566D01*
X215831765Y-56914957D01*
X215831760Y-56914955D01*
X215714361Y-56899500D01*
X215435636Y-56899500D01*
X215318246Y-56914953D01*
X215318234Y-56914957D01*
X215297450Y-56923566D01*
X215227981Y-56931033D01*
X215202551Y-56923566D01*
X215189856Y-56918308D01*
X215135451Y-56874469D01*
X215113384Y-56808176D01*
X215124245Y-56756359D01*
X215123489Y-56756095D01*
X215125513Y-56750308D01*
X215125594Y-56749926D01*
X215125782Y-56749531D01*
X215125789Y-56749522D01*
X215185368Y-56579255D01*
X215187585Y-56559577D01*
X215205565Y-56400003D01*
X215205565Y-56399996D01*
X215185369Y-56220750D01*
X215185366Y-56220737D01*
X215132459Y-56069538D01*
X215125500Y-56028583D01*
X215125500Y-55711500D01*
X215145185Y-55644461D01*
X215166153Y-55626291D01*
X215163681Y-55623819D01*
X215200000Y-55587500D01*
X215200000Y-54511500D01*
X215219685Y-54444461D01*
X215272489Y-54398706D01*
X215324000Y-54387500D01*
X215326000Y-54387500D01*
X215393039Y-54407185D01*
X215438794Y-54459989D01*
X215450000Y-54511500D01*
X215450000Y-55587500D01*
X215497828Y-55587500D01*
X215497844Y-55587499D01*
X215557372Y-55581098D01*
X215557379Y-55581096D01*
X215692086Y-55530854D01*
X215692093Y-55530850D01*
X215807187Y-55444690D01*
X215807190Y-55444687D01*
X215893350Y-55329593D01*
X215893353Y-55329588D01*
X215911114Y-55281967D01*
X215952985Y-55226032D01*
X216018448Y-55201614D01*
X216051488Y-55203681D01*
X216070000Y-55207363D01*
X216070000Y-54404488D01*
X216079940Y-54421705D01*
X216135795Y-54477560D01*
X216204204Y-54517056D01*
X216280504Y-54537500D01*
X216359496Y-54537500D01*
X216435796Y-54517056D01*
X216504205Y-54477560D01*
X216560060Y-54421705D01*
X216570000Y-54404488D01*
X216570000Y-55207362D01*
X216611690Y-55199069D01*
X216611692Y-55199069D01*
X216793671Y-55123692D01*
X216793684Y-55123685D01*
X216957462Y-55014251D01*
X216957466Y-55014248D01*
X217096748Y-54874966D01*
X217096751Y-54874962D01*
X217206185Y-54711184D01*
X217206192Y-54711171D01*
X217281569Y-54529193D01*
X217281572Y-54529181D01*
X217319999Y-54335995D01*
X217320000Y-54335992D01*
X217320000Y-53937500D01*
X216620000Y-53937500D01*
X216620000Y-53437500D01*
X217320000Y-53437500D01*
X217320000Y-53039008D01*
X217319999Y-53039004D01*
X217281572Y-52845818D01*
X217281569Y-52845806D01*
X217206192Y-52663828D01*
X217206185Y-52663815D01*
X217096751Y-52500037D01*
X217096748Y-52500033D01*
X216957466Y-52360751D01*
X216957462Y-52360748D01*
X216793684Y-52251314D01*
X216793671Y-52251307D01*
X216611691Y-52175929D01*
X216611683Y-52175927D01*
X216570000Y-52167635D01*
X216570000Y-52970511D01*
X216560060Y-52953295D01*
X216504205Y-52897440D01*
X216435796Y-52857944D01*
X216359496Y-52837500D01*
X216280504Y-52837500D01*
X216204204Y-52857944D01*
X216135795Y-52897440D01*
X216079940Y-52953295D01*
X216070000Y-52970511D01*
X216070000Y-52167636D01*
X216069999Y-52167635D01*
X216028316Y-52175927D01*
X216028308Y-52175929D01*
X215846328Y-52251307D01*
X215846315Y-52251314D01*
X215682537Y-52360748D01*
X215682533Y-52360751D01*
X215543251Y-52500033D01*
X215543248Y-52500037D01*
X215433814Y-52663815D01*
X215433809Y-52663824D01*
X215429866Y-52673345D01*
X215386023Y-52727747D01*
X215319728Y-52749810D01*
X215252030Y-52732529D01*
X215246597Y-52728851D01*
X215112136Y-52651219D01*
X215038950Y-52631609D01*
X214965766Y-52612000D01*
X214814234Y-52612000D01*
X214667863Y-52651219D01*
X214536635Y-52726985D01*
X214536632Y-52726987D01*
X214429487Y-52834132D01*
X214429485Y-52834135D01*
X214353719Y-52965363D01*
X214331729Y-53047432D01*
X214320189Y-53090504D01*
X214318959Y-53095093D01*
X214282594Y-53154754D01*
X214219747Y-53185283D01*
X214199185Y-53187000D01*
X214102130Y-53187000D01*
X214102123Y-53187001D01*
X214042518Y-53193408D01*
X214041015Y-53193764D01*
X214039213Y-53193764D01*
X214034804Y-53194238D01*
X214034753Y-53193764D01*
X213990245Y-53193764D01*
X213990194Y-53194238D01*
X213985785Y-53193764D01*
X213983987Y-53193764D01*
X213982485Y-53193409D01*
X213937301Y-53188551D01*
X213872750Y-53161813D01*
X213832902Y-53104420D01*
X213830781Y-53097352D01*
X213829824Y-53093782D01*
X213829436Y-53092331D01*
X213809577Y-53018216D01*
X213797149Y-52996690D01*
X213730524Y-52881290D01*
X213730521Y-52881286D01*
X213730520Y-52881284D01*
X213618716Y-52769480D01*
X213618715Y-52769479D01*
X213614385Y-52765149D01*
X213614374Y-52765139D01*
X212087590Y-51238355D01*
X212087588Y-51238352D01*
X211968717Y-51119481D01*
X211968716Y-51119480D01*
X211881904Y-51069360D01*
X211881904Y-51069359D01*
X211881900Y-51069358D01*
X211831785Y-51040423D01*
X211679057Y-50999499D01*
X211520943Y-50999499D01*
X211513347Y-50999499D01*
X211513331Y-50999500D01*
X208299332Y-50999500D01*
X208232293Y-50979815D01*
X208186538Y-50927011D01*
X208176594Y-50857853D01*
X208205619Y-50794297D01*
X208230441Y-50772398D01*
X208317462Y-50714251D01*
X208317466Y-50714248D01*
X208456748Y-50574966D01*
X208456751Y-50574962D01*
X208566185Y-50411184D01*
X208566192Y-50411171D01*
X208641569Y-50229193D01*
X208641572Y-50229181D01*
X208679999Y-50035995D01*
X208680000Y-50035992D01*
X208680000Y-49787500D01*
X207980000Y-49787500D01*
X207980000Y-49287500D01*
X208680000Y-49287500D01*
X208680000Y-49039008D01*
X208679999Y-49039004D01*
X215320000Y-49039004D01*
X215320000Y-49287500D01*
X216020000Y-49287500D01*
X216020000Y-49787500D01*
X215320000Y-49787500D01*
X215320000Y-50035995D01*
X215358427Y-50229181D01*
X215358430Y-50229193D01*
X215433807Y-50411171D01*
X215433814Y-50411184D01*
X215543248Y-50574962D01*
X215543251Y-50574966D01*
X215682533Y-50714248D01*
X215682537Y-50714251D01*
X215846315Y-50823685D01*
X215846328Y-50823692D01*
X216028308Y-50899069D01*
X216070000Y-50907362D01*
X216070000Y-50104488D01*
X216079940Y-50121705D01*
X216135795Y-50177560D01*
X216204204Y-50217056D01*
X216280504Y-50237500D01*
X216359496Y-50237500D01*
X216435796Y-50217056D01*
X216504205Y-50177560D01*
X216560060Y-50121705D01*
X216570000Y-50104488D01*
X216570000Y-50907362D01*
X216611690Y-50899069D01*
X216611692Y-50899069D01*
X216793671Y-50823692D01*
X216793684Y-50823685D01*
X216957462Y-50714251D01*
X216957466Y-50714248D01*
X217096748Y-50574966D01*
X217096751Y-50574962D01*
X217206185Y-50411184D01*
X217206192Y-50411171D01*
X217281569Y-50229193D01*
X217281572Y-50229181D01*
X217319999Y-50035995D01*
X217320000Y-50035992D01*
X217320000Y-49787500D01*
X216620000Y-49787500D01*
X216620000Y-49287500D01*
X217320000Y-49287500D01*
X217320000Y-49039008D01*
X217319999Y-49039004D01*
X217281572Y-48845818D01*
X217281569Y-48845806D01*
X217206192Y-48663828D01*
X217206185Y-48663815D01*
X217096751Y-48500037D01*
X217096748Y-48500033D01*
X216957466Y-48360751D01*
X216957462Y-48360748D01*
X216793684Y-48251314D01*
X216793671Y-48251307D01*
X216611691Y-48175929D01*
X216611683Y-48175927D01*
X216570000Y-48167635D01*
X216570000Y-48970511D01*
X216560060Y-48953295D01*
X216504205Y-48897440D01*
X216435796Y-48857944D01*
X216359496Y-48837500D01*
X216280504Y-48837500D01*
X216204204Y-48857944D01*
X216135795Y-48897440D01*
X216079940Y-48953295D01*
X216070000Y-48970511D01*
X216070000Y-48167636D01*
X216069999Y-48167635D01*
X216028316Y-48175927D01*
X216028308Y-48175929D01*
X215846328Y-48251307D01*
X215846315Y-48251314D01*
X215682537Y-48360748D01*
X215682533Y-48360751D01*
X215543251Y-48500033D01*
X215543248Y-48500037D01*
X215433814Y-48663815D01*
X215433807Y-48663828D01*
X215358430Y-48845806D01*
X215358427Y-48845818D01*
X215320000Y-49039004D01*
X208679999Y-49039004D01*
X208641572Y-48845818D01*
X208641569Y-48845806D01*
X208566192Y-48663828D01*
X208566185Y-48663815D01*
X208456751Y-48500037D01*
X208456748Y-48500033D01*
X208317466Y-48360751D01*
X208317462Y-48360748D01*
X208153684Y-48251314D01*
X208153671Y-48251307D01*
X207971691Y-48175929D01*
X207971683Y-48175927D01*
X207930000Y-48167635D01*
X207930000Y-48970511D01*
X207920060Y-48953295D01*
X207864205Y-48897440D01*
X207795796Y-48857944D01*
X207719496Y-48837500D01*
X207640504Y-48837500D01*
X207564204Y-48857944D01*
X207495795Y-48897440D01*
X207439940Y-48953295D01*
X207430000Y-48970511D01*
X207430000Y-48167636D01*
X207429999Y-48167635D01*
X207388316Y-48175927D01*
X207388308Y-48175929D01*
X207206328Y-48251307D01*
X207206315Y-48251314D01*
X207042537Y-48360748D01*
X207042533Y-48360751D01*
X206903251Y-48500033D01*
X206903248Y-48500037D01*
X206793814Y-48663815D01*
X206793807Y-48663828D01*
X206718430Y-48845806D01*
X206718427Y-48845818D01*
X206680000Y-49039004D01*
X206680000Y-49287500D01*
X207380000Y-49287500D01*
X207380000Y-49787500D01*
X206680000Y-49787500D01*
X206680000Y-50035995D01*
X206718427Y-50229181D01*
X206718430Y-50229193D01*
X206793807Y-50411171D01*
X206793814Y-50411184D01*
X206903248Y-50574962D01*
X206903251Y-50574966D01*
X207042533Y-50714248D01*
X207042537Y-50714251D01*
X207129559Y-50772398D01*
X207174364Y-50826010D01*
X207183071Y-50895335D01*
X207152916Y-50958363D01*
X207093473Y-50995082D01*
X207060668Y-50999500D01*
X203526443Y-50999500D01*
X203459404Y-50979815D01*
X203438762Y-50963181D01*
X202363936Y-49888355D01*
X202363934Y-49888352D01*
X202245063Y-49769481D01*
X202245062Y-49769480D01*
X202158250Y-49719360D01*
X202158250Y-49719359D01*
X202158246Y-49719358D01*
X202108131Y-49690423D01*
X201955403Y-49649499D01*
X201797289Y-49649499D01*
X201789693Y-49649499D01*
X201789677Y-49649500D01*
X201076715Y-49649500D01*
X201009676Y-49629815D01*
X200963921Y-49577011D01*
X200953187Y-49536307D01*
X200938517Y-49368632D01*
X200938515Y-49368621D01*
X200877381Y-49140464D01*
X200877377Y-49140455D01*
X200777549Y-48926372D01*
X200718873Y-48842574D01*
X200086910Y-49474537D01*
X200069873Y-49410955D01*
X200004047Y-49296941D01*
X199910955Y-49203849D01*
X199796941Y-49138023D01*
X199733357Y-49120985D01*
X200365320Y-48489021D01*
X200281524Y-48430346D01*
X200067440Y-48330518D01*
X200067431Y-48330514D01*
X199839274Y-48269380D01*
X199839263Y-48269378D01*
X199603950Y-48248791D01*
X199603946Y-48248791D01*
X199368632Y-48269378D01*
X199368621Y-48269380D01*
X199140464Y-48330514D01*
X199140455Y-48330518D01*
X198926371Y-48430347D01*
X198926369Y-48430348D01*
X198842575Y-48489021D01*
X198842574Y-48489021D01*
X199474539Y-49120985D01*
X199410955Y-49138023D01*
X199296941Y-49203849D01*
X199203849Y-49296941D01*
X199138023Y-49410955D01*
X199120985Y-49474538D01*
X198489021Y-48842574D01*
X198489021Y-48842575D01*
X198430348Y-48926369D01*
X198430347Y-48926371D01*
X198330518Y-49140455D01*
X198330514Y-49140464D01*
X198269380Y-49368621D01*
X198269378Y-49368632D01*
X198248791Y-49603946D01*
X198248791Y-49603948D01*
X198269378Y-49839263D01*
X198269380Y-49839274D01*
X198324077Y-50043407D01*
X198322414Y-50113257D01*
X198283251Y-50171119D01*
X198219023Y-50198623D01*
X198204302Y-50199500D01*
X197937079Y-50199500D01*
X197870040Y-50179815D01*
X197824285Y-50127011D01*
X197814341Y-50057853D01*
X197815461Y-50051310D01*
X197820000Y-50028489D01*
X197820000Y-49780000D01*
X197120000Y-49780000D01*
X197120000Y-49280000D01*
X197820000Y-49280000D01*
X197820000Y-49031508D01*
X197819999Y-49031504D01*
X197781572Y-48838318D01*
X197781569Y-48838306D01*
X197706192Y-48656328D01*
X197706185Y-48656315D01*
X197596751Y-48492537D01*
X197596748Y-48492533D01*
X197457466Y-48353251D01*
X197457462Y-48353248D01*
X197293684Y-48243814D01*
X197293671Y-48243807D01*
X197111691Y-48168429D01*
X197111683Y-48168427D01*
X197070000Y-48160135D01*
X197070000Y-48963011D01*
X197060060Y-48945795D01*
X197004205Y-48889940D01*
X196935796Y-48850444D01*
X196859496Y-48830000D01*
X196780504Y-48830000D01*
X196704204Y-48850444D01*
X196635795Y-48889940D01*
X196579940Y-48945795D01*
X196570000Y-48963011D01*
X196570000Y-48160136D01*
X196569999Y-48160135D01*
X196528316Y-48168427D01*
X196528308Y-48168429D01*
X196346328Y-48243807D01*
X196346315Y-48243814D01*
X196182537Y-48353248D01*
X196182533Y-48353251D01*
X196043251Y-48492533D01*
X196043248Y-48492537D01*
X195933814Y-48656315D01*
X195933807Y-48656328D01*
X195858430Y-48838306D01*
X195858427Y-48838318D01*
X195820000Y-49031504D01*
X195820000Y-49280000D01*
X196520000Y-49280000D01*
X196520000Y-49780000D01*
X195820000Y-49780000D01*
X195820000Y-50028489D01*
X195824539Y-50051310D01*
X195818310Y-50120901D01*
X195775447Y-50176078D01*
X195709557Y-50199322D01*
X195702921Y-50199500D01*
X189297079Y-50199500D01*
X189230040Y-50179815D01*
X189184285Y-50127011D01*
X189174341Y-50057853D01*
X189175461Y-50051310D01*
X189180000Y-50028489D01*
X189180000Y-49780000D01*
X188480000Y-49780000D01*
X188480000Y-49280000D01*
X189180000Y-49280000D01*
X189180000Y-49031508D01*
X189179999Y-49031504D01*
X189141572Y-48838318D01*
X189141569Y-48838306D01*
X189066192Y-48656328D01*
X189066185Y-48656315D01*
X188956751Y-48492537D01*
X188956748Y-48492533D01*
X188817466Y-48353251D01*
X188817462Y-48353248D01*
X188653684Y-48243814D01*
X188653671Y-48243807D01*
X188471691Y-48168429D01*
X188471683Y-48168427D01*
X188430000Y-48160135D01*
X188430000Y-48963011D01*
X188420060Y-48945795D01*
X188364205Y-48889940D01*
X188295796Y-48850444D01*
X188219496Y-48830000D01*
X188140504Y-48830000D01*
X188064204Y-48850444D01*
X187995795Y-48889940D01*
X187939940Y-48945795D01*
X187930000Y-48963011D01*
X187930000Y-48160136D01*
X187929999Y-48160135D01*
X187888316Y-48168427D01*
X187888308Y-48168429D01*
X187706328Y-48243807D01*
X187706315Y-48243814D01*
X187542537Y-48353248D01*
X187542533Y-48353251D01*
X187403251Y-48492533D01*
X187403248Y-48492537D01*
X187293814Y-48656315D01*
X187293807Y-48656328D01*
X187218430Y-48838306D01*
X187218427Y-48838318D01*
X187180000Y-49031504D01*
X187180000Y-49280000D01*
X187880000Y-49280000D01*
X187880000Y-49780000D01*
X187680598Y-49780000D01*
X187613559Y-49760315D01*
X187592917Y-49743681D01*
X187568717Y-49719481D01*
X187568716Y-49719480D01*
X187481904Y-49669360D01*
X187481904Y-49669359D01*
X187481900Y-49669358D01*
X187431785Y-49640423D01*
X187279057Y-49599499D01*
X187120943Y-49599499D01*
X187113347Y-49599499D01*
X187113331Y-49599500D01*
X186808231Y-49599500D01*
X186741192Y-49579815D01*
X186733920Y-49574767D01*
X186642331Y-49506204D01*
X186642328Y-49506202D01*
X186507482Y-49455908D01*
X186507483Y-49455908D01*
X186447883Y-49449501D01*
X186447881Y-49449500D01*
X186447873Y-49449500D01*
X186447864Y-49449500D01*
X185552129Y-49449500D01*
X185552123Y-49449501D01*
X185492516Y-49455908D01*
X185357671Y-49506202D01*
X185357664Y-49506206D01*
X185242455Y-49592452D01*
X185242453Y-49592454D01*
X185198952Y-49650563D01*
X185143018Y-49692433D01*
X185073326Y-49697416D01*
X185012004Y-49663929D01*
X185000420Y-49650561D01*
X184957186Y-49592809D01*
X184842093Y-49506649D01*
X184842086Y-49506645D01*
X184707379Y-49456403D01*
X184707372Y-49456401D01*
X184647844Y-49450000D01*
X184450000Y-49450000D01*
X184450000Y-50978638D01*
X184430315Y-51045677D01*
X184413681Y-51066319D01*
X184400000Y-51080000D01*
X184400000Y-51720000D01*
X184413681Y-51733681D01*
X184447166Y-51795004D01*
X184450000Y-51821362D01*
X184450000Y-53350000D01*
X184647828Y-53350000D01*
X184647844Y-53349999D01*
X184707372Y-53343598D01*
X184707379Y-53343596D01*
X184842086Y-53293354D01*
X184842093Y-53293350D01*
X184957187Y-53207190D01*
X184957188Y-53207189D01*
X185000420Y-53149439D01*
X185056353Y-53107567D01*
X185126045Y-53102583D01*
X185187368Y-53136068D01*
X185198953Y-53149437D01*
X185226522Y-53186264D01*
X185242187Y-53207190D01*
X185242455Y-53207547D01*
X185357664Y-53293793D01*
X185357671Y-53293797D01*
X185492517Y-53344091D01*
X185492516Y-53344091D01*
X185499444Y-53344835D01*
X185552127Y-53350500D01*
X186447872Y-53350499D01*
X186507483Y-53344091D01*
X186642331Y-53293796D01*
X186757546Y-53207546D01*
X186758113Y-53206787D01*
X186758877Y-53206215D01*
X186763819Y-53201274D01*
X186764529Y-53201984D01*
X186814044Y-53164912D01*
X186825289Y-53161317D01*
X186831785Y-53159577D01*
X186918387Y-53109577D01*
X186918391Y-53109575D01*
X186968709Y-53080524D01*
X186968708Y-53080524D01*
X186968716Y-53080520D01*
X186968721Y-53080514D01*
X186975161Y-53075574D01*
X186976030Y-53076706D01*
X187029642Y-53047432D01*
X187099334Y-53052416D01*
X187155267Y-53094288D01*
X187179684Y-53159752D01*
X187180000Y-53168598D01*
X187180000Y-53430000D01*
X187880000Y-53430000D01*
X187880000Y-53930000D01*
X187180000Y-53930000D01*
X187180000Y-54328495D01*
X187218427Y-54521681D01*
X187218430Y-54521693D01*
X187293807Y-54703671D01*
X187293814Y-54703684D01*
X187403248Y-54867462D01*
X187403251Y-54867466D01*
X187542533Y-55006748D01*
X187542537Y-55006751D01*
X187706315Y-55116185D01*
X187706328Y-55116192D01*
X187888308Y-55191569D01*
X187930000Y-55199862D01*
X187930000Y-54396988D01*
X187939940Y-54414205D01*
X187995795Y-54470060D01*
X188064204Y-54509556D01*
X188140504Y-54530000D01*
X188219496Y-54530000D01*
X188295796Y-54509556D01*
X188364205Y-54470060D01*
X188420060Y-54414205D01*
X188430000Y-54396988D01*
X188430000Y-55199862D01*
X188448511Y-55196181D01*
X188518102Y-55202408D01*
X188573280Y-55245271D01*
X188588884Y-55274465D01*
X188606645Y-55322086D01*
X188606649Y-55322093D01*
X188692809Y-55437187D01*
X188692812Y-55437190D01*
X188807906Y-55523350D01*
X188807913Y-55523354D01*
X188942620Y-55573596D01*
X188942627Y-55573598D01*
X189002155Y-55579999D01*
X189002172Y-55580000D01*
X189050000Y-55580000D01*
X189050000Y-54504000D01*
X189069685Y-54436961D01*
X189122489Y-54391206D01*
X189174000Y-54380000D01*
X189225500Y-54380000D01*
X189292539Y-54399685D01*
X189338294Y-54452489D01*
X189349500Y-54504000D01*
X189349500Y-55127870D01*
X189349501Y-55127876D01*
X189355908Y-55187483D01*
X189406202Y-55322328D01*
X189406203Y-55322329D01*
X189406204Y-55322331D01*
X189492454Y-55437546D01*
X189500308Y-55443425D01*
X189542180Y-55499356D01*
X189550000Y-55542694D01*
X189550000Y-55580000D01*
X189597828Y-55580000D01*
X189597842Y-55579999D01*
X189658872Y-55573437D01*
X189727632Y-55585841D01*
X189759810Y-55609045D01*
X189969298Y-55818533D01*
X190002783Y-55879856D01*
X190004837Y-55892330D01*
X190014630Y-55979249D01*
X190074210Y-56149521D01*
X190128391Y-56235749D01*
X190170184Y-56302262D01*
X190297738Y-56429816D01*
X190450478Y-56525789D01*
X190569441Y-56567416D01*
X190620745Y-56585368D01*
X190620750Y-56585369D01*
X190799996Y-56605565D01*
X190800000Y-56605565D01*
X190800004Y-56605565D01*
X190979249Y-56585369D01*
X190979252Y-56585368D01*
X190979255Y-56585368D01*
X191149522Y-56525789D01*
X191302262Y-56429816D01*
X191429816Y-56302262D01*
X191525789Y-56149522D01*
X191525789Y-56149519D01*
X191527762Y-56146381D01*
X191580097Y-56100090D01*
X191649150Y-56089442D01*
X191712999Y-56117817D01*
X191720437Y-56124672D01*
X192163181Y-56567416D01*
X192196666Y-56628739D01*
X192199500Y-56655097D01*
X192199500Y-57228687D01*
X192179815Y-57295726D01*
X192127011Y-57341481D01*
X192062246Y-57351977D01*
X192060684Y-57351809D01*
X192001074Y-57345400D01*
X192001066Y-57345400D01*
X191498930Y-57345400D01*
X191498924Y-57345401D01*
X191439317Y-57351808D01*
X191368332Y-57378284D01*
X191298640Y-57383268D01*
X191281667Y-57378284D01*
X191210686Y-57351810D01*
X191210685Y-57351809D01*
X191210683Y-57351809D01*
X191151073Y-57345400D01*
X191151063Y-57345400D01*
X190648929Y-57345400D01*
X190648923Y-57345401D01*
X190589316Y-57351808D01*
X190518331Y-57378284D01*
X190448639Y-57383268D01*
X190431666Y-57378284D01*
X190360685Y-57351810D01*
X190360684Y-57351809D01*
X190360682Y-57351809D01*
X190301072Y-57345400D01*
X190301062Y-57345400D01*
X189798928Y-57345400D01*
X189798922Y-57345401D01*
X189739314Y-57351809D01*
X189668332Y-57378283D01*
X189598640Y-57383267D01*
X189581668Y-57378283D01*
X189510689Y-57351810D01*
X189510685Y-57351809D01*
X189510684Y-57351809D01*
X189451074Y-57345400D01*
X189451064Y-57345400D01*
X188948930Y-57345400D01*
X188948924Y-57345401D01*
X188889317Y-57351808D01*
X188818332Y-57378284D01*
X188748640Y-57383268D01*
X188731667Y-57378284D01*
X188660686Y-57351810D01*
X188660685Y-57351809D01*
X188660683Y-57351809D01*
X188601073Y-57345400D01*
X188601063Y-57345400D01*
X188098929Y-57345400D01*
X188098923Y-57345401D01*
X188039318Y-57351808D01*
X187967616Y-57378551D01*
X187897924Y-57383534D01*
X187880951Y-57378550D01*
X187810579Y-57352303D01*
X187810571Y-57352301D01*
X187751043Y-57345900D01*
X187703199Y-57345900D01*
X187703199Y-57580674D01*
X187695381Y-57624007D01*
X187666982Y-57700150D01*
X187652709Y-57738417D01*
X187646300Y-57798027D01*
X187646300Y-58232615D01*
X187646301Y-58252300D01*
X187646301Y-58706576D01*
X187652708Y-58766183D01*
X187695381Y-58880593D01*
X187703199Y-58923926D01*
X187703199Y-59158700D01*
X187751027Y-59158700D01*
X187751043Y-59158699D01*
X187810571Y-59152298D01*
X187810577Y-59152297D01*
X187880950Y-59126049D01*
X187950641Y-59121064D01*
X187967613Y-59126047D01*
X188012690Y-59142860D01*
X188039311Y-59152789D01*
X188039317Y-59152791D01*
X188098927Y-59159200D01*
X188601072Y-59159199D01*
X188660683Y-59152791D01*
X188731668Y-59126314D01*
X188801357Y-59121331D01*
X188818326Y-59126312D01*
X188889318Y-59152791D01*
X188948928Y-59159200D01*
X189451073Y-59159199D01*
X189510684Y-59152791D01*
X189581665Y-59126315D01*
X189651357Y-59121331D01*
X189668322Y-59126311D01*
X189739316Y-59152791D01*
X189798926Y-59159200D01*
X190301071Y-59159199D01*
X190360682Y-59152791D01*
X190431667Y-59126314D01*
X190501356Y-59121331D01*
X190518325Y-59126312D01*
X190589317Y-59152791D01*
X190648927Y-59159200D01*
X191151072Y-59159199D01*
X191210683Y-59152791D01*
X191281668Y-59126314D01*
X191351357Y-59121331D01*
X191368326Y-59126312D01*
X191439318Y-59152791D01*
X191498928Y-59159200D01*
X192001073Y-59159199D01*
X192060684Y-59152791D01*
X192131665Y-59126315D01*
X192201357Y-59121331D01*
X192218322Y-59126311D01*
X192289316Y-59152791D01*
X192348926Y-59159200D01*
X192851071Y-59159199D01*
X192910682Y-59152791D01*
X192981667Y-59126314D01*
X193051356Y-59121331D01*
X193068325Y-59126312D01*
X193139317Y-59152791D01*
X193198927Y-59159200D01*
X193701072Y-59159199D01*
X193760683Y-59152791D01*
X193831668Y-59126314D01*
X193901357Y-59121331D01*
X193918326Y-59126312D01*
X193989318Y-59152791D01*
X194048928Y-59159200D01*
X194551073Y-59159199D01*
X194610684Y-59152791D01*
X194681665Y-59126315D01*
X194751357Y-59121331D01*
X194768322Y-59126311D01*
X194839316Y-59152791D01*
X194898926Y-59159200D01*
X195401071Y-59159199D01*
X195460682Y-59152791D01*
X195531667Y-59126314D01*
X195601356Y-59121331D01*
X195618325Y-59126312D01*
X195689317Y-59152791D01*
X195748927Y-59159200D01*
X196251072Y-59159199D01*
X196310683Y-59152791D01*
X196381668Y-59126314D01*
X196451357Y-59121331D01*
X196468326Y-59126312D01*
X196539318Y-59152791D01*
X196598928Y-59159200D01*
X197101073Y-59159199D01*
X197160684Y-59152791D01*
X197231665Y-59126315D01*
X197301357Y-59121331D01*
X197318322Y-59126311D01*
X197389316Y-59152791D01*
X197448926Y-59159200D01*
X197951071Y-59159199D01*
X198010682Y-59152791D01*
X198081667Y-59126314D01*
X198151356Y-59121331D01*
X198168325Y-59126312D01*
X198239317Y-59152791D01*
X198298927Y-59159200D01*
X198801072Y-59159199D01*
X198860683Y-59152791D01*
X198931668Y-59126314D01*
X199001357Y-59121331D01*
X199018326Y-59126312D01*
X199089318Y-59152791D01*
X199148928Y-59159200D01*
X199416801Y-59159199D01*
X199483839Y-59178883D01*
X199529594Y-59231687D01*
X199540800Y-59283199D01*
X199540800Y-59551068D01*
X199540801Y-59551075D01*
X199547208Y-59610682D01*
X199573684Y-59681666D01*
X199578668Y-59751358D01*
X199573684Y-59768331D01*
X199547210Y-59839311D01*
X199547209Y-59839315D01*
X199547209Y-59839317D01*
X199540800Y-59898927D01*
X199540800Y-59898934D01*
X199540800Y-59898935D01*
X199540800Y-60401070D01*
X199540801Y-60401076D01*
X199547208Y-60460683D01*
X199573684Y-60531667D01*
X199578668Y-60601359D01*
X199573684Y-60618332D01*
X199547210Y-60689312D01*
X199547209Y-60689316D01*
X199547209Y-60689318D01*
X199540800Y-60748928D01*
X199540800Y-60748935D01*
X199540800Y-60748936D01*
X199540800Y-61251071D01*
X199540801Y-61251077D01*
X199547209Y-61310685D01*
X199573683Y-61381668D01*
X199578667Y-61451360D01*
X199573683Y-61468332D01*
X199547210Y-61539310D01*
X199547209Y-61539314D01*
X199547209Y-61539316D01*
X199540800Y-61598926D01*
X199540800Y-61598933D01*
X199540800Y-61598934D01*
X199540800Y-62101069D01*
X199540801Y-62101075D01*
X199547208Y-62160682D01*
X199573684Y-62231666D01*
X199578668Y-62301358D01*
X199573684Y-62318331D01*
X199547210Y-62389311D01*
X199547209Y-62389315D01*
X199547209Y-62389317D01*
X199540800Y-62448927D01*
X199540800Y-62448934D01*
X199540800Y-62448935D01*
X199540800Y-62951070D01*
X199540801Y-62951076D01*
X199547208Y-63010683D01*
X199573684Y-63081667D01*
X199578668Y-63151359D01*
X199573684Y-63168332D01*
X199547210Y-63239312D01*
X199547209Y-63239316D01*
X199547209Y-63239318D01*
X199540800Y-63298928D01*
X199540800Y-63298935D01*
X199540800Y-63298936D01*
X199540800Y-63801071D01*
X199540801Y-63801077D01*
X199547209Y-63860685D01*
X199573683Y-63931668D01*
X199578667Y-64001360D01*
X199573683Y-64018332D01*
X199547210Y-64089310D01*
X199547209Y-64089314D01*
X199547209Y-64089316D01*
X199540800Y-64148926D01*
X199540800Y-64148933D01*
X199540800Y-64148934D01*
X199540800Y-64651069D01*
X199540801Y-64651075D01*
X199547208Y-64710682D01*
X199573684Y-64781666D01*
X199578668Y-64851358D01*
X199573684Y-64868331D01*
X199547210Y-64939311D01*
X199547209Y-64939315D01*
X199547209Y-64939317D01*
X199540800Y-64998927D01*
X199540800Y-64998934D01*
X199540800Y-64998935D01*
X199540800Y-65501070D01*
X199540801Y-65501076D01*
X199547208Y-65560683D01*
X199573684Y-65631667D01*
X199578668Y-65701359D01*
X199573684Y-65718332D01*
X199547210Y-65789312D01*
X199547209Y-65789316D01*
X199547209Y-65789318D01*
X199540800Y-65848928D01*
X199540800Y-65848935D01*
X199540800Y-65848936D01*
X199540800Y-66351071D01*
X199540801Y-66351077D01*
X199547209Y-66410685D01*
X199573683Y-66481668D01*
X199578667Y-66551360D01*
X199573683Y-66568332D01*
X199547210Y-66639310D01*
X199547209Y-66639314D01*
X199547209Y-66639316D01*
X199540800Y-66698926D01*
X199540800Y-66698933D01*
X199540800Y-66698934D01*
X199540800Y-67201069D01*
X199540801Y-67201075D01*
X199547208Y-67260682D01*
X199573684Y-67331666D01*
X199578668Y-67401358D01*
X199573684Y-67418331D01*
X199547210Y-67489311D01*
X199547209Y-67489315D01*
X199547209Y-67489317D01*
X199540800Y-67548927D01*
X199540800Y-67548934D01*
X199540800Y-67548935D01*
X199540800Y-68051070D01*
X199540801Y-68051076D01*
X199547208Y-68110683D01*
X199573684Y-68181667D01*
X199578668Y-68251359D01*
X199573684Y-68268332D01*
X199547210Y-68339312D01*
X199547209Y-68339316D01*
X199547209Y-68339318D01*
X199540800Y-68398928D01*
X199540800Y-68398935D01*
X199540800Y-68398936D01*
X199540800Y-68901071D01*
X199540801Y-68901077D01*
X199547209Y-68960685D01*
X199573683Y-69031668D01*
X199578667Y-69101360D01*
X199573683Y-69118332D01*
X199547210Y-69189310D01*
X199547209Y-69189314D01*
X199547209Y-69189316D01*
X199540800Y-69248926D01*
X199540800Y-69248933D01*
X199540800Y-69248934D01*
X199540800Y-69751069D01*
X199540801Y-69751075D01*
X199547208Y-69810682D01*
X199573950Y-69882380D01*
X199578934Y-69952072D01*
X199573950Y-69969045D01*
X199547704Y-70039416D01*
X199547701Y-70039427D01*
X199541300Y-70098955D01*
X199541300Y-70146800D01*
X199776074Y-70146800D01*
X199819407Y-70154618D01*
X199832915Y-70159656D01*
X199933817Y-70197290D01*
X199993427Y-70203699D01*
X200901972Y-70203698D01*
X200961583Y-70197290D01*
X200981785Y-70189755D01*
X201075993Y-70154618D01*
X201119326Y-70146800D01*
X201396203Y-70146800D01*
X201463242Y-70166485D01*
X201483884Y-70183119D01*
X202113181Y-70812416D01*
X202146666Y-70873739D01*
X202149500Y-70900097D01*
X202149500Y-71525001D01*
X202149501Y-71525019D01*
X202160000Y-71627796D01*
X202160001Y-71627799D01*
X202195169Y-71733927D01*
X202215186Y-71794334D01*
X202307288Y-71943656D01*
X202431344Y-72067712D01*
X202540597Y-72135099D01*
X202587321Y-72187047D01*
X202599500Y-72240638D01*
X202599500Y-73190201D01*
X202579815Y-73257240D01*
X202540598Y-73295739D01*
X202481344Y-73332287D01*
X202357289Y-73456342D01*
X202265187Y-73605663D01*
X202265185Y-73605668D01*
X202247295Y-73659656D01*
X202210001Y-73772203D01*
X202210001Y-73772204D01*
X202210000Y-73772204D01*
X202199500Y-73874983D01*
X202199500Y-73875500D01*
X202199468Y-73875605D01*
X202199340Y-73878139D01*
X202199179Y-73878130D01*
X202199179Y-73878132D01*
X202199155Y-73878129D01*
X202198734Y-73878108D01*
X202179815Y-73942539D01*
X202127011Y-73988294D01*
X202075500Y-73999500D01*
X193292801Y-73999500D01*
X193225762Y-73979815D01*
X193180007Y-73927011D01*
X193175095Y-73914504D01*
X193147314Y-73830666D01*
X193055212Y-73681344D01*
X192931156Y-73557288D01*
X192827956Y-73493634D01*
X192781836Y-73465187D01*
X192781831Y-73465185D01*
X192773550Y-73462441D01*
X192615297Y-73410001D01*
X192615295Y-73410000D01*
X192512516Y-73399500D01*
X192450760Y-73399500D01*
X192383721Y-73379815D01*
X192381248Y-73376961D01*
X192340157Y-73397530D01*
X192318141Y-73399500D01*
X192031854Y-73399500D01*
X191964815Y-73379815D01*
X191963642Y-73378461D01*
X191908085Y-73399184D01*
X191899247Y-73399500D01*
X191887502Y-73399500D01*
X191887480Y-73399501D01*
X191784703Y-73410000D01*
X191784700Y-73410001D01*
X191618168Y-73465185D01*
X191618163Y-73465187D01*
X191468842Y-73557289D01*
X191375181Y-73650951D01*
X191313858Y-73684436D01*
X191244166Y-73679452D01*
X191199819Y-73650951D01*
X191106157Y-73557289D01*
X191106156Y-73557288D01*
X191002956Y-73493634D01*
X190956836Y-73465187D01*
X190956831Y-73465185D01*
X190948550Y-73462441D01*
X190790297Y-73410001D01*
X190790295Y-73410000D01*
X190706675Y-73401458D01*
X190641984Y-73375062D01*
X190601832Y-73317881D01*
X190598969Y-73248070D01*
X190634303Y-73187793D01*
X190692752Y-73158147D01*
X190696800Y-73154100D01*
X191103200Y-73154100D01*
X191151028Y-73154100D01*
X191151044Y-73154099D01*
X191210577Y-73147697D01*
X191210579Y-73147697D01*
X191281665Y-73121183D01*
X191351357Y-73116198D01*
X191368334Y-73121182D01*
X191439424Y-73147697D01*
X191439428Y-73147698D01*
X191498956Y-73154099D01*
X191498973Y-73154100D01*
X191546801Y-73154100D01*
X191953201Y-73154100D01*
X191971779Y-73172678D01*
X191996919Y-73156523D01*
X192018600Y-73152210D01*
X192060576Y-73147697D01*
X192131666Y-73121182D01*
X192201358Y-73116198D01*
X192218334Y-73121182D01*
X192289427Y-73147698D01*
X192289426Y-73147698D01*
X192331396Y-73152211D01*
X192378977Y-73171919D01*
X192396797Y-73154100D01*
X192803199Y-73154100D01*
X192851027Y-73154100D01*
X192851043Y-73154099D01*
X192910576Y-73147697D01*
X192910578Y-73147697D01*
X192981664Y-73121183D01*
X193051356Y-73116198D01*
X193068333Y-73121182D01*
X193139423Y-73147697D01*
X193139427Y-73147698D01*
X193198955Y-73154099D01*
X193198972Y-73154100D01*
X193246800Y-73154100D01*
X193653200Y-73154100D01*
X193701028Y-73154100D01*
X193701044Y-73154099D01*
X193760577Y-73147697D01*
X193760579Y-73147697D01*
X193831665Y-73121183D01*
X193901357Y-73116198D01*
X193918334Y-73121182D01*
X193989424Y-73147697D01*
X193989428Y-73147698D01*
X194048956Y-73154099D01*
X194048973Y-73154100D01*
X194096801Y-73154100D01*
X194503201Y-73154100D01*
X194551029Y-73154100D01*
X194551045Y-73154099D01*
X194610573Y-73147698D01*
X194681666Y-73121182D01*
X194751358Y-73116198D01*
X194768334Y-73121182D01*
X194839427Y-73147698D01*
X194839426Y-73147698D01*
X194898954Y-73154099D01*
X194898971Y-73154100D01*
X194946799Y-73154100D01*
X195353199Y-73154100D01*
X195401027Y-73154100D01*
X195401043Y-73154099D01*
X195460576Y-73147697D01*
X195460578Y-73147697D01*
X195531664Y-73121183D01*
X195601356Y-73116198D01*
X195618333Y-73121182D01*
X195689423Y-73147697D01*
X195689427Y-73147698D01*
X195748955Y-73154099D01*
X195748972Y-73154100D01*
X195796800Y-73154100D01*
X196203200Y-73154100D01*
X196251028Y-73154100D01*
X196251044Y-73154099D01*
X196310577Y-73147697D01*
X196310579Y-73147697D01*
X196381665Y-73121183D01*
X196451357Y-73116198D01*
X196468334Y-73121182D01*
X196539424Y-73147697D01*
X196539428Y-73147698D01*
X196598956Y-73154099D01*
X196598973Y-73154100D01*
X196646801Y-73154100D01*
X197053201Y-73154100D01*
X197101029Y-73154100D01*
X197101045Y-73154099D01*
X197160573Y-73147698D01*
X197231666Y-73121182D01*
X197301358Y-73116198D01*
X197318334Y-73121182D01*
X197389427Y-73147698D01*
X197389426Y-73147698D01*
X197448954Y-73154099D01*
X197448971Y-73154100D01*
X197496799Y-73154100D01*
X197903199Y-73154100D01*
X197951027Y-73154100D01*
X197951043Y-73154099D01*
X198010576Y-73147697D01*
X198010578Y-73147697D01*
X198081664Y-73121183D01*
X198151356Y-73116198D01*
X198168333Y-73121182D01*
X198239423Y-73147697D01*
X198239427Y-73147698D01*
X198298955Y-73154099D01*
X198298972Y-73154100D01*
X198346800Y-73154100D01*
X198753200Y-73154100D01*
X198801028Y-73154100D01*
X198801044Y-73154099D01*
X198860577Y-73147697D01*
X198860579Y-73147697D01*
X198931665Y-73121183D01*
X199001357Y-73116198D01*
X199018334Y-73121182D01*
X199089424Y-73147697D01*
X199089428Y-73147698D01*
X199148956Y-73154099D01*
X199148973Y-73154100D01*
X199196801Y-73154100D01*
X199603201Y-73154100D01*
X199651029Y-73154100D01*
X199651045Y-73154099D01*
X199710578Y-73147697D01*
X199710580Y-73147697D01*
X199778915Y-73122209D01*
X199848607Y-73117223D01*
X199865584Y-73122208D01*
X199933923Y-73147697D01*
X199933927Y-73147698D01*
X199993455Y-73154099D01*
X199993472Y-73154100D01*
X200197700Y-73154100D01*
X200697700Y-73154100D01*
X200901928Y-73154100D01*
X200901944Y-73154099D01*
X200961472Y-73147698D01*
X200961479Y-73147696D01*
X201096186Y-73097454D01*
X201096193Y-73097450D01*
X201211287Y-73011290D01*
X201211290Y-73011287D01*
X201297450Y-72896193D01*
X201297454Y-72896186D01*
X201347696Y-72761479D01*
X201347698Y-72761472D01*
X201354099Y-72701944D01*
X201354100Y-72701927D01*
X201354100Y-72497700D01*
X200697700Y-72497700D01*
X200697700Y-73154100D01*
X200197700Y-73154100D01*
X200197700Y-72497700D01*
X199603201Y-72497700D01*
X199603201Y-73154100D01*
X199196801Y-73154100D01*
X199196801Y-72450900D01*
X198753200Y-72450900D01*
X198753200Y-73154100D01*
X198346800Y-73154100D01*
X198346800Y-72450900D01*
X197903199Y-72450900D01*
X197903199Y-73154100D01*
X197496799Y-73154100D01*
X197496799Y-72450900D01*
X197053201Y-72450900D01*
X197053201Y-73154100D01*
X196646801Y-73154100D01*
X196646801Y-72450900D01*
X196203200Y-72450900D01*
X196203200Y-73154100D01*
X195796800Y-73154100D01*
X195796800Y-72450900D01*
X195353199Y-72450900D01*
X195353199Y-73154100D01*
X194946799Y-73154100D01*
X194946799Y-72450900D01*
X194503201Y-72450900D01*
X194503201Y-73154100D01*
X194096801Y-73154100D01*
X194096801Y-72450900D01*
X193653200Y-72450900D01*
X193653200Y-73154100D01*
X193246800Y-73154100D01*
X193246800Y-72450900D01*
X192803199Y-72450900D01*
X192803199Y-73154100D01*
X192396797Y-73154100D01*
X192396799Y-73154098D01*
X192396799Y-72450900D01*
X191953201Y-72450900D01*
X191953201Y-73154100D01*
X191546801Y-73154100D01*
X191546801Y-72450900D01*
X191103200Y-72450900D01*
X191103200Y-73154100D01*
X190696800Y-73154100D01*
X190696800Y-72450900D01*
X187703199Y-72450900D01*
X187703199Y-73154100D01*
X187751027Y-73154100D01*
X187751043Y-73154099D01*
X187810576Y-73147697D01*
X187810578Y-73147697D01*
X187881664Y-73121183D01*
X187951356Y-73116198D01*
X187968332Y-73121182D01*
X188044087Y-73149437D01*
X188100021Y-73191308D01*
X188124438Y-73256773D01*
X188109586Y-73325046D01*
X188060181Y-73374451D01*
X188039759Y-73383325D01*
X187868166Y-73440186D01*
X187868163Y-73440187D01*
X187718842Y-73532289D01*
X187594788Y-73656343D01*
X187594783Y-73656349D01*
X187592741Y-73659661D01*
X187590747Y-73661453D01*
X187590307Y-73662011D01*
X187590211Y-73661935D01*
X187540791Y-73706383D01*
X187471828Y-73717602D01*
X187407747Y-73689755D01*
X187381668Y-73659656D01*
X187379819Y-73656659D01*
X187379816Y-73656655D01*
X187255845Y-73532684D01*
X187106624Y-73440643D01*
X187106619Y-73440641D01*
X186947516Y-73387920D01*
X186890071Y-73348147D01*
X186863248Y-73283632D01*
X186875563Y-73214856D01*
X186923106Y-73163656D01*
X186959052Y-73151674D01*
X186958534Y-73149480D01*
X186966079Y-73147697D01*
X187034414Y-73122209D01*
X187104106Y-73117223D01*
X187121083Y-73122208D01*
X187189422Y-73147697D01*
X187189426Y-73147698D01*
X187248954Y-73154099D01*
X187248971Y-73154100D01*
X187296799Y-73154100D01*
X187296799Y-72497700D01*
X186702300Y-72497700D01*
X186702300Y-73154100D01*
X186709038Y-73154100D01*
X186776077Y-73173785D01*
X186821832Y-73226589D01*
X186831776Y-73295747D01*
X186802751Y-73359303D01*
X186796719Y-73365781D01*
X186787500Y-73375000D01*
X186787500Y-75824999D01*
X186837472Y-75824999D01*
X186837486Y-75824998D01*
X186940197Y-75814505D01*
X187106619Y-75759358D01*
X187106624Y-75759356D01*
X187255845Y-75667315D01*
X187379818Y-75543342D01*
X187381665Y-75540348D01*
X187383469Y-75538724D01*
X187384298Y-75537677D01*
X187384476Y-75537818D01*
X187433610Y-75493621D01*
X187502573Y-75482396D01*
X187566656Y-75510236D01*
X187592743Y-75540341D01*
X187594788Y-75543656D01*
X187718844Y-75667712D01*
X187868166Y-75759814D01*
X188034703Y-75814999D01*
X188137491Y-75825500D01*
X188737508Y-75825499D01*
X188748074Y-75824419D01*
X188816766Y-75837186D01*
X188848360Y-75860096D01*
X189068784Y-76080520D01*
X189068786Y-76080521D01*
X189068790Y-76080524D01*
X189205709Y-76159573D01*
X189205716Y-76159577D01*
X189358443Y-76200501D01*
X189358445Y-76200501D01*
X189524154Y-76200501D01*
X189524170Y-76200500D01*
X191113331Y-76200500D01*
X191113347Y-76200501D01*
X191120943Y-76200501D01*
X191279054Y-76200501D01*
X191279057Y-76200501D01*
X191431785Y-76159577D01*
X191481904Y-76130639D01*
X191568716Y-76080520D01*
X191680520Y-75968716D01*
X191680520Y-75968714D01*
X191690728Y-75958507D01*
X191690730Y-75958504D01*
X191812417Y-75836816D01*
X191873738Y-75803333D01*
X191900086Y-75800499D01*
X192512508Y-75800499D01*
X192512516Y-75800498D01*
X192512519Y-75800498D01*
X192568802Y-75794748D01*
X192615297Y-75789999D01*
X192781834Y-75734814D01*
X192931156Y-75642712D01*
X193055212Y-75518656D01*
X193147314Y-75369334D01*
X193175095Y-75285495D01*
X193214868Y-75228051D01*
X193279384Y-75201228D01*
X193292801Y-75200500D01*
X202199782Y-75200500D01*
X202266821Y-75220185D01*
X202305319Y-75259401D01*
X202357288Y-75343656D01*
X202481344Y-75467712D01*
X202630666Y-75559814D01*
X202797203Y-75614999D01*
X202899991Y-75625500D01*
X203500008Y-75625499D01*
X203500016Y-75625498D01*
X203500019Y-75625498D01*
X203556302Y-75619748D01*
X203602797Y-75614999D01*
X203769334Y-75559814D01*
X203918656Y-75467712D01*
X204042712Y-75343656D01*
X204044752Y-75340347D01*
X204046745Y-75338555D01*
X204047193Y-75337989D01*
X204047289Y-75338065D01*
X204096694Y-75293623D01*
X204165656Y-75282395D01*
X204229740Y-75310234D01*
X204255829Y-75340339D01*
X204257681Y-75343341D01*
X204257683Y-75343344D01*
X204381654Y-75467315D01*
X204530875Y-75559356D01*
X204530880Y-75559358D01*
X204697302Y-75614505D01*
X204697309Y-75614506D01*
X204800019Y-75624999D01*
X205350000Y-75624999D01*
X205399972Y-75624999D01*
X205399986Y-75624998D01*
X205502697Y-75614505D01*
X205669119Y-75559358D01*
X205669124Y-75559356D01*
X205818345Y-75467315D01*
X205942315Y-75343345D01*
X206034356Y-75194124D01*
X206034358Y-75194119D01*
X206089505Y-75027697D01*
X206089506Y-75027690D01*
X206099999Y-74924986D01*
X206450001Y-74924986D01*
X206460494Y-75027697D01*
X206515641Y-75194119D01*
X206515643Y-75194124D01*
X206607684Y-75343345D01*
X206731654Y-75467315D01*
X206880875Y-75559356D01*
X206880880Y-75559358D01*
X207047302Y-75614505D01*
X207047309Y-75614506D01*
X207150019Y-75624999D01*
X207199999Y-75624998D01*
X207200000Y-75624998D01*
X207200000Y-74650000D01*
X206450001Y-74650000D01*
X206450001Y-74924986D01*
X206099999Y-74924986D01*
X206100000Y-74924973D01*
X206100000Y-74650000D01*
X205350000Y-74650000D01*
X205350000Y-75624999D01*
X204800019Y-75624999D01*
X204849999Y-75624998D01*
X204850000Y-75624998D01*
X204850000Y-74524000D01*
X204869685Y-74456961D01*
X204922489Y-74411206D01*
X204974000Y-74400000D01*
X205100000Y-74400000D01*
X205100000Y-74274000D01*
X205119685Y-74206961D01*
X205172489Y-74161206D01*
X205224000Y-74150000D01*
X206099999Y-74150000D01*
X206099999Y-73875028D01*
X206099998Y-73875013D01*
X206089505Y-73772302D01*
X206040198Y-73623504D01*
X206037796Y-73553676D01*
X206073528Y-73493634D01*
X206136048Y-73462441D01*
X206157904Y-73460500D01*
X206392096Y-73460500D01*
X206459135Y-73480185D01*
X206504890Y-73532989D01*
X206514834Y-73602147D01*
X206509802Y-73623504D01*
X206460494Y-73772302D01*
X206460493Y-73772309D01*
X206450000Y-73875013D01*
X206450000Y-74150000D01*
X207326000Y-74150000D01*
X207393039Y-74169685D01*
X207438794Y-74222489D01*
X207450000Y-74274000D01*
X207450000Y-74400000D01*
X207576000Y-74400000D01*
X207643039Y-74419685D01*
X207688794Y-74472489D01*
X207700000Y-74524000D01*
X207700000Y-75624999D01*
X207749972Y-75624999D01*
X207749986Y-75624998D01*
X207852697Y-75614505D01*
X208019119Y-75559358D01*
X208019124Y-75559356D01*
X208168345Y-75467315D01*
X208292318Y-75343342D01*
X208294165Y-75340348D01*
X208295969Y-75338724D01*
X208296798Y-75337677D01*
X208296976Y-75337818D01*
X208346110Y-75293621D01*
X208415073Y-75282396D01*
X208479156Y-75310236D01*
X208505242Y-75340339D01*
X208507288Y-75343656D01*
X208631344Y-75467712D01*
X208780666Y-75559814D01*
X208947203Y-75614999D01*
X209049991Y-75625500D01*
X209650008Y-75625499D01*
X209650016Y-75625498D01*
X209650019Y-75625498D01*
X209706302Y-75619748D01*
X209752797Y-75614999D01*
X209919334Y-75559814D01*
X210068656Y-75467712D01*
X210192712Y-75343656D01*
X210284814Y-75194334D01*
X210339999Y-75027797D01*
X210350500Y-74925009D01*
X210350500Y-74624562D01*
X210370185Y-74557523D01*
X210422989Y-74511768D01*
X210474500Y-74500562D01*
X210727366Y-74500562D01*
X210794405Y-74520247D01*
X210840160Y-74573051D01*
X210851082Y-74632954D01*
X210850000Y-74648905D01*
X210850000Y-75100000D01*
X211976000Y-75100000D01*
X212043039Y-75119685D01*
X212088794Y-75172489D01*
X212100000Y-75224000D01*
X212100000Y-75476000D01*
X212080315Y-75543039D01*
X212027511Y-75588794D01*
X211976000Y-75600000D01*
X210850000Y-75600000D01*
X210850000Y-76051096D01*
X210852897Y-76093824D01*
X210898830Y-76278521D01*
X210909030Y-76299087D01*
X210921181Y-76367892D01*
X210894204Y-76432343D01*
X210836664Y-76471979D01*
X210797941Y-76478180D01*
X183094819Y-76478180D01*
X183094803Y-76478179D01*
X183025065Y-76478179D01*
X183017579Y-76477953D01*
X182727520Y-76460410D01*
X182712655Y-76458605D01*
X182430527Y-76406904D01*
X182415988Y-76403321D01*
X182142140Y-76317988D01*
X182128139Y-76312678D01*
X181866577Y-76194960D01*
X181853318Y-76188001D01*
X181607855Y-76039614D01*
X181595532Y-76031108D01*
X181369740Y-75854211D01*
X181358532Y-75844281D01*
X181155718Y-75641467D01*
X181145788Y-75630259D01*
X181077693Y-75543342D01*
X180968887Y-75404461D01*
X180960389Y-75392150D01*
X180811996Y-75146678D01*
X180805039Y-75133422D01*
X180801242Y-75124986D01*
X185537501Y-75124986D01*
X185547994Y-75227697D01*
X185603141Y-75394119D01*
X185603143Y-75394124D01*
X185695184Y-75543345D01*
X185819154Y-75667315D01*
X185968375Y-75759356D01*
X185968380Y-75759358D01*
X186134802Y-75814505D01*
X186134809Y-75814506D01*
X186237519Y-75824999D01*
X186287499Y-75824998D01*
X186287500Y-75824998D01*
X186287500Y-74850000D01*
X185537501Y-74850000D01*
X185537501Y-75124986D01*
X180801242Y-75124986D01*
X180687321Y-74871860D01*
X180682011Y-74857859D01*
X180617241Y-74650000D01*
X180596677Y-74584008D01*
X180593095Y-74569472D01*
X180541393Y-74287340D01*
X180539589Y-74272479D01*
X180535626Y-74206961D01*
X180527645Y-74075013D01*
X185537500Y-74075013D01*
X185537500Y-74350000D01*
X186287500Y-74350000D01*
X186287500Y-73375000D01*
X186287499Y-73374999D01*
X186280763Y-73375000D01*
X186213723Y-73355317D01*
X186178681Y-73314877D01*
X186158393Y-73359303D01*
X186103684Y-73395806D01*
X185968380Y-73440641D01*
X185968375Y-73440643D01*
X185819154Y-73532684D01*
X185695184Y-73656654D01*
X185603143Y-73805875D01*
X185603141Y-73805880D01*
X185547994Y-73972302D01*
X185547993Y-73972309D01*
X185537500Y-74075013D01*
X180527645Y-74075013D01*
X180522045Y-73982419D01*
X180521820Y-73974932D01*
X180521820Y-73972203D01*
X180521821Y-73912791D01*
X180521820Y-73912787D01*
X180521820Y-72701944D01*
X185545900Y-72701944D01*
X185552301Y-72761472D01*
X185552303Y-72761479D01*
X185602545Y-72896186D01*
X185602549Y-72896193D01*
X185688709Y-73011287D01*
X185688712Y-73011290D01*
X185803806Y-73097450D01*
X185803813Y-73097454D01*
X185938520Y-73147696D01*
X185938527Y-73147698D01*
X185998055Y-73154099D01*
X185998072Y-73154100D01*
X186064680Y-73154100D01*
X186131719Y-73173785D01*
X186166759Y-73214223D01*
X186187047Y-73169799D01*
X186193081Y-73163318D01*
X186202300Y-73154099D01*
X186202300Y-72497700D01*
X185545900Y-72497700D01*
X185545900Y-72701944D01*
X180521820Y-72701944D01*
X180521820Y-70098927D01*
X185545400Y-70098927D01*
X185545400Y-70098934D01*
X185545400Y-70098935D01*
X185545400Y-70601070D01*
X185545401Y-70601076D01*
X185551808Y-70660683D01*
X185578284Y-70731667D01*
X185583268Y-70801359D01*
X185578284Y-70818332D01*
X185551810Y-70889312D01*
X185551809Y-70889316D01*
X185551809Y-70889318D01*
X185545400Y-70948928D01*
X185545400Y-70948935D01*
X185545400Y-70948936D01*
X185545400Y-71451071D01*
X185545401Y-71451077D01*
X185551808Y-71510684D01*
X185577524Y-71579631D01*
X185582508Y-71649323D01*
X185577524Y-71666296D01*
X185552304Y-71733916D01*
X185552301Y-71733927D01*
X185545900Y-71793455D01*
X185545900Y-71997700D01*
X187033448Y-71997700D01*
X187074402Y-72004658D01*
X187097819Y-72012851D01*
X187190745Y-72045368D01*
X187190751Y-72045368D01*
X187190753Y-72045369D01*
X187369997Y-72065565D01*
X187370000Y-72065565D01*
X187370001Y-72065565D01*
X187381012Y-72064324D01*
X187534830Y-72046993D01*
X187550039Y-72045280D01*
X187563922Y-72044500D01*
X188146800Y-72044500D01*
X188553200Y-72044500D01*
X188996801Y-72044500D01*
X189403201Y-72044500D01*
X189846799Y-72044500D01*
X190253199Y-72044500D01*
X190696800Y-72044500D01*
X191103200Y-72044500D01*
X191546801Y-72044500D01*
X191953201Y-72044500D01*
X192396799Y-72044500D01*
X192803199Y-72044500D01*
X193246800Y-72044500D01*
X193653200Y-72044500D01*
X194096801Y-72044500D01*
X194503201Y-72044500D01*
X194946799Y-72044500D01*
X195353199Y-72044500D01*
X195796800Y-72044500D01*
X196203200Y-72044500D01*
X196646801Y-72044500D01*
X197053201Y-72044500D01*
X197496799Y-72044500D01*
X197903199Y-72044500D01*
X198346800Y-72044500D01*
X198753200Y-72044500D01*
X199196801Y-72044500D01*
X199196801Y-71997700D01*
X199603201Y-71997700D01*
X200197700Y-71997700D01*
X200697700Y-71997700D01*
X201354100Y-71997700D01*
X201354100Y-71793472D01*
X201354099Y-71793455D01*
X201347698Y-71733927D01*
X201347697Y-71733923D01*
X201322208Y-71665584D01*
X201317224Y-71595892D01*
X201322209Y-71578915D01*
X201347697Y-71510580D01*
X201347697Y-71510578D01*
X201354099Y-71451045D01*
X201354100Y-71451028D01*
X201354100Y-71403201D01*
X200697700Y-71403201D01*
X200697700Y-71997700D01*
X200197700Y-71997700D01*
X200197700Y-71403201D01*
X199603201Y-71403201D01*
X199603201Y-71997700D01*
X199196801Y-71997700D01*
X199196801Y-71341300D01*
X199148956Y-71341300D01*
X199089428Y-71347701D01*
X199089420Y-71347703D01*
X199018333Y-71374217D01*
X198948641Y-71379201D01*
X198931667Y-71374217D01*
X198860579Y-71347703D01*
X198860572Y-71347701D01*
X198801044Y-71341300D01*
X198753200Y-71341300D01*
X198753200Y-72044500D01*
X198346800Y-72044500D01*
X198346800Y-71341300D01*
X198298955Y-71341300D01*
X198239427Y-71347701D01*
X198239419Y-71347703D01*
X198168332Y-71374217D01*
X198098640Y-71379201D01*
X198081666Y-71374217D01*
X198010578Y-71347703D01*
X198010571Y-71347701D01*
X197951043Y-71341300D01*
X197903199Y-71341300D01*
X197903199Y-72044500D01*
X197496799Y-72044500D01*
X197496799Y-71341300D01*
X197448954Y-71341300D01*
X197389426Y-71347701D01*
X197389415Y-71347703D01*
X197318332Y-71374216D01*
X197248641Y-71379200D01*
X197231668Y-71374216D01*
X197160584Y-71347703D01*
X197160573Y-71347701D01*
X197101045Y-71341300D01*
X197053201Y-71341300D01*
X197053201Y-72044500D01*
X196646801Y-72044500D01*
X196646801Y-71341300D01*
X196598956Y-71341300D01*
X196539428Y-71347701D01*
X196539420Y-71347703D01*
X196468333Y-71374217D01*
X196398641Y-71379201D01*
X196381667Y-71374217D01*
X196310579Y-71347703D01*
X196310572Y-71347701D01*
X196251044Y-71341300D01*
X196203200Y-71341300D01*
X196203200Y-72044500D01*
X195796800Y-72044500D01*
X195796800Y-71341300D01*
X195748955Y-71341300D01*
X195689427Y-71347701D01*
X195689419Y-71347703D01*
X195618332Y-71374217D01*
X195548640Y-71379201D01*
X195531666Y-71374217D01*
X195460578Y-71347703D01*
X195460571Y-71347701D01*
X195401043Y-71341300D01*
X195353199Y-71341300D01*
X195353199Y-72044500D01*
X194946799Y-72044500D01*
X194946799Y-71341300D01*
X194898954Y-71341300D01*
X194839426Y-71347701D01*
X194839415Y-71347703D01*
X194768332Y-71374216D01*
X194698641Y-71379200D01*
X194681668Y-71374216D01*
X194610584Y-71347703D01*
X194610573Y-71347701D01*
X194551045Y-71341300D01*
X194503201Y-71341300D01*
X194503201Y-72044500D01*
X194096801Y-72044500D01*
X194096801Y-71341300D01*
X194048956Y-71341300D01*
X193989428Y-71347701D01*
X193989420Y-71347703D01*
X193918333Y-71374217D01*
X193848641Y-71379201D01*
X193831667Y-71374217D01*
X193760579Y-71347703D01*
X193760572Y-71347701D01*
X193701044Y-71341300D01*
X193653200Y-71341300D01*
X193653200Y-72044500D01*
X193246800Y-72044500D01*
X193246800Y-71341300D01*
X193198955Y-71341300D01*
X193139427Y-71347701D01*
X193139419Y-71347703D01*
X193068332Y-71374217D01*
X192998640Y-71379201D01*
X192981666Y-71374217D01*
X192910578Y-71347703D01*
X192910571Y-71347701D01*
X192851043Y-71341300D01*
X192803199Y-71341300D01*
X192803199Y-72044500D01*
X192396799Y-72044500D01*
X192396799Y-71341300D01*
X192348954Y-71341300D01*
X192289426Y-71347701D01*
X192289415Y-71347703D01*
X192218332Y-71374216D01*
X192148641Y-71379200D01*
X192131668Y-71374216D01*
X192060584Y-71347703D01*
X192060573Y-71347701D01*
X192001045Y-71341300D01*
X191953201Y-71341300D01*
X191953201Y-72044500D01*
X191546801Y-72044500D01*
X191546801Y-71341300D01*
X191498956Y-71341300D01*
X191439428Y-71347701D01*
X191439420Y-71347703D01*
X191368333Y-71374217D01*
X191298641Y-71379201D01*
X191281667Y-71374217D01*
X191210579Y-71347703D01*
X191210572Y-71347701D01*
X191151044Y-71341300D01*
X191103200Y-71341300D01*
X191103200Y-72044500D01*
X190696800Y-72044500D01*
X190696800Y-71341300D01*
X190648955Y-71341300D01*
X190589427Y-71347701D01*
X190589419Y-71347703D01*
X190518332Y-71374217D01*
X190448640Y-71379201D01*
X190431666Y-71374217D01*
X190360578Y-71347703D01*
X190360571Y-71347701D01*
X190301043Y-71341300D01*
X190253199Y-71341300D01*
X190253199Y-72044500D01*
X189846799Y-72044500D01*
X189846799Y-71341300D01*
X189798954Y-71341300D01*
X189739426Y-71347701D01*
X189739415Y-71347703D01*
X189668332Y-71374216D01*
X189598641Y-71379200D01*
X189581668Y-71374216D01*
X189510584Y-71347703D01*
X189510573Y-71347701D01*
X189451045Y-71341300D01*
X189403201Y-71341300D01*
X189403201Y-72044500D01*
X188996801Y-72044500D01*
X188996801Y-71341300D01*
X188948956Y-71341300D01*
X188889428Y-71347701D01*
X188889420Y-71347703D01*
X188818333Y-71374217D01*
X188748641Y-71379201D01*
X188731667Y-71374217D01*
X188660579Y-71347703D01*
X188660572Y-71347701D01*
X188601044Y-71341300D01*
X188553200Y-71341300D01*
X188553200Y-72044500D01*
X188146800Y-72044500D01*
X188146800Y-71484808D01*
X188153760Y-71443849D01*
X188155368Y-71439255D01*
X188159430Y-71403201D01*
X188175565Y-71260003D01*
X188175565Y-71259996D01*
X188155369Y-71080750D01*
X188155368Y-71080745D01*
X188095788Y-70910476D01*
X187999815Y-70757737D01*
X187872262Y-70630184D01*
X187825886Y-70601044D01*
X199541300Y-70601044D01*
X199547701Y-70660572D01*
X199547703Y-70660579D01*
X199574217Y-70731667D01*
X199579201Y-70801359D01*
X199574217Y-70818333D01*
X199547703Y-70889420D01*
X199547701Y-70889428D01*
X199541300Y-70948956D01*
X199541300Y-70996801D01*
X200244500Y-70996801D01*
X200650900Y-70996801D01*
X201354100Y-70996801D01*
X201354100Y-70948973D01*
X201354099Y-70948956D01*
X201347698Y-70889428D01*
X201347697Y-70889424D01*
X201321182Y-70818334D01*
X201316198Y-70748642D01*
X201321183Y-70731665D01*
X201347697Y-70660579D01*
X201347697Y-70660577D01*
X201354099Y-70601044D01*
X201354100Y-70601027D01*
X201354100Y-70553200D01*
X200650900Y-70553200D01*
X200650900Y-70996801D01*
X200244500Y-70996801D01*
X200244500Y-70553200D01*
X199541300Y-70553200D01*
X199541300Y-70601044D01*
X187825886Y-70601044D01*
X187719523Y-70534211D01*
X187549254Y-70474631D01*
X187549250Y-70474630D01*
X187469315Y-70465624D01*
X187404901Y-70438557D01*
X187365346Y-70380962D01*
X187359199Y-70342404D01*
X187359199Y-70098929D01*
X187359198Y-70098923D01*
X187358212Y-70089752D01*
X187352791Y-70039317D01*
X187326047Y-69967614D01*
X187321064Y-69897927D01*
X187326049Y-69880950D01*
X187352297Y-69810577D01*
X187352298Y-69810571D01*
X187358699Y-69751043D01*
X187358700Y-69751026D01*
X187358700Y-69703199D01*
X187123926Y-69703199D01*
X187080593Y-69695381D01*
X186966182Y-69652708D01*
X186966183Y-69652708D01*
X186906583Y-69646301D01*
X186906581Y-69646300D01*
X186906573Y-69646300D01*
X186906565Y-69646300D01*
X185998029Y-69646300D01*
X185998023Y-69646301D01*
X185938416Y-69652708D01*
X185824007Y-69695381D01*
X185780674Y-69703199D01*
X185545900Y-69703199D01*
X185545900Y-69751043D01*
X185552301Y-69810571D01*
X185552303Y-69810579D01*
X185578550Y-69880951D01*
X185583534Y-69950643D01*
X185578551Y-69967616D01*
X185551809Y-70039315D01*
X185551809Y-70039317D01*
X185545400Y-70098927D01*
X180521820Y-70098927D01*
X180521820Y-61000000D01*
X183269402Y-61000000D01*
X183289738Y-61193483D01*
X183349856Y-61378510D01*
X183349857Y-61378511D01*
X183384203Y-61438000D01*
X183400676Y-61505900D01*
X183384203Y-61562000D01*
X183349857Y-61621488D01*
X183349856Y-61621489D01*
X183289738Y-61806516D01*
X183269402Y-62000000D01*
X183289738Y-62193483D01*
X183349856Y-62378510D01*
X183349857Y-62378511D01*
X183384203Y-62438000D01*
X183400676Y-62505900D01*
X183384203Y-62562000D01*
X183349857Y-62621488D01*
X183349856Y-62621489D01*
X183289738Y-62806516D01*
X183269402Y-63000000D01*
X183289738Y-63193483D01*
X183349856Y-63378510D01*
X183349857Y-63378511D01*
X183384203Y-63438000D01*
X183400676Y-63505900D01*
X183384203Y-63562000D01*
X183349857Y-63621488D01*
X183349856Y-63621489D01*
X183289738Y-63806516D01*
X183269402Y-64000000D01*
X183289738Y-64193483D01*
X183349856Y-64378510D01*
X183349857Y-64378511D01*
X183384203Y-64438000D01*
X183400676Y-64505900D01*
X183384203Y-64562000D01*
X183349857Y-64621488D01*
X183349856Y-64621489D01*
X183289738Y-64806516D01*
X183269402Y-65000000D01*
X183289738Y-65193483D01*
X183349856Y-65378510D01*
X183349857Y-65378511D01*
X183384203Y-65438000D01*
X183400676Y-65505900D01*
X183384203Y-65562000D01*
X183349857Y-65621488D01*
X183349856Y-65621489D01*
X183289738Y-65806516D01*
X183269402Y-66000000D01*
X183289738Y-66193483D01*
X183349856Y-66378510D01*
X183349857Y-66378511D01*
X183384203Y-66438000D01*
X183400676Y-66505900D01*
X183384203Y-66562000D01*
X183349857Y-66621488D01*
X183349856Y-66621489D01*
X183289738Y-66806516D01*
X183269402Y-66999999D01*
X183286154Y-67159388D01*
X183289738Y-67193482D01*
X183291856Y-67200000D01*
X183319848Y-67286154D01*
X183321843Y-67355995D01*
X183318099Y-67367804D01*
X183280908Y-67467517D01*
X183274501Y-67527116D01*
X183274500Y-67527135D01*
X183274500Y-68472870D01*
X183274501Y-68472876D01*
X183280908Y-68532483D01*
X183331202Y-68667328D01*
X183331206Y-68667335D01*
X183417452Y-68782544D01*
X183417455Y-68782547D01*
X183532664Y-68868793D01*
X183532671Y-68868797D01*
X183667517Y-68919091D01*
X183667516Y-68919091D01*
X183674444Y-68919835D01*
X183727127Y-68925500D01*
X184672872Y-68925499D01*
X184732483Y-68919091D01*
X184780867Y-68901045D01*
X185545900Y-68901045D01*
X185552301Y-68960573D01*
X185552303Y-68960584D01*
X185578816Y-69031668D01*
X185583800Y-69101359D01*
X185578816Y-69118332D01*
X185552303Y-69189415D01*
X185552301Y-69189426D01*
X185545900Y-69248954D01*
X185545900Y-69296799D01*
X186249100Y-69296799D01*
X186655500Y-69296799D01*
X187358700Y-69296799D01*
X187358700Y-69248971D01*
X187358699Y-69248954D01*
X187352298Y-69189426D01*
X187325782Y-69118334D01*
X187320798Y-69048642D01*
X187325782Y-69031666D01*
X187352298Y-68960573D01*
X187358699Y-68901045D01*
X187358700Y-68901028D01*
X187358700Y-68853201D01*
X186655500Y-68853201D01*
X186655500Y-69296799D01*
X186249100Y-69296799D01*
X186249100Y-68853201D01*
X185545900Y-68853201D01*
X185545900Y-68901045D01*
X184780867Y-68901045D01*
X184867331Y-68868796D01*
X184982546Y-68782546D01*
X185068796Y-68667331D01*
X185119091Y-68532483D01*
X185121375Y-68511243D01*
X185148114Y-68446692D01*
X185205507Y-68406845D01*
X185244664Y-68400500D01*
X185448237Y-68400500D01*
X185515276Y-68420185D01*
X185535918Y-68436819D01*
X185545900Y-68446801D01*
X185780674Y-68446801D01*
X185824007Y-68454619D01*
X185938417Y-68497291D01*
X185998027Y-68503700D01*
X186906572Y-68503699D01*
X186966183Y-68497291D01*
X187013575Y-68479615D01*
X187080593Y-68454619D01*
X187123926Y-68446801D01*
X187358700Y-68446801D01*
X187358700Y-68398973D01*
X187358699Y-68398956D01*
X187352298Y-68339428D01*
X187352298Y-68339426D01*
X187326048Y-68269047D01*
X187321064Y-68199356D01*
X187326046Y-68182389D01*
X187352791Y-68110683D01*
X187359200Y-68051073D01*
X187359199Y-67548928D01*
X187358749Y-67544744D01*
X190703100Y-67544744D01*
X190709501Y-67604272D01*
X190709503Y-67604279D01*
X190759745Y-67738986D01*
X190759749Y-67738993D01*
X190845909Y-67854087D01*
X190845912Y-67854090D01*
X190961006Y-67940250D01*
X190961013Y-67940254D01*
X191095720Y-67990496D01*
X191095727Y-67990498D01*
X191155255Y-67996899D01*
X191155272Y-67996900D01*
X191550000Y-67996900D01*
X192050000Y-67996900D01*
X192444728Y-67996900D01*
X192444744Y-67996899D01*
X192504277Y-67990497D01*
X192504279Y-67990497D01*
X192581665Y-67961633D01*
X192651357Y-67956647D01*
X192668335Y-67961633D01*
X192745721Y-67990497D01*
X192805255Y-67996899D01*
X192805272Y-67996900D01*
X193200000Y-67996900D01*
X193700000Y-67996900D01*
X194094728Y-67996900D01*
X194094744Y-67996899D01*
X194154277Y-67990497D01*
X194154279Y-67990497D01*
X194231665Y-67961633D01*
X194301357Y-67956647D01*
X194318335Y-67961633D01*
X194395721Y-67990497D01*
X194455255Y-67996899D01*
X194455272Y-67996900D01*
X194850000Y-67996900D01*
X195350000Y-67996900D01*
X195744728Y-67996900D01*
X195744744Y-67996899D01*
X195804272Y-67990498D01*
X195804279Y-67990496D01*
X195938986Y-67940254D01*
X195938993Y-67940250D01*
X196054087Y-67854090D01*
X196054090Y-67854087D01*
X196140250Y-67738993D01*
X196140254Y-67738986D01*
X196190496Y-67604279D01*
X196190498Y-67604272D01*
X196196899Y-67544744D01*
X196196900Y-67544727D01*
X196196900Y-67150000D01*
X195350000Y-67150000D01*
X195350000Y-67996900D01*
X194850000Y-67996900D01*
X194850000Y-67150000D01*
X193700000Y-67150000D01*
X193700000Y-67996900D01*
X193200000Y-67996900D01*
X193200000Y-67150000D01*
X192050000Y-67150000D01*
X192050000Y-67996900D01*
X191550000Y-67996900D01*
X191550000Y-67150000D01*
X190703100Y-67150000D01*
X190703100Y-67544744D01*
X187358749Y-67544744D01*
X187352791Y-67489317D01*
X187326314Y-67418331D01*
X187321331Y-67348641D01*
X187326316Y-67331664D01*
X187335375Y-67307376D01*
X187352791Y-67260682D01*
X187359200Y-67201072D01*
X187359199Y-66698927D01*
X187352791Y-66639316D01*
X187326314Y-66568331D01*
X187321331Y-66498642D01*
X187326316Y-66481665D01*
X187327884Y-66477461D01*
X187352791Y-66410684D01*
X187359200Y-66351074D01*
X187359199Y-65894744D01*
X190703100Y-65894744D01*
X190709501Y-65954272D01*
X190709503Y-65954283D01*
X190738366Y-66031668D01*
X190743350Y-66101360D01*
X190738366Y-66118332D01*
X190709503Y-66195716D01*
X190709501Y-66195727D01*
X190703100Y-66255255D01*
X190703100Y-66650000D01*
X191550000Y-66650000D01*
X192050000Y-66650000D01*
X193200000Y-66650000D01*
X193700000Y-66650000D01*
X194850000Y-66650000D01*
X195350000Y-66650000D01*
X196196900Y-66650000D01*
X196196900Y-66255272D01*
X196196899Y-66255255D01*
X196190497Y-66195722D01*
X196190497Y-66195720D01*
X196161633Y-66118335D01*
X196156647Y-66048643D01*
X196161633Y-66031665D01*
X196190497Y-65954279D01*
X196190497Y-65954277D01*
X196196899Y-65894744D01*
X196196900Y-65894727D01*
X196196900Y-65500000D01*
X195350000Y-65500000D01*
X195350000Y-66650000D01*
X194850000Y-66650000D01*
X194850000Y-65500000D01*
X193700000Y-65500000D01*
X193700000Y-66650000D01*
X193200000Y-66650000D01*
X193200000Y-65500000D01*
X192050000Y-65500000D01*
X192050000Y-66650000D01*
X191550000Y-66650000D01*
X191550000Y-65500000D01*
X190703100Y-65500000D01*
X190703100Y-65894744D01*
X187359199Y-65894744D01*
X187359199Y-65848929D01*
X187352791Y-65789318D01*
X187326314Y-65718332D01*
X187321331Y-65648642D01*
X187326316Y-65631665D01*
X187330110Y-65621492D01*
X187352791Y-65560683D01*
X187359200Y-65501073D01*
X187359199Y-64998928D01*
X187352791Y-64939317D01*
X187326314Y-64868331D01*
X187321331Y-64798641D01*
X187326316Y-64781664D01*
X187341347Y-64741365D01*
X187352791Y-64710682D01*
X187359200Y-64651072D01*
X187359199Y-64244744D01*
X190703100Y-64244744D01*
X190709501Y-64304272D01*
X190709503Y-64304283D01*
X190738366Y-64381668D01*
X190743350Y-64451360D01*
X190738366Y-64468332D01*
X190709503Y-64545716D01*
X190709501Y-64545727D01*
X190703100Y-64605255D01*
X190703100Y-65000000D01*
X191550000Y-65000000D01*
X192050000Y-65000000D01*
X193200000Y-65000000D01*
X193700000Y-65000000D01*
X194850000Y-65000000D01*
X195350000Y-65000000D01*
X196196900Y-65000000D01*
X196196900Y-64605272D01*
X196196899Y-64605255D01*
X196190497Y-64545722D01*
X196190497Y-64545720D01*
X196161633Y-64468335D01*
X196156647Y-64398643D01*
X196161633Y-64381665D01*
X196190497Y-64304279D01*
X196190497Y-64304277D01*
X196196899Y-64244744D01*
X196196900Y-64244727D01*
X196196900Y-63850000D01*
X195350000Y-63850000D01*
X195350000Y-65000000D01*
X194850000Y-65000000D01*
X194850000Y-63850000D01*
X193700000Y-63850000D01*
X193700000Y-65000000D01*
X193200000Y-65000000D01*
X193200000Y-63850000D01*
X192050000Y-63850000D01*
X192050000Y-65000000D01*
X191550000Y-65000000D01*
X191550000Y-63850000D01*
X190703100Y-63850000D01*
X190703100Y-64244744D01*
X187359199Y-64244744D01*
X187359199Y-64148927D01*
X187352791Y-64089316D01*
X187326314Y-64018331D01*
X187321331Y-63948642D01*
X187326316Y-63931665D01*
X187352791Y-63860684D01*
X187359200Y-63801074D01*
X187359199Y-63298929D01*
X187352791Y-63239318D01*
X187326314Y-63168332D01*
X187321331Y-63098642D01*
X187326316Y-63081665D01*
X187331324Y-63068238D01*
X187352791Y-63010683D01*
X187358750Y-62955255D01*
X190703100Y-62955255D01*
X190703100Y-63350000D01*
X191550000Y-63350000D01*
X192050000Y-63350000D01*
X193200000Y-63350000D01*
X193700000Y-63350000D01*
X194850000Y-63350000D01*
X195350000Y-63350000D01*
X196196900Y-63350000D01*
X196196900Y-62955272D01*
X196196899Y-62955255D01*
X196190498Y-62895727D01*
X196190496Y-62895720D01*
X196140254Y-62761013D01*
X196140250Y-62761006D01*
X196054090Y-62645912D01*
X196054087Y-62645909D01*
X195938993Y-62559749D01*
X195938986Y-62559745D01*
X195804279Y-62509503D01*
X195804272Y-62509501D01*
X195744744Y-62503100D01*
X195350000Y-62503100D01*
X195350000Y-63350000D01*
X194850000Y-63350000D01*
X194850000Y-62503100D01*
X194455255Y-62503100D01*
X194395727Y-62509501D01*
X194395716Y-62509503D01*
X194318332Y-62538366D01*
X194248640Y-62543350D01*
X194231668Y-62538366D01*
X194154283Y-62509503D01*
X194154272Y-62509501D01*
X194094744Y-62503100D01*
X193700000Y-62503100D01*
X193700000Y-63350000D01*
X193200000Y-63350000D01*
X193200000Y-62503100D01*
X192805255Y-62503100D01*
X192745727Y-62509501D01*
X192745716Y-62509503D01*
X192668332Y-62538366D01*
X192598640Y-62543350D01*
X192581668Y-62538366D01*
X192504283Y-62509503D01*
X192504272Y-62509501D01*
X192444744Y-62503100D01*
X192050000Y-62503100D01*
X192050000Y-63350000D01*
X191550000Y-63350000D01*
X191550000Y-62503100D01*
X191155255Y-62503100D01*
X191095727Y-62509501D01*
X191095720Y-62509503D01*
X190961013Y-62559745D01*
X190961006Y-62559749D01*
X190845912Y-62645909D01*
X190845909Y-62645912D01*
X190759749Y-62761006D01*
X190759745Y-62761013D01*
X190709503Y-62895720D01*
X190709501Y-62895727D01*
X190703100Y-62955255D01*
X187358750Y-62955255D01*
X187359200Y-62951073D01*
X187359199Y-62448928D01*
X187352791Y-62389317D01*
X187326314Y-62318331D01*
X187321331Y-62248641D01*
X187326316Y-62231664D01*
X187352789Y-62160687D01*
X187352788Y-62160687D01*
X187352791Y-62160682D01*
X187359200Y-62101072D01*
X187359199Y-61598927D01*
X187352791Y-61539316D01*
X187326314Y-61468331D01*
X187321331Y-61398642D01*
X187326316Y-61381665D01*
X187352791Y-61310684D01*
X187359200Y-61251074D01*
X187359199Y-60748929D01*
X187352791Y-60689318D01*
X187326314Y-60618332D01*
X187321331Y-60548642D01*
X187326316Y-60531665D01*
X187338195Y-60499816D01*
X187352791Y-60460683D01*
X187359200Y-60401073D01*
X187359199Y-59898928D01*
X187352791Y-59839317D01*
X187326314Y-59768331D01*
X187321331Y-59698641D01*
X187326316Y-59681664D01*
X187334396Y-59660000D01*
X187352791Y-59610682D01*
X187359200Y-59551072D01*
X187359199Y-59048927D01*
X187352791Y-58989316D01*
X187352790Y-58989314D01*
X187304617Y-58860155D01*
X187296799Y-58816822D01*
X187296799Y-58502300D01*
X185545900Y-58502300D01*
X185545900Y-58706544D01*
X185552301Y-58766072D01*
X185552303Y-58766080D01*
X185577524Y-58833701D01*
X185582508Y-58903393D01*
X185577525Y-58920366D01*
X185551809Y-58989314D01*
X185551809Y-58989315D01*
X185551809Y-58989316D01*
X185545400Y-59048926D01*
X185545400Y-59048933D01*
X185545400Y-59048934D01*
X185545400Y-59551069D01*
X185545401Y-59551075D01*
X185551808Y-59610682D01*
X185578284Y-59681666D01*
X185583268Y-59751358D01*
X185578284Y-59768331D01*
X185551810Y-59839311D01*
X185551809Y-59839315D01*
X185551809Y-59839317D01*
X185545400Y-59898927D01*
X185545400Y-60148794D01*
X185545401Y-60275499D01*
X185525717Y-60342538D01*
X185472913Y-60388293D01*
X185421401Y-60399499D01*
X185312448Y-60399499D01*
X185312432Y-60399500D01*
X184959900Y-60399500D01*
X184892861Y-60379815D01*
X184867750Y-60358472D01*
X184822697Y-60308435D01*
X184822694Y-60308433D01*
X184822693Y-60308432D01*
X184822692Y-60308431D01*
X184700320Y-60219522D01*
X184665297Y-60194076D01*
X184528848Y-60133326D01*
X184487571Y-60114949D01*
X184487569Y-60114948D01*
X184297274Y-60074500D01*
X184102726Y-60074500D01*
X183912431Y-60114948D01*
X183734702Y-60194076D01*
X183577305Y-60308433D01*
X183577302Y-60308435D01*
X183447129Y-60453009D01*
X183349857Y-60621488D01*
X183349856Y-60621489D01*
X183289738Y-60806516D01*
X183269402Y-61000000D01*
X180521820Y-61000000D01*
X180521820Y-57798055D01*
X185545900Y-57798055D01*
X185545900Y-58002300D01*
X186202300Y-58002300D01*
X186702300Y-58002300D01*
X187296799Y-58002300D01*
X187296799Y-57345900D01*
X187248954Y-57345900D01*
X187189426Y-57352301D01*
X187189418Y-57352303D01*
X187121082Y-57377791D01*
X187051390Y-57382775D01*
X187034416Y-57377791D01*
X186966079Y-57352303D01*
X186966072Y-57352301D01*
X186906544Y-57345900D01*
X186702300Y-57345900D01*
X186702300Y-58002300D01*
X186202300Y-58002300D01*
X186202300Y-57345900D01*
X185998055Y-57345900D01*
X185938527Y-57352301D01*
X185938520Y-57352303D01*
X185803813Y-57402545D01*
X185803806Y-57402549D01*
X185688712Y-57488709D01*
X185688709Y-57488712D01*
X185602549Y-57603806D01*
X185602545Y-57603813D01*
X185552303Y-57738520D01*
X185552301Y-57738527D01*
X185545900Y-57798055D01*
X180521820Y-57798055D01*
X180521820Y-52897844D01*
X183300000Y-52897844D01*
X183306401Y-52957372D01*
X183306403Y-52957379D01*
X183356645Y-53092086D01*
X183356649Y-53092093D01*
X183442809Y-53207187D01*
X183442812Y-53207190D01*
X183557906Y-53293350D01*
X183557913Y-53293354D01*
X183692620Y-53343596D01*
X183692627Y-53343598D01*
X183752155Y-53349999D01*
X183752172Y-53350000D01*
X183950000Y-53350000D01*
X183950000Y-52850000D01*
X183300000Y-52850000D01*
X183300000Y-52897844D01*
X180521820Y-52897844D01*
X180521820Y-52047844D01*
X183300000Y-52047844D01*
X183306401Y-52107372D01*
X183306403Y-52107379D01*
X183315462Y-52131669D01*
X183320445Y-52201361D01*
X183315462Y-52218331D01*
X183306403Y-52242620D01*
X183306401Y-52242627D01*
X183300000Y-52302155D01*
X183300000Y-52350000D01*
X183950000Y-52350000D01*
X183950000Y-52000000D01*
X183300000Y-52000000D01*
X183300000Y-52047844D01*
X180521820Y-52047844D01*
X180521820Y-51247844D01*
X183300000Y-51247844D01*
X183306401Y-51307372D01*
X183306403Y-51307380D01*
X183324786Y-51356667D01*
X183329770Y-51426359D01*
X183324786Y-51443333D01*
X183306403Y-51492619D01*
X183306401Y-51492627D01*
X183300000Y-51552155D01*
X183300000Y-51600000D01*
X184000000Y-51600000D01*
X184000000Y-51200000D01*
X183300000Y-51200000D01*
X183300000Y-51247844D01*
X180521820Y-51247844D01*
X180521820Y-50497844D01*
X183300000Y-50497844D01*
X183306401Y-50557372D01*
X183306403Y-50557379D01*
X183315462Y-50581669D01*
X183320445Y-50651361D01*
X183315462Y-50668331D01*
X183306403Y-50692620D01*
X183306401Y-50692627D01*
X183300000Y-50752155D01*
X183300000Y-50800000D01*
X183950000Y-50800000D01*
X183950000Y-50450000D01*
X183300000Y-50450000D01*
X183300000Y-50497844D01*
X180521820Y-50497844D01*
X180521820Y-50087212D01*
X180521821Y-50087209D01*
X180521820Y-50025055D01*
X180522046Y-50017579D01*
X180522047Y-50017569D01*
X180529027Y-49902155D01*
X183300000Y-49902155D01*
X183300000Y-49950000D01*
X183950000Y-49950000D01*
X183950000Y-49450000D01*
X183752155Y-49450000D01*
X183692627Y-49456401D01*
X183692620Y-49456403D01*
X183557913Y-49506645D01*
X183557906Y-49506649D01*
X183442812Y-49592809D01*
X183442809Y-49592812D01*
X183356649Y-49707906D01*
X183356645Y-49707913D01*
X183306403Y-49842620D01*
X183306401Y-49842627D01*
X183300000Y-49902155D01*
X180529027Y-49902155D01*
X180539589Y-49727515D01*
X180541394Y-49712655D01*
X180542265Y-49707906D01*
X180593096Y-49430520D01*
X180596678Y-49415988D01*
X180598247Y-49410955D01*
X180682012Y-49142136D01*
X180687321Y-49128139D01*
X180805042Y-48866570D01*
X180811993Y-48853325D01*
X180960394Y-48607841D01*
X180968881Y-48595545D01*
X181145795Y-48369731D01*
X181155710Y-48358540D01*
X181358540Y-48155710D01*
X181369731Y-48145795D01*
X181595545Y-47968881D01*
X181607841Y-47960394D01*
X181853325Y-47811993D01*
X181866570Y-47805042D01*
X182128143Y-47687319D01*
X182142136Y-47682012D01*
X182415995Y-47596676D01*
X182430520Y-47593096D01*
X182712661Y-47541393D01*
X182727515Y-47539589D01*
X183017581Y-47522045D01*
X183025065Y-47521820D01*
X183087209Y-47521821D01*
X183087213Y-47521820D01*
X215912787Y-47521820D01*
X215912791Y-47521821D01*
G37*
%TD.AperFunction*%
%TA.AperFunction,Conductor*%
G36*
X219802540Y-68130185D02*
G01*
X219848295Y-68182989D01*
X219859501Y-68234500D01*
X219859501Y-68374576D01*
X219839816Y-68441615D01*
X219787012Y-68487370D01*
X219735656Y-68498576D01*
X219001206Y-68499497D01*
X219000522Y-68499496D01*
X218936196Y-68499221D01*
X218935305Y-68499340D01*
X218934607Y-68499431D01*
X218933540Y-68499566D01*
X218871516Y-68516269D01*
X218870855Y-68516445D01*
X218808743Y-68532803D01*
X218807899Y-68533155D01*
X218807203Y-68533442D01*
X218806298Y-68533811D01*
X218806229Y-68533851D01*
X218750709Y-68565997D01*
X218750239Y-68566267D01*
X218694356Y-68598214D01*
X218693657Y-68598752D01*
X218693117Y-68599165D01*
X218692228Y-68599840D01*
X218646995Y-68645187D01*
X218646511Y-68645669D01*
X218600775Y-68691015D01*
X218600234Y-68691724D01*
X218599780Y-68692314D01*
X218599151Y-68693125D01*
X218567051Y-68748882D01*
X218566710Y-68749470D01*
X218534405Y-68804875D01*
X218534035Y-68805775D01*
X218533756Y-68806445D01*
X218533384Y-68807331D01*
X218516812Y-68869482D01*
X218516636Y-68870136D01*
X218499768Y-68932033D01*
X218499641Y-68933016D01*
X218499542Y-68933756D01*
X218499417Y-68934667D01*
X218499497Y-68998915D01*
X218499496Y-68999599D01*
X218478499Y-73902767D01*
X218478179Y-73907511D01*
X218478179Y-73974940D01*
X218477953Y-73982426D01*
X218460410Y-74272479D01*
X218458605Y-74287344D01*
X218406904Y-74569472D01*
X218403321Y-74584011D01*
X218317988Y-74857859D01*
X218312678Y-74871860D01*
X218194960Y-75133422D01*
X218188003Y-75146678D01*
X218180618Y-75158895D01*
X218129091Y-75206084D01*
X218060232Y-75217925D01*
X217995903Y-75190657D01*
X217956527Y-75132940D01*
X217950499Y-75094748D01*
X217950499Y-74648877D01*
X217950498Y-74648876D01*
X217947600Y-74606111D01*
X217901641Y-74421307D01*
X217828584Y-74274000D01*
X217817032Y-74250707D01*
X217817030Y-74250704D01*
X217697722Y-74102278D01*
X217697721Y-74102277D01*
X217549295Y-73982969D01*
X217549292Y-73982967D01*
X217378697Y-73898360D01*
X217193892Y-73852400D01*
X217168229Y-73850660D01*
X217151123Y-73849500D01*
X217151121Y-73849500D01*
X217100097Y-73849500D01*
X217033058Y-73829815D01*
X217012416Y-73813181D01*
X214891575Y-71692340D01*
X214858090Y-71631017D01*
X214863074Y-71561325D01*
X214904946Y-71505392D01*
X214965374Y-71481439D01*
X215019249Y-71475369D01*
X215019252Y-71475368D01*
X215019255Y-71475368D01*
X215189522Y-71415789D01*
X215342262Y-71319816D01*
X215469816Y-71192262D01*
X215565789Y-71039522D01*
X215625368Y-70869255D01*
X215627128Y-70853637D01*
X215645565Y-70690003D01*
X215645565Y-70689999D01*
X215645383Y-70688384D01*
X215645565Y-70687344D01*
X215645565Y-70683036D01*
X215646320Y-70683036D01*
X215657437Y-70619562D01*
X215704785Y-70568182D01*
X215768603Y-70550499D01*
X215858028Y-70550499D01*
X215858036Y-70550499D01*
X215977418Y-70539886D01*
X216173049Y-70483909D01*
X216353407Y-70389698D01*
X216511109Y-70261109D01*
X216639698Y-70103407D01*
X216733909Y-69923049D01*
X216789886Y-69727418D01*
X216800500Y-69608037D01*
X216800499Y-68491964D01*
X216789886Y-68372582D01*
X216760136Y-68268610D01*
X216760619Y-68198744D01*
X216798799Y-68140228D01*
X216862554Y-68111643D01*
X216879352Y-68110500D01*
X219735501Y-68110500D01*
X219802540Y-68130185D01*
G37*
%TD.AperFunction*%
%TA.AperFunction,Conductor*%
G36*
X213216942Y-71720185D02*
G01*
X213237584Y-71736819D01*
X214115027Y-72614262D01*
X214148512Y-72675585D01*
X214143528Y-72745277D01*
X214101656Y-72801210D01*
X214068301Y-72818984D01*
X213910480Y-72874208D01*
X213757737Y-72970184D01*
X213630184Y-73097737D01*
X213534209Y-73250480D01*
X213498217Y-73353339D01*
X213457496Y-73410115D01*
X213392543Y-73435862D01*
X213323981Y-73422406D01*
X213319177Y-73419772D01*
X213264006Y-73387920D01*
X213229876Y-73368215D01*
X213181847Y-73340485D01*
X213029119Y-73299561D01*
X212871005Y-73299561D01*
X212863409Y-73299561D01*
X212863393Y-73299562D01*
X210050765Y-73299562D01*
X209985669Y-73281101D01*
X209919340Y-73240189D01*
X209919336Y-73240187D01*
X209919334Y-73240186D01*
X209842667Y-73214781D01*
X209793994Y-73184758D01*
X209718716Y-73109480D01*
X209718715Y-73109479D01*
X209714385Y-73105149D01*
X209714374Y-73105139D01*
X209146415Y-72537180D01*
X209112930Y-72475857D01*
X209117914Y-72406165D01*
X209159786Y-72350232D01*
X209225250Y-72325815D01*
X209234076Y-72325499D01*
X209650008Y-72325499D01*
X209650016Y-72325498D01*
X209650019Y-72325498D01*
X209706302Y-72319748D01*
X209752797Y-72314999D01*
X209919334Y-72259814D01*
X210068656Y-72167712D01*
X210192712Y-72043656D01*
X210284814Y-71894334D01*
X210320879Y-71785494D01*
X210360652Y-71728051D01*
X210425167Y-71701228D01*
X210438585Y-71700500D01*
X213149903Y-71700500D01*
X213216942Y-71720185D01*
G37*
%TD.AperFunction*%
%TA.AperFunction,Conductor*%
G36*
X206519948Y-62689436D02*
G01*
X206552175Y-62751429D01*
X206553855Y-62762709D01*
X206560494Y-62827697D01*
X206615641Y-62994119D01*
X206615643Y-62994124D01*
X206707684Y-63143345D01*
X206802158Y-63237819D01*
X206835643Y-63299142D01*
X206830659Y-63368834D01*
X206788787Y-63424767D01*
X206723323Y-63449184D01*
X206714477Y-63449500D01*
X206052129Y-63449500D01*
X206052123Y-63449501D01*
X205992517Y-63455908D01*
X205925196Y-63481017D01*
X205855505Y-63486000D01*
X205831973Y-63473150D01*
X205828334Y-63506585D01*
X205788147Y-63558248D01*
X205742452Y-63592455D01*
X205656206Y-63707664D01*
X205656203Y-63707670D01*
X205614741Y-63818834D01*
X205572869Y-63874767D01*
X205507405Y-63899184D01*
X205498559Y-63899500D01*
X204052129Y-63899500D01*
X204052123Y-63899501D01*
X203992516Y-63905908D01*
X203857671Y-63956202D01*
X203857664Y-63956206D01*
X203742455Y-64042452D01*
X203742452Y-64042455D01*
X203656206Y-64157664D01*
X203656202Y-64157671D01*
X203605908Y-64292517D01*
X203599501Y-64352116D01*
X203599501Y-64352123D01*
X203599500Y-64352135D01*
X203599500Y-65247870D01*
X203599501Y-65247876D01*
X203605908Y-65307483D01*
X203656202Y-65442328D01*
X203656206Y-65442335D01*
X203742452Y-65557544D01*
X203742455Y-65557547D01*
X203857664Y-65643793D01*
X203857671Y-65643797D01*
X203992517Y-65694091D01*
X203992516Y-65694091D01*
X203999444Y-65694835D01*
X204052127Y-65700500D01*
X204200610Y-65700499D01*
X204267647Y-65720183D01*
X204313402Y-65772987D01*
X204323346Y-65842145D01*
X204315169Y-65871951D01*
X204303551Y-65900000D01*
X204849998Y-66446447D01*
X204849999Y-66446447D01*
X205396446Y-65900001D01*
X205384828Y-65871953D01*
X205377359Y-65802483D01*
X205408633Y-65740004D01*
X205468722Y-65704351D01*
X205499388Y-65700499D01*
X205647872Y-65700499D01*
X205707483Y-65694091D01*
X205842331Y-65643796D01*
X205957546Y-65557546D01*
X206037914Y-65450188D01*
X206093847Y-65408318D01*
X206137180Y-65400500D01*
X207062820Y-65400500D01*
X207129859Y-65420185D01*
X207162085Y-65450187D01*
X207242454Y-65557546D01*
X207248404Y-65562000D01*
X207357664Y-65643793D01*
X207357671Y-65643797D01*
X207492517Y-65694091D01*
X207492516Y-65694091D01*
X207499444Y-65694835D01*
X207552127Y-65700500D01*
X207700609Y-65700499D01*
X207767647Y-65720183D01*
X207813402Y-65772987D01*
X207823346Y-65842145D01*
X207815169Y-65871951D01*
X207803551Y-65899999D01*
X208526776Y-66623224D01*
X209458708Y-67555157D01*
X209543351Y-67442090D01*
X209593597Y-67307376D01*
X209593598Y-67307372D01*
X209599999Y-67247844D01*
X209600000Y-67247827D01*
X209600000Y-66352172D01*
X209599999Y-66352155D01*
X209593598Y-66292627D01*
X209593596Y-66292620D01*
X209543354Y-66157913D01*
X209539103Y-66150128D01*
X209540502Y-66149363D01*
X209519610Y-66093343D01*
X209534463Y-66025070D01*
X209583870Y-65975666D01*
X209643294Y-65960500D01*
X210828044Y-65960500D01*
X210895083Y-65980185D01*
X210940838Y-66032989D01*
X210951264Y-66070616D01*
X210964630Y-66189250D01*
X210964631Y-66189254D01*
X211024211Y-66359523D01*
X211120184Y-66512262D01*
X211152537Y-66544615D01*
X211186022Y-66605938D01*
X211181038Y-66675630D01*
X211169850Y-66698268D01*
X211074210Y-66850477D01*
X211014630Y-67020750D01*
X211004837Y-67107668D01*
X210977770Y-67172082D01*
X210969298Y-67181465D01*
X208981286Y-69169478D01*
X208869481Y-69281282D01*
X208869479Y-69281285D01*
X208819361Y-69368094D01*
X208819359Y-69368096D01*
X208790425Y-69418209D01*
X208790424Y-69418210D01*
X208790423Y-69418215D01*
X208749499Y-69570943D01*
X208749499Y-69570945D01*
X208749499Y-69739046D01*
X208749500Y-69739059D01*
X208749500Y-69890201D01*
X208729815Y-69957240D01*
X208690598Y-69995739D01*
X208631344Y-70032287D01*
X208507288Y-70156343D01*
X208507283Y-70156349D01*
X208505241Y-70159661D01*
X208503247Y-70161453D01*
X208502807Y-70162011D01*
X208502711Y-70161935D01*
X208453291Y-70206383D01*
X208384328Y-70217602D01*
X208320247Y-70189755D01*
X208294168Y-70159656D01*
X208292319Y-70156659D01*
X208292316Y-70156655D01*
X208168345Y-70032684D01*
X208019124Y-69940643D01*
X208019119Y-69940641D01*
X207852697Y-69885494D01*
X207852690Y-69885493D01*
X207749986Y-69875000D01*
X207700000Y-69875000D01*
X207700000Y-70976000D01*
X207680315Y-71043039D01*
X207627511Y-71088794D01*
X207576000Y-71100000D01*
X207450000Y-71100000D01*
X207450000Y-71226000D01*
X207430315Y-71293039D01*
X207377511Y-71338794D01*
X207326000Y-71350000D01*
X206450001Y-71350000D01*
X206450001Y-71624986D01*
X206460494Y-71727697D01*
X206515641Y-71894119D01*
X206515643Y-71894124D01*
X206607684Y-72043345D01*
X206612158Y-72047819D01*
X206645643Y-72109142D01*
X206640659Y-72178834D01*
X206598787Y-72234767D01*
X206533323Y-72259184D01*
X206524477Y-72259500D01*
X205875523Y-72259500D01*
X205808484Y-72239815D01*
X205762729Y-72187011D01*
X205752785Y-72117853D01*
X205781810Y-72054297D01*
X205787842Y-72047819D01*
X205892315Y-71943345D01*
X205984356Y-71794124D01*
X205984358Y-71794119D01*
X206039505Y-71627697D01*
X206039506Y-71627690D01*
X206049999Y-71524986D01*
X206050000Y-71524973D01*
X206050000Y-71250000D01*
X205174000Y-71250000D01*
X205106961Y-71230315D01*
X205061206Y-71177511D01*
X205050000Y-71126000D01*
X205050000Y-71000000D01*
X204924000Y-71000000D01*
X204856961Y-70980315D01*
X204811206Y-70927511D01*
X204800000Y-70876000D01*
X204800000Y-70750000D01*
X205300000Y-70750000D01*
X206049999Y-70750000D01*
X206049999Y-70575013D01*
X206450000Y-70575013D01*
X206450000Y-70850000D01*
X207200000Y-70850000D01*
X207200000Y-69875000D01*
X207199999Y-69874999D01*
X207150029Y-69875000D01*
X207150011Y-69875001D01*
X207047302Y-69885494D01*
X206880880Y-69940641D01*
X206880875Y-69940643D01*
X206731654Y-70032684D01*
X206607684Y-70156654D01*
X206515643Y-70305875D01*
X206515641Y-70305880D01*
X206460494Y-70472302D01*
X206460493Y-70472309D01*
X206450000Y-70575013D01*
X206049999Y-70575013D01*
X206049999Y-70475028D01*
X206049998Y-70475013D01*
X206039505Y-70372302D01*
X205984358Y-70205880D01*
X205984356Y-70205875D01*
X205892315Y-70056654D01*
X205768345Y-69932684D01*
X205619124Y-69840643D01*
X205619119Y-69840641D01*
X205452697Y-69785494D01*
X205452690Y-69785493D01*
X205349986Y-69775000D01*
X205300000Y-69775000D01*
X205300000Y-70750000D01*
X204800000Y-70750000D01*
X204800000Y-69775000D01*
X204799999Y-69774999D01*
X204750029Y-69775000D01*
X204750011Y-69775001D01*
X204647302Y-69785494D01*
X204480880Y-69840641D01*
X204480875Y-69840643D01*
X204331654Y-69932684D01*
X204207683Y-70056655D01*
X204207679Y-70056660D01*
X204205826Y-70059665D01*
X204204018Y-70061290D01*
X204203202Y-70062323D01*
X204203025Y-70062183D01*
X204153874Y-70106385D01*
X204084911Y-70117601D01*
X204020831Y-70089752D01*
X203994753Y-70059653D01*
X203994737Y-70059628D01*
X203992712Y-70056344D01*
X203868656Y-69932288D01*
X203719334Y-69840186D01*
X203552797Y-69785001D01*
X203552795Y-69785000D01*
X203450010Y-69774500D01*
X202849999Y-69774500D01*
X202849985Y-69774501D01*
X202839415Y-69775581D01*
X202770723Y-69762807D01*
X202739139Y-69739903D01*
X202137589Y-69138354D01*
X202137587Y-69138351D01*
X202018716Y-69019480D01*
X202018715Y-69019479D01*
X201916878Y-68960684D01*
X201916877Y-68960683D01*
X201881782Y-68940421D01*
X201825880Y-68925442D01*
X201729056Y-68899498D01*
X201570942Y-68899498D01*
X201563346Y-68899498D01*
X201563330Y-68899499D01*
X201478600Y-68899499D01*
X201411561Y-68879814D01*
X201365806Y-68827010D01*
X201354600Y-68775499D01*
X201354599Y-68398931D01*
X201354598Y-68398924D01*
X201352714Y-68381401D01*
X201348191Y-68339318D01*
X201321714Y-68268332D01*
X201316731Y-68198642D01*
X201321716Y-68181665D01*
X201323474Y-68176951D01*
X201348191Y-68110683D01*
X201354600Y-68051073D01*
X201354599Y-67699999D01*
X204303552Y-67699999D01*
X204303553Y-67700000D01*
X205498374Y-67700000D01*
X205565413Y-67719685D01*
X205611168Y-67772489D01*
X205614556Y-67780667D01*
X205656202Y-67892328D01*
X205656206Y-67892335D01*
X205742452Y-68007544D01*
X205742455Y-68007547D01*
X205857664Y-68093793D01*
X205857671Y-68093797D01*
X205992517Y-68144091D01*
X205992516Y-68144091D01*
X205999444Y-68144835D01*
X206052127Y-68150500D01*
X207147872Y-68150499D01*
X207207483Y-68144091D01*
X207342331Y-68093796D01*
X207457546Y-68007546D01*
X207543796Y-67892331D01*
X207585444Y-67780667D01*
X207627315Y-67724733D01*
X207692779Y-67700316D01*
X207701626Y-67700000D01*
X208896448Y-67700000D01*
X208896448Y-67699999D01*
X208173224Y-66976776D01*
X207241290Y-66044841D01*
X207156646Y-66157911D01*
X207156645Y-66157913D01*
X207106403Y-66292620D01*
X207106401Y-66292627D01*
X207100000Y-66352155D01*
X207100000Y-66525500D01*
X207080315Y-66592539D01*
X207027511Y-66638294D01*
X206976000Y-66649500D01*
X206224000Y-66649500D01*
X206156961Y-66629815D01*
X206111206Y-66577011D01*
X206100000Y-66525500D01*
X206100000Y-66352172D01*
X206099999Y-66352155D01*
X206093598Y-66292627D01*
X206093596Y-66292620D01*
X206043354Y-66157913D01*
X206043353Y-66157911D01*
X205958708Y-66044840D01*
X205026776Y-66976776D01*
X204303552Y-67699999D01*
X201354599Y-67699999D01*
X201354599Y-67548928D01*
X201348191Y-67489317D01*
X201321714Y-67418331D01*
X201316731Y-67348641D01*
X201321716Y-67331664D01*
X201330775Y-67307376D01*
X201348191Y-67260682D01*
X201354600Y-67201072D01*
X201354599Y-66698927D01*
X201348191Y-66639316D01*
X201321714Y-66568331D01*
X201316731Y-66498642D01*
X201321716Y-66481665D01*
X201323284Y-66477461D01*
X201348191Y-66410684D01*
X201354484Y-66352155D01*
X203600000Y-66352155D01*
X203600000Y-67247844D01*
X203606401Y-67307372D01*
X203606403Y-67307379D01*
X203656645Y-67442086D01*
X203656646Y-67442088D01*
X203741290Y-67555158D01*
X204496448Y-66800000D01*
X204496448Y-66799999D01*
X203741290Y-66044841D01*
X203656646Y-66157911D01*
X203656645Y-66157913D01*
X203606403Y-66292620D01*
X203606401Y-66292627D01*
X203600000Y-66352155D01*
X201354484Y-66352155D01*
X201354600Y-66351074D01*
X201354599Y-65848929D01*
X201348191Y-65789318D01*
X201321714Y-65718332D01*
X201316731Y-65648642D01*
X201321716Y-65631665D01*
X201325510Y-65621492D01*
X201348191Y-65560683D01*
X201354600Y-65501073D01*
X201354599Y-64998928D01*
X201348191Y-64939317D01*
X201321714Y-64868331D01*
X201316731Y-64798641D01*
X201321716Y-64781664D01*
X201336747Y-64741365D01*
X201348191Y-64710682D01*
X201354600Y-64651072D01*
X201354599Y-64335652D01*
X201374283Y-64268615D01*
X201427087Y-64222860D01*
X201496246Y-64212916D01*
X201544572Y-64230661D01*
X201600475Y-64265788D01*
X201770745Y-64325368D01*
X201770750Y-64325369D01*
X201949996Y-64345565D01*
X201950000Y-64345565D01*
X201950004Y-64345565D01*
X202129249Y-64325369D01*
X202129252Y-64325368D01*
X202129255Y-64325368D01*
X202299522Y-64265789D01*
X202452262Y-64169816D01*
X202579816Y-64042262D01*
X202675789Y-63889522D01*
X202735368Y-63719255D01*
X202736432Y-63709813D01*
X202755565Y-63540003D01*
X202755565Y-63540000D01*
X202754334Y-63529077D01*
X202766387Y-63460255D01*
X202813735Y-63408875D01*
X202881345Y-63391249D01*
X202890151Y-63391832D01*
X202974991Y-63400500D01*
X203600008Y-63400499D01*
X203600016Y-63400498D01*
X203600019Y-63400498D01*
X203684843Y-63391833D01*
X203702797Y-63389999D01*
X203869334Y-63334814D01*
X204018656Y-63242712D01*
X204112319Y-63149049D01*
X204173642Y-63115564D01*
X204243334Y-63120548D01*
X204287681Y-63149049D01*
X204381344Y-63242712D01*
X204530666Y-63334814D01*
X204697203Y-63389999D01*
X204799991Y-63400500D01*
X205425008Y-63400499D01*
X205425016Y-63400498D01*
X205425019Y-63400498D01*
X205509843Y-63391833D01*
X205527797Y-63389999D01*
X205674833Y-63341275D01*
X205744659Y-63338874D01*
X205763633Y-63350165D01*
X205765684Y-63321498D01*
X205807556Y-63265566D01*
X205816759Y-63259301D01*
X205843656Y-63242712D01*
X205967712Y-63118656D01*
X206059814Y-62969334D01*
X206114999Y-62802797D01*
X206116084Y-62792175D01*
X206142480Y-62727484D01*
X206199660Y-62687333D01*
X206225554Y-62681559D01*
X206302278Y-62672914D01*
X206369250Y-62665369D01*
X206369253Y-62665368D01*
X206369255Y-62665368D01*
X206369255Y-62665367D01*
X206369259Y-62665367D01*
X206389541Y-62658270D01*
X206459320Y-62654707D01*
X206519948Y-62689436D01*
G37*
%TD.AperFunction*%
%TA.AperFunction,Conductor*%
G36*
X212014888Y-68001162D02*
G01*
X212066267Y-68048511D01*
X212083891Y-68116122D01*
X212069861Y-68169733D01*
X212066090Y-68176952D01*
X212010114Y-68372583D01*
X212010113Y-68372586D01*
X212004403Y-68436819D01*
X211999909Y-68487370D01*
X211999500Y-68491966D01*
X211999500Y-69608028D01*
X211999501Y-69608034D01*
X212010113Y-69727415D01*
X212066089Y-69923045D01*
X212066090Y-69923048D01*
X212066091Y-69923049D01*
X212160302Y-70103407D01*
X212288891Y-70261109D01*
X212311320Y-70279397D01*
X212350838Y-70337018D01*
X212352930Y-70406856D01*
X212316933Y-70466739D01*
X212254275Y-70497654D01*
X212232960Y-70499500D01*
X210438585Y-70499500D01*
X210371546Y-70479815D01*
X210325791Y-70427011D01*
X210320879Y-70414504D01*
X210312659Y-70389698D01*
X210284814Y-70305666D01*
X210192712Y-70156344D01*
X210068656Y-70032288D01*
X210068655Y-70032287D01*
X210046447Y-70018589D01*
X209999723Y-69966640D01*
X209988502Y-69897678D01*
X210016346Y-69833596D01*
X210023853Y-69825381D01*
X211818535Y-68030698D01*
X211879856Y-67997215D01*
X211892324Y-67995162D01*
X211946066Y-67989107D01*
X212014888Y-68001162D01*
G37*
%TD.AperFunction*%
%TA.AperFunction,Conductor*%
G36*
X213997453Y-65076434D02*
G01*
X214018238Y-65085044D01*
X214135639Y-65100500D01*
X214200500Y-65100499D01*
X214267538Y-65120183D01*
X214313294Y-65172986D01*
X214324500Y-65224499D01*
X214324500Y-65332422D01*
X214304815Y-65399461D01*
X214252011Y-65445216D01*
X214182853Y-65455160D01*
X214168407Y-65452197D01*
X214048937Y-65420185D01*
X214009057Y-65409499D01*
X213850943Y-65409499D01*
X213843347Y-65409499D01*
X213843331Y-65409500D01*
X212664096Y-65409500D01*
X212597057Y-65389815D01*
X212551302Y-65337011D01*
X212541358Y-65267853D01*
X212570383Y-65204297D01*
X212576400Y-65197833D01*
X212649332Y-65124901D01*
X212710651Y-65091419D01*
X212753194Y-65089646D01*
X212835639Y-65100500D01*
X213114360Y-65100499D01*
X213114361Y-65100499D01*
X213126594Y-65098888D01*
X213231762Y-65085044D01*
X213252545Y-65076434D01*
X213322014Y-65068965D01*
X213347453Y-65076434D01*
X213368238Y-65085044D01*
X213485639Y-65100500D01*
X213764360Y-65100499D01*
X213764361Y-65100499D01*
X213776594Y-65098888D01*
X213881762Y-65085044D01*
X213902545Y-65076434D01*
X213972014Y-65068965D01*
X213997453Y-65076434D01*
G37*
%TD.AperFunction*%
%TA.AperFunction,Conductor*%
G36*
X210795460Y-56302637D02*
G01*
X210800474Y-56305787D01*
X210800475Y-56305787D01*
X210800478Y-56305789D01*
X210910159Y-56344168D01*
X210970745Y-56365368D01*
X210970750Y-56365369D01*
X211029609Y-56372000D01*
X211064382Y-56375918D01*
X211128796Y-56402984D01*
X211168352Y-56460578D01*
X211174500Y-56499138D01*
X211174500Y-56663913D01*
X211158523Y-56724799D01*
X211158492Y-56724854D01*
X211157959Y-56725789D01*
X211157856Y-56725968D01*
X211115423Y-56799464D01*
X211074499Y-56952192D01*
X211074499Y-56952194D01*
X211074499Y-57120295D01*
X211074500Y-57120308D01*
X211074500Y-57123742D01*
X211054815Y-57190781D01*
X211051073Y-57196103D01*
X211050465Y-57197156D01*
X210989956Y-57343237D01*
X210989955Y-57343239D01*
X210974501Y-57460629D01*
X210974500Y-57460645D01*
X210974500Y-57937402D01*
X210954815Y-58004441D01*
X210938185Y-58025078D01*
X210800082Y-58163182D01*
X210738762Y-58196666D01*
X210712403Y-58199500D01*
X210492801Y-58199500D01*
X210425762Y-58179815D01*
X210380007Y-58127011D01*
X210375095Y-58114504D01*
X210347314Y-58030666D01*
X210255212Y-57881344D01*
X210131156Y-57757288D01*
X209981834Y-57665186D01*
X209815297Y-57610001D01*
X209815295Y-57610000D01*
X209712510Y-57599500D01*
X209087498Y-57599500D01*
X209087480Y-57599501D01*
X208984703Y-57610000D01*
X208984700Y-57610001D01*
X208818168Y-57665185D01*
X208818163Y-57665187D01*
X208668842Y-57757289D01*
X208575181Y-57850951D01*
X208513858Y-57884436D01*
X208444166Y-57879452D01*
X208399819Y-57850951D01*
X208306157Y-57757289D01*
X208306156Y-57757288D01*
X208156834Y-57665186D01*
X207990297Y-57610001D01*
X207990295Y-57610000D01*
X207887510Y-57599500D01*
X207262498Y-57599500D01*
X207262480Y-57599501D01*
X207159703Y-57610000D01*
X207159700Y-57610001D01*
X206993168Y-57665185D01*
X206993163Y-57665187D01*
X206843842Y-57757289D01*
X206719789Y-57881342D01*
X206627687Y-58030663D01*
X206627686Y-58030666D01*
X206572501Y-58197203D01*
X206572501Y-58197204D01*
X206572500Y-58197204D01*
X206562000Y-58299983D01*
X206562000Y-59300001D01*
X206562001Y-59300019D01*
X206572500Y-59402796D01*
X206572501Y-59402799D01*
X206627685Y-59569331D01*
X206627687Y-59569336D01*
X206629771Y-59572714D01*
X206719788Y-59718656D01*
X206843844Y-59842712D01*
X206993166Y-59934814D01*
X207159703Y-59989999D01*
X207262491Y-60000500D01*
X207887508Y-60000499D01*
X207887511Y-60000498D01*
X207890667Y-60000338D01*
X207890716Y-60001319D01*
X207955426Y-60013345D01*
X207987020Y-60036255D01*
X208837986Y-60887221D01*
X208871471Y-60948544D01*
X208866487Y-61018236D01*
X208824615Y-61074169D01*
X208815402Y-61080441D01*
X208731342Y-61132289D01*
X208607288Y-61256343D01*
X208607283Y-61256349D01*
X208605241Y-61259661D01*
X208603247Y-61261453D01*
X208602807Y-61262011D01*
X208602711Y-61261935D01*
X208553291Y-61306383D01*
X208484328Y-61317602D01*
X208420247Y-61289755D01*
X208394168Y-61259656D01*
X208392319Y-61256659D01*
X208392316Y-61256655D01*
X208268345Y-61132684D01*
X208119124Y-61040643D01*
X208119119Y-61040641D01*
X207952697Y-60985494D01*
X207952690Y-60985493D01*
X207849986Y-60975000D01*
X207800000Y-60975000D01*
X207800000Y-63424999D01*
X207849972Y-63424999D01*
X207849986Y-63424998D01*
X207952697Y-63414505D01*
X208119119Y-63359358D01*
X208119124Y-63359356D01*
X208268345Y-63267315D01*
X208392318Y-63143342D01*
X208394165Y-63140348D01*
X208395969Y-63138724D01*
X208396798Y-63137677D01*
X208396976Y-63137818D01*
X208446110Y-63093621D01*
X208515073Y-63082396D01*
X208579156Y-63110236D01*
X208605243Y-63140341D01*
X208607288Y-63143656D01*
X208607289Y-63143657D01*
X208626553Y-63162921D01*
X208660038Y-63224244D01*
X208662092Y-63236718D01*
X208664630Y-63259247D01*
X208724210Y-63429519D01*
X208820184Y-63582260D01*
X208925743Y-63687819D01*
X208959228Y-63749142D01*
X208954244Y-63818834D01*
X208912372Y-63874767D01*
X208846908Y-63899184D01*
X208838062Y-63899500D01*
X207701440Y-63899500D01*
X207634401Y-63879815D01*
X207588646Y-63827011D01*
X207585258Y-63818833D01*
X207543797Y-63707671D01*
X207543793Y-63707664D01*
X207457547Y-63592455D01*
X207443928Y-63582260D01*
X207387477Y-63540000D01*
X207349688Y-63511711D01*
X207307818Y-63455777D01*
X207300000Y-63412445D01*
X207300000Y-60975000D01*
X207299999Y-60974999D01*
X207250029Y-60975000D01*
X207250011Y-60975001D01*
X207147302Y-60985494D01*
X206980880Y-61040641D01*
X206980875Y-61040643D01*
X206831657Y-61132682D01*
X206775630Y-61188709D01*
X206714306Y-61222193D01*
X206644614Y-61217208D01*
X206621977Y-61206021D01*
X206539523Y-61154211D01*
X206369254Y-61094631D01*
X206369249Y-61094630D01*
X206190004Y-61074435D01*
X206189996Y-61074435D01*
X206010750Y-61094630D01*
X206010742Y-61094632D01*
X205895087Y-61135102D01*
X205825309Y-61138663D01*
X205789041Y-61123601D01*
X205694334Y-61065186D01*
X205527797Y-61010001D01*
X205527795Y-61010000D01*
X205425010Y-60999500D01*
X204799998Y-60999500D01*
X204799980Y-60999501D01*
X204697203Y-61010000D01*
X204697200Y-61010001D01*
X204530668Y-61065185D01*
X204530663Y-61065187D01*
X204381342Y-61157289D01*
X204287681Y-61250951D01*
X204226358Y-61284436D01*
X204156666Y-61279452D01*
X204112319Y-61250951D01*
X204018655Y-61157287D01*
X203946902Y-61113029D01*
X203900178Y-61061081D01*
X203888000Y-61007491D01*
X203888000Y-60950096D01*
X203907685Y-60883057D01*
X203924315Y-60862419D01*
X204750081Y-60036652D01*
X204811402Y-60003169D01*
X204840995Y-60000748D01*
X204840995Y-60000500D01*
X204844027Y-60000500D01*
X204844076Y-60000496D01*
X204844149Y-60000499D01*
X204844152Y-60000500D01*
X204844154Y-60000500D01*
X205430843Y-60000500D01*
X205430848Y-60000500D01*
X205532775Y-59990087D01*
X205697925Y-59935362D01*
X205846003Y-59844026D01*
X205969026Y-59721003D01*
X206060362Y-59572925D01*
X206115087Y-59407775D01*
X206125500Y-59305848D01*
X206125500Y-58294152D01*
X206115087Y-58192225D01*
X206060362Y-58027075D01*
X206060358Y-58027069D01*
X206060357Y-58027066D01*
X205969028Y-57879000D01*
X205969025Y-57878996D01*
X205846003Y-57755974D01*
X205845999Y-57755971D01*
X205697933Y-57664642D01*
X205697927Y-57664639D01*
X205697925Y-57664638D01*
X205697922Y-57664637D01*
X205532776Y-57609913D01*
X205430855Y-57599500D01*
X205430848Y-57599500D01*
X204844152Y-57599500D01*
X204844144Y-57599500D01*
X204742223Y-57609913D01*
X204577077Y-57664637D01*
X204577066Y-57664642D01*
X204429000Y-57755971D01*
X204428996Y-57755974D01*
X204305974Y-57878996D01*
X204305967Y-57879005D01*
X204305234Y-57880194D01*
X204304519Y-57880836D01*
X204301493Y-57884664D01*
X204300838Y-57884146D01*
X204253280Y-57926911D01*
X204184316Y-57938123D01*
X204120238Y-57910271D01*
X204098238Y-57884877D01*
X204098112Y-57884977D01*
X204095885Y-57882161D01*
X204094163Y-57880173D01*
X204093630Y-57879309D01*
X203970691Y-57756370D01*
X203822714Y-57665096D01*
X203822709Y-57665094D01*
X203657673Y-57610407D01*
X203555815Y-57600000D01*
X203512500Y-57600000D01*
X203512500Y-58676000D01*
X203492815Y-58743039D01*
X203440011Y-58788794D01*
X203388500Y-58800000D01*
X203262500Y-58800000D01*
X203262500Y-58926000D01*
X203242815Y-58993039D01*
X203190011Y-59038794D01*
X203138500Y-59050000D01*
X202275000Y-59050000D01*
X202275000Y-59305815D01*
X202285407Y-59407673D01*
X202340094Y-59572709D01*
X202340096Y-59572714D01*
X202431370Y-59720691D01*
X202554308Y-59843629D01*
X202702285Y-59934903D01*
X202702290Y-59934905D01*
X202850261Y-59983938D01*
X202907706Y-60023711D01*
X202934529Y-60088226D01*
X202922214Y-60157002D01*
X202898939Y-60189325D01*
X202806980Y-60281284D01*
X202776016Y-60334916D01*
X202727923Y-60418215D01*
X202686999Y-60570943D01*
X202686999Y-60570945D01*
X202686999Y-60739046D01*
X202687000Y-60739059D01*
X202687000Y-61007491D01*
X202667315Y-61074530D01*
X202628098Y-61113029D01*
X202556344Y-61157287D01*
X202432289Y-61281342D01*
X202340187Y-61430663D01*
X202340185Y-61430668D01*
X202325683Y-61474432D01*
X202285001Y-61597203D01*
X202285001Y-61597204D01*
X202285000Y-61597204D01*
X202274500Y-61699983D01*
X202274500Y-62632292D01*
X202254815Y-62699331D01*
X202202011Y-62745086D01*
X202136273Y-62754538D01*
X202136175Y-62755411D01*
X201950004Y-62734435D01*
X201949996Y-62734435D01*
X201770750Y-62754630D01*
X201770745Y-62754631D01*
X201600474Y-62814212D01*
X201544570Y-62849339D01*
X201477334Y-62868339D01*
X201410499Y-62847971D01*
X201365285Y-62794703D01*
X201354599Y-62744347D01*
X201354599Y-62448928D01*
X201348191Y-62389317D01*
X201321714Y-62318331D01*
X201316731Y-62248641D01*
X201321716Y-62231664D01*
X201348189Y-62160687D01*
X201348188Y-62160687D01*
X201348191Y-62160682D01*
X201354600Y-62101072D01*
X201354599Y-61598927D01*
X201348191Y-61539316D01*
X201321714Y-61468331D01*
X201316731Y-61398642D01*
X201321716Y-61381665D01*
X201348191Y-61310684D01*
X201354600Y-61251074D01*
X201354599Y-60748929D01*
X201348191Y-60689318D01*
X201321714Y-60618332D01*
X201316731Y-60548642D01*
X201321716Y-60531665D01*
X201333595Y-60499816D01*
X201348191Y-60460683D01*
X201354600Y-60401073D01*
X201354599Y-59898928D01*
X201348191Y-59839317D01*
X201321714Y-59768331D01*
X201316731Y-59698641D01*
X201321716Y-59681664D01*
X201329796Y-59660000D01*
X201348191Y-59610682D01*
X201354600Y-59551072D01*
X201354599Y-59048927D01*
X201348191Y-58989316D01*
X201322473Y-58920364D01*
X201317490Y-58850675D01*
X201322475Y-58833698D01*
X201347697Y-58766075D01*
X201347698Y-58766072D01*
X201354099Y-58706544D01*
X201354100Y-58706527D01*
X201354100Y-58502300D01*
X200571700Y-58502300D01*
X200504661Y-58482615D01*
X200458906Y-58429811D01*
X200447700Y-58378300D01*
X200447700Y-58294184D01*
X202275000Y-58294184D01*
X202275000Y-58550000D01*
X203012500Y-58550000D01*
X203012500Y-57600000D01*
X202969184Y-57600000D01*
X202867326Y-57610407D01*
X202702290Y-57665094D01*
X202702285Y-57665096D01*
X202554308Y-57756370D01*
X202431370Y-57879308D01*
X202340096Y-58027285D01*
X202340094Y-58027290D01*
X202285407Y-58192326D01*
X202275000Y-58294184D01*
X200447700Y-58294184D01*
X200447700Y-58252300D01*
X200321700Y-58252300D01*
X200254661Y-58232615D01*
X200208906Y-58179811D01*
X200197700Y-58128300D01*
X200197700Y-58002300D01*
X200697700Y-58002300D01*
X201354100Y-58002300D01*
X201354100Y-57798072D01*
X201354099Y-57798055D01*
X201347698Y-57738527D01*
X201347696Y-57738520D01*
X201297454Y-57603813D01*
X201297450Y-57603806D01*
X201211290Y-57488712D01*
X201211287Y-57488709D01*
X201096193Y-57402549D01*
X201096186Y-57402545D01*
X200961479Y-57352303D01*
X200961472Y-57352301D01*
X200901944Y-57345900D01*
X200697700Y-57345900D01*
X200697700Y-58002300D01*
X200197700Y-58002300D01*
X200197700Y-57345900D01*
X199993455Y-57345900D01*
X199933927Y-57352301D01*
X199933916Y-57352304D01*
X199866296Y-57377524D01*
X199796604Y-57382508D01*
X199779631Y-57377524D01*
X199710687Y-57351810D01*
X199710686Y-57351809D01*
X199710684Y-57351809D01*
X199651074Y-57345400D01*
X199651064Y-57345400D01*
X199148930Y-57345400D01*
X199148924Y-57345401D01*
X199089317Y-57351808D01*
X199018332Y-57378284D01*
X198948640Y-57383268D01*
X198931667Y-57378284D01*
X198860686Y-57351810D01*
X198860685Y-57351809D01*
X198860683Y-57351809D01*
X198801073Y-57345400D01*
X198801063Y-57345400D01*
X198298929Y-57345400D01*
X198298923Y-57345401D01*
X198239316Y-57351808D01*
X198168331Y-57378284D01*
X198098639Y-57383268D01*
X198081666Y-57378284D01*
X198010685Y-57351810D01*
X198010684Y-57351809D01*
X198010682Y-57351809D01*
X197951072Y-57345400D01*
X197951062Y-57345400D01*
X197448928Y-57345400D01*
X197448922Y-57345401D01*
X197389314Y-57351809D01*
X197318332Y-57378283D01*
X197248640Y-57383267D01*
X197231668Y-57378283D01*
X197160689Y-57351810D01*
X197160685Y-57351809D01*
X197160684Y-57351809D01*
X197101074Y-57345400D01*
X197101064Y-57345400D01*
X196598930Y-57345400D01*
X196598924Y-57345401D01*
X196539317Y-57351808D01*
X196468332Y-57378284D01*
X196398640Y-57383268D01*
X196381667Y-57378284D01*
X196310686Y-57351810D01*
X196310685Y-57351809D01*
X196310683Y-57351809D01*
X196251073Y-57345400D01*
X196251063Y-57345400D01*
X195748929Y-57345400D01*
X195748923Y-57345401D01*
X195689316Y-57351808D01*
X195618331Y-57378284D01*
X195548639Y-57383268D01*
X195531666Y-57378284D01*
X195460685Y-57351810D01*
X195460684Y-57351809D01*
X195460682Y-57351809D01*
X195401072Y-57345400D01*
X195401062Y-57345400D01*
X194898928Y-57345400D01*
X194898922Y-57345401D01*
X194839314Y-57351809D01*
X194768332Y-57378283D01*
X194698640Y-57383267D01*
X194681668Y-57378283D01*
X194610689Y-57351810D01*
X194610685Y-57351809D01*
X194610684Y-57351809D01*
X194551074Y-57345400D01*
X194551064Y-57345400D01*
X194048930Y-57345400D01*
X194048924Y-57345401D01*
X193987753Y-57351977D01*
X193918994Y-57339570D01*
X193867857Y-57291959D01*
X193850500Y-57228687D01*
X193850500Y-56824496D01*
X193870185Y-56757457D01*
X193922989Y-56711702D01*
X193992147Y-56701758D01*
X194040473Y-56719503D01*
X194050476Y-56725788D01*
X194050478Y-56725789D01*
X194220745Y-56785368D01*
X194307669Y-56795161D01*
X194372080Y-56822226D01*
X194381453Y-56830689D01*
X194525468Y-56974704D01*
X194525470Y-56974705D01*
X194525471Y-56974706D01*
X194525474Y-56974708D01*
X194662393Y-57053757D01*
X194662400Y-57053761D01*
X194815127Y-57094685D01*
X194815129Y-57094685D01*
X194980838Y-57094685D01*
X194980854Y-57094684D01*
X209365250Y-57094684D01*
X209431222Y-57113690D01*
X209441734Y-57120295D01*
X209450478Y-57125789D01*
X209564920Y-57165834D01*
X209620745Y-57185368D01*
X209620750Y-57185369D01*
X209799996Y-57205565D01*
X209800000Y-57205565D01*
X209800004Y-57205565D01*
X209979249Y-57185369D01*
X209979252Y-57185368D01*
X209979255Y-57185368D01*
X210149522Y-57125789D01*
X210302262Y-57029816D01*
X210429816Y-56902262D01*
X210525789Y-56749522D01*
X210585368Y-56579255D01*
X210587586Y-56559576D01*
X210594413Y-56498974D01*
X210605565Y-56400000D01*
X210605565Y-56399996D01*
X210606269Y-56393748D01*
X210633335Y-56329334D01*
X210690930Y-56289779D01*
X210760767Y-56287641D01*
X210795460Y-56302637D01*
G37*
%TD.AperFunction*%
%TA.AperFunction,Conductor*%
G36*
X211372971Y-59341293D02*
G01*
X211418238Y-59360044D01*
X211535639Y-59375500D01*
X211540168Y-59375499D01*
X211607206Y-59395176D01*
X211652967Y-59447974D01*
X211662919Y-59517132D01*
X211657221Y-59540454D01*
X211604631Y-59690745D01*
X211604630Y-59690750D01*
X211584435Y-59869996D01*
X211584435Y-59870003D01*
X211604630Y-60049249D01*
X211604631Y-60049254D01*
X211664211Y-60219523D01*
X211741507Y-60342538D01*
X211760184Y-60372262D01*
X211887738Y-60499816D01*
X211938429Y-60531667D01*
X212037966Y-60594211D01*
X212040478Y-60595789D01*
X212206947Y-60654039D01*
X212210745Y-60655368D01*
X212210750Y-60655369D01*
X212389996Y-60675565D01*
X212390000Y-60675565D01*
X212390004Y-60675565D01*
X212569249Y-60655369D01*
X212569252Y-60655368D01*
X212569255Y-60655368D01*
X212739522Y-60595789D01*
X212892262Y-60499816D01*
X213019816Y-60372262D01*
X213115789Y-60219522D01*
X213175368Y-60049255D01*
X213185161Y-59962329D01*
X213212226Y-59897918D01*
X213220690Y-59888543D01*
X213333506Y-59775728D01*
X213333511Y-59775724D01*
X213343714Y-59765520D01*
X213343716Y-59765520D01*
X213417320Y-59691916D01*
X213478643Y-59658431D01*
X213548335Y-59663415D01*
X213592682Y-59691916D01*
X214367857Y-60467091D01*
X214401342Y-60528414D01*
X214396358Y-60598106D01*
X214354486Y-60654039D01*
X214346148Y-60659766D01*
X214297737Y-60690184D01*
X214292295Y-60694525D01*
X214290925Y-60692808D01*
X214245265Y-60719163D01*
X214091276Y-60760424D01*
X214091275Y-60760425D01*
X214041162Y-60789359D01*
X214041161Y-60789360D01*
X214011446Y-60806516D01*
X213954351Y-60839479D01*
X213954348Y-60839481D01*
X212494481Y-62299348D01*
X212494479Y-62299351D01*
X212483521Y-62318331D01*
X212462065Y-62355495D01*
X212428969Y-62412819D01*
X212418764Y-62430494D01*
X212368196Y-62478709D01*
X212299589Y-62491931D01*
X212234724Y-62465963D01*
X212203990Y-62430492D01*
X212155524Y-62346546D01*
X212155518Y-62346538D01*
X210422334Y-60613355D01*
X210422332Y-60613352D01*
X210303461Y-60494481D01*
X210303453Y-60494475D01*
X210191045Y-60429577D01*
X210191044Y-60429576D01*
X210170999Y-60418004D01*
X210166529Y-60415423D01*
X210166527Y-60415422D01*
X210166523Y-60415420D01*
X210059460Y-60386732D01*
X210003874Y-60354639D01*
X209825207Y-60175972D01*
X209791722Y-60114649D01*
X209796706Y-60044957D01*
X209838578Y-59989024D01*
X209873884Y-59970585D01*
X209981834Y-59934814D01*
X210131156Y-59842712D01*
X210255212Y-59718656D01*
X210347314Y-59569334D01*
X210375095Y-59485495D01*
X210414868Y-59428051D01*
X210479384Y-59401228D01*
X210492801Y-59400500D01*
X210925831Y-59400500D01*
X210925847Y-59400501D01*
X210933443Y-59400501D01*
X211091554Y-59400501D01*
X211091557Y-59400501D01*
X211244285Y-59359577D01*
X211263520Y-59348471D01*
X211331418Y-59331996D01*
X211372971Y-59341293D01*
G37*
%TD.AperFunction*%
%TA.AperFunction,Conductor*%
G36*
X219019671Y-59320064D02*
G01*
X219020366Y-59317473D01*
X219028214Y-59319575D01*
X219028216Y-59319577D01*
X219180943Y-59360501D01*
X219180945Y-59360501D01*
X219346654Y-59360501D01*
X219346670Y-59360500D01*
X219736000Y-59360500D01*
X219803039Y-59380185D01*
X219848794Y-59432989D01*
X219860000Y-59484500D01*
X219860000Y-59660000D01*
X220776988Y-59660000D01*
X220744075Y-59717007D01*
X220710000Y-59844174D01*
X220710000Y-59975826D01*
X220744075Y-60102993D01*
X220776988Y-60160000D01*
X219860000Y-60160000D01*
X219860000Y-60545500D01*
X219840315Y-60612539D01*
X219787511Y-60658294D01*
X219736000Y-60669500D01*
X218920098Y-60669500D01*
X218853059Y-60649815D01*
X218832417Y-60633181D01*
X218254289Y-60055053D01*
X218220804Y-59993730D01*
X218225788Y-59924038D01*
X218267660Y-59868105D01*
X218314386Y-59846479D01*
X218319253Y-59845368D01*
X218319255Y-59845368D01*
X218489522Y-59785789D01*
X218642262Y-59689816D01*
X218769816Y-59562262D01*
X218865789Y-59409522D01*
X218870520Y-59395999D01*
X218911240Y-59339225D01*
X218976192Y-59313476D01*
X219019671Y-59320064D01*
G37*
%TD.AperFunction*%
%TA.AperFunction,Conductor*%
G36*
X198601256Y-51820185D02*
G01*
X198621898Y-51836819D01*
X199699453Y-52914374D01*
X199699463Y-52914385D01*
X199703793Y-52918715D01*
X199703794Y-52918716D01*
X199815598Y-53030520D01*
X199898209Y-53078215D01*
X199898210Y-53078216D01*
X199952523Y-53109574D01*
X199952524Y-53109574D01*
X199952529Y-53109577D01*
X200105256Y-53150500D01*
X200105257Y-53150500D01*
X201722782Y-53150500D01*
X201789821Y-53170185D01*
X201835576Y-53222989D01*
X201846310Y-53263692D01*
X201860987Y-53431454D01*
X201860989Y-53431464D01*
X201922145Y-53659706D01*
X201922147Y-53659710D01*
X201922148Y-53659714D01*
X201965410Y-53752489D01*
X202022016Y-53873881D01*
X202022018Y-53873885D01*
X202130332Y-54028572D01*
X202157556Y-54067452D01*
X202324650Y-54234546D01*
X202374564Y-54269496D01*
X202518216Y-54370083D01*
X202518218Y-54370084D01*
X202518221Y-54370086D01*
X202732388Y-54469954D01*
X202732394Y-54469955D01*
X202732395Y-54469956D01*
X202760774Y-54477560D01*
X202960643Y-54531114D01*
X203196051Y-54551710D01*
X203239098Y-54547943D01*
X203307595Y-54561708D01*
X203357779Y-54610323D01*
X203373714Y-54678351D01*
X203362699Y-54722982D01*
X203304856Y-54849638D01*
X203304854Y-54849646D01*
X203284374Y-54992102D01*
X203304854Y-55134557D01*
X203304855Y-55134561D01*
X203364641Y-55265472D01*
X203364642Y-55265473D01*
X203364643Y-55265475D01*
X203402262Y-55312158D01*
X203402265Y-55312161D01*
X203402270Y-55312167D01*
X203772107Y-55682003D01*
X203805592Y-55743326D01*
X203800608Y-55813017D01*
X203758737Y-55868951D01*
X203693272Y-55893368D01*
X203684426Y-55893684D01*
X195486289Y-55893684D01*
X195419250Y-55873999D01*
X195373495Y-55821195D01*
X195363551Y-55752037D01*
X195366510Y-55737604D01*
X195375500Y-55704057D01*
X195375500Y-55704000D01*
X195375513Y-55703955D01*
X195376561Y-55695997D01*
X195377801Y-55696160D01*
X195395185Y-55636961D01*
X195416153Y-55618791D01*
X195413681Y-55616319D01*
X195450000Y-55580000D01*
X195450000Y-55542694D01*
X195469685Y-55475655D01*
X195499690Y-55443426D01*
X195507546Y-55437546D01*
X195593796Y-55322331D01*
X195644091Y-55187483D01*
X195650500Y-55127873D01*
X195650499Y-54503998D01*
X195670183Y-54436961D01*
X195722987Y-54391206D01*
X195774499Y-54380000D01*
X195826000Y-54380000D01*
X195893039Y-54399685D01*
X195938794Y-54452489D01*
X195950000Y-54504000D01*
X195950000Y-55580000D01*
X195997828Y-55580000D01*
X195997844Y-55579999D01*
X196057372Y-55573598D01*
X196057379Y-55573596D01*
X196192086Y-55523354D01*
X196192093Y-55523350D01*
X196307187Y-55437190D01*
X196307190Y-55437187D01*
X196393350Y-55322093D01*
X196393353Y-55322088D01*
X196411114Y-55274467D01*
X196452985Y-55218532D01*
X196518448Y-55194114D01*
X196551488Y-55196181D01*
X196570000Y-55199863D01*
X196570000Y-54396988D01*
X196579940Y-54414205D01*
X196635795Y-54470060D01*
X196704204Y-54509556D01*
X196780504Y-54530000D01*
X196859496Y-54530000D01*
X196935796Y-54509556D01*
X197004205Y-54470060D01*
X197060060Y-54414205D01*
X197070000Y-54396988D01*
X197070000Y-55199862D01*
X197111690Y-55191569D01*
X197111692Y-55191569D01*
X197293671Y-55116192D01*
X197293684Y-55116185D01*
X197457462Y-55006751D01*
X197457466Y-55006748D01*
X197596748Y-54867466D01*
X197596751Y-54867462D01*
X197706185Y-54703684D01*
X197706192Y-54703671D01*
X197781569Y-54521693D01*
X197781572Y-54521681D01*
X197819999Y-54328495D01*
X197820000Y-54328492D01*
X197820000Y-53930000D01*
X197120000Y-53930000D01*
X197120000Y-53430000D01*
X197820000Y-53430000D01*
X197820000Y-53031508D01*
X197819999Y-53031504D01*
X197781572Y-52838318D01*
X197781569Y-52838306D01*
X197706192Y-52656328D01*
X197706185Y-52656315D01*
X197596751Y-52492537D01*
X197596748Y-52492533D01*
X197457466Y-52353251D01*
X197457462Y-52353248D01*
X197293684Y-52243814D01*
X197293671Y-52243807D01*
X197111691Y-52168429D01*
X197111683Y-52168427D01*
X197070000Y-52160135D01*
X197070000Y-52963011D01*
X197060060Y-52945795D01*
X197004205Y-52889940D01*
X196935796Y-52850444D01*
X196859496Y-52830000D01*
X196780504Y-52830000D01*
X196704204Y-52850444D01*
X196635795Y-52889940D01*
X196579940Y-52945795D01*
X196570000Y-52963011D01*
X196570000Y-52160136D01*
X196569999Y-52160135D01*
X196528316Y-52168427D01*
X196528308Y-52168429D01*
X196346328Y-52243807D01*
X196346315Y-52243814D01*
X196182537Y-52353248D01*
X196182533Y-52353251D01*
X196043251Y-52492533D01*
X196043248Y-52492537D01*
X195933814Y-52656315D01*
X195933809Y-52656324D01*
X195929866Y-52665845D01*
X195886023Y-52720247D01*
X195819728Y-52742310D01*
X195752030Y-52725029D01*
X195746597Y-52721351D01*
X195612136Y-52643719D01*
X195538950Y-52624109D01*
X195465766Y-52604500D01*
X195314234Y-52604500D01*
X195167863Y-52643719D01*
X195036635Y-52719485D01*
X195036632Y-52719487D01*
X194929487Y-52826632D01*
X194929485Y-52826635D01*
X194853719Y-52957863D01*
X194818959Y-53087593D01*
X194782594Y-53147254D01*
X194719747Y-53177783D01*
X194699185Y-53179500D01*
X194602130Y-53179500D01*
X194602123Y-53179501D01*
X194542518Y-53185908D01*
X194541015Y-53186264D01*
X194539213Y-53186264D01*
X194534804Y-53186738D01*
X194534753Y-53186264D01*
X194490246Y-53186264D01*
X194490195Y-53186738D01*
X194485786Y-53186264D01*
X194483987Y-53186264D01*
X194482484Y-53185909D01*
X194422883Y-53179501D01*
X194422881Y-53179500D01*
X194422873Y-53179500D01*
X194422865Y-53179500D01*
X194393853Y-53179500D01*
X194326814Y-53159815D01*
X194286465Y-53117499D01*
X194281891Y-53109577D01*
X194230520Y-53020598D01*
X194118716Y-52908794D01*
X194118715Y-52908793D01*
X194114385Y-52904463D01*
X194114374Y-52904453D01*
X193222102Y-52012181D01*
X193188617Y-51950858D01*
X193193601Y-51881166D01*
X193235473Y-51825233D01*
X193300937Y-51800816D01*
X193309783Y-51800500D01*
X198534217Y-51800500D01*
X198601256Y-51820185D01*
G37*
%TD.AperFunction*%
%TA.AperFunction,Conductor*%
G36*
X208743039Y-54407185D02*
G01*
X208788794Y-54459989D01*
X208800000Y-54511500D01*
X208800000Y-55587500D01*
X208836319Y-55623819D01*
X208833979Y-55626158D01*
X208863294Y-55659989D01*
X208874500Y-55711500D01*
X208874500Y-55769684D01*
X208854815Y-55836723D01*
X208802011Y-55882478D01*
X208750500Y-55893684D01*
X206299777Y-55893684D01*
X206232738Y-55873999D01*
X206186983Y-55821195D01*
X206177039Y-55752037D01*
X206206064Y-55688481D01*
X206212096Y-55682003D01*
X206456911Y-55437187D01*
X206581940Y-55312158D01*
X206619561Y-55265475D01*
X206679349Y-55134559D01*
X206699830Y-54992102D01*
X206699022Y-54986482D01*
X206708966Y-54917326D01*
X206754720Y-54864522D01*
X206821760Y-54844837D01*
X206888799Y-54864521D01*
X206909441Y-54881156D01*
X207042533Y-55014248D01*
X207042537Y-55014251D01*
X207206315Y-55123685D01*
X207206328Y-55123692D01*
X207388308Y-55199069D01*
X207430000Y-55207362D01*
X207430000Y-54404488D01*
X207439940Y-54421705D01*
X207495795Y-54477560D01*
X207564204Y-54517056D01*
X207640504Y-54537500D01*
X207719496Y-54537500D01*
X207795796Y-54517056D01*
X207864205Y-54477560D01*
X207920060Y-54421705D01*
X207930000Y-54404488D01*
X207930000Y-55207362D01*
X207948511Y-55203681D01*
X208018102Y-55209908D01*
X208073280Y-55252771D01*
X208088884Y-55281965D01*
X208106645Y-55329586D01*
X208106649Y-55329593D01*
X208192809Y-55444687D01*
X208192812Y-55444690D01*
X208307906Y-55530850D01*
X208307913Y-55530854D01*
X208442620Y-55581096D01*
X208442627Y-55581098D01*
X208502155Y-55587499D01*
X208502172Y-55587500D01*
X208550000Y-55587500D01*
X208550000Y-54511500D01*
X208569685Y-54444461D01*
X208622489Y-54398706D01*
X208674000Y-54387500D01*
X208676000Y-54387500D01*
X208743039Y-54407185D01*
G37*
%TD.AperFunction*%
%TA.AperFunction,Conductor*%
G36*
X206682425Y-52666236D02*
G01*
X206728180Y-52719040D01*
X206738124Y-52788198D01*
X206729947Y-52818003D01*
X206718430Y-52845806D01*
X206718427Y-52845818D01*
X206680000Y-53039004D01*
X206680000Y-53437500D01*
X207380000Y-53437500D01*
X207380000Y-53937500D01*
X206680000Y-53937500D01*
X206680000Y-54335989D01*
X206708043Y-54476977D01*
X206701814Y-54546568D01*
X206658951Y-54601745D01*
X206593061Y-54624989D01*
X206525064Y-54608921D01*
X206498744Y-54588848D01*
X205312161Y-53402267D01*
X205312155Y-53402262D01*
X205311998Y-53402135D01*
X205265475Y-53364642D01*
X205134561Y-53304855D01*
X205134557Y-53304854D01*
X204992102Y-53284374D01*
X204849646Y-53304854D01*
X204849638Y-53304856D01*
X204722982Y-53362699D01*
X204653824Y-53372643D01*
X204590268Y-53343618D01*
X204552494Y-53284840D01*
X204547943Y-53239100D01*
X204551710Y-53196051D01*
X204531114Y-52960643D01*
X204488779Y-52802644D01*
X204490442Y-52732794D01*
X204529605Y-52674932D01*
X204593833Y-52647428D01*
X204608554Y-52646551D01*
X206615386Y-52646551D01*
X206682425Y-52666236D01*
G37*
%TD.AperFunction*%
%TD*%
M02*
