%TF.GenerationSoftware,KiCad,Pcbnew,8.0.8*%
%TF.CreationDate,2025-02-15T15:27:07-06:00*%
%TF.ProjectId,Quark006,51756172-6b30-4303-962e-6b696361645f,rev?*%
%TF.SameCoordinates,Original*%
%TF.FileFunction,Soldermask,Bot*%
%TF.FilePolarity,Negative*%
%FSLAX46Y46*%
G04 Gerber Fmt 4.6, Leading zero omitted, Abs format (unit mm)*
G04 Created by KiCad (PCBNEW 8.0.8) date 2025-02-15 15:27:07*
%MOMM*%
%LPD*%
G01*
G04 APERTURE LIST*
G04 Aperture macros list*
%AMHorizOval*
0 Thick line with rounded ends*
0 $1 width*
0 $2 $3 position (X,Y) of the first rounded end (center of the circle)*
0 $4 $5 position (X,Y) of the second rounded end (center of the circle)*
0 Add line between two ends*
20,1,$1,$2,$3,$4,$5,0*
0 Add two circle primitives to create the rounded ends*
1,1,$1,$2,$3*
1,1,$1,$4,$5*%
%AMRotRect*
0 Rectangle, with rotation*
0 The origin of the aperture is its center*
0 $1 length*
0 $2 width*
0 $3 Rotation angle, in degrees counterclockwise*
0 Add horizontal line*
21,1,$1,$2,0,0,$3*%
%AMFreePoly0*
4,1,19,0.499999,-0.750000,0.000000,-0.750000,0.000000,-0.744912,-0.071157,-0.744911,-0.207708,-0.704816,-0.327430,-0.627875,-0.420627,-0.520320,-0.479746,-0.390866,-0.500000,-0.250000,-0.500000,0.250000,-0.479746,0.390866,-0.420627,0.520320,-0.327430,0.627875,-0.207708,0.704816,-0.071157,0.744911,0.000000,0.744912,0.000000,0.750000,0.499999,0.750000,0.499999,-0.750000,0.499999,-0.750000,
$1*%
%AMFreePoly1*
4,1,19,0.000000,0.744912,0.071157,0.744911,0.207708,0.704816,0.327430,0.627875,0.420627,0.520320,0.479746,0.390866,0.500000,0.250000,0.500000,-0.250000,0.479746,-0.390866,0.420627,-0.520320,0.327430,-0.627875,0.207708,-0.704816,0.071157,-0.744911,0.000000,-0.744912,0.000000,-0.750000,-0.499999,-0.750000,-0.499999,0.750000,0.000000,0.750000,0.000000,0.744912,0.000000,0.744912,
$1*%
G04 Aperture macros list end*
%ADD10FreePoly0,315.000000*%
%ADD11FreePoly1,315.000000*%
%ADD12RotRect,1.700000X1.700000X225.000000*%
%ADD13HorizOval,1.700000X0.000000X0.000000X0.000000X0.000000X0*%
%ADD14R,0.850000X0.850000*%
%ADD15O,0.850000X0.850000*%
%ADD16C,0.650000*%
%ADD17O,1.000000X2.100000*%
%ADD18O,1.000000X1.800000*%
%ADD19R,1.700000X1.700000*%
%ADD20C,1.700000*%
%ADD21O,1.700000X1.700000*%
G04 APERTURE END LIST*
D10*
%TO.C,JP1*%
X204140381Y-49940381D03*
D11*
X205059619Y-50859619D03*
%TD*%
D12*
%TO.C,J12*%
X204992102Y-54992102D03*
D13*
X203196051Y-53196051D03*
X201400000Y-51400000D03*
X199603948Y-49603948D03*
%TD*%
D14*
%TO.C,J10*%
X184200000Y-68000000D03*
D15*
X184200000Y-67000000D03*
X184200000Y-66000000D03*
X184200000Y-65000000D03*
X184200000Y-64000000D03*
X184200000Y-63000000D03*
X184200000Y-62000000D03*
X184200000Y-61000000D03*
%TD*%
D16*
%TO.C,J2*%
X214890000Y-53187500D03*
X209110000Y-53187500D03*
D17*
X216320000Y-53687500D03*
D18*
X216320000Y-49537500D03*
D17*
X207680000Y-53687500D03*
D18*
X207680000Y-49537500D03*
%TD*%
D19*
%TO.C,J8*%
X221210000Y-67510000D03*
%TD*%
D20*
%TO.C,J5*%
X228835000Y-67510000D03*
D21*
X226295000Y-67510000D03*
%TD*%
D20*
%TO.C,J3*%
X223750000Y-59910000D03*
D21*
X226290000Y-59910000D03*
X228830000Y-59910000D03*
X231370000Y-59910000D03*
X233910000Y-59910000D03*
X236450000Y-59910000D03*
%TD*%
D16*
%TO.C,J1*%
X195390000Y-53180000D03*
X189610000Y-53180000D03*
D17*
X196820000Y-53680000D03*
D18*
X196820000Y-49530000D03*
D17*
X188180000Y-53680000D03*
D18*
X188180000Y-49530000D03*
%TD*%
D20*
%TO.C,J4*%
X233915000Y-67510000D03*
D21*
X231375000Y-67510000D03*
%TD*%
D19*
%TO.C,J9*%
X221210000Y-59910000D03*
%TD*%
D20*
%TO.C,J6*%
X223750000Y-67510000D03*
%TD*%
%TO.C,J7*%
X236455000Y-67510000D03*
%TD*%
M02*
