%TF.GenerationSoftware,KiCad,Pcbnew,8.0.8*%
%TF.CreationDate,2025-02-15T15:27:06-06:00*%
%TF.ProjectId,Quark006,51756172-6b30-4303-962e-6b696361645f,rev?*%
%TF.SameCoordinates,Original*%
%TF.FileFunction,Copper,L2,Bot*%
%TF.FilePolarity,Positive*%
%FSLAX46Y46*%
G04 Gerber Fmt 4.6, Leading zero omitted, Abs format (unit mm)*
G04 Created by KiCad (PCBNEW 8.0.8) date 2025-02-15 15:27:06*
%MOMM*%
%LPD*%
G01*
G04 APERTURE LIST*
G04 Aperture macros list*
%AMHorizOval*
0 Thick line with rounded ends*
0 $1 width*
0 $2 $3 position (X,Y) of the first rounded end (center of the circle)*
0 $4 $5 position (X,Y) of the second rounded end (center of the circle)*
0 Add line between two ends*
20,1,$1,$2,$3,$4,$5,0*
0 Add two circle primitives to create the rounded ends*
1,1,$1,$2,$3*
1,1,$1,$4,$5*%
%AMRotRect*
0 Rectangle, with rotation*
0 The origin of the aperture is its center*
0 $1 length*
0 $2 width*
0 $3 Rotation angle, in degrees counterclockwise*
0 Add horizontal line*
21,1,$1,$2,0,0,$3*%
%AMFreePoly0*
4,1,19,0.499999,-0.750000,0.000000,-0.750000,0.000000,-0.744912,-0.071157,-0.744911,-0.207708,-0.704816,-0.327430,-0.627875,-0.420627,-0.520320,-0.479746,-0.390866,-0.500000,-0.250000,-0.500000,0.250000,-0.479746,0.390866,-0.420627,0.520320,-0.327430,0.627875,-0.207708,0.704816,-0.071157,0.744911,0.000000,0.744912,0.000000,0.750000,0.499999,0.750000,0.499999,-0.750000,0.499999,-0.750000,
$1*%
%AMFreePoly1*
4,1,19,0.000000,0.744912,0.071157,0.744911,0.207708,0.704816,0.327430,0.627875,0.420627,0.520320,0.479746,0.390866,0.500000,0.250000,0.500000,-0.250000,0.479746,-0.390866,0.420627,-0.520320,0.327430,-0.627875,0.207708,-0.704816,0.071157,-0.744911,0.000000,-0.744912,0.000000,-0.750000,-0.499999,-0.750000,-0.499999,0.750000,0.000000,0.750000,0.000000,0.744912,0.000000,0.744912,
$1*%
G04 Aperture macros list end*
%TA.AperFunction,EtchedComponent*%
%ADD10C,0.000000*%
%TD*%
%TA.AperFunction,SMDPad,CuDef*%
%ADD11FreePoly0,315.000000*%
%TD*%
%TA.AperFunction,SMDPad,CuDef*%
%ADD12FreePoly1,315.000000*%
%TD*%
%TA.AperFunction,ComponentPad*%
%ADD13RotRect,1.700000X1.700000X225.000000*%
%TD*%
%TA.AperFunction,ComponentPad*%
%ADD14HorizOval,1.700000X0.000000X0.000000X0.000000X0.000000X0*%
%TD*%
%TA.AperFunction,ComponentPad*%
%ADD15R,0.850000X0.850000*%
%TD*%
%TA.AperFunction,ComponentPad*%
%ADD16O,0.850000X0.850000*%
%TD*%
%TA.AperFunction,ComponentPad*%
%ADD17O,1.000000X2.100000*%
%TD*%
%TA.AperFunction,ComponentPad*%
%ADD18O,1.000000X1.800000*%
%TD*%
%TA.AperFunction,ComponentPad*%
%ADD19R,1.700000X1.700000*%
%TD*%
%TA.AperFunction,ComponentPad*%
%ADD20C,1.700000*%
%TD*%
%TA.AperFunction,ComponentPad*%
%ADD21O,1.700000X1.700000*%
%TD*%
%TA.AperFunction,ViaPad*%
%ADD22C,0.600000*%
%TD*%
%TA.AperFunction,Conductor*%
%ADD23C,0.200000*%
%TD*%
G04 APERTURE END LIST*
D10*
%TA.AperFunction,EtchedComponent*%
%TO.C,JP1*%
G36*
X204988909Y-50364645D02*
G01*
X204564645Y-50788909D01*
X204211091Y-50435355D01*
X204635355Y-50011091D01*
X204988909Y-50364645D01*
G37*
%TD.AperFunction*%
%TD*%
D11*
%TO.P,JP1,1,A*%
%TO.N,SWIOa*%
X204140381Y-49940381D03*
D12*
%TO.P,JP1,2,B*%
%TO.N,SWIO*%
X205059619Y-50859619D03*
%TD*%
D13*
%TO.P,J12,1,Pin_1*%
%TO.N,VCC*%
X204992102Y-54992102D03*
D14*
%TO.P,J12,2,Pin_2*%
%TO.N,SWIO*%
X203196051Y-53196051D03*
%TO.P,J12,3,Pin_3*%
%TO.N,SWIOa*%
X201400000Y-51400000D03*
%TO.P,J12,4,Pin_4*%
%TO.N,VSS*%
X199603948Y-49603948D03*
%TD*%
D15*
%TO.P,J10,1,Pin_1*%
%TO.N,Net-(J10-Pin_1)*%
X184200000Y-68000000D03*
D16*
%TO.P,J10,2,Pin_2*%
%TO.N,Net-(J10-Pin_2)*%
X184200000Y-67000000D03*
%TO.P,J10,3,Pin_3*%
%TO.N,Net-(J10-Pin_3)*%
X184200000Y-66000000D03*
%TO.P,J10,4,Pin_4*%
%TO.N,Net-(J10-Pin_4)*%
X184200000Y-65000000D03*
%TO.P,J10,5,Pin_5*%
%TO.N,Net-(J10-Pin_5)*%
X184200000Y-64000000D03*
%TO.P,J10,6,Pin_6*%
%TO.N,Net-(J10-Pin_6)*%
X184200000Y-63000000D03*
%TO.P,J10,7,Pin_7*%
%TO.N,Net-(J10-Pin_7)*%
X184200000Y-62000000D03*
%TO.P,J10,8,Pin_8*%
%TO.N,Net-(J10-Pin_8)*%
X184200000Y-61000000D03*
%TD*%
D17*
%TO.P,J2,S1,SHIELD*%
%TO.N,VSS*%
X216320000Y-53687500D03*
D18*
X216320000Y-49537500D03*
D17*
X207680000Y-53687500D03*
D18*
X207680000Y-49537500D03*
%TD*%
D19*
%TO.P,J8,1,Pin_1*%
%TO.N,VCC*%
X221210000Y-67510000D03*
%TD*%
D20*
%TO.P,J5,1,Pin_1*%
%TO.N,Net-(J5-Pin_1)*%
X228835000Y-67510000D03*
D21*
%TO.P,J5,2,Pin_2*%
%TO.N,Net-(J5-Pin_2)*%
X226295000Y-67510000D03*
%TD*%
D20*
%TO.P,J3,1,Pin_1*%
%TO.N,Net-(J3-Pin_1)*%
X223750000Y-59910000D03*
D21*
%TO.P,J3,2,Pin_2*%
%TO.N,Net-(J3-Pin_2)*%
X226290000Y-59910000D03*
%TO.P,J3,3,Pin_3*%
%TO.N,Net-(J3-Pin_3)*%
X228830000Y-59910000D03*
%TO.P,J3,4,Pin_4*%
%TO.N,Net-(J3-Pin_4)*%
X231370000Y-59910000D03*
%TO.P,J3,5,Pin_5*%
%TO.N,Net-(J3-Pin_5)*%
X233910000Y-59910000D03*
%TO.P,J3,6,Pin_6*%
%TO.N,Net-(J3-Pin_6)*%
X236450000Y-59910000D03*
%TD*%
D17*
%TO.P,J1,S1,SHIELD*%
%TO.N,VSS*%
X196820000Y-53680000D03*
D18*
X196820000Y-49530000D03*
D17*
X188180000Y-53680000D03*
D18*
X188180000Y-49530000D03*
%TD*%
D20*
%TO.P,J4,1,Pin_1*%
%TO.N,Net-(J4-Pin_1)*%
X233915000Y-67510000D03*
D21*
%TO.P,J4,2,Pin_2*%
%TO.N,Net-(J4-Pin_2)*%
X231375000Y-67510000D03*
%TD*%
D19*
%TO.P,J9,1,Pin_1*%
%TO.N,VSS*%
X221210000Y-59910000D03*
%TD*%
D20*
%TO.P,J6,1,Pin_1*%
%TO.N,Net-(J6-Pin_1)*%
X223750000Y-67510000D03*
%TD*%
%TO.P,J7,1,Pin_1*%
%TO.N,Net-(J7-Pin_1)*%
X236455000Y-67510000D03*
%TD*%
D22*
%TO.N,VSS*%
X215600000Y-65200000D03*
X213400000Y-65400000D03*
X203200000Y-68200000D03*
X210000000Y-76200000D03*
X210800000Y-69600000D03*
X212600000Y-72400000D03*
X206200000Y-76000000D03*
X216600000Y-72200000D03*
X214400000Y-60600000D03*
X218400000Y-60200000D03*
%TO.N,VCC*%
X214840000Y-70690000D03*
X211750000Y-66010000D03*
X209450000Y-63079998D03*
X214260000Y-73600000D03*
%TO.N,+5V*%
X190800000Y-55800000D03*
X214400000Y-56400000D03*
X209800000Y-56400000D03*
X211800000Y-67200000D03*
X194400000Y-56000000D03*
%TO.N,D2+*%
X212700000Y-55830000D03*
X211150000Y-55580000D03*
%TO.N,Net-(J4-Pin_1)*%
X214800000Y-61320000D03*
%TO.N,Net-(J4-Pin_2)*%
X214006612Y-62555693D03*
%TO.N,Net-(J5-Pin_2)*%
X215004647Y-65806679D03*
%TO.N,Net-(J5-Pin_1)*%
X215000000Y-62570000D03*
%TO.N,Net-(J6-Pin_1)*%
X216651662Y-65986816D03*
%TO.N,LED*%
X215329143Y-67104327D03*
X206190000Y-61880000D03*
%TO.N,Net-(U1-EN)*%
X189570000Y-73680000D03*
X187370000Y-71260000D03*
%TO.N,SWIO*%
X201950000Y-63540000D03*
%TO.N,SWIOa*%
X212390000Y-59870000D03*
%TO.N,Net-(J7-Pin_1)*%
X218140000Y-59060000D03*
%TD*%
D23*
%TO.N,SWIO*%
X203196051Y-53196051D02*
X203196051Y-62048949D01*
X203196051Y-62048949D02*
X201950000Y-63295000D01*
X201950000Y-63295000D02*
X201950000Y-63540000D01*
%TO.N,SWIOa*%
X201400000Y-51400000D02*
X201400000Y-51200000D01*
X201400000Y-51200000D02*
X202659619Y-49940381D01*
X202659619Y-49940381D02*
X204140381Y-49940381D01*
%TO.N,SWIO*%
X203196051Y-53196051D02*
X204003949Y-53196051D01*
X204003949Y-53196051D02*
X205059619Y-52140381D01*
X205059619Y-52140381D02*
X205059619Y-50859619D01*
%TO.N,SWIOa*%
X204140381Y-49940381D02*
X204880762Y-49200000D01*
X206800000Y-54488871D02*
X212181129Y-59870000D01*
X204880762Y-49200000D02*
X205800000Y-49200000D01*
X205800000Y-49200000D02*
X206800000Y-50200000D01*
X206800000Y-50200000D02*
X206800000Y-54488871D01*
X212181129Y-59870000D02*
X212390000Y-59870000D01*
%TO.N,VCC*%
X204992102Y-54992102D02*
X204992102Y-58622100D01*
X204992102Y-58622100D02*
X209450000Y-63079998D01*
%TO.N,VSS*%
X216320000Y-57720000D02*
X216320000Y-53687500D01*
X216600000Y-58400000D02*
X216600000Y-58000000D01*
X216600000Y-58000000D02*
X216320000Y-57720000D01*
X213400000Y-61600000D02*
X214400000Y-60600000D01*
X214400000Y-60600000D02*
X218000000Y-60600000D01*
X213400000Y-65400000D02*
X213400000Y-61600000D01*
X213600000Y-65200000D02*
X215600000Y-65200000D01*
X213400000Y-65400000D02*
X213600000Y-65200000D01*
X218000000Y-60600000D02*
X218400000Y-60200000D01*
X218400000Y-60200000D02*
X216600000Y-58400000D01*
%TO.N,VCC*%
X209450000Y-63500000D02*
X211750000Y-65800000D01*
X211750000Y-65800000D02*
X211750000Y-66010000D01*
X209450000Y-63079998D02*
X209450000Y-63500000D01*
X214260000Y-71270000D02*
X214840000Y-70690000D01*
X214260000Y-73600000D02*
X214260000Y-71270000D01*
%TO.N,+5V*%
X210400000Y-56400000D02*
X210600000Y-56600000D01*
X191000000Y-56000000D02*
X194400000Y-56000000D01*
X212400000Y-61400000D02*
X212400000Y-66600000D01*
X190800000Y-55800000D02*
X191000000Y-56000000D01*
X212400000Y-66600000D02*
X211800000Y-67200000D01*
X214400000Y-56400000D02*
X214400000Y-59400000D01*
X209800000Y-56400000D02*
X210400000Y-56400000D01*
X214200000Y-56600000D02*
X214400000Y-56400000D01*
X214400000Y-59400000D02*
X212400000Y-61400000D01*
X210600000Y-56600000D02*
X214200000Y-56600000D01*
%TO.N,D2+*%
X211400000Y-55830000D02*
X211150000Y-55580000D01*
X212700000Y-55830000D02*
X211400000Y-55830000D01*
%TO.N,Net-(J4-Pin_1)*%
X214800000Y-61320000D02*
X214940000Y-61460000D01*
X214940000Y-61460000D02*
X227865000Y-61460000D01*
X227865000Y-61460000D02*
X233915000Y-67510000D01*
%TO.N,Net-(J4-Pin_2)*%
X231375000Y-67510000D02*
X225785000Y-61920000D01*
X214642305Y-61920000D02*
X214006612Y-62555693D01*
X225785000Y-61920000D02*
X214642305Y-61920000D01*
%TO.N,Net-(J5-Pin_2)*%
X215061326Y-65750000D02*
X215004647Y-65806679D01*
X215330761Y-65850000D02*
X215230761Y-65750000D01*
X223765000Y-64980000D02*
X216739239Y-64980000D01*
X215869239Y-65850000D02*
X215330761Y-65850000D01*
X215230761Y-65750000D02*
X215061326Y-65750000D01*
X226295000Y-67510000D02*
X223765000Y-64980000D01*
X216739239Y-64980000D02*
X215869239Y-65850000D01*
%TO.N,Net-(J5-Pin_1)*%
X228835000Y-67510000D02*
X228835000Y-66460000D01*
X228835000Y-66460000D02*
X224945000Y-62570000D01*
X224945000Y-62570000D02*
X215000000Y-62570000D01*
%TO.N,Net-(J6-Pin_1)*%
X223750000Y-67510000D02*
X222226816Y-65986816D01*
X222226816Y-65986816D02*
X216651662Y-65986816D01*
%TO.N,LED*%
X211530761Y-67850000D02*
X214583470Y-67850000D01*
X206190000Y-61880000D02*
X206190000Y-62509239D01*
X206190000Y-62509239D02*
X211530761Y-67850000D01*
X214583470Y-67850000D02*
X215329143Y-67104327D01*
%TO.N,Net-(U1-EN)*%
X187370000Y-71480000D02*
X187370000Y-71260000D01*
X189570000Y-73680000D02*
X187370000Y-71480000D01*
%TO.N,Net-(J7-Pin_1)*%
X220060000Y-61060000D02*
X220060000Y-60860000D01*
X230005000Y-61060000D02*
X220060000Y-61060000D01*
X220060000Y-60860000D02*
X218260000Y-59060000D01*
X236455000Y-67510000D02*
X230005000Y-61060000D01*
X218260000Y-59060000D02*
X218140000Y-59060000D01*
%TD*%
%TA.AperFunction,Conductor*%
%TO.N,VSS*%
G36*
X215912791Y-47521821D02*
G01*
X215974933Y-47521820D01*
X215982419Y-47522045D01*
X216272482Y-47539589D01*
X216287340Y-47541393D01*
X216569475Y-47593095D01*
X216584008Y-47596677D01*
X216754495Y-47649802D01*
X216857859Y-47682011D01*
X216871860Y-47687321D01*
X217133422Y-47805039D01*
X217146680Y-47811997D01*
X217392150Y-47960389D01*
X217404461Y-47968887D01*
X217630259Y-48145788D01*
X217641467Y-48155718D01*
X217844281Y-48358532D01*
X217854211Y-48369740D01*
X218031108Y-48595532D01*
X218039612Y-48607852D01*
X218088841Y-48689287D01*
X218188001Y-48853318D01*
X218194960Y-48866577D01*
X218312678Y-49128139D01*
X218317988Y-49142140D01*
X218403321Y-49415988D01*
X218406904Y-49430527D01*
X218458605Y-49712655D01*
X218460410Y-49727520D01*
X218477953Y-50017569D01*
X218478179Y-50025055D01*
X218478179Y-50093527D01*
X218478379Y-50096521D01*
X218499500Y-58000614D01*
X218499500Y-58065914D01*
X218499573Y-58066457D01*
X218499617Y-58066784D01*
X218499673Y-58067209D01*
X218516619Y-58129785D01*
X218516706Y-58130110D01*
X218519142Y-58139203D01*
X218517476Y-58209053D01*
X218478311Y-58266914D01*
X218414081Y-58294415D01*
X218358412Y-58288333D01*
X218319257Y-58274632D01*
X218319249Y-58274630D01*
X218140004Y-58254435D01*
X218139996Y-58254435D01*
X217960750Y-58274630D01*
X217960745Y-58274631D01*
X217790476Y-58334211D01*
X217637737Y-58430184D01*
X217510184Y-58557737D01*
X217414211Y-58710476D01*
X217354631Y-58880745D01*
X217354630Y-58880750D01*
X217334435Y-59059996D01*
X217334435Y-59060003D01*
X217354630Y-59239249D01*
X217354631Y-59239254D01*
X217414211Y-59409523D01*
X217477283Y-59509901D01*
X217510184Y-59562262D01*
X217637738Y-59689816D01*
X217681012Y-59717007D01*
X217763306Y-59768716D01*
X217790478Y-59785789D01*
X217886233Y-59819295D01*
X217960745Y-59845368D01*
X217960750Y-59845369D01*
X218139997Y-59865565D01*
X218140000Y-59865565D01*
X218140001Y-59865565D01*
X218141808Y-59865361D01*
X218149253Y-59864522D01*
X218218075Y-59876572D01*
X218250825Y-59900060D01*
X218998584Y-60647819D01*
X219032069Y-60709142D01*
X219027085Y-60778834D01*
X218985213Y-60834767D01*
X218919749Y-60859184D01*
X218910903Y-60859500D01*
X215522835Y-60859500D01*
X215455796Y-60839815D01*
X215435714Y-60821687D01*
X215434740Y-60822662D01*
X215302262Y-60690184D01*
X215149523Y-60594211D01*
X214979254Y-60534631D01*
X214979249Y-60534630D01*
X214800004Y-60514435D01*
X214799996Y-60514435D01*
X214620750Y-60534630D01*
X214620745Y-60534631D01*
X214450476Y-60594211D01*
X214318294Y-60677267D01*
X214251057Y-60696267D01*
X214184222Y-60675899D01*
X214139008Y-60622631D01*
X214129771Y-60553375D01*
X214159442Y-60490118D01*
X214164619Y-60484614D01*
X214758506Y-59890727D01*
X214758511Y-59890724D01*
X214768714Y-59880520D01*
X214768716Y-59880520D01*
X214880520Y-59768716D01*
X214955864Y-59638216D01*
X214959577Y-59631785D01*
X215000500Y-59479057D01*
X215000500Y-59320943D01*
X215000500Y-56982412D01*
X215020185Y-56915373D01*
X215027555Y-56905097D01*
X215029810Y-56902267D01*
X215029816Y-56902262D01*
X215125789Y-56749522D01*
X215185368Y-56579255D01*
X215191392Y-56525789D01*
X215205565Y-56400003D01*
X215205565Y-56399996D01*
X215185369Y-56220750D01*
X215185368Y-56220745D01*
X215125788Y-56050476D01*
X215073065Y-55966569D01*
X215029816Y-55897738D01*
X214902262Y-55770184D01*
X214800824Y-55706446D01*
X214749523Y-55674211D01*
X214579254Y-55614631D01*
X214579249Y-55614630D01*
X214400004Y-55594435D01*
X214399996Y-55594435D01*
X214220750Y-55614630D01*
X214220745Y-55614631D01*
X214050476Y-55674211D01*
X213897737Y-55770184D01*
X213770182Y-55897739D01*
X213742703Y-55941473D01*
X213690369Y-55987763D01*
X213637710Y-55999500D01*
X213625223Y-55999500D01*
X213558184Y-55979815D01*
X213512429Y-55927011D01*
X213502003Y-55861616D01*
X213505565Y-55830002D01*
X213505565Y-55829996D01*
X213485369Y-55650750D01*
X213485368Y-55650745D01*
X213474872Y-55620750D01*
X213425789Y-55480478D01*
X213406937Y-55450476D01*
X213386582Y-55418080D01*
X213329816Y-55327738D01*
X213202262Y-55200184D01*
X213201750Y-55199862D01*
X213049523Y-55104211D01*
X212879254Y-55044631D01*
X212879249Y-55044630D01*
X212700004Y-55024435D01*
X212699996Y-55024435D01*
X212520750Y-55044630D01*
X212520745Y-55044631D01*
X212350476Y-55104211D01*
X212197736Y-55200185D01*
X212194903Y-55202445D01*
X212192724Y-55203334D01*
X212191842Y-55203889D01*
X212191744Y-55203734D01*
X212130217Y-55228855D01*
X212117588Y-55229500D01*
X211943707Y-55229500D01*
X211876668Y-55209815D01*
X211838713Y-55171472D01*
X211779815Y-55077737D01*
X211652262Y-54950184D01*
X211499523Y-54854211D01*
X211329254Y-54794631D01*
X211329249Y-54794630D01*
X211150004Y-54774435D01*
X211149996Y-54774435D01*
X210970750Y-54794630D01*
X210970745Y-54794631D01*
X210800476Y-54854211D01*
X210647737Y-54950184D01*
X210520184Y-55077737D01*
X210424211Y-55230476D01*
X210364631Y-55400745D01*
X210364630Y-55400750D01*
X210343730Y-55586251D01*
X210316664Y-55650665D01*
X210259069Y-55690221D01*
X210189232Y-55692358D01*
X210154541Y-55677364D01*
X210149523Y-55674211D01*
X209979254Y-55614631D01*
X209979249Y-55614630D01*
X209800004Y-55594435D01*
X209799996Y-55594435D01*
X209620750Y-55614630D01*
X209620745Y-55614631D01*
X209450476Y-55674211D01*
X209297739Y-55770183D01*
X209201824Y-55866098D01*
X209140500Y-55899582D01*
X209070809Y-55894598D01*
X209026462Y-55866097D01*
X208333721Y-55173356D01*
X208300236Y-55112033D01*
X208305220Y-55042341D01*
X208333721Y-54997994D01*
X208456748Y-54874966D01*
X208456751Y-54874962D01*
X208566185Y-54711184D01*
X208566192Y-54711171D01*
X208641569Y-54529193D01*
X208641572Y-54529181D01*
X208679999Y-54335995D01*
X208680000Y-54335992D01*
X208680000Y-53937500D01*
X207980000Y-53937500D01*
X207980000Y-53437500D01*
X208518216Y-53437500D01*
X208585255Y-53457185D01*
X208625602Y-53499499D01*
X208649485Y-53540865D01*
X208756635Y-53648015D01*
X208887865Y-53723781D01*
X209034234Y-53763000D01*
X209034236Y-53763000D01*
X209185764Y-53763000D01*
X209185766Y-53763000D01*
X209332135Y-53723781D01*
X209463365Y-53648015D01*
X209570515Y-53540865D01*
X209646281Y-53409635D01*
X209685500Y-53263266D01*
X209685500Y-53111734D01*
X214314500Y-53111734D01*
X214314500Y-53263265D01*
X214353719Y-53409636D01*
X214366316Y-53431454D01*
X214429485Y-53540865D01*
X214536635Y-53648015D01*
X214667865Y-53723781D01*
X214814234Y-53763000D01*
X214814236Y-53763000D01*
X214965764Y-53763000D01*
X214965766Y-53763000D01*
X215112135Y-53723781D01*
X215243365Y-53648015D01*
X215350515Y-53540865D01*
X215374397Y-53499499D01*
X215424964Y-53451284D01*
X215481784Y-53437500D01*
X216020000Y-53437500D01*
X216020000Y-53937500D01*
X215320000Y-53937500D01*
X215320000Y-54335995D01*
X215358427Y-54529181D01*
X215358430Y-54529193D01*
X215433807Y-54711171D01*
X215433814Y-54711184D01*
X215543248Y-54874962D01*
X215543251Y-54874966D01*
X215682533Y-55014248D01*
X215682537Y-55014251D01*
X215846315Y-55123685D01*
X215846328Y-55123692D01*
X216028308Y-55199069D01*
X216070000Y-55207362D01*
X216070000Y-54404488D01*
X216079940Y-54421705D01*
X216135795Y-54477560D01*
X216204204Y-54517056D01*
X216280504Y-54537500D01*
X216359496Y-54537500D01*
X216435796Y-54517056D01*
X216504205Y-54477560D01*
X216560060Y-54421705D01*
X216570000Y-54404488D01*
X216570000Y-55207362D01*
X216611690Y-55199069D01*
X216611692Y-55199069D01*
X216793671Y-55123692D01*
X216793684Y-55123685D01*
X216957462Y-55014251D01*
X216957466Y-55014248D01*
X217096748Y-54874966D01*
X217096751Y-54874962D01*
X217206185Y-54711184D01*
X217206192Y-54711171D01*
X217281569Y-54529193D01*
X217281572Y-54529181D01*
X217319999Y-54335995D01*
X217320000Y-54335992D01*
X217320000Y-53937500D01*
X216620000Y-53937500D01*
X216620000Y-53437500D01*
X217320000Y-53437500D01*
X217320000Y-53039008D01*
X217319999Y-53039004D01*
X217281572Y-52845818D01*
X217281569Y-52845806D01*
X217206192Y-52663828D01*
X217206185Y-52663815D01*
X217096751Y-52500037D01*
X217096748Y-52500033D01*
X216957466Y-52360751D01*
X216957462Y-52360748D01*
X216793684Y-52251314D01*
X216793671Y-52251307D01*
X216611691Y-52175929D01*
X216611683Y-52175927D01*
X216570000Y-52167635D01*
X216570000Y-52970511D01*
X216560060Y-52953295D01*
X216504205Y-52897440D01*
X216435796Y-52857944D01*
X216359496Y-52837500D01*
X216280504Y-52837500D01*
X216204204Y-52857944D01*
X216135795Y-52897440D01*
X216079940Y-52953295D01*
X216070000Y-52970511D01*
X216070000Y-52167636D01*
X216069999Y-52167635D01*
X216028316Y-52175927D01*
X216028308Y-52175929D01*
X215846328Y-52251307D01*
X215846315Y-52251314D01*
X215682537Y-52360748D01*
X215682533Y-52360751D01*
X215543251Y-52500033D01*
X215543248Y-52500037D01*
X215433814Y-52663815D01*
X215433809Y-52663824D01*
X215429866Y-52673345D01*
X215386023Y-52727747D01*
X215319728Y-52749810D01*
X215252030Y-52732529D01*
X215246597Y-52728851D01*
X215112136Y-52651219D01*
X215038950Y-52631609D01*
X214965766Y-52612000D01*
X214814234Y-52612000D01*
X214667863Y-52651219D01*
X214536635Y-52726985D01*
X214536632Y-52726987D01*
X214429487Y-52834132D01*
X214429485Y-52834135D01*
X214353719Y-52965363D01*
X214314500Y-53111734D01*
X209685500Y-53111734D01*
X209646281Y-52965365D01*
X209570515Y-52834135D01*
X209463365Y-52726985D01*
X209380416Y-52679094D01*
X209332136Y-52651219D01*
X209258950Y-52631609D01*
X209185766Y-52612000D01*
X209034234Y-52612000D01*
X208887863Y-52651219D01*
X208796428Y-52704010D01*
X208756635Y-52726985D01*
X208756633Y-52726986D01*
X208749597Y-52731049D01*
X208748327Y-52728849D01*
X208694995Y-52749460D01*
X208626552Y-52735414D01*
X208576568Y-52686594D01*
X208570131Y-52673338D01*
X208566192Y-52663828D01*
X208566185Y-52663815D01*
X208456751Y-52500037D01*
X208456748Y-52500033D01*
X208317466Y-52360751D01*
X208317462Y-52360748D01*
X208153684Y-52251314D01*
X208153671Y-52251307D01*
X207971691Y-52175929D01*
X207971683Y-52175927D01*
X207930000Y-52167635D01*
X207930000Y-52970511D01*
X207920060Y-52953295D01*
X207864205Y-52897440D01*
X207795796Y-52857944D01*
X207719496Y-52837500D01*
X207640504Y-52837500D01*
X207564204Y-52857944D01*
X207495795Y-52897440D01*
X207439940Y-52953295D01*
X207430000Y-52970511D01*
X207430000Y-52157384D01*
X207406501Y-52122886D01*
X207400500Y-52084778D01*
X207400500Y-50990220D01*
X207420185Y-50923181D01*
X207430000Y-50912155D01*
X207430000Y-50104488D01*
X207439940Y-50121705D01*
X207495795Y-50177560D01*
X207564204Y-50217056D01*
X207640504Y-50237500D01*
X207719496Y-50237500D01*
X207795796Y-50217056D01*
X207864205Y-50177560D01*
X207920060Y-50121705D01*
X207930000Y-50104488D01*
X207930000Y-50907362D01*
X207971690Y-50899069D01*
X207971692Y-50899069D01*
X208153671Y-50823692D01*
X208153684Y-50823685D01*
X208317462Y-50714251D01*
X208317466Y-50714248D01*
X208456748Y-50574966D01*
X208456751Y-50574962D01*
X208566185Y-50411184D01*
X208566192Y-50411171D01*
X208641569Y-50229193D01*
X208641572Y-50229181D01*
X208679999Y-50035995D01*
X208680000Y-50035992D01*
X208680000Y-49787500D01*
X207980000Y-49787500D01*
X207980000Y-49287500D01*
X208680000Y-49287500D01*
X208680000Y-49039008D01*
X208679999Y-49039004D01*
X215320000Y-49039004D01*
X215320000Y-49287500D01*
X216020000Y-49287500D01*
X216020000Y-49787500D01*
X215320000Y-49787500D01*
X215320000Y-50035995D01*
X215358427Y-50229181D01*
X215358430Y-50229193D01*
X215433807Y-50411171D01*
X215433814Y-50411184D01*
X215543248Y-50574962D01*
X215543251Y-50574966D01*
X215682533Y-50714248D01*
X215682537Y-50714251D01*
X215846315Y-50823685D01*
X215846328Y-50823692D01*
X216028308Y-50899069D01*
X216070000Y-50907362D01*
X216070000Y-50104488D01*
X216079940Y-50121705D01*
X216135795Y-50177560D01*
X216204204Y-50217056D01*
X216280504Y-50237500D01*
X216359496Y-50237500D01*
X216435796Y-50217056D01*
X216504205Y-50177560D01*
X216560060Y-50121705D01*
X216570000Y-50104488D01*
X216570000Y-50907362D01*
X216611690Y-50899069D01*
X216611692Y-50899069D01*
X216793671Y-50823692D01*
X216793684Y-50823685D01*
X216957462Y-50714251D01*
X216957466Y-50714248D01*
X217096748Y-50574966D01*
X217096751Y-50574962D01*
X217206185Y-50411184D01*
X217206192Y-50411171D01*
X217281569Y-50229193D01*
X217281572Y-50229181D01*
X217319999Y-50035995D01*
X217320000Y-50035992D01*
X217320000Y-49787500D01*
X216620000Y-49787500D01*
X216620000Y-49287500D01*
X217320000Y-49287500D01*
X217320000Y-49039008D01*
X217319999Y-49039004D01*
X217281572Y-48845818D01*
X217281569Y-48845806D01*
X217206192Y-48663828D01*
X217206185Y-48663815D01*
X217096751Y-48500037D01*
X217096748Y-48500033D01*
X216957466Y-48360751D01*
X216957462Y-48360748D01*
X216793684Y-48251314D01*
X216793671Y-48251307D01*
X216611691Y-48175929D01*
X216611683Y-48175927D01*
X216570000Y-48167635D01*
X216570000Y-48970511D01*
X216560060Y-48953295D01*
X216504205Y-48897440D01*
X216435796Y-48857944D01*
X216359496Y-48837500D01*
X216280504Y-48837500D01*
X216204204Y-48857944D01*
X216135795Y-48897440D01*
X216079940Y-48953295D01*
X216070000Y-48970511D01*
X216070000Y-48167636D01*
X216069999Y-48167635D01*
X216028316Y-48175927D01*
X216028308Y-48175929D01*
X215846328Y-48251307D01*
X215846315Y-48251314D01*
X215682537Y-48360748D01*
X215682533Y-48360751D01*
X215543251Y-48500033D01*
X215543248Y-48500037D01*
X215433814Y-48663815D01*
X215433807Y-48663828D01*
X215358430Y-48845806D01*
X215358427Y-48845818D01*
X215320000Y-49039004D01*
X208679999Y-49039004D01*
X208641572Y-48845818D01*
X208641569Y-48845806D01*
X208566192Y-48663828D01*
X208566185Y-48663815D01*
X208456751Y-48500037D01*
X208456748Y-48500033D01*
X208317466Y-48360751D01*
X208317462Y-48360748D01*
X208153684Y-48251314D01*
X208153671Y-48251307D01*
X207971691Y-48175929D01*
X207971683Y-48175927D01*
X207930000Y-48167635D01*
X207930000Y-48970511D01*
X207920060Y-48953295D01*
X207864205Y-48897440D01*
X207795796Y-48857944D01*
X207719496Y-48837500D01*
X207640504Y-48837500D01*
X207564204Y-48857944D01*
X207495795Y-48897440D01*
X207439940Y-48953295D01*
X207430000Y-48970511D01*
X207430000Y-48167636D01*
X207429999Y-48167635D01*
X207388316Y-48175927D01*
X207388308Y-48175929D01*
X207206328Y-48251307D01*
X207206315Y-48251314D01*
X207042537Y-48360748D01*
X207042533Y-48360751D01*
X206903251Y-48500033D01*
X206903248Y-48500037D01*
X206793814Y-48663815D01*
X206793807Y-48663828D01*
X206718430Y-48845806D01*
X206718427Y-48845818D01*
X206693443Y-48971420D01*
X206661058Y-49033331D01*
X206600342Y-49067906D01*
X206530573Y-49064166D01*
X206484145Y-49034910D01*
X206287590Y-48838355D01*
X206287588Y-48838352D01*
X206168717Y-48719481D01*
X206168716Y-48719480D01*
X206081904Y-48669360D01*
X206081904Y-48669359D01*
X206081900Y-48669358D01*
X206031785Y-48640423D01*
X205879057Y-48599499D01*
X205720943Y-48599499D01*
X205713347Y-48599499D01*
X205713331Y-48599500D01*
X204967431Y-48599500D01*
X204967415Y-48599499D01*
X204959819Y-48599499D01*
X204801705Y-48599499D01*
X204694349Y-48628265D01*
X204648972Y-48640424D01*
X204648971Y-48640425D01*
X204598858Y-48669359D01*
X204598857Y-48669360D01*
X204555451Y-48694420D01*
X204512047Y-48719479D01*
X204505425Y-48726101D01*
X204444100Y-48759583D01*
X204408902Y-48762100D01*
X204317131Y-48755537D01*
X204317129Y-48755537D01*
X204173722Y-48765794D01*
X204173714Y-48765795D01*
X204033135Y-48796377D01*
X204033130Y-48796378D01*
X204033129Y-48796379D01*
X204000562Y-48808525D01*
X203898414Y-48846624D01*
X203898410Y-48846626D01*
X203772138Y-48915576D01*
X203772136Y-48915577D01*
X203772135Y-48915578D01*
X203669503Y-48992407D01*
X203662218Y-48996555D01*
X203617193Y-49041580D01*
X203617188Y-49041582D01*
X203355209Y-49303562D01*
X203293886Y-49337047D01*
X203267528Y-49339881D01*
X202738676Y-49339881D01*
X202580561Y-49339881D01*
X202427834Y-49380804D01*
X202427833Y-49380804D01*
X202427831Y-49380805D01*
X202427828Y-49380806D01*
X202383914Y-49406161D01*
X202383912Y-49406162D01*
X202290909Y-49459856D01*
X202290901Y-49459862D01*
X202179097Y-49571667D01*
X201722657Y-50028106D01*
X201661334Y-50061591D01*
X201624169Y-50063953D01*
X201400002Y-50044341D01*
X201399999Y-50044341D01*
X201164596Y-50064936D01*
X201164583Y-50064939D01*
X201063340Y-50092066D01*
X200993490Y-50090403D01*
X200935628Y-50051240D01*
X200908125Y-49987011D01*
X200911473Y-49940197D01*
X200938516Y-49839270D01*
X200938517Y-49839263D01*
X200959105Y-49603949D01*
X200959105Y-49603946D01*
X200938517Y-49368632D01*
X200938515Y-49368621D01*
X200877381Y-49140464D01*
X200877377Y-49140455D01*
X200777549Y-48926372D01*
X200718873Y-48842574D01*
X200086910Y-49474538D01*
X200069873Y-49410955D01*
X200004047Y-49296941D01*
X199910955Y-49203849D01*
X199796941Y-49138023D01*
X199733357Y-49120985D01*
X200365320Y-48489021D01*
X200281524Y-48430346D01*
X200067440Y-48330518D01*
X200067431Y-48330514D01*
X199839274Y-48269380D01*
X199839263Y-48269378D01*
X199603950Y-48248791D01*
X199603946Y-48248791D01*
X199368632Y-48269378D01*
X199368621Y-48269380D01*
X199140464Y-48330514D01*
X199140455Y-48330518D01*
X198926371Y-48430347D01*
X198926369Y-48430348D01*
X198842575Y-48489021D01*
X198842574Y-48489021D01*
X199474539Y-49120985D01*
X199410955Y-49138023D01*
X199296941Y-49203849D01*
X199203849Y-49296941D01*
X199138023Y-49410955D01*
X199120985Y-49474538D01*
X198489021Y-48842574D01*
X198489021Y-48842575D01*
X198430348Y-48926369D01*
X198430347Y-48926371D01*
X198330518Y-49140455D01*
X198330514Y-49140464D01*
X198269380Y-49368621D01*
X198269378Y-49368632D01*
X198248791Y-49603946D01*
X198248791Y-49603949D01*
X198269378Y-49839263D01*
X198269380Y-49839274D01*
X198330514Y-50067431D01*
X198330518Y-50067440D01*
X198430346Y-50281524D01*
X198489021Y-50365320D01*
X199120985Y-49733356D01*
X199138023Y-49796941D01*
X199203849Y-49910955D01*
X199296941Y-50004047D01*
X199410955Y-50069873D01*
X199474538Y-50086910D01*
X198842574Y-50718874D01*
X198926365Y-50777546D01*
X198926369Y-50777548D01*
X199140455Y-50877377D01*
X199140464Y-50877381D01*
X199368621Y-50938515D01*
X199368632Y-50938517D01*
X199603946Y-50959105D01*
X199603950Y-50959105D01*
X199839263Y-50938517D01*
X199839270Y-50938516D01*
X199940197Y-50911473D01*
X200010047Y-50913136D01*
X200067910Y-50952298D01*
X200095414Y-51016527D01*
X200092066Y-51063340D01*
X200064939Y-51164583D01*
X200064936Y-51164596D01*
X200044341Y-51399999D01*
X200044341Y-51400000D01*
X200064936Y-51635403D01*
X200064938Y-51635413D01*
X200126094Y-51863655D01*
X200126096Y-51863659D01*
X200126097Y-51863663D01*
X200218266Y-52061320D01*
X200225965Y-52077830D01*
X200225967Y-52077834D01*
X200325118Y-52219435D01*
X200361505Y-52271401D01*
X200528599Y-52438495D01*
X200605773Y-52492533D01*
X200722165Y-52574032D01*
X200722167Y-52574033D01*
X200722170Y-52574035D01*
X200936337Y-52673903D01*
X201164592Y-52735063D01*
X201352918Y-52751539D01*
X201399999Y-52755659D01*
X201400000Y-52755659D01*
X201400001Y-52755659D01*
X201439234Y-52752226D01*
X201635408Y-52735063D01*
X201736099Y-52708083D01*
X201805949Y-52709746D01*
X201863811Y-52748909D01*
X201891315Y-52813137D01*
X201887967Y-52859950D01*
X201860990Y-52960634D01*
X201860987Y-52960647D01*
X201840392Y-53196050D01*
X201840392Y-53196051D01*
X201860987Y-53431454D01*
X201860989Y-53431464D01*
X201922145Y-53659706D01*
X201922147Y-53659710D01*
X201922148Y-53659714D01*
X201966814Y-53755500D01*
X202022016Y-53873881D01*
X202022018Y-53873885D01*
X202103493Y-53990242D01*
X202157556Y-54067452D01*
X202324650Y-54234546D01*
X202374564Y-54269496D01*
X202518216Y-54370083D01*
X202518218Y-54370084D01*
X202518221Y-54370086D01*
X202523949Y-54372757D01*
X202576390Y-54418923D01*
X202595551Y-54485141D01*
X202595551Y-61748851D01*
X202575866Y-61815890D01*
X202559232Y-61836532D01*
X201581286Y-62814478D01*
X201581282Y-62814479D01*
X201581283Y-62814480D01*
X201559433Y-62836329D01*
X201537726Y-62853640D01*
X201447738Y-62910183D01*
X201320184Y-63037737D01*
X201224211Y-63190476D01*
X201164631Y-63360745D01*
X201164630Y-63360750D01*
X201144435Y-63539996D01*
X201144435Y-63540003D01*
X201164630Y-63719249D01*
X201164631Y-63719254D01*
X201224211Y-63889523D01*
X201285828Y-63987585D01*
X201320184Y-64042262D01*
X201447738Y-64169816D01*
X201600478Y-64265789D01*
X201770745Y-64325368D01*
X201770750Y-64325369D01*
X201949996Y-64345565D01*
X201950000Y-64345565D01*
X201950004Y-64345565D01*
X202129249Y-64325369D01*
X202129252Y-64325368D01*
X202129255Y-64325368D01*
X202299522Y-64265789D01*
X202452262Y-64169816D01*
X202579816Y-64042262D01*
X202675789Y-63889522D01*
X202735368Y-63719255D01*
X202742544Y-63655568D01*
X202755565Y-63540003D01*
X202755565Y-63539996D01*
X202741864Y-63418394D01*
X202753919Y-63349572D01*
X202777400Y-63316833D01*
X203554557Y-62539677D01*
X203554562Y-62539673D01*
X203564765Y-62529469D01*
X203564767Y-62529469D01*
X203676571Y-62417665D01*
X203730701Y-62323908D01*
X203755628Y-62280734D01*
X203796551Y-62128007D01*
X203796551Y-61969892D01*
X203796551Y-56005807D01*
X203816236Y-55938768D01*
X203869040Y-55893013D01*
X203938198Y-55883069D01*
X204001754Y-55912094D01*
X204008222Y-55918117D01*
X204095913Y-56005807D01*
X204355283Y-56265177D01*
X204388768Y-56326500D01*
X204391602Y-56352858D01*
X204391602Y-58535430D01*
X204391601Y-58535448D01*
X204391601Y-58701154D01*
X204391600Y-58701154D01*
X204399806Y-58731778D01*
X204422884Y-58817906D01*
X204432526Y-58853887D01*
X204442697Y-58871503D01*
X204442698Y-58871505D01*
X204511579Y-58990812D01*
X204511583Y-58990817D01*
X204630451Y-59109685D01*
X204630457Y-59109690D01*
X206396075Y-60875308D01*
X206429560Y-60936631D01*
X206424576Y-61006323D01*
X206382704Y-61062256D01*
X206317240Y-61086673D01*
X206294512Y-61086209D01*
X206190005Y-61074435D01*
X206189996Y-61074435D01*
X206010750Y-61094630D01*
X206010745Y-61094631D01*
X205840476Y-61154211D01*
X205687737Y-61250184D01*
X205560184Y-61377737D01*
X205464211Y-61530476D01*
X205404631Y-61700745D01*
X205404630Y-61700750D01*
X205384435Y-61879996D01*
X205384435Y-61880003D01*
X205404630Y-62059249D01*
X205404631Y-62059254D01*
X205464211Y-62229523D01*
X205560182Y-62382259D01*
X205562441Y-62385091D01*
X205563330Y-62387268D01*
X205563889Y-62388158D01*
X205563733Y-62388255D01*
X205588854Y-62449776D01*
X205589499Y-62462410D01*
X205589499Y-62588293D01*
X205589498Y-62588293D01*
X205630424Y-62741027D01*
X205635892Y-62750497D01*
X205635894Y-62750500D01*
X205709477Y-62877951D01*
X205709481Y-62877956D01*
X205828349Y-62996824D01*
X205828354Y-62996828D01*
X211162045Y-68330520D01*
X211162047Y-68330521D01*
X211162051Y-68330524D01*
X211298970Y-68409573D01*
X211298977Y-68409577D01*
X211451704Y-68450501D01*
X211451706Y-68450501D01*
X211617415Y-68450501D01*
X211617431Y-68450500D01*
X214496801Y-68450500D01*
X214496817Y-68450501D01*
X214504413Y-68450501D01*
X214662524Y-68450501D01*
X214662527Y-68450501D01*
X214815255Y-68409577D01*
X214865374Y-68380639D01*
X214952186Y-68330520D01*
X215063990Y-68218716D01*
X215063990Y-68218714D01*
X215074198Y-68208507D01*
X215074200Y-68208504D01*
X215347678Y-67935025D01*
X215408999Y-67901542D01*
X215421454Y-67899490D01*
X215508398Y-67889695D01*
X215678665Y-67830116D01*
X215831405Y-67734143D01*
X215958959Y-67606589D01*
X216054932Y-67453849D01*
X216114511Y-67283582D01*
X216114512Y-67283576D01*
X216134708Y-67104330D01*
X216134708Y-67104323D01*
X216114512Y-66925077D01*
X216114510Y-66925067D01*
X216083375Y-66836091D01*
X216079812Y-66766312D01*
X216114541Y-66705684D01*
X216176534Y-66673457D01*
X216246110Y-66679861D01*
X216266388Y-66690141D01*
X216302138Y-66712604D01*
X216302140Y-66712605D01*
X216422738Y-66754804D01*
X216472407Y-66772184D01*
X216472412Y-66772185D01*
X216651658Y-66792381D01*
X216651662Y-66792381D01*
X216651666Y-66792381D01*
X216830911Y-66772185D01*
X216830914Y-66772184D01*
X216830917Y-66772184D01*
X217001184Y-66712605D01*
X217153924Y-66616632D01*
X217153929Y-66616626D01*
X217156759Y-66614371D01*
X217158937Y-66613481D01*
X217159820Y-66612927D01*
X217159917Y-66613081D01*
X217221445Y-66587961D01*
X217234074Y-66587316D01*
X219735500Y-66587316D01*
X219802539Y-66607001D01*
X219848294Y-66659805D01*
X219859500Y-66711316D01*
X219859500Y-68374576D01*
X219839815Y-68441615D01*
X219787011Y-68487370D01*
X219735655Y-68498576D01*
X219001206Y-68499497D01*
X219000522Y-68499496D01*
X218936196Y-68499221D01*
X218935305Y-68499340D01*
X218934607Y-68499431D01*
X218933540Y-68499566D01*
X218871516Y-68516269D01*
X218870855Y-68516445D01*
X218808743Y-68532803D01*
X218807899Y-68533155D01*
X218807203Y-68533442D01*
X218806298Y-68533811D01*
X218806229Y-68533851D01*
X218750709Y-68565997D01*
X218750239Y-68566267D01*
X218694356Y-68598214D01*
X218693657Y-68598752D01*
X218693117Y-68599165D01*
X218692228Y-68599840D01*
X218646995Y-68645187D01*
X218646511Y-68645669D01*
X218600775Y-68691015D01*
X218600234Y-68691724D01*
X218599780Y-68692314D01*
X218599151Y-68693125D01*
X218567051Y-68748882D01*
X218566710Y-68749470D01*
X218534405Y-68804875D01*
X218534035Y-68805775D01*
X218533756Y-68806445D01*
X218533384Y-68807331D01*
X218516812Y-68869482D01*
X218516636Y-68870136D01*
X218499768Y-68932033D01*
X218499641Y-68933016D01*
X218499542Y-68933756D01*
X218499417Y-68934667D01*
X218499497Y-68998915D01*
X218499496Y-68999599D01*
X218478499Y-73902767D01*
X218478179Y-73907511D01*
X218478179Y-73974940D01*
X218477953Y-73982426D01*
X218460410Y-74272479D01*
X218458605Y-74287344D01*
X218406904Y-74569472D01*
X218403321Y-74584011D01*
X218317988Y-74857859D01*
X218312678Y-74871860D01*
X218194960Y-75133422D01*
X218188001Y-75146681D01*
X218039614Y-75392144D01*
X218031108Y-75404467D01*
X217854211Y-75630259D01*
X217844281Y-75641467D01*
X217641467Y-75844281D01*
X217630259Y-75854211D01*
X217404467Y-76031108D01*
X217392144Y-76039614D01*
X217146681Y-76188001D01*
X217133422Y-76194960D01*
X216871860Y-76312678D01*
X216857859Y-76317988D01*
X216584011Y-76403321D01*
X216569472Y-76406904D01*
X216287344Y-76458605D01*
X216272479Y-76460410D01*
X215982420Y-76477953D01*
X215974934Y-76478179D01*
X215905197Y-76478179D01*
X215905181Y-76478180D01*
X183094819Y-76478180D01*
X183094803Y-76478179D01*
X183025065Y-76478179D01*
X183017579Y-76477953D01*
X182727520Y-76460410D01*
X182712655Y-76458605D01*
X182430527Y-76406904D01*
X182415988Y-76403321D01*
X182142140Y-76317988D01*
X182128139Y-76312678D01*
X181866577Y-76194960D01*
X181853318Y-76188001D01*
X181607855Y-76039614D01*
X181595532Y-76031108D01*
X181369740Y-75854211D01*
X181358532Y-75844281D01*
X181155718Y-75641467D01*
X181145788Y-75630259D01*
X180968891Y-75404467D01*
X180960389Y-75392150D01*
X180811997Y-75146680D01*
X180805039Y-75133422D01*
X180687321Y-74871860D01*
X180682011Y-74857859D01*
X180596678Y-74584011D01*
X180593095Y-74569472D01*
X180574018Y-74465368D01*
X180541393Y-74287340D01*
X180539589Y-74272479D01*
X180532220Y-74150646D01*
X180522045Y-73982419D01*
X180521820Y-73974932D01*
X180521820Y-73949522D01*
X180521821Y-73912791D01*
X180521820Y-73912787D01*
X180521820Y-71259996D01*
X186564435Y-71259996D01*
X186564435Y-71260003D01*
X186584630Y-71439249D01*
X186584631Y-71439254D01*
X186644211Y-71609523D01*
X186740184Y-71762262D01*
X186867738Y-71889816D01*
X187020478Y-71985789D01*
X187020479Y-71985789D01*
X187024997Y-71988628D01*
X187046706Y-72005941D01*
X188739298Y-73698533D01*
X188772783Y-73759856D01*
X188774837Y-73772330D01*
X188784630Y-73859249D01*
X188844210Y-74029521D01*
X188920318Y-74150646D01*
X188940184Y-74182262D01*
X189067738Y-74309816D01*
X189093159Y-74325789D01*
X189220121Y-74405565D01*
X189220478Y-74405789D01*
X189390745Y-74465368D01*
X189390750Y-74465369D01*
X189569996Y-74485565D01*
X189570000Y-74485565D01*
X189570004Y-74485565D01*
X189749249Y-74465369D01*
X189749252Y-74465368D01*
X189749255Y-74465368D01*
X189919522Y-74405789D01*
X190072262Y-74309816D01*
X190199816Y-74182262D01*
X190295789Y-74029522D01*
X190355368Y-73859255D01*
X190364382Y-73779254D01*
X190375565Y-73680003D01*
X190375565Y-73679996D01*
X190366551Y-73599996D01*
X213454435Y-73599996D01*
X213454435Y-73600003D01*
X213474630Y-73779249D01*
X213474631Y-73779254D01*
X213534211Y-73949523D01*
X213584478Y-74029522D01*
X213630184Y-74102262D01*
X213757738Y-74229816D01*
X213825636Y-74272479D01*
X213885055Y-74309815D01*
X213910478Y-74325789D01*
X214080745Y-74385368D01*
X214080750Y-74385369D01*
X214259996Y-74405565D01*
X214260000Y-74405565D01*
X214260004Y-74405565D01*
X214439249Y-74385369D01*
X214439252Y-74385368D01*
X214439255Y-74385368D01*
X214609522Y-74325789D01*
X214762262Y-74229816D01*
X214889816Y-74102262D01*
X214985789Y-73949522D01*
X215045368Y-73779255D01*
X215045369Y-73779249D01*
X215065565Y-73600003D01*
X215065565Y-73599996D01*
X215045369Y-73420750D01*
X215045368Y-73420745D01*
X215013782Y-73330478D01*
X214985789Y-73250478D01*
X214889816Y-73097738D01*
X214889814Y-73097736D01*
X214889813Y-73097734D01*
X214887550Y-73094896D01*
X214886659Y-73092715D01*
X214886111Y-73091842D01*
X214886264Y-73091745D01*
X214861144Y-73030209D01*
X214860500Y-73017587D01*
X214860500Y-71604068D01*
X214880185Y-71537029D01*
X214932989Y-71491274D01*
X214970613Y-71480848D01*
X215019255Y-71475368D01*
X215189522Y-71415789D01*
X215342262Y-71319816D01*
X215469816Y-71192262D01*
X215565789Y-71039522D01*
X215625368Y-70869255D01*
X215625369Y-70869249D01*
X215645565Y-70690003D01*
X215645565Y-70689996D01*
X215625369Y-70510750D01*
X215625368Y-70510745D01*
X215565789Y-70340478D01*
X215469816Y-70187738D01*
X215342262Y-70060184D01*
X215189523Y-69964211D01*
X215019254Y-69904631D01*
X215019249Y-69904630D01*
X214840004Y-69884435D01*
X214839996Y-69884435D01*
X214660750Y-69904630D01*
X214660745Y-69904631D01*
X214490476Y-69964211D01*
X214337737Y-70060184D01*
X214210184Y-70187737D01*
X214114210Y-70340478D01*
X214054630Y-70510750D01*
X214044837Y-70597668D01*
X214017770Y-70662082D01*
X214009299Y-70671465D01*
X213891286Y-70789478D01*
X213779481Y-70901282D01*
X213779479Y-70901284D01*
X213757487Y-70939376D01*
X213748192Y-70955477D01*
X213700423Y-71038215D01*
X213659499Y-71190943D01*
X213659499Y-71190945D01*
X213659499Y-71359046D01*
X213659500Y-71359059D01*
X213659500Y-73017587D01*
X213639815Y-73084626D01*
X213632450Y-73094896D01*
X213630186Y-73097734D01*
X213534211Y-73250476D01*
X213474631Y-73420745D01*
X213474630Y-73420750D01*
X213454435Y-73599996D01*
X190366551Y-73599996D01*
X190355369Y-73500750D01*
X190355368Y-73500745D01*
X190295789Y-73330478D01*
X190199816Y-73177738D01*
X190072262Y-73050184D01*
X190020384Y-73017587D01*
X189919521Y-72954210D01*
X189749249Y-72894630D01*
X189662330Y-72884837D01*
X189597916Y-72857770D01*
X189588533Y-72849298D01*
X188199934Y-71460699D01*
X188166449Y-71399376D01*
X188164395Y-71359134D01*
X188164404Y-71359059D01*
X188175565Y-71260000D01*
X188167784Y-71190945D01*
X188155369Y-71080750D01*
X188155368Y-71080745D01*
X188095788Y-70910476D01*
X188019761Y-70789480D01*
X187999816Y-70757738D01*
X187872262Y-70630184D01*
X187820513Y-70597668D01*
X187719523Y-70534211D01*
X187549254Y-70474631D01*
X187549249Y-70474630D01*
X187370004Y-70454435D01*
X187369996Y-70454435D01*
X187190750Y-70474630D01*
X187190745Y-70474631D01*
X187020476Y-70534211D01*
X186867737Y-70630184D01*
X186740184Y-70757737D01*
X186644211Y-70910476D01*
X186584631Y-71080745D01*
X186584630Y-71080750D01*
X186564435Y-71259996D01*
X180521820Y-71259996D01*
X180521820Y-61000000D01*
X183269402Y-61000000D01*
X183289738Y-61193483D01*
X183349856Y-61378510D01*
X183349857Y-61378511D01*
X183384203Y-61438000D01*
X183400676Y-61505900D01*
X183384203Y-61562000D01*
X183349857Y-61621488D01*
X183349856Y-61621489D01*
X183289738Y-61806516D01*
X183269402Y-62000000D01*
X183289738Y-62193483D01*
X183349856Y-62378510D01*
X183349857Y-62378511D01*
X183384203Y-62438000D01*
X183400676Y-62505900D01*
X183384203Y-62562000D01*
X183349857Y-62621488D01*
X183349856Y-62621489D01*
X183289738Y-62806516D01*
X183269402Y-63000000D01*
X183289738Y-63193483D01*
X183349856Y-63378510D01*
X183349857Y-63378511D01*
X183384203Y-63438000D01*
X183400676Y-63505900D01*
X183384203Y-63562000D01*
X183349857Y-63621488D01*
X183349856Y-63621489D01*
X183289738Y-63806516D01*
X183269402Y-64000000D01*
X183289738Y-64193483D01*
X183349856Y-64378510D01*
X183349857Y-64378511D01*
X183384203Y-64438000D01*
X183400676Y-64505900D01*
X183384203Y-64562000D01*
X183349857Y-64621488D01*
X183349856Y-64621489D01*
X183289738Y-64806516D01*
X183269402Y-65000000D01*
X183289738Y-65193483D01*
X183349856Y-65378510D01*
X183349857Y-65378511D01*
X183384203Y-65438000D01*
X183400676Y-65505900D01*
X183384203Y-65562000D01*
X183349857Y-65621488D01*
X183349856Y-65621489D01*
X183289738Y-65806516D01*
X183269402Y-66000000D01*
X183289738Y-66193483D01*
X183349856Y-66378510D01*
X183349857Y-66378511D01*
X183384203Y-66438000D01*
X183400676Y-66505900D01*
X183384203Y-66562000D01*
X183349857Y-66621488D01*
X183349856Y-66621489D01*
X183289738Y-66806516D01*
X183272690Y-66968716D01*
X183269402Y-67000000D01*
X183277433Y-67076409D01*
X183289738Y-67193483D01*
X183289740Y-67193488D01*
X183319848Y-67286154D01*
X183321843Y-67355995D01*
X183318099Y-67367804D01*
X183280908Y-67467517D01*
X183276341Y-67510000D01*
X183274501Y-67527123D01*
X183274500Y-67527135D01*
X183274500Y-68472870D01*
X183274501Y-68472876D01*
X183280908Y-68532483D01*
X183331202Y-68667328D01*
X183331206Y-68667335D01*
X183417452Y-68782544D01*
X183417455Y-68782547D01*
X183532664Y-68868793D01*
X183532671Y-68868797D01*
X183667517Y-68919091D01*
X183667516Y-68919091D01*
X183674444Y-68919835D01*
X183727127Y-68925500D01*
X184672872Y-68925499D01*
X184732483Y-68919091D01*
X184867331Y-68868796D01*
X184982546Y-68782546D01*
X185068796Y-68667331D01*
X185119091Y-68532483D01*
X185125500Y-68472873D01*
X185125499Y-67527128D01*
X185119091Y-67467517D01*
X185110825Y-67445356D01*
X185081900Y-67367803D01*
X185076916Y-67298112D01*
X185080145Y-67286170D01*
X185110262Y-67193482D01*
X185130598Y-67000000D01*
X185110262Y-66806518D01*
X185050144Y-66621492D01*
X185015795Y-66561999D01*
X184999322Y-66494101D01*
X185015796Y-66438000D01*
X185050144Y-66378508D01*
X185110262Y-66193482D01*
X185130598Y-66000000D01*
X185110262Y-65806518D01*
X185050144Y-65621492D01*
X185015795Y-65561999D01*
X184999322Y-65494101D01*
X185015796Y-65438000D01*
X185050144Y-65378508D01*
X185110262Y-65193482D01*
X185130598Y-65000000D01*
X185110262Y-64806518D01*
X185050144Y-64621492D01*
X185015795Y-64561999D01*
X184999322Y-64494101D01*
X185015796Y-64438000D01*
X185050144Y-64378508D01*
X185110262Y-64193482D01*
X185130598Y-64000000D01*
X185110262Y-63806518D01*
X185050144Y-63621492D01*
X185015795Y-63561999D01*
X184999322Y-63494101D01*
X185015796Y-63438000D01*
X185050144Y-63378508D01*
X185110262Y-63193482D01*
X185130598Y-63000000D01*
X185110262Y-62806518D01*
X185050144Y-62621492D01*
X185015795Y-62561999D01*
X184999322Y-62494101D01*
X185015796Y-62438000D01*
X185050144Y-62378508D01*
X185110262Y-62193482D01*
X185130598Y-62000000D01*
X185110262Y-61806518D01*
X185050144Y-61621492D01*
X185015795Y-61561999D01*
X184999322Y-61494101D01*
X185015796Y-61438000D01*
X185050144Y-61378508D01*
X185110262Y-61193482D01*
X185130598Y-61000000D01*
X185110262Y-60806518D01*
X185050144Y-60621492D01*
X185050143Y-60621491D01*
X185050143Y-60621489D01*
X185050142Y-60621488D01*
X185005995Y-60545023D01*
X184952870Y-60453008D01*
X184883464Y-60375925D01*
X184822697Y-60308435D01*
X184822694Y-60308433D01*
X184822693Y-60308432D01*
X184822692Y-60308431D01*
X184700320Y-60219522D01*
X184665297Y-60194076D01*
X184528848Y-60133326D01*
X184487571Y-60114949D01*
X184487569Y-60114948D01*
X184297274Y-60074500D01*
X184102726Y-60074500D01*
X183912431Y-60114948D01*
X183734702Y-60194076D01*
X183577305Y-60308433D01*
X183577302Y-60308435D01*
X183447129Y-60453009D01*
X183349857Y-60621488D01*
X183349856Y-60621489D01*
X183289738Y-60806516D01*
X183269402Y-61000000D01*
X180521820Y-61000000D01*
X180521820Y-55799996D01*
X189994435Y-55799996D01*
X189994435Y-55800003D01*
X190014630Y-55979249D01*
X190014631Y-55979254D01*
X190074211Y-56149523D01*
X190146882Y-56265177D01*
X190170184Y-56302262D01*
X190297738Y-56429816D01*
X190450478Y-56525789D01*
X190603258Y-56579249D01*
X190620745Y-56585368D01*
X190620750Y-56585369D01*
X190799997Y-56605565D01*
X190800000Y-56605565D01*
X190875129Y-56597099D01*
X190912817Y-56599924D01*
X190912881Y-56599440D01*
X190920940Y-56600501D01*
X190920943Y-56600501D01*
X191086654Y-56600501D01*
X191086670Y-56600500D01*
X193817588Y-56600500D01*
X193884627Y-56620185D01*
X193894903Y-56627555D01*
X193897736Y-56629814D01*
X193897738Y-56629816D01*
X194050478Y-56725789D01*
X194118306Y-56749523D01*
X194220745Y-56785368D01*
X194220750Y-56785369D01*
X194399996Y-56805565D01*
X194400000Y-56805565D01*
X194400004Y-56805565D01*
X194579249Y-56785369D01*
X194579252Y-56785368D01*
X194579255Y-56785368D01*
X194749522Y-56725789D01*
X194902262Y-56629816D01*
X195029816Y-56502262D01*
X195125789Y-56349522D01*
X195185368Y-56179255D01*
X195205565Y-56000000D01*
X195204186Y-55987763D01*
X195185369Y-55820750D01*
X195185368Y-55820745D01*
X195140443Y-55692358D01*
X195125789Y-55650478D01*
X195107106Y-55620745D01*
X195029815Y-55497737D01*
X194902262Y-55370184D01*
X194749523Y-55274211D01*
X194579254Y-55214631D01*
X194579249Y-55214630D01*
X194400004Y-55194435D01*
X194399996Y-55194435D01*
X194220750Y-55214630D01*
X194220745Y-55214631D01*
X194050476Y-55274211D01*
X193897736Y-55370185D01*
X193894903Y-55372445D01*
X193892724Y-55373334D01*
X193891842Y-55373889D01*
X193891744Y-55373734D01*
X193830217Y-55398855D01*
X193817588Y-55399500D01*
X191562290Y-55399500D01*
X191495251Y-55379815D01*
X191457297Y-55341473D01*
X191429817Y-55297739D01*
X191302262Y-55170184D01*
X191149523Y-55074211D01*
X190979254Y-55014631D01*
X190979249Y-55014630D01*
X190800004Y-54994435D01*
X190799996Y-54994435D01*
X190620750Y-55014630D01*
X190620745Y-55014631D01*
X190450476Y-55074211D01*
X190297737Y-55170184D01*
X190170184Y-55297737D01*
X190074211Y-55450476D01*
X190014631Y-55620745D01*
X190014630Y-55620750D01*
X189994435Y-55799996D01*
X180521820Y-55799996D01*
X180521820Y-53031504D01*
X187180000Y-53031504D01*
X187180000Y-53430000D01*
X187880000Y-53430000D01*
X187880000Y-53930000D01*
X187180000Y-53930000D01*
X187180000Y-54328495D01*
X187218427Y-54521681D01*
X187218430Y-54521693D01*
X187293807Y-54703671D01*
X187293814Y-54703684D01*
X187403248Y-54867462D01*
X187403251Y-54867466D01*
X187542533Y-55006748D01*
X187542537Y-55006751D01*
X187706315Y-55116185D01*
X187706328Y-55116192D01*
X187888308Y-55191569D01*
X187930000Y-55199862D01*
X187930000Y-54396988D01*
X187939940Y-54414205D01*
X187995795Y-54470060D01*
X188064204Y-54509556D01*
X188140504Y-54530000D01*
X188219496Y-54530000D01*
X188295796Y-54509556D01*
X188364205Y-54470060D01*
X188420060Y-54414205D01*
X188430000Y-54396988D01*
X188430000Y-55199862D01*
X188471690Y-55191569D01*
X188471692Y-55191569D01*
X188653671Y-55116192D01*
X188653684Y-55116185D01*
X188817462Y-55006751D01*
X188817466Y-55006748D01*
X188956748Y-54867466D01*
X188956751Y-54867462D01*
X189066185Y-54703684D01*
X189066192Y-54703671D01*
X189141569Y-54521693D01*
X189141572Y-54521681D01*
X189179999Y-54328495D01*
X189180000Y-54328492D01*
X189180000Y-53930000D01*
X188480000Y-53930000D01*
X188480000Y-53430000D01*
X189018216Y-53430000D01*
X189085255Y-53449685D01*
X189125602Y-53491999D01*
X189149485Y-53533365D01*
X189256635Y-53640515D01*
X189387865Y-53716281D01*
X189534234Y-53755500D01*
X189534236Y-53755500D01*
X189685764Y-53755500D01*
X189685766Y-53755500D01*
X189832135Y-53716281D01*
X189963365Y-53640515D01*
X190070515Y-53533365D01*
X190146281Y-53402135D01*
X190185500Y-53255766D01*
X190185500Y-53104234D01*
X194814500Y-53104234D01*
X194814500Y-53255766D01*
X194827653Y-53304854D01*
X194853719Y-53402136D01*
X194869807Y-53430000D01*
X194929485Y-53533365D01*
X195036635Y-53640515D01*
X195167865Y-53716281D01*
X195314234Y-53755500D01*
X195314236Y-53755500D01*
X195465764Y-53755500D01*
X195465766Y-53755500D01*
X195612135Y-53716281D01*
X195743365Y-53640515D01*
X195850515Y-53533365D01*
X195874397Y-53491999D01*
X195924964Y-53443784D01*
X195981784Y-53430000D01*
X196520000Y-53430000D01*
X196520000Y-53930000D01*
X195820000Y-53930000D01*
X195820000Y-54328495D01*
X195858427Y-54521681D01*
X195858430Y-54521693D01*
X195933807Y-54703671D01*
X195933814Y-54703684D01*
X196043248Y-54867462D01*
X196043251Y-54867466D01*
X196182533Y-55006748D01*
X196182537Y-55006751D01*
X196346315Y-55116185D01*
X196346328Y-55116192D01*
X196528308Y-55191569D01*
X196570000Y-55199862D01*
X196570000Y-54396988D01*
X196579940Y-54414205D01*
X196635795Y-54470060D01*
X196704204Y-54509556D01*
X196780504Y-54530000D01*
X196859496Y-54530000D01*
X196935796Y-54509556D01*
X197004205Y-54470060D01*
X197060060Y-54414205D01*
X197070000Y-54396988D01*
X197070000Y-55199862D01*
X197111690Y-55191569D01*
X197111692Y-55191569D01*
X197293671Y-55116192D01*
X197293684Y-55116185D01*
X197457462Y-55006751D01*
X197457466Y-55006748D01*
X197596748Y-54867466D01*
X197596751Y-54867462D01*
X197706185Y-54703684D01*
X197706192Y-54703671D01*
X197781569Y-54521693D01*
X197781572Y-54521681D01*
X197819999Y-54328495D01*
X197820000Y-54328492D01*
X197820000Y-53930000D01*
X197120000Y-53930000D01*
X197120000Y-53430000D01*
X197820000Y-53430000D01*
X197820000Y-53031508D01*
X197819999Y-53031504D01*
X197781572Y-52838318D01*
X197781569Y-52838306D01*
X197706192Y-52656328D01*
X197706185Y-52656315D01*
X197596751Y-52492537D01*
X197596748Y-52492533D01*
X197457466Y-52353251D01*
X197457462Y-52353248D01*
X197293684Y-52243814D01*
X197293671Y-52243807D01*
X197111691Y-52168429D01*
X197111683Y-52168427D01*
X197070000Y-52160135D01*
X197070000Y-52963011D01*
X197060060Y-52945795D01*
X197004205Y-52889940D01*
X196935796Y-52850444D01*
X196859496Y-52830000D01*
X196780504Y-52830000D01*
X196704204Y-52850444D01*
X196635795Y-52889940D01*
X196579940Y-52945795D01*
X196570000Y-52963011D01*
X196570000Y-52160136D01*
X196569999Y-52160135D01*
X196528316Y-52168427D01*
X196528308Y-52168429D01*
X196346328Y-52243807D01*
X196346315Y-52243814D01*
X196182537Y-52353248D01*
X196182533Y-52353251D01*
X196043251Y-52492533D01*
X196043248Y-52492537D01*
X195933814Y-52656315D01*
X195933809Y-52656324D01*
X195929866Y-52665845D01*
X195886023Y-52720247D01*
X195819728Y-52742310D01*
X195752030Y-52725029D01*
X195746597Y-52721351D01*
X195612136Y-52643719D01*
X195526976Y-52620901D01*
X195465766Y-52604500D01*
X195314234Y-52604500D01*
X195167863Y-52643719D01*
X195036635Y-52719485D01*
X195036632Y-52719487D01*
X194929487Y-52826632D01*
X194929485Y-52826635D01*
X194853719Y-52957863D01*
X194831978Y-53039004D01*
X194814500Y-53104234D01*
X190185500Y-53104234D01*
X190146281Y-52957865D01*
X190143642Y-52953295D01*
X190107064Y-52889940D01*
X190070515Y-52826635D01*
X189963365Y-52719485D01*
X189893406Y-52679094D01*
X189832136Y-52643719D01*
X189746976Y-52620901D01*
X189685766Y-52604500D01*
X189534234Y-52604500D01*
X189387863Y-52643719D01*
X189296428Y-52696510D01*
X189256635Y-52719485D01*
X189256633Y-52719486D01*
X189249597Y-52723549D01*
X189248327Y-52721349D01*
X189194995Y-52741960D01*
X189126552Y-52727914D01*
X189076568Y-52679094D01*
X189070131Y-52665838D01*
X189066192Y-52656328D01*
X189066185Y-52656315D01*
X188956751Y-52492537D01*
X188956748Y-52492533D01*
X188817466Y-52353251D01*
X188817462Y-52353248D01*
X188653684Y-52243814D01*
X188653671Y-52243807D01*
X188471691Y-52168429D01*
X188471683Y-52168427D01*
X188430000Y-52160135D01*
X188430000Y-52963011D01*
X188420060Y-52945795D01*
X188364205Y-52889940D01*
X188295796Y-52850444D01*
X188219496Y-52830000D01*
X188140504Y-52830000D01*
X188064204Y-52850444D01*
X187995795Y-52889940D01*
X187939940Y-52945795D01*
X187930000Y-52963011D01*
X187930000Y-52160136D01*
X187929999Y-52160135D01*
X187888316Y-52168427D01*
X187888308Y-52168429D01*
X187706328Y-52243807D01*
X187706315Y-52243814D01*
X187542537Y-52353248D01*
X187542533Y-52353251D01*
X187403251Y-52492533D01*
X187403248Y-52492537D01*
X187293814Y-52656315D01*
X187293807Y-52656328D01*
X187218430Y-52838306D01*
X187218427Y-52838318D01*
X187180000Y-53031504D01*
X180521820Y-53031504D01*
X180521820Y-50087212D01*
X180521821Y-50087209D01*
X180521820Y-50025055D01*
X180522046Y-50017579D01*
X180522047Y-50017569D01*
X180539589Y-49727515D01*
X180541394Y-49712655D01*
X180549253Y-49669774D01*
X180593096Y-49430520D01*
X180596678Y-49415988D01*
X180598247Y-49410955D01*
X180682012Y-49142136D01*
X180687321Y-49128139D01*
X180730812Y-49031504D01*
X187180000Y-49031504D01*
X187180000Y-49280000D01*
X187880000Y-49280000D01*
X187880000Y-49780000D01*
X187180000Y-49780000D01*
X187180000Y-50028495D01*
X187218427Y-50221681D01*
X187218430Y-50221693D01*
X187293807Y-50403671D01*
X187293814Y-50403684D01*
X187403248Y-50567462D01*
X187403251Y-50567466D01*
X187542533Y-50706748D01*
X187542537Y-50706751D01*
X187706315Y-50816185D01*
X187706328Y-50816192D01*
X187888308Y-50891569D01*
X187930000Y-50899862D01*
X187930000Y-50096988D01*
X187939940Y-50114205D01*
X187995795Y-50170060D01*
X188064204Y-50209556D01*
X188140504Y-50230000D01*
X188219496Y-50230000D01*
X188295796Y-50209556D01*
X188364205Y-50170060D01*
X188420060Y-50114205D01*
X188430000Y-50096988D01*
X188430000Y-50899862D01*
X188471690Y-50891569D01*
X188471692Y-50891569D01*
X188653671Y-50816192D01*
X188653684Y-50816185D01*
X188817462Y-50706751D01*
X188817466Y-50706748D01*
X188956748Y-50567466D01*
X188956751Y-50567462D01*
X189066185Y-50403684D01*
X189066192Y-50403671D01*
X189141569Y-50221693D01*
X189141572Y-50221681D01*
X189179999Y-50028495D01*
X189180000Y-50028492D01*
X189180000Y-49780000D01*
X188480000Y-49780000D01*
X188480000Y-49280000D01*
X189180000Y-49280000D01*
X189180000Y-49031508D01*
X189179999Y-49031504D01*
X195820000Y-49031504D01*
X195820000Y-49280000D01*
X196520000Y-49280000D01*
X196520000Y-49780000D01*
X195820000Y-49780000D01*
X195820000Y-50028495D01*
X195858427Y-50221681D01*
X195858430Y-50221693D01*
X195933807Y-50403671D01*
X195933814Y-50403684D01*
X196043248Y-50567462D01*
X196043251Y-50567466D01*
X196182533Y-50706748D01*
X196182537Y-50706751D01*
X196346315Y-50816185D01*
X196346328Y-50816192D01*
X196528308Y-50891569D01*
X196570000Y-50899862D01*
X196570000Y-50096988D01*
X196579940Y-50114205D01*
X196635795Y-50170060D01*
X196704204Y-50209556D01*
X196780504Y-50230000D01*
X196859496Y-50230000D01*
X196935796Y-50209556D01*
X197004205Y-50170060D01*
X197060060Y-50114205D01*
X197070000Y-50096988D01*
X197070000Y-50899862D01*
X197111690Y-50891569D01*
X197111692Y-50891569D01*
X197293671Y-50816192D01*
X197293684Y-50816185D01*
X197457462Y-50706751D01*
X197457466Y-50706748D01*
X197596748Y-50567466D01*
X197596751Y-50567462D01*
X197706185Y-50403684D01*
X197706192Y-50403671D01*
X197781569Y-50221693D01*
X197781572Y-50221681D01*
X197819999Y-50028495D01*
X197820000Y-50028492D01*
X197820000Y-49780000D01*
X197120000Y-49780000D01*
X197120000Y-49280000D01*
X197820000Y-49280000D01*
X197820000Y-49031508D01*
X197819999Y-49031504D01*
X197781572Y-48838318D01*
X197781569Y-48838306D01*
X197706192Y-48656328D01*
X197706185Y-48656315D01*
X197596751Y-48492537D01*
X197596748Y-48492533D01*
X197457466Y-48353251D01*
X197457462Y-48353248D01*
X197293684Y-48243814D01*
X197293671Y-48243807D01*
X197111691Y-48168429D01*
X197111683Y-48168427D01*
X197070000Y-48160135D01*
X197070000Y-48963011D01*
X197060060Y-48945795D01*
X197004205Y-48889940D01*
X196935796Y-48850444D01*
X196859496Y-48830000D01*
X196780504Y-48830000D01*
X196704204Y-48850444D01*
X196635795Y-48889940D01*
X196579940Y-48945795D01*
X196570000Y-48963011D01*
X196570000Y-48160136D01*
X196569999Y-48160135D01*
X196528316Y-48168427D01*
X196528308Y-48168429D01*
X196346328Y-48243807D01*
X196346315Y-48243814D01*
X196182537Y-48353248D01*
X196182533Y-48353251D01*
X196043251Y-48492533D01*
X196043248Y-48492537D01*
X195933814Y-48656315D01*
X195933807Y-48656328D01*
X195858430Y-48838306D01*
X195858427Y-48838318D01*
X195820000Y-49031504D01*
X189179999Y-49031504D01*
X189141572Y-48838318D01*
X189141569Y-48838306D01*
X189066192Y-48656328D01*
X189066185Y-48656315D01*
X188956751Y-48492537D01*
X188956748Y-48492533D01*
X188817466Y-48353251D01*
X188817462Y-48353248D01*
X188653684Y-48243814D01*
X188653671Y-48243807D01*
X188471691Y-48168429D01*
X188471683Y-48168427D01*
X188430000Y-48160135D01*
X188430000Y-48963011D01*
X188420060Y-48945795D01*
X188364205Y-48889940D01*
X188295796Y-48850444D01*
X188219496Y-48830000D01*
X188140504Y-48830000D01*
X188064204Y-48850444D01*
X187995795Y-48889940D01*
X187939940Y-48945795D01*
X187930000Y-48963011D01*
X187930000Y-48160136D01*
X187929999Y-48160135D01*
X187888316Y-48168427D01*
X187888308Y-48168429D01*
X187706328Y-48243807D01*
X187706315Y-48243814D01*
X187542537Y-48353248D01*
X187542533Y-48353251D01*
X187403251Y-48492533D01*
X187403248Y-48492537D01*
X187293814Y-48656315D01*
X187293807Y-48656328D01*
X187218430Y-48838306D01*
X187218427Y-48838318D01*
X187180000Y-49031504D01*
X180730812Y-49031504D01*
X180805042Y-48866570D01*
X180811993Y-48853325D01*
X180960394Y-48607841D01*
X180968881Y-48595545D01*
X181145795Y-48369731D01*
X181155710Y-48358540D01*
X181358540Y-48155710D01*
X181369731Y-48145795D01*
X181595545Y-47968881D01*
X181607841Y-47960394D01*
X181853325Y-47811993D01*
X181866570Y-47805042D01*
X182128143Y-47687319D01*
X182142136Y-47682012D01*
X182415995Y-47596676D01*
X182430520Y-47593096D01*
X182712661Y-47541393D01*
X182727515Y-47539589D01*
X183017581Y-47522045D01*
X183025065Y-47521820D01*
X183087209Y-47521821D01*
X183087213Y-47521820D01*
X215912787Y-47521820D01*
X215912791Y-47521821D01*
G37*
%TD.AperFunction*%
%TA.AperFunction,Conductor*%
G36*
X213205703Y-62740198D02*
G01*
X213241542Y-62792956D01*
X213280823Y-62905216D01*
X213333946Y-62989760D01*
X213376796Y-63057955D01*
X213504350Y-63185509D01*
X213538265Y-63206819D01*
X213621701Y-63259246D01*
X213657090Y-63281482D01*
X213757846Y-63316738D01*
X213827357Y-63341061D01*
X213827362Y-63341062D01*
X214006608Y-63361258D01*
X214006612Y-63361258D01*
X214006616Y-63361258D01*
X214185861Y-63341062D01*
X214185863Y-63341061D01*
X214185867Y-63341061D01*
X214185870Y-63341059D01*
X214185874Y-63341059D01*
X214255378Y-63316738D01*
X214356134Y-63281482D01*
X214425949Y-63237613D01*
X214493183Y-63218613D01*
X214557892Y-63237614D01*
X214650473Y-63295787D01*
X214650477Y-63295788D01*
X214650478Y-63295789D01*
X214710347Y-63316738D01*
X214820745Y-63355368D01*
X214820750Y-63355369D01*
X214999996Y-63375565D01*
X215000000Y-63375565D01*
X215000004Y-63375565D01*
X215179249Y-63355369D01*
X215179252Y-63355368D01*
X215179255Y-63355368D01*
X215349522Y-63295789D01*
X215502262Y-63199816D01*
X215502267Y-63199810D01*
X215505097Y-63197555D01*
X215507275Y-63196665D01*
X215508158Y-63196111D01*
X215508255Y-63196265D01*
X215569783Y-63171145D01*
X215582412Y-63170500D01*
X224644903Y-63170500D01*
X224711942Y-63190185D01*
X224732584Y-63206819D01*
X227892752Y-66366988D01*
X227926237Y-66428311D01*
X227921253Y-66498003D01*
X227892753Y-66542350D01*
X227796503Y-66638600D01*
X227666575Y-66824158D01*
X227611998Y-66867783D01*
X227542500Y-66874977D01*
X227480145Y-66843454D01*
X227463425Y-66824158D01*
X227333494Y-66638597D01*
X227166402Y-66471506D01*
X227166395Y-66471501D01*
X226972834Y-66335967D01*
X226972830Y-66335965D01*
X226868564Y-66287345D01*
X226758663Y-66236097D01*
X226758659Y-66236096D01*
X226758655Y-66236094D01*
X226530413Y-66174938D01*
X226530403Y-66174936D01*
X226295001Y-66154341D01*
X226294999Y-66154341D01*
X226059596Y-66174936D01*
X226059583Y-66174939D01*
X225931241Y-66209327D01*
X225861392Y-66207664D01*
X225811468Y-66177233D01*
X224252590Y-64618355D01*
X224252588Y-64618352D01*
X224133717Y-64499481D01*
X224133716Y-64499480D01*
X224046904Y-64449360D01*
X224046904Y-64449359D01*
X224046900Y-64449358D01*
X223996785Y-64420423D01*
X223844057Y-64379499D01*
X223685943Y-64379499D01*
X223678347Y-64379499D01*
X223678331Y-64379500D01*
X216825909Y-64379500D01*
X216825893Y-64379499D01*
X216818297Y-64379499D01*
X216660182Y-64379499D01*
X216507454Y-64420423D01*
X216507452Y-64420423D01*
X216507452Y-64420424D01*
X216370520Y-64499482D01*
X215687705Y-65182297D01*
X215626382Y-65215782D01*
X215556690Y-65210798D01*
X215512343Y-65182297D01*
X215506909Y-65176863D01*
X215354170Y-65080890D01*
X215183901Y-65021310D01*
X215183896Y-65021309D01*
X215004651Y-65001114D01*
X215004643Y-65001114D01*
X214825397Y-65021309D01*
X214825392Y-65021310D01*
X214655123Y-65080890D01*
X214502384Y-65176863D01*
X214374831Y-65304416D01*
X214278858Y-65457155D01*
X214219278Y-65627424D01*
X214219277Y-65627429D01*
X214199082Y-65806675D01*
X214199082Y-65806682D01*
X214219277Y-65985928D01*
X214219278Y-65985933D01*
X214278858Y-66156202D01*
X214338723Y-66251476D01*
X214374831Y-66308941D01*
X214502385Y-66436495D01*
X214536034Y-66457638D01*
X214613173Y-66506108D01*
X214659464Y-66558443D01*
X214670112Y-66627497D01*
X214652195Y-66677074D01*
X214603353Y-66754804D01*
X214543773Y-66925077D01*
X214533980Y-67011995D01*
X214506913Y-67076409D01*
X214498442Y-67085792D01*
X214371052Y-67213182D01*
X214309732Y-67246666D01*
X214283373Y-67249500D01*
X212899098Y-67249500D01*
X212832059Y-67229815D01*
X212786304Y-67177011D01*
X212776360Y-67107853D01*
X212805385Y-67044297D01*
X212811417Y-67037819D01*
X212837241Y-67011995D01*
X212880520Y-66968716D01*
X212934640Y-66874977D01*
X212959337Y-66832201D01*
X212959354Y-66832172D01*
X212959443Y-66832015D01*
X212959577Y-66831785D01*
X213000500Y-66679057D01*
X213000500Y-66520943D01*
X213000500Y-62833911D01*
X213020185Y-62766872D01*
X213072989Y-62721117D01*
X213142147Y-62711173D01*
X213205703Y-62740198D01*
G37*
%TD.AperFunction*%
%TA.AperFunction,Conductor*%
G36*
X214095607Y-60656141D02*
G01*
X214151540Y-60698013D01*
X214175957Y-60763477D01*
X214161105Y-60831750D01*
X214157267Y-60838295D01*
X214074211Y-60970476D01*
X214014631Y-61140745D01*
X214014630Y-61140750D01*
X213994435Y-61319996D01*
X213994435Y-61320003D01*
X214014631Y-61499253D01*
X214014631Y-61499254D01*
X214040528Y-61573265D01*
X214044089Y-61643043D01*
X214011167Y-61701899D01*
X213988075Y-61724991D01*
X213926752Y-61758476D01*
X213914278Y-61760530D01*
X213827362Y-61770323D01*
X213657090Y-61829903D01*
X213504349Y-61925877D01*
X213376796Y-62053430D01*
X213280821Y-62206173D01*
X213241541Y-62318429D01*
X213200820Y-62375205D01*
X213135867Y-62400952D01*
X213067305Y-62387496D01*
X213016903Y-62339108D01*
X213000500Y-62277474D01*
X213000500Y-61700096D01*
X213020185Y-61633057D01*
X213036814Y-61612420D01*
X213964593Y-60684641D01*
X214025915Y-60651157D01*
X214095607Y-60656141D01*
G37*
%TD.AperFunction*%
%TD*%
M02*
