%TF.GenerationSoftware,KiCad,Pcbnew,8.0.8*%
%TF.CreationDate,2025-02-15T15:27:06-06:00*%
%TF.ProjectId,Quark006,51756172-6b30-4303-962e-6b696361645f,rev?*%
%TF.SameCoordinates,Original*%
%TF.FileFunction,Paste,Top*%
%TF.FilePolarity,Positive*%
%FSLAX46Y46*%
G04 Gerber Fmt 4.6, Leading zero omitted, Abs format (unit mm)*
G04 Created by KiCad (PCBNEW 8.0.8) date 2025-02-15 15:27:06*
%MOMM*%
%LPD*%
G01*
G04 APERTURE LIST*
G04 Aperture macros list*
%AMRoundRect*
0 Rectangle with rounded corners*
0 $1 Rounding radius*
0 $2 $3 $4 $5 $6 $7 $8 $9 X,Y pos of 4 corners*
0 Add a 4 corners polygon primitive as box body*
4,1,4,$2,$3,$4,$5,$6,$7,$8,$9,$2,$3,0*
0 Add four circle primitives for the rounded corners*
1,1,$1+$1,$2,$3*
1,1,$1+$1,$4,$5*
1,1,$1+$1,$6,$7*
1,1,$1+$1,$8,$9*
0 Add four rect primitives between the rounded corners*
20,1,$1+$1,$2,$3,$4,$5,0*
20,1,$1+$1,$4,$5,$6,$7,0*
20,1,$1+$1,$6,$7,$8,$9,0*
20,1,$1+$1,$8,$9,$2,$3,0*%
G04 Aperture macros list end*
%ADD10RoundRect,0.250000X0.250000X0.475000X-0.250000X0.475000X-0.250000X-0.475000X0.250000X-0.475000X0*%
%ADD11R,0.250000X1.400000*%
%ADD12R,0.812800X0.406400*%
%ADD13R,0.406400X0.812800*%
%ADD14R,1.193800X1.193800*%
%ADD15R,0.812800X0.812800*%
%ADD16RoundRect,0.100000X0.100000X-0.637500X0.100000X0.637500X-0.100000X0.637500X-0.100000X-0.637500X0*%
%ADD17R,1.000000X0.500000*%
%ADD18R,1.500000X0.800000*%
%ADD19RoundRect,0.250000X-0.262500X-0.450000X0.262500X-0.450000X0.262500X0.450000X-0.262500X0.450000X0*%
%ADD20RoundRect,0.375000X0.375000X-0.625000X0.375000X0.625000X-0.375000X0.625000X-0.375000X-0.625000X0*%
%ADD21RoundRect,0.500000X1.400000X-0.500000X1.400000X0.500000X-1.400000X0.500000X-1.400000X-0.500000X0*%
%ADD22RoundRect,0.250000X-0.250000X-0.475000X0.250000X-0.475000X0.250000X0.475000X-0.250000X0.475000X0*%
%ADD23RoundRect,0.250000X0.262500X0.450000X-0.262500X0.450000X-0.262500X-0.450000X0.262500X-0.450000X0*%
%ADD24RoundRect,0.243750X-0.243750X-0.456250X0.243750X-0.456250X0.243750X0.456250X-0.243750X0.456250X0*%
%ADD25R,0.800000X0.500000*%
%ADD26R,0.800000X0.400000*%
G04 APERTURE END LIST*
D10*
%TO.C,C6*%
X209350000Y-74400000D03*
X207450000Y-74400000D03*
%TD*%
D11*
%TO.C,J2*%
X215325000Y-54387500D03*
X214525000Y-54387500D03*
X213250000Y-54387500D03*
X212250000Y-54387500D03*
X211750000Y-54387500D03*
X213750000Y-54387500D03*
X209475000Y-54387500D03*
X208675000Y-54387500D03*
X208925000Y-54387500D03*
X209725000Y-54387500D03*
X210250000Y-54387500D03*
X211250000Y-54387500D03*
X212750000Y-54387500D03*
X210750000Y-54387500D03*
X214275000Y-54387500D03*
X215075000Y-54387500D03*
%TD*%
D12*
%TO.C,U1*%
X200447700Y-71200001D03*
X200447700Y-70350000D03*
X200447700Y-69499999D03*
X200447700Y-68650001D03*
X200447700Y-67800000D03*
X200447700Y-66949999D03*
X200447700Y-66100001D03*
X200447700Y-65250000D03*
X200447700Y-64399999D03*
X200447700Y-63550001D03*
X200447700Y-62700000D03*
X200447700Y-61849999D03*
X200447700Y-61000001D03*
X200447700Y-60150000D03*
X200447700Y-59299999D03*
D13*
X199400001Y-58252300D03*
X198550000Y-58252300D03*
X197699999Y-58252300D03*
X196850001Y-58252300D03*
X196000000Y-58252300D03*
X195149999Y-58252300D03*
X194300001Y-58252300D03*
X193450000Y-58252300D03*
X192599999Y-58252300D03*
X191750001Y-58252300D03*
X190900000Y-58252300D03*
X190049999Y-58252300D03*
X189200001Y-58252300D03*
X188350000Y-58252300D03*
X187499999Y-58252300D03*
D12*
X186452300Y-59299999D03*
X186452300Y-60150000D03*
X186452300Y-61000001D03*
X186452300Y-61849999D03*
X186452300Y-62700000D03*
X186452300Y-63550001D03*
X186452300Y-64399999D03*
X186452300Y-65250000D03*
X186452300Y-66100001D03*
X186452300Y-66949999D03*
X186452300Y-67800000D03*
X186452300Y-68650001D03*
X186452300Y-69499999D03*
X186452300Y-70350000D03*
X186452300Y-71200001D03*
D13*
X187499999Y-72247700D03*
X188350000Y-72247700D03*
X189200001Y-72247700D03*
X190049999Y-72247700D03*
X190900000Y-72247700D03*
X191750001Y-72247700D03*
X192599999Y-72247700D03*
X193450000Y-72247700D03*
X194300001Y-72247700D03*
X195149999Y-72247700D03*
X196000000Y-72247700D03*
X196850001Y-72247700D03*
X197699999Y-72247700D03*
X198550000Y-72247700D03*
X199400001Y-72247700D03*
D14*
X193450000Y-65250000D03*
D15*
X200447700Y-72247700D03*
X200447700Y-58252300D03*
X186452300Y-58252300D03*
X186452300Y-72247700D03*
D14*
X195100000Y-66900000D03*
X193450000Y-66900000D03*
X191800000Y-66900000D03*
X195100000Y-65250000D03*
X191800000Y-65250000D03*
X195100000Y-63600000D03*
X193450000Y-63600000D03*
X191800000Y-63600000D03*
%TD*%
D16*
%TO.C,U2*%
X211675000Y-63862500D03*
X212325000Y-63862500D03*
X212975000Y-63862500D03*
X213625000Y-63862500D03*
X214275000Y-63862500D03*
X214925000Y-63862500D03*
X215575000Y-63862500D03*
X216225000Y-63862500D03*
X216875000Y-63862500D03*
X217525000Y-63862500D03*
X217525000Y-58137500D03*
X216875000Y-58137500D03*
X216225000Y-58137500D03*
X215575000Y-58137500D03*
X214925000Y-58137500D03*
X214275000Y-58137500D03*
X213625000Y-58137500D03*
X212975000Y-58137500D03*
X212325000Y-58137500D03*
X211675000Y-58137500D03*
%TD*%
D17*
%TO.C,SW1*%
X206600000Y-67400000D03*
X206600000Y-64200000D03*
D18*
X208350000Y-66800000D03*
X204850000Y-66800000D03*
X208350000Y-64800000D03*
X204850000Y-64800000D03*
%TD*%
D19*
%TO.C,R1*%
X207575000Y-58800000D03*
X209400000Y-58800000D03*
%TD*%
D20*
%TO.C,U3*%
X212100000Y-75350000D03*
X214400000Y-75350000D03*
D21*
X214400000Y-69050000D03*
D20*
X216700000Y-75350000D03*
%TD*%
D22*
%TO.C,C4*%
X186537500Y-74600000D03*
X188437500Y-74600000D03*
%TD*%
D23*
%TO.C,R3*%
X192200000Y-74600000D03*
X190375000Y-74600000D03*
%TD*%
D22*
%TO.C,C1*%
X207550000Y-62200000D03*
X209450000Y-62200000D03*
%TD*%
D24*
%TO.C,D1*%
X203262500Y-58800000D03*
X205137500Y-58800000D03*
%TD*%
D11*
%TO.C,J1*%
X195825000Y-54380000D03*
X195025000Y-54380000D03*
X193750000Y-54380000D03*
X192750000Y-54380000D03*
X192250000Y-54380000D03*
X194250000Y-54380000D03*
X189975000Y-54380000D03*
X189175000Y-54380000D03*
X189425000Y-54380000D03*
X190225000Y-54380000D03*
X190750000Y-54380000D03*
X191750000Y-54380000D03*
X193250000Y-54380000D03*
X191250000Y-54380000D03*
X194775000Y-54380000D03*
X195575000Y-54380000D03*
%TD*%
D19*
%TO.C,R2*%
X203287500Y-62200000D03*
X205112500Y-62200000D03*
%TD*%
D10*
%TO.C,C3*%
X205100000Y-74400000D03*
X203200000Y-74400000D03*
%TD*%
%TO.C,C5*%
X209350000Y-71100000D03*
X207450000Y-71100000D03*
%TD*%
D25*
%TO.C,RN1*%
X184200000Y-50200000D03*
D26*
X184200000Y-51000000D03*
X184200000Y-51800000D03*
D25*
X184200000Y-52600000D03*
X186000000Y-52600000D03*
D26*
X186000000Y-51800000D03*
X186000000Y-51000000D03*
D25*
X186000000Y-50200000D03*
%TD*%
D10*
%TO.C,C2*%
X205050000Y-71000000D03*
X203150000Y-71000000D03*
%TD*%
M02*
