M48
; DRILL file {KiCad 8.0.8} date 2025-02-15T15:27:35-0600
; FORMAT={-:-/ absolute / inch / decimal}
; #@! TF.CreationDate,2025-02-15T15:27:35-06:00
; #@! TF.GenerationSoftware,Kicad,Pcbnew,8.0.8
; #@! TF.FileFunction,Plated,1,2,PTH
FMAT,2
INCH
; #@! TA.AperFunction,Plated,PTH,ViaDrill
T1C0.0118
; #@! TA.AperFunction,Plated,PTH,ComponentDrill
T2C0.0197
; #@! TA.AperFunction,Plated,PTH,ComponentDrill
T3C0.0236
; #@! TA.AperFunction,Plated,PTH,ComponentDrill
T4C0.0394
%
G90
G05
T1
X7.3768Y-2.8055
X7.4634Y-2.9008
X7.5118Y-2.1969
X7.6535Y-2.2047
X7.9508Y-2.5016
X8.0Y-2.685
X8.1177Y-2.4362
X8.1181Y-2.9921
X8.2461Y-2.4835
X8.2598Y-2.2205
X8.2677Y-3.0
X8.2992Y-2.7402
X8.313Y-2.1882
X8.3366Y-2.5988
X8.3386Y-2.6457
X8.3618Y-2.3571
X8.3701Y-2.8504
X8.374Y-2.198
X8.4016Y-2.5748
X8.4255Y-2.4628
X8.4354Y-2.8976
X8.4409Y-2.2205
X8.4409Y-2.3858
X8.4567Y-2.4142
X8.4583Y-2.7831
X8.4646Y-2.4634
X8.4647Y-2.5908
X8.4775Y-2.6419
X8.4882Y-2.5669
X8.5276Y-2.8425
X8.5296Y-2.5979
X8.5882Y-2.3252
X8.5984Y-2.3701
T2
X7.252Y-2.4016
X7.252Y-2.4409
X7.252Y-2.4803
X7.252Y-2.5197
X7.252Y-2.5591
X7.252Y-2.5984
X7.252Y-2.6378
X7.252Y-2.6772
T4
X7.8584Y-1.9529
X7.9291Y-2.0236
X7.9998Y-2.0943
X8.0706Y-2.165
X8.7091Y-2.3587
X8.7091Y-2.6579
X8.8091Y-2.3587
X8.8091Y-2.6579
X8.9091Y-2.3587
X8.9093Y-2.6579
X9.0091Y-2.3587
X9.0093Y-2.6579
X9.1091Y-2.3587
X9.1093Y-2.6579
X9.2091Y-2.3587
X9.2093Y-2.6579
X9.3091Y-2.3587
X9.3093Y-2.6579
T3
G00X7.4087Y-1.9657
M15
G01X7.4087Y-1.9343
M16
G05
G00X7.4087Y-2.135
M15
G01X7.4087Y-2.0917
M16
G05
G00X7.7488Y-1.9657
M15
G01X7.7488Y-1.9343
M16
G05
G00X7.7488Y-2.135
M15
G01X7.7488Y-2.0917
M16
G05
G00X8.1764Y-1.966
M15
G01X8.1764Y-1.9345
M16
G05
G00X8.1764Y-2.1353
M15
G01X8.1764Y-2.092
M16
G05
G00X8.5165Y-1.966
M15
G01X8.5165Y-1.9345
M16
G05
G00X8.5165Y-2.1353
M15
G01X8.5165Y-2.092
M16
G05
M30
